M48
; DRILL file {KiCad 5.1.4} date Fri 15 Nov 2019 14:10:02 GMT
; FORMAT={-:-/ absolute / metric / decimal}
; #@! TF.CreationDate,2019-11-15T14:10:02+00:00
; #@! TF.GenerationSoftware,Kicad,Pcbnew,5.1.4
; #@! TF.FileFunction,Plated,1,2,PTH
FMAT,2
METRIC
T1C0.400
T2C0.800
T3C1.000
T4C1.300
T5C3.200
%
G90
G05
T1
X18.034Y-3.81
X19.05Y-9.652
X31.75Y-23.876
X32.512Y-3.81
X32.512Y-7.62
X32.512Y-8.89
X32.512Y-18.542
X32.512Y-20.32
X34.925Y-13.97
X36.322Y-6.35
X36.322Y-22.86
X37.084Y-11.43
X37.592Y-3.81
X37.592Y-19.05
X38.354Y-26.416
X39.116Y-12.954
X39.116Y-15.24
X41.148Y-6.35
X41.148Y-20.32
X41.91Y-16.764
X42.164Y-10.16
X42.164Y-11.43
X42.164Y-15.494
X42.164Y-20.32
X42.164Y-20.32
X42.164Y-22.86
X44.45Y-16.51
X52.07Y-7.62
X52.07Y-20.32
X55.118Y-11.684
X57.15Y-17.78
T2
X82.55Y-16.51
X82.55Y-26.67
X52.07Y-26.67
X52.07Y-29.17
X85.725Y-16.51
X85.725Y-26.67
T3
X16.51Y-30.48
X21.59Y-27.94
X29.21Y-30.48
X16.51Y-15.24
X21.59Y-12.7
X29.21Y-15.24
X74.93Y-20.32
X74.93Y-22.86
X74.93Y-25.4
X74.93Y-27.94
X77.47Y-20.32
X77.47Y-22.86
X77.47Y-25.4
X77.47Y-27.94
X16.51Y-22.86
X21.59Y-20.32
X29.21Y-22.86
X16.51Y-7.62
X21.59Y-5.08
X29.21Y-7.62
T4
X59.81Y-4.505
X59.81Y-9.545
X59.81Y-14.585
X59.81Y-29.845
X67.31Y-4.505
X67.31Y-9.545
X67.31Y-14.585
X67.31Y-29.845
X74.93Y-7.62
X80.01Y-7.62
T5
X5.08Y-5.08
X5.08Y-30.48
X91.44Y-30.48
X91.44Y-5.08
T0
M30
