G04 #@! TF.GenerationSoftware,KiCad,Pcbnew,5.1.4*
G04 #@! TF.CreationDate,2019-11-14T20:38:05+00:00*
G04 #@! TF.ProjectId,BSPD,42535044-2e6b-4696-9361-645f70636258,rev?*
G04 #@! TF.SameCoordinates,Original*
G04 #@! TF.FileFunction,Soldermask,Top*
G04 #@! TF.FilePolarity,Negative*
%FSLAX46Y46*%
G04 Gerber Fmt 4.6, Leading zero omitted, Abs format (unit mm)*
G04 Created by KiCad (PCBNEW 5.1.4) date 2019-11-14 20:38:05*
%MOMM*%
%LPD*%
G04 APERTURE LIST*
%ADD10C,0.050000*%
%ADD11C,0.100000*%
G04 APERTURE END LIST*
D10*
X63500000Y-63500000D02*
X160020000Y-63500000D01*
X63500000Y-99060000D02*
X63500000Y-63500000D01*
X160020000Y-99060000D02*
X63500000Y-99060000D01*
X160020000Y-99060000D02*
X160020000Y-63500000D01*
D11*
G36*
X155574239Y-90791467D02*
G01*
X155888282Y-90853934D01*
X156479926Y-91099001D01*
X156850084Y-91346333D01*
X157012391Y-91454783D01*
X157465217Y-91907609D01*
X157488857Y-91942989D01*
X157820999Y-92440074D01*
X158066066Y-93031718D01*
X158114432Y-93274869D01*
X158191000Y-93659803D01*
X158191000Y-94300197D01*
X158159446Y-94458827D01*
X158066066Y-94928282D01*
X157820999Y-95519926D01*
X157465216Y-96052392D01*
X157012392Y-96505216D01*
X156479926Y-96860999D01*
X155888282Y-97106066D01*
X155574239Y-97168533D01*
X155260197Y-97231000D01*
X154619803Y-97231000D01*
X154305761Y-97168533D01*
X153991718Y-97106066D01*
X153400074Y-96860999D01*
X152867608Y-96505216D01*
X152414784Y-96052392D01*
X152059001Y-95519926D01*
X151813934Y-94928282D01*
X151720554Y-94458827D01*
X151689000Y-94300197D01*
X151689000Y-93659803D01*
X151765568Y-93274869D01*
X151813934Y-93031718D01*
X152059001Y-92440074D01*
X152391143Y-91942989D01*
X152414783Y-91907609D01*
X152867609Y-91454783D01*
X153029916Y-91346333D01*
X153400074Y-91099001D01*
X153991718Y-90853934D01*
X154305761Y-90791467D01*
X154619803Y-90729000D01*
X155260197Y-90729000D01*
X155574239Y-90791467D01*
X155574239Y-90791467D01*
G37*
G36*
X69214239Y-90791467D02*
G01*
X69528282Y-90853934D01*
X70119926Y-91099001D01*
X70490084Y-91346333D01*
X70652391Y-91454783D01*
X71105217Y-91907609D01*
X71128857Y-91942989D01*
X71460999Y-92440074D01*
X71706066Y-93031718D01*
X71754432Y-93274869D01*
X71831000Y-93659803D01*
X71831000Y-94300197D01*
X71799446Y-94458827D01*
X71706066Y-94928282D01*
X71460999Y-95519926D01*
X71105216Y-96052392D01*
X70652392Y-96505216D01*
X70119926Y-96860999D01*
X69528282Y-97106066D01*
X69214239Y-97168533D01*
X68900197Y-97231000D01*
X68259803Y-97231000D01*
X67945761Y-97168533D01*
X67631718Y-97106066D01*
X67040074Y-96860999D01*
X66507608Y-96505216D01*
X66054784Y-96052392D01*
X65699001Y-95519926D01*
X65453934Y-94928282D01*
X65360554Y-94458827D01*
X65329000Y-94300197D01*
X65329000Y-93659803D01*
X65405568Y-93274869D01*
X65453934Y-93031718D01*
X65699001Y-92440074D01*
X66031143Y-91942989D01*
X66054783Y-91907609D01*
X66507609Y-91454783D01*
X66669916Y-91346333D01*
X67040074Y-91099001D01*
X67631718Y-90853934D01*
X67945761Y-90791467D01*
X68259803Y-90729000D01*
X68900197Y-90729000D01*
X69214239Y-90791467D01*
X69214239Y-90791467D01*
G37*
G36*
X99511000Y-95846000D02*
G01*
X98609000Y-95846000D01*
X98609000Y-93844000D01*
X99511000Y-93844000D01*
X99511000Y-95846000D01*
X99511000Y-95846000D01*
G37*
G36*
X103321000Y-95846000D02*
G01*
X102419000Y-95846000D01*
X102419000Y-93844000D01*
X103321000Y-93844000D01*
X103321000Y-95846000D01*
X103321000Y-95846000D01*
G37*
G36*
X92987395Y-93065546D02*
G01*
X93160466Y-93137234D01*
X93160467Y-93137235D01*
X93316227Y-93241310D01*
X93448690Y-93373773D01*
X93448691Y-93373775D01*
X93552766Y-93529534D01*
X93624454Y-93702605D01*
X93661000Y-93886333D01*
X93661000Y-94073667D01*
X93624454Y-94257395D01*
X93552766Y-94430466D01*
X93551922Y-94431729D01*
X93448690Y-94586227D01*
X93316227Y-94718690D01*
X93237818Y-94771081D01*
X93160466Y-94822766D01*
X92987395Y-94894454D01*
X92803667Y-94931000D01*
X92616333Y-94931000D01*
X92432605Y-94894454D01*
X92259534Y-94822766D01*
X92182182Y-94771081D01*
X92103773Y-94718690D01*
X91971310Y-94586227D01*
X91868078Y-94431729D01*
X91867234Y-94430466D01*
X91795546Y-94257395D01*
X91759000Y-94073667D01*
X91759000Y-93886333D01*
X91795546Y-93702605D01*
X91867234Y-93529534D01*
X91971309Y-93373775D01*
X91971310Y-93373773D01*
X92103773Y-93241310D01*
X92259533Y-93137235D01*
X92259534Y-93137234D01*
X92432605Y-93065546D01*
X92616333Y-93029000D01*
X92803667Y-93029000D01*
X92987395Y-93065546D01*
X92987395Y-93065546D01*
G37*
G36*
X80287395Y-93065546D02*
G01*
X80460466Y-93137234D01*
X80460467Y-93137235D01*
X80616227Y-93241310D01*
X80748690Y-93373773D01*
X80748691Y-93373775D01*
X80852766Y-93529534D01*
X80924454Y-93702605D01*
X80961000Y-93886333D01*
X80961000Y-94073667D01*
X80924454Y-94257395D01*
X80852766Y-94430466D01*
X80851922Y-94431729D01*
X80748690Y-94586227D01*
X80616227Y-94718690D01*
X80537818Y-94771081D01*
X80460466Y-94822766D01*
X80287395Y-94894454D01*
X80103667Y-94931000D01*
X79916333Y-94931000D01*
X79732605Y-94894454D01*
X79559534Y-94822766D01*
X79482182Y-94771081D01*
X79403773Y-94718690D01*
X79271310Y-94586227D01*
X79168078Y-94431729D01*
X79167234Y-94430466D01*
X79095546Y-94257395D01*
X79059000Y-94073667D01*
X79059000Y-93886333D01*
X79095546Y-93702605D01*
X79167234Y-93529534D01*
X79271309Y-93373775D01*
X79271310Y-93373773D01*
X79403773Y-93241310D01*
X79559533Y-93137235D01*
X79559534Y-93137234D01*
X79732605Y-93065546D01*
X79916333Y-93029000D01*
X80103667Y-93029000D01*
X80287395Y-93065546D01*
X80287395Y-93065546D01*
G37*
G36*
X123516032Y-91809207D02*
G01*
X123656127Y-91851705D01*
X123714149Y-91869306D01*
X123801230Y-91915852D01*
X123896729Y-91966897D01*
X124056765Y-92098235D01*
X124188103Y-92258271D01*
X124225354Y-92327963D01*
X124285694Y-92440851D01*
X124285695Y-92440854D01*
X124345793Y-92638968D01*
X124361000Y-92793370D01*
X124361000Y-93896630D01*
X124345793Y-94051032D01*
X124285695Y-94249145D01*
X124285694Y-94249149D01*
X124258408Y-94300197D01*
X124188103Y-94431729D01*
X124056765Y-94591765D01*
X123896729Y-94723103D01*
X123780030Y-94785479D01*
X123714148Y-94820694D01*
X123714145Y-94820695D01*
X123516031Y-94880793D01*
X123310000Y-94901085D01*
X123103968Y-94880793D01*
X122905854Y-94820695D01*
X122905851Y-94820694D01*
X122809025Y-94768939D01*
X122723271Y-94723103D01*
X122563235Y-94591765D01*
X122431897Y-94431729D01*
X122369521Y-94315030D01*
X122334306Y-94249148D01*
X122281074Y-94073667D01*
X122274207Y-94051031D01*
X122259000Y-93896629D01*
X122259000Y-92793370D01*
X122262896Y-92753815D01*
X122274207Y-92638970D01*
X122334305Y-92440853D01*
X122422185Y-92276443D01*
X122431898Y-92258271D01*
X122563236Y-92098235D01*
X122723272Y-91966897D01*
X122818771Y-91915852D01*
X122905852Y-91869306D01*
X122963874Y-91851705D01*
X123103969Y-91809207D01*
X123310000Y-91788915D01*
X123516032Y-91809207D01*
X123516032Y-91809207D01*
G37*
G36*
X131861000Y-94896000D02*
G01*
X129759000Y-94896000D01*
X129759000Y-91794000D01*
X131861000Y-91794000D01*
X131861000Y-94896000D01*
X131861000Y-94896000D01*
G37*
G36*
X109438674Y-93233465D02*
G01*
X109476367Y-93244899D01*
X109511103Y-93263466D01*
X109541548Y-93288452D01*
X109566534Y-93318897D01*
X109585101Y-93353633D01*
X109596535Y-93391326D01*
X109601000Y-93436661D01*
X109601000Y-94523339D01*
X109596535Y-94568674D01*
X109585101Y-94606367D01*
X109566534Y-94641103D01*
X109541548Y-94671548D01*
X109511103Y-94696534D01*
X109476367Y-94715101D01*
X109438674Y-94726535D01*
X109393339Y-94731000D01*
X108556661Y-94731000D01*
X108511326Y-94726535D01*
X108473633Y-94715101D01*
X108438897Y-94696534D01*
X108408452Y-94671548D01*
X108383466Y-94641103D01*
X108364899Y-94606367D01*
X108353465Y-94568674D01*
X108349000Y-94523339D01*
X108349000Y-93436661D01*
X108353465Y-93391326D01*
X108364899Y-93353633D01*
X108383466Y-93318897D01*
X108408452Y-93288452D01*
X108438897Y-93263466D01*
X108473633Y-93244899D01*
X108511326Y-93233465D01*
X108556661Y-93229000D01*
X109393339Y-93229000D01*
X109438674Y-93233465D01*
X109438674Y-93233465D01*
G37*
G36*
X107388674Y-93233465D02*
G01*
X107426367Y-93244899D01*
X107461103Y-93263466D01*
X107491548Y-93288452D01*
X107516534Y-93318897D01*
X107535101Y-93353633D01*
X107546535Y-93391326D01*
X107551000Y-93436661D01*
X107551000Y-94523339D01*
X107546535Y-94568674D01*
X107535101Y-94606367D01*
X107516534Y-94641103D01*
X107491548Y-94671548D01*
X107461103Y-94696534D01*
X107426367Y-94715101D01*
X107388674Y-94726535D01*
X107343339Y-94731000D01*
X106506661Y-94731000D01*
X106461326Y-94726535D01*
X106423633Y-94715101D01*
X106388897Y-94696534D01*
X106358452Y-94671548D01*
X106333466Y-94641103D01*
X106314899Y-94606367D01*
X106303465Y-94568674D01*
X106299000Y-94523339D01*
X106299000Y-93436661D01*
X106303465Y-93391326D01*
X106314899Y-93353633D01*
X106333466Y-93318897D01*
X106358452Y-93288452D01*
X106388897Y-93263466D01*
X106423633Y-93244899D01*
X106461326Y-93233465D01*
X106506661Y-93229000D01*
X107343339Y-93229000D01*
X107388674Y-93233465D01*
X107388674Y-93233465D01*
G37*
G36*
X89753674Y-93233465D02*
G01*
X89791367Y-93244899D01*
X89826103Y-93263466D01*
X89856548Y-93288452D01*
X89881534Y-93318897D01*
X89900101Y-93353633D01*
X89911535Y-93391326D01*
X89916000Y-93436661D01*
X89916000Y-94523339D01*
X89911535Y-94568674D01*
X89900101Y-94606367D01*
X89881534Y-94641103D01*
X89856548Y-94671548D01*
X89826103Y-94696534D01*
X89791367Y-94715101D01*
X89753674Y-94726535D01*
X89708339Y-94731000D01*
X88871661Y-94731000D01*
X88826326Y-94726535D01*
X88788633Y-94715101D01*
X88753897Y-94696534D01*
X88723452Y-94671548D01*
X88698466Y-94641103D01*
X88679899Y-94606367D01*
X88668465Y-94568674D01*
X88664000Y-94523339D01*
X88664000Y-93436661D01*
X88668465Y-93391326D01*
X88679899Y-93353633D01*
X88698466Y-93318897D01*
X88723452Y-93288452D01*
X88753897Y-93263466D01*
X88788633Y-93244899D01*
X88826326Y-93233465D01*
X88871661Y-93229000D01*
X89708339Y-93229000D01*
X89753674Y-93233465D01*
X89753674Y-93233465D01*
G37*
G36*
X87703674Y-93233465D02*
G01*
X87741367Y-93244899D01*
X87776103Y-93263466D01*
X87806548Y-93288452D01*
X87831534Y-93318897D01*
X87850101Y-93353633D01*
X87861535Y-93391326D01*
X87866000Y-93436661D01*
X87866000Y-94523339D01*
X87861535Y-94568674D01*
X87850101Y-94606367D01*
X87831534Y-94641103D01*
X87806548Y-94671548D01*
X87776103Y-94696534D01*
X87741367Y-94715101D01*
X87703674Y-94726535D01*
X87658339Y-94731000D01*
X86821661Y-94731000D01*
X86776326Y-94726535D01*
X86738633Y-94715101D01*
X86703897Y-94696534D01*
X86673452Y-94671548D01*
X86648466Y-94641103D01*
X86629899Y-94606367D01*
X86618465Y-94568674D01*
X86614000Y-94523339D01*
X86614000Y-93436661D01*
X86618465Y-93391326D01*
X86629899Y-93353633D01*
X86648466Y-93318897D01*
X86673452Y-93288452D01*
X86703897Y-93263466D01*
X86738633Y-93244899D01*
X86776326Y-93233465D01*
X86821661Y-93229000D01*
X87658339Y-93229000D01*
X87703674Y-93233465D01*
X87703674Y-93233465D01*
G37*
G36*
X85943674Y-93233465D02*
G01*
X85981367Y-93244899D01*
X86016103Y-93263466D01*
X86046548Y-93288452D01*
X86071534Y-93318897D01*
X86090101Y-93353633D01*
X86101535Y-93391326D01*
X86106000Y-93436661D01*
X86106000Y-94523339D01*
X86101535Y-94568674D01*
X86090101Y-94606367D01*
X86071534Y-94641103D01*
X86046548Y-94671548D01*
X86016103Y-94696534D01*
X85981367Y-94715101D01*
X85943674Y-94726535D01*
X85898339Y-94731000D01*
X85061661Y-94731000D01*
X85016326Y-94726535D01*
X84978633Y-94715101D01*
X84943897Y-94696534D01*
X84913452Y-94671548D01*
X84888466Y-94641103D01*
X84869899Y-94606367D01*
X84858465Y-94568674D01*
X84854000Y-94523339D01*
X84854000Y-93436661D01*
X84858465Y-93391326D01*
X84869899Y-93353633D01*
X84888466Y-93318897D01*
X84913452Y-93288452D01*
X84943897Y-93263466D01*
X84978633Y-93244899D01*
X85016326Y-93233465D01*
X85061661Y-93229000D01*
X85898339Y-93229000D01*
X85943674Y-93233465D01*
X85943674Y-93233465D01*
G37*
G36*
X83893674Y-93233465D02*
G01*
X83931367Y-93244899D01*
X83966103Y-93263466D01*
X83996548Y-93288452D01*
X84021534Y-93318897D01*
X84040101Y-93353633D01*
X84051535Y-93391326D01*
X84056000Y-93436661D01*
X84056000Y-94523339D01*
X84051535Y-94568674D01*
X84040101Y-94606367D01*
X84021534Y-94641103D01*
X83996548Y-94671548D01*
X83966103Y-94696534D01*
X83931367Y-94715101D01*
X83893674Y-94726535D01*
X83848339Y-94731000D01*
X83011661Y-94731000D01*
X82966326Y-94726535D01*
X82928633Y-94715101D01*
X82893897Y-94696534D01*
X82863452Y-94671548D01*
X82838466Y-94641103D01*
X82819899Y-94606367D01*
X82808465Y-94568674D01*
X82804000Y-94523339D01*
X82804000Y-93436661D01*
X82808465Y-93391326D01*
X82819899Y-93353633D01*
X82838466Y-93318897D01*
X82863452Y-93288452D01*
X82893897Y-93263466D01*
X82928633Y-93244899D01*
X82966326Y-93233465D01*
X83011661Y-93229000D01*
X83848339Y-93229000D01*
X83893674Y-93233465D01*
X83893674Y-93233465D01*
G37*
G36*
X115818228Y-91851703D02*
G01*
X115973100Y-91915853D01*
X116112481Y-92008985D01*
X116231015Y-92127519D01*
X116324147Y-92266900D01*
X116388297Y-92421772D01*
X116421000Y-92586184D01*
X116421000Y-92753816D01*
X116388297Y-92918228D01*
X116324147Y-93073100D01*
X116231015Y-93212481D01*
X116112481Y-93331015D01*
X115973100Y-93424147D01*
X115818228Y-93488297D01*
X115653816Y-93521000D01*
X115486184Y-93521000D01*
X115321772Y-93488297D01*
X115166900Y-93424147D01*
X115027519Y-93331015D01*
X114908985Y-93212481D01*
X114815853Y-93073100D01*
X114751703Y-92918228D01*
X114719000Y-92753816D01*
X114719000Y-92586184D01*
X114751703Y-92421772D01*
X114815853Y-92266900D01*
X114908985Y-92127519D01*
X115027519Y-92008985D01*
X115166900Y-91915853D01*
X115321772Y-91851703D01*
X115486184Y-91819000D01*
X115653816Y-91819000D01*
X115818228Y-91851703D01*
X115818228Y-91851703D01*
G37*
G36*
X104271000Y-92846000D02*
G01*
X103369000Y-92846000D01*
X103369000Y-90844000D01*
X104271000Y-90844000D01*
X104271000Y-92846000D01*
X104271000Y-92846000D01*
G37*
G36*
X102371000Y-92846000D02*
G01*
X101469000Y-92846000D01*
X101469000Y-90844000D01*
X102371000Y-90844000D01*
X102371000Y-92846000D01*
X102371000Y-92846000D01*
G37*
G36*
X100461000Y-92846000D02*
G01*
X99559000Y-92846000D01*
X99559000Y-90844000D01*
X100461000Y-90844000D01*
X100461000Y-92846000D01*
X100461000Y-92846000D01*
G37*
G36*
X98561000Y-92846000D02*
G01*
X97659000Y-92846000D01*
X97659000Y-90844000D01*
X98561000Y-90844000D01*
X98561000Y-92846000D01*
X98561000Y-92846000D01*
G37*
G36*
X85367395Y-90525546D02*
G01*
X85540466Y-90597234D01*
X85612069Y-90645078D01*
X85696227Y-90701310D01*
X85828690Y-90833773D01*
X85860249Y-90881005D01*
X85932766Y-90989534D01*
X86004454Y-91162605D01*
X86041000Y-91346333D01*
X86041000Y-91533667D01*
X86004454Y-91717395D01*
X85932766Y-91890466D01*
X85915803Y-91915853D01*
X85828690Y-92046227D01*
X85696227Y-92178690D01*
X85675141Y-92192779D01*
X85540466Y-92282766D01*
X85367395Y-92354454D01*
X85183667Y-92391000D01*
X84996333Y-92391000D01*
X84812605Y-92354454D01*
X84639534Y-92282766D01*
X84504859Y-92192779D01*
X84483773Y-92178690D01*
X84351310Y-92046227D01*
X84264197Y-91915853D01*
X84247234Y-91890466D01*
X84175546Y-91717395D01*
X84139000Y-91533667D01*
X84139000Y-91346333D01*
X84175546Y-91162605D01*
X84247234Y-90989534D01*
X84319751Y-90881005D01*
X84351310Y-90833773D01*
X84483773Y-90701310D01*
X84567931Y-90645078D01*
X84639534Y-90597234D01*
X84812605Y-90525546D01*
X84996333Y-90489000D01*
X85183667Y-90489000D01*
X85367395Y-90525546D01*
X85367395Y-90525546D01*
G37*
G36*
X138540443Y-90545519D02*
G01*
X138606627Y-90552037D01*
X138776466Y-90603557D01*
X138932991Y-90687222D01*
X138941530Y-90694230D01*
X139070186Y-90799814D01*
X139149665Y-90896661D01*
X139182778Y-90937009D01*
X139266443Y-91093534D01*
X139317963Y-91263373D01*
X139335359Y-91440000D01*
X139317963Y-91616627D01*
X139266443Y-91786466D01*
X139182778Y-91942991D01*
X139163159Y-91966897D01*
X139070186Y-92080186D01*
X138991049Y-92145131D01*
X138932991Y-92192778D01*
X138776466Y-92276443D01*
X138606627Y-92327963D01*
X138540443Y-92334481D01*
X138474260Y-92341000D01*
X138385740Y-92341000D01*
X138319557Y-92334481D01*
X138253373Y-92327963D01*
X138083534Y-92276443D01*
X137927009Y-92192778D01*
X137868951Y-92145131D01*
X137789814Y-92080186D01*
X137696841Y-91966897D01*
X137677222Y-91942991D01*
X137593557Y-91786466D01*
X137542037Y-91616627D01*
X137524641Y-91440000D01*
X137542037Y-91263373D01*
X137593557Y-91093534D01*
X137677222Y-90937009D01*
X137710335Y-90896661D01*
X137789814Y-90799814D01*
X137918470Y-90694230D01*
X137927009Y-90687222D01*
X138083534Y-90603557D01*
X138253373Y-90552037D01*
X138319557Y-90545519D01*
X138385740Y-90539000D01*
X138474260Y-90539000D01*
X138540443Y-90545519D01*
X138540443Y-90545519D01*
G37*
G36*
X141080443Y-90545519D02*
G01*
X141146627Y-90552037D01*
X141316466Y-90603557D01*
X141472991Y-90687222D01*
X141481530Y-90694230D01*
X141610186Y-90799814D01*
X141689665Y-90896661D01*
X141722778Y-90937009D01*
X141806443Y-91093534D01*
X141857963Y-91263373D01*
X141875359Y-91440000D01*
X141857963Y-91616627D01*
X141806443Y-91786466D01*
X141722778Y-91942991D01*
X141703159Y-91966897D01*
X141610186Y-92080186D01*
X141531049Y-92145131D01*
X141472991Y-92192778D01*
X141316466Y-92276443D01*
X141146627Y-92327963D01*
X141080443Y-92334481D01*
X141014260Y-92341000D01*
X140925740Y-92341000D01*
X140859557Y-92334481D01*
X140793373Y-92327963D01*
X140623534Y-92276443D01*
X140467009Y-92192778D01*
X140408951Y-92145131D01*
X140329814Y-92080186D01*
X140236841Y-91966897D01*
X140217222Y-91942991D01*
X140133557Y-91786466D01*
X140082037Y-91616627D01*
X140064641Y-91440000D01*
X140082037Y-91263373D01*
X140133557Y-91093534D01*
X140217222Y-90937009D01*
X140250335Y-90896661D01*
X140329814Y-90799814D01*
X140458470Y-90694230D01*
X140467009Y-90687222D01*
X140623534Y-90603557D01*
X140793373Y-90552037D01*
X140859557Y-90545519D01*
X140925740Y-90539000D01*
X141014260Y-90539000D01*
X141080443Y-90545519D01*
X141080443Y-90545519D01*
G37*
G36*
X109438674Y-90693465D02*
G01*
X109476367Y-90704899D01*
X109511103Y-90723466D01*
X109541548Y-90748452D01*
X109566534Y-90778897D01*
X109585101Y-90813633D01*
X109596535Y-90851326D01*
X109601000Y-90896661D01*
X109601000Y-91983339D01*
X109596535Y-92028674D01*
X109585101Y-92066367D01*
X109566534Y-92101103D01*
X109541548Y-92131548D01*
X109511103Y-92156534D01*
X109476367Y-92175101D01*
X109438674Y-92186535D01*
X109393339Y-92191000D01*
X108556661Y-92191000D01*
X108511326Y-92186535D01*
X108473633Y-92175101D01*
X108438897Y-92156534D01*
X108408452Y-92131548D01*
X108383466Y-92101103D01*
X108364899Y-92066367D01*
X108353465Y-92028674D01*
X108349000Y-91983339D01*
X108349000Y-90896661D01*
X108353465Y-90851326D01*
X108364899Y-90813633D01*
X108383466Y-90778897D01*
X108408452Y-90748452D01*
X108438897Y-90723466D01*
X108473633Y-90704899D01*
X108511326Y-90693465D01*
X108556661Y-90689000D01*
X109393339Y-90689000D01*
X109438674Y-90693465D01*
X109438674Y-90693465D01*
G37*
G36*
X107388674Y-90693465D02*
G01*
X107426367Y-90704899D01*
X107461103Y-90723466D01*
X107491548Y-90748452D01*
X107516534Y-90778897D01*
X107535101Y-90813633D01*
X107546535Y-90851326D01*
X107551000Y-90896661D01*
X107551000Y-91983339D01*
X107546535Y-92028674D01*
X107535101Y-92066367D01*
X107516534Y-92101103D01*
X107491548Y-92131548D01*
X107461103Y-92156534D01*
X107426367Y-92175101D01*
X107388674Y-92186535D01*
X107343339Y-92191000D01*
X106506661Y-92191000D01*
X106461326Y-92186535D01*
X106423633Y-92175101D01*
X106388897Y-92156534D01*
X106358452Y-92131548D01*
X106333466Y-92101103D01*
X106314899Y-92066367D01*
X106303465Y-92028674D01*
X106299000Y-91983339D01*
X106299000Y-90896661D01*
X106303465Y-90851326D01*
X106314899Y-90813633D01*
X106333466Y-90778897D01*
X106358452Y-90748452D01*
X106388897Y-90723466D01*
X106423633Y-90704899D01*
X106461326Y-90693465D01*
X106506661Y-90689000D01*
X107343339Y-90689000D01*
X107388674Y-90693465D01*
X107388674Y-90693465D01*
G37*
G36*
X149391823Y-89331313D02*
G01*
X149522380Y-89370917D01*
X149548455Y-89378827D01*
X149552242Y-89379976D01*
X149670786Y-89443339D01*
X149700078Y-89458996D01*
X149829659Y-89565341D01*
X149936004Y-89694922D01*
X149936005Y-89694924D01*
X150015024Y-89842758D01*
X150063687Y-90003177D01*
X150080117Y-90170000D01*
X150063687Y-90336823D01*
X150015024Y-90497242D01*
X149958197Y-90603557D01*
X149936004Y-90645078D01*
X149829659Y-90774659D01*
X149700078Y-90881004D01*
X149700076Y-90881005D01*
X149552242Y-90960024D01*
X149552239Y-90960025D01*
X149522380Y-90969083D01*
X149391823Y-91008687D01*
X149266804Y-91021000D01*
X149183196Y-91021000D01*
X149058177Y-91008687D01*
X148927620Y-90969083D01*
X148897761Y-90960025D01*
X148897758Y-90960024D01*
X148749924Y-90881005D01*
X148749922Y-90881004D01*
X148620341Y-90774659D01*
X148513996Y-90645078D01*
X148491803Y-90603557D01*
X148434976Y-90497242D01*
X148386313Y-90336823D01*
X148369883Y-90170000D01*
X148386313Y-90003177D01*
X148434976Y-89842758D01*
X148513995Y-89694924D01*
X148513996Y-89694922D01*
X148620341Y-89565341D01*
X148749922Y-89458996D01*
X148779214Y-89443339D01*
X148897758Y-89379976D01*
X148901546Y-89378827D01*
X148927620Y-89370917D01*
X149058177Y-89331313D01*
X149183196Y-89319000D01*
X149266804Y-89319000D01*
X149391823Y-89331313D01*
X149391823Y-89331313D01*
G37*
G36*
X116421000Y-91021000D02*
G01*
X114719000Y-91021000D01*
X114719000Y-89319000D01*
X116421000Y-89319000D01*
X116421000Y-91021000D01*
X116421000Y-91021000D01*
G37*
G36*
X146216823Y-89331313D02*
G01*
X146347380Y-89370917D01*
X146373455Y-89378827D01*
X146377242Y-89379976D01*
X146495786Y-89443339D01*
X146525078Y-89458996D01*
X146654659Y-89565341D01*
X146761004Y-89694922D01*
X146761005Y-89694924D01*
X146840024Y-89842758D01*
X146888687Y-90003177D01*
X146905117Y-90170000D01*
X146888687Y-90336823D01*
X146840024Y-90497242D01*
X146783197Y-90603557D01*
X146761004Y-90645078D01*
X146654659Y-90774659D01*
X146525078Y-90881004D01*
X146525076Y-90881005D01*
X146377242Y-90960024D01*
X146377239Y-90960025D01*
X146347380Y-90969083D01*
X146216823Y-91008687D01*
X146091804Y-91021000D01*
X146008196Y-91021000D01*
X145883177Y-91008687D01*
X145752620Y-90969083D01*
X145722761Y-90960025D01*
X145722758Y-90960024D01*
X145574924Y-90881005D01*
X145574922Y-90881004D01*
X145445341Y-90774659D01*
X145338996Y-90645078D01*
X145316803Y-90603557D01*
X145259976Y-90497242D01*
X145211313Y-90336823D01*
X145194883Y-90170000D01*
X145211313Y-90003177D01*
X145259976Y-89842758D01*
X145338995Y-89694924D01*
X145338996Y-89694922D01*
X145445341Y-89565341D01*
X145574922Y-89458996D01*
X145604214Y-89443339D01*
X145722758Y-89379976D01*
X145726546Y-89378827D01*
X145752620Y-89370917D01*
X145883177Y-89331313D01*
X146008196Y-89319000D01*
X146091804Y-89319000D01*
X146216823Y-89331313D01*
X146216823Y-89331313D01*
G37*
G36*
X141080443Y-88005519D02*
G01*
X141146627Y-88012037D01*
X141316466Y-88063557D01*
X141472991Y-88147222D01*
X141481530Y-88154230D01*
X141610186Y-88259814D01*
X141689665Y-88356661D01*
X141722778Y-88397009D01*
X141806443Y-88553534D01*
X141857963Y-88723373D01*
X141875359Y-88900000D01*
X141857963Y-89076627D01*
X141806443Y-89246466D01*
X141722778Y-89402991D01*
X141699032Y-89431925D01*
X141610186Y-89540186D01*
X141517154Y-89616534D01*
X141472991Y-89652778D01*
X141316466Y-89736443D01*
X141146627Y-89787963D01*
X141080443Y-89794481D01*
X141014260Y-89801000D01*
X140925740Y-89801000D01*
X140859557Y-89794481D01*
X140793373Y-89787963D01*
X140623534Y-89736443D01*
X140467009Y-89652778D01*
X140422846Y-89616534D01*
X140329814Y-89540186D01*
X140240968Y-89431925D01*
X140217222Y-89402991D01*
X140133557Y-89246466D01*
X140082037Y-89076627D01*
X140064641Y-88900000D01*
X140082037Y-88723373D01*
X140133557Y-88553534D01*
X140217222Y-88397009D01*
X140250335Y-88356661D01*
X140329814Y-88259814D01*
X140458470Y-88154230D01*
X140467009Y-88147222D01*
X140623534Y-88063557D01*
X140793373Y-88012037D01*
X140859557Y-88005519D01*
X140925740Y-87999000D01*
X141014260Y-87999000D01*
X141080443Y-88005519D01*
X141080443Y-88005519D01*
G37*
G36*
X138540443Y-88005519D02*
G01*
X138606627Y-88012037D01*
X138776466Y-88063557D01*
X138932991Y-88147222D01*
X138941530Y-88154230D01*
X139070186Y-88259814D01*
X139149665Y-88356661D01*
X139182778Y-88397009D01*
X139266443Y-88553534D01*
X139317963Y-88723373D01*
X139335359Y-88900000D01*
X139317963Y-89076627D01*
X139266443Y-89246466D01*
X139182778Y-89402991D01*
X139159032Y-89431925D01*
X139070186Y-89540186D01*
X138977154Y-89616534D01*
X138932991Y-89652778D01*
X138776466Y-89736443D01*
X138606627Y-89787963D01*
X138540443Y-89794481D01*
X138474260Y-89801000D01*
X138385740Y-89801000D01*
X138319557Y-89794481D01*
X138253373Y-89787963D01*
X138083534Y-89736443D01*
X137927009Y-89652778D01*
X137882846Y-89616534D01*
X137789814Y-89540186D01*
X137700968Y-89431925D01*
X137677222Y-89402991D01*
X137593557Y-89246466D01*
X137542037Y-89076627D01*
X137524641Y-88900000D01*
X137542037Y-88723373D01*
X137593557Y-88553534D01*
X137677222Y-88397009D01*
X137710335Y-88356661D01*
X137789814Y-88259814D01*
X137918470Y-88154230D01*
X137927009Y-88147222D01*
X138083534Y-88063557D01*
X138253373Y-88012037D01*
X138319557Y-88005519D01*
X138385740Y-87999000D01*
X138474260Y-87999000D01*
X138540443Y-88005519D01*
X138540443Y-88005519D01*
G37*
G36*
X85323642Y-88129781D02*
G01*
X85453248Y-88183466D01*
X85469416Y-88190163D01*
X85600608Y-88277822D01*
X85712178Y-88389392D01*
X85733413Y-88421173D01*
X85799838Y-88520586D01*
X85860219Y-88666358D01*
X85891000Y-88821107D01*
X85891000Y-88978893D01*
X85860219Y-89133642D01*
X85799838Y-89279414D01*
X85799837Y-89279416D01*
X85712178Y-89410608D01*
X85600608Y-89522178D01*
X85469416Y-89609837D01*
X85469415Y-89609838D01*
X85469414Y-89609838D01*
X85323642Y-89670219D01*
X85168893Y-89701000D01*
X85011107Y-89701000D01*
X84856358Y-89670219D01*
X84710586Y-89609838D01*
X84710585Y-89609838D01*
X84710584Y-89609837D01*
X84579392Y-89522178D01*
X84467822Y-89410608D01*
X84380163Y-89279416D01*
X84380162Y-89279414D01*
X84319781Y-89133642D01*
X84289000Y-88978893D01*
X84289000Y-88821107D01*
X84319781Y-88666358D01*
X84380162Y-88520586D01*
X84446587Y-88421173D01*
X84467822Y-88389392D01*
X84579392Y-88277822D01*
X84710584Y-88190163D01*
X84726752Y-88183466D01*
X84856358Y-88129781D01*
X85011107Y-88099000D01*
X85168893Y-88099000D01*
X85323642Y-88129781D01*
X85323642Y-88129781D01*
G37*
G36*
X107388674Y-88153465D02*
G01*
X107426367Y-88164899D01*
X107461103Y-88183466D01*
X107491548Y-88208452D01*
X107516534Y-88238897D01*
X107535101Y-88273633D01*
X107546535Y-88311326D01*
X107551000Y-88356661D01*
X107551000Y-89443339D01*
X107546535Y-89488674D01*
X107535101Y-89526367D01*
X107516534Y-89561103D01*
X107491548Y-89591548D01*
X107461103Y-89616534D01*
X107426367Y-89635101D01*
X107388674Y-89646535D01*
X107343339Y-89651000D01*
X106506661Y-89651000D01*
X106461326Y-89646535D01*
X106423633Y-89635101D01*
X106388897Y-89616534D01*
X106358452Y-89591548D01*
X106333466Y-89561103D01*
X106314899Y-89526367D01*
X106303465Y-89488674D01*
X106299000Y-89443339D01*
X106299000Y-88356661D01*
X106303465Y-88311326D01*
X106314899Y-88273633D01*
X106333466Y-88238897D01*
X106358452Y-88208452D01*
X106388897Y-88183466D01*
X106423633Y-88164899D01*
X106461326Y-88153465D01*
X106506661Y-88149000D01*
X107343339Y-88149000D01*
X107388674Y-88153465D01*
X107388674Y-88153465D01*
G37*
G36*
X109438674Y-88153465D02*
G01*
X109476367Y-88164899D01*
X109511103Y-88183466D01*
X109541548Y-88208452D01*
X109566534Y-88238897D01*
X109585101Y-88273633D01*
X109596535Y-88311326D01*
X109601000Y-88356661D01*
X109601000Y-89443339D01*
X109596535Y-89488674D01*
X109585101Y-89526367D01*
X109566534Y-89561103D01*
X109541548Y-89591548D01*
X109511103Y-89616534D01*
X109476367Y-89635101D01*
X109438674Y-89646535D01*
X109393339Y-89651000D01*
X108556661Y-89651000D01*
X108511326Y-89646535D01*
X108473633Y-89635101D01*
X108438897Y-89616534D01*
X108408452Y-89591548D01*
X108383466Y-89561103D01*
X108364899Y-89526367D01*
X108353465Y-89488674D01*
X108349000Y-89443339D01*
X108349000Y-88356661D01*
X108353465Y-88311326D01*
X108364899Y-88273633D01*
X108383466Y-88238897D01*
X108408452Y-88208452D01*
X108438897Y-88183466D01*
X108473633Y-88164899D01*
X108511326Y-88153465D01*
X108556661Y-88149000D01*
X109393339Y-88149000D01*
X109438674Y-88153465D01*
X109438674Y-88153465D01*
G37*
G36*
X103739928Y-87281764D02*
G01*
X103761009Y-87288160D01*
X103780445Y-87298548D01*
X103797476Y-87312524D01*
X103811452Y-87329555D01*
X103821840Y-87348991D01*
X103828236Y-87370072D01*
X103831000Y-87398140D01*
X103831000Y-87861860D01*
X103828236Y-87889928D01*
X103821840Y-87911009D01*
X103811452Y-87930445D01*
X103797476Y-87947476D01*
X103780445Y-87961452D01*
X103761009Y-87971840D01*
X103739928Y-87978236D01*
X103711860Y-87981000D01*
X101898140Y-87981000D01*
X101870072Y-87978236D01*
X101848991Y-87971840D01*
X101829555Y-87961452D01*
X101812524Y-87947476D01*
X101798548Y-87930445D01*
X101788160Y-87911009D01*
X101781764Y-87889928D01*
X101779000Y-87861860D01*
X101779000Y-87398140D01*
X101781764Y-87370072D01*
X101788160Y-87348991D01*
X101798548Y-87329555D01*
X101812524Y-87312524D01*
X101829555Y-87298548D01*
X101848991Y-87288160D01*
X101870072Y-87281764D01*
X101898140Y-87279000D01*
X103711860Y-87279000D01*
X103739928Y-87281764D01*
X103739928Y-87281764D01*
G37*
G36*
X98789928Y-87281764D02*
G01*
X98811009Y-87288160D01*
X98830445Y-87298548D01*
X98847476Y-87312524D01*
X98861452Y-87329555D01*
X98871840Y-87348991D01*
X98878236Y-87370072D01*
X98881000Y-87398140D01*
X98881000Y-87861860D01*
X98878236Y-87889928D01*
X98871840Y-87911009D01*
X98861452Y-87930445D01*
X98847476Y-87947476D01*
X98830445Y-87961452D01*
X98811009Y-87971840D01*
X98789928Y-87978236D01*
X98761860Y-87981000D01*
X96948140Y-87981000D01*
X96920072Y-87978236D01*
X96898991Y-87971840D01*
X96879555Y-87961452D01*
X96862524Y-87947476D01*
X96848548Y-87930445D01*
X96838160Y-87911009D01*
X96831764Y-87889928D01*
X96829000Y-87861860D01*
X96829000Y-87398140D01*
X96831764Y-87370072D01*
X96838160Y-87348991D01*
X96848548Y-87329555D01*
X96862524Y-87312524D01*
X96879555Y-87298548D01*
X96898991Y-87288160D01*
X96920072Y-87281764D01*
X96948140Y-87279000D01*
X98761860Y-87279000D01*
X98789928Y-87281764D01*
X98789928Y-87281764D01*
G37*
G36*
X80287395Y-85445546D02*
G01*
X80460466Y-85517234D01*
X80537818Y-85568919D01*
X80616227Y-85621310D01*
X80748690Y-85753773D01*
X80748691Y-85753775D01*
X80852766Y-85909534D01*
X80924454Y-86082605D01*
X80961000Y-86266333D01*
X80961000Y-86453667D01*
X80924454Y-86637395D01*
X80852766Y-86810466D01*
X80852765Y-86810467D01*
X80748690Y-86966227D01*
X80616227Y-87098690D01*
X80595141Y-87112779D01*
X80460466Y-87202766D01*
X80287395Y-87274454D01*
X80103667Y-87311000D01*
X79916333Y-87311000D01*
X79732605Y-87274454D01*
X79559534Y-87202766D01*
X79424859Y-87112779D01*
X79403773Y-87098690D01*
X79271310Y-86966227D01*
X79167235Y-86810467D01*
X79167234Y-86810466D01*
X79095546Y-86637395D01*
X79059000Y-86453667D01*
X79059000Y-86266333D01*
X79095546Y-86082605D01*
X79167234Y-85909534D01*
X79271309Y-85753775D01*
X79271310Y-85753773D01*
X79403773Y-85621310D01*
X79482182Y-85568919D01*
X79559534Y-85517234D01*
X79732605Y-85445546D01*
X79916333Y-85409000D01*
X80103667Y-85409000D01*
X80287395Y-85445546D01*
X80287395Y-85445546D01*
G37*
G36*
X92987395Y-85445546D02*
G01*
X93160466Y-85517234D01*
X93237818Y-85568919D01*
X93316227Y-85621310D01*
X93448690Y-85753773D01*
X93448691Y-85753775D01*
X93552766Y-85909534D01*
X93624454Y-86082605D01*
X93661000Y-86266333D01*
X93661000Y-86453667D01*
X93624454Y-86637395D01*
X93552766Y-86810466D01*
X93552765Y-86810467D01*
X93448690Y-86966227D01*
X93316227Y-87098690D01*
X93295141Y-87112779D01*
X93160466Y-87202766D01*
X92987395Y-87274454D01*
X92803667Y-87311000D01*
X92616333Y-87311000D01*
X92432605Y-87274454D01*
X92259534Y-87202766D01*
X92124859Y-87112779D01*
X92103773Y-87098690D01*
X91971310Y-86966227D01*
X91867235Y-86810467D01*
X91867234Y-86810466D01*
X91795546Y-86637395D01*
X91759000Y-86453667D01*
X91759000Y-86266333D01*
X91795546Y-86082605D01*
X91867234Y-85909534D01*
X91971309Y-85753775D01*
X91971310Y-85753773D01*
X92103773Y-85621310D01*
X92182182Y-85568919D01*
X92259534Y-85517234D01*
X92432605Y-85445546D01*
X92616333Y-85409000D01*
X92803667Y-85409000D01*
X92987395Y-85445546D01*
X92987395Y-85445546D01*
G37*
G36*
X141080442Y-85465518D02*
G01*
X141146627Y-85472037D01*
X141316466Y-85523557D01*
X141472991Y-85607222D01*
X141481530Y-85614230D01*
X141610186Y-85719814D01*
X141689665Y-85816661D01*
X141722778Y-85857009D01*
X141806443Y-86013534D01*
X141857963Y-86183373D01*
X141875359Y-86360000D01*
X141857963Y-86536627D01*
X141806443Y-86706466D01*
X141722778Y-86862991D01*
X141699032Y-86891925D01*
X141610186Y-87000186D01*
X141531049Y-87065131D01*
X141472991Y-87112778D01*
X141316466Y-87196443D01*
X141146627Y-87247963D01*
X141080442Y-87254482D01*
X141014260Y-87261000D01*
X140925740Y-87261000D01*
X140859558Y-87254482D01*
X140793373Y-87247963D01*
X140623534Y-87196443D01*
X140467009Y-87112778D01*
X140408951Y-87065131D01*
X140329814Y-87000186D01*
X140240968Y-86891925D01*
X140217222Y-86862991D01*
X140133557Y-86706466D01*
X140082037Y-86536627D01*
X140064641Y-86360000D01*
X140082037Y-86183373D01*
X140133557Y-86013534D01*
X140217222Y-85857009D01*
X140250335Y-85816661D01*
X140329814Y-85719814D01*
X140458470Y-85614230D01*
X140467009Y-85607222D01*
X140623534Y-85523557D01*
X140793373Y-85472037D01*
X140859558Y-85465518D01*
X140925740Y-85459000D01*
X141014260Y-85459000D01*
X141080442Y-85465518D01*
X141080442Y-85465518D01*
G37*
G36*
X138540442Y-85465518D02*
G01*
X138606627Y-85472037D01*
X138776466Y-85523557D01*
X138932991Y-85607222D01*
X138941530Y-85614230D01*
X139070186Y-85719814D01*
X139149665Y-85816661D01*
X139182778Y-85857009D01*
X139266443Y-86013534D01*
X139317963Y-86183373D01*
X139335359Y-86360000D01*
X139317963Y-86536627D01*
X139266443Y-86706466D01*
X139182778Y-86862991D01*
X139159032Y-86891925D01*
X139070186Y-87000186D01*
X138991049Y-87065131D01*
X138932991Y-87112778D01*
X138776466Y-87196443D01*
X138606627Y-87247963D01*
X138540442Y-87254482D01*
X138474260Y-87261000D01*
X138385740Y-87261000D01*
X138319558Y-87254482D01*
X138253373Y-87247963D01*
X138083534Y-87196443D01*
X137927009Y-87112778D01*
X137868951Y-87065131D01*
X137789814Y-87000186D01*
X137700968Y-86891925D01*
X137677222Y-86862991D01*
X137593557Y-86706466D01*
X137542037Y-86536627D01*
X137524641Y-86360000D01*
X137542037Y-86183373D01*
X137593557Y-86013534D01*
X137677222Y-85857009D01*
X137710335Y-85816661D01*
X137789814Y-85719814D01*
X137918470Y-85614230D01*
X137927009Y-85607222D01*
X138083534Y-85523557D01*
X138253373Y-85472037D01*
X138319558Y-85465518D01*
X138385740Y-85459000D01*
X138474260Y-85459000D01*
X138540442Y-85465518D01*
X138540442Y-85465518D01*
G37*
G36*
X107388674Y-85613465D02*
G01*
X107426367Y-85624899D01*
X107461103Y-85643466D01*
X107491548Y-85668452D01*
X107516534Y-85698897D01*
X107535101Y-85733633D01*
X107546535Y-85771326D01*
X107551000Y-85816661D01*
X107551000Y-86903339D01*
X107546535Y-86948674D01*
X107535101Y-86986367D01*
X107516534Y-87021103D01*
X107491548Y-87051548D01*
X107461103Y-87076534D01*
X107426367Y-87095101D01*
X107388674Y-87106535D01*
X107343339Y-87111000D01*
X106506661Y-87111000D01*
X106461326Y-87106535D01*
X106423633Y-87095101D01*
X106388897Y-87076534D01*
X106358452Y-87051548D01*
X106333466Y-87021103D01*
X106314899Y-86986367D01*
X106303465Y-86948674D01*
X106299000Y-86903339D01*
X106299000Y-85816661D01*
X106303465Y-85771326D01*
X106314899Y-85733633D01*
X106333466Y-85698897D01*
X106358452Y-85668452D01*
X106388897Y-85643466D01*
X106423633Y-85624899D01*
X106461326Y-85613465D01*
X106506661Y-85609000D01*
X107343339Y-85609000D01*
X107388674Y-85613465D01*
X107388674Y-85613465D01*
G37*
G36*
X87703674Y-85613465D02*
G01*
X87741367Y-85624899D01*
X87776103Y-85643466D01*
X87806548Y-85668452D01*
X87831534Y-85698897D01*
X87850101Y-85733633D01*
X87861535Y-85771326D01*
X87866000Y-85816661D01*
X87866000Y-86903339D01*
X87861535Y-86948674D01*
X87850101Y-86986367D01*
X87831534Y-87021103D01*
X87806548Y-87051548D01*
X87776103Y-87076534D01*
X87741367Y-87095101D01*
X87703674Y-87106535D01*
X87658339Y-87111000D01*
X86821661Y-87111000D01*
X86776326Y-87106535D01*
X86738633Y-87095101D01*
X86703897Y-87076534D01*
X86673452Y-87051548D01*
X86648466Y-87021103D01*
X86629899Y-86986367D01*
X86618465Y-86948674D01*
X86614000Y-86903339D01*
X86614000Y-85816661D01*
X86618465Y-85771326D01*
X86629899Y-85733633D01*
X86648466Y-85698897D01*
X86673452Y-85668452D01*
X86703897Y-85643466D01*
X86738633Y-85624899D01*
X86776326Y-85613465D01*
X86821661Y-85609000D01*
X87658339Y-85609000D01*
X87703674Y-85613465D01*
X87703674Y-85613465D01*
G37*
G36*
X89753674Y-85613465D02*
G01*
X89791367Y-85624899D01*
X89826103Y-85643466D01*
X89856548Y-85668452D01*
X89881534Y-85698897D01*
X89900101Y-85733633D01*
X89911535Y-85771326D01*
X89916000Y-85816661D01*
X89916000Y-86903339D01*
X89911535Y-86948674D01*
X89900101Y-86986367D01*
X89881534Y-87021103D01*
X89856548Y-87051548D01*
X89826103Y-87076534D01*
X89791367Y-87095101D01*
X89753674Y-87106535D01*
X89708339Y-87111000D01*
X88871661Y-87111000D01*
X88826326Y-87106535D01*
X88788633Y-87095101D01*
X88753897Y-87076534D01*
X88723452Y-87051548D01*
X88698466Y-87021103D01*
X88679899Y-86986367D01*
X88668465Y-86948674D01*
X88664000Y-86903339D01*
X88664000Y-85816661D01*
X88668465Y-85771326D01*
X88679899Y-85733633D01*
X88698466Y-85698897D01*
X88723452Y-85668452D01*
X88753897Y-85643466D01*
X88788633Y-85624899D01*
X88826326Y-85613465D01*
X88871661Y-85609000D01*
X89708339Y-85609000D01*
X89753674Y-85613465D01*
X89753674Y-85613465D01*
G37*
G36*
X83893674Y-85613465D02*
G01*
X83931367Y-85624899D01*
X83966103Y-85643466D01*
X83996548Y-85668452D01*
X84021534Y-85698897D01*
X84040101Y-85733633D01*
X84051535Y-85771326D01*
X84056000Y-85816661D01*
X84056000Y-86903339D01*
X84051535Y-86948674D01*
X84040101Y-86986367D01*
X84021534Y-87021103D01*
X83996548Y-87051548D01*
X83966103Y-87076534D01*
X83931367Y-87095101D01*
X83893674Y-87106535D01*
X83848339Y-87111000D01*
X83011661Y-87111000D01*
X82966326Y-87106535D01*
X82928633Y-87095101D01*
X82893897Y-87076534D01*
X82863452Y-87051548D01*
X82838466Y-87021103D01*
X82819899Y-86986367D01*
X82808465Y-86948674D01*
X82804000Y-86903339D01*
X82804000Y-85816661D01*
X82808465Y-85771326D01*
X82819899Y-85733633D01*
X82838466Y-85698897D01*
X82863452Y-85668452D01*
X82893897Y-85643466D01*
X82928633Y-85624899D01*
X82966326Y-85613465D01*
X83011661Y-85609000D01*
X83848339Y-85609000D01*
X83893674Y-85613465D01*
X83893674Y-85613465D01*
G37*
G36*
X85943674Y-85613465D02*
G01*
X85981367Y-85624899D01*
X86016103Y-85643466D01*
X86046548Y-85668452D01*
X86071534Y-85698897D01*
X86090101Y-85733633D01*
X86101535Y-85771326D01*
X86106000Y-85816661D01*
X86106000Y-86903339D01*
X86101535Y-86948674D01*
X86090101Y-86986367D01*
X86071534Y-87021103D01*
X86046548Y-87051548D01*
X86016103Y-87076534D01*
X85981367Y-87095101D01*
X85943674Y-87106535D01*
X85898339Y-87111000D01*
X85061661Y-87111000D01*
X85016326Y-87106535D01*
X84978633Y-87095101D01*
X84943897Y-87076534D01*
X84913452Y-87051548D01*
X84888466Y-87021103D01*
X84869899Y-86986367D01*
X84858465Y-86948674D01*
X84854000Y-86903339D01*
X84854000Y-85816661D01*
X84858465Y-85771326D01*
X84869899Y-85733633D01*
X84888466Y-85698897D01*
X84913452Y-85668452D01*
X84943897Y-85643466D01*
X84978633Y-85624899D01*
X85016326Y-85613465D01*
X85061661Y-85609000D01*
X85898339Y-85609000D01*
X85943674Y-85613465D01*
X85943674Y-85613465D01*
G37*
G36*
X109438674Y-85613465D02*
G01*
X109476367Y-85624899D01*
X109511103Y-85643466D01*
X109541548Y-85668452D01*
X109566534Y-85698897D01*
X109585101Y-85733633D01*
X109596535Y-85771326D01*
X109601000Y-85816661D01*
X109601000Y-86903339D01*
X109596535Y-86948674D01*
X109585101Y-86986367D01*
X109566534Y-87021103D01*
X109541548Y-87051548D01*
X109511103Y-87076534D01*
X109476367Y-87095101D01*
X109438674Y-87106535D01*
X109393339Y-87111000D01*
X108556661Y-87111000D01*
X108511326Y-87106535D01*
X108473633Y-87095101D01*
X108438897Y-87076534D01*
X108408452Y-87051548D01*
X108383466Y-87021103D01*
X108364899Y-86986367D01*
X108353465Y-86948674D01*
X108349000Y-86903339D01*
X108349000Y-85816661D01*
X108353465Y-85771326D01*
X108364899Y-85733633D01*
X108383466Y-85698897D01*
X108408452Y-85668452D01*
X108438897Y-85643466D01*
X108473633Y-85624899D01*
X108511326Y-85613465D01*
X108556661Y-85609000D01*
X109393339Y-85609000D01*
X109438674Y-85613465D01*
X109438674Y-85613465D01*
G37*
G36*
X103739928Y-86011764D02*
G01*
X103761009Y-86018160D01*
X103780445Y-86028548D01*
X103797476Y-86042524D01*
X103811452Y-86059555D01*
X103821840Y-86078991D01*
X103828236Y-86100072D01*
X103831000Y-86128140D01*
X103831000Y-86591860D01*
X103828236Y-86619928D01*
X103821840Y-86641009D01*
X103811452Y-86660445D01*
X103797476Y-86677476D01*
X103780445Y-86691452D01*
X103761009Y-86701840D01*
X103739928Y-86708236D01*
X103711860Y-86711000D01*
X101898140Y-86711000D01*
X101870072Y-86708236D01*
X101848991Y-86701840D01*
X101829555Y-86691452D01*
X101812524Y-86677476D01*
X101798548Y-86660445D01*
X101788160Y-86641009D01*
X101781764Y-86619928D01*
X101779000Y-86591860D01*
X101779000Y-86128140D01*
X101781764Y-86100072D01*
X101788160Y-86078991D01*
X101798548Y-86059555D01*
X101812524Y-86042524D01*
X101829555Y-86028548D01*
X101848991Y-86018160D01*
X101870072Y-86011764D01*
X101898140Y-86009000D01*
X103711860Y-86009000D01*
X103739928Y-86011764D01*
X103739928Y-86011764D01*
G37*
G36*
X98789928Y-86011764D02*
G01*
X98811009Y-86018160D01*
X98830445Y-86028548D01*
X98847476Y-86042524D01*
X98861452Y-86059555D01*
X98871840Y-86078991D01*
X98878236Y-86100072D01*
X98881000Y-86128140D01*
X98881000Y-86591860D01*
X98878236Y-86619928D01*
X98871840Y-86641009D01*
X98861452Y-86660445D01*
X98847476Y-86677476D01*
X98830445Y-86691452D01*
X98811009Y-86701840D01*
X98789928Y-86708236D01*
X98761860Y-86711000D01*
X96948140Y-86711000D01*
X96920072Y-86708236D01*
X96898991Y-86701840D01*
X96879555Y-86691452D01*
X96862524Y-86677476D01*
X96848548Y-86660445D01*
X96838160Y-86641009D01*
X96831764Y-86619928D01*
X96829000Y-86591860D01*
X96829000Y-86128140D01*
X96831764Y-86100072D01*
X96838160Y-86078991D01*
X96848548Y-86059555D01*
X96862524Y-86042524D01*
X96879555Y-86028548D01*
X96898991Y-86018160D01*
X96920072Y-86011764D01*
X96948140Y-86009000D01*
X98761860Y-86009000D01*
X98789928Y-86011764D01*
X98789928Y-86011764D01*
G37*
G36*
X98789928Y-84741764D02*
G01*
X98811009Y-84748160D01*
X98830445Y-84758548D01*
X98847476Y-84772524D01*
X98861452Y-84789555D01*
X98871840Y-84808991D01*
X98878236Y-84830072D01*
X98881000Y-84858140D01*
X98881000Y-85321860D01*
X98878236Y-85349928D01*
X98871840Y-85371009D01*
X98861452Y-85390445D01*
X98847476Y-85407476D01*
X98830445Y-85421452D01*
X98811009Y-85431840D01*
X98789928Y-85438236D01*
X98761860Y-85441000D01*
X96948140Y-85441000D01*
X96920072Y-85438236D01*
X96898991Y-85431840D01*
X96879555Y-85421452D01*
X96862524Y-85407476D01*
X96848548Y-85390445D01*
X96838160Y-85371009D01*
X96831764Y-85349928D01*
X96829000Y-85321860D01*
X96829000Y-84858140D01*
X96831764Y-84830072D01*
X96838160Y-84808991D01*
X96848548Y-84789555D01*
X96862524Y-84772524D01*
X96879555Y-84758548D01*
X96898991Y-84748160D01*
X96920072Y-84741764D01*
X96948140Y-84739000D01*
X98761860Y-84739000D01*
X98789928Y-84741764D01*
X98789928Y-84741764D01*
G37*
G36*
X103739928Y-84741764D02*
G01*
X103761009Y-84748160D01*
X103780445Y-84758548D01*
X103797476Y-84772524D01*
X103811452Y-84789555D01*
X103821840Y-84808991D01*
X103828236Y-84830072D01*
X103831000Y-84858140D01*
X103831000Y-85321860D01*
X103828236Y-85349928D01*
X103821840Y-85371009D01*
X103811452Y-85390445D01*
X103797476Y-85407476D01*
X103780445Y-85421452D01*
X103761009Y-85431840D01*
X103739928Y-85438236D01*
X103711860Y-85441000D01*
X101898140Y-85441000D01*
X101870072Y-85438236D01*
X101848991Y-85431840D01*
X101829555Y-85421452D01*
X101812524Y-85407476D01*
X101798548Y-85390445D01*
X101788160Y-85371009D01*
X101781764Y-85349928D01*
X101779000Y-85321860D01*
X101779000Y-84858140D01*
X101781764Y-84830072D01*
X101788160Y-84808991D01*
X101798548Y-84789555D01*
X101812524Y-84772524D01*
X101829555Y-84758548D01*
X101848991Y-84748160D01*
X101870072Y-84741764D01*
X101898140Y-84739000D01*
X103711860Y-84739000D01*
X103739928Y-84741764D01*
X103739928Y-84741764D01*
G37*
G36*
X85367395Y-82905546D02*
G01*
X85540466Y-82977234D01*
X85617818Y-83028919D01*
X85696227Y-83081310D01*
X85828690Y-83213773D01*
X85828691Y-83213775D01*
X85932766Y-83369534D01*
X86004454Y-83542605D01*
X86041000Y-83726333D01*
X86041000Y-83913667D01*
X86004454Y-84097395D01*
X85932766Y-84270466D01*
X85932765Y-84270467D01*
X85828690Y-84426227D01*
X85696227Y-84558690D01*
X85675141Y-84572779D01*
X85540466Y-84662766D01*
X85367395Y-84734454D01*
X85183667Y-84771000D01*
X84996333Y-84771000D01*
X84812605Y-84734454D01*
X84639534Y-84662766D01*
X84504859Y-84572779D01*
X84483773Y-84558690D01*
X84351310Y-84426227D01*
X84247235Y-84270467D01*
X84247234Y-84270466D01*
X84175546Y-84097395D01*
X84139000Y-83913667D01*
X84139000Y-83726333D01*
X84175546Y-83542605D01*
X84247234Y-83369534D01*
X84351309Y-83213775D01*
X84351310Y-83213773D01*
X84483773Y-83081310D01*
X84562182Y-83028919D01*
X84639534Y-82977234D01*
X84812605Y-82905546D01*
X84996333Y-82869000D01*
X85183667Y-82869000D01*
X85367395Y-82905546D01*
X85367395Y-82905546D01*
G37*
G36*
X114871000Y-84771000D02*
G01*
X111269000Y-84771000D01*
X111269000Y-82869000D01*
X114871000Y-82869000D01*
X114871000Y-84771000D01*
X114871000Y-84771000D01*
G37*
G36*
X119871000Y-84771000D02*
G01*
X116269000Y-84771000D01*
X116269000Y-82869000D01*
X119871000Y-82869000D01*
X119871000Y-84771000D01*
X119871000Y-84771000D01*
G37*
G36*
X139331000Y-84721000D02*
G01*
X137529000Y-84721000D01*
X137529000Y-82919000D01*
X139331000Y-82919000D01*
X139331000Y-84721000D01*
X139331000Y-84721000D01*
G37*
G36*
X141080443Y-82925519D02*
G01*
X141146627Y-82932037D01*
X141316466Y-82983557D01*
X141472991Y-83067222D01*
X141481530Y-83074230D01*
X141610186Y-83179814D01*
X141689665Y-83276661D01*
X141722778Y-83317009D01*
X141806443Y-83473534D01*
X141857963Y-83643373D01*
X141875359Y-83820000D01*
X141857963Y-83996627D01*
X141806443Y-84166466D01*
X141722778Y-84322991D01*
X141699032Y-84351925D01*
X141610186Y-84460186D01*
X141531049Y-84525131D01*
X141472991Y-84572778D01*
X141316466Y-84656443D01*
X141146627Y-84707963D01*
X141080443Y-84714481D01*
X141014260Y-84721000D01*
X140925740Y-84721000D01*
X140859557Y-84714481D01*
X140793373Y-84707963D01*
X140623534Y-84656443D01*
X140467009Y-84572778D01*
X140408951Y-84525131D01*
X140329814Y-84460186D01*
X140240968Y-84351925D01*
X140217222Y-84322991D01*
X140133557Y-84166466D01*
X140082037Y-83996627D01*
X140064641Y-83820000D01*
X140082037Y-83643373D01*
X140133557Y-83473534D01*
X140217222Y-83317009D01*
X140250335Y-83276661D01*
X140329814Y-83179814D01*
X140458470Y-83074230D01*
X140467009Y-83067222D01*
X140623534Y-82983557D01*
X140793373Y-82932037D01*
X140859557Y-82925519D01*
X140925740Y-82919000D01*
X141014260Y-82919000D01*
X141080443Y-82925519D01*
X141080443Y-82925519D01*
G37*
G36*
X109438674Y-83073465D02*
G01*
X109476367Y-83084899D01*
X109511103Y-83103466D01*
X109541548Y-83128452D01*
X109566534Y-83158897D01*
X109585101Y-83193633D01*
X109596535Y-83231326D01*
X109601000Y-83276661D01*
X109601000Y-84363339D01*
X109596535Y-84408674D01*
X109585101Y-84446367D01*
X109566534Y-84481103D01*
X109541548Y-84511548D01*
X109511103Y-84536534D01*
X109476367Y-84555101D01*
X109438674Y-84566535D01*
X109393339Y-84571000D01*
X108556661Y-84571000D01*
X108511326Y-84566535D01*
X108473633Y-84555101D01*
X108438897Y-84536534D01*
X108408452Y-84511548D01*
X108383466Y-84481103D01*
X108364899Y-84446367D01*
X108353465Y-84408674D01*
X108349000Y-84363339D01*
X108349000Y-83276661D01*
X108353465Y-83231326D01*
X108364899Y-83193633D01*
X108383466Y-83158897D01*
X108408452Y-83128452D01*
X108438897Y-83103466D01*
X108473633Y-83084899D01*
X108511326Y-83073465D01*
X108556661Y-83069000D01*
X109393339Y-83069000D01*
X109438674Y-83073465D01*
X109438674Y-83073465D01*
G37*
G36*
X107388674Y-83073465D02*
G01*
X107426367Y-83084899D01*
X107461103Y-83103466D01*
X107491548Y-83128452D01*
X107516534Y-83158897D01*
X107535101Y-83193633D01*
X107546535Y-83231326D01*
X107551000Y-83276661D01*
X107551000Y-84363339D01*
X107546535Y-84408674D01*
X107535101Y-84446367D01*
X107516534Y-84481103D01*
X107491548Y-84511548D01*
X107461103Y-84536534D01*
X107426367Y-84555101D01*
X107388674Y-84566535D01*
X107343339Y-84571000D01*
X106506661Y-84571000D01*
X106461326Y-84566535D01*
X106423633Y-84555101D01*
X106388897Y-84536534D01*
X106358452Y-84511548D01*
X106333466Y-84481103D01*
X106314899Y-84446367D01*
X106303465Y-84408674D01*
X106299000Y-84363339D01*
X106299000Y-83276661D01*
X106303465Y-83231326D01*
X106314899Y-83193633D01*
X106333466Y-83158897D01*
X106358452Y-83128452D01*
X106388897Y-83103466D01*
X106423633Y-83084899D01*
X106461326Y-83073465D01*
X106506661Y-83069000D01*
X107343339Y-83069000D01*
X107388674Y-83073465D01*
X107388674Y-83073465D01*
G37*
G36*
X98789928Y-83471764D02*
G01*
X98811009Y-83478160D01*
X98830445Y-83488548D01*
X98847476Y-83502524D01*
X98861452Y-83519555D01*
X98871840Y-83538991D01*
X98878236Y-83560072D01*
X98881000Y-83588140D01*
X98881000Y-84051860D01*
X98878236Y-84079928D01*
X98871840Y-84101009D01*
X98861452Y-84120445D01*
X98847476Y-84137476D01*
X98830445Y-84151452D01*
X98811009Y-84161840D01*
X98789928Y-84168236D01*
X98761860Y-84171000D01*
X96948140Y-84171000D01*
X96920072Y-84168236D01*
X96898991Y-84161840D01*
X96879555Y-84151452D01*
X96862524Y-84137476D01*
X96848548Y-84120445D01*
X96838160Y-84101009D01*
X96831764Y-84079928D01*
X96829000Y-84051860D01*
X96829000Y-83588140D01*
X96831764Y-83560072D01*
X96838160Y-83538991D01*
X96848548Y-83519555D01*
X96862524Y-83502524D01*
X96879555Y-83488548D01*
X96898991Y-83478160D01*
X96920072Y-83471764D01*
X96948140Y-83469000D01*
X98761860Y-83469000D01*
X98789928Y-83471764D01*
X98789928Y-83471764D01*
G37*
G36*
X103739928Y-83471764D02*
G01*
X103761009Y-83478160D01*
X103780445Y-83488548D01*
X103797476Y-83502524D01*
X103811452Y-83519555D01*
X103821840Y-83538991D01*
X103828236Y-83560072D01*
X103831000Y-83588140D01*
X103831000Y-84051860D01*
X103828236Y-84079928D01*
X103821840Y-84101009D01*
X103811452Y-84120445D01*
X103797476Y-84137476D01*
X103780445Y-84151452D01*
X103761009Y-84161840D01*
X103739928Y-84168236D01*
X103711860Y-84171000D01*
X101898140Y-84171000D01*
X101870072Y-84168236D01*
X101848991Y-84161840D01*
X101829555Y-84151452D01*
X101812524Y-84137476D01*
X101798548Y-84120445D01*
X101788160Y-84101009D01*
X101781764Y-84079928D01*
X101779000Y-84051860D01*
X101779000Y-83588140D01*
X101781764Y-83560072D01*
X101788160Y-83538991D01*
X101798548Y-83519555D01*
X101812524Y-83502524D01*
X101829555Y-83488548D01*
X101848991Y-83478160D01*
X101870072Y-83471764D01*
X101898140Y-83469000D01*
X103711860Y-83469000D01*
X103739928Y-83471764D01*
X103739928Y-83471764D01*
G37*
G36*
X98789928Y-82201764D02*
G01*
X98811009Y-82208160D01*
X98830445Y-82218548D01*
X98847476Y-82232524D01*
X98861452Y-82249555D01*
X98871840Y-82268991D01*
X98878236Y-82290072D01*
X98881000Y-82318140D01*
X98881000Y-82781860D01*
X98878236Y-82809928D01*
X98871840Y-82831009D01*
X98861452Y-82850445D01*
X98847476Y-82867476D01*
X98830445Y-82881452D01*
X98811009Y-82891840D01*
X98789928Y-82898236D01*
X98761860Y-82901000D01*
X96948140Y-82901000D01*
X96920072Y-82898236D01*
X96898991Y-82891840D01*
X96879555Y-82881452D01*
X96862524Y-82867476D01*
X96848548Y-82850445D01*
X96838160Y-82831009D01*
X96831764Y-82809928D01*
X96829000Y-82781860D01*
X96829000Y-82318140D01*
X96831764Y-82290072D01*
X96838160Y-82268991D01*
X96848548Y-82249555D01*
X96862524Y-82232524D01*
X96879555Y-82218548D01*
X96898991Y-82208160D01*
X96920072Y-82201764D01*
X96948140Y-82199000D01*
X98761860Y-82199000D01*
X98789928Y-82201764D01*
X98789928Y-82201764D01*
G37*
G36*
X103739928Y-82201764D02*
G01*
X103761009Y-82208160D01*
X103780445Y-82218548D01*
X103797476Y-82232524D01*
X103811452Y-82249555D01*
X103821840Y-82268991D01*
X103828236Y-82290072D01*
X103831000Y-82318140D01*
X103831000Y-82781860D01*
X103828236Y-82809928D01*
X103821840Y-82831009D01*
X103811452Y-82850445D01*
X103797476Y-82867476D01*
X103780445Y-82881452D01*
X103761009Y-82891840D01*
X103739928Y-82898236D01*
X103711860Y-82901000D01*
X101898140Y-82901000D01*
X101870072Y-82898236D01*
X101848991Y-82891840D01*
X101829555Y-82881452D01*
X101812524Y-82867476D01*
X101798548Y-82850445D01*
X101788160Y-82831009D01*
X101781764Y-82809928D01*
X101779000Y-82781860D01*
X101779000Y-82318140D01*
X101781764Y-82290072D01*
X101788160Y-82268991D01*
X101798548Y-82249555D01*
X101812524Y-82232524D01*
X101829555Y-82218548D01*
X101848991Y-82208160D01*
X101870072Y-82201764D01*
X101898140Y-82199000D01*
X103711860Y-82199000D01*
X103739928Y-82201764D01*
X103739928Y-82201764D01*
G37*
G36*
X85323642Y-80509781D02*
G01*
X85426728Y-80552481D01*
X85469416Y-80570163D01*
X85600608Y-80657822D01*
X85712178Y-80769392D01*
X85773388Y-80861000D01*
X85799838Y-80900586D01*
X85860219Y-81046358D01*
X85891000Y-81201107D01*
X85891000Y-81358893D01*
X85860219Y-81513642D01*
X85799838Y-81659414D01*
X85799837Y-81659416D01*
X85712178Y-81790608D01*
X85600608Y-81902178D01*
X85469416Y-81989837D01*
X85469415Y-81989838D01*
X85469414Y-81989838D01*
X85323642Y-82050219D01*
X85168893Y-82081000D01*
X85011107Y-82081000D01*
X84856358Y-82050219D01*
X84710586Y-81989838D01*
X84710585Y-81989838D01*
X84710584Y-81989837D01*
X84579392Y-81902178D01*
X84467822Y-81790608D01*
X84380163Y-81659416D01*
X84380162Y-81659414D01*
X84319781Y-81513642D01*
X84289000Y-81358893D01*
X84289000Y-81201107D01*
X84319781Y-81046358D01*
X84380162Y-80900586D01*
X84406612Y-80861000D01*
X84467822Y-80769392D01*
X84579392Y-80657822D01*
X84710584Y-80570163D01*
X84753272Y-80552481D01*
X84856358Y-80509781D01*
X85011107Y-80479000D01*
X85168893Y-80479000D01*
X85323642Y-80509781D01*
X85323642Y-80509781D01*
G37*
G36*
X107388674Y-80533465D02*
G01*
X107426367Y-80544899D01*
X107461103Y-80563466D01*
X107491548Y-80588452D01*
X107516534Y-80618897D01*
X107535101Y-80653633D01*
X107546535Y-80691326D01*
X107551000Y-80736661D01*
X107551000Y-81823339D01*
X107546535Y-81868674D01*
X107535101Y-81906367D01*
X107516534Y-81941103D01*
X107491548Y-81971548D01*
X107461103Y-81996534D01*
X107426367Y-82015101D01*
X107388674Y-82026535D01*
X107343339Y-82031000D01*
X106506661Y-82031000D01*
X106461326Y-82026535D01*
X106423633Y-82015101D01*
X106388897Y-81996534D01*
X106358452Y-81971548D01*
X106333466Y-81941103D01*
X106314899Y-81906367D01*
X106303465Y-81868674D01*
X106299000Y-81823339D01*
X106299000Y-80736661D01*
X106303465Y-80691326D01*
X106314899Y-80653633D01*
X106333466Y-80618897D01*
X106358452Y-80588452D01*
X106388897Y-80563466D01*
X106423633Y-80544899D01*
X106461326Y-80533465D01*
X106506661Y-80529000D01*
X107343339Y-80529000D01*
X107388674Y-80533465D01*
X107388674Y-80533465D01*
G37*
G36*
X109438674Y-80533465D02*
G01*
X109476367Y-80544899D01*
X109511103Y-80563466D01*
X109541548Y-80588452D01*
X109566534Y-80618897D01*
X109585101Y-80653633D01*
X109596535Y-80691326D01*
X109601000Y-80736661D01*
X109601000Y-81823339D01*
X109596535Y-81868674D01*
X109585101Y-81906367D01*
X109566534Y-81941103D01*
X109541548Y-81971548D01*
X109511103Y-81996534D01*
X109476367Y-82015101D01*
X109438674Y-82026535D01*
X109393339Y-82031000D01*
X108556661Y-82031000D01*
X108511326Y-82026535D01*
X108473633Y-82015101D01*
X108438897Y-81996534D01*
X108408452Y-81971548D01*
X108383466Y-81941103D01*
X108364899Y-81906367D01*
X108353465Y-81868674D01*
X108349000Y-81823339D01*
X108349000Y-80736661D01*
X108353465Y-80691326D01*
X108364899Y-80653633D01*
X108383466Y-80618897D01*
X108408452Y-80588452D01*
X108438897Y-80563466D01*
X108473633Y-80544899D01*
X108511326Y-80533465D01*
X108556661Y-80529000D01*
X109393339Y-80529000D01*
X109438674Y-80533465D01*
X109438674Y-80533465D01*
G37*
G36*
X103739928Y-80931764D02*
G01*
X103761009Y-80938160D01*
X103780445Y-80948548D01*
X103797476Y-80962524D01*
X103811452Y-80979555D01*
X103821840Y-80998991D01*
X103828236Y-81020072D01*
X103831000Y-81048140D01*
X103831000Y-81511860D01*
X103828236Y-81539928D01*
X103821840Y-81561009D01*
X103811452Y-81580445D01*
X103797476Y-81597476D01*
X103780445Y-81611452D01*
X103761009Y-81621840D01*
X103739928Y-81628236D01*
X103711860Y-81631000D01*
X101898140Y-81631000D01*
X101870072Y-81628236D01*
X101848991Y-81621840D01*
X101829555Y-81611452D01*
X101812524Y-81597476D01*
X101798548Y-81580445D01*
X101788160Y-81561009D01*
X101781764Y-81539928D01*
X101779000Y-81511860D01*
X101779000Y-81048140D01*
X101781764Y-81020072D01*
X101788160Y-80998991D01*
X101798548Y-80979555D01*
X101812524Y-80962524D01*
X101829555Y-80948548D01*
X101848991Y-80938160D01*
X101870072Y-80931764D01*
X101898140Y-80929000D01*
X103711860Y-80929000D01*
X103739928Y-80931764D01*
X103739928Y-80931764D01*
G37*
G36*
X98789928Y-80931764D02*
G01*
X98811009Y-80938160D01*
X98830445Y-80948548D01*
X98847476Y-80962524D01*
X98861452Y-80979555D01*
X98871840Y-80998991D01*
X98878236Y-81020072D01*
X98881000Y-81048140D01*
X98881000Y-81511860D01*
X98878236Y-81539928D01*
X98871840Y-81561009D01*
X98861452Y-81580445D01*
X98847476Y-81597476D01*
X98830445Y-81611452D01*
X98811009Y-81621840D01*
X98789928Y-81628236D01*
X98761860Y-81631000D01*
X96948140Y-81631000D01*
X96920072Y-81628236D01*
X96898991Y-81621840D01*
X96879555Y-81611452D01*
X96862524Y-81597476D01*
X96848548Y-81580445D01*
X96838160Y-81561009D01*
X96831764Y-81539928D01*
X96829000Y-81511860D01*
X96829000Y-81048140D01*
X96831764Y-81020072D01*
X96838160Y-80998991D01*
X96848548Y-80979555D01*
X96862524Y-80962524D01*
X96879555Y-80948548D01*
X96898991Y-80938160D01*
X96920072Y-80931764D01*
X96948140Y-80929000D01*
X98761860Y-80929000D01*
X98789928Y-80931764D01*
X98789928Y-80931764D01*
G37*
G36*
X146298228Y-79191703D02*
G01*
X146453100Y-79255853D01*
X146592481Y-79348985D01*
X146711015Y-79467519D01*
X146804147Y-79606900D01*
X146868297Y-79761772D01*
X146901000Y-79926184D01*
X146901000Y-80093816D01*
X146868297Y-80258228D01*
X146804147Y-80413100D01*
X146711015Y-80552481D01*
X146592481Y-80671015D01*
X146453100Y-80764147D01*
X146298228Y-80828297D01*
X146133816Y-80861000D01*
X145966184Y-80861000D01*
X145801772Y-80828297D01*
X145646900Y-80764147D01*
X145507519Y-80671015D01*
X145388985Y-80552481D01*
X145295853Y-80413100D01*
X145231703Y-80258228D01*
X145199000Y-80093816D01*
X145199000Y-79926184D01*
X145231703Y-79761772D01*
X145295853Y-79606900D01*
X145388985Y-79467519D01*
X145507519Y-79348985D01*
X145646900Y-79255853D01*
X145801772Y-79191703D01*
X145966184Y-79159000D01*
X146133816Y-79159000D01*
X146298228Y-79191703D01*
X146298228Y-79191703D01*
G37*
G36*
X149473228Y-79191703D02*
G01*
X149628100Y-79255853D01*
X149767481Y-79348985D01*
X149886015Y-79467519D01*
X149979147Y-79606900D01*
X150043297Y-79761772D01*
X150076000Y-79926184D01*
X150076000Y-80093816D01*
X150043297Y-80258228D01*
X149979147Y-80413100D01*
X149886015Y-80552481D01*
X149767481Y-80671015D01*
X149628100Y-80764147D01*
X149473228Y-80828297D01*
X149308816Y-80861000D01*
X149141184Y-80861000D01*
X148976772Y-80828297D01*
X148821900Y-80764147D01*
X148682519Y-80671015D01*
X148563985Y-80552481D01*
X148470853Y-80413100D01*
X148406703Y-80258228D01*
X148374000Y-80093816D01*
X148374000Y-79926184D01*
X148406703Y-79761772D01*
X148470853Y-79606900D01*
X148563985Y-79467519D01*
X148682519Y-79348985D01*
X148821900Y-79255853D01*
X148976772Y-79191703D01*
X149141184Y-79159000D01*
X149308816Y-79159000D01*
X149473228Y-79191703D01*
X149473228Y-79191703D01*
G37*
G36*
X98789928Y-79661764D02*
G01*
X98811009Y-79668160D01*
X98830445Y-79678548D01*
X98847476Y-79692524D01*
X98861452Y-79709555D01*
X98871840Y-79728991D01*
X98878236Y-79750072D01*
X98881000Y-79778140D01*
X98881000Y-80241860D01*
X98878236Y-80269928D01*
X98871840Y-80291009D01*
X98861452Y-80310445D01*
X98847476Y-80327476D01*
X98830445Y-80341452D01*
X98811009Y-80351840D01*
X98789928Y-80358236D01*
X98761860Y-80361000D01*
X96948140Y-80361000D01*
X96920072Y-80358236D01*
X96898991Y-80351840D01*
X96879555Y-80341452D01*
X96862524Y-80327476D01*
X96848548Y-80310445D01*
X96838160Y-80291009D01*
X96831764Y-80269928D01*
X96829000Y-80241860D01*
X96829000Y-79778140D01*
X96831764Y-79750072D01*
X96838160Y-79728991D01*
X96848548Y-79709555D01*
X96862524Y-79692524D01*
X96879555Y-79678548D01*
X96898991Y-79668160D01*
X96920072Y-79661764D01*
X96948140Y-79659000D01*
X98761860Y-79659000D01*
X98789928Y-79661764D01*
X98789928Y-79661764D01*
G37*
G36*
X103739928Y-79661764D02*
G01*
X103761009Y-79668160D01*
X103780445Y-79678548D01*
X103797476Y-79692524D01*
X103811452Y-79709555D01*
X103821840Y-79728991D01*
X103828236Y-79750072D01*
X103831000Y-79778140D01*
X103831000Y-80241860D01*
X103828236Y-80269928D01*
X103821840Y-80291009D01*
X103811452Y-80310445D01*
X103797476Y-80327476D01*
X103780445Y-80341452D01*
X103761009Y-80351840D01*
X103739928Y-80358236D01*
X103711860Y-80361000D01*
X101898140Y-80361000D01*
X101870072Y-80358236D01*
X101848991Y-80351840D01*
X101829555Y-80341452D01*
X101812524Y-80327476D01*
X101798548Y-80310445D01*
X101788160Y-80291009D01*
X101781764Y-80269928D01*
X101779000Y-80241860D01*
X101779000Y-79778140D01*
X101781764Y-79750072D01*
X101788160Y-79728991D01*
X101798548Y-79709555D01*
X101812524Y-79692524D01*
X101829555Y-79678548D01*
X101848991Y-79668160D01*
X101870072Y-79661764D01*
X101898140Y-79659000D01*
X103711860Y-79659000D01*
X103739928Y-79661764D01*
X103739928Y-79661764D01*
G37*
G36*
X80287395Y-77825546D02*
G01*
X80460466Y-77897234D01*
X80507187Y-77928452D01*
X80616227Y-78001310D01*
X80748690Y-78133773D01*
X80748691Y-78133775D01*
X80852766Y-78289534D01*
X80924454Y-78462605D01*
X80961000Y-78646333D01*
X80961000Y-78833667D01*
X80924454Y-79017395D01*
X80852766Y-79190466D01*
X80852765Y-79190467D01*
X80748690Y-79346227D01*
X80616227Y-79478690D01*
X80537818Y-79531081D01*
X80460466Y-79582766D01*
X80287395Y-79654454D01*
X80103667Y-79691000D01*
X79916333Y-79691000D01*
X79732605Y-79654454D01*
X79559534Y-79582766D01*
X79482182Y-79531081D01*
X79403773Y-79478690D01*
X79271310Y-79346227D01*
X79167235Y-79190467D01*
X79167234Y-79190466D01*
X79095546Y-79017395D01*
X79059000Y-78833667D01*
X79059000Y-78646333D01*
X79095546Y-78462605D01*
X79167234Y-78289534D01*
X79271309Y-78133775D01*
X79271310Y-78133773D01*
X79403773Y-78001310D01*
X79512813Y-77928452D01*
X79559534Y-77897234D01*
X79732605Y-77825546D01*
X79916333Y-77789000D01*
X80103667Y-77789000D01*
X80287395Y-77825546D01*
X80287395Y-77825546D01*
G37*
G36*
X92987395Y-77825546D02*
G01*
X93160466Y-77897234D01*
X93207187Y-77928452D01*
X93316227Y-78001310D01*
X93448690Y-78133773D01*
X93448691Y-78133775D01*
X93552766Y-78289534D01*
X93624454Y-78462605D01*
X93661000Y-78646333D01*
X93661000Y-78833667D01*
X93624454Y-79017395D01*
X93552766Y-79190466D01*
X93552765Y-79190467D01*
X93448690Y-79346227D01*
X93316227Y-79478690D01*
X93237818Y-79531081D01*
X93160466Y-79582766D01*
X92987395Y-79654454D01*
X92803667Y-79691000D01*
X92616333Y-79691000D01*
X92432605Y-79654454D01*
X92259534Y-79582766D01*
X92182182Y-79531081D01*
X92103773Y-79478690D01*
X91971310Y-79346227D01*
X91867235Y-79190467D01*
X91867234Y-79190466D01*
X91795546Y-79017395D01*
X91759000Y-78833667D01*
X91759000Y-78646333D01*
X91795546Y-78462605D01*
X91867234Y-78289534D01*
X91971309Y-78133775D01*
X91971310Y-78133773D01*
X92103773Y-78001310D01*
X92212813Y-77928452D01*
X92259534Y-77897234D01*
X92432605Y-77825546D01*
X92616333Y-77789000D01*
X92803667Y-77789000D01*
X92987395Y-77825546D01*
X92987395Y-77825546D01*
G37*
G36*
X89753674Y-77993465D02*
G01*
X89791367Y-78004899D01*
X89826103Y-78023466D01*
X89856548Y-78048452D01*
X89881534Y-78078897D01*
X89900101Y-78113633D01*
X89911535Y-78151326D01*
X89916000Y-78196661D01*
X89916000Y-79283339D01*
X89911535Y-79328674D01*
X89900101Y-79366367D01*
X89881534Y-79401103D01*
X89856548Y-79431548D01*
X89826103Y-79456534D01*
X89791367Y-79475101D01*
X89753674Y-79486535D01*
X89708339Y-79491000D01*
X88871661Y-79491000D01*
X88826326Y-79486535D01*
X88788633Y-79475101D01*
X88753897Y-79456534D01*
X88723452Y-79431548D01*
X88698466Y-79401103D01*
X88679899Y-79366367D01*
X88668465Y-79328674D01*
X88664000Y-79283339D01*
X88664000Y-78196661D01*
X88668465Y-78151326D01*
X88679899Y-78113633D01*
X88698466Y-78078897D01*
X88723452Y-78048452D01*
X88753897Y-78023466D01*
X88788633Y-78004899D01*
X88826326Y-77993465D01*
X88871661Y-77989000D01*
X89708339Y-77989000D01*
X89753674Y-77993465D01*
X89753674Y-77993465D01*
G37*
G36*
X87703674Y-77993465D02*
G01*
X87741367Y-78004899D01*
X87776103Y-78023466D01*
X87806548Y-78048452D01*
X87831534Y-78078897D01*
X87850101Y-78113633D01*
X87861535Y-78151326D01*
X87866000Y-78196661D01*
X87866000Y-79283339D01*
X87861535Y-79328674D01*
X87850101Y-79366367D01*
X87831534Y-79401103D01*
X87806548Y-79431548D01*
X87776103Y-79456534D01*
X87741367Y-79475101D01*
X87703674Y-79486535D01*
X87658339Y-79491000D01*
X86821661Y-79491000D01*
X86776326Y-79486535D01*
X86738633Y-79475101D01*
X86703897Y-79456534D01*
X86673452Y-79431548D01*
X86648466Y-79401103D01*
X86629899Y-79366367D01*
X86618465Y-79328674D01*
X86614000Y-79283339D01*
X86614000Y-78196661D01*
X86618465Y-78151326D01*
X86629899Y-78113633D01*
X86648466Y-78078897D01*
X86673452Y-78048452D01*
X86703897Y-78023466D01*
X86738633Y-78004899D01*
X86776326Y-77993465D01*
X86821661Y-77989000D01*
X87658339Y-77989000D01*
X87703674Y-77993465D01*
X87703674Y-77993465D01*
G37*
G36*
X85943674Y-77993465D02*
G01*
X85981367Y-78004899D01*
X86016103Y-78023466D01*
X86046548Y-78048452D01*
X86071534Y-78078897D01*
X86090101Y-78113633D01*
X86101535Y-78151326D01*
X86106000Y-78196661D01*
X86106000Y-79283339D01*
X86101535Y-79328674D01*
X86090101Y-79366367D01*
X86071534Y-79401103D01*
X86046548Y-79431548D01*
X86016103Y-79456534D01*
X85981367Y-79475101D01*
X85943674Y-79486535D01*
X85898339Y-79491000D01*
X85061661Y-79491000D01*
X85016326Y-79486535D01*
X84978633Y-79475101D01*
X84943897Y-79456534D01*
X84913452Y-79431548D01*
X84888466Y-79401103D01*
X84869899Y-79366367D01*
X84858465Y-79328674D01*
X84854000Y-79283339D01*
X84854000Y-78196661D01*
X84858465Y-78151326D01*
X84869899Y-78113633D01*
X84888466Y-78078897D01*
X84913452Y-78048452D01*
X84943897Y-78023466D01*
X84978633Y-78004899D01*
X85016326Y-77993465D01*
X85061661Y-77989000D01*
X85898339Y-77989000D01*
X85943674Y-77993465D01*
X85943674Y-77993465D01*
G37*
G36*
X83893674Y-77993465D02*
G01*
X83931367Y-78004899D01*
X83966103Y-78023466D01*
X83996548Y-78048452D01*
X84021534Y-78078897D01*
X84040101Y-78113633D01*
X84051535Y-78151326D01*
X84056000Y-78196661D01*
X84056000Y-79283339D01*
X84051535Y-79328674D01*
X84040101Y-79366367D01*
X84021534Y-79401103D01*
X83996548Y-79431548D01*
X83966103Y-79456534D01*
X83931367Y-79475101D01*
X83893674Y-79486535D01*
X83848339Y-79491000D01*
X83011661Y-79491000D01*
X82966326Y-79486535D01*
X82928633Y-79475101D01*
X82893897Y-79456534D01*
X82863452Y-79431548D01*
X82838466Y-79401103D01*
X82819899Y-79366367D01*
X82808465Y-79328674D01*
X82804000Y-79283339D01*
X82804000Y-78196661D01*
X82808465Y-78151326D01*
X82819899Y-78113633D01*
X82838466Y-78078897D01*
X82863452Y-78048452D01*
X82893897Y-78023466D01*
X82928633Y-78004899D01*
X82966326Y-77993465D01*
X83011661Y-77989000D01*
X83848339Y-77989000D01*
X83893674Y-77993465D01*
X83893674Y-77993465D01*
G37*
G36*
X107388674Y-77993465D02*
G01*
X107426367Y-78004899D01*
X107461103Y-78023466D01*
X107491548Y-78048452D01*
X107516534Y-78078897D01*
X107535101Y-78113633D01*
X107546535Y-78151326D01*
X107551000Y-78196661D01*
X107551000Y-79283339D01*
X107546535Y-79328674D01*
X107535101Y-79366367D01*
X107516534Y-79401103D01*
X107491548Y-79431548D01*
X107461103Y-79456534D01*
X107426367Y-79475101D01*
X107388674Y-79486535D01*
X107343339Y-79491000D01*
X106506661Y-79491000D01*
X106461326Y-79486535D01*
X106423633Y-79475101D01*
X106388897Y-79456534D01*
X106358452Y-79431548D01*
X106333466Y-79401103D01*
X106314899Y-79366367D01*
X106303465Y-79328674D01*
X106299000Y-79283339D01*
X106299000Y-78196661D01*
X106303465Y-78151326D01*
X106314899Y-78113633D01*
X106333466Y-78078897D01*
X106358452Y-78048452D01*
X106388897Y-78023466D01*
X106423633Y-78004899D01*
X106461326Y-77993465D01*
X106506661Y-77989000D01*
X107343339Y-77989000D01*
X107388674Y-77993465D01*
X107388674Y-77993465D01*
G37*
G36*
X109438674Y-77993465D02*
G01*
X109476367Y-78004899D01*
X109511103Y-78023466D01*
X109541548Y-78048452D01*
X109566534Y-78078897D01*
X109585101Y-78113633D01*
X109596535Y-78151326D01*
X109601000Y-78196661D01*
X109601000Y-79283339D01*
X109596535Y-79328674D01*
X109585101Y-79366367D01*
X109566534Y-79401103D01*
X109541548Y-79431548D01*
X109511103Y-79456534D01*
X109476367Y-79475101D01*
X109438674Y-79486535D01*
X109393339Y-79491000D01*
X108556661Y-79491000D01*
X108511326Y-79486535D01*
X108473633Y-79475101D01*
X108438897Y-79456534D01*
X108408452Y-79431548D01*
X108383466Y-79401103D01*
X108364899Y-79366367D01*
X108353465Y-79328674D01*
X108349000Y-79283339D01*
X108349000Y-78196661D01*
X108353465Y-78151326D01*
X108364899Y-78113633D01*
X108383466Y-78078897D01*
X108408452Y-78048452D01*
X108438897Y-78023466D01*
X108473633Y-78004899D01*
X108511326Y-77993465D01*
X108556661Y-77989000D01*
X109393339Y-77989000D01*
X109438674Y-77993465D01*
X109438674Y-77993465D01*
G37*
G36*
X123887359Y-77036534D02*
G01*
X124016032Y-77049207D01*
X124214146Y-77109305D01*
X124214149Y-77109306D01*
X124310975Y-77161061D01*
X124396729Y-77206897D01*
X124556765Y-77338235D01*
X124688103Y-77498271D01*
X124733939Y-77584025D01*
X124785694Y-77680851D01*
X124785695Y-77680854D01*
X124845793Y-77878968D01*
X124866085Y-78085000D01*
X124845793Y-78291032D01*
X124793746Y-78462605D01*
X124785694Y-78489149D01*
X124733939Y-78585975D01*
X124688103Y-78671729D01*
X124556765Y-78831765D01*
X124396729Y-78963103D01*
X124334496Y-78996367D01*
X124214149Y-79060694D01*
X124214146Y-79060695D01*
X124016032Y-79120793D01*
X123913097Y-79130931D01*
X123861631Y-79136000D01*
X122758369Y-79136000D01*
X122706903Y-79130931D01*
X122603968Y-79120793D01*
X122405854Y-79060695D01*
X122405851Y-79060694D01*
X122285504Y-78996367D01*
X122223271Y-78963103D01*
X122063235Y-78831765D01*
X121931897Y-78671729D01*
X121886061Y-78585975D01*
X121834306Y-78489149D01*
X121826254Y-78462605D01*
X121774207Y-78291032D01*
X121753915Y-78085000D01*
X121774207Y-77878968D01*
X121834305Y-77680854D01*
X121834306Y-77680851D01*
X121886061Y-77584025D01*
X121931897Y-77498271D01*
X122063235Y-77338235D01*
X122223271Y-77206897D01*
X122309025Y-77161061D01*
X122405851Y-77109306D01*
X122405854Y-77109305D01*
X122603968Y-77049207D01*
X122732641Y-77036534D01*
X122758369Y-77034000D01*
X123861631Y-77034000D01*
X123887359Y-77036534D01*
X123887359Y-77036534D01*
G37*
G36*
X131387359Y-77036534D02*
G01*
X131516032Y-77049207D01*
X131714146Y-77109305D01*
X131714149Y-77109306D01*
X131810975Y-77161061D01*
X131896729Y-77206897D01*
X132056765Y-77338235D01*
X132188103Y-77498271D01*
X132233939Y-77584025D01*
X132285694Y-77680851D01*
X132285695Y-77680854D01*
X132345793Y-77878968D01*
X132366085Y-78085000D01*
X132345793Y-78291032D01*
X132293746Y-78462605D01*
X132285694Y-78489149D01*
X132233939Y-78585975D01*
X132188103Y-78671729D01*
X132056765Y-78831765D01*
X131896729Y-78963103D01*
X131834496Y-78996367D01*
X131714149Y-79060694D01*
X131714146Y-79060695D01*
X131516032Y-79120793D01*
X131413097Y-79130931D01*
X131361631Y-79136000D01*
X130258369Y-79136000D01*
X130206903Y-79130931D01*
X130103968Y-79120793D01*
X129905854Y-79060695D01*
X129905851Y-79060694D01*
X129785504Y-78996367D01*
X129723271Y-78963103D01*
X129563235Y-78831765D01*
X129431897Y-78671729D01*
X129386061Y-78585975D01*
X129334306Y-78489149D01*
X129326254Y-78462605D01*
X129274207Y-78291032D01*
X129253915Y-78085000D01*
X129274207Y-77878968D01*
X129334305Y-77680854D01*
X129334306Y-77680851D01*
X129386061Y-77584025D01*
X129431897Y-77498271D01*
X129563235Y-77338235D01*
X129723271Y-77206897D01*
X129809025Y-77161061D01*
X129905851Y-77109306D01*
X129905854Y-77109305D01*
X130103968Y-77049207D01*
X130232641Y-77036534D01*
X130258369Y-77034000D01*
X131361631Y-77034000D01*
X131387359Y-77036534D01*
X131387359Y-77036534D01*
G37*
G36*
X100918674Y-77873465D02*
G01*
X100956367Y-77884899D01*
X100991103Y-77903466D01*
X101021548Y-77928452D01*
X101046534Y-77958897D01*
X101065101Y-77993633D01*
X101076535Y-78031326D01*
X101081000Y-78076661D01*
X101081000Y-78913339D01*
X101076535Y-78958674D01*
X101065101Y-78996367D01*
X101046534Y-79031103D01*
X101021548Y-79061548D01*
X100991103Y-79086534D01*
X100956367Y-79105101D01*
X100918674Y-79116535D01*
X100873339Y-79121000D01*
X99786661Y-79121000D01*
X99741326Y-79116535D01*
X99703633Y-79105101D01*
X99668897Y-79086534D01*
X99638452Y-79061548D01*
X99613466Y-79031103D01*
X99594899Y-78996367D01*
X99583465Y-78958674D01*
X99579000Y-78913339D01*
X99579000Y-78076661D01*
X99583465Y-78031326D01*
X99594899Y-77993633D01*
X99613466Y-77958897D01*
X99638452Y-77928452D01*
X99668897Y-77903466D01*
X99703633Y-77884899D01*
X99741326Y-77873465D01*
X99786661Y-77869000D01*
X100873339Y-77869000D01*
X100918674Y-77873465D01*
X100918674Y-77873465D01*
G37*
G36*
X113618674Y-77873465D02*
G01*
X113656367Y-77884899D01*
X113691103Y-77903466D01*
X113721548Y-77928452D01*
X113746534Y-77958897D01*
X113765101Y-77993633D01*
X113776535Y-78031326D01*
X113781000Y-78076661D01*
X113781000Y-78913339D01*
X113776535Y-78958674D01*
X113765101Y-78996367D01*
X113746534Y-79031103D01*
X113721548Y-79061548D01*
X113691103Y-79086534D01*
X113656367Y-79105101D01*
X113618674Y-79116535D01*
X113573339Y-79121000D01*
X112486661Y-79121000D01*
X112441326Y-79116535D01*
X112403633Y-79105101D01*
X112368897Y-79086534D01*
X112338452Y-79061548D01*
X112313466Y-79031103D01*
X112294899Y-78996367D01*
X112283465Y-78958674D01*
X112279000Y-78913339D01*
X112279000Y-78076661D01*
X112283465Y-78031326D01*
X112294899Y-77993633D01*
X112313466Y-77958897D01*
X112338452Y-77928452D01*
X112368897Y-77903466D01*
X112403633Y-77884899D01*
X112441326Y-77873465D01*
X112486661Y-77869000D01*
X113573339Y-77869000D01*
X113618674Y-77873465D01*
X113618674Y-77873465D01*
G37*
G36*
X116158674Y-77873465D02*
G01*
X116196367Y-77884899D01*
X116231103Y-77903466D01*
X116261548Y-77928452D01*
X116286534Y-77958897D01*
X116305101Y-77993633D01*
X116316535Y-78031326D01*
X116321000Y-78076661D01*
X116321000Y-78913339D01*
X116316535Y-78958674D01*
X116305101Y-78996367D01*
X116286534Y-79031103D01*
X116261548Y-79061548D01*
X116231103Y-79086534D01*
X116196367Y-79105101D01*
X116158674Y-79116535D01*
X116113339Y-79121000D01*
X115026661Y-79121000D01*
X114981326Y-79116535D01*
X114943633Y-79105101D01*
X114908897Y-79086534D01*
X114878452Y-79061548D01*
X114853466Y-79031103D01*
X114834899Y-78996367D01*
X114823465Y-78958674D01*
X114819000Y-78913339D01*
X114819000Y-78076661D01*
X114823465Y-78031326D01*
X114834899Y-77993633D01*
X114853466Y-77958897D01*
X114878452Y-77928452D01*
X114908897Y-77903466D01*
X114943633Y-77884899D01*
X114981326Y-77873465D01*
X115026661Y-77869000D01*
X116113339Y-77869000D01*
X116158674Y-77873465D01*
X116158674Y-77873465D01*
G37*
G36*
X85367395Y-75285546D02*
G01*
X85540466Y-75357234D01*
X85540467Y-75357235D01*
X85696227Y-75461310D01*
X85828690Y-75593773D01*
X85828691Y-75593775D01*
X85932766Y-75749534D01*
X86004454Y-75922605D01*
X86041000Y-76106333D01*
X86041000Y-76293667D01*
X86004454Y-76477395D01*
X85932766Y-76650466D01*
X85932765Y-76650467D01*
X85828690Y-76806227D01*
X85696227Y-76938690D01*
X85632751Y-76981103D01*
X85540466Y-77042766D01*
X85367395Y-77114454D01*
X85183667Y-77151000D01*
X84996333Y-77151000D01*
X84812605Y-77114454D01*
X84639534Y-77042766D01*
X84547249Y-76981103D01*
X84483773Y-76938690D01*
X84351310Y-76806227D01*
X84247235Y-76650467D01*
X84247234Y-76650466D01*
X84175546Y-76477395D01*
X84139000Y-76293667D01*
X84139000Y-76106333D01*
X84175546Y-75922605D01*
X84247234Y-75749534D01*
X84351309Y-75593775D01*
X84351310Y-75593773D01*
X84483773Y-75461310D01*
X84639533Y-75357235D01*
X84639534Y-75357234D01*
X84812605Y-75285546D01*
X84996333Y-75249000D01*
X85183667Y-75249000D01*
X85367395Y-75285546D01*
X85367395Y-75285546D01*
G37*
G36*
X116158674Y-75823465D02*
G01*
X116196367Y-75834899D01*
X116231103Y-75853466D01*
X116261548Y-75878452D01*
X116286534Y-75908897D01*
X116305101Y-75943633D01*
X116316535Y-75981326D01*
X116321000Y-76026661D01*
X116321000Y-76863339D01*
X116316535Y-76908674D01*
X116305101Y-76946367D01*
X116286534Y-76981103D01*
X116261548Y-77011548D01*
X116231103Y-77036534D01*
X116196367Y-77055101D01*
X116158674Y-77066535D01*
X116113339Y-77071000D01*
X115026661Y-77071000D01*
X114981326Y-77066535D01*
X114943633Y-77055101D01*
X114908897Y-77036534D01*
X114878452Y-77011548D01*
X114853466Y-76981103D01*
X114834899Y-76946367D01*
X114823465Y-76908674D01*
X114819000Y-76863339D01*
X114819000Y-76026661D01*
X114823465Y-75981326D01*
X114834899Y-75943633D01*
X114853466Y-75908897D01*
X114878452Y-75878452D01*
X114908897Y-75853466D01*
X114943633Y-75834899D01*
X114981326Y-75823465D01*
X115026661Y-75819000D01*
X116113339Y-75819000D01*
X116158674Y-75823465D01*
X116158674Y-75823465D01*
G37*
G36*
X113618674Y-75823465D02*
G01*
X113656367Y-75834899D01*
X113691103Y-75853466D01*
X113721548Y-75878452D01*
X113746534Y-75908897D01*
X113765101Y-75943633D01*
X113776535Y-75981326D01*
X113781000Y-76026661D01*
X113781000Y-76863339D01*
X113776535Y-76908674D01*
X113765101Y-76946367D01*
X113746534Y-76981103D01*
X113721548Y-77011548D01*
X113691103Y-77036534D01*
X113656367Y-77055101D01*
X113618674Y-77066535D01*
X113573339Y-77071000D01*
X112486661Y-77071000D01*
X112441326Y-77066535D01*
X112403633Y-77055101D01*
X112368897Y-77036534D01*
X112338452Y-77011548D01*
X112313466Y-76981103D01*
X112294899Y-76946367D01*
X112283465Y-76908674D01*
X112279000Y-76863339D01*
X112279000Y-76026661D01*
X112283465Y-75981326D01*
X112294899Y-75943633D01*
X112313466Y-75908897D01*
X112338452Y-75878452D01*
X112368897Y-75853466D01*
X112403633Y-75834899D01*
X112441326Y-75823465D01*
X112486661Y-75819000D01*
X113573339Y-75819000D01*
X113618674Y-75823465D01*
X113618674Y-75823465D01*
G37*
G36*
X100918674Y-75823465D02*
G01*
X100956367Y-75834899D01*
X100991103Y-75853466D01*
X101021548Y-75878452D01*
X101046534Y-75908897D01*
X101065101Y-75943633D01*
X101076535Y-75981326D01*
X101081000Y-76026661D01*
X101081000Y-76863339D01*
X101076535Y-76908674D01*
X101065101Y-76946367D01*
X101046534Y-76981103D01*
X101021548Y-77011548D01*
X100991103Y-77036534D01*
X100956367Y-77055101D01*
X100918674Y-77066535D01*
X100873339Y-77071000D01*
X99786661Y-77071000D01*
X99741326Y-77066535D01*
X99703633Y-77055101D01*
X99668897Y-77036534D01*
X99638452Y-77011548D01*
X99613466Y-76981103D01*
X99594899Y-76946367D01*
X99583465Y-76908674D01*
X99579000Y-76863339D01*
X99579000Y-76026661D01*
X99583465Y-75981326D01*
X99594899Y-75943633D01*
X99613466Y-75908897D01*
X99638452Y-75878452D01*
X99668897Y-75853466D01*
X99703633Y-75834899D01*
X99741326Y-75823465D01*
X99786661Y-75819000D01*
X100873339Y-75819000D01*
X100918674Y-75823465D01*
X100918674Y-75823465D01*
G37*
G36*
X107388674Y-75453465D02*
G01*
X107426367Y-75464899D01*
X107461103Y-75483466D01*
X107491548Y-75508452D01*
X107516534Y-75538897D01*
X107535101Y-75573633D01*
X107546535Y-75611326D01*
X107551000Y-75656661D01*
X107551000Y-76743339D01*
X107546535Y-76788674D01*
X107535101Y-76826367D01*
X107516534Y-76861103D01*
X107491548Y-76891548D01*
X107461103Y-76916534D01*
X107426367Y-76935101D01*
X107388674Y-76946535D01*
X107343339Y-76951000D01*
X106506661Y-76951000D01*
X106461326Y-76946535D01*
X106423633Y-76935101D01*
X106388897Y-76916534D01*
X106358452Y-76891548D01*
X106333466Y-76861103D01*
X106314899Y-76826367D01*
X106303465Y-76788674D01*
X106299000Y-76743339D01*
X106299000Y-75656661D01*
X106303465Y-75611326D01*
X106314899Y-75573633D01*
X106333466Y-75538897D01*
X106358452Y-75508452D01*
X106388897Y-75483466D01*
X106423633Y-75464899D01*
X106461326Y-75453465D01*
X106506661Y-75449000D01*
X107343339Y-75449000D01*
X107388674Y-75453465D01*
X107388674Y-75453465D01*
G37*
G36*
X109438674Y-75453465D02*
G01*
X109476367Y-75464899D01*
X109511103Y-75483466D01*
X109541548Y-75508452D01*
X109566534Y-75538897D01*
X109585101Y-75573633D01*
X109596535Y-75611326D01*
X109601000Y-75656661D01*
X109601000Y-76743339D01*
X109596535Y-76788674D01*
X109585101Y-76826367D01*
X109566534Y-76861103D01*
X109541548Y-76891548D01*
X109511103Y-76916534D01*
X109476367Y-76935101D01*
X109438674Y-76946535D01*
X109393339Y-76951000D01*
X108556661Y-76951000D01*
X108511326Y-76946535D01*
X108473633Y-76935101D01*
X108438897Y-76916534D01*
X108408452Y-76891548D01*
X108383466Y-76861103D01*
X108364899Y-76826367D01*
X108353465Y-76788674D01*
X108349000Y-76743339D01*
X108349000Y-75656661D01*
X108353465Y-75611326D01*
X108364899Y-75573633D01*
X108383466Y-75538897D01*
X108408452Y-75508452D01*
X108438897Y-75483466D01*
X108473633Y-75464899D01*
X108511326Y-75453465D01*
X108556661Y-75449000D01*
X109393339Y-75449000D01*
X109438674Y-75453465D01*
X109438674Y-75453465D01*
G37*
G36*
X98789928Y-74581764D02*
G01*
X98811009Y-74588160D01*
X98830445Y-74598548D01*
X98847476Y-74612524D01*
X98861452Y-74629555D01*
X98871840Y-74648991D01*
X98878236Y-74670072D01*
X98881000Y-74698140D01*
X98881000Y-75161860D01*
X98878236Y-75189928D01*
X98871840Y-75211009D01*
X98861452Y-75230445D01*
X98847476Y-75247476D01*
X98830445Y-75261452D01*
X98811009Y-75271840D01*
X98789928Y-75278236D01*
X98761860Y-75281000D01*
X96948140Y-75281000D01*
X96920072Y-75278236D01*
X96898991Y-75271840D01*
X96879555Y-75261452D01*
X96862524Y-75247476D01*
X96848548Y-75230445D01*
X96838160Y-75211009D01*
X96831764Y-75189928D01*
X96829000Y-75161860D01*
X96829000Y-74698140D01*
X96831764Y-74670072D01*
X96838160Y-74648991D01*
X96848548Y-74629555D01*
X96862524Y-74612524D01*
X96879555Y-74598548D01*
X96898991Y-74588160D01*
X96920072Y-74581764D01*
X96948140Y-74579000D01*
X98761860Y-74579000D01*
X98789928Y-74581764D01*
X98789928Y-74581764D01*
G37*
G36*
X103739928Y-74581764D02*
G01*
X103761009Y-74588160D01*
X103780445Y-74598548D01*
X103797476Y-74612524D01*
X103811452Y-74629555D01*
X103821840Y-74648991D01*
X103828236Y-74670072D01*
X103831000Y-74698140D01*
X103831000Y-75161860D01*
X103828236Y-75189928D01*
X103821840Y-75211009D01*
X103811452Y-75230445D01*
X103797476Y-75247476D01*
X103780445Y-75261452D01*
X103761009Y-75271840D01*
X103739928Y-75278236D01*
X103711860Y-75281000D01*
X101898140Y-75281000D01*
X101870072Y-75278236D01*
X101848991Y-75271840D01*
X101829555Y-75261452D01*
X101812524Y-75247476D01*
X101798548Y-75230445D01*
X101788160Y-75211009D01*
X101781764Y-75189928D01*
X101779000Y-75161860D01*
X101779000Y-74698140D01*
X101781764Y-74670072D01*
X101788160Y-74648991D01*
X101798548Y-74629555D01*
X101812524Y-74612524D01*
X101829555Y-74598548D01*
X101848991Y-74588160D01*
X101870072Y-74581764D01*
X101898140Y-74579000D01*
X103711860Y-74579000D01*
X103739928Y-74581764D01*
X103739928Y-74581764D01*
G37*
G36*
X85323642Y-72889781D02*
G01*
X85453248Y-72943466D01*
X85469416Y-72950163D01*
X85600608Y-73037822D01*
X85712178Y-73149392D01*
X85780091Y-73251032D01*
X85799838Y-73280586D01*
X85860219Y-73426358D01*
X85891000Y-73581107D01*
X85891000Y-73738893D01*
X85860219Y-73893642D01*
X85799838Y-74039414D01*
X85799837Y-74039416D01*
X85712178Y-74170608D01*
X85600608Y-74282178D01*
X85469416Y-74369837D01*
X85469415Y-74369838D01*
X85469414Y-74369838D01*
X85323642Y-74430219D01*
X85168893Y-74461000D01*
X85011107Y-74461000D01*
X84856358Y-74430219D01*
X84710586Y-74369838D01*
X84710585Y-74369838D01*
X84710584Y-74369837D01*
X84579392Y-74282178D01*
X84467822Y-74170608D01*
X84380163Y-74039416D01*
X84380162Y-74039414D01*
X84319781Y-73893642D01*
X84289000Y-73738893D01*
X84289000Y-73581107D01*
X84319781Y-73426358D01*
X84380162Y-73280586D01*
X84399909Y-73251032D01*
X84467822Y-73149392D01*
X84579392Y-73037822D01*
X84710584Y-72950163D01*
X84726752Y-72943466D01*
X84856358Y-72889781D01*
X85011107Y-72859000D01*
X85168893Y-72859000D01*
X85323642Y-72889781D01*
X85323642Y-72889781D01*
G37*
G36*
X109438674Y-72913465D02*
G01*
X109476367Y-72924899D01*
X109511103Y-72943466D01*
X109541548Y-72968452D01*
X109566534Y-72998897D01*
X109585101Y-73033633D01*
X109596535Y-73071326D01*
X109601000Y-73116661D01*
X109601000Y-74203339D01*
X109596535Y-74248674D01*
X109585101Y-74286367D01*
X109566534Y-74321103D01*
X109541548Y-74351548D01*
X109511103Y-74376534D01*
X109476367Y-74395101D01*
X109438674Y-74406535D01*
X109393339Y-74411000D01*
X108556661Y-74411000D01*
X108511326Y-74406535D01*
X108473633Y-74395101D01*
X108438897Y-74376534D01*
X108408452Y-74351548D01*
X108383466Y-74321103D01*
X108364899Y-74286367D01*
X108353465Y-74248674D01*
X108349000Y-74203339D01*
X108349000Y-73116661D01*
X108353465Y-73071326D01*
X108364899Y-73033633D01*
X108383466Y-72998897D01*
X108408452Y-72968452D01*
X108438897Y-72943466D01*
X108473633Y-72924899D01*
X108511326Y-72913465D01*
X108556661Y-72909000D01*
X109393339Y-72909000D01*
X109438674Y-72913465D01*
X109438674Y-72913465D01*
G37*
G36*
X107388674Y-72913465D02*
G01*
X107426367Y-72924899D01*
X107461103Y-72943466D01*
X107491548Y-72968452D01*
X107516534Y-72998897D01*
X107535101Y-73033633D01*
X107546535Y-73071326D01*
X107551000Y-73116661D01*
X107551000Y-74203339D01*
X107546535Y-74248674D01*
X107535101Y-74286367D01*
X107516534Y-74321103D01*
X107491548Y-74351548D01*
X107461103Y-74376534D01*
X107426367Y-74395101D01*
X107388674Y-74406535D01*
X107343339Y-74411000D01*
X106506661Y-74411000D01*
X106461326Y-74406535D01*
X106423633Y-74395101D01*
X106388897Y-74376534D01*
X106358452Y-74351548D01*
X106333466Y-74321103D01*
X106314899Y-74286367D01*
X106303465Y-74248674D01*
X106299000Y-74203339D01*
X106299000Y-73116661D01*
X106303465Y-73071326D01*
X106314899Y-73033633D01*
X106333466Y-72998897D01*
X106358452Y-72968452D01*
X106388897Y-72943466D01*
X106423633Y-72924899D01*
X106461326Y-72913465D01*
X106506661Y-72909000D01*
X107343339Y-72909000D01*
X107388674Y-72913465D01*
X107388674Y-72913465D01*
G37*
G36*
X119771000Y-74221000D02*
G01*
X117669000Y-74221000D01*
X117669000Y-72619000D01*
X119771000Y-72619000D01*
X119771000Y-74221000D01*
X119771000Y-74221000D01*
G37*
G36*
X131413097Y-71999069D02*
G01*
X131516032Y-72009207D01*
X131678685Y-72058548D01*
X131714149Y-72069306D01*
X131788394Y-72108991D01*
X131896729Y-72166897D01*
X132056765Y-72298235D01*
X132188103Y-72458271D01*
X132233939Y-72544025D01*
X132285694Y-72640851D01*
X132285695Y-72640854D01*
X132345793Y-72838968D01*
X132366085Y-73045000D01*
X132345793Y-73251032D01*
X132292608Y-73426357D01*
X132285694Y-73449149D01*
X132266798Y-73484500D01*
X132188103Y-73631729D01*
X132056765Y-73791765D01*
X131896729Y-73923103D01*
X131810975Y-73968939D01*
X131714149Y-74020694D01*
X131714146Y-74020695D01*
X131516032Y-74080793D01*
X131413097Y-74090931D01*
X131361631Y-74096000D01*
X130258369Y-74096000D01*
X130206903Y-74090931D01*
X130103968Y-74080793D01*
X129905854Y-74020695D01*
X129905851Y-74020694D01*
X129809025Y-73968939D01*
X129723271Y-73923103D01*
X129563235Y-73791765D01*
X129431897Y-73631729D01*
X129353202Y-73484500D01*
X129334306Y-73449149D01*
X129327392Y-73426357D01*
X129274207Y-73251032D01*
X129253915Y-73045000D01*
X129274207Y-72838968D01*
X129334305Y-72640854D01*
X129334306Y-72640851D01*
X129386061Y-72544025D01*
X129431897Y-72458271D01*
X129563235Y-72298235D01*
X129723271Y-72166897D01*
X129831606Y-72108991D01*
X129905851Y-72069306D01*
X129941315Y-72058548D01*
X130103968Y-72009207D01*
X130206903Y-71999069D01*
X130258369Y-71994000D01*
X131361631Y-71994000D01*
X131413097Y-71999069D01*
X131413097Y-71999069D01*
G37*
G36*
X123913097Y-71999069D02*
G01*
X124016032Y-72009207D01*
X124178685Y-72058548D01*
X124214149Y-72069306D01*
X124288394Y-72108991D01*
X124396729Y-72166897D01*
X124556765Y-72298235D01*
X124688103Y-72458271D01*
X124733939Y-72544025D01*
X124785694Y-72640851D01*
X124785695Y-72640854D01*
X124845793Y-72838968D01*
X124866085Y-73045000D01*
X124845793Y-73251032D01*
X124792608Y-73426357D01*
X124785694Y-73449149D01*
X124766798Y-73484500D01*
X124688103Y-73631729D01*
X124556765Y-73791765D01*
X124396729Y-73923103D01*
X124310975Y-73968939D01*
X124214149Y-74020694D01*
X124214146Y-74020695D01*
X124016032Y-74080793D01*
X123913097Y-74090931D01*
X123861631Y-74096000D01*
X122758369Y-74096000D01*
X122706903Y-74090931D01*
X122603968Y-74080793D01*
X122405854Y-74020695D01*
X122405851Y-74020694D01*
X122309025Y-73968939D01*
X122223271Y-73923103D01*
X122063235Y-73791765D01*
X121931897Y-73631729D01*
X121853202Y-73484500D01*
X121834306Y-73449149D01*
X121827392Y-73426357D01*
X121774207Y-73251032D01*
X121753915Y-73045000D01*
X121774207Y-72838968D01*
X121834305Y-72640854D01*
X121834306Y-72640851D01*
X121886061Y-72544025D01*
X121931897Y-72458271D01*
X122063235Y-72298235D01*
X122223271Y-72166897D01*
X122331606Y-72108991D01*
X122405851Y-72069306D01*
X122441315Y-72058548D01*
X122603968Y-72009207D01*
X122706903Y-71999069D01*
X122758369Y-71994000D01*
X123861631Y-71994000D01*
X123913097Y-71999069D01*
X123913097Y-71999069D01*
G37*
G36*
X103739928Y-73311764D02*
G01*
X103761009Y-73318160D01*
X103780445Y-73328548D01*
X103797476Y-73342524D01*
X103811452Y-73359555D01*
X103821840Y-73378991D01*
X103828236Y-73400072D01*
X103831000Y-73428140D01*
X103831000Y-73891860D01*
X103828236Y-73919928D01*
X103821840Y-73941009D01*
X103811452Y-73960445D01*
X103797476Y-73977476D01*
X103780445Y-73991452D01*
X103761009Y-74001840D01*
X103739928Y-74008236D01*
X103711860Y-74011000D01*
X101898140Y-74011000D01*
X101870072Y-74008236D01*
X101848991Y-74001840D01*
X101829555Y-73991452D01*
X101812524Y-73977476D01*
X101798548Y-73960445D01*
X101788160Y-73941009D01*
X101781764Y-73919928D01*
X101779000Y-73891860D01*
X101779000Y-73428140D01*
X101781764Y-73400072D01*
X101788160Y-73378991D01*
X101798548Y-73359555D01*
X101812524Y-73342524D01*
X101829555Y-73328548D01*
X101848991Y-73318160D01*
X101870072Y-73311764D01*
X101898140Y-73309000D01*
X103711860Y-73309000D01*
X103739928Y-73311764D01*
X103739928Y-73311764D01*
G37*
G36*
X98789928Y-73311764D02*
G01*
X98811009Y-73318160D01*
X98830445Y-73328548D01*
X98847476Y-73342524D01*
X98861452Y-73359555D01*
X98871840Y-73378991D01*
X98878236Y-73400072D01*
X98881000Y-73428140D01*
X98881000Y-73891860D01*
X98878236Y-73919928D01*
X98871840Y-73941009D01*
X98861452Y-73960445D01*
X98847476Y-73977476D01*
X98830445Y-73991452D01*
X98811009Y-74001840D01*
X98789928Y-74008236D01*
X98761860Y-74011000D01*
X96948140Y-74011000D01*
X96920072Y-74008236D01*
X96898991Y-74001840D01*
X96879555Y-73991452D01*
X96862524Y-73977476D01*
X96848548Y-73960445D01*
X96838160Y-73941009D01*
X96831764Y-73919928D01*
X96829000Y-73891860D01*
X96829000Y-73428140D01*
X96831764Y-73400072D01*
X96838160Y-73378991D01*
X96848548Y-73359555D01*
X96862524Y-73342524D01*
X96879555Y-73328548D01*
X96898991Y-73318160D01*
X96920072Y-73311764D01*
X96948140Y-73309000D01*
X98761860Y-73309000D01*
X98789928Y-73311764D01*
X98789928Y-73311764D01*
G37*
G36*
X113471000Y-73071000D02*
G01*
X111369000Y-73071000D01*
X111369000Y-69169000D01*
X113471000Y-69169000D01*
X113471000Y-73071000D01*
X113471000Y-73071000D01*
G37*
G36*
X103739928Y-72041764D02*
G01*
X103761009Y-72048160D01*
X103780445Y-72058548D01*
X103797476Y-72072524D01*
X103811452Y-72089555D01*
X103821840Y-72108991D01*
X103828236Y-72130072D01*
X103831000Y-72158140D01*
X103831000Y-72621860D01*
X103828236Y-72649928D01*
X103821840Y-72671009D01*
X103811452Y-72690445D01*
X103797476Y-72707476D01*
X103780445Y-72721452D01*
X103761009Y-72731840D01*
X103739928Y-72738236D01*
X103711860Y-72741000D01*
X101898140Y-72741000D01*
X101870072Y-72738236D01*
X101848991Y-72731840D01*
X101829555Y-72721452D01*
X101812524Y-72707476D01*
X101798548Y-72690445D01*
X101788160Y-72671009D01*
X101781764Y-72649928D01*
X101779000Y-72621860D01*
X101779000Y-72158140D01*
X101781764Y-72130072D01*
X101788160Y-72108991D01*
X101798548Y-72089555D01*
X101812524Y-72072524D01*
X101829555Y-72058548D01*
X101848991Y-72048160D01*
X101870072Y-72041764D01*
X101898140Y-72039000D01*
X103711860Y-72039000D01*
X103739928Y-72041764D01*
X103739928Y-72041764D01*
G37*
G36*
X98789928Y-72041764D02*
G01*
X98811009Y-72048160D01*
X98830445Y-72058548D01*
X98847476Y-72072524D01*
X98861452Y-72089555D01*
X98871840Y-72108991D01*
X98878236Y-72130072D01*
X98881000Y-72158140D01*
X98881000Y-72621860D01*
X98878236Y-72649928D01*
X98871840Y-72671009D01*
X98861452Y-72690445D01*
X98847476Y-72707476D01*
X98830445Y-72721452D01*
X98811009Y-72731840D01*
X98789928Y-72738236D01*
X98761860Y-72741000D01*
X96948140Y-72741000D01*
X96920072Y-72738236D01*
X96898991Y-72731840D01*
X96879555Y-72721452D01*
X96862524Y-72707476D01*
X96848548Y-72690445D01*
X96838160Y-72671009D01*
X96831764Y-72649928D01*
X96829000Y-72621860D01*
X96829000Y-72158140D01*
X96831764Y-72130072D01*
X96838160Y-72108991D01*
X96848548Y-72089555D01*
X96862524Y-72072524D01*
X96879555Y-72058548D01*
X96898991Y-72048160D01*
X96920072Y-72041764D01*
X96948140Y-72039000D01*
X98761860Y-72039000D01*
X98789928Y-72041764D01*
X98789928Y-72041764D01*
G37*
G36*
X144861000Y-72471000D02*
G01*
X142159000Y-72471000D01*
X142159000Y-69769000D01*
X144861000Y-69769000D01*
X144861000Y-72471000D01*
X144861000Y-72471000D01*
G37*
G36*
X138824072Y-69820918D02*
G01*
X139069939Y-69922759D01*
X139181328Y-69997187D01*
X139291211Y-70070609D01*
X139479391Y-70258789D01*
X139491716Y-70277235D01*
X139613100Y-70458897D01*
X139627242Y-70480063D01*
X139729082Y-70725928D01*
X139781000Y-70986937D01*
X139781000Y-71253063D01*
X139729082Y-71514072D01*
X139693976Y-71598827D01*
X139627241Y-71759939D01*
X139556526Y-71865770D01*
X139491716Y-71962766D01*
X139479390Y-71981212D01*
X139291212Y-72169390D01*
X139069939Y-72317241D01*
X139069938Y-72317242D01*
X139069937Y-72317242D01*
X138824072Y-72419082D01*
X138563063Y-72471000D01*
X138296937Y-72471000D01*
X138035928Y-72419082D01*
X137790063Y-72317242D01*
X137790062Y-72317242D01*
X137790061Y-72317241D01*
X137568788Y-72169390D01*
X137380610Y-71981212D01*
X137368285Y-71962766D01*
X137303474Y-71865770D01*
X137232759Y-71759939D01*
X137166025Y-71598827D01*
X137130918Y-71514072D01*
X137079000Y-71253063D01*
X137079000Y-70986937D01*
X137130918Y-70725928D01*
X137232758Y-70480063D01*
X137246901Y-70458897D01*
X137368284Y-70277235D01*
X137380609Y-70258789D01*
X137568789Y-70070609D01*
X137678672Y-69997187D01*
X137790061Y-69922759D01*
X138035928Y-69820918D01*
X138296937Y-69769000D01*
X138563063Y-69769000D01*
X138824072Y-69820918D01*
X138824072Y-69820918D01*
G37*
G36*
X80287395Y-70205546D02*
G01*
X80460466Y-70277234D01*
X80460467Y-70277235D01*
X80616227Y-70381310D01*
X80748690Y-70513773D01*
X80748691Y-70513775D01*
X80852766Y-70669534D01*
X80924454Y-70842605D01*
X80961000Y-71026333D01*
X80961000Y-71213667D01*
X80924454Y-71397395D01*
X80852766Y-71570466D01*
X80852765Y-71570467D01*
X80748690Y-71726227D01*
X80616227Y-71858690D01*
X80537818Y-71911081D01*
X80460466Y-71962766D01*
X80287395Y-72034454D01*
X80103667Y-72071000D01*
X79916333Y-72071000D01*
X79732605Y-72034454D01*
X79559534Y-71962766D01*
X79482182Y-71911081D01*
X79403773Y-71858690D01*
X79271310Y-71726227D01*
X79167235Y-71570467D01*
X79167234Y-71570466D01*
X79095546Y-71397395D01*
X79059000Y-71213667D01*
X79059000Y-71026333D01*
X79095546Y-70842605D01*
X79167234Y-70669534D01*
X79271309Y-70513775D01*
X79271310Y-70513773D01*
X79403773Y-70381310D01*
X79559533Y-70277235D01*
X79559534Y-70277234D01*
X79732605Y-70205546D01*
X79916333Y-70169000D01*
X80103667Y-70169000D01*
X80287395Y-70205546D01*
X80287395Y-70205546D01*
G37*
G36*
X92987395Y-70205546D02*
G01*
X93160466Y-70277234D01*
X93160467Y-70277235D01*
X93316227Y-70381310D01*
X93448690Y-70513773D01*
X93448691Y-70513775D01*
X93552766Y-70669534D01*
X93624454Y-70842605D01*
X93661000Y-71026333D01*
X93661000Y-71213667D01*
X93624454Y-71397395D01*
X93552766Y-71570466D01*
X93552765Y-71570467D01*
X93448690Y-71726227D01*
X93316227Y-71858690D01*
X93237818Y-71911081D01*
X93160466Y-71962766D01*
X92987395Y-72034454D01*
X92803667Y-72071000D01*
X92616333Y-72071000D01*
X92432605Y-72034454D01*
X92259534Y-71962766D01*
X92182182Y-71911081D01*
X92103773Y-71858690D01*
X91971310Y-71726227D01*
X91867235Y-71570467D01*
X91867234Y-71570466D01*
X91795546Y-71397395D01*
X91759000Y-71213667D01*
X91759000Y-71026333D01*
X91795546Y-70842605D01*
X91867234Y-70669534D01*
X91971309Y-70513775D01*
X91971310Y-70513773D01*
X92103773Y-70381310D01*
X92259533Y-70277235D01*
X92259534Y-70277234D01*
X92432605Y-70205546D01*
X92616333Y-70169000D01*
X92803667Y-70169000D01*
X92987395Y-70205546D01*
X92987395Y-70205546D01*
G37*
G36*
X119771000Y-71921000D02*
G01*
X117669000Y-71921000D01*
X117669000Y-70319000D01*
X119771000Y-70319000D01*
X119771000Y-71921000D01*
X119771000Y-71921000D01*
G37*
G36*
X83893674Y-70373465D02*
G01*
X83931367Y-70384899D01*
X83966103Y-70403466D01*
X83996548Y-70428452D01*
X84021534Y-70458897D01*
X84040101Y-70493633D01*
X84051535Y-70531326D01*
X84056000Y-70576661D01*
X84056000Y-71663339D01*
X84051535Y-71708674D01*
X84040101Y-71746367D01*
X84021534Y-71781103D01*
X83996548Y-71811548D01*
X83966103Y-71836534D01*
X83931367Y-71855101D01*
X83893674Y-71866535D01*
X83848339Y-71871000D01*
X83011661Y-71871000D01*
X82966326Y-71866535D01*
X82928633Y-71855101D01*
X82893897Y-71836534D01*
X82863452Y-71811548D01*
X82838466Y-71781103D01*
X82819899Y-71746367D01*
X82808465Y-71708674D01*
X82804000Y-71663339D01*
X82804000Y-70576661D01*
X82808465Y-70531326D01*
X82819899Y-70493633D01*
X82838466Y-70458897D01*
X82863452Y-70428452D01*
X82893897Y-70403466D01*
X82928633Y-70384899D01*
X82966326Y-70373465D01*
X83011661Y-70369000D01*
X83848339Y-70369000D01*
X83893674Y-70373465D01*
X83893674Y-70373465D01*
G37*
G36*
X85943674Y-70373465D02*
G01*
X85981367Y-70384899D01*
X86016103Y-70403466D01*
X86046548Y-70428452D01*
X86071534Y-70458897D01*
X86090101Y-70493633D01*
X86101535Y-70531326D01*
X86106000Y-70576661D01*
X86106000Y-71663339D01*
X86101535Y-71708674D01*
X86090101Y-71746367D01*
X86071534Y-71781103D01*
X86046548Y-71811548D01*
X86016103Y-71836534D01*
X85981367Y-71855101D01*
X85943674Y-71866535D01*
X85898339Y-71871000D01*
X85061661Y-71871000D01*
X85016326Y-71866535D01*
X84978633Y-71855101D01*
X84943897Y-71836534D01*
X84913452Y-71811548D01*
X84888466Y-71781103D01*
X84869899Y-71746367D01*
X84858465Y-71708674D01*
X84854000Y-71663339D01*
X84854000Y-70576661D01*
X84858465Y-70531326D01*
X84869899Y-70493633D01*
X84888466Y-70458897D01*
X84913452Y-70428452D01*
X84943897Y-70403466D01*
X84978633Y-70384899D01*
X85016326Y-70373465D01*
X85061661Y-70369000D01*
X85898339Y-70369000D01*
X85943674Y-70373465D01*
X85943674Y-70373465D01*
G37*
G36*
X87703674Y-70373465D02*
G01*
X87741367Y-70384899D01*
X87776103Y-70403466D01*
X87806548Y-70428452D01*
X87831534Y-70458897D01*
X87850101Y-70493633D01*
X87861535Y-70531326D01*
X87866000Y-70576661D01*
X87866000Y-71663339D01*
X87861535Y-71708674D01*
X87850101Y-71746367D01*
X87831534Y-71781103D01*
X87806548Y-71811548D01*
X87776103Y-71836534D01*
X87741367Y-71855101D01*
X87703674Y-71866535D01*
X87658339Y-71871000D01*
X86821661Y-71871000D01*
X86776326Y-71866535D01*
X86738633Y-71855101D01*
X86703897Y-71836534D01*
X86673452Y-71811548D01*
X86648466Y-71781103D01*
X86629899Y-71746367D01*
X86618465Y-71708674D01*
X86614000Y-71663339D01*
X86614000Y-70576661D01*
X86618465Y-70531326D01*
X86629899Y-70493633D01*
X86648466Y-70458897D01*
X86673452Y-70428452D01*
X86703897Y-70403466D01*
X86738633Y-70384899D01*
X86776326Y-70373465D01*
X86821661Y-70369000D01*
X87658339Y-70369000D01*
X87703674Y-70373465D01*
X87703674Y-70373465D01*
G37*
G36*
X89753674Y-70373465D02*
G01*
X89791367Y-70384899D01*
X89826103Y-70403466D01*
X89856548Y-70428452D01*
X89881534Y-70458897D01*
X89900101Y-70493633D01*
X89911535Y-70531326D01*
X89916000Y-70576661D01*
X89916000Y-71663339D01*
X89911535Y-71708674D01*
X89900101Y-71746367D01*
X89881534Y-71781103D01*
X89856548Y-71811548D01*
X89826103Y-71836534D01*
X89791367Y-71855101D01*
X89753674Y-71866535D01*
X89708339Y-71871000D01*
X88871661Y-71871000D01*
X88826326Y-71866535D01*
X88788633Y-71855101D01*
X88753897Y-71836534D01*
X88723452Y-71811548D01*
X88698466Y-71781103D01*
X88679899Y-71746367D01*
X88668465Y-71708674D01*
X88664000Y-71663339D01*
X88664000Y-70576661D01*
X88668465Y-70531326D01*
X88679899Y-70493633D01*
X88698466Y-70458897D01*
X88723452Y-70428452D01*
X88753897Y-70403466D01*
X88788633Y-70384899D01*
X88826326Y-70373465D01*
X88871661Y-70369000D01*
X89708339Y-70369000D01*
X89753674Y-70373465D01*
X89753674Y-70373465D01*
G37*
G36*
X107388674Y-70373465D02*
G01*
X107426367Y-70384899D01*
X107461103Y-70403466D01*
X107491548Y-70428452D01*
X107516534Y-70458897D01*
X107535101Y-70493633D01*
X107546535Y-70531326D01*
X107551000Y-70576661D01*
X107551000Y-71663339D01*
X107546535Y-71708674D01*
X107535101Y-71746367D01*
X107516534Y-71781103D01*
X107491548Y-71811548D01*
X107461103Y-71836534D01*
X107426367Y-71855101D01*
X107388674Y-71866535D01*
X107343339Y-71871000D01*
X106506661Y-71871000D01*
X106461326Y-71866535D01*
X106423633Y-71855101D01*
X106388897Y-71836534D01*
X106358452Y-71811548D01*
X106333466Y-71781103D01*
X106314899Y-71746367D01*
X106303465Y-71708674D01*
X106299000Y-71663339D01*
X106299000Y-70576661D01*
X106303465Y-70531326D01*
X106314899Y-70493633D01*
X106333466Y-70458897D01*
X106358452Y-70428452D01*
X106388897Y-70403466D01*
X106423633Y-70384899D01*
X106461326Y-70373465D01*
X106506661Y-70369000D01*
X107343339Y-70369000D01*
X107388674Y-70373465D01*
X107388674Y-70373465D01*
G37*
G36*
X109438674Y-70373465D02*
G01*
X109476367Y-70384899D01*
X109511103Y-70403466D01*
X109541548Y-70428452D01*
X109566534Y-70458897D01*
X109585101Y-70493633D01*
X109596535Y-70531326D01*
X109601000Y-70576661D01*
X109601000Y-71663339D01*
X109596535Y-71708674D01*
X109585101Y-71746367D01*
X109566534Y-71781103D01*
X109541548Y-71811548D01*
X109511103Y-71836534D01*
X109476367Y-71855101D01*
X109438674Y-71866535D01*
X109393339Y-71871000D01*
X108556661Y-71871000D01*
X108511326Y-71866535D01*
X108473633Y-71855101D01*
X108438897Y-71836534D01*
X108408452Y-71811548D01*
X108383466Y-71781103D01*
X108364899Y-71746367D01*
X108353465Y-71708674D01*
X108349000Y-71663339D01*
X108349000Y-70576661D01*
X108353465Y-70531326D01*
X108364899Y-70493633D01*
X108383466Y-70458897D01*
X108408452Y-70428452D01*
X108438897Y-70403466D01*
X108473633Y-70384899D01*
X108511326Y-70373465D01*
X108556661Y-70369000D01*
X109393339Y-70369000D01*
X109438674Y-70373465D01*
X109438674Y-70373465D01*
G37*
G36*
X155574239Y-65391467D02*
G01*
X155888282Y-65453934D01*
X156479926Y-65699001D01*
X157012392Y-66054784D01*
X157465216Y-66507608D01*
X157820999Y-67040074D01*
X158066066Y-67631718D01*
X158088294Y-67743466D01*
X158191000Y-68259803D01*
X158191000Y-68900197D01*
X158178905Y-68961000D01*
X158066066Y-69528282D01*
X157820999Y-70119926D01*
X157557838Y-70513773D01*
X157472713Y-70641173D01*
X157465216Y-70652392D01*
X157012392Y-71105216D01*
X156479926Y-71460999D01*
X155888282Y-71706066D01*
X155617454Y-71759937D01*
X155260197Y-71831000D01*
X154619803Y-71831000D01*
X154262546Y-71759937D01*
X153991718Y-71706066D01*
X153400074Y-71460999D01*
X152867608Y-71105216D01*
X152414784Y-70652392D01*
X152407288Y-70641173D01*
X152322162Y-70513773D01*
X152059001Y-70119926D01*
X151813934Y-69528282D01*
X151701095Y-68961000D01*
X151689000Y-68900197D01*
X151689000Y-68259803D01*
X151791706Y-67743466D01*
X151813934Y-67631718D01*
X152059001Y-67040074D01*
X152414784Y-66507608D01*
X152867608Y-66054784D01*
X153400074Y-65699001D01*
X153991718Y-65453934D01*
X154305761Y-65391467D01*
X154619803Y-65329000D01*
X155260197Y-65329000D01*
X155574239Y-65391467D01*
X155574239Y-65391467D01*
G37*
G36*
X69214239Y-65391467D02*
G01*
X69528282Y-65453934D01*
X70119926Y-65699001D01*
X70652392Y-66054784D01*
X71105216Y-66507608D01*
X71460999Y-67040074D01*
X71706066Y-67631718D01*
X71728294Y-67743466D01*
X71831000Y-68259803D01*
X71831000Y-68900197D01*
X71818905Y-68961000D01*
X71706066Y-69528282D01*
X71460999Y-70119926D01*
X71197838Y-70513773D01*
X71112713Y-70641173D01*
X71105216Y-70652392D01*
X70652392Y-71105216D01*
X70119926Y-71460999D01*
X69528282Y-71706066D01*
X69257454Y-71759937D01*
X68900197Y-71831000D01*
X68259803Y-71831000D01*
X67902546Y-71759937D01*
X67631718Y-71706066D01*
X67040074Y-71460999D01*
X66507608Y-71105216D01*
X66054784Y-70652392D01*
X66047288Y-70641173D01*
X65962162Y-70513773D01*
X65699001Y-70119926D01*
X65453934Y-69528282D01*
X65341095Y-68961000D01*
X65329000Y-68900197D01*
X65329000Y-68259803D01*
X65431706Y-67743466D01*
X65453934Y-67631718D01*
X65699001Y-67040074D01*
X66054784Y-66507608D01*
X66507608Y-66054784D01*
X67040074Y-65699001D01*
X67631718Y-65453934D01*
X67945761Y-65391467D01*
X68259803Y-65329000D01*
X68900197Y-65329000D01*
X69214239Y-65391467D01*
X69214239Y-65391467D01*
G37*
G36*
X103739928Y-70771764D02*
G01*
X103761009Y-70778160D01*
X103780445Y-70788548D01*
X103797476Y-70802524D01*
X103811452Y-70819555D01*
X103821840Y-70838991D01*
X103828236Y-70860072D01*
X103831000Y-70888140D01*
X103831000Y-71351860D01*
X103828236Y-71379928D01*
X103821840Y-71401009D01*
X103811452Y-71420445D01*
X103797476Y-71437476D01*
X103780445Y-71451452D01*
X103761009Y-71461840D01*
X103739928Y-71468236D01*
X103711860Y-71471000D01*
X101898140Y-71471000D01*
X101870072Y-71468236D01*
X101848991Y-71461840D01*
X101829555Y-71451452D01*
X101812524Y-71437476D01*
X101798548Y-71420445D01*
X101788160Y-71401009D01*
X101781764Y-71379928D01*
X101779000Y-71351860D01*
X101779000Y-70888140D01*
X101781764Y-70860072D01*
X101788160Y-70838991D01*
X101798548Y-70819555D01*
X101812524Y-70802524D01*
X101829555Y-70788548D01*
X101848991Y-70778160D01*
X101870072Y-70771764D01*
X101898140Y-70769000D01*
X103711860Y-70769000D01*
X103739928Y-70771764D01*
X103739928Y-70771764D01*
G37*
G36*
X98789928Y-70771764D02*
G01*
X98811009Y-70778160D01*
X98830445Y-70788548D01*
X98847476Y-70802524D01*
X98861452Y-70819555D01*
X98871840Y-70838991D01*
X98878236Y-70860072D01*
X98881000Y-70888140D01*
X98881000Y-71351860D01*
X98878236Y-71379928D01*
X98871840Y-71401009D01*
X98861452Y-71420445D01*
X98847476Y-71437476D01*
X98830445Y-71451452D01*
X98811009Y-71461840D01*
X98789928Y-71468236D01*
X98761860Y-71471000D01*
X96948140Y-71471000D01*
X96920072Y-71468236D01*
X96898991Y-71461840D01*
X96879555Y-71451452D01*
X96862524Y-71437476D01*
X96848548Y-71420445D01*
X96838160Y-71401009D01*
X96831764Y-71379928D01*
X96829000Y-71351860D01*
X96829000Y-70888140D01*
X96831764Y-70860072D01*
X96838160Y-70838991D01*
X96848548Y-70819555D01*
X96862524Y-70802524D01*
X96879555Y-70788548D01*
X96898991Y-70778160D01*
X96920072Y-70771764D01*
X96948140Y-70769000D01*
X98761860Y-70769000D01*
X98789928Y-70771764D01*
X98789928Y-70771764D01*
G37*
G36*
X98789928Y-69501764D02*
G01*
X98811009Y-69508160D01*
X98830445Y-69518548D01*
X98847476Y-69532524D01*
X98861452Y-69549555D01*
X98871840Y-69568991D01*
X98878236Y-69590072D01*
X98881000Y-69618140D01*
X98881000Y-70081860D01*
X98878236Y-70109928D01*
X98871840Y-70131009D01*
X98861452Y-70150445D01*
X98847476Y-70167476D01*
X98830445Y-70181452D01*
X98811009Y-70191840D01*
X98789928Y-70198236D01*
X98761860Y-70201000D01*
X96948140Y-70201000D01*
X96920072Y-70198236D01*
X96898991Y-70191840D01*
X96879555Y-70181452D01*
X96862524Y-70167476D01*
X96848548Y-70150445D01*
X96838160Y-70131009D01*
X96831764Y-70109928D01*
X96829000Y-70081860D01*
X96829000Y-69618140D01*
X96831764Y-69590072D01*
X96838160Y-69568991D01*
X96848548Y-69549555D01*
X96862524Y-69532524D01*
X96879555Y-69518548D01*
X96898991Y-69508160D01*
X96920072Y-69501764D01*
X96948140Y-69499000D01*
X98761860Y-69499000D01*
X98789928Y-69501764D01*
X98789928Y-69501764D01*
G37*
G36*
X103739928Y-69501764D02*
G01*
X103761009Y-69508160D01*
X103780445Y-69518548D01*
X103797476Y-69532524D01*
X103811452Y-69549555D01*
X103821840Y-69568991D01*
X103828236Y-69590072D01*
X103831000Y-69618140D01*
X103831000Y-70081860D01*
X103828236Y-70109928D01*
X103821840Y-70131009D01*
X103811452Y-70150445D01*
X103797476Y-70167476D01*
X103780445Y-70181452D01*
X103761009Y-70191840D01*
X103739928Y-70198236D01*
X103711860Y-70201000D01*
X101898140Y-70201000D01*
X101870072Y-70198236D01*
X101848991Y-70191840D01*
X101829555Y-70181452D01*
X101812524Y-70167476D01*
X101798548Y-70150445D01*
X101788160Y-70131009D01*
X101781764Y-70109928D01*
X101779000Y-70081860D01*
X101779000Y-69618140D01*
X101781764Y-69590072D01*
X101788160Y-69568991D01*
X101798548Y-69549555D01*
X101812524Y-69532524D01*
X101829555Y-69518548D01*
X101848991Y-69508160D01*
X101870072Y-69501764D01*
X101898140Y-69499000D01*
X103711860Y-69499000D01*
X103739928Y-69501764D01*
X103739928Y-69501764D01*
G37*
G36*
X119771000Y-69621000D02*
G01*
X117669000Y-69621000D01*
X117669000Y-68019000D01*
X119771000Y-68019000D01*
X119771000Y-69621000D01*
X119771000Y-69621000D01*
G37*
G36*
X85367395Y-67665546D02*
G01*
X85540466Y-67737234D01*
X85587187Y-67768452D01*
X85696227Y-67841310D01*
X85828690Y-67973773D01*
X85881081Y-68052182D01*
X85932766Y-68129534D01*
X86004454Y-68302605D01*
X86041000Y-68486333D01*
X86041000Y-68673667D01*
X86004454Y-68857395D01*
X85932766Y-69030466D01*
X85881081Y-69107818D01*
X85828690Y-69186227D01*
X85696227Y-69318690D01*
X85617818Y-69371081D01*
X85540466Y-69422766D01*
X85367395Y-69494454D01*
X85183667Y-69531000D01*
X84996333Y-69531000D01*
X84812605Y-69494454D01*
X84639534Y-69422766D01*
X84562182Y-69371081D01*
X84483773Y-69318690D01*
X84351310Y-69186227D01*
X84298919Y-69107818D01*
X84247234Y-69030466D01*
X84175546Y-68857395D01*
X84139000Y-68673667D01*
X84139000Y-68486333D01*
X84175546Y-68302605D01*
X84247234Y-68129534D01*
X84298919Y-68052182D01*
X84351310Y-67973773D01*
X84483773Y-67841310D01*
X84592813Y-67768452D01*
X84639534Y-67737234D01*
X84812605Y-67665546D01*
X84996333Y-67629000D01*
X85183667Y-67629000D01*
X85367395Y-67665546D01*
X85367395Y-67665546D01*
G37*
G36*
X123912397Y-66959000D02*
G01*
X124016032Y-66969207D01*
X124213111Y-67028991D01*
X124214149Y-67029306D01*
X124310975Y-67081061D01*
X124396729Y-67126897D01*
X124556765Y-67258235D01*
X124688103Y-67418271D01*
X124724037Y-67485500D01*
X124785694Y-67600851D01*
X124785695Y-67600854D01*
X124845793Y-67798968D01*
X124866085Y-68005000D01*
X124845793Y-68211032D01*
X124804201Y-68348140D01*
X124785694Y-68409149D01*
X124744438Y-68486333D01*
X124688103Y-68591729D01*
X124556765Y-68751765D01*
X124396729Y-68883103D01*
X124324257Y-68921840D01*
X124214149Y-68980694D01*
X124214146Y-68980695D01*
X124016032Y-69040793D01*
X123913097Y-69050931D01*
X123861631Y-69056000D01*
X122758369Y-69056000D01*
X122706903Y-69050931D01*
X122603968Y-69040793D01*
X122405854Y-68980695D01*
X122405851Y-68980694D01*
X122295743Y-68921840D01*
X122223271Y-68883103D01*
X122063235Y-68751765D01*
X121931897Y-68591729D01*
X121875562Y-68486333D01*
X121834306Y-68409149D01*
X121815799Y-68348140D01*
X121774207Y-68211032D01*
X121753915Y-68005000D01*
X121774207Y-67798968D01*
X121834305Y-67600854D01*
X121834306Y-67600851D01*
X121895963Y-67485500D01*
X121931897Y-67418271D01*
X122063235Y-67258235D01*
X122223271Y-67126897D01*
X122309025Y-67081061D01*
X122405851Y-67029306D01*
X122406889Y-67028991D01*
X122603968Y-66969207D01*
X122707603Y-66959000D01*
X122758369Y-66954000D01*
X123861631Y-66954000D01*
X123912397Y-66959000D01*
X123912397Y-66959000D01*
G37*
G36*
X131412397Y-66959000D02*
G01*
X131516032Y-66969207D01*
X131713111Y-67028991D01*
X131714149Y-67029306D01*
X131810975Y-67081061D01*
X131896729Y-67126897D01*
X132056765Y-67258235D01*
X132188103Y-67418271D01*
X132224037Y-67485500D01*
X132285694Y-67600851D01*
X132285695Y-67600854D01*
X132345793Y-67798968D01*
X132366085Y-68005000D01*
X132345793Y-68211032D01*
X132304201Y-68348140D01*
X132285694Y-68409149D01*
X132244438Y-68486333D01*
X132188103Y-68591729D01*
X132056765Y-68751765D01*
X131896729Y-68883103D01*
X131824257Y-68921840D01*
X131714149Y-68980694D01*
X131714146Y-68980695D01*
X131516032Y-69040793D01*
X131413097Y-69050931D01*
X131361631Y-69056000D01*
X130258369Y-69056000D01*
X130206903Y-69050931D01*
X130103968Y-69040793D01*
X129905854Y-68980695D01*
X129905851Y-68980694D01*
X129795743Y-68921840D01*
X129723271Y-68883103D01*
X129563235Y-68751765D01*
X129431897Y-68591729D01*
X129375562Y-68486333D01*
X129334306Y-68409149D01*
X129315799Y-68348140D01*
X129274207Y-68211032D01*
X129253915Y-68005000D01*
X129274207Y-67798968D01*
X129334305Y-67600854D01*
X129334306Y-67600851D01*
X129395963Y-67485500D01*
X129431897Y-67418271D01*
X129563235Y-67258235D01*
X129723271Y-67126897D01*
X129809025Y-67081061D01*
X129905851Y-67029306D01*
X129906889Y-67028991D01*
X130103968Y-66969207D01*
X130207603Y-66959000D01*
X130258369Y-66954000D01*
X131361631Y-66954000D01*
X131412397Y-66959000D01*
X131412397Y-66959000D01*
G37*
G36*
X107268674Y-67713465D02*
G01*
X107306367Y-67724899D01*
X107341103Y-67743466D01*
X107371548Y-67768452D01*
X107396534Y-67798897D01*
X107415101Y-67833633D01*
X107426535Y-67871326D01*
X107431000Y-67916661D01*
X107431000Y-68753339D01*
X107426535Y-68798674D01*
X107415101Y-68836367D01*
X107396534Y-68871103D01*
X107371548Y-68901548D01*
X107341103Y-68926534D01*
X107306367Y-68945101D01*
X107268674Y-68956535D01*
X107223339Y-68961000D01*
X106136661Y-68961000D01*
X106091326Y-68956535D01*
X106053633Y-68945101D01*
X106018897Y-68926534D01*
X105988452Y-68901548D01*
X105963466Y-68871103D01*
X105944899Y-68836367D01*
X105933465Y-68798674D01*
X105929000Y-68753339D01*
X105929000Y-67916661D01*
X105933465Y-67871326D01*
X105944899Y-67833633D01*
X105963466Y-67798897D01*
X105988452Y-67768452D01*
X106018897Y-67743466D01*
X106053633Y-67724899D01*
X106091326Y-67713465D01*
X106136661Y-67709000D01*
X107223339Y-67709000D01*
X107268674Y-67713465D01*
X107268674Y-67713465D01*
G37*
G36*
X98789928Y-68231764D02*
G01*
X98811009Y-68238160D01*
X98830445Y-68248548D01*
X98847476Y-68262524D01*
X98861452Y-68279555D01*
X98871840Y-68298991D01*
X98878236Y-68320072D01*
X98881000Y-68348140D01*
X98881000Y-68811860D01*
X98878236Y-68839928D01*
X98871840Y-68861009D01*
X98861452Y-68880445D01*
X98847476Y-68897476D01*
X98830445Y-68911452D01*
X98811009Y-68921840D01*
X98789928Y-68928236D01*
X98761860Y-68931000D01*
X96948140Y-68931000D01*
X96920072Y-68928236D01*
X96898991Y-68921840D01*
X96879555Y-68911452D01*
X96862524Y-68897476D01*
X96848548Y-68880445D01*
X96838160Y-68861009D01*
X96831764Y-68839928D01*
X96829000Y-68811860D01*
X96829000Y-68348140D01*
X96831764Y-68320072D01*
X96838160Y-68298991D01*
X96848548Y-68279555D01*
X96862524Y-68262524D01*
X96879555Y-68248548D01*
X96898991Y-68238160D01*
X96920072Y-68231764D01*
X96948140Y-68229000D01*
X98761860Y-68229000D01*
X98789928Y-68231764D01*
X98789928Y-68231764D01*
G37*
G36*
X103739928Y-68231764D02*
G01*
X103761009Y-68238160D01*
X103780445Y-68248548D01*
X103797476Y-68262524D01*
X103811452Y-68279555D01*
X103821840Y-68298991D01*
X103828236Y-68320072D01*
X103831000Y-68348140D01*
X103831000Y-68811860D01*
X103828236Y-68839928D01*
X103821840Y-68861009D01*
X103811452Y-68880445D01*
X103797476Y-68897476D01*
X103780445Y-68911452D01*
X103761009Y-68921840D01*
X103739928Y-68928236D01*
X103711860Y-68931000D01*
X101898140Y-68931000D01*
X101870072Y-68928236D01*
X101848991Y-68921840D01*
X101829555Y-68911452D01*
X101812524Y-68897476D01*
X101798548Y-68880445D01*
X101788160Y-68861009D01*
X101781764Y-68839928D01*
X101779000Y-68811860D01*
X101779000Y-68348140D01*
X101781764Y-68320072D01*
X101788160Y-68298991D01*
X101798548Y-68279555D01*
X101812524Y-68262524D01*
X101829555Y-68248548D01*
X101848991Y-68238160D01*
X101870072Y-68231764D01*
X101898140Y-68229000D01*
X103711860Y-68229000D01*
X103739928Y-68231764D01*
X103739928Y-68231764D01*
G37*
G36*
X98789928Y-66961764D02*
G01*
X98811009Y-66968160D01*
X98830445Y-66978548D01*
X98847476Y-66992524D01*
X98861452Y-67009555D01*
X98871840Y-67028991D01*
X98878236Y-67050072D01*
X98881000Y-67078140D01*
X98881000Y-67541860D01*
X98878236Y-67569928D01*
X98871840Y-67591009D01*
X98861452Y-67610445D01*
X98847476Y-67627476D01*
X98830445Y-67641452D01*
X98811009Y-67651840D01*
X98789928Y-67658236D01*
X98761860Y-67661000D01*
X96948140Y-67661000D01*
X96920072Y-67658236D01*
X96898991Y-67651840D01*
X96879555Y-67641452D01*
X96862524Y-67627476D01*
X96848548Y-67610445D01*
X96838160Y-67591009D01*
X96831764Y-67569928D01*
X96829000Y-67541860D01*
X96829000Y-67078140D01*
X96831764Y-67050072D01*
X96838160Y-67028991D01*
X96848548Y-67009555D01*
X96862524Y-66992524D01*
X96879555Y-66978548D01*
X96898991Y-66968160D01*
X96920072Y-66961764D01*
X96948140Y-66959000D01*
X98761860Y-66959000D01*
X98789928Y-66961764D01*
X98789928Y-66961764D01*
G37*
G36*
X103739928Y-66961764D02*
G01*
X103761009Y-66968160D01*
X103780445Y-66978548D01*
X103797476Y-66992524D01*
X103811452Y-67009555D01*
X103821840Y-67028991D01*
X103828236Y-67050072D01*
X103831000Y-67078140D01*
X103831000Y-67541860D01*
X103828236Y-67569928D01*
X103821840Y-67591009D01*
X103811452Y-67610445D01*
X103797476Y-67627476D01*
X103780445Y-67641452D01*
X103761009Y-67651840D01*
X103739928Y-67658236D01*
X103711860Y-67661000D01*
X101898140Y-67661000D01*
X101870072Y-67658236D01*
X101848991Y-67651840D01*
X101829555Y-67641452D01*
X101812524Y-67627476D01*
X101798548Y-67610445D01*
X101788160Y-67591009D01*
X101781764Y-67569928D01*
X101779000Y-67541860D01*
X101779000Y-67078140D01*
X101781764Y-67050072D01*
X101788160Y-67028991D01*
X101798548Y-67009555D01*
X101812524Y-66992524D01*
X101829555Y-66978548D01*
X101848991Y-66968160D01*
X101870072Y-66961764D01*
X101898140Y-66959000D01*
X103711860Y-66959000D01*
X103739928Y-66961764D01*
X103739928Y-66961764D01*
G37*
G36*
X107268674Y-65663465D02*
G01*
X107306367Y-65674899D01*
X107341103Y-65693466D01*
X107371548Y-65718452D01*
X107396534Y-65748897D01*
X107415101Y-65783633D01*
X107426535Y-65821326D01*
X107431000Y-65866661D01*
X107431000Y-66703339D01*
X107426535Y-66748674D01*
X107415101Y-66786367D01*
X107396534Y-66821103D01*
X107371548Y-66851548D01*
X107341103Y-66876534D01*
X107306367Y-66895101D01*
X107268674Y-66906535D01*
X107223339Y-66911000D01*
X106136661Y-66911000D01*
X106091326Y-66906535D01*
X106053633Y-66895101D01*
X106018897Y-66876534D01*
X105988452Y-66851548D01*
X105963466Y-66821103D01*
X105944899Y-66786367D01*
X105933465Y-66748674D01*
X105929000Y-66703339D01*
X105929000Y-65866661D01*
X105933465Y-65821326D01*
X105944899Y-65783633D01*
X105963466Y-65748897D01*
X105988452Y-65718452D01*
X106018897Y-65693466D01*
X106053633Y-65674899D01*
X106091326Y-65663465D01*
X106136661Y-65659000D01*
X107223339Y-65659000D01*
X107268674Y-65663465D01*
X107268674Y-65663465D01*
G37*
G36*
X85323642Y-65269781D02*
G01*
X85469414Y-65330162D01*
X85469416Y-65330163D01*
X85600608Y-65417822D01*
X85712178Y-65529392D01*
X85799837Y-65660584D01*
X85799838Y-65660586D01*
X85860219Y-65806358D01*
X85891000Y-65961107D01*
X85891000Y-66118893D01*
X85860219Y-66273642D01*
X85799838Y-66419414D01*
X85799837Y-66419416D01*
X85712178Y-66550608D01*
X85600608Y-66662178D01*
X85469416Y-66749837D01*
X85469415Y-66749838D01*
X85469414Y-66749838D01*
X85323642Y-66810219D01*
X85168893Y-66841000D01*
X85011107Y-66841000D01*
X84856358Y-66810219D01*
X84710586Y-66749838D01*
X84710585Y-66749838D01*
X84710584Y-66749837D01*
X84579392Y-66662178D01*
X84467822Y-66550608D01*
X84380163Y-66419416D01*
X84380162Y-66419414D01*
X84319781Y-66273642D01*
X84289000Y-66118893D01*
X84289000Y-65961107D01*
X84319781Y-65806358D01*
X84380162Y-65660586D01*
X84380163Y-65660584D01*
X84467822Y-65529392D01*
X84579392Y-65417822D01*
X84710584Y-65330163D01*
X84710586Y-65330162D01*
X84856358Y-65269781D01*
X85011107Y-65239000D01*
X85168893Y-65239000D01*
X85323642Y-65269781D01*
X85323642Y-65269781D01*
G37*
M02*
