G04 #@! TF.GenerationSoftware,KiCad,Pcbnew,5.1.4*
G04 #@! TF.CreationDate,2019-11-14T20:38:05+00:00*
G04 #@! TF.ProjectId,BSPD,42535044-2e6b-4696-9361-645f70636258,rev?*
G04 #@! TF.SameCoordinates,Original*
G04 #@! TF.FileFunction,Legend,Top*
G04 #@! TF.FilePolarity,Positive*
%FSLAX46Y46*%
G04 Gerber Fmt 4.6, Leading zero omitted, Abs format (unit mm)*
G04 Created by KiCad (PCBNEW 5.1.4) date 2019-11-14 20:38:05*
%MOMM*%
%LPD*%
G04 APERTURE LIST*
%ADD10C,0.150000*%
%ADD11C,0.050000*%
%ADD12C,0.120000*%
%ADD13C,0.100000*%
G04 APERTURE END LIST*
D10*
X66421190Y-87368571D02*
X66564047Y-87416190D01*
X66611666Y-87463809D01*
X66659285Y-87559047D01*
X66659285Y-87701904D01*
X66611666Y-87797142D01*
X66564047Y-87844761D01*
X66468809Y-87892380D01*
X66087857Y-87892380D01*
X66087857Y-86892380D01*
X66421190Y-86892380D01*
X66516428Y-86940000D01*
X66564047Y-86987619D01*
X66611666Y-87082857D01*
X66611666Y-87178095D01*
X66564047Y-87273333D01*
X66516428Y-87320952D01*
X66421190Y-87368571D01*
X66087857Y-87368571D01*
X67087857Y-87892380D02*
X67087857Y-87225714D01*
X67087857Y-87416190D02*
X67135476Y-87320952D01*
X67183095Y-87273333D01*
X67278333Y-87225714D01*
X67373571Y-87225714D01*
X68135476Y-87892380D02*
X68135476Y-87368571D01*
X68087857Y-87273333D01*
X67992619Y-87225714D01*
X67802142Y-87225714D01*
X67706904Y-87273333D01*
X68135476Y-87844761D02*
X68040238Y-87892380D01*
X67802142Y-87892380D01*
X67706904Y-87844761D01*
X67659285Y-87749523D01*
X67659285Y-87654285D01*
X67706904Y-87559047D01*
X67802142Y-87511428D01*
X68040238Y-87511428D01*
X68135476Y-87463809D01*
X68611666Y-87892380D02*
X68611666Y-86892380D01*
X68706904Y-87511428D02*
X68992619Y-87892380D01*
X68992619Y-87225714D02*
X68611666Y-87606666D01*
X69802142Y-87844761D02*
X69706904Y-87892380D01*
X69516428Y-87892380D01*
X69421190Y-87844761D01*
X69373571Y-87749523D01*
X69373571Y-87368571D01*
X69421190Y-87273333D01*
X69516428Y-87225714D01*
X69706904Y-87225714D01*
X69802142Y-87273333D01*
X69849761Y-87368571D01*
X69849761Y-87463809D01*
X69373571Y-87559047D01*
X64945000Y-89542380D02*
X64945000Y-88542380D01*
X65325952Y-88542380D01*
X65421190Y-88590000D01*
X65468809Y-88637619D01*
X65516428Y-88732857D01*
X65516428Y-88875714D01*
X65468809Y-88970952D01*
X65421190Y-89018571D01*
X65325952Y-89066190D01*
X64945000Y-89066190D01*
X65945000Y-89542380D02*
X65945000Y-88875714D01*
X65945000Y-89066190D02*
X65992619Y-88970952D01*
X66040238Y-88923333D01*
X66135476Y-88875714D01*
X66230714Y-88875714D01*
X66945000Y-89494761D02*
X66849761Y-89542380D01*
X66659285Y-89542380D01*
X66564047Y-89494761D01*
X66516428Y-89399523D01*
X66516428Y-89018571D01*
X66564047Y-88923333D01*
X66659285Y-88875714D01*
X66849761Y-88875714D01*
X66945000Y-88923333D01*
X66992619Y-89018571D01*
X66992619Y-89113809D01*
X66516428Y-89209047D01*
X67373571Y-89494761D02*
X67468809Y-89542380D01*
X67659285Y-89542380D01*
X67754523Y-89494761D01*
X67802142Y-89399523D01*
X67802142Y-89351904D01*
X67754523Y-89256666D01*
X67659285Y-89209047D01*
X67516428Y-89209047D01*
X67421190Y-89161428D01*
X67373571Y-89066190D01*
X67373571Y-89018571D01*
X67421190Y-88923333D01*
X67516428Y-88875714D01*
X67659285Y-88875714D01*
X67754523Y-88923333D01*
X68183095Y-89494761D02*
X68278333Y-89542380D01*
X68468809Y-89542380D01*
X68564047Y-89494761D01*
X68611666Y-89399523D01*
X68611666Y-89351904D01*
X68564047Y-89256666D01*
X68468809Y-89209047D01*
X68325952Y-89209047D01*
X68230714Y-89161428D01*
X68183095Y-89066190D01*
X68183095Y-89018571D01*
X68230714Y-88923333D01*
X68325952Y-88875714D01*
X68468809Y-88875714D01*
X68564047Y-88923333D01*
X69468809Y-88875714D02*
X69468809Y-89542380D01*
X69040238Y-88875714D02*
X69040238Y-89399523D01*
X69087857Y-89494761D01*
X69183095Y-89542380D01*
X69325952Y-89542380D01*
X69421190Y-89494761D01*
X69468809Y-89447142D01*
X69945000Y-89542380D02*
X69945000Y-88875714D01*
X69945000Y-89066190D02*
X69992619Y-88970952D01*
X70040238Y-88923333D01*
X70135476Y-88875714D01*
X70230714Y-88875714D01*
X70945000Y-89494761D02*
X70849761Y-89542380D01*
X70659285Y-89542380D01*
X70564047Y-89494761D01*
X70516428Y-89399523D01*
X70516428Y-89018571D01*
X70564047Y-88923333D01*
X70659285Y-88875714D01*
X70849761Y-88875714D01*
X70945000Y-88923333D01*
X70992619Y-89018571D01*
X70992619Y-89113809D01*
X70516428Y-89209047D01*
X72231428Y-88527380D02*
X72231428Y-87527380D01*
X72231428Y-88003571D02*
X72802857Y-88003571D01*
X72802857Y-88527380D02*
X72802857Y-87527380D01*
X73279047Y-88527380D02*
X73279047Y-87860714D01*
X73279047Y-87527380D02*
X73231428Y-87575000D01*
X73279047Y-87622619D01*
X73326666Y-87575000D01*
X73279047Y-87527380D01*
X73279047Y-87622619D01*
X74183809Y-87860714D02*
X74183809Y-88670238D01*
X74136190Y-88765476D01*
X74088571Y-88813095D01*
X73993333Y-88860714D01*
X73850476Y-88860714D01*
X73755238Y-88813095D01*
X74183809Y-88479761D02*
X74088571Y-88527380D01*
X73898095Y-88527380D01*
X73802857Y-88479761D01*
X73755238Y-88432142D01*
X73707619Y-88336904D01*
X73707619Y-88051190D01*
X73755238Y-87955952D01*
X73802857Y-87908333D01*
X73898095Y-87860714D01*
X74088571Y-87860714D01*
X74183809Y-87908333D01*
X74660000Y-88527380D02*
X74660000Y-87527380D01*
X75088571Y-88527380D02*
X75088571Y-88003571D01*
X75040952Y-87908333D01*
X74945714Y-87860714D01*
X74802857Y-87860714D01*
X74707619Y-87908333D01*
X74660000Y-87955952D01*
X72993333Y-90177380D02*
X72517142Y-90177380D01*
X72517142Y-89177380D01*
X73469523Y-90177380D02*
X73374285Y-90129761D01*
X73326666Y-90082142D01*
X73279047Y-89986904D01*
X73279047Y-89701190D01*
X73326666Y-89605952D01*
X73374285Y-89558333D01*
X73469523Y-89510714D01*
X73612380Y-89510714D01*
X73707619Y-89558333D01*
X73755238Y-89605952D01*
X73802857Y-89701190D01*
X73802857Y-89986904D01*
X73755238Y-90082142D01*
X73707619Y-90129761D01*
X73612380Y-90177380D01*
X73469523Y-90177380D01*
X74136190Y-89510714D02*
X74326666Y-90177380D01*
X74517142Y-89701190D01*
X74707619Y-90177380D01*
X74898095Y-89510714D01*
X72231428Y-73287380D02*
X72231428Y-72287380D01*
X72231428Y-72763571D02*
X72802857Y-72763571D01*
X72802857Y-73287380D02*
X72802857Y-72287380D01*
X73279047Y-73287380D02*
X73279047Y-72620714D01*
X73279047Y-72287380D02*
X73231428Y-72335000D01*
X73279047Y-72382619D01*
X73326666Y-72335000D01*
X73279047Y-72287380D01*
X73279047Y-72382619D01*
X74183809Y-72620714D02*
X74183809Y-73430238D01*
X74136190Y-73525476D01*
X74088571Y-73573095D01*
X73993333Y-73620714D01*
X73850476Y-73620714D01*
X73755238Y-73573095D01*
X74183809Y-73239761D02*
X74088571Y-73287380D01*
X73898095Y-73287380D01*
X73802857Y-73239761D01*
X73755238Y-73192142D01*
X73707619Y-73096904D01*
X73707619Y-72811190D01*
X73755238Y-72715952D01*
X73802857Y-72668333D01*
X73898095Y-72620714D01*
X74088571Y-72620714D01*
X74183809Y-72668333D01*
X74660000Y-73287380D02*
X74660000Y-72287380D01*
X75088571Y-73287380D02*
X75088571Y-72763571D01*
X75040952Y-72668333D01*
X74945714Y-72620714D01*
X74802857Y-72620714D01*
X74707619Y-72668333D01*
X74660000Y-72715952D01*
X72993333Y-74937380D02*
X72517142Y-74937380D01*
X72517142Y-73937380D01*
X73469523Y-74937380D02*
X73374285Y-74889761D01*
X73326666Y-74842142D01*
X73279047Y-74746904D01*
X73279047Y-74461190D01*
X73326666Y-74365952D01*
X73374285Y-74318333D01*
X73469523Y-74270714D01*
X73612380Y-74270714D01*
X73707619Y-74318333D01*
X73755238Y-74365952D01*
X73802857Y-74461190D01*
X73802857Y-74746904D01*
X73755238Y-74842142D01*
X73707619Y-74889761D01*
X73612380Y-74937380D01*
X73469523Y-74937380D01*
X74136190Y-74270714D02*
X74326666Y-74937380D01*
X74517142Y-74461190D01*
X74707619Y-74937380D01*
X74898095Y-74270714D01*
X66016428Y-74017142D02*
X65968809Y-74064761D01*
X65825952Y-74112380D01*
X65730714Y-74112380D01*
X65587857Y-74064761D01*
X65492619Y-73969523D01*
X65445000Y-73874285D01*
X65397380Y-73683809D01*
X65397380Y-73540952D01*
X65445000Y-73350476D01*
X65492619Y-73255238D01*
X65587857Y-73160000D01*
X65730714Y-73112380D01*
X65825952Y-73112380D01*
X65968809Y-73160000D01*
X66016428Y-73207619D01*
X66873571Y-73445714D02*
X66873571Y-74112380D01*
X66445000Y-73445714D02*
X66445000Y-73969523D01*
X66492619Y-74064761D01*
X66587857Y-74112380D01*
X66730714Y-74112380D01*
X66825952Y-74064761D01*
X66873571Y-74017142D01*
X67349761Y-74112380D02*
X67349761Y-73445714D01*
X67349761Y-73636190D02*
X67397380Y-73540952D01*
X67445000Y-73493333D01*
X67540238Y-73445714D01*
X67635476Y-73445714D01*
X67968809Y-74112380D02*
X67968809Y-73445714D01*
X67968809Y-73636190D02*
X68016428Y-73540952D01*
X68064047Y-73493333D01*
X68159285Y-73445714D01*
X68254523Y-73445714D01*
X68968809Y-74064761D02*
X68873571Y-74112380D01*
X68683095Y-74112380D01*
X68587857Y-74064761D01*
X68540238Y-73969523D01*
X68540238Y-73588571D01*
X68587857Y-73493333D01*
X68683095Y-73445714D01*
X68873571Y-73445714D01*
X68968809Y-73493333D01*
X69016428Y-73588571D01*
X69016428Y-73683809D01*
X68540238Y-73779047D01*
X69445000Y-73445714D02*
X69445000Y-74112380D01*
X69445000Y-73540952D02*
X69492619Y-73493333D01*
X69587857Y-73445714D01*
X69730714Y-73445714D01*
X69825952Y-73493333D01*
X69873571Y-73588571D01*
X69873571Y-74112380D01*
X70206904Y-73445714D02*
X70587857Y-73445714D01*
X70349761Y-73112380D02*
X70349761Y-73969523D01*
X70397380Y-74064761D01*
X70492619Y-74112380D01*
X70587857Y-74112380D01*
X157069404Y-82115000D02*
X156974166Y-82067380D01*
X156831309Y-82067380D01*
X156688452Y-82115000D01*
X156593214Y-82210238D01*
X156545595Y-82305476D01*
X156497976Y-82495952D01*
X156497976Y-82638809D01*
X156545595Y-82829285D01*
X156593214Y-82924523D01*
X156688452Y-83019761D01*
X156831309Y-83067380D01*
X156926547Y-83067380D01*
X157069404Y-83019761D01*
X157117023Y-82972142D01*
X157117023Y-82638809D01*
X156926547Y-82638809D01*
X157545595Y-83067380D02*
X157545595Y-82067380D01*
X158117023Y-83067380D01*
X158117023Y-82067380D01*
X158593214Y-83067380D02*
X158593214Y-82067380D01*
X158831309Y-82067380D01*
X158974166Y-82115000D01*
X159069404Y-82210238D01*
X159117023Y-82305476D01*
X159164642Y-82495952D01*
X159164642Y-82638809D01*
X159117023Y-82829285D01*
X159069404Y-82924523D01*
X158974166Y-83019761D01*
X158831309Y-83067380D01*
X158593214Y-83067380D01*
X157069404Y-83765000D02*
X156974166Y-83717380D01*
X156831309Y-83717380D01*
X156688452Y-83765000D01*
X156593214Y-83860238D01*
X156545595Y-83955476D01*
X156497976Y-84145952D01*
X156497976Y-84288809D01*
X156545595Y-84479285D01*
X156593214Y-84574523D01*
X156688452Y-84669761D01*
X156831309Y-84717380D01*
X156926547Y-84717380D01*
X157069404Y-84669761D01*
X157117023Y-84622142D01*
X157117023Y-84288809D01*
X156926547Y-84288809D01*
X157545595Y-84717380D02*
X157545595Y-83717380D01*
X158117023Y-84717380D01*
X158117023Y-83717380D01*
X158593214Y-84717380D02*
X158593214Y-83717380D01*
X158831309Y-83717380D01*
X158974166Y-83765000D01*
X159069404Y-83860238D01*
X159117023Y-83955476D01*
X159164642Y-84145952D01*
X159164642Y-84288809D01*
X159117023Y-84479285D01*
X159069404Y-84574523D01*
X158974166Y-84669761D01*
X158831309Y-84717380D01*
X158593214Y-84717380D01*
X157069404Y-85415000D02*
X156974166Y-85367380D01*
X156831309Y-85367380D01*
X156688452Y-85415000D01*
X156593214Y-85510238D01*
X156545595Y-85605476D01*
X156497976Y-85795952D01*
X156497976Y-85938809D01*
X156545595Y-86129285D01*
X156593214Y-86224523D01*
X156688452Y-86319761D01*
X156831309Y-86367380D01*
X156926547Y-86367380D01*
X157069404Y-86319761D01*
X157117023Y-86272142D01*
X157117023Y-85938809D01*
X156926547Y-85938809D01*
X157545595Y-86367380D02*
X157545595Y-85367380D01*
X158117023Y-86367380D01*
X158117023Y-85367380D01*
X158593214Y-86367380D02*
X158593214Y-85367380D01*
X158831309Y-85367380D01*
X158974166Y-85415000D01*
X159069404Y-85510238D01*
X159117023Y-85605476D01*
X159164642Y-85795952D01*
X159164642Y-85938809D01*
X159117023Y-86129285D01*
X159069404Y-86224523D01*
X158974166Y-86319761D01*
X158831309Y-86367380D01*
X158593214Y-86367380D01*
X157021785Y-87017380D02*
X156545595Y-87017380D01*
X156497976Y-87493571D01*
X156545595Y-87445952D01*
X156640833Y-87398333D01*
X156878928Y-87398333D01*
X156974166Y-87445952D01*
X157021785Y-87493571D01*
X157069404Y-87588809D01*
X157069404Y-87826904D01*
X157021785Y-87922142D01*
X156974166Y-87969761D01*
X156878928Y-88017380D01*
X156640833Y-88017380D01*
X156545595Y-87969761D01*
X156497976Y-87922142D01*
X157355119Y-87017380D02*
X157688452Y-88017380D01*
X158021785Y-87017380D01*
X153477500Y-83067380D02*
X152906071Y-83067380D01*
X153191785Y-83067380D02*
X153191785Y-82067380D01*
X153096547Y-82210238D01*
X153001309Y-82305476D01*
X152906071Y-82353095D01*
X153858452Y-82162619D02*
X153906071Y-82115000D01*
X154001309Y-82067380D01*
X154239404Y-82067380D01*
X154334642Y-82115000D01*
X154382261Y-82162619D01*
X154429880Y-82257857D01*
X154429880Y-82353095D01*
X154382261Y-82495952D01*
X153810833Y-83067380D01*
X154429880Y-83067380D01*
X154715595Y-82067380D02*
X155048928Y-83067380D01*
X155382261Y-82067380D01*
X152239404Y-84622142D02*
X152191785Y-84669761D01*
X152048928Y-84717380D01*
X151953690Y-84717380D01*
X151810833Y-84669761D01*
X151715595Y-84574523D01*
X151667976Y-84479285D01*
X151620357Y-84288809D01*
X151620357Y-84145952D01*
X151667976Y-83955476D01*
X151715595Y-83860238D01*
X151810833Y-83765000D01*
X151953690Y-83717380D01*
X152048928Y-83717380D01*
X152191785Y-83765000D01*
X152239404Y-83812619D01*
X152667976Y-83717380D02*
X152667976Y-84526904D01*
X152715595Y-84622142D01*
X152763214Y-84669761D01*
X152858452Y-84717380D01*
X153048928Y-84717380D01*
X153144166Y-84669761D01*
X153191785Y-84622142D01*
X153239404Y-84526904D01*
X153239404Y-83717380D01*
X154287023Y-84717380D02*
X153953690Y-84241190D01*
X153715595Y-84717380D02*
X153715595Y-83717380D01*
X154096547Y-83717380D01*
X154191785Y-83765000D01*
X154239404Y-83812619D01*
X154287023Y-83907857D01*
X154287023Y-84050714D01*
X154239404Y-84145952D01*
X154191785Y-84193571D01*
X154096547Y-84241190D01*
X153715595Y-84241190D01*
X155287023Y-84717380D02*
X154953690Y-84241190D01*
X154715595Y-84717380D02*
X154715595Y-83717380D01*
X155096547Y-83717380D01*
X155191785Y-83765000D01*
X155239404Y-83812619D01*
X155287023Y-83907857D01*
X155287023Y-84050714D01*
X155239404Y-84145952D01*
X155191785Y-84193571D01*
X155096547Y-84241190D01*
X154715595Y-84241190D01*
X151858452Y-86367380D02*
X151858452Y-85367380D01*
X152239404Y-85367380D01*
X152334642Y-85415000D01*
X152382261Y-85462619D01*
X152429880Y-85557857D01*
X152429880Y-85700714D01*
X152382261Y-85795952D01*
X152334642Y-85843571D01*
X152239404Y-85891190D01*
X151858452Y-85891190D01*
X153429880Y-86367380D02*
X153096547Y-85891190D01*
X152858452Y-86367380D02*
X152858452Y-85367380D01*
X153239404Y-85367380D01*
X153334642Y-85415000D01*
X153382261Y-85462619D01*
X153429880Y-85557857D01*
X153429880Y-85700714D01*
X153382261Y-85795952D01*
X153334642Y-85843571D01*
X153239404Y-85891190D01*
X152858452Y-85891190D01*
X153858452Y-85843571D02*
X154191785Y-85843571D01*
X154334642Y-86367380D02*
X153858452Y-86367380D01*
X153858452Y-85367380D01*
X154334642Y-85367380D01*
X154715595Y-86319761D02*
X154858452Y-86367380D01*
X155096547Y-86367380D01*
X155191785Y-86319761D01*
X155239404Y-86272142D01*
X155287023Y-86176904D01*
X155287023Y-86081666D01*
X155239404Y-85986428D01*
X155191785Y-85938809D01*
X155096547Y-85891190D01*
X154906071Y-85843571D01*
X154810833Y-85795952D01*
X154763214Y-85748333D01*
X154715595Y-85653095D01*
X154715595Y-85557857D01*
X154763214Y-85462619D01*
X154810833Y-85415000D01*
X154906071Y-85367380D01*
X155144166Y-85367380D01*
X155287023Y-85415000D01*
X154382261Y-87017380D02*
X153906071Y-87017380D01*
X153858452Y-87493571D01*
X153906071Y-87445952D01*
X154001309Y-87398333D01*
X154239404Y-87398333D01*
X154334642Y-87445952D01*
X154382261Y-87493571D01*
X154429880Y-87588809D01*
X154429880Y-87826904D01*
X154382261Y-87922142D01*
X154334642Y-87969761D01*
X154239404Y-88017380D01*
X154001309Y-88017380D01*
X153906071Y-87969761D01*
X153858452Y-87922142D01*
X154715595Y-87017380D02*
X155048928Y-88017380D01*
X155382261Y-87017380D01*
X153820952Y-74002380D02*
X154011428Y-74002380D01*
X154106666Y-74050000D01*
X154201904Y-74145238D01*
X154249523Y-74335714D01*
X154249523Y-74669047D01*
X154201904Y-74859523D01*
X154106666Y-74954761D01*
X154011428Y-75002380D01*
X153820952Y-75002380D01*
X153725714Y-74954761D01*
X153630476Y-74859523D01*
X153582857Y-74669047D01*
X153582857Y-74335714D01*
X153630476Y-74145238D01*
X153725714Y-74050000D01*
X153820952Y-74002380D01*
X154678095Y-74002380D02*
X154678095Y-74811904D01*
X154725714Y-74907142D01*
X154773333Y-74954761D01*
X154868571Y-75002380D01*
X155059047Y-75002380D01*
X155154285Y-74954761D01*
X155201904Y-74907142D01*
X155249523Y-74811904D01*
X155249523Y-74002380D01*
X156297142Y-75002380D02*
X155963809Y-74526190D01*
X155725714Y-75002380D02*
X155725714Y-74002380D01*
X156106666Y-74002380D01*
X156201904Y-74050000D01*
X156249523Y-74097619D01*
X156297142Y-74192857D01*
X156297142Y-74335714D01*
X156249523Y-74430952D01*
X156201904Y-74478571D01*
X156106666Y-74526190D01*
X155725714Y-74526190D01*
X153535238Y-76128571D02*
X153678095Y-76176190D01*
X153725714Y-76223809D01*
X153773333Y-76319047D01*
X153773333Y-76461904D01*
X153725714Y-76557142D01*
X153678095Y-76604761D01*
X153582857Y-76652380D01*
X153201904Y-76652380D01*
X153201904Y-75652380D01*
X153535238Y-75652380D01*
X153630476Y-75700000D01*
X153678095Y-75747619D01*
X153725714Y-75842857D01*
X153725714Y-75938095D01*
X153678095Y-76033333D01*
X153630476Y-76080952D01*
X153535238Y-76128571D01*
X153201904Y-76128571D01*
X154154285Y-76604761D02*
X154297142Y-76652380D01*
X154535238Y-76652380D01*
X154630476Y-76604761D01*
X154678095Y-76557142D01*
X154725714Y-76461904D01*
X154725714Y-76366666D01*
X154678095Y-76271428D01*
X154630476Y-76223809D01*
X154535238Y-76176190D01*
X154344761Y-76128571D01*
X154249523Y-76080952D01*
X154201904Y-76033333D01*
X154154285Y-75938095D01*
X154154285Y-75842857D01*
X154201904Y-75747619D01*
X154249523Y-75700000D01*
X154344761Y-75652380D01*
X154582857Y-75652380D01*
X154725714Y-75700000D01*
X155154285Y-76652380D02*
X155154285Y-75652380D01*
X155535238Y-75652380D01*
X155630476Y-75700000D01*
X155678095Y-75747619D01*
X155725714Y-75842857D01*
X155725714Y-75985714D01*
X155678095Y-76080952D01*
X155630476Y-76128571D01*
X155535238Y-76176190D01*
X155154285Y-76176190D01*
X156154285Y-76652380D02*
X156154285Y-75652380D01*
X156392380Y-75652380D01*
X156535238Y-75700000D01*
X156630476Y-75795238D01*
X156678095Y-75890476D01*
X156725714Y-76080952D01*
X156725714Y-76223809D01*
X156678095Y-76414285D01*
X156630476Y-76509523D01*
X156535238Y-76604761D01*
X156392380Y-76652380D01*
X156154285Y-76652380D01*
X153630476Y-78302380D02*
X153297142Y-77826190D01*
X153059047Y-78302380D02*
X153059047Y-77302380D01*
X153440000Y-77302380D01*
X153535238Y-77350000D01*
X153582857Y-77397619D01*
X153630476Y-77492857D01*
X153630476Y-77635714D01*
X153582857Y-77730952D01*
X153535238Y-77778571D01*
X153440000Y-77826190D01*
X153059047Y-77826190D01*
X154440000Y-78254761D02*
X154344761Y-78302380D01*
X154154285Y-78302380D01*
X154059047Y-78254761D01*
X154011428Y-78159523D01*
X154011428Y-77778571D01*
X154059047Y-77683333D01*
X154154285Y-77635714D01*
X154344761Y-77635714D01*
X154440000Y-77683333D01*
X154487619Y-77778571D01*
X154487619Y-77873809D01*
X154011428Y-77969047D01*
X154820952Y-77635714D02*
X155059047Y-78302380D01*
X155297142Y-77635714D01*
X156392380Y-78016666D02*
X156868571Y-78016666D01*
X156297142Y-78302380D02*
X156630476Y-77302380D01*
X156963809Y-78302380D01*
D11*
X63500000Y-63500000D02*
X160020000Y-63500000D01*
X63500000Y-99060000D02*
X63500000Y-63500000D01*
X160020000Y-99060000D02*
X63500000Y-99060000D01*
X160020000Y-99060000D02*
X160020000Y-63500000D01*
D12*
X101290000Y-94105000D02*
X102220000Y-94105000D01*
X104450000Y-94105000D02*
X103520000Y-94105000D01*
X104450000Y-94105000D02*
X104450000Y-90945000D01*
X101290000Y-94105000D02*
X101290000Y-92645000D01*
X100330000Y-79385000D02*
X98380000Y-79385000D01*
X100330000Y-79385000D02*
X102280000Y-79385000D01*
X100330000Y-88255000D02*
X98380000Y-88255000D01*
X100330000Y-88255000D02*
X103780000Y-88255000D01*
X149225000Y-89130000D02*
X149225000Y-88360000D01*
X149225000Y-81050000D02*
X149225000Y-81820000D01*
X150595000Y-88360000D02*
X150595000Y-81820000D01*
X147855000Y-88360000D02*
X150595000Y-88360000D01*
X147855000Y-81820000D02*
X147855000Y-88360000D01*
X150595000Y-81820000D02*
X147855000Y-81820000D01*
X86040000Y-88900000D02*
G75*
G03X86040000Y-88900000I-950000J0D01*
G01*
X86040000Y-81280000D02*
G75*
G03X86040000Y-81280000I-950000J0D01*
G01*
X86040000Y-73660000D02*
G75*
G03X86040000Y-73660000I-950000J0D01*
G01*
X86040000Y-66040000D02*
G75*
G03X86040000Y-66040000I-950000J0D01*
G01*
X137100000Y-92770000D02*
X142300000Y-92770000D01*
X137100000Y-85090000D02*
X137100000Y-92770000D01*
X142300000Y-82490000D02*
X142300000Y-92770000D01*
X137100000Y-85090000D02*
X139700000Y-85090000D01*
X139700000Y-85090000D02*
X139700000Y-82490000D01*
X139700000Y-82490000D02*
X142300000Y-82490000D01*
X137100000Y-83820000D02*
X137100000Y-82490000D01*
X137100000Y-82490000D02*
X138430000Y-82490000D01*
D10*
X135255000Y-78740000D02*
X135255000Y-96520000D01*
X144145000Y-78740000D02*
X144145000Y-96520000D01*
X135255000Y-78740000D02*
X144145000Y-78740000D01*
X135255000Y-96520000D02*
X144145000Y-96520000D01*
D12*
X100330000Y-66685000D02*
X98380000Y-66685000D01*
X100330000Y-66685000D02*
X102280000Y-66685000D01*
X100330000Y-75555000D02*
X98380000Y-75555000D01*
X100330000Y-75555000D02*
X103780000Y-75555000D01*
X97480000Y-94105000D02*
X98410000Y-94105000D01*
X100640000Y-94105000D02*
X99710000Y-94105000D01*
X100640000Y-94105000D02*
X100640000Y-90945000D01*
X97480000Y-94105000D02*
X97480000Y-92645000D01*
X119970000Y-85470000D02*
X119970000Y-82170000D01*
X119970000Y-82170000D02*
X113070000Y-82170000D01*
X119970000Y-85470000D02*
X113070000Y-85470000D01*
X113660000Y-67710000D02*
X113660000Y-68970000D01*
X113660000Y-74530000D02*
X113660000Y-73270000D01*
X117420000Y-67710000D02*
X113660000Y-67710000D01*
X119670000Y-74530000D02*
X113660000Y-74530000D01*
X76590000Y-90190000D02*
X95830000Y-90190000D01*
X76590000Y-95230000D02*
X95830000Y-95230000D01*
X76590000Y-90190000D02*
X76590000Y-95230000D01*
X95830000Y-90190000D02*
X95830000Y-95230000D01*
X75070000Y-91410000D02*
X76589000Y-91410000D01*
X75070000Y-94010000D02*
X76589000Y-94010000D01*
X75070000Y-91410000D02*
X75070000Y-94010000D01*
X76589000Y-91410000D02*
X76589000Y-94010000D01*
X75070000Y-92710000D02*
X75829000Y-92710000D01*
X76590000Y-82570000D02*
X95830000Y-82570000D01*
X76590000Y-87610000D02*
X95830000Y-87610000D01*
X76590000Y-82570000D02*
X76590000Y-87610000D01*
X95830000Y-82570000D02*
X95830000Y-87610000D01*
X75070000Y-83790000D02*
X76589000Y-83790000D01*
X75070000Y-86390000D02*
X76589000Y-86390000D01*
X75070000Y-83790000D02*
X75070000Y-86390000D01*
X76589000Y-83790000D02*
X76589000Y-86390000D01*
X75070000Y-85090000D02*
X75829000Y-85090000D01*
X76590000Y-74950000D02*
X95830000Y-74950000D01*
X76590000Y-79990000D02*
X95830000Y-79990000D01*
X76590000Y-74950000D02*
X76590000Y-79990000D01*
X95830000Y-74950000D02*
X95830000Y-79990000D01*
X75070000Y-76170000D02*
X76589000Y-76170000D01*
X75070000Y-78770000D02*
X76589000Y-78770000D01*
X75070000Y-76170000D02*
X75070000Y-78770000D01*
X76589000Y-76170000D02*
X76589000Y-78770000D01*
X75070000Y-77470000D02*
X75829000Y-77470000D01*
X76590000Y-67330000D02*
X95830000Y-67330000D01*
X76590000Y-72370000D02*
X95830000Y-72370000D01*
X76590000Y-67330000D02*
X76590000Y-72370000D01*
X95830000Y-67330000D02*
X95830000Y-72370000D01*
X75070000Y-68550000D02*
X76589000Y-68550000D01*
X75070000Y-71150000D02*
X76589000Y-71150000D01*
X75070000Y-68550000D02*
X75070000Y-71150000D01*
X76589000Y-68550000D02*
X76589000Y-71150000D01*
X75070000Y-69850000D02*
X75829000Y-69850000D01*
X108211252Y-92150000D02*
X107688748Y-92150000D01*
X108211252Y-90730000D02*
X107688748Y-90730000D01*
X108211252Y-89610000D02*
X107688748Y-89610000D01*
X108211252Y-88190000D02*
X107688748Y-88190000D01*
X108211252Y-71830000D02*
X107688748Y-71830000D01*
X108211252Y-70410000D02*
X107688748Y-70410000D01*
X108211252Y-87070000D02*
X107688748Y-87070000D01*
X108211252Y-85650000D02*
X107688748Y-85650000D01*
X108211252Y-83110000D02*
X107688748Y-83110000D01*
X108211252Y-84530000D02*
X107688748Y-84530000D01*
X108211252Y-76910000D02*
X107688748Y-76910000D01*
X108211252Y-75490000D02*
X107688748Y-75490000D01*
X108211252Y-74370000D02*
X107688748Y-74370000D01*
X108211252Y-72950000D02*
X107688748Y-72950000D01*
X107688748Y-80570000D02*
X108211252Y-80570000D01*
X107688748Y-81990000D02*
X108211252Y-81990000D01*
X108211252Y-79450000D02*
X107688748Y-79450000D01*
X108211252Y-78030000D02*
X107688748Y-78030000D01*
X84716252Y-94690000D02*
X84193748Y-94690000D01*
X84716252Y-93270000D02*
X84193748Y-93270000D01*
X88526252Y-94690000D02*
X88003748Y-94690000D01*
X88526252Y-93270000D02*
X88003748Y-93270000D01*
X84716252Y-87070000D02*
X84193748Y-87070000D01*
X84716252Y-85650000D02*
X84193748Y-85650000D01*
X88526252Y-87070000D02*
X88003748Y-87070000D01*
X88526252Y-85650000D02*
X88003748Y-85650000D01*
X84716252Y-79450000D02*
X84193748Y-79450000D01*
X84716252Y-78030000D02*
X84193748Y-78030000D01*
X88526252Y-79450000D02*
X88003748Y-79450000D01*
X88526252Y-78030000D02*
X88003748Y-78030000D01*
X84716252Y-70410000D02*
X84193748Y-70410000D01*
X84716252Y-71830000D02*
X84193748Y-71830000D01*
X88526252Y-70410000D02*
X88003748Y-70410000D01*
X88526252Y-71830000D02*
X88003748Y-71830000D01*
X133810000Y-96095000D02*
X133810000Y-94595000D01*
X132310000Y-96095000D02*
X133810000Y-96095000D01*
X124460000Y-89535000D02*
X123190000Y-89535000D01*
X123190000Y-89535000D02*
X123190000Y-90805000D01*
X130810000Y-90805000D02*
X130810000Y-89535000D01*
X130810000Y-89535000D02*
X129540000Y-89535000D01*
X129540000Y-89535000D02*
X129540000Y-88265000D01*
X129540000Y-88265000D02*
X124460000Y-88265000D01*
X124460000Y-88265000D02*
X124460000Y-90805000D01*
X124460000Y-90805000D02*
X129540000Y-90805000D01*
X129540000Y-90805000D02*
X129540000Y-89535000D01*
X120510000Y-95895000D02*
X133610000Y-95895000D01*
X120510000Y-66495000D02*
X120510000Y-95895000D01*
X133610000Y-66495000D02*
X120510000Y-66495000D01*
X133610000Y-95895000D02*
X133610000Y-66495000D01*
D13*
X128270000Y-90805000D02*
X127000000Y-88265000D01*
D12*
X142826682Y-69585244D02*
G75*
G02X143510000Y-69440000I683318J-1534756D01*
G01*
X141974574Y-71803042D02*
G75*
G02X141975000Y-70436000I1535426J683042D01*
G01*
X144193042Y-72655426D02*
G75*
G02X142826000Y-72655000I-683042J1535426D01*
G01*
X145045426Y-70436958D02*
G75*
G02X145045000Y-71804000I-1535426J-683042D01*
G01*
X143481195Y-69439747D02*
G75*
G02X144194000Y-69585000I28805J-1680253D01*
G01*
X140110000Y-71120000D02*
G75*
G03X140110000Y-71120000I-1680000J0D01*
G01*
X146110000Y-67020000D02*
X135830000Y-67020000D01*
X146110000Y-68520000D02*
X135830000Y-68520000D01*
X146110000Y-73421000D02*
X135830000Y-73421000D01*
X146110000Y-76381000D02*
X135830000Y-76381000D01*
X146110000Y-66460000D02*
X135830000Y-66460000D01*
X146110000Y-76381000D02*
X146110000Y-66460000D01*
X135830000Y-76381000D02*
X135830000Y-66460000D01*
X137155000Y-72189000D02*
X137202000Y-72143000D01*
X139464000Y-69881000D02*
X139499000Y-69846000D01*
X137360000Y-72395000D02*
X137395000Y-72359000D01*
X139657000Y-70097000D02*
X139704000Y-70051000D01*
X146350000Y-66960000D02*
X146350000Y-66220000D01*
X146350000Y-66220000D02*
X145850000Y-66220000D01*
X147420000Y-81820000D02*
X144680000Y-81820000D01*
X144680000Y-81820000D02*
X144680000Y-88360000D01*
X144680000Y-88360000D02*
X147420000Y-88360000D01*
X147420000Y-88360000D02*
X147420000Y-81820000D01*
X146050000Y-81050000D02*
X146050000Y-81820000D01*
X146050000Y-89130000D02*
X146050000Y-88360000D01*
X107688748Y-93270000D02*
X108211252Y-93270000D01*
X107688748Y-94690000D02*
X108211252Y-94690000D01*
X105970000Y-67571252D02*
X105970000Y-67048748D01*
X107390000Y-67571252D02*
X107390000Y-67048748D01*
X118840000Y-91420000D02*
G75*
G03X118840000Y-91420000I-3270000J0D01*
G01*
X118800000Y-91420000D02*
X112340000Y-91420000D01*
X118800000Y-91460000D02*
X112340000Y-91460000D01*
X118800000Y-91500000D02*
X112340000Y-91500000D01*
X118798000Y-91540000D02*
X112342000Y-91540000D01*
X118797000Y-91580000D02*
X112343000Y-91580000D01*
X118794000Y-91620000D02*
X112346000Y-91620000D01*
X118792000Y-91660000D02*
X116610000Y-91660000D01*
X114530000Y-91660000D02*
X112348000Y-91660000D01*
X118788000Y-91700000D02*
X116610000Y-91700000D01*
X114530000Y-91700000D02*
X112352000Y-91700000D01*
X118785000Y-91740000D02*
X116610000Y-91740000D01*
X114530000Y-91740000D02*
X112355000Y-91740000D01*
X118781000Y-91780000D02*
X116610000Y-91780000D01*
X114530000Y-91780000D02*
X112359000Y-91780000D01*
X118776000Y-91820000D02*
X116610000Y-91820000D01*
X114530000Y-91820000D02*
X112364000Y-91820000D01*
X118771000Y-91860000D02*
X116610000Y-91860000D01*
X114530000Y-91860000D02*
X112369000Y-91860000D01*
X118765000Y-91900000D02*
X116610000Y-91900000D01*
X114530000Y-91900000D02*
X112375000Y-91900000D01*
X118759000Y-91940000D02*
X116610000Y-91940000D01*
X114530000Y-91940000D02*
X112381000Y-91940000D01*
X118752000Y-91980000D02*
X116610000Y-91980000D01*
X114530000Y-91980000D02*
X112388000Y-91980000D01*
X118745000Y-92020000D02*
X116610000Y-92020000D01*
X114530000Y-92020000D02*
X112395000Y-92020000D01*
X118737000Y-92060000D02*
X116610000Y-92060000D01*
X114530000Y-92060000D02*
X112403000Y-92060000D01*
X118729000Y-92100000D02*
X116610000Y-92100000D01*
X114530000Y-92100000D02*
X112411000Y-92100000D01*
X118720000Y-92141000D02*
X116610000Y-92141000D01*
X114530000Y-92141000D02*
X112420000Y-92141000D01*
X118711000Y-92181000D02*
X116610000Y-92181000D01*
X114530000Y-92181000D02*
X112429000Y-92181000D01*
X118701000Y-92221000D02*
X116610000Y-92221000D01*
X114530000Y-92221000D02*
X112439000Y-92221000D01*
X118691000Y-92261000D02*
X116610000Y-92261000D01*
X114530000Y-92261000D02*
X112449000Y-92261000D01*
X118680000Y-92301000D02*
X116610000Y-92301000D01*
X114530000Y-92301000D02*
X112460000Y-92301000D01*
X118668000Y-92341000D02*
X116610000Y-92341000D01*
X114530000Y-92341000D02*
X112472000Y-92341000D01*
X118656000Y-92381000D02*
X116610000Y-92381000D01*
X114530000Y-92381000D02*
X112484000Y-92381000D01*
X118644000Y-92421000D02*
X116610000Y-92421000D01*
X114530000Y-92421000D02*
X112496000Y-92421000D01*
X118631000Y-92461000D02*
X116610000Y-92461000D01*
X114530000Y-92461000D02*
X112509000Y-92461000D01*
X118617000Y-92501000D02*
X116610000Y-92501000D01*
X114530000Y-92501000D02*
X112523000Y-92501000D01*
X118603000Y-92541000D02*
X116610000Y-92541000D01*
X114530000Y-92541000D02*
X112537000Y-92541000D01*
X118588000Y-92581000D02*
X116610000Y-92581000D01*
X114530000Y-92581000D02*
X112552000Y-92581000D01*
X118572000Y-92621000D02*
X116610000Y-92621000D01*
X114530000Y-92621000D02*
X112568000Y-92621000D01*
X118556000Y-92661000D02*
X116610000Y-92661000D01*
X114530000Y-92661000D02*
X112584000Y-92661000D01*
X118540000Y-92701000D02*
X116610000Y-92701000D01*
X114530000Y-92701000D02*
X112600000Y-92701000D01*
X118522000Y-92741000D02*
X116610000Y-92741000D01*
X114530000Y-92741000D02*
X112618000Y-92741000D01*
X118504000Y-92781000D02*
X116610000Y-92781000D01*
X114530000Y-92781000D02*
X112636000Y-92781000D01*
X118486000Y-92821000D02*
X116610000Y-92821000D01*
X114530000Y-92821000D02*
X112654000Y-92821000D01*
X118466000Y-92861000D02*
X116610000Y-92861000D01*
X114530000Y-92861000D02*
X112674000Y-92861000D01*
X118446000Y-92901000D02*
X116610000Y-92901000D01*
X114530000Y-92901000D02*
X112694000Y-92901000D01*
X118426000Y-92941000D02*
X116610000Y-92941000D01*
X114530000Y-92941000D02*
X112714000Y-92941000D01*
X118404000Y-92981000D02*
X116610000Y-92981000D01*
X114530000Y-92981000D02*
X112736000Y-92981000D01*
X118382000Y-93021000D02*
X116610000Y-93021000D01*
X114530000Y-93021000D02*
X112758000Y-93021000D01*
X118360000Y-93061000D02*
X116610000Y-93061000D01*
X114530000Y-93061000D02*
X112780000Y-93061000D01*
X118336000Y-93101000D02*
X116610000Y-93101000D01*
X114530000Y-93101000D02*
X112804000Y-93101000D01*
X118312000Y-93141000D02*
X116610000Y-93141000D01*
X114530000Y-93141000D02*
X112828000Y-93141000D01*
X118286000Y-93181000D02*
X116610000Y-93181000D01*
X114530000Y-93181000D02*
X112854000Y-93181000D01*
X118260000Y-93221000D02*
X116610000Y-93221000D01*
X114530000Y-93221000D02*
X112880000Y-93221000D01*
X118234000Y-93261000D02*
X116610000Y-93261000D01*
X114530000Y-93261000D02*
X112906000Y-93261000D01*
X118206000Y-93301000D02*
X116610000Y-93301000D01*
X114530000Y-93301000D02*
X112934000Y-93301000D01*
X118177000Y-93341000D02*
X116610000Y-93341000D01*
X114530000Y-93341000D02*
X112963000Y-93341000D01*
X118148000Y-93381000D02*
X116610000Y-93381000D01*
X114530000Y-93381000D02*
X112992000Y-93381000D01*
X118118000Y-93421000D02*
X116610000Y-93421000D01*
X114530000Y-93421000D02*
X113022000Y-93421000D01*
X118086000Y-93461000D02*
X116610000Y-93461000D01*
X114530000Y-93461000D02*
X113054000Y-93461000D01*
X118054000Y-93501000D02*
X116610000Y-93501000D01*
X114530000Y-93501000D02*
X113086000Y-93501000D01*
X118020000Y-93541000D02*
X116610000Y-93541000D01*
X114530000Y-93541000D02*
X113120000Y-93541000D01*
X117986000Y-93581000D02*
X116610000Y-93581000D01*
X114530000Y-93581000D02*
X113154000Y-93581000D01*
X117950000Y-93621000D02*
X116610000Y-93621000D01*
X114530000Y-93621000D02*
X113190000Y-93621000D01*
X117913000Y-93661000D02*
X116610000Y-93661000D01*
X114530000Y-93661000D02*
X113227000Y-93661000D01*
X117875000Y-93701000D02*
X116610000Y-93701000D01*
X114530000Y-93701000D02*
X113265000Y-93701000D01*
X117835000Y-93741000D02*
X113305000Y-93741000D01*
X117794000Y-93781000D02*
X113346000Y-93781000D01*
X117752000Y-93821000D02*
X113388000Y-93821000D01*
X117707000Y-93861000D02*
X113433000Y-93861000D01*
X117662000Y-93901000D02*
X113478000Y-93901000D01*
X117614000Y-93941000D02*
X113526000Y-93941000D01*
X117565000Y-93981000D02*
X113575000Y-93981000D01*
X117514000Y-94021000D02*
X113626000Y-94021000D01*
X117460000Y-94061000D02*
X113680000Y-94061000D01*
X117404000Y-94101000D02*
X113736000Y-94101000D01*
X117346000Y-94141000D02*
X113794000Y-94141000D01*
X117284000Y-94181000D02*
X113856000Y-94181000D01*
X117220000Y-94221000D02*
X113920000Y-94221000D01*
X117151000Y-94261000D02*
X113989000Y-94261000D01*
X117079000Y-94301000D02*
X114061000Y-94301000D01*
X117002000Y-94341000D02*
X114138000Y-94341000D01*
X116920000Y-94381000D02*
X114220000Y-94381000D01*
X116832000Y-94421000D02*
X114308000Y-94421000D01*
X116735000Y-94461000D02*
X114405000Y-94461000D01*
X116629000Y-94501000D02*
X114511000Y-94501000D01*
X116510000Y-94541000D02*
X114630000Y-94541000D01*
X116372000Y-94581000D02*
X114768000Y-94581000D01*
X116203000Y-94621000D02*
X114937000Y-94621000D01*
X115972000Y-94661000D02*
X115168000Y-94661000D01*
X117409000Y-87919759D02*
X117409000Y-88549759D01*
X117724000Y-88234759D02*
X117094000Y-88234759D01*
X101040000Y-77208748D02*
X101040000Y-77731252D01*
X99620000Y-77208748D02*
X99620000Y-77731252D01*
X113740000Y-77208748D02*
X113740000Y-77731252D01*
X112320000Y-77208748D02*
X112320000Y-77731252D01*
X116280000Y-77208748D02*
X116280000Y-77731252D01*
X114860000Y-77208748D02*
X114860000Y-77731252D01*
D10*
X102774761Y-97321619D02*
X102679523Y-97274000D01*
X102584285Y-97178761D01*
X102441428Y-97035904D01*
X102346190Y-96988285D01*
X102250952Y-96988285D01*
X102298571Y-97226380D02*
X102203333Y-97178761D01*
X102108095Y-97083523D01*
X102060476Y-96893047D01*
X102060476Y-96559714D01*
X102108095Y-96369238D01*
X102203333Y-96274000D01*
X102298571Y-96226380D01*
X102489047Y-96226380D01*
X102584285Y-96274000D01*
X102679523Y-96369238D01*
X102727142Y-96559714D01*
X102727142Y-96893047D01*
X102679523Y-97083523D01*
X102584285Y-97178761D01*
X102489047Y-97226380D01*
X102298571Y-97226380D01*
X103679523Y-97226380D02*
X103108095Y-97226380D01*
X103393809Y-97226380D02*
X103393809Y-96226380D01*
X103298571Y-96369238D01*
X103203333Y-96464476D01*
X103108095Y-96512095D01*
X99568095Y-88606380D02*
X99568095Y-89415904D01*
X99615714Y-89511142D01*
X99663333Y-89558761D01*
X99758571Y-89606380D01*
X99949047Y-89606380D01*
X100044285Y-89558761D01*
X100091904Y-89511142D01*
X100139523Y-89415904D01*
X100139523Y-88606380D01*
X100520476Y-88606380D02*
X101139523Y-88606380D01*
X100806190Y-88987333D01*
X100949047Y-88987333D01*
X101044285Y-89034952D01*
X101091904Y-89082571D01*
X101139523Y-89177809D01*
X101139523Y-89415904D01*
X101091904Y-89511142D01*
X101044285Y-89558761D01*
X100949047Y-89606380D01*
X100663333Y-89606380D01*
X100568095Y-89558761D01*
X100520476Y-89511142D01*
X139366666Y-96988380D02*
X139366666Y-97702666D01*
X139319047Y-97845523D01*
X139223809Y-97940761D01*
X139080952Y-97988380D01*
X138985714Y-97988380D01*
X140366666Y-97988380D02*
X139795238Y-97988380D01*
X140080952Y-97988380D02*
X140080952Y-96988380D01*
X139985714Y-97131238D01*
X139890476Y-97226476D01*
X139795238Y-97274095D01*
X99568095Y-65238380D02*
X99568095Y-66047904D01*
X99615714Y-66143142D01*
X99663333Y-66190761D01*
X99758571Y-66238380D01*
X99949047Y-66238380D01*
X100044285Y-66190761D01*
X100091904Y-66143142D01*
X100139523Y-66047904D01*
X100139523Y-65238380D01*
X100568095Y-65333619D02*
X100615714Y-65286000D01*
X100710952Y-65238380D01*
X100949047Y-65238380D01*
X101044285Y-65286000D01*
X101091904Y-65333619D01*
X101139523Y-65428857D01*
X101139523Y-65524095D01*
X101091904Y-65666952D01*
X100520476Y-66238380D01*
X101139523Y-66238380D01*
X98321904Y-97226380D02*
X98321904Y-96226380D01*
X98560000Y-96226380D01*
X98702857Y-96274000D01*
X98798095Y-96369238D01*
X98845714Y-96464476D01*
X98893333Y-96654952D01*
X98893333Y-96797809D01*
X98845714Y-96988285D01*
X98798095Y-97083523D01*
X98702857Y-97178761D01*
X98560000Y-97226380D01*
X98321904Y-97226380D01*
X99845714Y-97226380D02*
X99274285Y-97226380D01*
X99560000Y-97226380D02*
X99560000Y-96226380D01*
X99464761Y-96369238D01*
X99369523Y-96464476D01*
X99274285Y-96512095D01*
X114831904Y-81732380D02*
X114831904Y-80732380D01*
X115070000Y-80732380D01*
X115212857Y-80780000D01*
X115308095Y-80875238D01*
X115355714Y-80970476D01*
X115403333Y-81160952D01*
X115403333Y-81303809D01*
X115355714Y-81494285D01*
X115308095Y-81589523D01*
X115212857Y-81684761D01*
X115070000Y-81732380D01*
X114831904Y-81732380D01*
X115784285Y-80827619D02*
X115831904Y-80780000D01*
X115927142Y-80732380D01*
X116165238Y-80732380D01*
X116260476Y-80780000D01*
X116308095Y-80827619D01*
X116355714Y-80922857D01*
X116355714Y-81018095D01*
X116308095Y-81160952D01*
X115736666Y-81732380D01*
X116355714Y-81732380D01*
X114808095Y-66127380D02*
X114808095Y-66936904D01*
X114855714Y-67032142D01*
X114903333Y-67079761D01*
X114998571Y-67127380D01*
X115189047Y-67127380D01*
X115284285Y-67079761D01*
X115331904Y-67032142D01*
X115379523Y-66936904D01*
X115379523Y-66127380D01*
X116379523Y-67127380D02*
X115808095Y-67127380D01*
X116093809Y-67127380D02*
X116093809Y-66127380D01*
X115998571Y-66270238D01*
X115903333Y-66365476D01*
X115808095Y-66413095D01*
X77382761Y-89352380D02*
X77049428Y-88876190D01*
X76811333Y-89352380D02*
X76811333Y-88352380D01*
X77192285Y-88352380D01*
X77287523Y-88400000D01*
X77335142Y-88447619D01*
X77382761Y-88542857D01*
X77382761Y-88685714D01*
X77335142Y-88780952D01*
X77287523Y-88828571D01*
X77192285Y-88876190D01*
X76811333Y-88876190D01*
X77668476Y-88352380D02*
X78001809Y-89352380D01*
X78335142Y-88352380D01*
X79097047Y-88685714D02*
X79097047Y-89352380D01*
X78858952Y-88304761D02*
X78620857Y-89019047D01*
X79239904Y-89019047D01*
X77382761Y-81892380D02*
X77049428Y-81416190D01*
X76811333Y-81892380D02*
X76811333Y-80892380D01*
X77192285Y-80892380D01*
X77287523Y-80940000D01*
X77335142Y-80987619D01*
X77382761Y-81082857D01*
X77382761Y-81225714D01*
X77335142Y-81320952D01*
X77287523Y-81368571D01*
X77192285Y-81416190D01*
X76811333Y-81416190D01*
X77668476Y-80892380D02*
X78001809Y-81892380D01*
X78335142Y-80892380D01*
X78573238Y-80892380D02*
X79192285Y-80892380D01*
X78858952Y-81273333D01*
X79001809Y-81273333D01*
X79097047Y-81320952D01*
X79144666Y-81368571D01*
X79192285Y-81463809D01*
X79192285Y-81701904D01*
X79144666Y-81797142D01*
X79097047Y-81844761D01*
X79001809Y-81892380D01*
X78716095Y-81892380D01*
X78620857Y-81844761D01*
X78573238Y-81797142D01*
X77382761Y-74112380D02*
X77049428Y-73636190D01*
X76811333Y-74112380D02*
X76811333Y-73112380D01*
X77192285Y-73112380D01*
X77287523Y-73160000D01*
X77335142Y-73207619D01*
X77382761Y-73302857D01*
X77382761Y-73445714D01*
X77335142Y-73540952D01*
X77287523Y-73588571D01*
X77192285Y-73636190D01*
X76811333Y-73636190D01*
X77668476Y-73112380D02*
X78001809Y-74112380D01*
X78335142Y-73112380D01*
X78620857Y-73207619D02*
X78668476Y-73160000D01*
X78763714Y-73112380D01*
X79001809Y-73112380D01*
X79097047Y-73160000D01*
X79144666Y-73207619D01*
X79192285Y-73302857D01*
X79192285Y-73398095D01*
X79144666Y-73540952D01*
X78573238Y-74112380D01*
X79192285Y-74112380D01*
X77382761Y-66492380D02*
X77049428Y-66016190D01*
X76811333Y-66492380D02*
X76811333Y-65492380D01*
X77192285Y-65492380D01*
X77287523Y-65540000D01*
X77335142Y-65587619D01*
X77382761Y-65682857D01*
X77382761Y-65825714D01*
X77335142Y-65920952D01*
X77287523Y-65968571D01*
X77192285Y-66016190D01*
X76811333Y-66016190D01*
X77668476Y-65492380D02*
X78001809Y-66492380D01*
X78335142Y-65492380D01*
X79192285Y-66492380D02*
X78620857Y-66492380D01*
X78906571Y-66492380D02*
X78906571Y-65492380D01*
X78811333Y-65635238D01*
X78716095Y-65730476D01*
X78620857Y-65778095D01*
X110609142Y-90114380D02*
X110275809Y-89638190D01*
X110037714Y-90114380D02*
X110037714Y-89114380D01*
X110418666Y-89114380D01*
X110513904Y-89162000D01*
X110561523Y-89209619D01*
X110609142Y-89304857D01*
X110609142Y-89447714D01*
X110561523Y-89542952D01*
X110513904Y-89590571D01*
X110418666Y-89638190D01*
X110037714Y-89638190D01*
X111561523Y-90114380D02*
X110990095Y-90114380D01*
X111275809Y-90114380D02*
X111275809Y-89114380D01*
X111180571Y-89257238D01*
X111085333Y-89352476D01*
X110990095Y-89400095D01*
X111894857Y-89114380D02*
X112561523Y-89114380D01*
X112132952Y-90114380D01*
X110609142Y-88844380D02*
X110275809Y-88368190D01*
X110037714Y-88844380D02*
X110037714Y-87844380D01*
X110418666Y-87844380D01*
X110513904Y-87892000D01*
X110561523Y-87939619D01*
X110609142Y-88034857D01*
X110609142Y-88177714D01*
X110561523Y-88272952D01*
X110513904Y-88320571D01*
X110418666Y-88368190D01*
X110037714Y-88368190D01*
X111561523Y-88844380D02*
X110990095Y-88844380D01*
X111275809Y-88844380D02*
X111275809Y-87844380D01*
X111180571Y-87987238D01*
X111085333Y-88082476D01*
X110990095Y-88130095D01*
X112418666Y-87844380D02*
X112228190Y-87844380D01*
X112132952Y-87892000D01*
X112085333Y-87939619D01*
X111990095Y-88082476D01*
X111942476Y-88272952D01*
X111942476Y-88653904D01*
X111990095Y-88749142D01*
X112037714Y-88796761D01*
X112132952Y-88844380D01*
X112323428Y-88844380D01*
X112418666Y-88796761D01*
X112466285Y-88749142D01*
X112513904Y-88653904D01*
X112513904Y-88415809D01*
X112466285Y-88320571D01*
X112418666Y-88272952D01*
X112323428Y-88225333D01*
X112132952Y-88225333D01*
X112037714Y-88272952D01*
X111990095Y-88320571D01*
X111942476Y-88415809D01*
X108577142Y-70048380D02*
X108243809Y-69572190D01*
X108005714Y-70048380D02*
X108005714Y-69048380D01*
X108386666Y-69048380D01*
X108481904Y-69096000D01*
X108529523Y-69143619D01*
X108577142Y-69238857D01*
X108577142Y-69381714D01*
X108529523Y-69476952D01*
X108481904Y-69524571D01*
X108386666Y-69572190D01*
X108005714Y-69572190D01*
X109529523Y-70048380D02*
X108958095Y-70048380D01*
X109243809Y-70048380D02*
X109243809Y-69048380D01*
X109148571Y-69191238D01*
X109053333Y-69286476D01*
X108958095Y-69334095D01*
X110434285Y-69048380D02*
X109958095Y-69048380D01*
X109910476Y-69524571D01*
X109958095Y-69476952D01*
X110053333Y-69429333D01*
X110291428Y-69429333D01*
X110386666Y-69476952D01*
X110434285Y-69524571D01*
X110481904Y-69619809D01*
X110481904Y-69857904D01*
X110434285Y-69953142D01*
X110386666Y-70000761D01*
X110291428Y-70048380D01*
X110053333Y-70048380D01*
X109958095Y-70000761D01*
X109910476Y-69953142D01*
X110609142Y-87574380D02*
X110275809Y-87098190D01*
X110037714Y-87574380D02*
X110037714Y-86574380D01*
X110418666Y-86574380D01*
X110513904Y-86622000D01*
X110561523Y-86669619D01*
X110609142Y-86764857D01*
X110609142Y-86907714D01*
X110561523Y-87002952D01*
X110513904Y-87050571D01*
X110418666Y-87098190D01*
X110037714Y-87098190D01*
X111561523Y-87574380D02*
X110990095Y-87574380D01*
X111275809Y-87574380D02*
X111275809Y-86574380D01*
X111180571Y-86717238D01*
X111085333Y-86812476D01*
X110990095Y-86860095D01*
X112418666Y-86907714D02*
X112418666Y-87574380D01*
X112180571Y-86526761D02*
X111942476Y-87241047D01*
X112561523Y-87241047D01*
X110609142Y-86304380D02*
X110275809Y-85828190D01*
X110037714Y-86304380D02*
X110037714Y-85304380D01*
X110418666Y-85304380D01*
X110513904Y-85352000D01*
X110561523Y-85399619D01*
X110609142Y-85494857D01*
X110609142Y-85637714D01*
X110561523Y-85732952D01*
X110513904Y-85780571D01*
X110418666Y-85828190D01*
X110037714Y-85828190D01*
X111561523Y-86304380D02*
X110990095Y-86304380D01*
X111275809Y-86304380D02*
X111275809Y-85304380D01*
X111180571Y-85447238D01*
X111085333Y-85542476D01*
X110990095Y-85590095D01*
X111894857Y-85304380D02*
X112513904Y-85304380D01*
X112180571Y-85685333D01*
X112323428Y-85685333D01*
X112418666Y-85732952D01*
X112466285Y-85780571D01*
X112513904Y-85875809D01*
X112513904Y-86113904D01*
X112466285Y-86209142D01*
X112418666Y-86256761D01*
X112323428Y-86304380D01*
X112037714Y-86304380D01*
X111942476Y-86256761D01*
X111894857Y-86209142D01*
X110609142Y-75636380D02*
X110275809Y-75160190D01*
X110037714Y-75636380D02*
X110037714Y-74636380D01*
X110418666Y-74636380D01*
X110513904Y-74684000D01*
X110561523Y-74731619D01*
X110609142Y-74826857D01*
X110609142Y-74969714D01*
X110561523Y-75064952D01*
X110513904Y-75112571D01*
X110418666Y-75160190D01*
X110037714Y-75160190D01*
X111561523Y-75636380D02*
X110990095Y-75636380D01*
X111275809Y-75636380D02*
X111275809Y-74636380D01*
X111180571Y-74779238D01*
X111085333Y-74874476D01*
X110990095Y-74922095D01*
X111942476Y-74731619D02*
X111990095Y-74684000D01*
X112085333Y-74636380D01*
X112323428Y-74636380D01*
X112418666Y-74684000D01*
X112466285Y-74731619D01*
X112513904Y-74826857D01*
X112513904Y-74922095D01*
X112466285Y-75064952D01*
X111894857Y-75636380D01*
X112513904Y-75636380D01*
X110609142Y-74366380D02*
X110275809Y-73890190D01*
X110037714Y-74366380D02*
X110037714Y-73366380D01*
X110418666Y-73366380D01*
X110513904Y-73414000D01*
X110561523Y-73461619D01*
X110609142Y-73556857D01*
X110609142Y-73699714D01*
X110561523Y-73794952D01*
X110513904Y-73842571D01*
X110418666Y-73890190D01*
X110037714Y-73890190D01*
X111561523Y-74366380D02*
X110990095Y-74366380D01*
X111275809Y-74366380D02*
X111275809Y-73366380D01*
X111180571Y-73509238D01*
X111085333Y-73604476D01*
X110990095Y-73652095D01*
X112513904Y-74366380D02*
X111942476Y-74366380D01*
X112228190Y-74366380D02*
X112228190Y-73366380D01*
X112132952Y-73509238D01*
X112037714Y-73604476D01*
X111942476Y-73652095D01*
X110609142Y-81732380D02*
X110275809Y-81256190D01*
X110037714Y-81732380D02*
X110037714Y-80732380D01*
X110418666Y-80732380D01*
X110513904Y-80780000D01*
X110561523Y-80827619D01*
X110609142Y-80922857D01*
X110609142Y-81065714D01*
X110561523Y-81160952D01*
X110513904Y-81208571D01*
X110418666Y-81256190D01*
X110037714Y-81256190D01*
X111561523Y-81732380D02*
X110990095Y-81732380D01*
X111275809Y-81732380D02*
X111275809Y-80732380D01*
X111180571Y-80875238D01*
X111085333Y-80970476D01*
X110990095Y-81018095D01*
X112180571Y-80732380D02*
X112275809Y-80732380D01*
X112371047Y-80780000D01*
X112418666Y-80827619D01*
X112466285Y-80922857D01*
X112513904Y-81113333D01*
X112513904Y-81351428D01*
X112466285Y-81541904D01*
X112418666Y-81637142D01*
X112371047Y-81684761D01*
X112275809Y-81732380D01*
X112180571Y-81732380D01*
X112085333Y-81684761D01*
X112037714Y-81637142D01*
X111990095Y-81541904D01*
X111942476Y-81351428D01*
X111942476Y-81113333D01*
X111990095Y-80922857D01*
X112037714Y-80827619D01*
X112085333Y-80780000D01*
X112180571Y-80732380D01*
X110577333Y-79192380D02*
X110244000Y-78716190D01*
X110005904Y-79192380D02*
X110005904Y-78192380D01*
X110386857Y-78192380D01*
X110482095Y-78240000D01*
X110529714Y-78287619D01*
X110577333Y-78382857D01*
X110577333Y-78525714D01*
X110529714Y-78620952D01*
X110482095Y-78668571D01*
X110386857Y-78716190D01*
X110005904Y-78716190D01*
X111053523Y-79192380D02*
X111244000Y-79192380D01*
X111339238Y-79144761D01*
X111386857Y-79097142D01*
X111482095Y-78954285D01*
X111529714Y-78763809D01*
X111529714Y-78382857D01*
X111482095Y-78287619D01*
X111434476Y-78240000D01*
X111339238Y-78192380D01*
X111148761Y-78192380D01*
X111053523Y-78240000D01*
X111005904Y-78287619D01*
X110958285Y-78382857D01*
X110958285Y-78620952D01*
X111005904Y-78716190D01*
X111053523Y-78763809D01*
X111148761Y-78811428D01*
X111339238Y-78811428D01*
X111434476Y-78763809D01*
X111482095Y-78716190D01*
X111529714Y-78620952D01*
X81621333Y-94432380D02*
X81288000Y-93956190D01*
X81049904Y-94432380D02*
X81049904Y-93432380D01*
X81430857Y-93432380D01*
X81526095Y-93480000D01*
X81573714Y-93527619D01*
X81621333Y-93622857D01*
X81621333Y-93765714D01*
X81573714Y-93860952D01*
X81526095Y-93908571D01*
X81430857Y-93956190D01*
X81049904Y-93956190D01*
X82192761Y-93860952D02*
X82097523Y-93813333D01*
X82049904Y-93765714D01*
X82002285Y-93670476D01*
X82002285Y-93622857D01*
X82049904Y-93527619D01*
X82097523Y-93480000D01*
X82192761Y-93432380D01*
X82383238Y-93432380D01*
X82478476Y-93480000D01*
X82526095Y-93527619D01*
X82573714Y-93622857D01*
X82573714Y-93670476D01*
X82526095Y-93765714D01*
X82478476Y-93813333D01*
X82383238Y-93860952D01*
X82192761Y-93860952D01*
X82097523Y-93908571D01*
X82049904Y-93956190D01*
X82002285Y-94051428D01*
X82002285Y-94241904D01*
X82049904Y-94337142D01*
X82097523Y-94384761D01*
X82192761Y-94432380D01*
X82383238Y-94432380D01*
X82478476Y-94384761D01*
X82526095Y-94337142D01*
X82573714Y-94241904D01*
X82573714Y-94051428D01*
X82526095Y-93956190D01*
X82478476Y-93908571D01*
X82383238Y-93860952D01*
X90765333Y-94432380D02*
X90432000Y-93956190D01*
X90193904Y-94432380D02*
X90193904Y-93432380D01*
X90574857Y-93432380D01*
X90670095Y-93480000D01*
X90717714Y-93527619D01*
X90765333Y-93622857D01*
X90765333Y-93765714D01*
X90717714Y-93860952D01*
X90670095Y-93908571D01*
X90574857Y-93956190D01*
X90193904Y-93956190D01*
X91098666Y-93432380D02*
X91765333Y-93432380D01*
X91336761Y-94432380D01*
X81621333Y-86812380D02*
X81288000Y-86336190D01*
X81049904Y-86812380D02*
X81049904Y-85812380D01*
X81430857Y-85812380D01*
X81526095Y-85860000D01*
X81573714Y-85907619D01*
X81621333Y-86002857D01*
X81621333Y-86145714D01*
X81573714Y-86240952D01*
X81526095Y-86288571D01*
X81430857Y-86336190D01*
X81049904Y-86336190D01*
X82478476Y-85812380D02*
X82288000Y-85812380D01*
X82192761Y-85860000D01*
X82145142Y-85907619D01*
X82049904Y-86050476D01*
X82002285Y-86240952D01*
X82002285Y-86621904D01*
X82049904Y-86717142D01*
X82097523Y-86764761D01*
X82192761Y-86812380D01*
X82383238Y-86812380D01*
X82478476Y-86764761D01*
X82526095Y-86717142D01*
X82573714Y-86621904D01*
X82573714Y-86383809D01*
X82526095Y-86288571D01*
X82478476Y-86240952D01*
X82383238Y-86193333D01*
X82192761Y-86193333D01*
X82097523Y-86240952D01*
X82049904Y-86288571D01*
X82002285Y-86383809D01*
X90765333Y-86812380D02*
X90432000Y-86336190D01*
X90193904Y-86812380D02*
X90193904Y-85812380D01*
X90574857Y-85812380D01*
X90670095Y-85860000D01*
X90717714Y-85907619D01*
X90765333Y-86002857D01*
X90765333Y-86145714D01*
X90717714Y-86240952D01*
X90670095Y-86288571D01*
X90574857Y-86336190D01*
X90193904Y-86336190D01*
X91670095Y-85812380D02*
X91193904Y-85812380D01*
X91146285Y-86288571D01*
X91193904Y-86240952D01*
X91289142Y-86193333D01*
X91527238Y-86193333D01*
X91622476Y-86240952D01*
X91670095Y-86288571D01*
X91717714Y-86383809D01*
X91717714Y-86621904D01*
X91670095Y-86717142D01*
X91622476Y-86764761D01*
X91527238Y-86812380D01*
X91289142Y-86812380D01*
X91193904Y-86764761D01*
X91146285Y-86717142D01*
X81621333Y-79192380D02*
X81288000Y-78716190D01*
X81049904Y-79192380D02*
X81049904Y-78192380D01*
X81430857Y-78192380D01*
X81526095Y-78240000D01*
X81573714Y-78287619D01*
X81621333Y-78382857D01*
X81621333Y-78525714D01*
X81573714Y-78620952D01*
X81526095Y-78668571D01*
X81430857Y-78716190D01*
X81049904Y-78716190D01*
X82478476Y-78525714D02*
X82478476Y-79192380D01*
X82240380Y-78144761D02*
X82002285Y-78859047D01*
X82621333Y-78859047D01*
X90765333Y-79192380D02*
X90432000Y-78716190D01*
X90193904Y-79192380D02*
X90193904Y-78192380D01*
X90574857Y-78192380D01*
X90670095Y-78240000D01*
X90717714Y-78287619D01*
X90765333Y-78382857D01*
X90765333Y-78525714D01*
X90717714Y-78620952D01*
X90670095Y-78668571D01*
X90574857Y-78716190D01*
X90193904Y-78716190D01*
X91098666Y-78192380D02*
X91717714Y-78192380D01*
X91384380Y-78573333D01*
X91527238Y-78573333D01*
X91622476Y-78620952D01*
X91670095Y-78668571D01*
X91717714Y-78763809D01*
X91717714Y-79001904D01*
X91670095Y-79097142D01*
X91622476Y-79144761D01*
X91527238Y-79192380D01*
X91241523Y-79192380D01*
X91146285Y-79144761D01*
X91098666Y-79097142D01*
X81621333Y-71572380D02*
X81288000Y-71096190D01*
X81049904Y-71572380D02*
X81049904Y-70572380D01*
X81430857Y-70572380D01*
X81526095Y-70620000D01*
X81573714Y-70667619D01*
X81621333Y-70762857D01*
X81621333Y-70905714D01*
X81573714Y-71000952D01*
X81526095Y-71048571D01*
X81430857Y-71096190D01*
X81049904Y-71096190D01*
X82002285Y-70667619D02*
X82049904Y-70620000D01*
X82145142Y-70572380D01*
X82383238Y-70572380D01*
X82478476Y-70620000D01*
X82526095Y-70667619D01*
X82573714Y-70762857D01*
X82573714Y-70858095D01*
X82526095Y-71000952D01*
X81954666Y-71572380D01*
X82573714Y-71572380D01*
X90765333Y-71572380D02*
X90432000Y-71096190D01*
X90193904Y-71572380D02*
X90193904Y-70572380D01*
X90574857Y-70572380D01*
X90670095Y-70620000D01*
X90717714Y-70667619D01*
X90765333Y-70762857D01*
X90765333Y-70905714D01*
X90717714Y-71000952D01*
X90670095Y-71048571D01*
X90574857Y-71096190D01*
X90193904Y-71096190D01*
X91717714Y-71572380D02*
X91146285Y-71572380D01*
X91432000Y-71572380D02*
X91432000Y-70572380D01*
X91336761Y-70715238D01*
X91241523Y-70810476D01*
X91146285Y-70858095D01*
X126261904Y-65984380D02*
X126261904Y-64984380D01*
X126833333Y-65984380D02*
X126404761Y-65412952D01*
X126833333Y-64984380D02*
X126261904Y-65555809D01*
X127785714Y-65984380D02*
X127214285Y-65984380D01*
X127500000Y-65984380D02*
X127500000Y-64984380D01*
X127404761Y-65127238D01*
X127309523Y-65222476D01*
X127214285Y-65270095D01*
X140636666Y-64984380D02*
X140636666Y-65698666D01*
X140589047Y-65841523D01*
X140493809Y-65936761D01*
X140350952Y-65984380D01*
X140255714Y-65984380D01*
X141065238Y-65079619D02*
X141112857Y-65032000D01*
X141208095Y-64984380D01*
X141446190Y-64984380D01*
X141541428Y-65032000D01*
X141589047Y-65079619D01*
X141636666Y-65174857D01*
X141636666Y-65270095D01*
X141589047Y-65412952D01*
X141017619Y-65984380D01*
X141636666Y-65984380D01*
X145716666Y-78160571D02*
X145383333Y-78160571D01*
X145383333Y-78684380D02*
X145383333Y-77684380D01*
X145859523Y-77684380D01*
X146764285Y-78684380D02*
X146192857Y-78684380D01*
X146478571Y-78684380D02*
X146478571Y-77684380D01*
X146383333Y-77827238D01*
X146288095Y-77922476D01*
X146192857Y-77970095D01*
X110831333Y-94337142D02*
X110783714Y-94384761D01*
X110640857Y-94432380D01*
X110545619Y-94432380D01*
X110402761Y-94384761D01*
X110307523Y-94289523D01*
X110259904Y-94194285D01*
X110212285Y-94003809D01*
X110212285Y-93860952D01*
X110259904Y-93670476D01*
X110307523Y-93575238D01*
X110402761Y-93480000D01*
X110545619Y-93432380D01*
X110640857Y-93432380D01*
X110783714Y-93480000D01*
X110831333Y-93527619D01*
X111402761Y-93860952D02*
X111307523Y-93813333D01*
X111259904Y-93765714D01*
X111212285Y-93670476D01*
X111212285Y-93622857D01*
X111259904Y-93527619D01*
X111307523Y-93480000D01*
X111402761Y-93432380D01*
X111593238Y-93432380D01*
X111688476Y-93480000D01*
X111736095Y-93527619D01*
X111783714Y-93622857D01*
X111783714Y-93670476D01*
X111736095Y-93765714D01*
X111688476Y-93813333D01*
X111593238Y-93860952D01*
X111402761Y-93860952D01*
X111307523Y-93908571D01*
X111259904Y-93956190D01*
X111212285Y-94051428D01*
X111212285Y-94241904D01*
X111259904Y-94337142D01*
X111307523Y-94384761D01*
X111402761Y-94432380D01*
X111593238Y-94432380D01*
X111688476Y-94384761D01*
X111736095Y-94337142D01*
X111783714Y-94241904D01*
X111783714Y-94051428D01*
X111736095Y-93956190D01*
X111688476Y-93908571D01*
X111593238Y-93860952D01*
X108545333Y-67667142D02*
X108497714Y-67714761D01*
X108354857Y-67762380D01*
X108259619Y-67762380D01*
X108116761Y-67714761D01*
X108021523Y-67619523D01*
X107973904Y-67524285D01*
X107926285Y-67333809D01*
X107926285Y-67190952D01*
X107973904Y-67000476D01*
X108021523Y-66905238D01*
X108116761Y-66810000D01*
X108259619Y-66762380D01*
X108354857Y-66762380D01*
X108497714Y-66810000D01*
X108545333Y-66857619D01*
X108878666Y-66762380D02*
X109545333Y-66762380D01*
X109116761Y-67762380D01*
X115403333Y-87479142D02*
X115355714Y-87526761D01*
X115212857Y-87574380D01*
X115117619Y-87574380D01*
X114974761Y-87526761D01*
X114879523Y-87431523D01*
X114831904Y-87336285D01*
X114784285Y-87145809D01*
X114784285Y-87002952D01*
X114831904Y-86812476D01*
X114879523Y-86717238D01*
X114974761Y-86622000D01*
X115117619Y-86574380D01*
X115212857Y-86574380D01*
X115355714Y-86622000D01*
X115403333Y-86669619D01*
X116260476Y-86574380D02*
X116070000Y-86574380D01*
X115974761Y-86622000D01*
X115927142Y-86669619D01*
X115831904Y-86812476D01*
X115784285Y-87002952D01*
X115784285Y-87383904D01*
X115831904Y-87479142D01*
X115879523Y-87526761D01*
X115974761Y-87574380D01*
X116165238Y-87574380D01*
X116260476Y-87526761D01*
X116308095Y-87479142D01*
X116355714Y-87383904D01*
X116355714Y-87145809D01*
X116308095Y-87050571D01*
X116260476Y-87002952D01*
X116165238Y-86955333D01*
X115974761Y-86955333D01*
X115879523Y-87002952D01*
X115831904Y-87050571D01*
X115784285Y-87145809D01*
X102195333Y-77827142D02*
X102147714Y-77874761D01*
X102004857Y-77922380D01*
X101909619Y-77922380D01*
X101766761Y-77874761D01*
X101671523Y-77779523D01*
X101623904Y-77684285D01*
X101576285Y-77493809D01*
X101576285Y-77350952D01*
X101623904Y-77160476D01*
X101671523Y-77065238D01*
X101766761Y-76970000D01*
X101909619Y-76922380D01*
X102004857Y-76922380D01*
X102147714Y-76970000D01*
X102195333Y-77017619D01*
X103052476Y-77255714D02*
X103052476Y-77922380D01*
X102814380Y-76874761D02*
X102576285Y-77589047D01*
X103195333Y-77589047D01*
X112863333Y-80367142D02*
X112815714Y-80414761D01*
X112672857Y-80462380D01*
X112577619Y-80462380D01*
X112434761Y-80414761D01*
X112339523Y-80319523D01*
X112291904Y-80224285D01*
X112244285Y-80033809D01*
X112244285Y-79890952D01*
X112291904Y-79700476D01*
X112339523Y-79605238D01*
X112434761Y-79510000D01*
X112577619Y-79462380D01*
X112672857Y-79462380D01*
X112815714Y-79510000D01*
X112863333Y-79557619D01*
X113244285Y-79557619D02*
X113291904Y-79510000D01*
X113387142Y-79462380D01*
X113625238Y-79462380D01*
X113720476Y-79510000D01*
X113768095Y-79557619D01*
X113815714Y-79652857D01*
X113815714Y-79748095D01*
X113768095Y-79890952D01*
X113196666Y-80462380D01*
X113815714Y-80462380D01*
X115403333Y-80367142D02*
X115355714Y-80414761D01*
X115212857Y-80462380D01*
X115117619Y-80462380D01*
X114974761Y-80414761D01*
X114879523Y-80319523D01*
X114831904Y-80224285D01*
X114784285Y-80033809D01*
X114784285Y-79890952D01*
X114831904Y-79700476D01*
X114879523Y-79605238D01*
X114974761Y-79510000D01*
X115117619Y-79462380D01*
X115212857Y-79462380D01*
X115355714Y-79510000D01*
X115403333Y-79557619D01*
X116355714Y-80462380D02*
X115784285Y-80462380D01*
X116070000Y-80462380D02*
X116070000Y-79462380D01*
X115974761Y-79605238D01*
X115879523Y-79700476D01*
X115784285Y-79748095D01*
M02*
