G04 #@! TF.GenerationSoftware,KiCad,Pcbnew,5.1.4*
G04 #@! TF.CreationDate,2019-11-15T14:10:00+00:00*
G04 #@! TF.ProjectId,BSPD,42535044-2e6b-4696-9361-645f70636258,rev?*
G04 #@! TF.SameCoordinates,PX3c8eee0PY3c8eee0*
G04 #@! TF.FileFunction,Copper,L2,Bot*
G04 #@! TF.FilePolarity,Positive*
%FSLAX46Y46*%
G04 Gerber Fmt 4.6, Leading zero omitted, Abs format (unit mm)*
G04 Created by KiCad (PCBNEW 5.1.4) date 2019-11-15 14:10:00*
%MOMM*%
%LPD*%
G04 APERTURE LIST*
%ADD10C,0.050000*%
%ADD11O,1.600000X1.600000*%
%ADD12C,1.600000*%
%ADD13C,6.400000*%
%ADD14R,1.700000X1.700000*%
%ADD15O,1.700000X1.700000*%
%ADD16C,1.800000*%
%ADD17R,2.000000X3.000000*%
%ADD18O,2.000000X3.000000*%
%ADD19O,3.000000X2.000000*%
%ADD20R,2.600000X2.600000*%
%ADD21C,2.600000*%
%ADD22R,1.600000X1.600000*%
%ADD23C,0.800000*%
%ADD24C,1.000000*%
%ADD25C,0.609600*%
%ADD26C,0.203200*%
%ADD27C,0.254000*%
G04 APERTURE END LIST*
D10*
X0Y0D02*
X96520000Y0D01*
X0Y-35560000D02*
X0Y0D01*
X96520000Y-35560000D02*
X0Y-35560000D01*
X96520000Y-35560000D02*
X96520000Y0D01*
D11*
X85725000Y-26670000D03*
D12*
X85725000Y-16510000D03*
D13*
X5080000Y-30480000D03*
X5080000Y-5080000D03*
X91440000Y-30480000D03*
X91440000Y-5080000D03*
D14*
X74930000Y-20320000D03*
D15*
X77470000Y-20320000D03*
X74930000Y-22860000D03*
X77470000Y-22860000D03*
X74930000Y-25400000D03*
X77470000Y-25400000D03*
X74930000Y-27940000D03*
X77470000Y-27940000D03*
D16*
X29210000Y-30480000D03*
X21590000Y-27940000D03*
X16510000Y-30480000D03*
X29210000Y-22860000D03*
X21590000Y-20320000D03*
X16510000Y-22860000D03*
X29210000Y-15240000D03*
X21590000Y-12700000D03*
X16510000Y-15240000D03*
X29210000Y-7620000D03*
X21590000Y-5080000D03*
X16510000Y-7620000D03*
D17*
X67310000Y-29845000D03*
D18*
X59810000Y-29845000D03*
D19*
X67310000Y-9545000D03*
X59810000Y-4505000D03*
X59810000Y-14585000D03*
X67310000Y-14585000D03*
X59810000Y-9545000D03*
X67310000Y-4505000D03*
D20*
X80010000Y-7620000D03*
D21*
X74930000Y-7620000D03*
D12*
X82550000Y-16510000D03*
D11*
X82550000Y-26670000D03*
D22*
X52070000Y-26670000D03*
D12*
X52070000Y-29170000D03*
D23*
X34925000Y-13970000D03*
X32512000Y-8890000D03*
X44450000Y-16510000D03*
X55118000Y-11684000D03*
X38354000Y-26416000D03*
X52070000Y-20320000D03*
X39116000Y-12954000D03*
D24*
X52070000Y-7620000D03*
D23*
X57150000Y-17780000D03*
X41148000Y-20320000D03*
X32512000Y-20320000D03*
X37592000Y-19050000D03*
X36322000Y-22860000D03*
X36322000Y-6350000D03*
X42164000Y-11430000D03*
X42164000Y-15494000D03*
X41148000Y-6350000D03*
X42164000Y-10160000D03*
X41910000Y-16764000D03*
X37592000Y-3810000D03*
X37084000Y-11430000D03*
X32512000Y-7620000D03*
X19050000Y-9652000D03*
X32512000Y-3810000D03*
X18034000Y-3810000D03*
X32512000Y-18542000D03*
X42164000Y-20320000D03*
X39116000Y-15240000D03*
X42164000Y-20320000D03*
X42164000Y-22860000D03*
X31750000Y-23876000D03*
D25*
X82550000Y-16510000D02*
X85725000Y-16510000D01*
X52070000Y-26670000D02*
X52070000Y-20320000D01*
D26*
X52070000Y-20320000D02*
X44704000Y-12954000D01*
X39116000Y-12954000D02*
X44704000Y-12954000D01*
D25*
X52070000Y-12700000D02*
X57150000Y-17780000D01*
X52070000Y-12700000D02*
X52070000Y-7620000D01*
D26*
X41148000Y-20320000D02*
X40132000Y-20320000D01*
X40132000Y-20320000D02*
X38100000Y-18288000D01*
X38100000Y-18288000D02*
X37084000Y-18288000D01*
X35052000Y-20320000D02*
X32512000Y-20320000D01*
X37084000Y-18288000D02*
X35052000Y-20320000D01*
X36322000Y-20320000D02*
X37592000Y-19050000D01*
X36322000Y-22860000D02*
X36322000Y-20320000D01*
D25*
X82550000Y-26670000D02*
X85725000Y-26670000D01*
D26*
X39878000Y-6350000D02*
X40640000Y-7112000D01*
X40640000Y-7112000D02*
X40640000Y-9906000D01*
X42164000Y-11430000D02*
X40640000Y-9906000D01*
X49530000Y-33782000D02*
X46736000Y-30988000D01*
X42164000Y-15494000D02*
X41148000Y-16510000D01*
X41148000Y-16510000D02*
X41148000Y-17018000D01*
X41148000Y-17018000D02*
X42164000Y-18034000D01*
X42164000Y-18034000D02*
X46736000Y-22606000D01*
X46736000Y-30988000D02*
X46736000Y-22606000D01*
X74930000Y-25400000D02*
X72390000Y-27940000D01*
X72390000Y-27940000D02*
X72390000Y-32258000D01*
X72390000Y-32258000D02*
X70866000Y-33782000D01*
X70866000Y-33782000D02*
X49530000Y-33782000D01*
X36322000Y-6350000D02*
X39878000Y-6350000D01*
X41148000Y-6350000D02*
X41148000Y-9144000D01*
X41148000Y-9144000D02*
X42164000Y-10160000D01*
X49784000Y-33274000D02*
X47244000Y-30734000D01*
X47244000Y-30734000D02*
X47244000Y-22098000D01*
X41910000Y-16764000D02*
X47244000Y-22098000D01*
X71882000Y-32004000D02*
X70612000Y-33274000D01*
X71882000Y-25908000D02*
X71882000Y-32004000D01*
X74930000Y-22860000D02*
X71882000Y-25908000D01*
X70612000Y-33274000D02*
X49784000Y-33274000D01*
X36322000Y-5080000D02*
X37592000Y-3810000D01*
X21590000Y-5080000D02*
X36322000Y-5080000D01*
X35814000Y-12700000D02*
X37084000Y-11430000D01*
X21590000Y-12700000D02*
X35814000Y-12700000D01*
X30480000Y-9652000D02*
X32512000Y-7620000D01*
X19050000Y-9652000D02*
X30480000Y-9652000D01*
X32512000Y-3810000D02*
X18034000Y-3810000D01*
X32512000Y-3556000D02*
X32512000Y-3810000D01*
X35814000Y-15240000D02*
X32512000Y-18542000D01*
X39116000Y-15240000D02*
X39116000Y-17272000D01*
X39116000Y-17272000D02*
X42164000Y-20320000D01*
X35814000Y-15240000D02*
X39116000Y-15240000D01*
X41148000Y-23876000D02*
X42164000Y-22860000D01*
X31750000Y-23876000D02*
X41148000Y-23876000D01*
D27*
G36*
X86233000Y-15442116D02*
G01*
X86069485Y-15374386D01*
X85841318Y-15329000D01*
X85608682Y-15329000D01*
X85380515Y-15374386D01*
X85165587Y-15463412D01*
X84972157Y-15592658D01*
X84807658Y-15757157D01*
X84762861Y-15824200D01*
X83512139Y-15824200D01*
X83467342Y-15757157D01*
X83302843Y-15592658D01*
X83109413Y-15463412D01*
X82894485Y-15374386D01*
X82666318Y-15329000D01*
X82433682Y-15329000D01*
X82205515Y-15374386D01*
X81990587Y-15463412D01*
X81797157Y-15592658D01*
X81632658Y-15757157D01*
X81503412Y-15950587D01*
X81414386Y-16165515D01*
X81369000Y-16393682D01*
X81369000Y-16626318D01*
X81414386Y-16854485D01*
X81503412Y-17069413D01*
X81632658Y-17262843D01*
X81797157Y-17427342D01*
X81990587Y-17556588D01*
X82205515Y-17645614D01*
X82433682Y-17691000D01*
X82666318Y-17691000D01*
X82894485Y-17645614D01*
X83109413Y-17556588D01*
X83302843Y-17427342D01*
X83467342Y-17262843D01*
X83512139Y-17195800D01*
X84762861Y-17195800D01*
X84807658Y-17262843D01*
X84972157Y-17427342D01*
X85165587Y-17556588D01*
X85380515Y-17645614D01*
X85608682Y-17691000D01*
X85841318Y-17691000D01*
X86069485Y-17645614D01*
X86233000Y-17577884D01*
X86233000Y-25602410D01*
X86179136Y-25573619D01*
X85956516Y-25506088D01*
X85783016Y-25489000D01*
X85666984Y-25489000D01*
X85493484Y-25506088D01*
X85270864Y-25573619D01*
X85065697Y-25683283D01*
X84885866Y-25830866D01*
X84760028Y-25984200D01*
X83514972Y-25984200D01*
X83389134Y-25830866D01*
X83209303Y-25683283D01*
X83004136Y-25573619D01*
X82781516Y-25506088D01*
X82608016Y-25489000D01*
X82491984Y-25489000D01*
X82318484Y-25506088D01*
X82095864Y-25573619D01*
X81890697Y-25683283D01*
X81710866Y-25830866D01*
X81563283Y-26010697D01*
X81453619Y-26215864D01*
X81386088Y-26438484D01*
X81363286Y-26670000D01*
X81386088Y-26901516D01*
X81453619Y-27124136D01*
X81563283Y-27329303D01*
X81710866Y-27509134D01*
X81890697Y-27656717D01*
X82095864Y-27766381D01*
X82318484Y-27833912D01*
X82491984Y-27851000D01*
X82608016Y-27851000D01*
X82781516Y-27833912D01*
X83004136Y-27766381D01*
X83209303Y-27656717D01*
X83389134Y-27509134D01*
X83514972Y-27355800D01*
X84760028Y-27355800D01*
X84885866Y-27509134D01*
X85065697Y-27656717D01*
X85270864Y-27766381D01*
X85493484Y-27833912D01*
X85666984Y-27851000D01*
X85783016Y-27851000D01*
X85956516Y-27833912D01*
X86179136Y-27766381D01*
X86233000Y-27737590D01*
X86233000Y-35154000D01*
X12827000Y-35154000D01*
X12827000Y-31544080D01*
X15625525Y-31544080D01*
X15709208Y-31798261D01*
X15981775Y-31929158D01*
X16274642Y-32004365D01*
X16576553Y-32020991D01*
X16875907Y-31978397D01*
X17161199Y-31878222D01*
X17310792Y-31798261D01*
X17394475Y-31544080D01*
X16510000Y-30659605D01*
X15625525Y-31544080D01*
X12827000Y-31544080D01*
X12827000Y-30546553D01*
X14969009Y-30546553D01*
X15011603Y-30845907D01*
X15111778Y-31131199D01*
X15191739Y-31280792D01*
X15445920Y-31364475D01*
X16330395Y-30480000D01*
X16689605Y-30480000D01*
X17574080Y-31364475D01*
X17828261Y-31280792D01*
X17959158Y-31008225D01*
X18034365Y-30715358D01*
X18050991Y-30413447D01*
X18042509Y-30353833D01*
X27929000Y-30353833D01*
X27929000Y-30606167D01*
X27978228Y-30853654D01*
X28074793Y-31086781D01*
X28214982Y-31296590D01*
X28393410Y-31475018D01*
X28603219Y-31615207D01*
X28836346Y-31711772D01*
X29083833Y-31761000D01*
X29336167Y-31761000D01*
X29583654Y-31711772D01*
X29816781Y-31615207D01*
X30026590Y-31475018D01*
X30205018Y-31296590D01*
X30345207Y-31086781D01*
X30441772Y-30853654D01*
X30491000Y-30606167D01*
X30491000Y-30353833D01*
X30441772Y-30106346D01*
X30345207Y-29873219D01*
X30205018Y-29663410D01*
X30026590Y-29484982D01*
X29816781Y-29344793D01*
X29583654Y-29248228D01*
X29336167Y-29199000D01*
X29083833Y-29199000D01*
X28836346Y-29248228D01*
X28603219Y-29344793D01*
X28393410Y-29484982D01*
X28214982Y-29663410D01*
X28074793Y-29873219D01*
X27978228Y-30106346D01*
X27929000Y-30353833D01*
X18042509Y-30353833D01*
X18008397Y-30114093D01*
X17908222Y-29828801D01*
X17828261Y-29679208D01*
X17574080Y-29595525D01*
X16689605Y-30480000D01*
X16330395Y-30480000D01*
X15445920Y-29595525D01*
X15191739Y-29679208D01*
X15060842Y-29951775D01*
X14985635Y-30244642D01*
X14969009Y-30546553D01*
X12827000Y-30546553D01*
X12827000Y-29415920D01*
X15625525Y-29415920D01*
X16510000Y-30300395D01*
X17394475Y-29415920D01*
X17310792Y-29161739D01*
X17038225Y-29030842D01*
X16745358Y-28955635D01*
X16443447Y-28939009D01*
X16144093Y-28981603D01*
X15858801Y-29081778D01*
X15709208Y-29161739D01*
X15625525Y-29415920D01*
X12827000Y-29415920D01*
X12827000Y-27813833D01*
X20309000Y-27813833D01*
X20309000Y-28066167D01*
X20358228Y-28313654D01*
X20454793Y-28546781D01*
X20594982Y-28756590D01*
X20773410Y-28935018D01*
X20983219Y-29075207D01*
X21216346Y-29171772D01*
X21463833Y-29221000D01*
X21716167Y-29221000D01*
X21963654Y-29171772D01*
X22196781Y-29075207D01*
X22406590Y-28935018D01*
X22585018Y-28756590D01*
X22725207Y-28546781D01*
X22821772Y-28313654D01*
X22871000Y-28066167D01*
X22871000Y-27813833D01*
X22821772Y-27566346D01*
X22725207Y-27333219D01*
X22585018Y-27123410D01*
X22406590Y-26944982D01*
X22196781Y-26804793D01*
X21963654Y-26708228D01*
X21716167Y-26659000D01*
X21463833Y-26659000D01*
X21216346Y-26708228D01*
X20983219Y-26804793D01*
X20773410Y-26944982D01*
X20594982Y-27123410D01*
X20454793Y-27333219D01*
X20358228Y-27566346D01*
X20309000Y-27813833D01*
X12827000Y-27813833D01*
X12827000Y-23924080D01*
X15625525Y-23924080D01*
X15709208Y-24178261D01*
X15981775Y-24309158D01*
X16274642Y-24384365D01*
X16576553Y-24400991D01*
X16875907Y-24358397D01*
X17161199Y-24258222D01*
X17310792Y-24178261D01*
X17394475Y-23924080D01*
X16510000Y-23039605D01*
X15625525Y-23924080D01*
X12827000Y-23924080D01*
X12827000Y-22926553D01*
X14969009Y-22926553D01*
X15011603Y-23225907D01*
X15111778Y-23511199D01*
X15191739Y-23660792D01*
X15445920Y-23744475D01*
X16330395Y-22860000D01*
X16689605Y-22860000D01*
X17574080Y-23744475D01*
X17828261Y-23660792D01*
X17959158Y-23388225D01*
X18034365Y-23095358D01*
X18050991Y-22793447D01*
X18042509Y-22733833D01*
X27929000Y-22733833D01*
X27929000Y-22986167D01*
X27978228Y-23233654D01*
X28074793Y-23466781D01*
X28214982Y-23676590D01*
X28393410Y-23855018D01*
X28603219Y-23995207D01*
X28836346Y-24091772D01*
X29083833Y-24141000D01*
X29336167Y-24141000D01*
X29583654Y-24091772D01*
X29816781Y-23995207D01*
X30026590Y-23855018D01*
X30082530Y-23799078D01*
X30969000Y-23799078D01*
X30969000Y-23952922D01*
X30999013Y-24103809D01*
X31057887Y-24245942D01*
X31143358Y-24373859D01*
X31252141Y-24482642D01*
X31380058Y-24568113D01*
X31522191Y-24626987D01*
X31673078Y-24657000D01*
X31826922Y-24657000D01*
X31977809Y-24626987D01*
X32119942Y-24568113D01*
X32247859Y-24482642D01*
X32356642Y-24373859D01*
X32366838Y-24358600D01*
X41124295Y-24358600D01*
X41148000Y-24360935D01*
X41171705Y-24358600D01*
X41171707Y-24358600D01*
X41242606Y-24351617D01*
X41333577Y-24324022D01*
X41417415Y-24279209D01*
X41490901Y-24218901D01*
X41506017Y-24200482D01*
X42069080Y-23637420D01*
X42087078Y-23641000D01*
X42240922Y-23641000D01*
X42391809Y-23610987D01*
X42533942Y-23552113D01*
X42661859Y-23466642D01*
X42770642Y-23357859D01*
X42856113Y-23229942D01*
X42914987Y-23087809D01*
X42945000Y-22936922D01*
X42945000Y-22783078D01*
X42914987Y-22632191D01*
X42856113Y-22490058D01*
X42770642Y-22362141D01*
X42661859Y-22253358D01*
X42533942Y-22167887D01*
X42391809Y-22109013D01*
X42240922Y-22079000D01*
X42087078Y-22079000D01*
X41936191Y-22109013D01*
X41794058Y-22167887D01*
X41666141Y-22253358D01*
X41557358Y-22362141D01*
X41471887Y-22490058D01*
X41413013Y-22632191D01*
X41383000Y-22783078D01*
X41383000Y-22936922D01*
X41386580Y-22954920D01*
X40948101Y-23393400D01*
X36893101Y-23393400D01*
X36928642Y-23357859D01*
X37014113Y-23229942D01*
X37072987Y-23087809D01*
X37103000Y-22936922D01*
X37103000Y-22783078D01*
X37072987Y-22632191D01*
X37014113Y-22490058D01*
X36928642Y-22362141D01*
X36819859Y-22253358D01*
X36804600Y-22243162D01*
X36804600Y-20519899D01*
X37497079Y-19827420D01*
X37515078Y-19831000D01*
X37668922Y-19831000D01*
X37819809Y-19800987D01*
X37961942Y-19742113D01*
X38089859Y-19656642D01*
X38198642Y-19547859D01*
X38284113Y-19419942D01*
X38342987Y-19277809D01*
X38353659Y-19224158D01*
X39773988Y-20644488D01*
X39789099Y-20662901D01*
X39862585Y-20723209D01*
X39946423Y-20768022D01*
X40037393Y-20795617D01*
X40132000Y-20804935D01*
X40155707Y-20802600D01*
X40531162Y-20802600D01*
X40541358Y-20817859D01*
X40650141Y-20926642D01*
X40778058Y-21012113D01*
X40920191Y-21070987D01*
X41071078Y-21101000D01*
X41224922Y-21101000D01*
X41375809Y-21070987D01*
X41517942Y-21012113D01*
X41645859Y-20926642D01*
X41656000Y-20916501D01*
X41666141Y-20926642D01*
X41794058Y-21012113D01*
X41936191Y-21070987D01*
X42087078Y-21101000D01*
X42240922Y-21101000D01*
X42391809Y-21070987D01*
X42533942Y-21012113D01*
X42661859Y-20926642D01*
X42770642Y-20817859D01*
X42856113Y-20689942D01*
X42914987Y-20547809D01*
X42945000Y-20396922D01*
X42945000Y-20243078D01*
X42914987Y-20092191D01*
X42856113Y-19950058D01*
X42770642Y-19822141D01*
X42661859Y-19713358D01*
X42533942Y-19627887D01*
X42391809Y-19569013D01*
X42240922Y-19539000D01*
X42087078Y-19539000D01*
X42069080Y-19542580D01*
X39598600Y-17072101D01*
X39598600Y-16510000D01*
X40663065Y-16510000D01*
X40665400Y-16533706D01*
X40665401Y-16994286D01*
X40663065Y-17018000D01*
X40672384Y-17112606D01*
X40699978Y-17203576D01*
X40699979Y-17203577D01*
X40744792Y-17287415D01*
X40805100Y-17360901D01*
X40823513Y-17376012D01*
X41839513Y-18392013D01*
X41839519Y-18392018D01*
X46253401Y-22805900D01*
X46253400Y-30964295D01*
X46251065Y-30988000D01*
X46253400Y-31011705D01*
X46253400Y-31011706D01*
X46260383Y-31082605D01*
X46287978Y-31173576D01*
X46332791Y-31257415D01*
X46393099Y-31330901D01*
X46411518Y-31346017D01*
X49171988Y-34106488D01*
X49187099Y-34124901D01*
X49260585Y-34185209D01*
X49344423Y-34230022D01*
X49435393Y-34257617D01*
X49530000Y-34266935D01*
X49553707Y-34264600D01*
X70842295Y-34264600D01*
X70866000Y-34266935D01*
X70889705Y-34264600D01*
X70889707Y-34264600D01*
X70960606Y-34257617D01*
X71051577Y-34230022D01*
X71135415Y-34185209D01*
X71208901Y-34124901D01*
X71224017Y-34106482D01*
X72714482Y-32616017D01*
X72732901Y-32600901D01*
X72793209Y-32527415D01*
X72838022Y-32443577D01*
X72865617Y-32352606D01*
X72872600Y-32281707D01*
X72872600Y-32281698D01*
X72874934Y-32258001D01*
X72872600Y-32234304D01*
X72872600Y-28139899D01*
X73072499Y-27940000D01*
X73693044Y-27940000D01*
X73716812Y-28181318D01*
X73787202Y-28413363D01*
X73901509Y-28627216D01*
X74055340Y-28814660D01*
X74242784Y-28968491D01*
X74456637Y-29082798D01*
X74688682Y-29153188D01*
X74869528Y-29171000D01*
X74990472Y-29171000D01*
X75171318Y-29153188D01*
X75403363Y-29082798D01*
X75617216Y-28968491D01*
X75804660Y-28814660D01*
X75958491Y-28627216D01*
X76072798Y-28413363D01*
X76143188Y-28181318D01*
X76166956Y-27940000D01*
X76143188Y-27698682D01*
X76072798Y-27466637D01*
X75958491Y-27252784D01*
X75804660Y-27065340D01*
X75617216Y-26911509D01*
X75403363Y-26797202D01*
X75171318Y-26726812D01*
X74990472Y-26709000D01*
X74869528Y-26709000D01*
X74688682Y-26726812D01*
X74456637Y-26797202D01*
X74242784Y-26911509D01*
X74055340Y-27065340D01*
X73901509Y-27252784D01*
X73787202Y-27466637D01*
X73716812Y-27698682D01*
X73693044Y-27940000D01*
X73072499Y-27940000D01*
X74466660Y-26545839D01*
X74688682Y-26613188D01*
X74869528Y-26631000D01*
X74990472Y-26631000D01*
X75171318Y-26613188D01*
X75403363Y-26542798D01*
X75617216Y-26428491D01*
X75804660Y-26274660D01*
X75958491Y-26087216D01*
X76067091Y-25884040D01*
X76073175Y-25904099D01*
X76198359Y-26166920D01*
X76372412Y-26400269D01*
X76588645Y-26595178D01*
X76838748Y-26744157D01*
X76993305Y-26798983D01*
X76782784Y-26911509D01*
X76595340Y-27065340D01*
X76441509Y-27252784D01*
X76327202Y-27466637D01*
X76256812Y-27698682D01*
X76233044Y-27940000D01*
X76256812Y-28181318D01*
X76327202Y-28413363D01*
X76441509Y-28627216D01*
X76595340Y-28814660D01*
X76782784Y-28968491D01*
X76996637Y-29082798D01*
X77228682Y-29153188D01*
X77409528Y-29171000D01*
X77530472Y-29171000D01*
X77711318Y-29153188D01*
X77943363Y-29082798D01*
X78157216Y-28968491D01*
X78344660Y-28814660D01*
X78498491Y-28627216D01*
X78612798Y-28413363D01*
X78683188Y-28181318D01*
X78706956Y-27940000D01*
X78683188Y-27698682D01*
X78612798Y-27466637D01*
X78498491Y-27252784D01*
X78344660Y-27065340D01*
X78157216Y-26911509D01*
X77946695Y-26798983D01*
X78101252Y-26744157D01*
X78351355Y-26595178D01*
X78567588Y-26400269D01*
X78741641Y-26166920D01*
X78866825Y-25904099D01*
X78911476Y-25756890D01*
X78790155Y-25527000D01*
X77597000Y-25527000D01*
X77597000Y-25547000D01*
X77343000Y-25547000D01*
X77343000Y-25527000D01*
X77323000Y-25527000D01*
X77323000Y-25273000D01*
X77343000Y-25273000D01*
X77343000Y-22987000D01*
X77597000Y-22987000D01*
X77597000Y-25273000D01*
X78790155Y-25273000D01*
X78911476Y-25043110D01*
X78866825Y-24895901D01*
X78741641Y-24633080D01*
X78567588Y-24399731D01*
X78351355Y-24204822D01*
X78225745Y-24130000D01*
X78351355Y-24055178D01*
X78567588Y-23860269D01*
X78741641Y-23626920D01*
X78866825Y-23364099D01*
X78911476Y-23216890D01*
X78790155Y-22987000D01*
X77597000Y-22987000D01*
X77343000Y-22987000D01*
X77323000Y-22987000D01*
X77323000Y-22733000D01*
X77343000Y-22733000D01*
X77343000Y-20447000D01*
X77597000Y-20447000D01*
X77597000Y-22733000D01*
X78790155Y-22733000D01*
X78911476Y-22503110D01*
X78866825Y-22355901D01*
X78741641Y-22093080D01*
X78567588Y-21859731D01*
X78351355Y-21664822D01*
X78225745Y-21590000D01*
X78351355Y-21515178D01*
X78567588Y-21320269D01*
X78741641Y-21086920D01*
X78866825Y-20824099D01*
X78911476Y-20676890D01*
X78790155Y-20447000D01*
X77597000Y-20447000D01*
X77343000Y-20447000D01*
X77323000Y-20447000D01*
X77323000Y-20193000D01*
X77343000Y-20193000D01*
X77343000Y-18999186D01*
X77597000Y-18999186D01*
X77597000Y-20193000D01*
X78790155Y-20193000D01*
X78911476Y-19963110D01*
X78866825Y-19815901D01*
X78741641Y-19553080D01*
X78567588Y-19319731D01*
X78351355Y-19124822D01*
X78101252Y-18975843D01*
X77826891Y-18878519D01*
X77597000Y-18999186D01*
X77343000Y-18999186D01*
X77113109Y-18878519D01*
X76838748Y-18975843D01*
X76588645Y-19124822D01*
X76372412Y-19319731D01*
X76198359Y-19553080D01*
X76162843Y-19627645D01*
X76162843Y-19470000D01*
X76155487Y-19395311D01*
X76133701Y-19323492D01*
X76098322Y-19257304D01*
X76050711Y-19199289D01*
X75992696Y-19151678D01*
X75926508Y-19116299D01*
X75854689Y-19094513D01*
X75780000Y-19087157D01*
X74080000Y-19087157D01*
X74005311Y-19094513D01*
X73933492Y-19116299D01*
X73867304Y-19151678D01*
X73809289Y-19199289D01*
X73761678Y-19257304D01*
X73726299Y-19323492D01*
X73704513Y-19395311D01*
X73697157Y-19470000D01*
X73697157Y-21170000D01*
X73704513Y-21244689D01*
X73726299Y-21316508D01*
X73761678Y-21382696D01*
X73809289Y-21440711D01*
X73867304Y-21488322D01*
X73933492Y-21523701D01*
X74005311Y-21545487D01*
X74080000Y-21552843D01*
X75780000Y-21552843D01*
X75854689Y-21545487D01*
X75926508Y-21523701D01*
X75992696Y-21488322D01*
X76050711Y-21440711D01*
X76098322Y-21382696D01*
X76133701Y-21316508D01*
X76155487Y-21244689D01*
X76162843Y-21170000D01*
X76162843Y-21012355D01*
X76198359Y-21086920D01*
X76372412Y-21320269D01*
X76588645Y-21515178D01*
X76714255Y-21590000D01*
X76588645Y-21664822D01*
X76372412Y-21859731D01*
X76198359Y-22093080D01*
X76073175Y-22355901D01*
X76067091Y-22375960D01*
X75958491Y-22172784D01*
X75804660Y-21985340D01*
X75617216Y-21831509D01*
X75403363Y-21717202D01*
X75171318Y-21646812D01*
X74990472Y-21629000D01*
X74869528Y-21629000D01*
X74688682Y-21646812D01*
X74456637Y-21717202D01*
X74242784Y-21831509D01*
X74055340Y-21985340D01*
X73901509Y-22172784D01*
X73787202Y-22386637D01*
X73716812Y-22618682D01*
X73693044Y-22860000D01*
X73716812Y-23101318D01*
X73784161Y-23323339D01*
X71557518Y-25549983D01*
X71539099Y-25565099D01*
X71478791Y-25638585D01*
X71433978Y-25722424D01*
X71406383Y-25813395D01*
X71400808Y-25870000D01*
X71397065Y-25908000D01*
X71399400Y-25931705D01*
X71399401Y-31804100D01*
X70412101Y-32791400D01*
X49983899Y-32791400D01*
X47726600Y-30534101D01*
X47726600Y-30162702D01*
X51256903Y-30162702D01*
X51328486Y-30406671D01*
X51583996Y-30527571D01*
X51858184Y-30596300D01*
X52140512Y-30610217D01*
X52420130Y-30568787D01*
X52686292Y-30473603D01*
X52811514Y-30406671D01*
X52883097Y-30162702D01*
X52070000Y-29349605D01*
X51256903Y-30162702D01*
X47726600Y-30162702D01*
X47726600Y-29240512D01*
X50629783Y-29240512D01*
X50671213Y-29520130D01*
X50766397Y-29786292D01*
X50833329Y-29911514D01*
X51077298Y-29983097D01*
X51890395Y-29170000D01*
X52249605Y-29170000D01*
X53062702Y-29983097D01*
X53306671Y-29911514D01*
X53427571Y-29656004D01*
X53496300Y-29381816D01*
X53501459Y-29277157D01*
X58429000Y-29277157D01*
X58429000Y-30412842D01*
X58448982Y-30615722D01*
X58527949Y-30876042D01*
X58656185Y-31115954D01*
X58828761Y-31326238D01*
X59039045Y-31498815D01*
X59278957Y-31627051D01*
X59539277Y-31706018D01*
X59810000Y-31732682D01*
X60080722Y-31706018D01*
X60341042Y-31627051D01*
X60580954Y-31498815D01*
X60791238Y-31326239D01*
X60963815Y-31115955D01*
X61092051Y-30876043D01*
X61171018Y-30615723D01*
X61191000Y-30412843D01*
X61191000Y-29277157D01*
X61171018Y-29074277D01*
X61092051Y-28813957D01*
X60963815Y-28574045D01*
X60791239Y-28363761D01*
X60768379Y-28345000D01*
X65927157Y-28345000D01*
X65927157Y-31345000D01*
X65934513Y-31419689D01*
X65956299Y-31491508D01*
X65991678Y-31557696D01*
X66039289Y-31615711D01*
X66097304Y-31663322D01*
X66163492Y-31698701D01*
X66235311Y-31720487D01*
X66310000Y-31727843D01*
X68310000Y-31727843D01*
X68384689Y-31720487D01*
X68456508Y-31698701D01*
X68522696Y-31663322D01*
X68580711Y-31615711D01*
X68628322Y-31557696D01*
X68663701Y-31491508D01*
X68685487Y-31419689D01*
X68692843Y-31345000D01*
X68692843Y-28345000D01*
X68685487Y-28270311D01*
X68663701Y-28198492D01*
X68628322Y-28132304D01*
X68580711Y-28074289D01*
X68522696Y-28026678D01*
X68456508Y-27991299D01*
X68384689Y-27969513D01*
X68310000Y-27962157D01*
X66310000Y-27962157D01*
X66235311Y-27969513D01*
X66163492Y-27991299D01*
X66097304Y-28026678D01*
X66039289Y-28074289D01*
X65991678Y-28132304D01*
X65956299Y-28198492D01*
X65934513Y-28270311D01*
X65927157Y-28345000D01*
X60768379Y-28345000D01*
X60580955Y-28191185D01*
X60341043Y-28062949D01*
X60080723Y-27983982D01*
X59810000Y-27957318D01*
X59539278Y-27983982D01*
X59278958Y-28062949D01*
X59039046Y-28191185D01*
X58828762Y-28363761D01*
X58656185Y-28574045D01*
X58527949Y-28813957D01*
X58448982Y-29074277D01*
X58429000Y-29277157D01*
X53501459Y-29277157D01*
X53510217Y-29099488D01*
X53468787Y-28819870D01*
X53373603Y-28553708D01*
X53306671Y-28428486D01*
X53062702Y-28356903D01*
X52249605Y-29170000D01*
X51890395Y-29170000D01*
X51077298Y-28356903D01*
X50833329Y-28428486D01*
X50712429Y-28683996D01*
X50643700Y-28958184D01*
X50629783Y-29240512D01*
X47726600Y-29240512D01*
X47726600Y-22121704D01*
X47728935Y-22097999D01*
X47723558Y-22043410D01*
X47719617Y-22003394D01*
X47692022Y-21912423D01*
X47647209Y-21828585D01*
X47586901Y-21755099D01*
X47568488Y-21739988D01*
X42687420Y-16858921D01*
X42691000Y-16840922D01*
X42691000Y-16687078D01*
X42660987Y-16536191D01*
X42602113Y-16394058D01*
X42516642Y-16266141D01*
X42465121Y-16214620D01*
X42533942Y-16186113D01*
X42661859Y-16100642D01*
X42770642Y-15991859D01*
X42856113Y-15863942D01*
X42914987Y-15721809D01*
X42945000Y-15570922D01*
X42945000Y-15417078D01*
X42914987Y-15266191D01*
X42856113Y-15124058D01*
X42770642Y-14996141D01*
X42661859Y-14887358D01*
X42533942Y-14801887D01*
X42391809Y-14743013D01*
X42240922Y-14713000D01*
X42087078Y-14713000D01*
X41936191Y-14743013D01*
X41794058Y-14801887D01*
X41666141Y-14887358D01*
X41557358Y-14996141D01*
X41471887Y-15124058D01*
X41413013Y-15266191D01*
X41383000Y-15417078D01*
X41383000Y-15570922D01*
X41386580Y-15588920D01*
X40823518Y-16151983D01*
X40805099Y-16167099D01*
X40744791Y-16240585D01*
X40699978Y-16324424D01*
X40672383Y-16415395D01*
X40665400Y-16486293D01*
X40663065Y-16510000D01*
X39598600Y-16510000D01*
X39598600Y-15856838D01*
X39613859Y-15846642D01*
X39722642Y-15737859D01*
X39808113Y-15609942D01*
X39866987Y-15467809D01*
X39897000Y-15316922D01*
X39897000Y-15163078D01*
X39866987Y-15012191D01*
X39808113Y-14870058D01*
X39722642Y-14742141D01*
X39613859Y-14633358D01*
X39485942Y-14547887D01*
X39343809Y-14489013D01*
X39192922Y-14459000D01*
X39039078Y-14459000D01*
X38888191Y-14489013D01*
X38746058Y-14547887D01*
X38618141Y-14633358D01*
X38509358Y-14742141D01*
X38499162Y-14757400D01*
X35837704Y-14757400D01*
X35813999Y-14755065D01*
X35790294Y-14757400D01*
X35790293Y-14757400D01*
X35719394Y-14764383D01*
X35628423Y-14791978D01*
X35544585Y-14836791D01*
X35471099Y-14897099D01*
X35455983Y-14915518D01*
X32606921Y-17764580D01*
X32588922Y-17761000D01*
X32435078Y-17761000D01*
X32284191Y-17791013D01*
X32142058Y-17849887D01*
X32014141Y-17935358D01*
X31905358Y-18044141D01*
X31819887Y-18172058D01*
X31761013Y-18314191D01*
X31731000Y-18465078D01*
X31731000Y-18618922D01*
X31761013Y-18769809D01*
X31819887Y-18911942D01*
X31905358Y-19039859D01*
X32014141Y-19148642D01*
X32142058Y-19234113D01*
X32284191Y-19292987D01*
X32435078Y-19323000D01*
X32588922Y-19323000D01*
X32739809Y-19292987D01*
X32881942Y-19234113D01*
X33009859Y-19148642D01*
X33118642Y-19039859D01*
X33204113Y-18911942D01*
X33262987Y-18769809D01*
X33293000Y-18618922D01*
X33293000Y-18465078D01*
X33289420Y-18447079D01*
X36013899Y-15722600D01*
X38499162Y-15722600D01*
X38509358Y-15737859D01*
X38618141Y-15846642D01*
X38633400Y-15856838D01*
X38633401Y-17248285D01*
X38631065Y-17272000D01*
X38640384Y-17366606D01*
X38667978Y-17457576D01*
X38712792Y-17541415D01*
X38749364Y-17585978D01*
X38773100Y-17614901D01*
X38791513Y-17630012D01*
X40786069Y-19624569D01*
X40778058Y-19627887D01*
X40650141Y-19713358D01*
X40541358Y-19822141D01*
X40531162Y-19837400D01*
X40331900Y-19837400D01*
X38458017Y-17963518D01*
X38442901Y-17945099D01*
X38369415Y-17884791D01*
X38285577Y-17839978D01*
X38194606Y-17812383D01*
X38123707Y-17805400D01*
X38123705Y-17805400D01*
X38100000Y-17803065D01*
X38076295Y-17805400D01*
X37107707Y-17805400D01*
X37084000Y-17803065D01*
X36989393Y-17812383D01*
X36898423Y-17839978D01*
X36814585Y-17884791D01*
X36741099Y-17945099D01*
X36725988Y-17963512D01*
X34852101Y-19837400D01*
X33128838Y-19837400D01*
X33118642Y-19822141D01*
X33009859Y-19713358D01*
X32881942Y-19627887D01*
X32739809Y-19569013D01*
X32588922Y-19539000D01*
X32435078Y-19539000D01*
X32284191Y-19569013D01*
X32142058Y-19627887D01*
X32014141Y-19713358D01*
X31905358Y-19822141D01*
X31819887Y-19950058D01*
X31761013Y-20092191D01*
X31731000Y-20243078D01*
X31731000Y-20396922D01*
X31761013Y-20547809D01*
X31819887Y-20689942D01*
X31905358Y-20817859D01*
X32014141Y-20926642D01*
X32142058Y-21012113D01*
X32284191Y-21070987D01*
X32435078Y-21101000D01*
X32588922Y-21101000D01*
X32739809Y-21070987D01*
X32881942Y-21012113D01*
X33009859Y-20926642D01*
X33118642Y-20817859D01*
X33128838Y-20802600D01*
X35028295Y-20802600D01*
X35052000Y-20804935D01*
X35075705Y-20802600D01*
X35075707Y-20802600D01*
X35146606Y-20795617D01*
X35237577Y-20768022D01*
X35321415Y-20723209D01*
X35394901Y-20662901D01*
X35410017Y-20644482D01*
X35853907Y-20200592D01*
X35846384Y-20225394D01*
X35837065Y-20320000D01*
X35839401Y-20343715D01*
X35839400Y-22243162D01*
X35824141Y-22253358D01*
X35715358Y-22362141D01*
X35629887Y-22490058D01*
X35571013Y-22632191D01*
X35541000Y-22783078D01*
X35541000Y-22936922D01*
X35571013Y-23087809D01*
X35629887Y-23229942D01*
X35715358Y-23357859D01*
X35750899Y-23393400D01*
X32366838Y-23393400D01*
X32356642Y-23378141D01*
X32247859Y-23269358D01*
X32119942Y-23183887D01*
X31977809Y-23125013D01*
X31826922Y-23095000D01*
X31673078Y-23095000D01*
X31522191Y-23125013D01*
X31380058Y-23183887D01*
X31252141Y-23269358D01*
X31143358Y-23378141D01*
X31057887Y-23506058D01*
X30999013Y-23648191D01*
X30969000Y-23799078D01*
X30082530Y-23799078D01*
X30205018Y-23676590D01*
X30345207Y-23466781D01*
X30441772Y-23233654D01*
X30491000Y-22986167D01*
X30491000Y-22733833D01*
X30441772Y-22486346D01*
X30345207Y-22253219D01*
X30205018Y-22043410D01*
X30026590Y-21864982D01*
X29816781Y-21724793D01*
X29583654Y-21628228D01*
X29336167Y-21579000D01*
X29083833Y-21579000D01*
X28836346Y-21628228D01*
X28603219Y-21724793D01*
X28393410Y-21864982D01*
X28214982Y-22043410D01*
X28074793Y-22253219D01*
X27978228Y-22486346D01*
X27929000Y-22733833D01*
X18042509Y-22733833D01*
X18008397Y-22494093D01*
X17908222Y-22208801D01*
X17828261Y-22059208D01*
X17574080Y-21975525D01*
X16689605Y-22860000D01*
X16330395Y-22860000D01*
X15445920Y-21975525D01*
X15191739Y-22059208D01*
X15060842Y-22331775D01*
X14985635Y-22624642D01*
X14969009Y-22926553D01*
X12827000Y-22926553D01*
X12827000Y-21795920D01*
X15625525Y-21795920D01*
X16510000Y-22680395D01*
X17394475Y-21795920D01*
X17310792Y-21541739D01*
X17038225Y-21410842D01*
X16745358Y-21335635D01*
X16443447Y-21319009D01*
X16144093Y-21361603D01*
X15858801Y-21461778D01*
X15709208Y-21541739D01*
X15625525Y-21795920D01*
X12827000Y-21795920D01*
X12827000Y-20193833D01*
X20309000Y-20193833D01*
X20309000Y-20446167D01*
X20358228Y-20693654D01*
X20454793Y-20926781D01*
X20594982Y-21136590D01*
X20773410Y-21315018D01*
X20983219Y-21455207D01*
X21216346Y-21551772D01*
X21463833Y-21601000D01*
X21716167Y-21601000D01*
X21963654Y-21551772D01*
X22196781Y-21455207D01*
X22406590Y-21315018D01*
X22585018Y-21136590D01*
X22725207Y-20926781D01*
X22821772Y-20693654D01*
X22871000Y-20446167D01*
X22871000Y-20193833D01*
X22821772Y-19946346D01*
X22725207Y-19713219D01*
X22585018Y-19503410D01*
X22406590Y-19324982D01*
X22196781Y-19184793D01*
X21963654Y-19088228D01*
X21716167Y-19039000D01*
X21463833Y-19039000D01*
X21216346Y-19088228D01*
X20983219Y-19184793D01*
X20773410Y-19324982D01*
X20594982Y-19503410D01*
X20454793Y-19713219D01*
X20358228Y-19946346D01*
X20309000Y-20193833D01*
X12827000Y-20193833D01*
X12827000Y-16304080D01*
X15625525Y-16304080D01*
X15709208Y-16558261D01*
X15981775Y-16689158D01*
X16274642Y-16764365D01*
X16576553Y-16780991D01*
X16875907Y-16738397D01*
X17161199Y-16638222D01*
X17310792Y-16558261D01*
X17394475Y-16304080D01*
X16510000Y-15419605D01*
X15625525Y-16304080D01*
X12827000Y-16304080D01*
X12827000Y-15306553D01*
X14969009Y-15306553D01*
X15011603Y-15605907D01*
X15111778Y-15891199D01*
X15191739Y-16040792D01*
X15445920Y-16124475D01*
X16330395Y-15240000D01*
X16689605Y-15240000D01*
X17574080Y-16124475D01*
X17828261Y-16040792D01*
X17959158Y-15768225D01*
X18034365Y-15475358D01*
X18050991Y-15173447D01*
X18042509Y-15113833D01*
X27929000Y-15113833D01*
X27929000Y-15366167D01*
X27978228Y-15613654D01*
X28074793Y-15846781D01*
X28214982Y-16056590D01*
X28393410Y-16235018D01*
X28603219Y-16375207D01*
X28836346Y-16471772D01*
X29083833Y-16521000D01*
X29336167Y-16521000D01*
X29583654Y-16471772D01*
X29816781Y-16375207D01*
X30026590Y-16235018D01*
X30205018Y-16056590D01*
X30345207Y-15846781D01*
X30441772Y-15613654D01*
X30491000Y-15366167D01*
X30491000Y-15113833D01*
X30441772Y-14866346D01*
X30345207Y-14633219D01*
X30205018Y-14423410D01*
X30026590Y-14244982D01*
X29816781Y-14104793D01*
X29583654Y-14008228D01*
X29336167Y-13959000D01*
X29083833Y-13959000D01*
X28836346Y-14008228D01*
X28603219Y-14104793D01*
X28393410Y-14244982D01*
X28214982Y-14423410D01*
X28074793Y-14633219D01*
X27978228Y-14866346D01*
X27929000Y-15113833D01*
X18042509Y-15113833D01*
X18008397Y-14874093D01*
X17908222Y-14588801D01*
X17828261Y-14439208D01*
X17574080Y-14355525D01*
X16689605Y-15240000D01*
X16330395Y-15240000D01*
X15445920Y-14355525D01*
X15191739Y-14439208D01*
X15060842Y-14711775D01*
X14985635Y-15004642D01*
X14969009Y-15306553D01*
X12827000Y-15306553D01*
X12827000Y-14175920D01*
X15625525Y-14175920D01*
X16510000Y-15060395D01*
X17394475Y-14175920D01*
X17310792Y-13921739D01*
X17038225Y-13790842D01*
X16745358Y-13715635D01*
X16443447Y-13699009D01*
X16144093Y-13741603D01*
X15858801Y-13841778D01*
X15709208Y-13921739D01*
X15625525Y-14175920D01*
X12827000Y-14175920D01*
X12827000Y-12573833D01*
X20309000Y-12573833D01*
X20309000Y-12826167D01*
X20358228Y-13073654D01*
X20454793Y-13306781D01*
X20594982Y-13516590D01*
X20773410Y-13695018D01*
X20983219Y-13835207D01*
X21216346Y-13931772D01*
X21463833Y-13981000D01*
X21716167Y-13981000D01*
X21963654Y-13931772D01*
X22196781Y-13835207D01*
X22406590Y-13695018D01*
X22585018Y-13516590D01*
X22725207Y-13306781D01*
X22776645Y-13182600D01*
X35790295Y-13182600D01*
X35814000Y-13184935D01*
X35837705Y-13182600D01*
X35837707Y-13182600D01*
X35908606Y-13175617D01*
X35999577Y-13148022D01*
X36083415Y-13103209D01*
X36156901Y-13042901D01*
X36172017Y-13024482D01*
X36319421Y-12877078D01*
X38335000Y-12877078D01*
X38335000Y-13030922D01*
X38365013Y-13181809D01*
X38423887Y-13323942D01*
X38509358Y-13451859D01*
X38618141Y-13560642D01*
X38746058Y-13646113D01*
X38888191Y-13704987D01*
X39039078Y-13735000D01*
X39192922Y-13735000D01*
X39343809Y-13704987D01*
X39485942Y-13646113D01*
X39613859Y-13560642D01*
X39722642Y-13451859D01*
X39732838Y-13436600D01*
X44504101Y-13436600D01*
X51292580Y-20225080D01*
X51289000Y-20243078D01*
X51289000Y-20396922D01*
X51319013Y-20547809D01*
X51377887Y-20689942D01*
X51384201Y-20699392D01*
X51384200Y-25487157D01*
X51270000Y-25487157D01*
X51195311Y-25494513D01*
X51123492Y-25516299D01*
X51057304Y-25551678D01*
X50999289Y-25599289D01*
X50951678Y-25657304D01*
X50916299Y-25723492D01*
X50894513Y-25795311D01*
X50887157Y-25870000D01*
X50887157Y-27470000D01*
X50894513Y-27544689D01*
X50916299Y-27616508D01*
X50951678Y-27682696D01*
X50999289Y-27740711D01*
X51057304Y-27788322D01*
X51123492Y-27823701D01*
X51195311Y-27845487D01*
X51270000Y-27852843D01*
X51491609Y-27852843D01*
X51453708Y-27866397D01*
X51328486Y-27933329D01*
X51256903Y-28177298D01*
X52070000Y-28990395D01*
X52883097Y-28177298D01*
X52811514Y-27933329D01*
X52641415Y-27852843D01*
X52870000Y-27852843D01*
X52944689Y-27845487D01*
X53016508Y-27823701D01*
X53082696Y-27788322D01*
X53140711Y-27740711D01*
X53188322Y-27682696D01*
X53223701Y-27616508D01*
X53245487Y-27544689D01*
X53252843Y-27470000D01*
X53252843Y-25870000D01*
X53245487Y-25795311D01*
X53223701Y-25723492D01*
X53188322Y-25657304D01*
X53140711Y-25599289D01*
X53082696Y-25551678D01*
X53016508Y-25516299D01*
X52944689Y-25494513D01*
X52870000Y-25487157D01*
X52755800Y-25487157D01*
X52755800Y-20699390D01*
X52762113Y-20689942D01*
X52820987Y-20547809D01*
X52851000Y-20396922D01*
X52851000Y-20243078D01*
X52820987Y-20092191D01*
X52762113Y-19950058D01*
X52676642Y-19822141D01*
X52567859Y-19713358D01*
X52439942Y-19627887D01*
X52297809Y-19569013D01*
X52146922Y-19539000D01*
X51993078Y-19539000D01*
X51975080Y-19542580D01*
X45062017Y-12629518D01*
X45046901Y-12611099D01*
X44973415Y-12550791D01*
X44889577Y-12505978D01*
X44798606Y-12478383D01*
X44727707Y-12471400D01*
X44727705Y-12471400D01*
X44704000Y-12469065D01*
X44680295Y-12471400D01*
X39732838Y-12471400D01*
X39722642Y-12456141D01*
X39613859Y-12347358D01*
X39485942Y-12261887D01*
X39343809Y-12203013D01*
X39192922Y-12173000D01*
X39039078Y-12173000D01*
X38888191Y-12203013D01*
X38746058Y-12261887D01*
X38618141Y-12347358D01*
X38509358Y-12456141D01*
X38423887Y-12584058D01*
X38365013Y-12726191D01*
X38335000Y-12877078D01*
X36319421Y-12877078D01*
X36989079Y-12207420D01*
X37007078Y-12211000D01*
X37160922Y-12211000D01*
X37311809Y-12180987D01*
X37453942Y-12122113D01*
X37581859Y-12036642D01*
X37690642Y-11927859D01*
X37776113Y-11799942D01*
X37834987Y-11657809D01*
X37865000Y-11506922D01*
X37865000Y-11353078D01*
X37834987Y-11202191D01*
X37776113Y-11060058D01*
X37690642Y-10932141D01*
X37581859Y-10823358D01*
X37453942Y-10737887D01*
X37311809Y-10679013D01*
X37160922Y-10649000D01*
X37007078Y-10649000D01*
X36856191Y-10679013D01*
X36714058Y-10737887D01*
X36586141Y-10823358D01*
X36477358Y-10932141D01*
X36391887Y-11060058D01*
X36333013Y-11202191D01*
X36303000Y-11353078D01*
X36303000Y-11506922D01*
X36306580Y-11524921D01*
X35614101Y-12217400D01*
X22776645Y-12217400D01*
X22725207Y-12093219D01*
X22585018Y-11883410D01*
X22406590Y-11704982D01*
X22196781Y-11564793D01*
X21963654Y-11468228D01*
X21716167Y-11419000D01*
X21463833Y-11419000D01*
X21216346Y-11468228D01*
X20983219Y-11564793D01*
X20773410Y-11704982D01*
X20594982Y-11883410D01*
X20454793Y-12093219D01*
X20358228Y-12326346D01*
X20309000Y-12573833D01*
X12827000Y-12573833D01*
X12827000Y-9575078D01*
X18269000Y-9575078D01*
X18269000Y-9728922D01*
X18299013Y-9879809D01*
X18357887Y-10021942D01*
X18443358Y-10149859D01*
X18552141Y-10258642D01*
X18680058Y-10344113D01*
X18822191Y-10402987D01*
X18973078Y-10433000D01*
X19126922Y-10433000D01*
X19277809Y-10402987D01*
X19419942Y-10344113D01*
X19547859Y-10258642D01*
X19656642Y-10149859D01*
X19666838Y-10134600D01*
X30456295Y-10134600D01*
X30480000Y-10136935D01*
X30503705Y-10134600D01*
X30503707Y-10134600D01*
X30574606Y-10127617D01*
X30665577Y-10100022D01*
X30749415Y-10055209D01*
X30822901Y-9994901D01*
X30838017Y-9976482D01*
X32417080Y-8397420D01*
X32435078Y-8401000D01*
X32588922Y-8401000D01*
X32739809Y-8370987D01*
X32881942Y-8312113D01*
X33009859Y-8226642D01*
X33118642Y-8117859D01*
X33204113Y-7989942D01*
X33262987Y-7847809D01*
X33293000Y-7696922D01*
X33293000Y-7543078D01*
X33262987Y-7392191D01*
X33204113Y-7250058D01*
X33118642Y-7122141D01*
X33009859Y-7013358D01*
X32881942Y-6927887D01*
X32739809Y-6869013D01*
X32588922Y-6839000D01*
X32435078Y-6839000D01*
X32284191Y-6869013D01*
X32142058Y-6927887D01*
X32014141Y-7013358D01*
X31905358Y-7122141D01*
X31819887Y-7250058D01*
X31761013Y-7392191D01*
X31731000Y-7543078D01*
X31731000Y-7696922D01*
X31734580Y-7714920D01*
X30280101Y-9169400D01*
X19666838Y-9169400D01*
X19656642Y-9154141D01*
X19547859Y-9045358D01*
X19419942Y-8959887D01*
X19277809Y-8901013D01*
X19126922Y-8871000D01*
X18973078Y-8871000D01*
X18822191Y-8901013D01*
X18680058Y-8959887D01*
X18552141Y-9045358D01*
X18443358Y-9154141D01*
X18357887Y-9282058D01*
X18299013Y-9424191D01*
X18269000Y-9575078D01*
X12827000Y-9575078D01*
X12827000Y-8684080D01*
X15625525Y-8684080D01*
X15709208Y-8938261D01*
X15981775Y-9069158D01*
X16274642Y-9144365D01*
X16576553Y-9160991D01*
X16875907Y-9118397D01*
X17161199Y-9018222D01*
X17310792Y-8938261D01*
X17394475Y-8684080D01*
X16510000Y-7799605D01*
X15625525Y-8684080D01*
X12827000Y-8684080D01*
X12827000Y-7686553D01*
X14969009Y-7686553D01*
X15011603Y-7985907D01*
X15111778Y-8271199D01*
X15191739Y-8420792D01*
X15445920Y-8504475D01*
X16330395Y-7620000D01*
X16689605Y-7620000D01*
X17574080Y-8504475D01*
X17828261Y-8420792D01*
X17959158Y-8148225D01*
X18034365Y-7855358D01*
X18050991Y-7553447D01*
X18042509Y-7493833D01*
X27929000Y-7493833D01*
X27929000Y-7746167D01*
X27978228Y-7993654D01*
X28074793Y-8226781D01*
X28214982Y-8436590D01*
X28393410Y-8615018D01*
X28603219Y-8755207D01*
X28836346Y-8851772D01*
X29083833Y-8901000D01*
X29336167Y-8901000D01*
X29583654Y-8851772D01*
X29816781Y-8755207D01*
X30026590Y-8615018D01*
X30205018Y-8436590D01*
X30345207Y-8226781D01*
X30441772Y-7993654D01*
X30491000Y-7746167D01*
X30491000Y-7493833D01*
X30441772Y-7246346D01*
X30345207Y-7013219D01*
X30205018Y-6803410D01*
X30026590Y-6624982D01*
X29816781Y-6484793D01*
X29583654Y-6388228D01*
X29336167Y-6339000D01*
X29083833Y-6339000D01*
X28836346Y-6388228D01*
X28603219Y-6484793D01*
X28393410Y-6624982D01*
X28214982Y-6803410D01*
X28074793Y-7013219D01*
X27978228Y-7246346D01*
X27929000Y-7493833D01*
X18042509Y-7493833D01*
X18008397Y-7254093D01*
X17908222Y-6968801D01*
X17828261Y-6819208D01*
X17574080Y-6735525D01*
X16689605Y-7620000D01*
X16330395Y-7620000D01*
X15445920Y-6735525D01*
X15191739Y-6819208D01*
X15060842Y-7091775D01*
X14985635Y-7384642D01*
X14969009Y-7686553D01*
X12827000Y-7686553D01*
X12827000Y-6555920D01*
X15625525Y-6555920D01*
X16510000Y-7440395D01*
X17394475Y-6555920D01*
X17310792Y-6301739D01*
X17038225Y-6170842D01*
X16745358Y-6095635D01*
X16443447Y-6079009D01*
X16144093Y-6121603D01*
X15858801Y-6221778D01*
X15709208Y-6301739D01*
X15625525Y-6555920D01*
X12827000Y-6555920D01*
X12827000Y-3733078D01*
X17253000Y-3733078D01*
X17253000Y-3886922D01*
X17283013Y-4037809D01*
X17341887Y-4179942D01*
X17427358Y-4307859D01*
X17536141Y-4416642D01*
X17664058Y-4502113D01*
X17806191Y-4560987D01*
X17957078Y-4591000D01*
X18110922Y-4591000D01*
X18261809Y-4560987D01*
X18403942Y-4502113D01*
X18531859Y-4416642D01*
X18640642Y-4307859D01*
X18650838Y-4292600D01*
X20575478Y-4292600D01*
X20454793Y-4473219D01*
X20358228Y-4706346D01*
X20309000Y-4953833D01*
X20309000Y-5206167D01*
X20358228Y-5453654D01*
X20454793Y-5686781D01*
X20594982Y-5896590D01*
X20773410Y-6075018D01*
X20983219Y-6215207D01*
X21216346Y-6311772D01*
X21463833Y-6361000D01*
X21716167Y-6361000D01*
X21963654Y-6311772D01*
X22057068Y-6273078D01*
X35541000Y-6273078D01*
X35541000Y-6426922D01*
X35571013Y-6577809D01*
X35629887Y-6719942D01*
X35715358Y-6847859D01*
X35824141Y-6956642D01*
X35952058Y-7042113D01*
X36094191Y-7100987D01*
X36245078Y-7131000D01*
X36398922Y-7131000D01*
X36549809Y-7100987D01*
X36691942Y-7042113D01*
X36819859Y-6956642D01*
X36928642Y-6847859D01*
X36938838Y-6832600D01*
X39678101Y-6832600D01*
X40157400Y-7311900D01*
X40157401Y-9882285D01*
X40155065Y-9906000D01*
X40164384Y-10000606D01*
X40191978Y-10091576D01*
X40223132Y-10149859D01*
X40236792Y-10175415D01*
X40297100Y-10248901D01*
X40315513Y-10264012D01*
X41386580Y-11335079D01*
X41383000Y-11353078D01*
X41383000Y-11506922D01*
X41413013Y-11657809D01*
X41471887Y-11799942D01*
X41557358Y-11927859D01*
X41666141Y-12036642D01*
X41794058Y-12122113D01*
X41936191Y-12180987D01*
X42087078Y-12211000D01*
X42240922Y-12211000D01*
X42391809Y-12180987D01*
X42533942Y-12122113D01*
X42661859Y-12036642D01*
X42770642Y-11927859D01*
X42856113Y-11799942D01*
X42914987Y-11657809D01*
X42945000Y-11506922D01*
X42945000Y-11353078D01*
X42914987Y-11202191D01*
X42856113Y-11060058D01*
X42770642Y-10932141D01*
X42661859Y-10823358D01*
X42619418Y-10795000D01*
X42661859Y-10766642D01*
X42770642Y-10657859D01*
X42856113Y-10529942D01*
X42914987Y-10387809D01*
X42945000Y-10236922D01*
X42945000Y-10083078D01*
X42914987Y-9932191D01*
X42856113Y-9790058D01*
X42770642Y-9662141D01*
X42661859Y-9553358D01*
X42533942Y-9467887D01*
X42391809Y-9409013D01*
X42240922Y-9379000D01*
X42087078Y-9379000D01*
X42069080Y-9382580D01*
X41630600Y-8944101D01*
X41630600Y-7533229D01*
X51189000Y-7533229D01*
X51189000Y-7706771D01*
X51222856Y-7876978D01*
X51289268Y-8037310D01*
X51384201Y-8179388D01*
X51384200Y-12666321D01*
X51380883Y-12700000D01*
X51384200Y-12733679D01*
X51384200Y-12733688D01*
X51394123Y-12834439D01*
X51433338Y-12963713D01*
X51492103Y-13073654D01*
X51497020Y-13082853D01*
X51550503Y-13148022D01*
X51582720Y-13187279D01*
X51608887Y-13208754D01*
X56396796Y-17996664D01*
X56399013Y-18007809D01*
X56457887Y-18149942D01*
X56543358Y-18277859D01*
X56652141Y-18386642D01*
X56780058Y-18472113D01*
X56922191Y-18530987D01*
X57073078Y-18561000D01*
X57226922Y-18561000D01*
X57377809Y-18530987D01*
X57519942Y-18472113D01*
X57647859Y-18386642D01*
X57756642Y-18277859D01*
X57842113Y-18149942D01*
X57900987Y-18007809D01*
X57931000Y-17856922D01*
X57931000Y-17703078D01*
X57900987Y-17552191D01*
X57842113Y-17410058D01*
X57756642Y-17282141D01*
X57647859Y-17173358D01*
X57519942Y-17087887D01*
X57377809Y-17029013D01*
X57366664Y-17026796D01*
X54924868Y-14585000D01*
X57922318Y-14585000D01*
X57948982Y-14855723D01*
X58027949Y-15116043D01*
X58156185Y-15355955D01*
X58328761Y-15566239D01*
X58539045Y-15738815D01*
X58778957Y-15867051D01*
X59039277Y-15946018D01*
X59242157Y-15966000D01*
X60377843Y-15966000D01*
X60580723Y-15946018D01*
X60841043Y-15867051D01*
X61080955Y-15738815D01*
X61291239Y-15566239D01*
X61463815Y-15355955D01*
X61592051Y-15116043D01*
X61671018Y-14855723D01*
X61697682Y-14585000D01*
X65422318Y-14585000D01*
X65448982Y-14855723D01*
X65527949Y-15116043D01*
X65656185Y-15355955D01*
X65828761Y-15566239D01*
X66039045Y-15738815D01*
X66278957Y-15867051D01*
X66539277Y-15946018D01*
X66742157Y-15966000D01*
X67877843Y-15966000D01*
X68080723Y-15946018D01*
X68341043Y-15867051D01*
X68580955Y-15738815D01*
X68791239Y-15566239D01*
X68963815Y-15355955D01*
X69092051Y-15116043D01*
X69171018Y-14855723D01*
X69197682Y-14585000D01*
X69171018Y-14314277D01*
X69092051Y-14053957D01*
X68963815Y-13814045D01*
X68791239Y-13603761D01*
X68580955Y-13431185D01*
X68341043Y-13302949D01*
X68080723Y-13223982D01*
X67877843Y-13204000D01*
X66742157Y-13204000D01*
X66539277Y-13223982D01*
X66278957Y-13302949D01*
X66039045Y-13431185D01*
X65828761Y-13603761D01*
X65656185Y-13814045D01*
X65527949Y-14053957D01*
X65448982Y-14314277D01*
X65422318Y-14585000D01*
X61697682Y-14585000D01*
X61671018Y-14314277D01*
X61592051Y-14053957D01*
X61463815Y-13814045D01*
X61291239Y-13603761D01*
X61080955Y-13431185D01*
X60841043Y-13302949D01*
X60580723Y-13223982D01*
X60377843Y-13204000D01*
X59242157Y-13204000D01*
X59039277Y-13223982D01*
X58778957Y-13302949D01*
X58539045Y-13431185D01*
X58328761Y-13603761D01*
X58156185Y-13814045D01*
X58027949Y-14053957D01*
X57948982Y-14314277D01*
X57922318Y-14585000D01*
X54924868Y-14585000D01*
X52755800Y-12415933D01*
X52755800Y-9545000D01*
X57922318Y-9545000D01*
X57948982Y-9815723D01*
X58027949Y-10076043D01*
X58156185Y-10315955D01*
X58328761Y-10526239D01*
X58539045Y-10698815D01*
X58778957Y-10827051D01*
X59039277Y-10906018D01*
X59242157Y-10926000D01*
X60377843Y-10926000D01*
X60580723Y-10906018D01*
X60841043Y-10827051D01*
X61080955Y-10698815D01*
X61291239Y-10526239D01*
X61463815Y-10315955D01*
X61592051Y-10076043D01*
X61671018Y-9815723D01*
X61697682Y-9545000D01*
X65422318Y-9545000D01*
X65448982Y-9815723D01*
X65527949Y-10076043D01*
X65656185Y-10315955D01*
X65828761Y-10526239D01*
X66039045Y-10698815D01*
X66278957Y-10827051D01*
X66539277Y-10906018D01*
X66742157Y-10926000D01*
X67877843Y-10926000D01*
X68080723Y-10906018D01*
X68341043Y-10827051D01*
X68580955Y-10698815D01*
X68791239Y-10526239D01*
X68963815Y-10315955D01*
X69092051Y-10076043D01*
X69171018Y-9815723D01*
X69197682Y-9545000D01*
X69171018Y-9274277D01*
X69092051Y-9013957D01*
X68963815Y-8774045D01*
X68791239Y-8563761D01*
X68580955Y-8391185D01*
X68341043Y-8262949D01*
X68080723Y-8183982D01*
X67877843Y-8164000D01*
X66742157Y-8164000D01*
X66539277Y-8183982D01*
X66278957Y-8262949D01*
X66039045Y-8391185D01*
X65828761Y-8563761D01*
X65656185Y-8774045D01*
X65527949Y-9013957D01*
X65448982Y-9274277D01*
X65422318Y-9545000D01*
X61697682Y-9545000D01*
X61671018Y-9274277D01*
X61592051Y-9013957D01*
X61463815Y-8774045D01*
X61291239Y-8563761D01*
X61080955Y-8391185D01*
X60841043Y-8262949D01*
X60580723Y-8183982D01*
X60377843Y-8164000D01*
X59242157Y-8164000D01*
X59039277Y-8183982D01*
X58778957Y-8262949D01*
X58539045Y-8391185D01*
X58328761Y-8563761D01*
X58156185Y-8774045D01*
X58027949Y-9013957D01*
X57948982Y-9274277D01*
X57922318Y-9545000D01*
X52755800Y-9545000D01*
X52755800Y-8179387D01*
X52850732Y-8037310D01*
X52917144Y-7876978D01*
X52951000Y-7706771D01*
X52951000Y-7533229D01*
X52935328Y-7454436D01*
X73249000Y-7454436D01*
X73249000Y-7785564D01*
X73313600Y-8110330D01*
X73440317Y-8416252D01*
X73624282Y-8691575D01*
X73858425Y-8925718D01*
X74133748Y-9109683D01*
X74439670Y-9236400D01*
X74764436Y-9301000D01*
X75095564Y-9301000D01*
X75420330Y-9236400D01*
X75726252Y-9109683D01*
X76001575Y-8925718D01*
X76235718Y-8691575D01*
X76419683Y-8416252D01*
X76546400Y-8110330D01*
X76611000Y-7785564D01*
X76611000Y-7454436D01*
X76546400Y-7129670D01*
X76419683Y-6823748D01*
X76235718Y-6548425D01*
X76007293Y-6320000D01*
X78327157Y-6320000D01*
X78327157Y-8920000D01*
X78334513Y-8994689D01*
X78356299Y-9066508D01*
X78391678Y-9132696D01*
X78439289Y-9190711D01*
X78497304Y-9238322D01*
X78563492Y-9273701D01*
X78635311Y-9295487D01*
X78710000Y-9302843D01*
X81310000Y-9302843D01*
X81384689Y-9295487D01*
X81456508Y-9273701D01*
X81522696Y-9238322D01*
X81580711Y-9190711D01*
X81628322Y-9132696D01*
X81663701Y-9066508D01*
X81685487Y-8994689D01*
X81692843Y-8920000D01*
X81692843Y-6320000D01*
X81685487Y-6245311D01*
X81663701Y-6173492D01*
X81628322Y-6107304D01*
X81580711Y-6049289D01*
X81522696Y-6001678D01*
X81456508Y-5966299D01*
X81384689Y-5944513D01*
X81310000Y-5937157D01*
X78710000Y-5937157D01*
X78635311Y-5944513D01*
X78563492Y-5966299D01*
X78497304Y-6001678D01*
X78439289Y-6049289D01*
X78391678Y-6107304D01*
X78356299Y-6173492D01*
X78334513Y-6245311D01*
X78327157Y-6320000D01*
X76007293Y-6320000D01*
X76001575Y-6314282D01*
X75726252Y-6130317D01*
X75420330Y-6003600D01*
X75095564Y-5939000D01*
X74764436Y-5939000D01*
X74439670Y-6003600D01*
X74133748Y-6130317D01*
X73858425Y-6314282D01*
X73624282Y-6548425D01*
X73440317Y-6823748D01*
X73313600Y-7129670D01*
X73249000Y-7454436D01*
X52935328Y-7454436D01*
X52917144Y-7363022D01*
X52850732Y-7202690D01*
X52754318Y-7058395D01*
X52631605Y-6935682D01*
X52487310Y-6839268D01*
X52326978Y-6772856D01*
X52156771Y-6739000D01*
X51983229Y-6739000D01*
X51813022Y-6772856D01*
X51652690Y-6839268D01*
X51508395Y-6935682D01*
X51385682Y-7058395D01*
X51289268Y-7202690D01*
X51222856Y-7363022D01*
X51189000Y-7533229D01*
X41630600Y-7533229D01*
X41630600Y-6966838D01*
X41645859Y-6956642D01*
X41754642Y-6847859D01*
X41840113Y-6719942D01*
X41898987Y-6577809D01*
X41929000Y-6426922D01*
X41929000Y-6273078D01*
X41898987Y-6122191D01*
X41840113Y-5980058D01*
X41754642Y-5852141D01*
X41645859Y-5743358D01*
X41517942Y-5657887D01*
X41375809Y-5599013D01*
X41224922Y-5569000D01*
X41071078Y-5569000D01*
X40920191Y-5599013D01*
X40778058Y-5657887D01*
X40650141Y-5743358D01*
X40541358Y-5852141D01*
X40455887Y-5980058D01*
X40397013Y-6122191D01*
X40386341Y-6175842D01*
X40236017Y-6025518D01*
X40220901Y-6007099D01*
X40147415Y-5946791D01*
X40063577Y-5901978D01*
X39972606Y-5874383D01*
X39901707Y-5867400D01*
X39901705Y-5867400D01*
X39878000Y-5865065D01*
X39854295Y-5867400D01*
X36938838Y-5867400D01*
X36928642Y-5852141D01*
X36819859Y-5743358D01*
X36691942Y-5657887D01*
X36549809Y-5599013D01*
X36398922Y-5569000D01*
X36245078Y-5569000D01*
X36094191Y-5599013D01*
X35952058Y-5657887D01*
X35824141Y-5743358D01*
X35715358Y-5852141D01*
X35629887Y-5980058D01*
X35571013Y-6122191D01*
X35541000Y-6273078D01*
X22057068Y-6273078D01*
X22196781Y-6215207D01*
X22406590Y-6075018D01*
X22585018Y-5896590D01*
X22725207Y-5686781D01*
X22776645Y-5562600D01*
X36298295Y-5562600D01*
X36322000Y-5564935D01*
X36345705Y-5562600D01*
X36345707Y-5562600D01*
X36416606Y-5555617D01*
X36507577Y-5528022D01*
X36591415Y-5483209D01*
X36664901Y-5422901D01*
X36680017Y-5404482D01*
X37497079Y-4587420D01*
X37515078Y-4591000D01*
X37668922Y-4591000D01*
X37819809Y-4560987D01*
X37954972Y-4505000D01*
X57922318Y-4505000D01*
X57948982Y-4775723D01*
X58027949Y-5036043D01*
X58156185Y-5275955D01*
X58328761Y-5486239D01*
X58539045Y-5658815D01*
X58778957Y-5787051D01*
X59039277Y-5866018D01*
X59242157Y-5886000D01*
X60377843Y-5886000D01*
X60580723Y-5866018D01*
X60841043Y-5787051D01*
X61080955Y-5658815D01*
X61291239Y-5486239D01*
X61463815Y-5275955D01*
X61592051Y-5036043D01*
X61671018Y-4775723D01*
X61697682Y-4505000D01*
X65422318Y-4505000D01*
X65448982Y-4775723D01*
X65527949Y-5036043D01*
X65656185Y-5275955D01*
X65828761Y-5486239D01*
X66039045Y-5658815D01*
X66278957Y-5787051D01*
X66539277Y-5866018D01*
X66742157Y-5886000D01*
X67877843Y-5886000D01*
X68080723Y-5866018D01*
X68341043Y-5787051D01*
X68580955Y-5658815D01*
X68791239Y-5486239D01*
X68963815Y-5275955D01*
X69092051Y-5036043D01*
X69171018Y-4775723D01*
X69197682Y-4505000D01*
X69171018Y-4234277D01*
X69092051Y-3973957D01*
X68963815Y-3734045D01*
X68791239Y-3523761D01*
X68580955Y-3351185D01*
X68341043Y-3222949D01*
X68080723Y-3143982D01*
X67877843Y-3124000D01*
X66742157Y-3124000D01*
X66539277Y-3143982D01*
X66278957Y-3222949D01*
X66039045Y-3351185D01*
X65828761Y-3523761D01*
X65656185Y-3734045D01*
X65527949Y-3973957D01*
X65448982Y-4234277D01*
X65422318Y-4505000D01*
X61697682Y-4505000D01*
X61671018Y-4234277D01*
X61592051Y-3973957D01*
X61463815Y-3734045D01*
X61291239Y-3523761D01*
X61080955Y-3351185D01*
X60841043Y-3222949D01*
X60580723Y-3143982D01*
X60377843Y-3124000D01*
X59242157Y-3124000D01*
X59039277Y-3143982D01*
X58778957Y-3222949D01*
X58539045Y-3351185D01*
X58328761Y-3523761D01*
X58156185Y-3734045D01*
X58027949Y-3973957D01*
X57948982Y-4234277D01*
X57922318Y-4505000D01*
X37954972Y-4505000D01*
X37961942Y-4502113D01*
X38089859Y-4416642D01*
X38198642Y-4307859D01*
X38284113Y-4179942D01*
X38342987Y-4037809D01*
X38373000Y-3886922D01*
X38373000Y-3733078D01*
X38342987Y-3582191D01*
X38284113Y-3440058D01*
X38198642Y-3312141D01*
X38089859Y-3203358D01*
X37961942Y-3117887D01*
X37819809Y-3059013D01*
X37668922Y-3029000D01*
X37515078Y-3029000D01*
X37364191Y-3059013D01*
X37222058Y-3117887D01*
X37094141Y-3203358D01*
X36985358Y-3312141D01*
X36899887Y-3440058D01*
X36841013Y-3582191D01*
X36811000Y-3733078D01*
X36811000Y-3886922D01*
X36814580Y-3904921D01*
X36122101Y-4597400D01*
X22776645Y-4597400D01*
X22725207Y-4473219D01*
X22604522Y-4292600D01*
X31895162Y-4292600D01*
X31905358Y-4307859D01*
X32014141Y-4416642D01*
X32142058Y-4502113D01*
X32284191Y-4560987D01*
X32435078Y-4591000D01*
X32588922Y-4591000D01*
X32739809Y-4560987D01*
X32881942Y-4502113D01*
X33009859Y-4416642D01*
X33118642Y-4307859D01*
X33204113Y-4179942D01*
X33262987Y-4037809D01*
X33293000Y-3886922D01*
X33293000Y-3733078D01*
X33262987Y-3582191D01*
X33204113Y-3440058D01*
X33118642Y-3312141D01*
X33009859Y-3203358D01*
X32881942Y-3117887D01*
X32739809Y-3059013D01*
X32588922Y-3029000D01*
X32435078Y-3029000D01*
X32284191Y-3059013D01*
X32142058Y-3117887D01*
X32014141Y-3203358D01*
X31905358Y-3312141D01*
X31895162Y-3327400D01*
X18650838Y-3327400D01*
X18640642Y-3312141D01*
X18531859Y-3203358D01*
X18403942Y-3117887D01*
X18261809Y-3059013D01*
X18110922Y-3029000D01*
X17957078Y-3029000D01*
X17806191Y-3059013D01*
X17664058Y-3117887D01*
X17536141Y-3203358D01*
X17427358Y-3312141D01*
X17341887Y-3440058D01*
X17283013Y-3582191D01*
X17253000Y-3733078D01*
X12827000Y-3733078D01*
X12827000Y-406000D01*
X86233000Y-406000D01*
X86233000Y-15442116D01*
X86233000Y-15442116D01*
G37*
X86233000Y-15442116D02*
X86069485Y-15374386D01*
X85841318Y-15329000D01*
X85608682Y-15329000D01*
X85380515Y-15374386D01*
X85165587Y-15463412D01*
X84972157Y-15592658D01*
X84807658Y-15757157D01*
X84762861Y-15824200D01*
X83512139Y-15824200D01*
X83467342Y-15757157D01*
X83302843Y-15592658D01*
X83109413Y-15463412D01*
X82894485Y-15374386D01*
X82666318Y-15329000D01*
X82433682Y-15329000D01*
X82205515Y-15374386D01*
X81990587Y-15463412D01*
X81797157Y-15592658D01*
X81632658Y-15757157D01*
X81503412Y-15950587D01*
X81414386Y-16165515D01*
X81369000Y-16393682D01*
X81369000Y-16626318D01*
X81414386Y-16854485D01*
X81503412Y-17069413D01*
X81632658Y-17262843D01*
X81797157Y-17427342D01*
X81990587Y-17556588D01*
X82205515Y-17645614D01*
X82433682Y-17691000D01*
X82666318Y-17691000D01*
X82894485Y-17645614D01*
X83109413Y-17556588D01*
X83302843Y-17427342D01*
X83467342Y-17262843D01*
X83512139Y-17195800D01*
X84762861Y-17195800D01*
X84807658Y-17262843D01*
X84972157Y-17427342D01*
X85165587Y-17556588D01*
X85380515Y-17645614D01*
X85608682Y-17691000D01*
X85841318Y-17691000D01*
X86069485Y-17645614D01*
X86233000Y-17577884D01*
X86233000Y-25602410D01*
X86179136Y-25573619D01*
X85956516Y-25506088D01*
X85783016Y-25489000D01*
X85666984Y-25489000D01*
X85493484Y-25506088D01*
X85270864Y-25573619D01*
X85065697Y-25683283D01*
X84885866Y-25830866D01*
X84760028Y-25984200D01*
X83514972Y-25984200D01*
X83389134Y-25830866D01*
X83209303Y-25683283D01*
X83004136Y-25573619D01*
X82781516Y-25506088D01*
X82608016Y-25489000D01*
X82491984Y-25489000D01*
X82318484Y-25506088D01*
X82095864Y-25573619D01*
X81890697Y-25683283D01*
X81710866Y-25830866D01*
X81563283Y-26010697D01*
X81453619Y-26215864D01*
X81386088Y-26438484D01*
X81363286Y-26670000D01*
X81386088Y-26901516D01*
X81453619Y-27124136D01*
X81563283Y-27329303D01*
X81710866Y-27509134D01*
X81890697Y-27656717D01*
X82095864Y-27766381D01*
X82318484Y-27833912D01*
X82491984Y-27851000D01*
X82608016Y-27851000D01*
X82781516Y-27833912D01*
X83004136Y-27766381D01*
X83209303Y-27656717D01*
X83389134Y-27509134D01*
X83514972Y-27355800D01*
X84760028Y-27355800D01*
X84885866Y-27509134D01*
X85065697Y-27656717D01*
X85270864Y-27766381D01*
X85493484Y-27833912D01*
X85666984Y-27851000D01*
X85783016Y-27851000D01*
X85956516Y-27833912D01*
X86179136Y-27766381D01*
X86233000Y-27737590D01*
X86233000Y-35154000D01*
X12827000Y-35154000D01*
X12827000Y-31544080D01*
X15625525Y-31544080D01*
X15709208Y-31798261D01*
X15981775Y-31929158D01*
X16274642Y-32004365D01*
X16576553Y-32020991D01*
X16875907Y-31978397D01*
X17161199Y-31878222D01*
X17310792Y-31798261D01*
X17394475Y-31544080D01*
X16510000Y-30659605D01*
X15625525Y-31544080D01*
X12827000Y-31544080D01*
X12827000Y-30546553D01*
X14969009Y-30546553D01*
X15011603Y-30845907D01*
X15111778Y-31131199D01*
X15191739Y-31280792D01*
X15445920Y-31364475D01*
X16330395Y-30480000D01*
X16689605Y-30480000D01*
X17574080Y-31364475D01*
X17828261Y-31280792D01*
X17959158Y-31008225D01*
X18034365Y-30715358D01*
X18050991Y-30413447D01*
X18042509Y-30353833D01*
X27929000Y-30353833D01*
X27929000Y-30606167D01*
X27978228Y-30853654D01*
X28074793Y-31086781D01*
X28214982Y-31296590D01*
X28393410Y-31475018D01*
X28603219Y-31615207D01*
X28836346Y-31711772D01*
X29083833Y-31761000D01*
X29336167Y-31761000D01*
X29583654Y-31711772D01*
X29816781Y-31615207D01*
X30026590Y-31475018D01*
X30205018Y-31296590D01*
X30345207Y-31086781D01*
X30441772Y-30853654D01*
X30491000Y-30606167D01*
X30491000Y-30353833D01*
X30441772Y-30106346D01*
X30345207Y-29873219D01*
X30205018Y-29663410D01*
X30026590Y-29484982D01*
X29816781Y-29344793D01*
X29583654Y-29248228D01*
X29336167Y-29199000D01*
X29083833Y-29199000D01*
X28836346Y-29248228D01*
X28603219Y-29344793D01*
X28393410Y-29484982D01*
X28214982Y-29663410D01*
X28074793Y-29873219D01*
X27978228Y-30106346D01*
X27929000Y-30353833D01*
X18042509Y-30353833D01*
X18008397Y-30114093D01*
X17908222Y-29828801D01*
X17828261Y-29679208D01*
X17574080Y-29595525D01*
X16689605Y-30480000D01*
X16330395Y-30480000D01*
X15445920Y-29595525D01*
X15191739Y-29679208D01*
X15060842Y-29951775D01*
X14985635Y-30244642D01*
X14969009Y-30546553D01*
X12827000Y-30546553D01*
X12827000Y-29415920D01*
X15625525Y-29415920D01*
X16510000Y-30300395D01*
X17394475Y-29415920D01*
X17310792Y-29161739D01*
X17038225Y-29030842D01*
X16745358Y-28955635D01*
X16443447Y-28939009D01*
X16144093Y-28981603D01*
X15858801Y-29081778D01*
X15709208Y-29161739D01*
X15625525Y-29415920D01*
X12827000Y-29415920D01*
X12827000Y-27813833D01*
X20309000Y-27813833D01*
X20309000Y-28066167D01*
X20358228Y-28313654D01*
X20454793Y-28546781D01*
X20594982Y-28756590D01*
X20773410Y-28935018D01*
X20983219Y-29075207D01*
X21216346Y-29171772D01*
X21463833Y-29221000D01*
X21716167Y-29221000D01*
X21963654Y-29171772D01*
X22196781Y-29075207D01*
X22406590Y-28935018D01*
X22585018Y-28756590D01*
X22725207Y-28546781D01*
X22821772Y-28313654D01*
X22871000Y-28066167D01*
X22871000Y-27813833D01*
X22821772Y-27566346D01*
X22725207Y-27333219D01*
X22585018Y-27123410D01*
X22406590Y-26944982D01*
X22196781Y-26804793D01*
X21963654Y-26708228D01*
X21716167Y-26659000D01*
X21463833Y-26659000D01*
X21216346Y-26708228D01*
X20983219Y-26804793D01*
X20773410Y-26944982D01*
X20594982Y-27123410D01*
X20454793Y-27333219D01*
X20358228Y-27566346D01*
X20309000Y-27813833D01*
X12827000Y-27813833D01*
X12827000Y-23924080D01*
X15625525Y-23924080D01*
X15709208Y-24178261D01*
X15981775Y-24309158D01*
X16274642Y-24384365D01*
X16576553Y-24400991D01*
X16875907Y-24358397D01*
X17161199Y-24258222D01*
X17310792Y-24178261D01*
X17394475Y-23924080D01*
X16510000Y-23039605D01*
X15625525Y-23924080D01*
X12827000Y-23924080D01*
X12827000Y-22926553D01*
X14969009Y-22926553D01*
X15011603Y-23225907D01*
X15111778Y-23511199D01*
X15191739Y-23660792D01*
X15445920Y-23744475D01*
X16330395Y-22860000D01*
X16689605Y-22860000D01*
X17574080Y-23744475D01*
X17828261Y-23660792D01*
X17959158Y-23388225D01*
X18034365Y-23095358D01*
X18050991Y-22793447D01*
X18042509Y-22733833D01*
X27929000Y-22733833D01*
X27929000Y-22986167D01*
X27978228Y-23233654D01*
X28074793Y-23466781D01*
X28214982Y-23676590D01*
X28393410Y-23855018D01*
X28603219Y-23995207D01*
X28836346Y-24091772D01*
X29083833Y-24141000D01*
X29336167Y-24141000D01*
X29583654Y-24091772D01*
X29816781Y-23995207D01*
X30026590Y-23855018D01*
X30082530Y-23799078D01*
X30969000Y-23799078D01*
X30969000Y-23952922D01*
X30999013Y-24103809D01*
X31057887Y-24245942D01*
X31143358Y-24373859D01*
X31252141Y-24482642D01*
X31380058Y-24568113D01*
X31522191Y-24626987D01*
X31673078Y-24657000D01*
X31826922Y-24657000D01*
X31977809Y-24626987D01*
X32119942Y-24568113D01*
X32247859Y-24482642D01*
X32356642Y-24373859D01*
X32366838Y-24358600D01*
X41124295Y-24358600D01*
X41148000Y-24360935D01*
X41171705Y-24358600D01*
X41171707Y-24358600D01*
X41242606Y-24351617D01*
X41333577Y-24324022D01*
X41417415Y-24279209D01*
X41490901Y-24218901D01*
X41506017Y-24200482D01*
X42069080Y-23637420D01*
X42087078Y-23641000D01*
X42240922Y-23641000D01*
X42391809Y-23610987D01*
X42533942Y-23552113D01*
X42661859Y-23466642D01*
X42770642Y-23357859D01*
X42856113Y-23229942D01*
X42914987Y-23087809D01*
X42945000Y-22936922D01*
X42945000Y-22783078D01*
X42914987Y-22632191D01*
X42856113Y-22490058D01*
X42770642Y-22362141D01*
X42661859Y-22253358D01*
X42533942Y-22167887D01*
X42391809Y-22109013D01*
X42240922Y-22079000D01*
X42087078Y-22079000D01*
X41936191Y-22109013D01*
X41794058Y-22167887D01*
X41666141Y-22253358D01*
X41557358Y-22362141D01*
X41471887Y-22490058D01*
X41413013Y-22632191D01*
X41383000Y-22783078D01*
X41383000Y-22936922D01*
X41386580Y-22954920D01*
X40948101Y-23393400D01*
X36893101Y-23393400D01*
X36928642Y-23357859D01*
X37014113Y-23229942D01*
X37072987Y-23087809D01*
X37103000Y-22936922D01*
X37103000Y-22783078D01*
X37072987Y-22632191D01*
X37014113Y-22490058D01*
X36928642Y-22362141D01*
X36819859Y-22253358D01*
X36804600Y-22243162D01*
X36804600Y-20519899D01*
X37497079Y-19827420D01*
X37515078Y-19831000D01*
X37668922Y-19831000D01*
X37819809Y-19800987D01*
X37961942Y-19742113D01*
X38089859Y-19656642D01*
X38198642Y-19547859D01*
X38284113Y-19419942D01*
X38342987Y-19277809D01*
X38353659Y-19224158D01*
X39773988Y-20644488D01*
X39789099Y-20662901D01*
X39862585Y-20723209D01*
X39946423Y-20768022D01*
X40037393Y-20795617D01*
X40132000Y-20804935D01*
X40155707Y-20802600D01*
X40531162Y-20802600D01*
X40541358Y-20817859D01*
X40650141Y-20926642D01*
X40778058Y-21012113D01*
X40920191Y-21070987D01*
X41071078Y-21101000D01*
X41224922Y-21101000D01*
X41375809Y-21070987D01*
X41517942Y-21012113D01*
X41645859Y-20926642D01*
X41656000Y-20916501D01*
X41666141Y-20926642D01*
X41794058Y-21012113D01*
X41936191Y-21070987D01*
X42087078Y-21101000D01*
X42240922Y-21101000D01*
X42391809Y-21070987D01*
X42533942Y-21012113D01*
X42661859Y-20926642D01*
X42770642Y-20817859D01*
X42856113Y-20689942D01*
X42914987Y-20547809D01*
X42945000Y-20396922D01*
X42945000Y-20243078D01*
X42914987Y-20092191D01*
X42856113Y-19950058D01*
X42770642Y-19822141D01*
X42661859Y-19713358D01*
X42533942Y-19627887D01*
X42391809Y-19569013D01*
X42240922Y-19539000D01*
X42087078Y-19539000D01*
X42069080Y-19542580D01*
X39598600Y-17072101D01*
X39598600Y-16510000D01*
X40663065Y-16510000D01*
X40665400Y-16533706D01*
X40665401Y-16994286D01*
X40663065Y-17018000D01*
X40672384Y-17112606D01*
X40699978Y-17203576D01*
X40699979Y-17203577D01*
X40744792Y-17287415D01*
X40805100Y-17360901D01*
X40823513Y-17376012D01*
X41839513Y-18392013D01*
X41839519Y-18392018D01*
X46253401Y-22805900D01*
X46253400Y-30964295D01*
X46251065Y-30988000D01*
X46253400Y-31011705D01*
X46253400Y-31011706D01*
X46260383Y-31082605D01*
X46287978Y-31173576D01*
X46332791Y-31257415D01*
X46393099Y-31330901D01*
X46411518Y-31346017D01*
X49171988Y-34106488D01*
X49187099Y-34124901D01*
X49260585Y-34185209D01*
X49344423Y-34230022D01*
X49435393Y-34257617D01*
X49530000Y-34266935D01*
X49553707Y-34264600D01*
X70842295Y-34264600D01*
X70866000Y-34266935D01*
X70889705Y-34264600D01*
X70889707Y-34264600D01*
X70960606Y-34257617D01*
X71051577Y-34230022D01*
X71135415Y-34185209D01*
X71208901Y-34124901D01*
X71224017Y-34106482D01*
X72714482Y-32616017D01*
X72732901Y-32600901D01*
X72793209Y-32527415D01*
X72838022Y-32443577D01*
X72865617Y-32352606D01*
X72872600Y-32281707D01*
X72872600Y-32281698D01*
X72874934Y-32258001D01*
X72872600Y-32234304D01*
X72872600Y-28139899D01*
X73072499Y-27940000D01*
X73693044Y-27940000D01*
X73716812Y-28181318D01*
X73787202Y-28413363D01*
X73901509Y-28627216D01*
X74055340Y-28814660D01*
X74242784Y-28968491D01*
X74456637Y-29082798D01*
X74688682Y-29153188D01*
X74869528Y-29171000D01*
X74990472Y-29171000D01*
X75171318Y-29153188D01*
X75403363Y-29082798D01*
X75617216Y-28968491D01*
X75804660Y-28814660D01*
X75958491Y-28627216D01*
X76072798Y-28413363D01*
X76143188Y-28181318D01*
X76166956Y-27940000D01*
X76143188Y-27698682D01*
X76072798Y-27466637D01*
X75958491Y-27252784D01*
X75804660Y-27065340D01*
X75617216Y-26911509D01*
X75403363Y-26797202D01*
X75171318Y-26726812D01*
X74990472Y-26709000D01*
X74869528Y-26709000D01*
X74688682Y-26726812D01*
X74456637Y-26797202D01*
X74242784Y-26911509D01*
X74055340Y-27065340D01*
X73901509Y-27252784D01*
X73787202Y-27466637D01*
X73716812Y-27698682D01*
X73693044Y-27940000D01*
X73072499Y-27940000D01*
X74466660Y-26545839D01*
X74688682Y-26613188D01*
X74869528Y-26631000D01*
X74990472Y-26631000D01*
X75171318Y-26613188D01*
X75403363Y-26542798D01*
X75617216Y-26428491D01*
X75804660Y-26274660D01*
X75958491Y-26087216D01*
X76067091Y-25884040D01*
X76073175Y-25904099D01*
X76198359Y-26166920D01*
X76372412Y-26400269D01*
X76588645Y-26595178D01*
X76838748Y-26744157D01*
X76993305Y-26798983D01*
X76782784Y-26911509D01*
X76595340Y-27065340D01*
X76441509Y-27252784D01*
X76327202Y-27466637D01*
X76256812Y-27698682D01*
X76233044Y-27940000D01*
X76256812Y-28181318D01*
X76327202Y-28413363D01*
X76441509Y-28627216D01*
X76595340Y-28814660D01*
X76782784Y-28968491D01*
X76996637Y-29082798D01*
X77228682Y-29153188D01*
X77409528Y-29171000D01*
X77530472Y-29171000D01*
X77711318Y-29153188D01*
X77943363Y-29082798D01*
X78157216Y-28968491D01*
X78344660Y-28814660D01*
X78498491Y-28627216D01*
X78612798Y-28413363D01*
X78683188Y-28181318D01*
X78706956Y-27940000D01*
X78683188Y-27698682D01*
X78612798Y-27466637D01*
X78498491Y-27252784D01*
X78344660Y-27065340D01*
X78157216Y-26911509D01*
X77946695Y-26798983D01*
X78101252Y-26744157D01*
X78351355Y-26595178D01*
X78567588Y-26400269D01*
X78741641Y-26166920D01*
X78866825Y-25904099D01*
X78911476Y-25756890D01*
X78790155Y-25527000D01*
X77597000Y-25527000D01*
X77597000Y-25547000D01*
X77343000Y-25547000D01*
X77343000Y-25527000D01*
X77323000Y-25527000D01*
X77323000Y-25273000D01*
X77343000Y-25273000D01*
X77343000Y-22987000D01*
X77597000Y-22987000D01*
X77597000Y-25273000D01*
X78790155Y-25273000D01*
X78911476Y-25043110D01*
X78866825Y-24895901D01*
X78741641Y-24633080D01*
X78567588Y-24399731D01*
X78351355Y-24204822D01*
X78225745Y-24130000D01*
X78351355Y-24055178D01*
X78567588Y-23860269D01*
X78741641Y-23626920D01*
X78866825Y-23364099D01*
X78911476Y-23216890D01*
X78790155Y-22987000D01*
X77597000Y-22987000D01*
X77343000Y-22987000D01*
X77323000Y-22987000D01*
X77323000Y-22733000D01*
X77343000Y-22733000D01*
X77343000Y-20447000D01*
X77597000Y-20447000D01*
X77597000Y-22733000D01*
X78790155Y-22733000D01*
X78911476Y-22503110D01*
X78866825Y-22355901D01*
X78741641Y-22093080D01*
X78567588Y-21859731D01*
X78351355Y-21664822D01*
X78225745Y-21590000D01*
X78351355Y-21515178D01*
X78567588Y-21320269D01*
X78741641Y-21086920D01*
X78866825Y-20824099D01*
X78911476Y-20676890D01*
X78790155Y-20447000D01*
X77597000Y-20447000D01*
X77343000Y-20447000D01*
X77323000Y-20447000D01*
X77323000Y-20193000D01*
X77343000Y-20193000D01*
X77343000Y-18999186D01*
X77597000Y-18999186D01*
X77597000Y-20193000D01*
X78790155Y-20193000D01*
X78911476Y-19963110D01*
X78866825Y-19815901D01*
X78741641Y-19553080D01*
X78567588Y-19319731D01*
X78351355Y-19124822D01*
X78101252Y-18975843D01*
X77826891Y-18878519D01*
X77597000Y-18999186D01*
X77343000Y-18999186D01*
X77113109Y-18878519D01*
X76838748Y-18975843D01*
X76588645Y-19124822D01*
X76372412Y-19319731D01*
X76198359Y-19553080D01*
X76162843Y-19627645D01*
X76162843Y-19470000D01*
X76155487Y-19395311D01*
X76133701Y-19323492D01*
X76098322Y-19257304D01*
X76050711Y-19199289D01*
X75992696Y-19151678D01*
X75926508Y-19116299D01*
X75854689Y-19094513D01*
X75780000Y-19087157D01*
X74080000Y-19087157D01*
X74005311Y-19094513D01*
X73933492Y-19116299D01*
X73867304Y-19151678D01*
X73809289Y-19199289D01*
X73761678Y-19257304D01*
X73726299Y-19323492D01*
X73704513Y-19395311D01*
X73697157Y-19470000D01*
X73697157Y-21170000D01*
X73704513Y-21244689D01*
X73726299Y-21316508D01*
X73761678Y-21382696D01*
X73809289Y-21440711D01*
X73867304Y-21488322D01*
X73933492Y-21523701D01*
X74005311Y-21545487D01*
X74080000Y-21552843D01*
X75780000Y-21552843D01*
X75854689Y-21545487D01*
X75926508Y-21523701D01*
X75992696Y-21488322D01*
X76050711Y-21440711D01*
X76098322Y-21382696D01*
X76133701Y-21316508D01*
X76155487Y-21244689D01*
X76162843Y-21170000D01*
X76162843Y-21012355D01*
X76198359Y-21086920D01*
X76372412Y-21320269D01*
X76588645Y-21515178D01*
X76714255Y-21590000D01*
X76588645Y-21664822D01*
X76372412Y-21859731D01*
X76198359Y-22093080D01*
X76073175Y-22355901D01*
X76067091Y-22375960D01*
X75958491Y-22172784D01*
X75804660Y-21985340D01*
X75617216Y-21831509D01*
X75403363Y-21717202D01*
X75171318Y-21646812D01*
X74990472Y-21629000D01*
X74869528Y-21629000D01*
X74688682Y-21646812D01*
X74456637Y-21717202D01*
X74242784Y-21831509D01*
X74055340Y-21985340D01*
X73901509Y-22172784D01*
X73787202Y-22386637D01*
X73716812Y-22618682D01*
X73693044Y-22860000D01*
X73716812Y-23101318D01*
X73784161Y-23323339D01*
X71557518Y-25549983D01*
X71539099Y-25565099D01*
X71478791Y-25638585D01*
X71433978Y-25722424D01*
X71406383Y-25813395D01*
X71400808Y-25870000D01*
X71397065Y-25908000D01*
X71399400Y-25931705D01*
X71399401Y-31804100D01*
X70412101Y-32791400D01*
X49983899Y-32791400D01*
X47726600Y-30534101D01*
X47726600Y-30162702D01*
X51256903Y-30162702D01*
X51328486Y-30406671D01*
X51583996Y-30527571D01*
X51858184Y-30596300D01*
X52140512Y-30610217D01*
X52420130Y-30568787D01*
X52686292Y-30473603D01*
X52811514Y-30406671D01*
X52883097Y-30162702D01*
X52070000Y-29349605D01*
X51256903Y-30162702D01*
X47726600Y-30162702D01*
X47726600Y-29240512D01*
X50629783Y-29240512D01*
X50671213Y-29520130D01*
X50766397Y-29786292D01*
X50833329Y-29911514D01*
X51077298Y-29983097D01*
X51890395Y-29170000D01*
X52249605Y-29170000D01*
X53062702Y-29983097D01*
X53306671Y-29911514D01*
X53427571Y-29656004D01*
X53496300Y-29381816D01*
X53501459Y-29277157D01*
X58429000Y-29277157D01*
X58429000Y-30412842D01*
X58448982Y-30615722D01*
X58527949Y-30876042D01*
X58656185Y-31115954D01*
X58828761Y-31326238D01*
X59039045Y-31498815D01*
X59278957Y-31627051D01*
X59539277Y-31706018D01*
X59810000Y-31732682D01*
X60080722Y-31706018D01*
X60341042Y-31627051D01*
X60580954Y-31498815D01*
X60791238Y-31326239D01*
X60963815Y-31115955D01*
X61092051Y-30876043D01*
X61171018Y-30615723D01*
X61191000Y-30412843D01*
X61191000Y-29277157D01*
X61171018Y-29074277D01*
X61092051Y-28813957D01*
X60963815Y-28574045D01*
X60791239Y-28363761D01*
X60768379Y-28345000D01*
X65927157Y-28345000D01*
X65927157Y-31345000D01*
X65934513Y-31419689D01*
X65956299Y-31491508D01*
X65991678Y-31557696D01*
X66039289Y-31615711D01*
X66097304Y-31663322D01*
X66163492Y-31698701D01*
X66235311Y-31720487D01*
X66310000Y-31727843D01*
X68310000Y-31727843D01*
X68384689Y-31720487D01*
X68456508Y-31698701D01*
X68522696Y-31663322D01*
X68580711Y-31615711D01*
X68628322Y-31557696D01*
X68663701Y-31491508D01*
X68685487Y-31419689D01*
X68692843Y-31345000D01*
X68692843Y-28345000D01*
X68685487Y-28270311D01*
X68663701Y-28198492D01*
X68628322Y-28132304D01*
X68580711Y-28074289D01*
X68522696Y-28026678D01*
X68456508Y-27991299D01*
X68384689Y-27969513D01*
X68310000Y-27962157D01*
X66310000Y-27962157D01*
X66235311Y-27969513D01*
X66163492Y-27991299D01*
X66097304Y-28026678D01*
X66039289Y-28074289D01*
X65991678Y-28132304D01*
X65956299Y-28198492D01*
X65934513Y-28270311D01*
X65927157Y-28345000D01*
X60768379Y-28345000D01*
X60580955Y-28191185D01*
X60341043Y-28062949D01*
X60080723Y-27983982D01*
X59810000Y-27957318D01*
X59539278Y-27983982D01*
X59278958Y-28062949D01*
X59039046Y-28191185D01*
X58828762Y-28363761D01*
X58656185Y-28574045D01*
X58527949Y-28813957D01*
X58448982Y-29074277D01*
X58429000Y-29277157D01*
X53501459Y-29277157D01*
X53510217Y-29099488D01*
X53468787Y-28819870D01*
X53373603Y-28553708D01*
X53306671Y-28428486D01*
X53062702Y-28356903D01*
X52249605Y-29170000D01*
X51890395Y-29170000D01*
X51077298Y-28356903D01*
X50833329Y-28428486D01*
X50712429Y-28683996D01*
X50643700Y-28958184D01*
X50629783Y-29240512D01*
X47726600Y-29240512D01*
X47726600Y-22121704D01*
X47728935Y-22097999D01*
X47723558Y-22043410D01*
X47719617Y-22003394D01*
X47692022Y-21912423D01*
X47647209Y-21828585D01*
X47586901Y-21755099D01*
X47568488Y-21739988D01*
X42687420Y-16858921D01*
X42691000Y-16840922D01*
X42691000Y-16687078D01*
X42660987Y-16536191D01*
X42602113Y-16394058D01*
X42516642Y-16266141D01*
X42465121Y-16214620D01*
X42533942Y-16186113D01*
X42661859Y-16100642D01*
X42770642Y-15991859D01*
X42856113Y-15863942D01*
X42914987Y-15721809D01*
X42945000Y-15570922D01*
X42945000Y-15417078D01*
X42914987Y-15266191D01*
X42856113Y-15124058D01*
X42770642Y-14996141D01*
X42661859Y-14887358D01*
X42533942Y-14801887D01*
X42391809Y-14743013D01*
X42240922Y-14713000D01*
X42087078Y-14713000D01*
X41936191Y-14743013D01*
X41794058Y-14801887D01*
X41666141Y-14887358D01*
X41557358Y-14996141D01*
X41471887Y-15124058D01*
X41413013Y-15266191D01*
X41383000Y-15417078D01*
X41383000Y-15570922D01*
X41386580Y-15588920D01*
X40823518Y-16151983D01*
X40805099Y-16167099D01*
X40744791Y-16240585D01*
X40699978Y-16324424D01*
X40672383Y-16415395D01*
X40665400Y-16486293D01*
X40663065Y-16510000D01*
X39598600Y-16510000D01*
X39598600Y-15856838D01*
X39613859Y-15846642D01*
X39722642Y-15737859D01*
X39808113Y-15609942D01*
X39866987Y-15467809D01*
X39897000Y-15316922D01*
X39897000Y-15163078D01*
X39866987Y-15012191D01*
X39808113Y-14870058D01*
X39722642Y-14742141D01*
X39613859Y-14633358D01*
X39485942Y-14547887D01*
X39343809Y-14489013D01*
X39192922Y-14459000D01*
X39039078Y-14459000D01*
X38888191Y-14489013D01*
X38746058Y-14547887D01*
X38618141Y-14633358D01*
X38509358Y-14742141D01*
X38499162Y-14757400D01*
X35837704Y-14757400D01*
X35813999Y-14755065D01*
X35790294Y-14757400D01*
X35790293Y-14757400D01*
X35719394Y-14764383D01*
X35628423Y-14791978D01*
X35544585Y-14836791D01*
X35471099Y-14897099D01*
X35455983Y-14915518D01*
X32606921Y-17764580D01*
X32588922Y-17761000D01*
X32435078Y-17761000D01*
X32284191Y-17791013D01*
X32142058Y-17849887D01*
X32014141Y-17935358D01*
X31905358Y-18044141D01*
X31819887Y-18172058D01*
X31761013Y-18314191D01*
X31731000Y-18465078D01*
X31731000Y-18618922D01*
X31761013Y-18769809D01*
X31819887Y-18911942D01*
X31905358Y-19039859D01*
X32014141Y-19148642D01*
X32142058Y-19234113D01*
X32284191Y-19292987D01*
X32435078Y-19323000D01*
X32588922Y-19323000D01*
X32739809Y-19292987D01*
X32881942Y-19234113D01*
X33009859Y-19148642D01*
X33118642Y-19039859D01*
X33204113Y-18911942D01*
X33262987Y-18769809D01*
X33293000Y-18618922D01*
X33293000Y-18465078D01*
X33289420Y-18447079D01*
X36013899Y-15722600D01*
X38499162Y-15722600D01*
X38509358Y-15737859D01*
X38618141Y-15846642D01*
X38633400Y-15856838D01*
X38633401Y-17248285D01*
X38631065Y-17272000D01*
X38640384Y-17366606D01*
X38667978Y-17457576D01*
X38712792Y-17541415D01*
X38749364Y-17585978D01*
X38773100Y-17614901D01*
X38791513Y-17630012D01*
X40786069Y-19624569D01*
X40778058Y-19627887D01*
X40650141Y-19713358D01*
X40541358Y-19822141D01*
X40531162Y-19837400D01*
X40331900Y-19837400D01*
X38458017Y-17963518D01*
X38442901Y-17945099D01*
X38369415Y-17884791D01*
X38285577Y-17839978D01*
X38194606Y-17812383D01*
X38123707Y-17805400D01*
X38123705Y-17805400D01*
X38100000Y-17803065D01*
X38076295Y-17805400D01*
X37107707Y-17805400D01*
X37084000Y-17803065D01*
X36989393Y-17812383D01*
X36898423Y-17839978D01*
X36814585Y-17884791D01*
X36741099Y-17945099D01*
X36725988Y-17963512D01*
X34852101Y-19837400D01*
X33128838Y-19837400D01*
X33118642Y-19822141D01*
X33009859Y-19713358D01*
X32881942Y-19627887D01*
X32739809Y-19569013D01*
X32588922Y-19539000D01*
X32435078Y-19539000D01*
X32284191Y-19569013D01*
X32142058Y-19627887D01*
X32014141Y-19713358D01*
X31905358Y-19822141D01*
X31819887Y-19950058D01*
X31761013Y-20092191D01*
X31731000Y-20243078D01*
X31731000Y-20396922D01*
X31761013Y-20547809D01*
X31819887Y-20689942D01*
X31905358Y-20817859D01*
X32014141Y-20926642D01*
X32142058Y-21012113D01*
X32284191Y-21070987D01*
X32435078Y-21101000D01*
X32588922Y-21101000D01*
X32739809Y-21070987D01*
X32881942Y-21012113D01*
X33009859Y-20926642D01*
X33118642Y-20817859D01*
X33128838Y-20802600D01*
X35028295Y-20802600D01*
X35052000Y-20804935D01*
X35075705Y-20802600D01*
X35075707Y-20802600D01*
X35146606Y-20795617D01*
X35237577Y-20768022D01*
X35321415Y-20723209D01*
X35394901Y-20662901D01*
X35410017Y-20644482D01*
X35853907Y-20200592D01*
X35846384Y-20225394D01*
X35837065Y-20320000D01*
X35839401Y-20343715D01*
X35839400Y-22243162D01*
X35824141Y-22253358D01*
X35715358Y-22362141D01*
X35629887Y-22490058D01*
X35571013Y-22632191D01*
X35541000Y-22783078D01*
X35541000Y-22936922D01*
X35571013Y-23087809D01*
X35629887Y-23229942D01*
X35715358Y-23357859D01*
X35750899Y-23393400D01*
X32366838Y-23393400D01*
X32356642Y-23378141D01*
X32247859Y-23269358D01*
X32119942Y-23183887D01*
X31977809Y-23125013D01*
X31826922Y-23095000D01*
X31673078Y-23095000D01*
X31522191Y-23125013D01*
X31380058Y-23183887D01*
X31252141Y-23269358D01*
X31143358Y-23378141D01*
X31057887Y-23506058D01*
X30999013Y-23648191D01*
X30969000Y-23799078D01*
X30082530Y-23799078D01*
X30205018Y-23676590D01*
X30345207Y-23466781D01*
X30441772Y-23233654D01*
X30491000Y-22986167D01*
X30491000Y-22733833D01*
X30441772Y-22486346D01*
X30345207Y-22253219D01*
X30205018Y-22043410D01*
X30026590Y-21864982D01*
X29816781Y-21724793D01*
X29583654Y-21628228D01*
X29336167Y-21579000D01*
X29083833Y-21579000D01*
X28836346Y-21628228D01*
X28603219Y-21724793D01*
X28393410Y-21864982D01*
X28214982Y-22043410D01*
X28074793Y-22253219D01*
X27978228Y-22486346D01*
X27929000Y-22733833D01*
X18042509Y-22733833D01*
X18008397Y-22494093D01*
X17908222Y-22208801D01*
X17828261Y-22059208D01*
X17574080Y-21975525D01*
X16689605Y-22860000D01*
X16330395Y-22860000D01*
X15445920Y-21975525D01*
X15191739Y-22059208D01*
X15060842Y-22331775D01*
X14985635Y-22624642D01*
X14969009Y-22926553D01*
X12827000Y-22926553D01*
X12827000Y-21795920D01*
X15625525Y-21795920D01*
X16510000Y-22680395D01*
X17394475Y-21795920D01*
X17310792Y-21541739D01*
X17038225Y-21410842D01*
X16745358Y-21335635D01*
X16443447Y-21319009D01*
X16144093Y-21361603D01*
X15858801Y-21461778D01*
X15709208Y-21541739D01*
X15625525Y-21795920D01*
X12827000Y-21795920D01*
X12827000Y-20193833D01*
X20309000Y-20193833D01*
X20309000Y-20446167D01*
X20358228Y-20693654D01*
X20454793Y-20926781D01*
X20594982Y-21136590D01*
X20773410Y-21315018D01*
X20983219Y-21455207D01*
X21216346Y-21551772D01*
X21463833Y-21601000D01*
X21716167Y-21601000D01*
X21963654Y-21551772D01*
X22196781Y-21455207D01*
X22406590Y-21315018D01*
X22585018Y-21136590D01*
X22725207Y-20926781D01*
X22821772Y-20693654D01*
X22871000Y-20446167D01*
X22871000Y-20193833D01*
X22821772Y-19946346D01*
X22725207Y-19713219D01*
X22585018Y-19503410D01*
X22406590Y-19324982D01*
X22196781Y-19184793D01*
X21963654Y-19088228D01*
X21716167Y-19039000D01*
X21463833Y-19039000D01*
X21216346Y-19088228D01*
X20983219Y-19184793D01*
X20773410Y-19324982D01*
X20594982Y-19503410D01*
X20454793Y-19713219D01*
X20358228Y-19946346D01*
X20309000Y-20193833D01*
X12827000Y-20193833D01*
X12827000Y-16304080D01*
X15625525Y-16304080D01*
X15709208Y-16558261D01*
X15981775Y-16689158D01*
X16274642Y-16764365D01*
X16576553Y-16780991D01*
X16875907Y-16738397D01*
X17161199Y-16638222D01*
X17310792Y-16558261D01*
X17394475Y-16304080D01*
X16510000Y-15419605D01*
X15625525Y-16304080D01*
X12827000Y-16304080D01*
X12827000Y-15306553D01*
X14969009Y-15306553D01*
X15011603Y-15605907D01*
X15111778Y-15891199D01*
X15191739Y-16040792D01*
X15445920Y-16124475D01*
X16330395Y-15240000D01*
X16689605Y-15240000D01*
X17574080Y-16124475D01*
X17828261Y-16040792D01*
X17959158Y-15768225D01*
X18034365Y-15475358D01*
X18050991Y-15173447D01*
X18042509Y-15113833D01*
X27929000Y-15113833D01*
X27929000Y-15366167D01*
X27978228Y-15613654D01*
X28074793Y-15846781D01*
X28214982Y-16056590D01*
X28393410Y-16235018D01*
X28603219Y-16375207D01*
X28836346Y-16471772D01*
X29083833Y-16521000D01*
X29336167Y-16521000D01*
X29583654Y-16471772D01*
X29816781Y-16375207D01*
X30026590Y-16235018D01*
X30205018Y-16056590D01*
X30345207Y-15846781D01*
X30441772Y-15613654D01*
X30491000Y-15366167D01*
X30491000Y-15113833D01*
X30441772Y-14866346D01*
X30345207Y-14633219D01*
X30205018Y-14423410D01*
X30026590Y-14244982D01*
X29816781Y-14104793D01*
X29583654Y-14008228D01*
X29336167Y-13959000D01*
X29083833Y-13959000D01*
X28836346Y-14008228D01*
X28603219Y-14104793D01*
X28393410Y-14244982D01*
X28214982Y-14423410D01*
X28074793Y-14633219D01*
X27978228Y-14866346D01*
X27929000Y-15113833D01*
X18042509Y-15113833D01*
X18008397Y-14874093D01*
X17908222Y-14588801D01*
X17828261Y-14439208D01*
X17574080Y-14355525D01*
X16689605Y-15240000D01*
X16330395Y-15240000D01*
X15445920Y-14355525D01*
X15191739Y-14439208D01*
X15060842Y-14711775D01*
X14985635Y-15004642D01*
X14969009Y-15306553D01*
X12827000Y-15306553D01*
X12827000Y-14175920D01*
X15625525Y-14175920D01*
X16510000Y-15060395D01*
X17394475Y-14175920D01*
X17310792Y-13921739D01*
X17038225Y-13790842D01*
X16745358Y-13715635D01*
X16443447Y-13699009D01*
X16144093Y-13741603D01*
X15858801Y-13841778D01*
X15709208Y-13921739D01*
X15625525Y-14175920D01*
X12827000Y-14175920D01*
X12827000Y-12573833D01*
X20309000Y-12573833D01*
X20309000Y-12826167D01*
X20358228Y-13073654D01*
X20454793Y-13306781D01*
X20594982Y-13516590D01*
X20773410Y-13695018D01*
X20983219Y-13835207D01*
X21216346Y-13931772D01*
X21463833Y-13981000D01*
X21716167Y-13981000D01*
X21963654Y-13931772D01*
X22196781Y-13835207D01*
X22406590Y-13695018D01*
X22585018Y-13516590D01*
X22725207Y-13306781D01*
X22776645Y-13182600D01*
X35790295Y-13182600D01*
X35814000Y-13184935D01*
X35837705Y-13182600D01*
X35837707Y-13182600D01*
X35908606Y-13175617D01*
X35999577Y-13148022D01*
X36083415Y-13103209D01*
X36156901Y-13042901D01*
X36172017Y-13024482D01*
X36319421Y-12877078D01*
X38335000Y-12877078D01*
X38335000Y-13030922D01*
X38365013Y-13181809D01*
X38423887Y-13323942D01*
X38509358Y-13451859D01*
X38618141Y-13560642D01*
X38746058Y-13646113D01*
X38888191Y-13704987D01*
X39039078Y-13735000D01*
X39192922Y-13735000D01*
X39343809Y-13704987D01*
X39485942Y-13646113D01*
X39613859Y-13560642D01*
X39722642Y-13451859D01*
X39732838Y-13436600D01*
X44504101Y-13436600D01*
X51292580Y-20225080D01*
X51289000Y-20243078D01*
X51289000Y-20396922D01*
X51319013Y-20547809D01*
X51377887Y-20689942D01*
X51384201Y-20699392D01*
X51384200Y-25487157D01*
X51270000Y-25487157D01*
X51195311Y-25494513D01*
X51123492Y-25516299D01*
X51057304Y-25551678D01*
X50999289Y-25599289D01*
X50951678Y-25657304D01*
X50916299Y-25723492D01*
X50894513Y-25795311D01*
X50887157Y-25870000D01*
X50887157Y-27470000D01*
X50894513Y-27544689D01*
X50916299Y-27616508D01*
X50951678Y-27682696D01*
X50999289Y-27740711D01*
X51057304Y-27788322D01*
X51123492Y-27823701D01*
X51195311Y-27845487D01*
X51270000Y-27852843D01*
X51491609Y-27852843D01*
X51453708Y-27866397D01*
X51328486Y-27933329D01*
X51256903Y-28177298D01*
X52070000Y-28990395D01*
X52883097Y-28177298D01*
X52811514Y-27933329D01*
X52641415Y-27852843D01*
X52870000Y-27852843D01*
X52944689Y-27845487D01*
X53016508Y-27823701D01*
X53082696Y-27788322D01*
X53140711Y-27740711D01*
X53188322Y-27682696D01*
X53223701Y-27616508D01*
X53245487Y-27544689D01*
X53252843Y-27470000D01*
X53252843Y-25870000D01*
X53245487Y-25795311D01*
X53223701Y-25723492D01*
X53188322Y-25657304D01*
X53140711Y-25599289D01*
X53082696Y-25551678D01*
X53016508Y-25516299D01*
X52944689Y-25494513D01*
X52870000Y-25487157D01*
X52755800Y-25487157D01*
X52755800Y-20699390D01*
X52762113Y-20689942D01*
X52820987Y-20547809D01*
X52851000Y-20396922D01*
X52851000Y-20243078D01*
X52820987Y-20092191D01*
X52762113Y-19950058D01*
X52676642Y-19822141D01*
X52567859Y-19713358D01*
X52439942Y-19627887D01*
X52297809Y-19569013D01*
X52146922Y-19539000D01*
X51993078Y-19539000D01*
X51975080Y-19542580D01*
X45062017Y-12629518D01*
X45046901Y-12611099D01*
X44973415Y-12550791D01*
X44889577Y-12505978D01*
X44798606Y-12478383D01*
X44727707Y-12471400D01*
X44727705Y-12471400D01*
X44704000Y-12469065D01*
X44680295Y-12471400D01*
X39732838Y-12471400D01*
X39722642Y-12456141D01*
X39613859Y-12347358D01*
X39485942Y-12261887D01*
X39343809Y-12203013D01*
X39192922Y-12173000D01*
X39039078Y-12173000D01*
X38888191Y-12203013D01*
X38746058Y-12261887D01*
X38618141Y-12347358D01*
X38509358Y-12456141D01*
X38423887Y-12584058D01*
X38365013Y-12726191D01*
X38335000Y-12877078D01*
X36319421Y-12877078D01*
X36989079Y-12207420D01*
X37007078Y-12211000D01*
X37160922Y-12211000D01*
X37311809Y-12180987D01*
X37453942Y-12122113D01*
X37581859Y-12036642D01*
X37690642Y-11927859D01*
X37776113Y-11799942D01*
X37834987Y-11657809D01*
X37865000Y-11506922D01*
X37865000Y-11353078D01*
X37834987Y-11202191D01*
X37776113Y-11060058D01*
X37690642Y-10932141D01*
X37581859Y-10823358D01*
X37453942Y-10737887D01*
X37311809Y-10679013D01*
X37160922Y-10649000D01*
X37007078Y-10649000D01*
X36856191Y-10679013D01*
X36714058Y-10737887D01*
X36586141Y-10823358D01*
X36477358Y-10932141D01*
X36391887Y-11060058D01*
X36333013Y-11202191D01*
X36303000Y-11353078D01*
X36303000Y-11506922D01*
X36306580Y-11524921D01*
X35614101Y-12217400D01*
X22776645Y-12217400D01*
X22725207Y-12093219D01*
X22585018Y-11883410D01*
X22406590Y-11704982D01*
X22196781Y-11564793D01*
X21963654Y-11468228D01*
X21716167Y-11419000D01*
X21463833Y-11419000D01*
X21216346Y-11468228D01*
X20983219Y-11564793D01*
X20773410Y-11704982D01*
X20594982Y-11883410D01*
X20454793Y-12093219D01*
X20358228Y-12326346D01*
X20309000Y-12573833D01*
X12827000Y-12573833D01*
X12827000Y-9575078D01*
X18269000Y-9575078D01*
X18269000Y-9728922D01*
X18299013Y-9879809D01*
X18357887Y-10021942D01*
X18443358Y-10149859D01*
X18552141Y-10258642D01*
X18680058Y-10344113D01*
X18822191Y-10402987D01*
X18973078Y-10433000D01*
X19126922Y-10433000D01*
X19277809Y-10402987D01*
X19419942Y-10344113D01*
X19547859Y-10258642D01*
X19656642Y-10149859D01*
X19666838Y-10134600D01*
X30456295Y-10134600D01*
X30480000Y-10136935D01*
X30503705Y-10134600D01*
X30503707Y-10134600D01*
X30574606Y-10127617D01*
X30665577Y-10100022D01*
X30749415Y-10055209D01*
X30822901Y-9994901D01*
X30838017Y-9976482D01*
X32417080Y-8397420D01*
X32435078Y-8401000D01*
X32588922Y-8401000D01*
X32739809Y-8370987D01*
X32881942Y-8312113D01*
X33009859Y-8226642D01*
X33118642Y-8117859D01*
X33204113Y-7989942D01*
X33262987Y-7847809D01*
X33293000Y-7696922D01*
X33293000Y-7543078D01*
X33262987Y-7392191D01*
X33204113Y-7250058D01*
X33118642Y-7122141D01*
X33009859Y-7013358D01*
X32881942Y-6927887D01*
X32739809Y-6869013D01*
X32588922Y-6839000D01*
X32435078Y-6839000D01*
X32284191Y-6869013D01*
X32142058Y-6927887D01*
X32014141Y-7013358D01*
X31905358Y-7122141D01*
X31819887Y-7250058D01*
X31761013Y-7392191D01*
X31731000Y-7543078D01*
X31731000Y-7696922D01*
X31734580Y-7714920D01*
X30280101Y-9169400D01*
X19666838Y-9169400D01*
X19656642Y-9154141D01*
X19547859Y-9045358D01*
X19419942Y-8959887D01*
X19277809Y-8901013D01*
X19126922Y-8871000D01*
X18973078Y-8871000D01*
X18822191Y-8901013D01*
X18680058Y-8959887D01*
X18552141Y-9045358D01*
X18443358Y-9154141D01*
X18357887Y-9282058D01*
X18299013Y-9424191D01*
X18269000Y-9575078D01*
X12827000Y-9575078D01*
X12827000Y-8684080D01*
X15625525Y-8684080D01*
X15709208Y-8938261D01*
X15981775Y-9069158D01*
X16274642Y-9144365D01*
X16576553Y-9160991D01*
X16875907Y-9118397D01*
X17161199Y-9018222D01*
X17310792Y-8938261D01*
X17394475Y-8684080D01*
X16510000Y-7799605D01*
X15625525Y-8684080D01*
X12827000Y-8684080D01*
X12827000Y-7686553D01*
X14969009Y-7686553D01*
X15011603Y-7985907D01*
X15111778Y-8271199D01*
X15191739Y-8420792D01*
X15445920Y-8504475D01*
X16330395Y-7620000D01*
X16689605Y-7620000D01*
X17574080Y-8504475D01*
X17828261Y-8420792D01*
X17959158Y-8148225D01*
X18034365Y-7855358D01*
X18050991Y-7553447D01*
X18042509Y-7493833D01*
X27929000Y-7493833D01*
X27929000Y-7746167D01*
X27978228Y-7993654D01*
X28074793Y-8226781D01*
X28214982Y-8436590D01*
X28393410Y-8615018D01*
X28603219Y-8755207D01*
X28836346Y-8851772D01*
X29083833Y-8901000D01*
X29336167Y-8901000D01*
X29583654Y-8851772D01*
X29816781Y-8755207D01*
X30026590Y-8615018D01*
X30205018Y-8436590D01*
X30345207Y-8226781D01*
X30441772Y-7993654D01*
X30491000Y-7746167D01*
X30491000Y-7493833D01*
X30441772Y-7246346D01*
X30345207Y-7013219D01*
X30205018Y-6803410D01*
X30026590Y-6624982D01*
X29816781Y-6484793D01*
X29583654Y-6388228D01*
X29336167Y-6339000D01*
X29083833Y-6339000D01*
X28836346Y-6388228D01*
X28603219Y-6484793D01*
X28393410Y-6624982D01*
X28214982Y-6803410D01*
X28074793Y-7013219D01*
X27978228Y-7246346D01*
X27929000Y-7493833D01*
X18042509Y-7493833D01*
X18008397Y-7254093D01*
X17908222Y-6968801D01*
X17828261Y-6819208D01*
X17574080Y-6735525D01*
X16689605Y-7620000D01*
X16330395Y-7620000D01*
X15445920Y-6735525D01*
X15191739Y-6819208D01*
X15060842Y-7091775D01*
X14985635Y-7384642D01*
X14969009Y-7686553D01*
X12827000Y-7686553D01*
X12827000Y-6555920D01*
X15625525Y-6555920D01*
X16510000Y-7440395D01*
X17394475Y-6555920D01*
X17310792Y-6301739D01*
X17038225Y-6170842D01*
X16745358Y-6095635D01*
X16443447Y-6079009D01*
X16144093Y-6121603D01*
X15858801Y-6221778D01*
X15709208Y-6301739D01*
X15625525Y-6555920D01*
X12827000Y-6555920D01*
X12827000Y-3733078D01*
X17253000Y-3733078D01*
X17253000Y-3886922D01*
X17283013Y-4037809D01*
X17341887Y-4179942D01*
X17427358Y-4307859D01*
X17536141Y-4416642D01*
X17664058Y-4502113D01*
X17806191Y-4560987D01*
X17957078Y-4591000D01*
X18110922Y-4591000D01*
X18261809Y-4560987D01*
X18403942Y-4502113D01*
X18531859Y-4416642D01*
X18640642Y-4307859D01*
X18650838Y-4292600D01*
X20575478Y-4292600D01*
X20454793Y-4473219D01*
X20358228Y-4706346D01*
X20309000Y-4953833D01*
X20309000Y-5206167D01*
X20358228Y-5453654D01*
X20454793Y-5686781D01*
X20594982Y-5896590D01*
X20773410Y-6075018D01*
X20983219Y-6215207D01*
X21216346Y-6311772D01*
X21463833Y-6361000D01*
X21716167Y-6361000D01*
X21963654Y-6311772D01*
X22057068Y-6273078D01*
X35541000Y-6273078D01*
X35541000Y-6426922D01*
X35571013Y-6577809D01*
X35629887Y-6719942D01*
X35715358Y-6847859D01*
X35824141Y-6956642D01*
X35952058Y-7042113D01*
X36094191Y-7100987D01*
X36245078Y-7131000D01*
X36398922Y-7131000D01*
X36549809Y-7100987D01*
X36691942Y-7042113D01*
X36819859Y-6956642D01*
X36928642Y-6847859D01*
X36938838Y-6832600D01*
X39678101Y-6832600D01*
X40157400Y-7311900D01*
X40157401Y-9882285D01*
X40155065Y-9906000D01*
X40164384Y-10000606D01*
X40191978Y-10091576D01*
X40223132Y-10149859D01*
X40236792Y-10175415D01*
X40297100Y-10248901D01*
X40315513Y-10264012D01*
X41386580Y-11335079D01*
X41383000Y-11353078D01*
X41383000Y-11506922D01*
X41413013Y-11657809D01*
X41471887Y-11799942D01*
X41557358Y-11927859D01*
X41666141Y-12036642D01*
X41794058Y-12122113D01*
X41936191Y-12180987D01*
X42087078Y-12211000D01*
X42240922Y-12211000D01*
X42391809Y-12180987D01*
X42533942Y-12122113D01*
X42661859Y-12036642D01*
X42770642Y-11927859D01*
X42856113Y-11799942D01*
X42914987Y-11657809D01*
X42945000Y-11506922D01*
X42945000Y-11353078D01*
X42914987Y-11202191D01*
X42856113Y-11060058D01*
X42770642Y-10932141D01*
X42661859Y-10823358D01*
X42619418Y-10795000D01*
X42661859Y-10766642D01*
X42770642Y-10657859D01*
X42856113Y-10529942D01*
X42914987Y-10387809D01*
X42945000Y-10236922D01*
X42945000Y-10083078D01*
X42914987Y-9932191D01*
X42856113Y-9790058D01*
X42770642Y-9662141D01*
X42661859Y-9553358D01*
X42533942Y-9467887D01*
X42391809Y-9409013D01*
X42240922Y-9379000D01*
X42087078Y-9379000D01*
X42069080Y-9382580D01*
X41630600Y-8944101D01*
X41630600Y-7533229D01*
X51189000Y-7533229D01*
X51189000Y-7706771D01*
X51222856Y-7876978D01*
X51289268Y-8037310D01*
X51384201Y-8179388D01*
X51384200Y-12666321D01*
X51380883Y-12700000D01*
X51384200Y-12733679D01*
X51384200Y-12733688D01*
X51394123Y-12834439D01*
X51433338Y-12963713D01*
X51492103Y-13073654D01*
X51497020Y-13082853D01*
X51550503Y-13148022D01*
X51582720Y-13187279D01*
X51608887Y-13208754D01*
X56396796Y-17996664D01*
X56399013Y-18007809D01*
X56457887Y-18149942D01*
X56543358Y-18277859D01*
X56652141Y-18386642D01*
X56780058Y-18472113D01*
X56922191Y-18530987D01*
X57073078Y-18561000D01*
X57226922Y-18561000D01*
X57377809Y-18530987D01*
X57519942Y-18472113D01*
X57647859Y-18386642D01*
X57756642Y-18277859D01*
X57842113Y-18149942D01*
X57900987Y-18007809D01*
X57931000Y-17856922D01*
X57931000Y-17703078D01*
X57900987Y-17552191D01*
X57842113Y-17410058D01*
X57756642Y-17282141D01*
X57647859Y-17173358D01*
X57519942Y-17087887D01*
X57377809Y-17029013D01*
X57366664Y-17026796D01*
X54924868Y-14585000D01*
X57922318Y-14585000D01*
X57948982Y-14855723D01*
X58027949Y-15116043D01*
X58156185Y-15355955D01*
X58328761Y-15566239D01*
X58539045Y-15738815D01*
X58778957Y-15867051D01*
X59039277Y-15946018D01*
X59242157Y-15966000D01*
X60377843Y-15966000D01*
X60580723Y-15946018D01*
X60841043Y-15867051D01*
X61080955Y-15738815D01*
X61291239Y-15566239D01*
X61463815Y-15355955D01*
X61592051Y-15116043D01*
X61671018Y-14855723D01*
X61697682Y-14585000D01*
X65422318Y-14585000D01*
X65448982Y-14855723D01*
X65527949Y-15116043D01*
X65656185Y-15355955D01*
X65828761Y-15566239D01*
X66039045Y-15738815D01*
X66278957Y-15867051D01*
X66539277Y-15946018D01*
X66742157Y-15966000D01*
X67877843Y-15966000D01*
X68080723Y-15946018D01*
X68341043Y-15867051D01*
X68580955Y-15738815D01*
X68791239Y-15566239D01*
X68963815Y-15355955D01*
X69092051Y-15116043D01*
X69171018Y-14855723D01*
X69197682Y-14585000D01*
X69171018Y-14314277D01*
X69092051Y-14053957D01*
X68963815Y-13814045D01*
X68791239Y-13603761D01*
X68580955Y-13431185D01*
X68341043Y-13302949D01*
X68080723Y-13223982D01*
X67877843Y-13204000D01*
X66742157Y-13204000D01*
X66539277Y-13223982D01*
X66278957Y-13302949D01*
X66039045Y-13431185D01*
X65828761Y-13603761D01*
X65656185Y-13814045D01*
X65527949Y-14053957D01*
X65448982Y-14314277D01*
X65422318Y-14585000D01*
X61697682Y-14585000D01*
X61671018Y-14314277D01*
X61592051Y-14053957D01*
X61463815Y-13814045D01*
X61291239Y-13603761D01*
X61080955Y-13431185D01*
X60841043Y-13302949D01*
X60580723Y-13223982D01*
X60377843Y-13204000D01*
X59242157Y-13204000D01*
X59039277Y-13223982D01*
X58778957Y-13302949D01*
X58539045Y-13431185D01*
X58328761Y-13603761D01*
X58156185Y-13814045D01*
X58027949Y-14053957D01*
X57948982Y-14314277D01*
X57922318Y-14585000D01*
X54924868Y-14585000D01*
X52755800Y-12415933D01*
X52755800Y-9545000D01*
X57922318Y-9545000D01*
X57948982Y-9815723D01*
X58027949Y-10076043D01*
X58156185Y-10315955D01*
X58328761Y-10526239D01*
X58539045Y-10698815D01*
X58778957Y-10827051D01*
X59039277Y-10906018D01*
X59242157Y-10926000D01*
X60377843Y-10926000D01*
X60580723Y-10906018D01*
X60841043Y-10827051D01*
X61080955Y-10698815D01*
X61291239Y-10526239D01*
X61463815Y-10315955D01*
X61592051Y-10076043D01*
X61671018Y-9815723D01*
X61697682Y-9545000D01*
X65422318Y-9545000D01*
X65448982Y-9815723D01*
X65527949Y-10076043D01*
X65656185Y-10315955D01*
X65828761Y-10526239D01*
X66039045Y-10698815D01*
X66278957Y-10827051D01*
X66539277Y-10906018D01*
X66742157Y-10926000D01*
X67877843Y-10926000D01*
X68080723Y-10906018D01*
X68341043Y-10827051D01*
X68580955Y-10698815D01*
X68791239Y-10526239D01*
X68963815Y-10315955D01*
X69092051Y-10076043D01*
X69171018Y-9815723D01*
X69197682Y-9545000D01*
X69171018Y-9274277D01*
X69092051Y-9013957D01*
X68963815Y-8774045D01*
X68791239Y-8563761D01*
X68580955Y-8391185D01*
X68341043Y-8262949D01*
X68080723Y-8183982D01*
X67877843Y-8164000D01*
X66742157Y-8164000D01*
X66539277Y-8183982D01*
X66278957Y-8262949D01*
X66039045Y-8391185D01*
X65828761Y-8563761D01*
X65656185Y-8774045D01*
X65527949Y-9013957D01*
X65448982Y-9274277D01*
X65422318Y-9545000D01*
X61697682Y-9545000D01*
X61671018Y-9274277D01*
X61592051Y-9013957D01*
X61463815Y-8774045D01*
X61291239Y-8563761D01*
X61080955Y-8391185D01*
X60841043Y-8262949D01*
X60580723Y-8183982D01*
X60377843Y-8164000D01*
X59242157Y-8164000D01*
X59039277Y-8183982D01*
X58778957Y-8262949D01*
X58539045Y-8391185D01*
X58328761Y-8563761D01*
X58156185Y-8774045D01*
X58027949Y-9013957D01*
X57948982Y-9274277D01*
X57922318Y-9545000D01*
X52755800Y-9545000D01*
X52755800Y-8179387D01*
X52850732Y-8037310D01*
X52917144Y-7876978D01*
X52951000Y-7706771D01*
X52951000Y-7533229D01*
X52935328Y-7454436D01*
X73249000Y-7454436D01*
X73249000Y-7785564D01*
X73313600Y-8110330D01*
X73440317Y-8416252D01*
X73624282Y-8691575D01*
X73858425Y-8925718D01*
X74133748Y-9109683D01*
X74439670Y-9236400D01*
X74764436Y-9301000D01*
X75095564Y-9301000D01*
X75420330Y-9236400D01*
X75726252Y-9109683D01*
X76001575Y-8925718D01*
X76235718Y-8691575D01*
X76419683Y-8416252D01*
X76546400Y-8110330D01*
X76611000Y-7785564D01*
X76611000Y-7454436D01*
X76546400Y-7129670D01*
X76419683Y-6823748D01*
X76235718Y-6548425D01*
X76007293Y-6320000D01*
X78327157Y-6320000D01*
X78327157Y-8920000D01*
X78334513Y-8994689D01*
X78356299Y-9066508D01*
X78391678Y-9132696D01*
X78439289Y-9190711D01*
X78497304Y-9238322D01*
X78563492Y-9273701D01*
X78635311Y-9295487D01*
X78710000Y-9302843D01*
X81310000Y-9302843D01*
X81384689Y-9295487D01*
X81456508Y-9273701D01*
X81522696Y-9238322D01*
X81580711Y-9190711D01*
X81628322Y-9132696D01*
X81663701Y-9066508D01*
X81685487Y-8994689D01*
X81692843Y-8920000D01*
X81692843Y-6320000D01*
X81685487Y-6245311D01*
X81663701Y-6173492D01*
X81628322Y-6107304D01*
X81580711Y-6049289D01*
X81522696Y-6001678D01*
X81456508Y-5966299D01*
X81384689Y-5944513D01*
X81310000Y-5937157D01*
X78710000Y-5937157D01*
X78635311Y-5944513D01*
X78563492Y-5966299D01*
X78497304Y-6001678D01*
X78439289Y-6049289D01*
X78391678Y-6107304D01*
X78356299Y-6173492D01*
X78334513Y-6245311D01*
X78327157Y-6320000D01*
X76007293Y-6320000D01*
X76001575Y-6314282D01*
X75726252Y-6130317D01*
X75420330Y-6003600D01*
X75095564Y-5939000D01*
X74764436Y-5939000D01*
X74439670Y-6003600D01*
X74133748Y-6130317D01*
X73858425Y-6314282D01*
X73624282Y-6548425D01*
X73440317Y-6823748D01*
X73313600Y-7129670D01*
X73249000Y-7454436D01*
X52935328Y-7454436D01*
X52917144Y-7363022D01*
X52850732Y-7202690D01*
X52754318Y-7058395D01*
X52631605Y-6935682D01*
X52487310Y-6839268D01*
X52326978Y-6772856D01*
X52156771Y-6739000D01*
X51983229Y-6739000D01*
X51813022Y-6772856D01*
X51652690Y-6839268D01*
X51508395Y-6935682D01*
X51385682Y-7058395D01*
X51289268Y-7202690D01*
X51222856Y-7363022D01*
X51189000Y-7533229D01*
X41630600Y-7533229D01*
X41630600Y-6966838D01*
X41645859Y-6956642D01*
X41754642Y-6847859D01*
X41840113Y-6719942D01*
X41898987Y-6577809D01*
X41929000Y-6426922D01*
X41929000Y-6273078D01*
X41898987Y-6122191D01*
X41840113Y-5980058D01*
X41754642Y-5852141D01*
X41645859Y-5743358D01*
X41517942Y-5657887D01*
X41375809Y-5599013D01*
X41224922Y-5569000D01*
X41071078Y-5569000D01*
X40920191Y-5599013D01*
X40778058Y-5657887D01*
X40650141Y-5743358D01*
X40541358Y-5852141D01*
X40455887Y-5980058D01*
X40397013Y-6122191D01*
X40386341Y-6175842D01*
X40236017Y-6025518D01*
X40220901Y-6007099D01*
X40147415Y-5946791D01*
X40063577Y-5901978D01*
X39972606Y-5874383D01*
X39901707Y-5867400D01*
X39901705Y-5867400D01*
X39878000Y-5865065D01*
X39854295Y-5867400D01*
X36938838Y-5867400D01*
X36928642Y-5852141D01*
X36819859Y-5743358D01*
X36691942Y-5657887D01*
X36549809Y-5599013D01*
X36398922Y-5569000D01*
X36245078Y-5569000D01*
X36094191Y-5599013D01*
X35952058Y-5657887D01*
X35824141Y-5743358D01*
X35715358Y-5852141D01*
X35629887Y-5980058D01*
X35571013Y-6122191D01*
X35541000Y-6273078D01*
X22057068Y-6273078D01*
X22196781Y-6215207D01*
X22406590Y-6075018D01*
X22585018Y-5896590D01*
X22725207Y-5686781D01*
X22776645Y-5562600D01*
X36298295Y-5562600D01*
X36322000Y-5564935D01*
X36345705Y-5562600D01*
X36345707Y-5562600D01*
X36416606Y-5555617D01*
X36507577Y-5528022D01*
X36591415Y-5483209D01*
X36664901Y-5422901D01*
X36680017Y-5404482D01*
X37497079Y-4587420D01*
X37515078Y-4591000D01*
X37668922Y-4591000D01*
X37819809Y-4560987D01*
X37954972Y-4505000D01*
X57922318Y-4505000D01*
X57948982Y-4775723D01*
X58027949Y-5036043D01*
X58156185Y-5275955D01*
X58328761Y-5486239D01*
X58539045Y-5658815D01*
X58778957Y-5787051D01*
X59039277Y-5866018D01*
X59242157Y-5886000D01*
X60377843Y-5886000D01*
X60580723Y-5866018D01*
X60841043Y-5787051D01*
X61080955Y-5658815D01*
X61291239Y-5486239D01*
X61463815Y-5275955D01*
X61592051Y-5036043D01*
X61671018Y-4775723D01*
X61697682Y-4505000D01*
X65422318Y-4505000D01*
X65448982Y-4775723D01*
X65527949Y-5036043D01*
X65656185Y-5275955D01*
X65828761Y-5486239D01*
X66039045Y-5658815D01*
X66278957Y-5787051D01*
X66539277Y-5866018D01*
X66742157Y-5886000D01*
X67877843Y-5886000D01*
X68080723Y-5866018D01*
X68341043Y-5787051D01*
X68580955Y-5658815D01*
X68791239Y-5486239D01*
X68963815Y-5275955D01*
X69092051Y-5036043D01*
X69171018Y-4775723D01*
X69197682Y-4505000D01*
X69171018Y-4234277D01*
X69092051Y-3973957D01*
X68963815Y-3734045D01*
X68791239Y-3523761D01*
X68580955Y-3351185D01*
X68341043Y-3222949D01*
X68080723Y-3143982D01*
X67877843Y-3124000D01*
X66742157Y-3124000D01*
X66539277Y-3143982D01*
X66278957Y-3222949D01*
X66039045Y-3351185D01*
X65828761Y-3523761D01*
X65656185Y-3734045D01*
X65527949Y-3973957D01*
X65448982Y-4234277D01*
X65422318Y-4505000D01*
X61697682Y-4505000D01*
X61671018Y-4234277D01*
X61592051Y-3973957D01*
X61463815Y-3734045D01*
X61291239Y-3523761D01*
X61080955Y-3351185D01*
X60841043Y-3222949D01*
X60580723Y-3143982D01*
X60377843Y-3124000D01*
X59242157Y-3124000D01*
X59039277Y-3143982D01*
X58778957Y-3222949D01*
X58539045Y-3351185D01*
X58328761Y-3523761D01*
X58156185Y-3734045D01*
X58027949Y-3973957D01*
X57948982Y-4234277D01*
X57922318Y-4505000D01*
X37954972Y-4505000D01*
X37961942Y-4502113D01*
X38089859Y-4416642D01*
X38198642Y-4307859D01*
X38284113Y-4179942D01*
X38342987Y-4037809D01*
X38373000Y-3886922D01*
X38373000Y-3733078D01*
X38342987Y-3582191D01*
X38284113Y-3440058D01*
X38198642Y-3312141D01*
X38089859Y-3203358D01*
X37961942Y-3117887D01*
X37819809Y-3059013D01*
X37668922Y-3029000D01*
X37515078Y-3029000D01*
X37364191Y-3059013D01*
X37222058Y-3117887D01*
X37094141Y-3203358D01*
X36985358Y-3312141D01*
X36899887Y-3440058D01*
X36841013Y-3582191D01*
X36811000Y-3733078D01*
X36811000Y-3886922D01*
X36814580Y-3904921D01*
X36122101Y-4597400D01*
X22776645Y-4597400D01*
X22725207Y-4473219D01*
X22604522Y-4292600D01*
X31895162Y-4292600D01*
X31905358Y-4307859D01*
X32014141Y-4416642D01*
X32142058Y-4502113D01*
X32284191Y-4560987D01*
X32435078Y-4591000D01*
X32588922Y-4591000D01*
X32739809Y-4560987D01*
X32881942Y-4502113D01*
X33009859Y-4416642D01*
X33118642Y-4307859D01*
X33204113Y-4179942D01*
X33262987Y-4037809D01*
X33293000Y-3886922D01*
X33293000Y-3733078D01*
X33262987Y-3582191D01*
X33204113Y-3440058D01*
X33118642Y-3312141D01*
X33009859Y-3203358D01*
X32881942Y-3117887D01*
X32739809Y-3059013D01*
X32588922Y-3029000D01*
X32435078Y-3029000D01*
X32284191Y-3059013D01*
X32142058Y-3117887D01*
X32014141Y-3203358D01*
X31905358Y-3312141D01*
X31895162Y-3327400D01*
X18650838Y-3327400D01*
X18640642Y-3312141D01*
X18531859Y-3203358D01*
X18403942Y-3117887D01*
X18261809Y-3059013D01*
X18110922Y-3029000D01*
X17957078Y-3029000D01*
X17806191Y-3059013D01*
X17664058Y-3117887D01*
X17536141Y-3203358D01*
X17427358Y-3312141D01*
X17341887Y-3440058D01*
X17283013Y-3582191D01*
X17253000Y-3733078D01*
X12827000Y-3733078D01*
X12827000Y-406000D01*
X86233000Y-406000D01*
X86233000Y-15442116D01*
M02*
