G04 #@! TF.GenerationSoftware,KiCad,Pcbnew,5.1.4*
G04 #@! TF.CreationDate,2019-11-15T14:10:00+00:00*
G04 #@! TF.ProjectId,BSPD,42535044-2e6b-4696-9361-645f70636258,rev?*
G04 #@! TF.SameCoordinates,PX3c8eee0PY3c8eee0*
G04 #@! TF.FileFunction,Soldermask,Top*
G04 #@! TF.FilePolarity,Negative*
%FSLAX46Y46*%
G04 Gerber Fmt 4.6, Leading zero omitted, Abs format (unit mm)*
G04 Created by KiCad (PCBNEW 5.1.4) date 2019-11-15 14:10:00*
%MOMM*%
%LPD*%
G04 APERTURE LIST*
%ADD10C,0.050000*%
%ADD11C,0.100000*%
G04 APERTURE END LIST*
D10*
X0Y0D02*
X96520000Y0D01*
X0Y-35560000D02*
X0Y0D01*
X96520000Y-35560000D02*
X0Y-35560000D01*
X96520000Y-35560000D02*
X96520000Y0D01*
D11*
G36*
X92074239Y-27291467D02*
G01*
X92388282Y-27353934D01*
X92979926Y-27599001D01*
X93350084Y-27846333D01*
X93512391Y-27954783D01*
X93965217Y-28407609D01*
X93988857Y-28442989D01*
X94320999Y-28940074D01*
X94566066Y-29531718D01*
X94614432Y-29774869D01*
X94691000Y-30159803D01*
X94691000Y-30800197D01*
X94659446Y-30958827D01*
X94566066Y-31428282D01*
X94320999Y-32019926D01*
X93965216Y-32552392D01*
X93512392Y-33005216D01*
X92979926Y-33360999D01*
X92388282Y-33606066D01*
X92074239Y-33668533D01*
X91760197Y-33731000D01*
X91119803Y-33731000D01*
X90805761Y-33668533D01*
X90491718Y-33606066D01*
X89900074Y-33360999D01*
X89367608Y-33005216D01*
X88914784Y-32552392D01*
X88559001Y-32019926D01*
X88313934Y-31428282D01*
X88220554Y-30958827D01*
X88189000Y-30800197D01*
X88189000Y-30159803D01*
X88265568Y-29774869D01*
X88313934Y-29531718D01*
X88559001Y-28940074D01*
X88891143Y-28442989D01*
X88914783Y-28407609D01*
X89367609Y-27954783D01*
X89529916Y-27846333D01*
X89900074Y-27599001D01*
X90491718Y-27353934D01*
X90805761Y-27291467D01*
X91119803Y-27229000D01*
X91760197Y-27229000D01*
X92074239Y-27291467D01*
X92074239Y-27291467D01*
G37*
G36*
X5714239Y-27291467D02*
G01*
X6028282Y-27353934D01*
X6619926Y-27599001D01*
X6990084Y-27846333D01*
X7152391Y-27954783D01*
X7605217Y-28407609D01*
X7628857Y-28442989D01*
X7960999Y-28940074D01*
X8206066Y-29531718D01*
X8254432Y-29774869D01*
X8331000Y-30159803D01*
X8331000Y-30800197D01*
X8299446Y-30958827D01*
X8206066Y-31428282D01*
X7960999Y-32019926D01*
X7605216Y-32552392D01*
X7152392Y-33005216D01*
X6619926Y-33360999D01*
X6028282Y-33606066D01*
X5714239Y-33668533D01*
X5400197Y-33731000D01*
X4759803Y-33731000D01*
X4445761Y-33668533D01*
X4131718Y-33606066D01*
X3540074Y-33360999D01*
X3007608Y-33005216D01*
X2554784Y-32552392D01*
X2199001Y-32019926D01*
X1953934Y-31428282D01*
X1860554Y-30958827D01*
X1829000Y-30800197D01*
X1829000Y-30159803D01*
X1905568Y-29774869D01*
X1953934Y-29531718D01*
X2199001Y-28940074D01*
X2531143Y-28442989D01*
X2554783Y-28407609D01*
X3007609Y-27954783D01*
X3169916Y-27846333D01*
X3540074Y-27599001D01*
X4131718Y-27353934D01*
X4445761Y-27291467D01*
X4759803Y-27229000D01*
X5400197Y-27229000D01*
X5714239Y-27291467D01*
X5714239Y-27291467D01*
G37*
G36*
X36011000Y-32346000D02*
G01*
X35109000Y-32346000D01*
X35109000Y-30344000D01*
X36011000Y-30344000D01*
X36011000Y-32346000D01*
X36011000Y-32346000D01*
G37*
G36*
X39821000Y-32346000D02*
G01*
X38919000Y-32346000D01*
X38919000Y-30344000D01*
X39821000Y-30344000D01*
X39821000Y-32346000D01*
X39821000Y-32346000D01*
G37*
G36*
X29487395Y-29565546D02*
G01*
X29660466Y-29637234D01*
X29660467Y-29637235D01*
X29816227Y-29741310D01*
X29948690Y-29873773D01*
X29948691Y-29873775D01*
X30052766Y-30029534D01*
X30124454Y-30202605D01*
X30161000Y-30386333D01*
X30161000Y-30573667D01*
X30124454Y-30757395D01*
X30052766Y-30930466D01*
X30051922Y-30931729D01*
X29948690Y-31086227D01*
X29816227Y-31218690D01*
X29737818Y-31271081D01*
X29660466Y-31322766D01*
X29487395Y-31394454D01*
X29303667Y-31431000D01*
X29116333Y-31431000D01*
X28932605Y-31394454D01*
X28759534Y-31322766D01*
X28682182Y-31271081D01*
X28603773Y-31218690D01*
X28471310Y-31086227D01*
X28368078Y-30931729D01*
X28367234Y-30930466D01*
X28295546Y-30757395D01*
X28259000Y-30573667D01*
X28259000Y-30386333D01*
X28295546Y-30202605D01*
X28367234Y-30029534D01*
X28471309Y-29873775D01*
X28471310Y-29873773D01*
X28603773Y-29741310D01*
X28759533Y-29637235D01*
X28759534Y-29637234D01*
X28932605Y-29565546D01*
X29116333Y-29529000D01*
X29303667Y-29529000D01*
X29487395Y-29565546D01*
X29487395Y-29565546D01*
G37*
G36*
X16787395Y-29565546D02*
G01*
X16960466Y-29637234D01*
X16960467Y-29637235D01*
X17116227Y-29741310D01*
X17248690Y-29873773D01*
X17248691Y-29873775D01*
X17352766Y-30029534D01*
X17424454Y-30202605D01*
X17461000Y-30386333D01*
X17461000Y-30573667D01*
X17424454Y-30757395D01*
X17352766Y-30930466D01*
X17351922Y-30931729D01*
X17248690Y-31086227D01*
X17116227Y-31218690D01*
X17037818Y-31271081D01*
X16960466Y-31322766D01*
X16787395Y-31394454D01*
X16603667Y-31431000D01*
X16416333Y-31431000D01*
X16232605Y-31394454D01*
X16059534Y-31322766D01*
X15982182Y-31271081D01*
X15903773Y-31218690D01*
X15771310Y-31086227D01*
X15668078Y-30931729D01*
X15667234Y-30930466D01*
X15595546Y-30757395D01*
X15559000Y-30573667D01*
X15559000Y-30386333D01*
X15595546Y-30202605D01*
X15667234Y-30029534D01*
X15771309Y-29873775D01*
X15771310Y-29873773D01*
X15903773Y-29741310D01*
X16059533Y-29637235D01*
X16059534Y-29637234D01*
X16232605Y-29565546D01*
X16416333Y-29529000D01*
X16603667Y-29529000D01*
X16787395Y-29565546D01*
X16787395Y-29565546D01*
G37*
G36*
X60016032Y-28309207D02*
G01*
X60156127Y-28351705D01*
X60214149Y-28369306D01*
X60301230Y-28415852D01*
X60396729Y-28466897D01*
X60556765Y-28598235D01*
X60688103Y-28758271D01*
X60725354Y-28827963D01*
X60785694Y-28940851D01*
X60785695Y-28940854D01*
X60845793Y-29138968D01*
X60861000Y-29293370D01*
X60861000Y-30396630D01*
X60845793Y-30551032D01*
X60785695Y-30749145D01*
X60785694Y-30749149D01*
X60758408Y-30800197D01*
X60688103Y-30931729D01*
X60556765Y-31091765D01*
X60396729Y-31223103D01*
X60280030Y-31285479D01*
X60214148Y-31320694D01*
X60214145Y-31320695D01*
X60016031Y-31380793D01*
X59810000Y-31401085D01*
X59603968Y-31380793D01*
X59405854Y-31320695D01*
X59405851Y-31320694D01*
X59309025Y-31268939D01*
X59223271Y-31223103D01*
X59063235Y-31091765D01*
X58931897Y-30931729D01*
X58869521Y-30815030D01*
X58834306Y-30749148D01*
X58781074Y-30573667D01*
X58774207Y-30551031D01*
X58759000Y-30396629D01*
X58759000Y-29293370D01*
X58762896Y-29253815D01*
X58774207Y-29138970D01*
X58834305Y-28940853D01*
X58922185Y-28776443D01*
X58931898Y-28758271D01*
X59063236Y-28598235D01*
X59223272Y-28466897D01*
X59318771Y-28415852D01*
X59405852Y-28369306D01*
X59463874Y-28351705D01*
X59603969Y-28309207D01*
X59810000Y-28288915D01*
X60016032Y-28309207D01*
X60016032Y-28309207D01*
G37*
G36*
X68361000Y-31396000D02*
G01*
X66259000Y-31396000D01*
X66259000Y-28294000D01*
X68361000Y-28294000D01*
X68361000Y-31396000D01*
X68361000Y-31396000D01*
G37*
G36*
X45938674Y-29733465D02*
G01*
X45976367Y-29744899D01*
X46011103Y-29763466D01*
X46041548Y-29788452D01*
X46066534Y-29818897D01*
X46085101Y-29853633D01*
X46096535Y-29891326D01*
X46101000Y-29936661D01*
X46101000Y-31023339D01*
X46096535Y-31068674D01*
X46085101Y-31106367D01*
X46066534Y-31141103D01*
X46041548Y-31171548D01*
X46011103Y-31196534D01*
X45976367Y-31215101D01*
X45938674Y-31226535D01*
X45893339Y-31231000D01*
X45056661Y-31231000D01*
X45011326Y-31226535D01*
X44973633Y-31215101D01*
X44938897Y-31196534D01*
X44908452Y-31171548D01*
X44883466Y-31141103D01*
X44864899Y-31106367D01*
X44853465Y-31068674D01*
X44849000Y-31023339D01*
X44849000Y-29936661D01*
X44853465Y-29891326D01*
X44864899Y-29853633D01*
X44883466Y-29818897D01*
X44908452Y-29788452D01*
X44938897Y-29763466D01*
X44973633Y-29744899D01*
X45011326Y-29733465D01*
X45056661Y-29729000D01*
X45893339Y-29729000D01*
X45938674Y-29733465D01*
X45938674Y-29733465D01*
G37*
G36*
X43888674Y-29733465D02*
G01*
X43926367Y-29744899D01*
X43961103Y-29763466D01*
X43991548Y-29788452D01*
X44016534Y-29818897D01*
X44035101Y-29853633D01*
X44046535Y-29891326D01*
X44051000Y-29936661D01*
X44051000Y-31023339D01*
X44046535Y-31068674D01*
X44035101Y-31106367D01*
X44016534Y-31141103D01*
X43991548Y-31171548D01*
X43961103Y-31196534D01*
X43926367Y-31215101D01*
X43888674Y-31226535D01*
X43843339Y-31231000D01*
X43006661Y-31231000D01*
X42961326Y-31226535D01*
X42923633Y-31215101D01*
X42888897Y-31196534D01*
X42858452Y-31171548D01*
X42833466Y-31141103D01*
X42814899Y-31106367D01*
X42803465Y-31068674D01*
X42799000Y-31023339D01*
X42799000Y-29936661D01*
X42803465Y-29891326D01*
X42814899Y-29853633D01*
X42833466Y-29818897D01*
X42858452Y-29788452D01*
X42888897Y-29763466D01*
X42923633Y-29744899D01*
X42961326Y-29733465D01*
X43006661Y-29729000D01*
X43843339Y-29729000D01*
X43888674Y-29733465D01*
X43888674Y-29733465D01*
G37*
G36*
X26253674Y-29733465D02*
G01*
X26291367Y-29744899D01*
X26326103Y-29763466D01*
X26356548Y-29788452D01*
X26381534Y-29818897D01*
X26400101Y-29853633D01*
X26411535Y-29891326D01*
X26416000Y-29936661D01*
X26416000Y-31023339D01*
X26411535Y-31068674D01*
X26400101Y-31106367D01*
X26381534Y-31141103D01*
X26356548Y-31171548D01*
X26326103Y-31196534D01*
X26291367Y-31215101D01*
X26253674Y-31226535D01*
X26208339Y-31231000D01*
X25371661Y-31231000D01*
X25326326Y-31226535D01*
X25288633Y-31215101D01*
X25253897Y-31196534D01*
X25223452Y-31171548D01*
X25198466Y-31141103D01*
X25179899Y-31106367D01*
X25168465Y-31068674D01*
X25164000Y-31023339D01*
X25164000Y-29936661D01*
X25168465Y-29891326D01*
X25179899Y-29853633D01*
X25198466Y-29818897D01*
X25223452Y-29788452D01*
X25253897Y-29763466D01*
X25288633Y-29744899D01*
X25326326Y-29733465D01*
X25371661Y-29729000D01*
X26208339Y-29729000D01*
X26253674Y-29733465D01*
X26253674Y-29733465D01*
G37*
G36*
X24203674Y-29733465D02*
G01*
X24241367Y-29744899D01*
X24276103Y-29763466D01*
X24306548Y-29788452D01*
X24331534Y-29818897D01*
X24350101Y-29853633D01*
X24361535Y-29891326D01*
X24366000Y-29936661D01*
X24366000Y-31023339D01*
X24361535Y-31068674D01*
X24350101Y-31106367D01*
X24331534Y-31141103D01*
X24306548Y-31171548D01*
X24276103Y-31196534D01*
X24241367Y-31215101D01*
X24203674Y-31226535D01*
X24158339Y-31231000D01*
X23321661Y-31231000D01*
X23276326Y-31226535D01*
X23238633Y-31215101D01*
X23203897Y-31196534D01*
X23173452Y-31171548D01*
X23148466Y-31141103D01*
X23129899Y-31106367D01*
X23118465Y-31068674D01*
X23114000Y-31023339D01*
X23114000Y-29936661D01*
X23118465Y-29891326D01*
X23129899Y-29853633D01*
X23148466Y-29818897D01*
X23173452Y-29788452D01*
X23203897Y-29763466D01*
X23238633Y-29744899D01*
X23276326Y-29733465D01*
X23321661Y-29729000D01*
X24158339Y-29729000D01*
X24203674Y-29733465D01*
X24203674Y-29733465D01*
G37*
G36*
X22443674Y-29733465D02*
G01*
X22481367Y-29744899D01*
X22516103Y-29763466D01*
X22546548Y-29788452D01*
X22571534Y-29818897D01*
X22590101Y-29853633D01*
X22601535Y-29891326D01*
X22606000Y-29936661D01*
X22606000Y-31023339D01*
X22601535Y-31068674D01*
X22590101Y-31106367D01*
X22571534Y-31141103D01*
X22546548Y-31171548D01*
X22516103Y-31196534D01*
X22481367Y-31215101D01*
X22443674Y-31226535D01*
X22398339Y-31231000D01*
X21561661Y-31231000D01*
X21516326Y-31226535D01*
X21478633Y-31215101D01*
X21443897Y-31196534D01*
X21413452Y-31171548D01*
X21388466Y-31141103D01*
X21369899Y-31106367D01*
X21358465Y-31068674D01*
X21354000Y-31023339D01*
X21354000Y-29936661D01*
X21358465Y-29891326D01*
X21369899Y-29853633D01*
X21388466Y-29818897D01*
X21413452Y-29788452D01*
X21443897Y-29763466D01*
X21478633Y-29744899D01*
X21516326Y-29733465D01*
X21561661Y-29729000D01*
X22398339Y-29729000D01*
X22443674Y-29733465D01*
X22443674Y-29733465D01*
G37*
G36*
X20393674Y-29733465D02*
G01*
X20431367Y-29744899D01*
X20466103Y-29763466D01*
X20496548Y-29788452D01*
X20521534Y-29818897D01*
X20540101Y-29853633D01*
X20551535Y-29891326D01*
X20556000Y-29936661D01*
X20556000Y-31023339D01*
X20551535Y-31068674D01*
X20540101Y-31106367D01*
X20521534Y-31141103D01*
X20496548Y-31171548D01*
X20466103Y-31196534D01*
X20431367Y-31215101D01*
X20393674Y-31226535D01*
X20348339Y-31231000D01*
X19511661Y-31231000D01*
X19466326Y-31226535D01*
X19428633Y-31215101D01*
X19393897Y-31196534D01*
X19363452Y-31171548D01*
X19338466Y-31141103D01*
X19319899Y-31106367D01*
X19308465Y-31068674D01*
X19304000Y-31023339D01*
X19304000Y-29936661D01*
X19308465Y-29891326D01*
X19319899Y-29853633D01*
X19338466Y-29818897D01*
X19363452Y-29788452D01*
X19393897Y-29763466D01*
X19428633Y-29744899D01*
X19466326Y-29733465D01*
X19511661Y-29729000D01*
X20348339Y-29729000D01*
X20393674Y-29733465D01*
X20393674Y-29733465D01*
G37*
G36*
X52318228Y-28351703D02*
G01*
X52473100Y-28415853D01*
X52612481Y-28508985D01*
X52731015Y-28627519D01*
X52824147Y-28766900D01*
X52888297Y-28921772D01*
X52921000Y-29086184D01*
X52921000Y-29253816D01*
X52888297Y-29418228D01*
X52824147Y-29573100D01*
X52731015Y-29712481D01*
X52612481Y-29831015D01*
X52473100Y-29924147D01*
X52318228Y-29988297D01*
X52153816Y-30021000D01*
X51986184Y-30021000D01*
X51821772Y-29988297D01*
X51666900Y-29924147D01*
X51527519Y-29831015D01*
X51408985Y-29712481D01*
X51315853Y-29573100D01*
X51251703Y-29418228D01*
X51219000Y-29253816D01*
X51219000Y-29086184D01*
X51251703Y-28921772D01*
X51315853Y-28766900D01*
X51408985Y-28627519D01*
X51527519Y-28508985D01*
X51666900Y-28415853D01*
X51821772Y-28351703D01*
X51986184Y-28319000D01*
X52153816Y-28319000D01*
X52318228Y-28351703D01*
X52318228Y-28351703D01*
G37*
G36*
X40771000Y-29346000D02*
G01*
X39869000Y-29346000D01*
X39869000Y-27344000D01*
X40771000Y-27344000D01*
X40771000Y-29346000D01*
X40771000Y-29346000D01*
G37*
G36*
X38871000Y-29346000D02*
G01*
X37969000Y-29346000D01*
X37969000Y-27344000D01*
X38871000Y-27344000D01*
X38871000Y-29346000D01*
X38871000Y-29346000D01*
G37*
G36*
X36961000Y-29346000D02*
G01*
X36059000Y-29346000D01*
X36059000Y-27344000D01*
X36961000Y-27344000D01*
X36961000Y-29346000D01*
X36961000Y-29346000D01*
G37*
G36*
X35061000Y-29346000D02*
G01*
X34159000Y-29346000D01*
X34159000Y-27344000D01*
X35061000Y-27344000D01*
X35061000Y-29346000D01*
X35061000Y-29346000D01*
G37*
G36*
X21867395Y-27025546D02*
G01*
X22040466Y-27097234D01*
X22112069Y-27145078D01*
X22196227Y-27201310D01*
X22328690Y-27333773D01*
X22360249Y-27381005D01*
X22432766Y-27489534D01*
X22504454Y-27662605D01*
X22541000Y-27846333D01*
X22541000Y-28033667D01*
X22504454Y-28217395D01*
X22432766Y-28390466D01*
X22415803Y-28415853D01*
X22328690Y-28546227D01*
X22196227Y-28678690D01*
X22175141Y-28692779D01*
X22040466Y-28782766D01*
X21867395Y-28854454D01*
X21683667Y-28891000D01*
X21496333Y-28891000D01*
X21312605Y-28854454D01*
X21139534Y-28782766D01*
X21004859Y-28692779D01*
X20983773Y-28678690D01*
X20851310Y-28546227D01*
X20764197Y-28415853D01*
X20747234Y-28390466D01*
X20675546Y-28217395D01*
X20639000Y-28033667D01*
X20639000Y-27846333D01*
X20675546Y-27662605D01*
X20747234Y-27489534D01*
X20819751Y-27381005D01*
X20851310Y-27333773D01*
X20983773Y-27201310D01*
X21067931Y-27145078D01*
X21139534Y-27097234D01*
X21312605Y-27025546D01*
X21496333Y-26989000D01*
X21683667Y-26989000D01*
X21867395Y-27025546D01*
X21867395Y-27025546D01*
G37*
G36*
X75040443Y-27045519D02*
G01*
X75106627Y-27052037D01*
X75276466Y-27103557D01*
X75432991Y-27187222D01*
X75441530Y-27194230D01*
X75570186Y-27299814D01*
X75649665Y-27396661D01*
X75682778Y-27437009D01*
X75766443Y-27593534D01*
X75817963Y-27763373D01*
X75835359Y-27940000D01*
X75817963Y-28116627D01*
X75766443Y-28286466D01*
X75682778Y-28442991D01*
X75663159Y-28466897D01*
X75570186Y-28580186D01*
X75491049Y-28645131D01*
X75432991Y-28692778D01*
X75276466Y-28776443D01*
X75106627Y-28827963D01*
X75040443Y-28834481D01*
X74974260Y-28841000D01*
X74885740Y-28841000D01*
X74819557Y-28834481D01*
X74753373Y-28827963D01*
X74583534Y-28776443D01*
X74427009Y-28692778D01*
X74368951Y-28645131D01*
X74289814Y-28580186D01*
X74196841Y-28466897D01*
X74177222Y-28442991D01*
X74093557Y-28286466D01*
X74042037Y-28116627D01*
X74024641Y-27940000D01*
X74042037Y-27763373D01*
X74093557Y-27593534D01*
X74177222Y-27437009D01*
X74210335Y-27396661D01*
X74289814Y-27299814D01*
X74418470Y-27194230D01*
X74427009Y-27187222D01*
X74583534Y-27103557D01*
X74753373Y-27052037D01*
X74819557Y-27045519D01*
X74885740Y-27039000D01*
X74974260Y-27039000D01*
X75040443Y-27045519D01*
X75040443Y-27045519D01*
G37*
G36*
X77580443Y-27045519D02*
G01*
X77646627Y-27052037D01*
X77816466Y-27103557D01*
X77972991Y-27187222D01*
X77981530Y-27194230D01*
X78110186Y-27299814D01*
X78189665Y-27396661D01*
X78222778Y-27437009D01*
X78306443Y-27593534D01*
X78357963Y-27763373D01*
X78375359Y-27940000D01*
X78357963Y-28116627D01*
X78306443Y-28286466D01*
X78222778Y-28442991D01*
X78203159Y-28466897D01*
X78110186Y-28580186D01*
X78031049Y-28645131D01*
X77972991Y-28692778D01*
X77816466Y-28776443D01*
X77646627Y-28827963D01*
X77580443Y-28834481D01*
X77514260Y-28841000D01*
X77425740Y-28841000D01*
X77359557Y-28834481D01*
X77293373Y-28827963D01*
X77123534Y-28776443D01*
X76967009Y-28692778D01*
X76908951Y-28645131D01*
X76829814Y-28580186D01*
X76736841Y-28466897D01*
X76717222Y-28442991D01*
X76633557Y-28286466D01*
X76582037Y-28116627D01*
X76564641Y-27940000D01*
X76582037Y-27763373D01*
X76633557Y-27593534D01*
X76717222Y-27437009D01*
X76750335Y-27396661D01*
X76829814Y-27299814D01*
X76958470Y-27194230D01*
X76967009Y-27187222D01*
X77123534Y-27103557D01*
X77293373Y-27052037D01*
X77359557Y-27045519D01*
X77425740Y-27039000D01*
X77514260Y-27039000D01*
X77580443Y-27045519D01*
X77580443Y-27045519D01*
G37*
G36*
X45938674Y-27193465D02*
G01*
X45976367Y-27204899D01*
X46011103Y-27223466D01*
X46041548Y-27248452D01*
X46066534Y-27278897D01*
X46085101Y-27313633D01*
X46096535Y-27351326D01*
X46101000Y-27396661D01*
X46101000Y-28483339D01*
X46096535Y-28528674D01*
X46085101Y-28566367D01*
X46066534Y-28601103D01*
X46041548Y-28631548D01*
X46011103Y-28656534D01*
X45976367Y-28675101D01*
X45938674Y-28686535D01*
X45893339Y-28691000D01*
X45056661Y-28691000D01*
X45011326Y-28686535D01*
X44973633Y-28675101D01*
X44938897Y-28656534D01*
X44908452Y-28631548D01*
X44883466Y-28601103D01*
X44864899Y-28566367D01*
X44853465Y-28528674D01*
X44849000Y-28483339D01*
X44849000Y-27396661D01*
X44853465Y-27351326D01*
X44864899Y-27313633D01*
X44883466Y-27278897D01*
X44908452Y-27248452D01*
X44938897Y-27223466D01*
X44973633Y-27204899D01*
X45011326Y-27193465D01*
X45056661Y-27189000D01*
X45893339Y-27189000D01*
X45938674Y-27193465D01*
X45938674Y-27193465D01*
G37*
G36*
X43888674Y-27193465D02*
G01*
X43926367Y-27204899D01*
X43961103Y-27223466D01*
X43991548Y-27248452D01*
X44016534Y-27278897D01*
X44035101Y-27313633D01*
X44046535Y-27351326D01*
X44051000Y-27396661D01*
X44051000Y-28483339D01*
X44046535Y-28528674D01*
X44035101Y-28566367D01*
X44016534Y-28601103D01*
X43991548Y-28631548D01*
X43961103Y-28656534D01*
X43926367Y-28675101D01*
X43888674Y-28686535D01*
X43843339Y-28691000D01*
X43006661Y-28691000D01*
X42961326Y-28686535D01*
X42923633Y-28675101D01*
X42888897Y-28656534D01*
X42858452Y-28631548D01*
X42833466Y-28601103D01*
X42814899Y-28566367D01*
X42803465Y-28528674D01*
X42799000Y-28483339D01*
X42799000Y-27396661D01*
X42803465Y-27351326D01*
X42814899Y-27313633D01*
X42833466Y-27278897D01*
X42858452Y-27248452D01*
X42888897Y-27223466D01*
X42923633Y-27204899D01*
X42961326Y-27193465D01*
X43006661Y-27189000D01*
X43843339Y-27189000D01*
X43888674Y-27193465D01*
X43888674Y-27193465D01*
G37*
G36*
X85891823Y-25831313D02*
G01*
X86022380Y-25870917D01*
X86048455Y-25878827D01*
X86052242Y-25879976D01*
X86170786Y-25943339D01*
X86200078Y-25958996D01*
X86329659Y-26065341D01*
X86436004Y-26194922D01*
X86436005Y-26194924D01*
X86515024Y-26342758D01*
X86563687Y-26503177D01*
X86580117Y-26670000D01*
X86563687Y-26836823D01*
X86515024Y-26997242D01*
X86458197Y-27103557D01*
X86436004Y-27145078D01*
X86329659Y-27274659D01*
X86200078Y-27381004D01*
X86200076Y-27381005D01*
X86052242Y-27460024D01*
X86052239Y-27460025D01*
X86022380Y-27469083D01*
X85891823Y-27508687D01*
X85766804Y-27521000D01*
X85683196Y-27521000D01*
X85558177Y-27508687D01*
X85427620Y-27469083D01*
X85397761Y-27460025D01*
X85397758Y-27460024D01*
X85249924Y-27381005D01*
X85249922Y-27381004D01*
X85120341Y-27274659D01*
X85013996Y-27145078D01*
X84991803Y-27103557D01*
X84934976Y-26997242D01*
X84886313Y-26836823D01*
X84869883Y-26670000D01*
X84886313Y-26503177D01*
X84934976Y-26342758D01*
X85013995Y-26194924D01*
X85013996Y-26194922D01*
X85120341Y-26065341D01*
X85249922Y-25958996D01*
X85279214Y-25943339D01*
X85397758Y-25879976D01*
X85401546Y-25878827D01*
X85427620Y-25870917D01*
X85558177Y-25831313D01*
X85683196Y-25819000D01*
X85766804Y-25819000D01*
X85891823Y-25831313D01*
X85891823Y-25831313D01*
G37*
G36*
X52921000Y-27521000D02*
G01*
X51219000Y-27521000D01*
X51219000Y-25819000D01*
X52921000Y-25819000D01*
X52921000Y-27521000D01*
X52921000Y-27521000D01*
G37*
G36*
X82716823Y-25831313D02*
G01*
X82847380Y-25870917D01*
X82873455Y-25878827D01*
X82877242Y-25879976D01*
X82995786Y-25943339D01*
X83025078Y-25958996D01*
X83154659Y-26065341D01*
X83261004Y-26194922D01*
X83261005Y-26194924D01*
X83340024Y-26342758D01*
X83388687Y-26503177D01*
X83405117Y-26670000D01*
X83388687Y-26836823D01*
X83340024Y-26997242D01*
X83283197Y-27103557D01*
X83261004Y-27145078D01*
X83154659Y-27274659D01*
X83025078Y-27381004D01*
X83025076Y-27381005D01*
X82877242Y-27460024D01*
X82877239Y-27460025D01*
X82847380Y-27469083D01*
X82716823Y-27508687D01*
X82591804Y-27521000D01*
X82508196Y-27521000D01*
X82383177Y-27508687D01*
X82252620Y-27469083D01*
X82222761Y-27460025D01*
X82222758Y-27460024D01*
X82074924Y-27381005D01*
X82074922Y-27381004D01*
X81945341Y-27274659D01*
X81838996Y-27145078D01*
X81816803Y-27103557D01*
X81759976Y-26997242D01*
X81711313Y-26836823D01*
X81694883Y-26670000D01*
X81711313Y-26503177D01*
X81759976Y-26342758D01*
X81838995Y-26194924D01*
X81838996Y-26194922D01*
X81945341Y-26065341D01*
X82074922Y-25958996D01*
X82104214Y-25943339D01*
X82222758Y-25879976D01*
X82226546Y-25878827D01*
X82252620Y-25870917D01*
X82383177Y-25831313D01*
X82508196Y-25819000D01*
X82591804Y-25819000D01*
X82716823Y-25831313D01*
X82716823Y-25831313D01*
G37*
G36*
X77580443Y-24505519D02*
G01*
X77646627Y-24512037D01*
X77816466Y-24563557D01*
X77972991Y-24647222D01*
X77981530Y-24654230D01*
X78110186Y-24759814D01*
X78189665Y-24856661D01*
X78222778Y-24897009D01*
X78306443Y-25053534D01*
X78357963Y-25223373D01*
X78375359Y-25400000D01*
X78357963Y-25576627D01*
X78306443Y-25746466D01*
X78222778Y-25902991D01*
X78199032Y-25931925D01*
X78110186Y-26040186D01*
X78017154Y-26116534D01*
X77972991Y-26152778D01*
X77816466Y-26236443D01*
X77646627Y-26287963D01*
X77580443Y-26294481D01*
X77514260Y-26301000D01*
X77425740Y-26301000D01*
X77359557Y-26294481D01*
X77293373Y-26287963D01*
X77123534Y-26236443D01*
X76967009Y-26152778D01*
X76922846Y-26116534D01*
X76829814Y-26040186D01*
X76740968Y-25931925D01*
X76717222Y-25902991D01*
X76633557Y-25746466D01*
X76582037Y-25576627D01*
X76564641Y-25400000D01*
X76582037Y-25223373D01*
X76633557Y-25053534D01*
X76717222Y-24897009D01*
X76750335Y-24856661D01*
X76829814Y-24759814D01*
X76958470Y-24654230D01*
X76967009Y-24647222D01*
X77123534Y-24563557D01*
X77293373Y-24512037D01*
X77359557Y-24505519D01*
X77425740Y-24499000D01*
X77514260Y-24499000D01*
X77580443Y-24505519D01*
X77580443Y-24505519D01*
G37*
G36*
X75040443Y-24505519D02*
G01*
X75106627Y-24512037D01*
X75276466Y-24563557D01*
X75432991Y-24647222D01*
X75441530Y-24654230D01*
X75570186Y-24759814D01*
X75649665Y-24856661D01*
X75682778Y-24897009D01*
X75766443Y-25053534D01*
X75817963Y-25223373D01*
X75835359Y-25400000D01*
X75817963Y-25576627D01*
X75766443Y-25746466D01*
X75682778Y-25902991D01*
X75659032Y-25931925D01*
X75570186Y-26040186D01*
X75477154Y-26116534D01*
X75432991Y-26152778D01*
X75276466Y-26236443D01*
X75106627Y-26287963D01*
X75040443Y-26294481D01*
X74974260Y-26301000D01*
X74885740Y-26301000D01*
X74819557Y-26294481D01*
X74753373Y-26287963D01*
X74583534Y-26236443D01*
X74427009Y-26152778D01*
X74382846Y-26116534D01*
X74289814Y-26040186D01*
X74200968Y-25931925D01*
X74177222Y-25902991D01*
X74093557Y-25746466D01*
X74042037Y-25576627D01*
X74024641Y-25400000D01*
X74042037Y-25223373D01*
X74093557Y-25053534D01*
X74177222Y-24897009D01*
X74210335Y-24856661D01*
X74289814Y-24759814D01*
X74418470Y-24654230D01*
X74427009Y-24647222D01*
X74583534Y-24563557D01*
X74753373Y-24512037D01*
X74819557Y-24505519D01*
X74885740Y-24499000D01*
X74974260Y-24499000D01*
X75040443Y-24505519D01*
X75040443Y-24505519D01*
G37*
G36*
X21823642Y-24629781D02*
G01*
X21953248Y-24683466D01*
X21969416Y-24690163D01*
X22100608Y-24777822D01*
X22212178Y-24889392D01*
X22233413Y-24921173D01*
X22299838Y-25020586D01*
X22360219Y-25166358D01*
X22391000Y-25321107D01*
X22391000Y-25478893D01*
X22360219Y-25633642D01*
X22299838Y-25779414D01*
X22299837Y-25779416D01*
X22212178Y-25910608D01*
X22100608Y-26022178D01*
X21969416Y-26109837D01*
X21969415Y-26109838D01*
X21969414Y-26109838D01*
X21823642Y-26170219D01*
X21668893Y-26201000D01*
X21511107Y-26201000D01*
X21356358Y-26170219D01*
X21210586Y-26109838D01*
X21210585Y-26109838D01*
X21210584Y-26109837D01*
X21079392Y-26022178D01*
X20967822Y-25910608D01*
X20880163Y-25779416D01*
X20880162Y-25779414D01*
X20819781Y-25633642D01*
X20789000Y-25478893D01*
X20789000Y-25321107D01*
X20819781Y-25166358D01*
X20880162Y-25020586D01*
X20946587Y-24921173D01*
X20967822Y-24889392D01*
X21079392Y-24777822D01*
X21210584Y-24690163D01*
X21226752Y-24683466D01*
X21356358Y-24629781D01*
X21511107Y-24599000D01*
X21668893Y-24599000D01*
X21823642Y-24629781D01*
X21823642Y-24629781D01*
G37*
G36*
X43888674Y-24653465D02*
G01*
X43926367Y-24664899D01*
X43961103Y-24683466D01*
X43991548Y-24708452D01*
X44016534Y-24738897D01*
X44035101Y-24773633D01*
X44046535Y-24811326D01*
X44051000Y-24856661D01*
X44051000Y-25943339D01*
X44046535Y-25988674D01*
X44035101Y-26026367D01*
X44016534Y-26061103D01*
X43991548Y-26091548D01*
X43961103Y-26116534D01*
X43926367Y-26135101D01*
X43888674Y-26146535D01*
X43843339Y-26151000D01*
X43006661Y-26151000D01*
X42961326Y-26146535D01*
X42923633Y-26135101D01*
X42888897Y-26116534D01*
X42858452Y-26091548D01*
X42833466Y-26061103D01*
X42814899Y-26026367D01*
X42803465Y-25988674D01*
X42799000Y-25943339D01*
X42799000Y-24856661D01*
X42803465Y-24811326D01*
X42814899Y-24773633D01*
X42833466Y-24738897D01*
X42858452Y-24708452D01*
X42888897Y-24683466D01*
X42923633Y-24664899D01*
X42961326Y-24653465D01*
X43006661Y-24649000D01*
X43843339Y-24649000D01*
X43888674Y-24653465D01*
X43888674Y-24653465D01*
G37*
G36*
X45938674Y-24653465D02*
G01*
X45976367Y-24664899D01*
X46011103Y-24683466D01*
X46041548Y-24708452D01*
X46066534Y-24738897D01*
X46085101Y-24773633D01*
X46096535Y-24811326D01*
X46101000Y-24856661D01*
X46101000Y-25943339D01*
X46096535Y-25988674D01*
X46085101Y-26026367D01*
X46066534Y-26061103D01*
X46041548Y-26091548D01*
X46011103Y-26116534D01*
X45976367Y-26135101D01*
X45938674Y-26146535D01*
X45893339Y-26151000D01*
X45056661Y-26151000D01*
X45011326Y-26146535D01*
X44973633Y-26135101D01*
X44938897Y-26116534D01*
X44908452Y-26091548D01*
X44883466Y-26061103D01*
X44864899Y-26026367D01*
X44853465Y-25988674D01*
X44849000Y-25943339D01*
X44849000Y-24856661D01*
X44853465Y-24811326D01*
X44864899Y-24773633D01*
X44883466Y-24738897D01*
X44908452Y-24708452D01*
X44938897Y-24683466D01*
X44973633Y-24664899D01*
X45011326Y-24653465D01*
X45056661Y-24649000D01*
X45893339Y-24649000D01*
X45938674Y-24653465D01*
X45938674Y-24653465D01*
G37*
G36*
X40239928Y-23781764D02*
G01*
X40261009Y-23788160D01*
X40280445Y-23798548D01*
X40297476Y-23812524D01*
X40311452Y-23829555D01*
X40321840Y-23848991D01*
X40328236Y-23870072D01*
X40331000Y-23898140D01*
X40331000Y-24361860D01*
X40328236Y-24389928D01*
X40321840Y-24411009D01*
X40311452Y-24430445D01*
X40297476Y-24447476D01*
X40280445Y-24461452D01*
X40261009Y-24471840D01*
X40239928Y-24478236D01*
X40211860Y-24481000D01*
X38398140Y-24481000D01*
X38370072Y-24478236D01*
X38348991Y-24471840D01*
X38329555Y-24461452D01*
X38312524Y-24447476D01*
X38298548Y-24430445D01*
X38288160Y-24411009D01*
X38281764Y-24389928D01*
X38279000Y-24361860D01*
X38279000Y-23898140D01*
X38281764Y-23870072D01*
X38288160Y-23848991D01*
X38298548Y-23829555D01*
X38312524Y-23812524D01*
X38329555Y-23798548D01*
X38348991Y-23788160D01*
X38370072Y-23781764D01*
X38398140Y-23779000D01*
X40211860Y-23779000D01*
X40239928Y-23781764D01*
X40239928Y-23781764D01*
G37*
G36*
X35289928Y-23781764D02*
G01*
X35311009Y-23788160D01*
X35330445Y-23798548D01*
X35347476Y-23812524D01*
X35361452Y-23829555D01*
X35371840Y-23848991D01*
X35378236Y-23870072D01*
X35381000Y-23898140D01*
X35381000Y-24361860D01*
X35378236Y-24389928D01*
X35371840Y-24411009D01*
X35361452Y-24430445D01*
X35347476Y-24447476D01*
X35330445Y-24461452D01*
X35311009Y-24471840D01*
X35289928Y-24478236D01*
X35261860Y-24481000D01*
X33448140Y-24481000D01*
X33420072Y-24478236D01*
X33398991Y-24471840D01*
X33379555Y-24461452D01*
X33362524Y-24447476D01*
X33348548Y-24430445D01*
X33338160Y-24411009D01*
X33331764Y-24389928D01*
X33329000Y-24361860D01*
X33329000Y-23898140D01*
X33331764Y-23870072D01*
X33338160Y-23848991D01*
X33348548Y-23829555D01*
X33362524Y-23812524D01*
X33379555Y-23798548D01*
X33398991Y-23788160D01*
X33420072Y-23781764D01*
X33448140Y-23779000D01*
X35261860Y-23779000D01*
X35289928Y-23781764D01*
X35289928Y-23781764D01*
G37*
G36*
X16787395Y-21945546D02*
G01*
X16960466Y-22017234D01*
X17037818Y-22068919D01*
X17116227Y-22121310D01*
X17248690Y-22253773D01*
X17248691Y-22253775D01*
X17352766Y-22409534D01*
X17424454Y-22582605D01*
X17461000Y-22766333D01*
X17461000Y-22953667D01*
X17424454Y-23137395D01*
X17352766Y-23310466D01*
X17352765Y-23310467D01*
X17248690Y-23466227D01*
X17116227Y-23598690D01*
X17095141Y-23612779D01*
X16960466Y-23702766D01*
X16787395Y-23774454D01*
X16603667Y-23811000D01*
X16416333Y-23811000D01*
X16232605Y-23774454D01*
X16059534Y-23702766D01*
X15924859Y-23612779D01*
X15903773Y-23598690D01*
X15771310Y-23466227D01*
X15667235Y-23310467D01*
X15667234Y-23310466D01*
X15595546Y-23137395D01*
X15559000Y-22953667D01*
X15559000Y-22766333D01*
X15595546Y-22582605D01*
X15667234Y-22409534D01*
X15771309Y-22253775D01*
X15771310Y-22253773D01*
X15903773Y-22121310D01*
X15982182Y-22068919D01*
X16059534Y-22017234D01*
X16232605Y-21945546D01*
X16416333Y-21909000D01*
X16603667Y-21909000D01*
X16787395Y-21945546D01*
X16787395Y-21945546D01*
G37*
G36*
X29487395Y-21945546D02*
G01*
X29660466Y-22017234D01*
X29737818Y-22068919D01*
X29816227Y-22121310D01*
X29948690Y-22253773D01*
X29948691Y-22253775D01*
X30052766Y-22409534D01*
X30124454Y-22582605D01*
X30161000Y-22766333D01*
X30161000Y-22953667D01*
X30124454Y-23137395D01*
X30052766Y-23310466D01*
X30052765Y-23310467D01*
X29948690Y-23466227D01*
X29816227Y-23598690D01*
X29795141Y-23612779D01*
X29660466Y-23702766D01*
X29487395Y-23774454D01*
X29303667Y-23811000D01*
X29116333Y-23811000D01*
X28932605Y-23774454D01*
X28759534Y-23702766D01*
X28624859Y-23612779D01*
X28603773Y-23598690D01*
X28471310Y-23466227D01*
X28367235Y-23310467D01*
X28367234Y-23310466D01*
X28295546Y-23137395D01*
X28259000Y-22953667D01*
X28259000Y-22766333D01*
X28295546Y-22582605D01*
X28367234Y-22409534D01*
X28471309Y-22253775D01*
X28471310Y-22253773D01*
X28603773Y-22121310D01*
X28682182Y-22068919D01*
X28759534Y-22017234D01*
X28932605Y-21945546D01*
X29116333Y-21909000D01*
X29303667Y-21909000D01*
X29487395Y-21945546D01*
X29487395Y-21945546D01*
G37*
G36*
X77580442Y-21965518D02*
G01*
X77646627Y-21972037D01*
X77816466Y-22023557D01*
X77972991Y-22107222D01*
X77981530Y-22114230D01*
X78110186Y-22219814D01*
X78189665Y-22316661D01*
X78222778Y-22357009D01*
X78306443Y-22513534D01*
X78357963Y-22683373D01*
X78375359Y-22860000D01*
X78357963Y-23036627D01*
X78306443Y-23206466D01*
X78222778Y-23362991D01*
X78199032Y-23391925D01*
X78110186Y-23500186D01*
X78031049Y-23565131D01*
X77972991Y-23612778D01*
X77816466Y-23696443D01*
X77646627Y-23747963D01*
X77580442Y-23754482D01*
X77514260Y-23761000D01*
X77425740Y-23761000D01*
X77359558Y-23754482D01*
X77293373Y-23747963D01*
X77123534Y-23696443D01*
X76967009Y-23612778D01*
X76908951Y-23565131D01*
X76829814Y-23500186D01*
X76740968Y-23391925D01*
X76717222Y-23362991D01*
X76633557Y-23206466D01*
X76582037Y-23036627D01*
X76564641Y-22860000D01*
X76582037Y-22683373D01*
X76633557Y-22513534D01*
X76717222Y-22357009D01*
X76750335Y-22316661D01*
X76829814Y-22219814D01*
X76958470Y-22114230D01*
X76967009Y-22107222D01*
X77123534Y-22023557D01*
X77293373Y-21972037D01*
X77359558Y-21965518D01*
X77425740Y-21959000D01*
X77514260Y-21959000D01*
X77580442Y-21965518D01*
X77580442Y-21965518D01*
G37*
G36*
X75040442Y-21965518D02*
G01*
X75106627Y-21972037D01*
X75276466Y-22023557D01*
X75432991Y-22107222D01*
X75441530Y-22114230D01*
X75570186Y-22219814D01*
X75649665Y-22316661D01*
X75682778Y-22357009D01*
X75766443Y-22513534D01*
X75817963Y-22683373D01*
X75835359Y-22860000D01*
X75817963Y-23036627D01*
X75766443Y-23206466D01*
X75682778Y-23362991D01*
X75659032Y-23391925D01*
X75570186Y-23500186D01*
X75491049Y-23565131D01*
X75432991Y-23612778D01*
X75276466Y-23696443D01*
X75106627Y-23747963D01*
X75040442Y-23754482D01*
X74974260Y-23761000D01*
X74885740Y-23761000D01*
X74819558Y-23754482D01*
X74753373Y-23747963D01*
X74583534Y-23696443D01*
X74427009Y-23612778D01*
X74368951Y-23565131D01*
X74289814Y-23500186D01*
X74200968Y-23391925D01*
X74177222Y-23362991D01*
X74093557Y-23206466D01*
X74042037Y-23036627D01*
X74024641Y-22860000D01*
X74042037Y-22683373D01*
X74093557Y-22513534D01*
X74177222Y-22357009D01*
X74210335Y-22316661D01*
X74289814Y-22219814D01*
X74418470Y-22114230D01*
X74427009Y-22107222D01*
X74583534Y-22023557D01*
X74753373Y-21972037D01*
X74819558Y-21965518D01*
X74885740Y-21959000D01*
X74974260Y-21959000D01*
X75040442Y-21965518D01*
X75040442Y-21965518D01*
G37*
G36*
X43888674Y-22113465D02*
G01*
X43926367Y-22124899D01*
X43961103Y-22143466D01*
X43991548Y-22168452D01*
X44016534Y-22198897D01*
X44035101Y-22233633D01*
X44046535Y-22271326D01*
X44051000Y-22316661D01*
X44051000Y-23403339D01*
X44046535Y-23448674D01*
X44035101Y-23486367D01*
X44016534Y-23521103D01*
X43991548Y-23551548D01*
X43961103Y-23576534D01*
X43926367Y-23595101D01*
X43888674Y-23606535D01*
X43843339Y-23611000D01*
X43006661Y-23611000D01*
X42961326Y-23606535D01*
X42923633Y-23595101D01*
X42888897Y-23576534D01*
X42858452Y-23551548D01*
X42833466Y-23521103D01*
X42814899Y-23486367D01*
X42803465Y-23448674D01*
X42799000Y-23403339D01*
X42799000Y-22316661D01*
X42803465Y-22271326D01*
X42814899Y-22233633D01*
X42833466Y-22198897D01*
X42858452Y-22168452D01*
X42888897Y-22143466D01*
X42923633Y-22124899D01*
X42961326Y-22113465D01*
X43006661Y-22109000D01*
X43843339Y-22109000D01*
X43888674Y-22113465D01*
X43888674Y-22113465D01*
G37*
G36*
X24203674Y-22113465D02*
G01*
X24241367Y-22124899D01*
X24276103Y-22143466D01*
X24306548Y-22168452D01*
X24331534Y-22198897D01*
X24350101Y-22233633D01*
X24361535Y-22271326D01*
X24366000Y-22316661D01*
X24366000Y-23403339D01*
X24361535Y-23448674D01*
X24350101Y-23486367D01*
X24331534Y-23521103D01*
X24306548Y-23551548D01*
X24276103Y-23576534D01*
X24241367Y-23595101D01*
X24203674Y-23606535D01*
X24158339Y-23611000D01*
X23321661Y-23611000D01*
X23276326Y-23606535D01*
X23238633Y-23595101D01*
X23203897Y-23576534D01*
X23173452Y-23551548D01*
X23148466Y-23521103D01*
X23129899Y-23486367D01*
X23118465Y-23448674D01*
X23114000Y-23403339D01*
X23114000Y-22316661D01*
X23118465Y-22271326D01*
X23129899Y-22233633D01*
X23148466Y-22198897D01*
X23173452Y-22168452D01*
X23203897Y-22143466D01*
X23238633Y-22124899D01*
X23276326Y-22113465D01*
X23321661Y-22109000D01*
X24158339Y-22109000D01*
X24203674Y-22113465D01*
X24203674Y-22113465D01*
G37*
G36*
X26253674Y-22113465D02*
G01*
X26291367Y-22124899D01*
X26326103Y-22143466D01*
X26356548Y-22168452D01*
X26381534Y-22198897D01*
X26400101Y-22233633D01*
X26411535Y-22271326D01*
X26416000Y-22316661D01*
X26416000Y-23403339D01*
X26411535Y-23448674D01*
X26400101Y-23486367D01*
X26381534Y-23521103D01*
X26356548Y-23551548D01*
X26326103Y-23576534D01*
X26291367Y-23595101D01*
X26253674Y-23606535D01*
X26208339Y-23611000D01*
X25371661Y-23611000D01*
X25326326Y-23606535D01*
X25288633Y-23595101D01*
X25253897Y-23576534D01*
X25223452Y-23551548D01*
X25198466Y-23521103D01*
X25179899Y-23486367D01*
X25168465Y-23448674D01*
X25164000Y-23403339D01*
X25164000Y-22316661D01*
X25168465Y-22271326D01*
X25179899Y-22233633D01*
X25198466Y-22198897D01*
X25223452Y-22168452D01*
X25253897Y-22143466D01*
X25288633Y-22124899D01*
X25326326Y-22113465D01*
X25371661Y-22109000D01*
X26208339Y-22109000D01*
X26253674Y-22113465D01*
X26253674Y-22113465D01*
G37*
G36*
X20393674Y-22113465D02*
G01*
X20431367Y-22124899D01*
X20466103Y-22143466D01*
X20496548Y-22168452D01*
X20521534Y-22198897D01*
X20540101Y-22233633D01*
X20551535Y-22271326D01*
X20556000Y-22316661D01*
X20556000Y-23403339D01*
X20551535Y-23448674D01*
X20540101Y-23486367D01*
X20521534Y-23521103D01*
X20496548Y-23551548D01*
X20466103Y-23576534D01*
X20431367Y-23595101D01*
X20393674Y-23606535D01*
X20348339Y-23611000D01*
X19511661Y-23611000D01*
X19466326Y-23606535D01*
X19428633Y-23595101D01*
X19393897Y-23576534D01*
X19363452Y-23551548D01*
X19338466Y-23521103D01*
X19319899Y-23486367D01*
X19308465Y-23448674D01*
X19304000Y-23403339D01*
X19304000Y-22316661D01*
X19308465Y-22271326D01*
X19319899Y-22233633D01*
X19338466Y-22198897D01*
X19363452Y-22168452D01*
X19393897Y-22143466D01*
X19428633Y-22124899D01*
X19466326Y-22113465D01*
X19511661Y-22109000D01*
X20348339Y-22109000D01*
X20393674Y-22113465D01*
X20393674Y-22113465D01*
G37*
G36*
X22443674Y-22113465D02*
G01*
X22481367Y-22124899D01*
X22516103Y-22143466D01*
X22546548Y-22168452D01*
X22571534Y-22198897D01*
X22590101Y-22233633D01*
X22601535Y-22271326D01*
X22606000Y-22316661D01*
X22606000Y-23403339D01*
X22601535Y-23448674D01*
X22590101Y-23486367D01*
X22571534Y-23521103D01*
X22546548Y-23551548D01*
X22516103Y-23576534D01*
X22481367Y-23595101D01*
X22443674Y-23606535D01*
X22398339Y-23611000D01*
X21561661Y-23611000D01*
X21516326Y-23606535D01*
X21478633Y-23595101D01*
X21443897Y-23576534D01*
X21413452Y-23551548D01*
X21388466Y-23521103D01*
X21369899Y-23486367D01*
X21358465Y-23448674D01*
X21354000Y-23403339D01*
X21354000Y-22316661D01*
X21358465Y-22271326D01*
X21369899Y-22233633D01*
X21388466Y-22198897D01*
X21413452Y-22168452D01*
X21443897Y-22143466D01*
X21478633Y-22124899D01*
X21516326Y-22113465D01*
X21561661Y-22109000D01*
X22398339Y-22109000D01*
X22443674Y-22113465D01*
X22443674Y-22113465D01*
G37*
G36*
X45938674Y-22113465D02*
G01*
X45976367Y-22124899D01*
X46011103Y-22143466D01*
X46041548Y-22168452D01*
X46066534Y-22198897D01*
X46085101Y-22233633D01*
X46096535Y-22271326D01*
X46101000Y-22316661D01*
X46101000Y-23403339D01*
X46096535Y-23448674D01*
X46085101Y-23486367D01*
X46066534Y-23521103D01*
X46041548Y-23551548D01*
X46011103Y-23576534D01*
X45976367Y-23595101D01*
X45938674Y-23606535D01*
X45893339Y-23611000D01*
X45056661Y-23611000D01*
X45011326Y-23606535D01*
X44973633Y-23595101D01*
X44938897Y-23576534D01*
X44908452Y-23551548D01*
X44883466Y-23521103D01*
X44864899Y-23486367D01*
X44853465Y-23448674D01*
X44849000Y-23403339D01*
X44849000Y-22316661D01*
X44853465Y-22271326D01*
X44864899Y-22233633D01*
X44883466Y-22198897D01*
X44908452Y-22168452D01*
X44938897Y-22143466D01*
X44973633Y-22124899D01*
X45011326Y-22113465D01*
X45056661Y-22109000D01*
X45893339Y-22109000D01*
X45938674Y-22113465D01*
X45938674Y-22113465D01*
G37*
G36*
X40239928Y-22511764D02*
G01*
X40261009Y-22518160D01*
X40280445Y-22528548D01*
X40297476Y-22542524D01*
X40311452Y-22559555D01*
X40321840Y-22578991D01*
X40328236Y-22600072D01*
X40331000Y-22628140D01*
X40331000Y-23091860D01*
X40328236Y-23119928D01*
X40321840Y-23141009D01*
X40311452Y-23160445D01*
X40297476Y-23177476D01*
X40280445Y-23191452D01*
X40261009Y-23201840D01*
X40239928Y-23208236D01*
X40211860Y-23211000D01*
X38398140Y-23211000D01*
X38370072Y-23208236D01*
X38348991Y-23201840D01*
X38329555Y-23191452D01*
X38312524Y-23177476D01*
X38298548Y-23160445D01*
X38288160Y-23141009D01*
X38281764Y-23119928D01*
X38279000Y-23091860D01*
X38279000Y-22628140D01*
X38281764Y-22600072D01*
X38288160Y-22578991D01*
X38298548Y-22559555D01*
X38312524Y-22542524D01*
X38329555Y-22528548D01*
X38348991Y-22518160D01*
X38370072Y-22511764D01*
X38398140Y-22509000D01*
X40211860Y-22509000D01*
X40239928Y-22511764D01*
X40239928Y-22511764D01*
G37*
G36*
X35289928Y-22511764D02*
G01*
X35311009Y-22518160D01*
X35330445Y-22528548D01*
X35347476Y-22542524D01*
X35361452Y-22559555D01*
X35371840Y-22578991D01*
X35378236Y-22600072D01*
X35381000Y-22628140D01*
X35381000Y-23091860D01*
X35378236Y-23119928D01*
X35371840Y-23141009D01*
X35361452Y-23160445D01*
X35347476Y-23177476D01*
X35330445Y-23191452D01*
X35311009Y-23201840D01*
X35289928Y-23208236D01*
X35261860Y-23211000D01*
X33448140Y-23211000D01*
X33420072Y-23208236D01*
X33398991Y-23201840D01*
X33379555Y-23191452D01*
X33362524Y-23177476D01*
X33348548Y-23160445D01*
X33338160Y-23141009D01*
X33331764Y-23119928D01*
X33329000Y-23091860D01*
X33329000Y-22628140D01*
X33331764Y-22600072D01*
X33338160Y-22578991D01*
X33348548Y-22559555D01*
X33362524Y-22542524D01*
X33379555Y-22528548D01*
X33398991Y-22518160D01*
X33420072Y-22511764D01*
X33448140Y-22509000D01*
X35261860Y-22509000D01*
X35289928Y-22511764D01*
X35289928Y-22511764D01*
G37*
G36*
X35289928Y-21241764D02*
G01*
X35311009Y-21248160D01*
X35330445Y-21258548D01*
X35347476Y-21272524D01*
X35361452Y-21289555D01*
X35371840Y-21308991D01*
X35378236Y-21330072D01*
X35381000Y-21358140D01*
X35381000Y-21821860D01*
X35378236Y-21849928D01*
X35371840Y-21871009D01*
X35361452Y-21890445D01*
X35347476Y-21907476D01*
X35330445Y-21921452D01*
X35311009Y-21931840D01*
X35289928Y-21938236D01*
X35261860Y-21941000D01*
X33448140Y-21941000D01*
X33420072Y-21938236D01*
X33398991Y-21931840D01*
X33379555Y-21921452D01*
X33362524Y-21907476D01*
X33348548Y-21890445D01*
X33338160Y-21871009D01*
X33331764Y-21849928D01*
X33329000Y-21821860D01*
X33329000Y-21358140D01*
X33331764Y-21330072D01*
X33338160Y-21308991D01*
X33348548Y-21289555D01*
X33362524Y-21272524D01*
X33379555Y-21258548D01*
X33398991Y-21248160D01*
X33420072Y-21241764D01*
X33448140Y-21239000D01*
X35261860Y-21239000D01*
X35289928Y-21241764D01*
X35289928Y-21241764D01*
G37*
G36*
X40239928Y-21241764D02*
G01*
X40261009Y-21248160D01*
X40280445Y-21258548D01*
X40297476Y-21272524D01*
X40311452Y-21289555D01*
X40321840Y-21308991D01*
X40328236Y-21330072D01*
X40331000Y-21358140D01*
X40331000Y-21821860D01*
X40328236Y-21849928D01*
X40321840Y-21871009D01*
X40311452Y-21890445D01*
X40297476Y-21907476D01*
X40280445Y-21921452D01*
X40261009Y-21931840D01*
X40239928Y-21938236D01*
X40211860Y-21941000D01*
X38398140Y-21941000D01*
X38370072Y-21938236D01*
X38348991Y-21931840D01*
X38329555Y-21921452D01*
X38312524Y-21907476D01*
X38298548Y-21890445D01*
X38288160Y-21871009D01*
X38281764Y-21849928D01*
X38279000Y-21821860D01*
X38279000Y-21358140D01*
X38281764Y-21330072D01*
X38288160Y-21308991D01*
X38298548Y-21289555D01*
X38312524Y-21272524D01*
X38329555Y-21258548D01*
X38348991Y-21248160D01*
X38370072Y-21241764D01*
X38398140Y-21239000D01*
X40211860Y-21239000D01*
X40239928Y-21241764D01*
X40239928Y-21241764D01*
G37*
G36*
X21867395Y-19405546D02*
G01*
X22040466Y-19477234D01*
X22117818Y-19528919D01*
X22196227Y-19581310D01*
X22328690Y-19713773D01*
X22328691Y-19713775D01*
X22432766Y-19869534D01*
X22504454Y-20042605D01*
X22541000Y-20226333D01*
X22541000Y-20413667D01*
X22504454Y-20597395D01*
X22432766Y-20770466D01*
X22432765Y-20770467D01*
X22328690Y-20926227D01*
X22196227Y-21058690D01*
X22175141Y-21072779D01*
X22040466Y-21162766D01*
X21867395Y-21234454D01*
X21683667Y-21271000D01*
X21496333Y-21271000D01*
X21312605Y-21234454D01*
X21139534Y-21162766D01*
X21004859Y-21072779D01*
X20983773Y-21058690D01*
X20851310Y-20926227D01*
X20747235Y-20770467D01*
X20747234Y-20770466D01*
X20675546Y-20597395D01*
X20639000Y-20413667D01*
X20639000Y-20226333D01*
X20675546Y-20042605D01*
X20747234Y-19869534D01*
X20851309Y-19713775D01*
X20851310Y-19713773D01*
X20983773Y-19581310D01*
X21062182Y-19528919D01*
X21139534Y-19477234D01*
X21312605Y-19405546D01*
X21496333Y-19369000D01*
X21683667Y-19369000D01*
X21867395Y-19405546D01*
X21867395Y-19405546D01*
G37*
G36*
X51371000Y-21271000D02*
G01*
X47769000Y-21271000D01*
X47769000Y-19369000D01*
X51371000Y-19369000D01*
X51371000Y-21271000D01*
X51371000Y-21271000D01*
G37*
G36*
X56371000Y-21271000D02*
G01*
X52769000Y-21271000D01*
X52769000Y-19369000D01*
X56371000Y-19369000D01*
X56371000Y-21271000D01*
X56371000Y-21271000D01*
G37*
G36*
X75831000Y-21221000D02*
G01*
X74029000Y-21221000D01*
X74029000Y-19419000D01*
X75831000Y-19419000D01*
X75831000Y-21221000D01*
X75831000Y-21221000D01*
G37*
G36*
X77580443Y-19425519D02*
G01*
X77646627Y-19432037D01*
X77816466Y-19483557D01*
X77972991Y-19567222D01*
X77981530Y-19574230D01*
X78110186Y-19679814D01*
X78189665Y-19776661D01*
X78222778Y-19817009D01*
X78306443Y-19973534D01*
X78357963Y-20143373D01*
X78375359Y-20320000D01*
X78357963Y-20496627D01*
X78306443Y-20666466D01*
X78222778Y-20822991D01*
X78199032Y-20851925D01*
X78110186Y-20960186D01*
X78031049Y-21025131D01*
X77972991Y-21072778D01*
X77816466Y-21156443D01*
X77646627Y-21207963D01*
X77580443Y-21214481D01*
X77514260Y-21221000D01*
X77425740Y-21221000D01*
X77359557Y-21214481D01*
X77293373Y-21207963D01*
X77123534Y-21156443D01*
X76967009Y-21072778D01*
X76908951Y-21025131D01*
X76829814Y-20960186D01*
X76740968Y-20851925D01*
X76717222Y-20822991D01*
X76633557Y-20666466D01*
X76582037Y-20496627D01*
X76564641Y-20320000D01*
X76582037Y-20143373D01*
X76633557Y-19973534D01*
X76717222Y-19817009D01*
X76750335Y-19776661D01*
X76829814Y-19679814D01*
X76958470Y-19574230D01*
X76967009Y-19567222D01*
X77123534Y-19483557D01*
X77293373Y-19432037D01*
X77359557Y-19425519D01*
X77425740Y-19419000D01*
X77514260Y-19419000D01*
X77580443Y-19425519D01*
X77580443Y-19425519D01*
G37*
G36*
X45938674Y-19573465D02*
G01*
X45976367Y-19584899D01*
X46011103Y-19603466D01*
X46041548Y-19628452D01*
X46066534Y-19658897D01*
X46085101Y-19693633D01*
X46096535Y-19731326D01*
X46101000Y-19776661D01*
X46101000Y-20863339D01*
X46096535Y-20908674D01*
X46085101Y-20946367D01*
X46066534Y-20981103D01*
X46041548Y-21011548D01*
X46011103Y-21036534D01*
X45976367Y-21055101D01*
X45938674Y-21066535D01*
X45893339Y-21071000D01*
X45056661Y-21071000D01*
X45011326Y-21066535D01*
X44973633Y-21055101D01*
X44938897Y-21036534D01*
X44908452Y-21011548D01*
X44883466Y-20981103D01*
X44864899Y-20946367D01*
X44853465Y-20908674D01*
X44849000Y-20863339D01*
X44849000Y-19776661D01*
X44853465Y-19731326D01*
X44864899Y-19693633D01*
X44883466Y-19658897D01*
X44908452Y-19628452D01*
X44938897Y-19603466D01*
X44973633Y-19584899D01*
X45011326Y-19573465D01*
X45056661Y-19569000D01*
X45893339Y-19569000D01*
X45938674Y-19573465D01*
X45938674Y-19573465D01*
G37*
G36*
X43888674Y-19573465D02*
G01*
X43926367Y-19584899D01*
X43961103Y-19603466D01*
X43991548Y-19628452D01*
X44016534Y-19658897D01*
X44035101Y-19693633D01*
X44046535Y-19731326D01*
X44051000Y-19776661D01*
X44051000Y-20863339D01*
X44046535Y-20908674D01*
X44035101Y-20946367D01*
X44016534Y-20981103D01*
X43991548Y-21011548D01*
X43961103Y-21036534D01*
X43926367Y-21055101D01*
X43888674Y-21066535D01*
X43843339Y-21071000D01*
X43006661Y-21071000D01*
X42961326Y-21066535D01*
X42923633Y-21055101D01*
X42888897Y-21036534D01*
X42858452Y-21011548D01*
X42833466Y-20981103D01*
X42814899Y-20946367D01*
X42803465Y-20908674D01*
X42799000Y-20863339D01*
X42799000Y-19776661D01*
X42803465Y-19731326D01*
X42814899Y-19693633D01*
X42833466Y-19658897D01*
X42858452Y-19628452D01*
X42888897Y-19603466D01*
X42923633Y-19584899D01*
X42961326Y-19573465D01*
X43006661Y-19569000D01*
X43843339Y-19569000D01*
X43888674Y-19573465D01*
X43888674Y-19573465D01*
G37*
G36*
X35289928Y-19971764D02*
G01*
X35311009Y-19978160D01*
X35330445Y-19988548D01*
X35347476Y-20002524D01*
X35361452Y-20019555D01*
X35371840Y-20038991D01*
X35378236Y-20060072D01*
X35381000Y-20088140D01*
X35381000Y-20551860D01*
X35378236Y-20579928D01*
X35371840Y-20601009D01*
X35361452Y-20620445D01*
X35347476Y-20637476D01*
X35330445Y-20651452D01*
X35311009Y-20661840D01*
X35289928Y-20668236D01*
X35261860Y-20671000D01*
X33448140Y-20671000D01*
X33420072Y-20668236D01*
X33398991Y-20661840D01*
X33379555Y-20651452D01*
X33362524Y-20637476D01*
X33348548Y-20620445D01*
X33338160Y-20601009D01*
X33331764Y-20579928D01*
X33329000Y-20551860D01*
X33329000Y-20088140D01*
X33331764Y-20060072D01*
X33338160Y-20038991D01*
X33348548Y-20019555D01*
X33362524Y-20002524D01*
X33379555Y-19988548D01*
X33398991Y-19978160D01*
X33420072Y-19971764D01*
X33448140Y-19969000D01*
X35261860Y-19969000D01*
X35289928Y-19971764D01*
X35289928Y-19971764D01*
G37*
G36*
X40239928Y-19971764D02*
G01*
X40261009Y-19978160D01*
X40280445Y-19988548D01*
X40297476Y-20002524D01*
X40311452Y-20019555D01*
X40321840Y-20038991D01*
X40328236Y-20060072D01*
X40331000Y-20088140D01*
X40331000Y-20551860D01*
X40328236Y-20579928D01*
X40321840Y-20601009D01*
X40311452Y-20620445D01*
X40297476Y-20637476D01*
X40280445Y-20651452D01*
X40261009Y-20661840D01*
X40239928Y-20668236D01*
X40211860Y-20671000D01*
X38398140Y-20671000D01*
X38370072Y-20668236D01*
X38348991Y-20661840D01*
X38329555Y-20651452D01*
X38312524Y-20637476D01*
X38298548Y-20620445D01*
X38288160Y-20601009D01*
X38281764Y-20579928D01*
X38279000Y-20551860D01*
X38279000Y-20088140D01*
X38281764Y-20060072D01*
X38288160Y-20038991D01*
X38298548Y-20019555D01*
X38312524Y-20002524D01*
X38329555Y-19988548D01*
X38348991Y-19978160D01*
X38370072Y-19971764D01*
X38398140Y-19969000D01*
X40211860Y-19969000D01*
X40239928Y-19971764D01*
X40239928Y-19971764D01*
G37*
G36*
X35289928Y-18701764D02*
G01*
X35311009Y-18708160D01*
X35330445Y-18718548D01*
X35347476Y-18732524D01*
X35361452Y-18749555D01*
X35371840Y-18768991D01*
X35378236Y-18790072D01*
X35381000Y-18818140D01*
X35381000Y-19281860D01*
X35378236Y-19309928D01*
X35371840Y-19331009D01*
X35361452Y-19350445D01*
X35347476Y-19367476D01*
X35330445Y-19381452D01*
X35311009Y-19391840D01*
X35289928Y-19398236D01*
X35261860Y-19401000D01*
X33448140Y-19401000D01*
X33420072Y-19398236D01*
X33398991Y-19391840D01*
X33379555Y-19381452D01*
X33362524Y-19367476D01*
X33348548Y-19350445D01*
X33338160Y-19331009D01*
X33331764Y-19309928D01*
X33329000Y-19281860D01*
X33329000Y-18818140D01*
X33331764Y-18790072D01*
X33338160Y-18768991D01*
X33348548Y-18749555D01*
X33362524Y-18732524D01*
X33379555Y-18718548D01*
X33398991Y-18708160D01*
X33420072Y-18701764D01*
X33448140Y-18699000D01*
X35261860Y-18699000D01*
X35289928Y-18701764D01*
X35289928Y-18701764D01*
G37*
G36*
X40239928Y-18701764D02*
G01*
X40261009Y-18708160D01*
X40280445Y-18718548D01*
X40297476Y-18732524D01*
X40311452Y-18749555D01*
X40321840Y-18768991D01*
X40328236Y-18790072D01*
X40331000Y-18818140D01*
X40331000Y-19281860D01*
X40328236Y-19309928D01*
X40321840Y-19331009D01*
X40311452Y-19350445D01*
X40297476Y-19367476D01*
X40280445Y-19381452D01*
X40261009Y-19391840D01*
X40239928Y-19398236D01*
X40211860Y-19401000D01*
X38398140Y-19401000D01*
X38370072Y-19398236D01*
X38348991Y-19391840D01*
X38329555Y-19381452D01*
X38312524Y-19367476D01*
X38298548Y-19350445D01*
X38288160Y-19331009D01*
X38281764Y-19309928D01*
X38279000Y-19281860D01*
X38279000Y-18818140D01*
X38281764Y-18790072D01*
X38288160Y-18768991D01*
X38298548Y-18749555D01*
X38312524Y-18732524D01*
X38329555Y-18718548D01*
X38348991Y-18708160D01*
X38370072Y-18701764D01*
X38398140Y-18699000D01*
X40211860Y-18699000D01*
X40239928Y-18701764D01*
X40239928Y-18701764D01*
G37*
G36*
X21823642Y-17009781D02*
G01*
X21926728Y-17052481D01*
X21969416Y-17070163D01*
X22100608Y-17157822D01*
X22212178Y-17269392D01*
X22273388Y-17361000D01*
X22299838Y-17400586D01*
X22360219Y-17546358D01*
X22391000Y-17701107D01*
X22391000Y-17858893D01*
X22360219Y-18013642D01*
X22299838Y-18159414D01*
X22299837Y-18159416D01*
X22212178Y-18290608D01*
X22100608Y-18402178D01*
X21969416Y-18489837D01*
X21969415Y-18489838D01*
X21969414Y-18489838D01*
X21823642Y-18550219D01*
X21668893Y-18581000D01*
X21511107Y-18581000D01*
X21356358Y-18550219D01*
X21210586Y-18489838D01*
X21210585Y-18489838D01*
X21210584Y-18489837D01*
X21079392Y-18402178D01*
X20967822Y-18290608D01*
X20880163Y-18159416D01*
X20880162Y-18159414D01*
X20819781Y-18013642D01*
X20789000Y-17858893D01*
X20789000Y-17701107D01*
X20819781Y-17546358D01*
X20880162Y-17400586D01*
X20906612Y-17361000D01*
X20967822Y-17269392D01*
X21079392Y-17157822D01*
X21210584Y-17070163D01*
X21253272Y-17052481D01*
X21356358Y-17009781D01*
X21511107Y-16979000D01*
X21668893Y-16979000D01*
X21823642Y-17009781D01*
X21823642Y-17009781D01*
G37*
G36*
X43888674Y-17033465D02*
G01*
X43926367Y-17044899D01*
X43961103Y-17063466D01*
X43991548Y-17088452D01*
X44016534Y-17118897D01*
X44035101Y-17153633D01*
X44046535Y-17191326D01*
X44051000Y-17236661D01*
X44051000Y-18323339D01*
X44046535Y-18368674D01*
X44035101Y-18406367D01*
X44016534Y-18441103D01*
X43991548Y-18471548D01*
X43961103Y-18496534D01*
X43926367Y-18515101D01*
X43888674Y-18526535D01*
X43843339Y-18531000D01*
X43006661Y-18531000D01*
X42961326Y-18526535D01*
X42923633Y-18515101D01*
X42888897Y-18496534D01*
X42858452Y-18471548D01*
X42833466Y-18441103D01*
X42814899Y-18406367D01*
X42803465Y-18368674D01*
X42799000Y-18323339D01*
X42799000Y-17236661D01*
X42803465Y-17191326D01*
X42814899Y-17153633D01*
X42833466Y-17118897D01*
X42858452Y-17088452D01*
X42888897Y-17063466D01*
X42923633Y-17044899D01*
X42961326Y-17033465D01*
X43006661Y-17029000D01*
X43843339Y-17029000D01*
X43888674Y-17033465D01*
X43888674Y-17033465D01*
G37*
G36*
X45938674Y-17033465D02*
G01*
X45976367Y-17044899D01*
X46011103Y-17063466D01*
X46041548Y-17088452D01*
X46066534Y-17118897D01*
X46085101Y-17153633D01*
X46096535Y-17191326D01*
X46101000Y-17236661D01*
X46101000Y-18323339D01*
X46096535Y-18368674D01*
X46085101Y-18406367D01*
X46066534Y-18441103D01*
X46041548Y-18471548D01*
X46011103Y-18496534D01*
X45976367Y-18515101D01*
X45938674Y-18526535D01*
X45893339Y-18531000D01*
X45056661Y-18531000D01*
X45011326Y-18526535D01*
X44973633Y-18515101D01*
X44938897Y-18496534D01*
X44908452Y-18471548D01*
X44883466Y-18441103D01*
X44864899Y-18406367D01*
X44853465Y-18368674D01*
X44849000Y-18323339D01*
X44849000Y-17236661D01*
X44853465Y-17191326D01*
X44864899Y-17153633D01*
X44883466Y-17118897D01*
X44908452Y-17088452D01*
X44938897Y-17063466D01*
X44973633Y-17044899D01*
X45011326Y-17033465D01*
X45056661Y-17029000D01*
X45893339Y-17029000D01*
X45938674Y-17033465D01*
X45938674Y-17033465D01*
G37*
G36*
X40239928Y-17431764D02*
G01*
X40261009Y-17438160D01*
X40280445Y-17448548D01*
X40297476Y-17462524D01*
X40311452Y-17479555D01*
X40321840Y-17498991D01*
X40328236Y-17520072D01*
X40331000Y-17548140D01*
X40331000Y-18011860D01*
X40328236Y-18039928D01*
X40321840Y-18061009D01*
X40311452Y-18080445D01*
X40297476Y-18097476D01*
X40280445Y-18111452D01*
X40261009Y-18121840D01*
X40239928Y-18128236D01*
X40211860Y-18131000D01*
X38398140Y-18131000D01*
X38370072Y-18128236D01*
X38348991Y-18121840D01*
X38329555Y-18111452D01*
X38312524Y-18097476D01*
X38298548Y-18080445D01*
X38288160Y-18061009D01*
X38281764Y-18039928D01*
X38279000Y-18011860D01*
X38279000Y-17548140D01*
X38281764Y-17520072D01*
X38288160Y-17498991D01*
X38298548Y-17479555D01*
X38312524Y-17462524D01*
X38329555Y-17448548D01*
X38348991Y-17438160D01*
X38370072Y-17431764D01*
X38398140Y-17429000D01*
X40211860Y-17429000D01*
X40239928Y-17431764D01*
X40239928Y-17431764D01*
G37*
G36*
X35289928Y-17431764D02*
G01*
X35311009Y-17438160D01*
X35330445Y-17448548D01*
X35347476Y-17462524D01*
X35361452Y-17479555D01*
X35371840Y-17498991D01*
X35378236Y-17520072D01*
X35381000Y-17548140D01*
X35381000Y-18011860D01*
X35378236Y-18039928D01*
X35371840Y-18061009D01*
X35361452Y-18080445D01*
X35347476Y-18097476D01*
X35330445Y-18111452D01*
X35311009Y-18121840D01*
X35289928Y-18128236D01*
X35261860Y-18131000D01*
X33448140Y-18131000D01*
X33420072Y-18128236D01*
X33398991Y-18121840D01*
X33379555Y-18111452D01*
X33362524Y-18097476D01*
X33348548Y-18080445D01*
X33338160Y-18061009D01*
X33331764Y-18039928D01*
X33329000Y-18011860D01*
X33329000Y-17548140D01*
X33331764Y-17520072D01*
X33338160Y-17498991D01*
X33348548Y-17479555D01*
X33362524Y-17462524D01*
X33379555Y-17448548D01*
X33398991Y-17438160D01*
X33420072Y-17431764D01*
X33448140Y-17429000D01*
X35261860Y-17429000D01*
X35289928Y-17431764D01*
X35289928Y-17431764D01*
G37*
G36*
X82798228Y-15691703D02*
G01*
X82953100Y-15755853D01*
X83092481Y-15848985D01*
X83211015Y-15967519D01*
X83304147Y-16106900D01*
X83368297Y-16261772D01*
X83401000Y-16426184D01*
X83401000Y-16593816D01*
X83368297Y-16758228D01*
X83304147Y-16913100D01*
X83211015Y-17052481D01*
X83092481Y-17171015D01*
X82953100Y-17264147D01*
X82798228Y-17328297D01*
X82633816Y-17361000D01*
X82466184Y-17361000D01*
X82301772Y-17328297D01*
X82146900Y-17264147D01*
X82007519Y-17171015D01*
X81888985Y-17052481D01*
X81795853Y-16913100D01*
X81731703Y-16758228D01*
X81699000Y-16593816D01*
X81699000Y-16426184D01*
X81731703Y-16261772D01*
X81795853Y-16106900D01*
X81888985Y-15967519D01*
X82007519Y-15848985D01*
X82146900Y-15755853D01*
X82301772Y-15691703D01*
X82466184Y-15659000D01*
X82633816Y-15659000D01*
X82798228Y-15691703D01*
X82798228Y-15691703D01*
G37*
G36*
X85973228Y-15691703D02*
G01*
X86128100Y-15755853D01*
X86267481Y-15848985D01*
X86386015Y-15967519D01*
X86479147Y-16106900D01*
X86543297Y-16261772D01*
X86576000Y-16426184D01*
X86576000Y-16593816D01*
X86543297Y-16758228D01*
X86479147Y-16913100D01*
X86386015Y-17052481D01*
X86267481Y-17171015D01*
X86128100Y-17264147D01*
X85973228Y-17328297D01*
X85808816Y-17361000D01*
X85641184Y-17361000D01*
X85476772Y-17328297D01*
X85321900Y-17264147D01*
X85182519Y-17171015D01*
X85063985Y-17052481D01*
X84970853Y-16913100D01*
X84906703Y-16758228D01*
X84874000Y-16593816D01*
X84874000Y-16426184D01*
X84906703Y-16261772D01*
X84970853Y-16106900D01*
X85063985Y-15967519D01*
X85182519Y-15848985D01*
X85321900Y-15755853D01*
X85476772Y-15691703D01*
X85641184Y-15659000D01*
X85808816Y-15659000D01*
X85973228Y-15691703D01*
X85973228Y-15691703D01*
G37*
G36*
X35289928Y-16161764D02*
G01*
X35311009Y-16168160D01*
X35330445Y-16178548D01*
X35347476Y-16192524D01*
X35361452Y-16209555D01*
X35371840Y-16228991D01*
X35378236Y-16250072D01*
X35381000Y-16278140D01*
X35381000Y-16741860D01*
X35378236Y-16769928D01*
X35371840Y-16791009D01*
X35361452Y-16810445D01*
X35347476Y-16827476D01*
X35330445Y-16841452D01*
X35311009Y-16851840D01*
X35289928Y-16858236D01*
X35261860Y-16861000D01*
X33448140Y-16861000D01*
X33420072Y-16858236D01*
X33398991Y-16851840D01*
X33379555Y-16841452D01*
X33362524Y-16827476D01*
X33348548Y-16810445D01*
X33338160Y-16791009D01*
X33331764Y-16769928D01*
X33329000Y-16741860D01*
X33329000Y-16278140D01*
X33331764Y-16250072D01*
X33338160Y-16228991D01*
X33348548Y-16209555D01*
X33362524Y-16192524D01*
X33379555Y-16178548D01*
X33398991Y-16168160D01*
X33420072Y-16161764D01*
X33448140Y-16159000D01*
X35261860Y-16159000D01*
X35289928Y-16161764D01*
X35289928Y-16161764D01*
G37*
G36*
X40239928Y-16161764D02*
G01*
X40261009Y-16168160D01*
X40280445Y-16178548D01*
X40297476Y-16192524D01*
X40311452Y-16209555D01*
X40321840Y-16228991D01*
X40328236Y-16250072D01*
X40331000Y-16278140D01*
X40331000Y-16741860D01*
X40328236Y-16769928D01*
X40321840Y-16791009D01*
X40311452Y-16810445D01*
X40297476Y-16827476D01*
X40280445Y-16841452D01*
X40261009Y-16851840D01*
X40239928Y-16858236D01*
X40211860Y-16861000D01*
X38398140Y-16861000D01*
X38370072Y-16858236D01*
X38348991Y-16851840D01*
X38329555Y-16841452D01*
X38312524Y-16827476D01*
X38298548Y-16810445D01*
X38288160Y-16791009D01*
X38281764Y-16769928D01*
X38279000Y-16741860D01*
X38279000Y-16278140D01*
X38281764Y-16250072D01*
X38288160Y-16228991D01*
X38298548Y-16209555D01*
X38312524Y-16192524D01*
X38329555Y-16178548D01*
X38348991Y-16168160D01*
X38370072Y-16161764D01*
X38398140Y-16159000D01*
X40211860Y-16159000D01*
X40239928Y-16161764D01*
X40239928Y-16161764D01*
G37*
G36*
X16787395Y-14325546D02*
G01*
X16960466Y-14397234D01*
X17007187Y-14428452D01*
X17116227Y-14501310D01*
X17248690Y-14633773D01*
X17248691Y-14633775D01*
X17352766Y-14789534D01*
X17424454Y-14962605D01*
X17461000Y-15146333D01*
X17461000Y-15333667D01*
X17424454Y-15517395D01*
X17352766Y-15690466D01*
X17352765Y-15690467D01*
X17248690Y-15846227D01*
X17116227Y-15978690D01*
X17037818Y-16031081D01*
X16960466Y-16082766D01*
X16787395Y-16154454D01*
X16603667Y-16191000D01*
X16416333Y-16191000D01*
X16232605Y-16154454D01*
X16059534Y-16082766D01*
X15982182Y-16031081D01*
X15903773Y-15978690D01*
X15771310Y-15846227D01*
X15667235Y-15690467D01*
X15667234Y-15690466D01*
X15595546Y-15517395D01*
X15559000Y-15333667D01*
X15559000Y-15146333D01*
X15595546Y-14962605D01*
X15667234Y-14789534D01*
X15771309Y-14633775D01*
X15771310Y-14633773D01*
X15903773Y-14501310D01*
X16012813Y-14428452D01*
X16059534Y-14397234D01*
X16232605Y-14325546D01*
X16416333Y-14289000D01*
X16603667Y-14289000D01*
X16787395Y-14325546D01*
X16787395Y-14325546D01*
G37*
G36*
X29487395Y-14325546D02*
G01*
X29660466Y-14397234D01*
X29707187Y-14428452D01*
X29816227Y-14501310D01*
X29948690Y-14633773D01*
X29948691Y-14633775D01*
X30052766Y-14789534D01*
X30124454Y-14962605D01*
X30161000Y-15146333D01*
X30161000Y-15333667D01*
X30124454Y-15517395D01*
X30052766Y-15690466D01*
X30052765Y-15690467D01*
X29948690Y-15846227D01*
X29816227Y-15978690D01*
X29737818Y-16031081D01*
X29660466Y-16082766D01*
X29487395Y-16154454D01*
X29303667Y-16191000D01*
X29116333Y-16191000D01*
X28932605Y-16154454D01*
X28759534Y-16082766D01*
X28682182Y-16031081D01*
X28603773Y-15978690D01*
X28471310Y-15846227D01*
X28367235Y-15690467D01*
X28367234Y-15690466D01*
X28295546Y-15517395D01*
X28259000Y-15333667D01*
X28259000Y-15146333D01*
X28295546Y-14962605D01*
X28367234Y-14789534D01*
X28471309Y-14633775D01*
X28471310Y-14633773D01*
X28603773Y-14501310D01*
X28712813Y-14428452D01*
X28759534Y-14397234D01*
X28932605Y-14325546D01*
X29116333Y-14289000D01*
X29303667Y-14289000D01*
X29487395Y-14325546D01*
X29487395Y-14325546D01*
G37*
G36*
X26253674Y-14493465D02*
G01*
X26291367Y-14504899D01*
X26326103Y-14523466D01*
X26356548Y-14548452D01*
X26381534Y-14578897D01*
X26400101Y-14613633D01*
X26411535Y-14651326D01*
X26416000Y-14696661D01*
X26416000Y-15783339D01*
X26411535Y-15828674D01*
X26400101Y-15866367D01*
X26381534Y-15901103D01*
X26356548Y-15931548D01*
X26326103Y-15956534D01*
X26291367Y-15975101D01*
X26253674Y-15986535D01*
X26208339Y-15991000D01*
X25371661Y-15991000D01*
X25326326Y-15986535D01*
X25288633Y-15975101D01*
X25253897Y-15956534D01*
X25223452Y-15931548D01*
X25198466Y-15901103D01*
X25179899Y-15866367D01*
X25168465Y-15828674D01*
X25164000Y-15783339D01*
X25164000Y-14696661D01*
X25168465Y-14651326D01*
X25179899Y-14613633D01*
X25198466Y-14578897D01*
X25223452Y-14548452D01*
X25253897Y-14523466D01*
X25288633Y-14504899D01*
X25326326Y-14493465D01*
X25371661Y-14489000D01*
X26208339Y-14489000D01*
X26253674Y-14493465D01*
X26253674Y-14493465D01*
G37*
G36*
X24203674Y-14493465D02*
G01*
X24241367Y-14504899D01*
X24276103Y-14523466D01*
X24306548Y-14548452D01*
X24331534Y-14578897D01*
X24350101Y-14613633D01*
X24361535Y-14651326D01*
X24366000Y-14696661D01*
X24366000Y-15783339D01*
X24361535Y-15828674D01*
X24350101Y-15866367D01*
X24331534Y-15901103D01*
X24306548Y-15931548D01*
X24276103Y-15956534D01*
X24241367Y-15975101D01*
X24203674Y-15986535D01*
X24158339Y-15991000D01*
X23321661Y-15991000D01*
X23276326Y-15986535D01*
X23238633Y-15975101D01*
X23203897Y-15956534D01*
X23173452Y-15931548D01*
X23148466Y-15901103D01*
X23129899Y-15866367D01*
X23118465Y-15828674D01*
X23114000Y-15783339D01*
X23114000Y-14696661D01*
X23118465Y-14651326D01*
X23129899Y-14613633D01*
X23148466Y-14578897D01*
X23173452Y-14548452D01*
X23203897Y-14523466D01*
X23238633Y-14504899D01*
X23276326Y-14493465D01*
X23321661Y-14489000D01*
X24158339Y-14489000D01*
X24203674Y-14493465D01*
X24203674Y-14493465D01*
G37*
G36*
X22443674Y-14493465D02*
G01*
X22481367Y-14504899D01*
X22516103Y-14523466D01*
X22546548Y-14548452D01*
X22571534Y-14578897D01*
X22590101Y-14613633D01*
X22601535Y-14651326D01*
X22606000Y-14696661D01*
X22606000Y-15783339D01*
X22601535Y-15828674D01*
X22590101Y-15866367D01*
X22571534Y-15901103D01*
X22546548Y-15931548D01*
X22516103Y-15956534D01*
X22481367Y-15975101D01*
X22443674Y-15986535D01*
X22398339Y-15991000D01*
X21561661Y-15991000D01*
X21516326Y-15986535D01*
X21478633Y-15975101D01*
X21443897Y-15956534D01*
X21413452Y-15931548D01*
X21388466Y-15901103D01*
X21369899Y-15866367D01*
X21358465Y-15828674D01*
X21354000Y-15783339D01*
X21354000Y-14696661D01*
X21358465Y-14651326D01*
X21369899Y-14613633D01*
X21388466Y-14578897D01*
X21413452Y-14548452D01*
X21443897Y-14523466D01*
X21478633Y-14504899D01*
X21516326Y-14493465D01*
X21561661Y-14489000D01*
X22398339Y-14489000D01*
X22443674Y-14493465D01*
X22443674Y-14493465D01*
G37*
G36*
X20393674Y-14493465D02*
G01*
X20431367Y-14504899D01*
X20466103Y-14523466D01*
X20496548Y-14548452D01*
X20521534Y-14578897D01*
X20540101Y-14613633D01*
X20551535Y-14651326D01*
X20556000Y-14696661D01*
X20556000Y-15783339D01*
X20551535Y-15828674D01*
X20540101Y-15866367D01*
X20521534Y-15901103D01*
X20496548Y-15931548D01*
X20466103Y-15956534D01*
X20431367Y-15975101D01*
X20393674Y-15986535D01*
X20348339Y-15991000D01*
X19511661Y-15991000D01*
X19466326Y-15986535D01*
X19428633Y-15975101D01*
X19393897Y-15956534D01*
X19363452Y-15931548D01*
X19338466Y-15901103D01*
X19319899Y-15866367D01*
X19308465Y-15828674D01*
X19304000Y-15783339D01*
X19304000Y-14696661D01*
X19308465Y-14651326D01*
X19319899Y-14613633D01*
X19338466Y-14578897D01*
X19363452Y-14548452D01*
X19393897Y-14523466D01*
X19428633Y-14504899D01*
X19466326Y-14493465D01*
X19511661Y-14489000D01*
X20348339Y-14489000D01*
X20393674Y-14493465D01*
X20393674Y-14493465D01*
G37*
G36*
X43888674Y-14493465D02*
G01*
X43926367Y-14504899D01*
X43961103Y-14523466D01*
X43991548Y-14548452D01*
X44016534Y-14578897D01*
X44035101Y-14613633D01*
X44046535Y-14651326D01*
X44051000Y-14696661D01*
X44051000Y-15783339D01*
X44046535Y-15828674D01*
X44035101Y-15866367D01*
X44016534Y-15901103D01*
X43991548Y-15931548D01*
X43961103Y-15956534D01*
X43926367Y-15975101D01*
X43888674Y-15986535D01*
X43843339Y-15991000D01*
X43006661Y-15991000D01*
X42961326Y-15986535D01*
X42923633Y-15975101D01*
X42888897Y-15956534D01*
X42858452Y-15931548D01*
X42833466Y-15901103D01*
X42814899Y-15866367D01*
X42803465Y-15828674D01*
X42799000Y-15783339D01*
X42799000Y-14696661D01*
X42803465Y-14651326D01*
X42814899Y-14613633D01*
X42833466Y-14578897D01*
X42858452Y-14548452D01*
X42888897Y-14523466D01*
X42923633Y-14504899D01*
X42961326Y-14493465D01*
X43006661Y-14489000D01*
X43843339Y-14489000D01*
X43888674Y-14493465D01*
X43888674Y-14493465D01*
G37*
G36*
X45938674Y-14493465D02*
G01*
X45976367Y-14504899D01*
X46011103Y-14523466D01*
X46041548Y-14548452D01*
X46066534Y-14578897D01*
X46085101Y-14613633D01*
X46096535Y-14651326D01*
X46101000Y-14696661D01*
X46101000Y-15783339D01*
X46096535Y-15828674D01*
X46085101Y-15866367D01*
X46066534Y-15901103D01*
X46041548Y-15931548D01*
X46011103Y-15956534D01*
X45976367Y-15975101D01*
X45938674Y-15986535D01*
X45893339Y-15991000D01*
X45056661Y-15991000D01*
X45011326Y-15986535D01*
X44973633Y-15975101D01*
X44938897Y-15956534D01*
X44908452Y-15931548D01*
X44883466Y-15901103D01*
X44864899Y-15866367D01*
X44853465Y-15828674D01*
X44849000Y-15783339D01*
X44849000Y-14696661D01*
X44853465Y-14651326D01*
X44864899Y-14613633D01*
X44883466Y-14578897D01*
X44908452Y-14548452D01*
X44938897Y-14523466D01*
X44973633Y-14504899D01*
X45011326Y-14493465D01*
X45056661Y-14489000D01*
X45893339Y-14489000D01*
X45938674Y-14493465D01*
X45938674Y-14493465D01*
G37*
G36*
X60387359Y-13536534D02*
G01*
X60516032Y-13549207D01*
X60714146Y-13609305D01*
X60714149Y-13609306D01*
X60810975Y-13661061D01*
X60896729Y-13706897D01*
X61056765Y-13838235D01*
X61188103Y-13998271D01*
X61233939Y-14084025D01*
X61285694Y-14180851D01*
X61285695Y-14180854D01*
X61345793Y-14378968D01*
X61366085Y-14585000D01*
X61345793Y-14791032D01*
X61293746Y-14962605D01*
X61285694Y-14989149D01*
X61233939Y-15085975D01*
X61188103Y-15171729D01*
X61056765Y-15331765D01*
X60896729Y-15463103D01*
X60834496Y-15496367D01*
X60714149Y-15560694D01*
X60714146Y-15560695D01*
X60516032Y-15620793D01*
X60413097Y-15630931D01*
X60361631Y-15636000D01*
X59258369Y-15636000D01*
X59206903Y-15630931D01*
X59103968Y-15620793D01*
X58905854Y-15560695D01*
X58905851Y-15560694D01*
X58785504Y-15496367D01*
X58723271Y-15463103D01*
X58563235Y-15331765D01*
X58431897Y-15171729D01*
X58386061Y-15085975D01*
X58334306Y-14989149D01*
X58326254Y-14962605D01*
X58274207Y-14791032D01*
X58253915Y-14585000D01*
X58274207Y-14378968D01*
X58334305Y-14180854D01*
X58334306Y-14180851D01*
X58386061Y-14084025D01*
X58431897Y-13998271D01*
X58563235Y-13838235D01*
X58723271Y-13706897D01*
X58809025Y-13661061D01*
X58905851Y-13609306D01*
X58905854Y-13609305D01*
X59103968Y-13549207D01*
X59232641Y-13536534D01*
X59258369Y-13534000D01*
X60361631Y-13534000D01*
X60387359Y-13536534D01*
X60387359Y-13536534D01*
G37*
G36*
X67887359Y-13536534D02*
G01*
X68016032Y-13549207D01*
X68214146Y-13609305D01*
X68214149Y-13609306D01*
X68310975Y-13661061D01*
X68396729Y-13706897D01*
X68556765Y-13838235D01*
X68688103Y-13998271D01*
X68733939Y-14084025D01*
X68785694Y-14180851D01*
X68785695Y-14180854D01*
X68845793Y-14378968D01*
X68866085Y-14585000D01*
X68845793Y-14791032D01*
X68793746Y-14962605D01*
X68785694Y-14989149D01*
X68733939Y-15085975D01*
X68688103Y-15171729D01*
X68556765Y-15331765D01*
X68396729Y-15463103D01*
X68334496Y-15496367D01*
X68214149Y-15560694D01*
X68214146Y-15560695D01*
X68016032Y-15620793D01*
X67913097Y-15630931D01*
X67861631Y-15636000D01*
X66758369Y-15636000D01*
X66706903Y-15630931D01*
X66603968Y-15620793D01*
X66405854Y-15560695D01*
X66405851Y-15560694D01*
X66285504Y-15496367D01*
X66223271Y-15463103D01*
X66063235Y-15331765D01*
X65931897Y-15171729D01*
X65886061Y-15085975D01*
X65834306Y-14989149D01*
X65826254Y-14962605D01*
X65774207Y-14791032D01*
X65753915Y-14585000D01*
X65774207Y-14378968D01*
X65834305Y-14180854D01*
X65834306Y-14180851D01*
X65886061Y-14084025D01*
X65931897Y-13998271D01*
X66063235Y-13838235D01*
X66223271Y-13706897D01*
X66309025Y-13661061D01*
X66405851Y-13609306D01*
X66405854Y-13609305D01*
X66603968Y-13549207D01*
X66732641Y-13536534D01*
X66758369Y-13534000D01*
X67861631Y-13534000D01*
X67887359Y-13536534D01*
X67887359Y-13536534D01*
G37*
G36*
X37418674Y-14373465D02*
G01*
X37456367Y-14384899D01*
X37491103Y-14403466D01*
X37521548Y-14428452D01*
X37546534Y-14458897D01*
X37565101Y-14493633D01*
X37576535Y-14531326D01*
X37581000Y-14576661D01*
X37581000Y-15413339D01*
X37576535Y-15458674D01*
X37565101Y-15496367D01*
X37546534Y-15531103D01*
X37521548Y-15561548D01*
X37491103Y-15586534D01*
X37456367Y-15605101D01*
X37418674Y-15616535D01*
X37373339Y-15621000D01*
X36286661Y-15621000D01*
X36241326Y-15616535D01*
X36203633Y-15605101D01*
X36168897Y-15586534D01*
X36138452Y-15561548D01*
X36113466Y-15531103D01*
X36094899Y-15496367D01*
X36083465Y-15458674D01*
X36079000Y-15413339D01*
X36079000Y-14576661D01*
X36083465Y-14531326D01*
X36094899Y-14493633D01*
X36113466Y-14458897D01*
X36138452Y-14428452D01*
X36168897Y-14403466D01*
X36203633Y-14384899D01*
X36241326Y-14373465D01*
X36286661Y-14369000D01*
X37373339Y-14369000D01*
X37418674Y-14373465D01*
X37418674Y-14373465D01*
G37*
G36*
X50118674Y-14373465D02*
G01*
X50156367Y-14384899D01*
X50191103Y-14403466D01*
X50221548Y-14428452D01*
X50246534Y-14458897D01*
X50265101Y-14493633D01*
X50276535Y-14531326D01*
X50281000Y-14576661D01*
X50281000Y-15413339D01*
X50276535Y-15458674D01*
X50265101Y-15496367D01*
X50246534Y-15531103D01*
X50221548Y-15561548D01*
X50191103Y-15586534D01*
X50156367Y-15605101D01*
X50118674Y-15616535D01*
X50073339Y-15621000D01*
X48986661Y-15621000D01*
X48941326Y-15616535D01*
X48903633Y-15605101D01*
X48868897Y-15586534D01*
X48838452Y-15561548D01*
X48813466Y-15531103D01*
X48794899Y-15496367D01*
X48783465Y-15458674D01*
X48779000Y-15413339D01*
X48779000Y-14576661D01*
X48783465Y-14531326D01*
X48794899Y-14493633D01*
X48813466Y-14458897D01*
X48838452Y-14428452D01*
X48868897Y-14403466D01*
X48903633Y-14384899D01*
X48941326Y-14373465D01*
X48986661Y-14369000D01*
X50073339Y-14369000D01*
X50118674Y-14373465D01*
X50118674Y-14373465D01*
G37*
G36*
X52658674Y-14373465D02*
G01*
X52696367Y-14384899D01*
X52731103Y-14403466D01*
X52761548Y-14428452D01*
X52786534Y-14458897D01*
X52805101Y-14493633D01*
X52816535Y-14531326D01*
X52821000Y-14576661D01*
X52821000Y-15413339D01*
X52816535Y-15458674D01*
X52805101Y-15496367D01*
X52786534Y-15531103D01*
X52761548Y-15561548D01*
X52731103Y-15586534D01*
X52696367Y-15605101D01*
X52658674Y-15616535D01*
X52613339Y-15621000D01*
X51526661Y-15621000D01*
X51481326Y-15616535D01*
X51443633Y-15605101D01*
X51408897Y-15586534D01*
X51378452Y-15561548D01*
X51353466Y-15531103D01*
X51334899Y-15496367D01*
X51323465Y-15458674D01*
X51319000Y-15413339D01*
X51319000Y-14576661D01*
X51323465Y-14531326D01*
X51334899Y-14493633D01*
X51353466Y-14458897D01*
X51378452Y-14428452D01*
X51408897Y-14403466D01*
X51443633Y-14384899D01*
X51481326Y-14373465D01*
X51526661Y-14369000D01*
X52613339Y-14369000D01*
X52658674Y-14373465D01*
X52658674Y-14373465D01*
G37*
G36*
X21867395Y-11785546D02*
G01*
X22040466Y-11857234D01*
X22040467Y-11857235D01*
X22196227Y-11961310D01*
X22328690Y-12093773D01*
X22328691Y-12093775D01*
X22432766Y-12249534D01*
X22504454Y-12422605D01*
X22541000Y-12606333D01*
X22541000Y-12793667D01*
X22504454Y-12977395D01*
X22432766Y-13150466D01*
X22432765Y-13150467D01*
X22328690Y-13306227D01*
X22196227Y-13438690D01*
X22132751Y-13481103D01*
X22040466Y-13542766D01*
X21867395Y-13614454D01*
X21683667Y-13651000D01*
X21496333Y-13651000D01*
X21312605Y-13614454D01*
X21139534Y-13542766D01*
X21047249Y-13481103D01*
X20983773Y-13438690D01*
X20851310Y-13306227D01*
X20747235Y-13150467D01*
X20747234Y-13150466D01*
X20675546Y-12977395D01*
X20639000Y-12793667D01*
X20639000Y-12606333D01*
X20675546Y-12422605D01*
X20747234Y-12249534D01*
X20851309Y-12093775D01*
X20851310Y-12093773D01*
X20983773Y-11961310D01*
X21139533Y-11857235D01*
X21139534Y-11857234D01*
X21312605Y-11785546D01*
X21496333Y-11749000D01*
X21683667Y-11749000D01*
X21867395Y-11785546D01*
X21867395Y-11785546D01*
G37*
G36*
X52658674Y-12323465D02*
G01*
X52696367Y-12334899D01*
X52731103Y-12353466D01*
X52761548Y-12378452D01*
X52786534Y-12408897D01*
X52805101Y-12443633D01*
X52816535Y-12481326D01*
X52821000Y-12526661D01*
X52821000Y-13363339D01*
X52816535Y-13408674D01*
X52805101Y-13446367D01*
X52786534Y-13481103D01*
X52761548Y-13511548D01*
X52731103Y-13536534D01*
X52696367Y-13555101D01*
X52658674Y-13566535D01*
X52613339Y-13571000D01*
X51526661Y-13571000D01*
X51481326Y-13566535D01*
X51443633Y-13555101D01*
X51408897Y-13536534D01*
X51378452Y-13511548D01*
X51353466Y-13481103D01*
X51334899Y-13446367D01*
X51323465Y-13408674D01*
X51319000Y-13363339D01*
X51319000Y-12526661D01*
X51323465Y-12481326D01*
X51334899Y-12443633D01*
X51353466Y-12408897D01*
X51378452Y-12378452D01*
X51408897Y-12353466D01*
X51443633Y-12334899D01*
X51481326Y-12323465D01*
X51526661Y-12319000D01*
X52613339Y-12319000D01*
X52658674Y-12323465D01*
X52658674Y-12323465D01*
G37*
G36*
X50118674Y-12323465D02*
G01*
X50156367Y-12334899D01*
X50191103Y-12353466D01*
X50221548Y-12378452D01*
X50246534Y-12408897D01*
X50265101Y-12443633D01*
X50276535Y-12481326D01*
X50281000Y-12526661D01*
X50281000Y-13363339D01*
X50276535Y-13408674D01*
X50265101Y-13446367D01*
X50246534Y-13481103D01*
X50221548Y-13511548D01*
X50191103Y-13536534D01*
X50156367Y-13555101D01*
X50118674Y-13566535D01*
X50073339Y-13571000D01*
X48986661Y-13571000D01*
X48941326Y-13566535D01*
X48903633Y-13555101D01*
X48868897Y-13536534D01*
X48838452Y-13511548D01*
X48813466Y-13481103D01*
X48794899Y-13446367D01*
X48783465Y-13408674D01*
X48779000Y-13363339D01*
X48779000Y-12526661D01*
X48783465Y-12481326D01*
X48794899Y-12443633D01*
X48813466Y-12408897D01*
X48838452Y-12378452D01*
X48868897Y-12353466D01*
X48903633Y-12334899D01*
X48941326Y-12323465D01*
X48986661Y-12319000D01*
X50073339Y-12319000D01*
X50118674Y-12323465D01*
X50118674Y-12323465D01*
G37*
G36*
X37418674Y-12323465D02*
G01*
X37456367Y-12334899D01*
X37491103Y-12353466D01*
X37521548Y-12378452D01*
X37546534Y-12408897D01*
X37565101Y-12443633D01*
X37576535Y-12481326D01*
X37581000Y-12526661D01*
X37581000Y-13363339D01*
X37576535Y-13408674D01*
X37565101Y-13446367D01*
X37546534Y-13481103D01*
X37521548Y-13511548D01*
X37491103Y-13536534D01*
X37456367Y-13555101D01*
X37418674Y-13566535D01*
X37373339Y-13571000D01*
X36286661Y-13571000D01*
X36241326Y-13566535D01*
X36203633Y-13555101D01*
X36168897Y-13536534D01*
X36138452Y-13511548D01*
X36113466Y-13481103D01*
X36094899Y-13446367D01*
X36083465Y-13408674D01*
X36079000Y-13363339D01*
X36079000Y-12526661D01*
X36083465Y-12481326D01*
X36094899Y-12443633D01*
X36113466Y-12408897D01*
X36138452Y-12378452D01*
X36168897Y-12353466D01*
X36203633Y-12334899D01*
X36241326Y-12323465D01*
X36286661Y-12319000D01*
X37373339Y-12319000D01*
X37418674Y-12323465D01*
X37418674Y-12323465D01*
G37*
G36*
X43888674Y-11953465D02*
G01*
X43926367Y-11964899D01*
X43961103Y-11983466D01*
X43991548Y-12008452D01*
X44016534Y-12038897D01*
X44035101Y-12073633D01*
X44046535Y-12111326D01*
X44051000Y-12156661D01*
X44051000Y-13243339D01*
X44046535Y-13288674D01*
X44035101Y-13326367D01*
X44016534Y-13361103D01*
X43991548Y-13391548D01*
X43961103Y-13416534D01*
X43926367Y-13435101D01*
X43888674Y-13446535D01*
X43843339Y-13451000D01*
X43006661Y-13451000D01*
X42961326Y-13446535D01*
X42923633Y-13435101D01*
X42888897Y-13416534D01*
X42858452Y-13391548D01*
X42833466Y-13361103D01*
X42814899Y-13326367D01*
X42803465Y-13288674D01*
X42799000Y-13243339D01*
X42799000Y-12156661D01*
X42803465Y-12111326D01*
X42814899Y-12073633D01*
X42833466Y-12038897D01*
X42858452Y-12008452D01*
X42888897Y-11983466D01*
X42923633Y-11964899D01*
X42961326Y-11953465D01*
X43006661Y-11949000D01*
X43843339Y-11949000D01*
X43888674Y-11953465D01*
X43888674Y-11953465D01*
G37*
G36*
X45938674Y-11953465D02*
G01*
X45976367Y-11964899D01*
X46011103Y-11983466D01*
X46041548Y-12008452D01*
X46066534Y-12038897D01*
X46085101Y-12073633D01*
X46096535Y-12111326D01*
X46101000Y-12156661D01*
X46101000Y-13243339D01*
X46096535Y-13288674D01*
X46085101Y-13326367D01*
X46066534Y-13361103D01*
X46041548Y-13391548D01*
X46011103Y-13416534D01*
X45976367Y-13435101D01*
X45938674Y-13446535D01*
X45893339Y-13451000D01*
X45056661Y-13451000D01*
X45011326Y-13446535D01*
X44973633Y-13435101D01*
X44938897Y-13416534D01*
X44908452Y-13391548D01*
X44883466Y-13361103D01*
X44864899Y-13326367D01*
X44853465Y-13288674D01*
X44849000Y-13243339D01*
X44849000Y-12156661D01*
X44853465Y-12111326D01*
X44864899Y-12073633D01*
X44883466Y-12038897D01*
X44908452Y-12008452D01*
X44938897Y-11983466D01*
X44973633Y-11964899D01*
X45011326Y-11953465D01*
X45056661Y-11949000D01*
X45893339Y-11949000D01*
X45938674Y-11953465D01*
X45938674Y-11953465D01*
G37*
G36*
X35289928Y-11081764D02*
G01*
X35311009Y-11088160D01*
X35330445Y-11098548D01*
X35347476Y-11112524D01*
X35361452Y-11129555D01*
X35371840Y-11148991D01*
X35378236Y-11170072D01*
X35381000Y-11198140D01*
X35381000Y-11661860D01*
X35378236Y-11689928D01*
X35371840Y-11711009D01*
X35361452Y-11730445D01*
X35347476Y-11747476D01*
X35330445Y-11761452D01*
X35311009Y-11771840D01*
X35289928Y-11778236D01*
X35261860Y-11781000D01*
X33448140Y-11781000D01*
X33420072Y-11778236D01*
X33398991Y-11771840D01*
X33379555Y-11761452D01*
X33362524Y-11747476D01*
X33348548Y-11730445D01*
X33338160Y-11711009D01*
X33331764Y-11689928D01*
X33329000Y-11661860D01*
X33329000Y-11198140D01*
X33331764Y-11170072D01*
X33338160Y-11148991D01*
X33348548Y-11129555D01*
X33362524Y-11112524D01*
X33379555Y-11098548D01*
X33398991Y-11088160D01*
X33420072Y-11081764D01*
X33448140Y-11079000D01*
X35261860Y-11079000D01*
X35289928Y-11081764D01*
X35289928Y-11081764D01*
G37*
G36*
X40239928Y-11081764D02*
G01*
X40261009Y-11088160D01*
X40280445Y-11098548D01*
X40297476Y-11112524D01*
X40311452Y-11129555D01*
X40321840Y-11148991D01*
X40328236Y-11170072D01*
X40331000Y-11198140D01*
X40331000Y-11661860D01*
X40328236Y-11689928D01*
X40321840Y-11711009D01*
X40311452Y-11730445D01*
X40297476Y-11747476D01*
X40280445Y-11761452D01*
X40261009Y-11771840D01*
X40239928Y-11778236D01*
X40211860Y-11781000D01*
X38398140Y-11781000D01*
X38370072Y-11778236D01*
X38348991Y-11771840D01*
X38329555Y-11761452D01*
X38312524Y-11747476D01*
X38298548Y-11730445D01*
X38288160Y-11711009D01*
X38281764Y-11689928D01*
X38279000Y-11661860D01*
X38279000Y-11198140D01*
X38281764Y-11170072D01*
X38288160Y-11148991D01*
X38298548Y-11129555D01*
X38312524Y-11112524D01*
X38329555Y-11098548D01*
X38348991Y-11088160D01*
X38370072Y-11081764D01*
X38398140Y-11079000D01*
X40211860Y-11079000D01*
X40239928Y-11081764D01*
X40239928Y-11081764D01*
G37*
G36*
X21823642Y-9389781D02*
G01*
X21953248Y-9443466D01*
X21969416Y-9450163D01*
X22100608Y-9537822D01*
X22212178Y-9649392D01*
X22280091Y-9751032D01*
X22299838Y-9780586D01*
X22360219Y-9926358D01*
X22391000Y-10081107D01*
X22391000Y-10238893D01*
X22360219Y-10393642D01*
X22299838Y-10539414D01*
X22299837Y-10539416D01*
X22212178Y-10670608D01*
X22100608Y-10782178D01*
X21969416Y-10869837D01*
X21969415Y-10869838D01*
X21969414Y-10869838D01*
X21823642Y-10930219D01*
X21668893Y-10961000D01*
X21511107Y-10961000D01*
X21356358Y-10930219D01*
X21210586Y-10869838D01*
X21210585Y-10869838D01*
X21210584Y-10869837D01*
X21079392Y-10782178D01*
X20967822Y-10670608D01*
X20880163Y-10539416D01*
X20880162Y-10539414D01*
X20819781Y-10393642D01*
X20789000Y-10238893D01*
X20789000Y-10081107D01*
X20819781Y-9926358D01*
X20880162Y-9780586D01*
X20899909Y-9751032D01*
X20967822Y-9649392D01*
X21079392Y-9537822D01*
X21210584Y-9450163D01*
X21226752Y-9443466D01*
X21356358Y-9389781D01*
X21511107Y-9359000D01*
X21668893Y-9359000D01*
X21823642Y-9389781D01*
X21823642Y-9389781D01*
G37*
G36*
X45938674Y-9413465D02*
G01*
X45976367Y-9424899D01*
X46011103Y-9443466D01*
X46041548Y-9468452D01*
X46066534Y-9498897D01*
X46085101Y-9533633D01*
X46096535Y-9571326D01*
X46101000Y-9616661D01*
X46101000Y-10703339D01*
X46096535Y-10748674D01*
X46085101Y-10786367D01*
X46066534Y-10821103D01*
X46041548Y-10851548D01*
X46011103Y-10876534D01*
X45976367Y-10895101D01*
X45938674Y-10906535D01*
X45893339Y-10911000D01*
X45056661Y-10911000D01*
X45011326Y-10906535D01*
X44973633Y-10895101D01*
X44938897Y-10876534D01*
X44908452Y-10851548D01*
X44883466Y-10821103D01*
X44864899Y-10786367D01*
X44853465Y-10748674D01*
X44849000Y-10703339D01*
X44849000Y-9616661D01*
X44853465Y-9571326D01*
X44864899Y-9533633D01*
X44883466Y-9498897D01*
X44908452Y-9468452D01*
X44938897Y-9443466D01*
X44973633Y-9424899D01*
X45011326Y-9413465D01*
X45056661Y-9409000D01*
X45893339Y-9409000D01*
X45938674Y-9413465D01*
X45938674Y-9413465D01*
G37*
G36*
X43888674Y-9413465D02*
G01*
X43926367Y-9424899D01*
X43961103Y-9443466D01*
X43991548Y-9468452D01*
X44016534Y-9498897D01*
X44035101Y-9533633D01*
X44046535Y-9571326D01*
X44051000Y-9616661D01*
X44051000Y-10703339D01*
X44046535Y-10748674D01*
X44035101Y-10786367D01*
X44016534Y-10821103D01*
X43991548Y-10851548D01*
X43961103Y-10876534D01*
X43926367Y-10895101D01*
X43888674Y-10906535D01*
X43843339Y-10911000D01*
X43006661Y-10911000D01*
X42961326Y-10906535D01*
X42923633Y-10895101D01*
X42888897Y-10876534D01*
X42858452Y-10851548D01*
X42833466Y-10821103D01*
X42814899Y-10786367D01*
X42803465Y-10748674D01*
X42799000Y-10703339D01*
X42799000Y-9616661D01*
X42803465Y-9571326D01*
X42814899Y-9533633D01*
X42833466Y-9498897D01*
X42858452Y-9468452D01*
X42888897Y-9443466D01*
X42923633Y-9424899D01*
X42961326Y-9413465D01*
X43006661Y-9409000D01*
X43843339Y-9409000D01*
X43888674Y-9413465D01*
X43888674Y-9413465D01*
G37*
G36*
X56271000Y-10721000D02*
G01*
X54169000Y-10721000D01*
X54169000Y-9119000D01*
X56271000Y-9119000D01*
X56271000Y-10721000D01*
X56271000Y-10721000D01*
G37*
G36*
X67913097Y-8499069D02*
G01*
X68016032Y-8509207D01*
X68178685Y-8558548D01*
X68214149Y-8569306D01*
X68288394Y-8608991D01*
X68396729Y-8666897D01*
X68556765Y-8798235D01*
X68688103Y-8958271D01*
X68733939Y-9044025D01*
X68785694Y-9140851D01*
X68785695Y-9140854D01*
X68845793Y-9338968D01*
X68866085Y-9545000D01*
X68845793Y-9751032D01*
X68792608Y-9926357D01*
X68785694Y-9949149D01*
X68766798Y-9984500D01*
X68688103Y-10131729D01*
X68556765Y-10291765D01*
X68396729Y-10423103D01*
X68310975Y-10468939D01*
X68214149Y-10520694D01*
X68214146Y-10520695D01*
X68016032Y-10580793D01*
X67913097Y-10590931D01*
X67861631Y-10596000D01*
X66758369Y-10596000D01*
X66706903Y-10590931D01*
X66603968Y-10580793D01*
X66405854Y-10520695D01*
X66405851Y-10520694D01*
X66309025Y-10468939D01*
X66223271Y-10423103D01*
X66063235Y-10291765D01*
X65931897Y-10131729D01*
X65853202Y-9984500D01*
X65834306Y-9949149D01*
X65827392Y-9926357D01*
X65774207Y-9751032D01*
X65753915Y-9545000D01*
X65774207Y-9338968D01*
X65834305Y-9140854D01*
X65834306Y-9140851D01*
X65886061Y-9044025D01*
X65931897Y-8958271D01*
X66063235Y-8798235D01*
X66223271Y-8666897D01*
X66331606Y-8608991D01*
X66405851Y-8569306D01*
X66441315Y-8558548D01*
X66603968Y-8509207D01*
X66706903Y-8499069D01*
X66758369Y-8494000D01*
X67861631Y-8494000D01*
X67913097Y-8499069D01*
X67913097Y-8499069D01*
G37*
G36*
X60413097Y-8499069D02*
G01*
X60516032Y-8509207D01*
X60678685Y-8558548D01*
X60714149Y-8569306D01*
X60788394Y-8608991D01*
X60896729Y-8666897D01*
X61056765Y-8798235D01*
X61188103Y-8958271D01*
X61233939Y-9044025D01*
X61285694Y-9140851D01*
X61285695Y-9140854D01*
X61345793Y-9338968D01*
X61366085Y-9545000D01*
X61345793Y-9751032D01*
X61292608Y-9926357D01*
X61285694Y-9949149D01*
X61266798Y-9984500D01*
X61188103Y-10131729D01*
X61056765Y-10291765D01*
X60896729Y-10423103D01*
X60810975Y-10468939D01*
X60714149Y-10520694D01*
X60714146Y-10520695D01*
X60516032Y-10580793D01*
X60413097Y-10590931D01*
X60361631Y-10596000D01*
X59258369Y-10596000D01*
X59206903Y-10590931D01*
X59103968Y-10580793D01*
X58905854Y-10520695D01*
X58905851Y-10520694D01*
X58809025Y-10468939D01*
X58723271Y-10423103D01*
X58563235Y-10291765D01*
X58431897Y-10131729D01*
X58353202Y-9984500D01*
X58334306Y-9949149D01*
X58327392Y-9926357D01*
X58274207Y-9751032D01*
X58253915Y-9545000D01*
X58274207Y-9338968D01*
X58334305Y-9140854D01*
X58334306Y-9140851D01*
X58386061Y-9044025D01*
X58431897Y-8958271D01*
X58563235Y-8798235D01*
X58723271Y-8666897D01*
X58831606Y-8608991D01*
X58905851Y-8569306D01*
X58941315Y-8558548D01*
X59103968Y-8509207D01*
X59206903Y-8499069D01*
X59258369Y-8494000D01*
X60361631Y-8494000D01*
X60413097Y-8499069D01*
X60413097Y-8499069D01*
G37*
G36*
X40239928Y-9811764D02*
G01*
X40261009Y-9818160D01*
X40280445Y-9828548D01*
X40297476Y-9842524D01*
X40311452Y-9859555D01*
X40321840Y-9878991D01*
X40328236Y-9900072D01*
X40331000Y-9928140D01*
X40331000Y-10391860D01*
X40328236Y-10419928D01*
X40321840Y-10441009D01*
X40311452Y-10460445D01*
X40297476Y-10477476D01*
X40280445Y-10491452D01*
X40261009Y-10501840D01*
X40239928Y-10508236D01*
X40211860Y-10511000D01*
X38398140Y-10511000D01*
X38370072Y-10508236D01*
X38348991Y-10501840D01*
X38329555Y-10491452D01*
X38312524Y-10477476D01*
X38298548Y-10460445D01*
X38288160Y-10441009D01*
X38281764Y-10419928D01*
X38279000Y-10391860D01*
X38279000Y-9928140D01*
X38281764Y-9900072D01*
X38288160Y-9878991D01*
X38298548Y-9859555D01*
X38312524Y-9842524D01*
X38329555Y-9828548D01*
X38348991Y-9818160D01*
X38370072Y-9811764D01*
X38398140Y-9809000D01*
X40211860Y-9809000D01*
X40239928Y-9811764D01*
X40239928Y-9811764D01*
G37*
G36*
X35289928Y-9811764D02*
G01*
X35311009Y-9818160D01*
X35330445Y-9828548D01*
X35347476Y-9842524D01*
X35361452Y-9859555D01*
X35371840Y-9878991D01*
X35378236Y-9900072D01*
X35381000Y-9928140D01*
X35381000Y-10391860D01*
X35378236Y-10419928D01*
X35371840Y-10441009D01*
X35361452Y-10460445D01*
X35347476Y-10477476D01*
X35330445Y-10491452D01*
X35311009Y-10501840D01*
X35289928Y-10508236D01*
X35261860Y-10511000D01*
X33448140Y-10511000D01*
X33420072Y-10508236D01*
X33398991Y-10501840D01*
X33379555Y-10491452D01*
X33362524Y-10477476D01*
X33348548Y-10460445D01*
X33338160Y-10441009D01*
X33331764Y-10419928D01*
X33329000Y-10391860D01*
X33329000Y-9928140D01*
X33331764Y-9900072D01*
X33338160Y-9878991D01*
X33348548Y-9859555D01*
X33362524Y-9842524D01*
X33379555Y-9828548D01*
X33398991Y-9818160D01*
X33420072Y-9811764D01*
X33448140Y-9809000D01*
X35261860Y-9809000D01*
X35289928Y-9811764D01*
X35289928Y-9811764D01*
G37*
G36*
X49971000Y-9571000D02*
G01*
X47869000Y-9571000D01*
X47869000Y-5669000D01*
X49971000Y-5669000D01*
X49971000Y-9571000D01*
X49971000Y-9571000D01*
G37*
G36*
X40239928Y-8541764D02*
G01*
X40261009Y-8548160D01*
X40280445Y-8558548D01*
X40297476Y-8572524D01*
X40311452Y-8589555D01*
X40321840Y-8608991D01*
X40328236Y-8630072D01*
X40331000Y-8658140D01*
X40331000Y-9121860D01*
X40328236Y-9149928D01*
X40321840Y-9171009D01*
X40311452Y-9190445D01*
X40297476Y-9207476D01*
X40280445Y-9221452D01*
X40261009Y-9231840D01*
X40239928Y-9238236D01*
X40211860Y-9241000D01*
X38398140Y-9241000D01*
X38370072Y-9238236D01*
X38348991Y-9231840D01*
X38329555Y-9221452D01*
X38312524Y-9207476D01*
X38298548Y-9190445D01*
X38288160Y-9171009D01*
X38281764Y-9149928D01*
X38279000Y-9121860D01*
X38279000Y-8658140D01*
X38281764Y-8630072D01*
X38288160Y-8608991D01*
X38298548Y-8589555D01*
X38312524Y-8572524D01*
X38329555Y-8558548D01*
X38348991Y-8548160D01*
X38370072Y-8541764D01*
X38398140Y-8539000D01*
X40211860Y-8539000D01*
X40239928Y-8541764D01*
X40239928Y-8541764D01*
G37*
G36*
X35289928Y-8541764D02*
G01*
X35311009Y-8548160D01*
X35330445Y-8558548D01*
X35347476Y-8572524D01*
X35361452Y-8589555D01*
X35371840Y-8608991D01*
X35378236Y-8630072D01*
X35381000Y-8658140D01*
X35381000Y-9121860D01*
X35378236Y-9149928D01*
X35371840Y-9171009D01*
X35361452Y-9190445D01*
X35347476Y-9207476D01*
X35330445Y-9221452D01*
X35311009Y-9231840D01*
X35289928Y-9238236D01*
X35261860Y-9241000D01*
X33448140Y-9241000D01*
X33420072Y-9238236D01*
X33398991Y-9231840D01*
X33379555Y-9221452D01*
X33362524Y-9207476D01*
X33348548Y-9190445D01*
X33338160Y-9171009D01*
X33331764Y-9149928D01*
X33329000Y-9121860D01*
X33329000Y-8658140D01*
X33331764Y-8630072D01*
X33338160Y-8608991D01*
X33348548Y-8589555D01*
X33362524Y-8572524D01*
X33379555Y-8558548D01*
X33398991Y-8548160D01*
X33420072Y-8541764D01*
X33448140Y-8539000D01*
X35261860Y-8539000D01*
X35289928Y-8541764D01*
X35289928Y-8541764D01*
G37*
G36*
X81361000Y-8971000D02*
G01*
X78659000Y-8971000D01*
X78659000Y-6269000D01*
X81361000Y-6269000D01*
X81361000Y-8971000D01*
X81361000Y-8971000D01*
G37*
G36*
X75324072Y-6320918D02*
G01*
X75569939Y-6422759D01*
X75681328Y-6497187D01*
X75791211Y-6570609D01*
X75979391Y-6758789D01*
X75991716Y-6777235D01*
X76113100Y-6958897D01*
X76127242Y-6980063D01*
X76229082Y-7225928D01*
X76281000Y-7486937D01*
X76281000Y-7753063D01*
X76229082Y-8014072D01*
X76193976Y-8098827D01*
X76127241Y-8259939D01*
X76056526Y-8365770D01*
X75991716Y-8462766D01*
X75979390Y-8481212D01*
X75791212Y-8669390D01*
X75569939Y-8817241D01*
X75569938Y-8817242D01*
X75569937Y-8817242D01*
X75324072Y-8919082D01*
X75063063Y-8971000D01*
X74796937Y-8971000D01*
X74535928Y-8919082D01*
X74290063Y-8817242D01*
X74290062Y-8817242D01*
X74290061Y-8817241D01*
X74068788Y-8669390D01*
X73880610Y-8481212D01*
X73868285Y-8462766D01*
X73803474Y-8365770D01*
X73732759Y-8259939D01*
X73666025Y-8098827D01*
X73630918Y-8014072D01*
X73579000Y-7753063D01*
X73579000Y-7486937D01*
X73630918Y-7225928D01*
X73732758Y-6980063D01*
X73746901Y-6958897D01*
X73868284Y-6777235D01*
X73880609Y-6758789D01*
X74068789Y-6570609D01*
X74178672Y-6497187D01*
X74290061Y-6422759D01*
X74535928Y-6320918D01*
X74796937Y-6269000D01*
X75063063Y-6269000D01*
X75324072Y-6320918D01*
X75324072Y-6320918D01*
G37*
G36*
X16787395Y-6705546D02*
G01*
X16960466Y-6777234D01*
X16960467Y-6777235D01*
X17116227Y-6881310D01*
X17248690Y-7013773D01*
X17248691Y-7013775D01*
X17352766Y-7169534D01*
X17424454Y-7342605D01*
X17461000Y-7526333D01*
X17461000Y-7713667D01*
X17424454Y-7897395D01*
X17352766Y-8070466D01*
X17352765Y-8070467D01*
X17248690Y-8226227D01*
X17116227Y-8358690D01*
X17037818Y-8411081D01*
X16960466Y-8462766D01*
X16787395Y-8534454D01*
X16603667Y-8571000D01*
X16416333Y-8571000D01*
X16232605Y-8534454D01*
X16059534Y-8462766D01*
X15982182Y-8411081D01*
X15903773Y-8358690D01*
X15771310Y-8226227D01*
X15667235Y-8070467D01*
X15667234Y-8070466D01*
X15595546Y-7897395D01*
X15559000Y-7713667D01*
X15559000Y-7526333D01*
X15595546Y-7342605D01*
X15667234Y-7169534D01*
X15771309Y-7013775D01*
X15771310Y-7013773D01*
X15903773Y-6881310D01*
X16059533Y-6777235D01*
X16059534Y-6777234D01*
X16232605Y-6705546D01*
X16416333Y-6669000D01*
X16603667Y-6669000D01*
X16787395Y-6705546D01*
X16787395Y-6705546D01*
G37*
G36*
X29487395Y-6705546D02*
G01*
X29660466Y-6777234D01*
X29660467Y-6777235D01*
X29816227Y-6881310D01*
X29948690Y-7013773D01*
X29948691Y-7013775D01*
X30052766Y-7169534D01*
X30124454Y-7342605D01*
X30161000Y-7526333D01*
X30161000Y-7713667D01*
X30124454Y-7897395D01*
X30052766Y-8070466D01*
X30052765Y-8070467D01*
X29948690Y-8226227D01*
X29816227Y-8358690D01*
X29737818Y-8411081D01*
X29660466Y-8462766D01*
X29487395Y-8534454D01*
X29303667Y-8571000D01*
X29116333Y-8571000D01*
X28932605Y-8534454D01*
X28759534Y-8462766D01*
X28682182Y-8411081D01*
X28603773Y-8358690D01*
X28471310Y-8226227D01*
X28367235Y-8070467D01*
X28367234Y-8070466D01*
X28295546Y-7897395D01*
X28259000Y-7713667D01*
X28259000Y-7526333D01*
X28295546Y-7342605D01*
X28367234Y-7169534D01*
X28471309Y-7013775D01*
X28471310Y-7013773D01*
X28603773Y-6881310D01*
X28759533Y-6777235D01*
X28759534Y-6777234D01*
X28932605Y-6705546D01*
X29116333Y-6669000D01*
X29303667Y-6669000D01*
X29487395Y-6705546D01*
X29487395Y-6705546D01*
G37*
G36*
X56271000Y-8421000D02*
G01*
X54169000Y-8421000D01*
X54169000Y-6819000D01*
X56271000Y-6819000D01*
X56271000Y-8421000D01*
X56271000Y-8421000D01*
G37*
G36*
X20393674Y-6873465D02*
G01*
X20431367Y-6884899D01*
X20466103Y-6903466D01*
X20496548Y-6928452D01*
X20521534Y-6958897D01*
X20540101Y-6993633D01*
X20551535Y-7031326D01*
X20556000Y-7076661D01*
X20556000Y-8163339D01*
X20551535Y-8208674D01*
X20540101Y-8246367D01*
X20521534Y-8281103D01*
X20496548Y-8311548D01*
X20466103Y-8336534D01*
X20431367Y-8355101D01*
X20393674Y-8366535D01*
X20348339Y-8371000D01*
X19511661Y-8371000D01*
X19466326Y-8366535D01*
X19428633Y-8355101D01*
X19393897Y-8336534D01*
X19363452Y-8311548D01*
X19338466Y-8281103D01*
X19319899Y-8246367D01*
X19308465Y-8208674D01*
X19304000Y-8163339D01*
X19304000Y-7076661D01*
X19308465Y-7031326D01*
X19319899Y-6993633D01*
X19338466Y-6958897D01*
X19363452Y-6928452D01*
X19393897Y-6903466D01*
X19428633Y-6884899D01*
X19466326Y-6873465D01*
X19511661Y-6869000D01*
X20348339Y-6869000D01*
X20393674Y-6873465D01*
X20393674Y-6873465D01*
G37*
G36*
X22443674Y-6873465D02*
G01*
X22481367Y-6884899D01*
X22516103Y-6903466D01*
X22546548Y-6928452D01*
X22571534Y-6958897D01*
X22590101Y-6993633D01*
X22601535Y-7031326D01*
X22606000Y-7076661D01*
X22606000Y-8163339D01*
X22601535Y-8208674D01*
X22590101Y-8246367D01*
X22571534Y-8281103D01*
X22546548Y-8311548D01*
X22516103Y-8336534D01*
X22481367Y-8355101D01*
X22443674Y-8366535D01*
X22398339Y-8371000D01*
X21561661Y-8371000D01*
X21516326Y-8366535D01*
X21478633Y-8355101D01*
X21443897Y-8336534D01*
X21413452Y-8311548D01*
X21388466Y-8281103D01*
X21369899Y-8246367D01*
X21358465Y-8208674D01*
X21354000Y-8163339D01*
X21354000Y-7076661D01*
X21358465Y-7031326D01*
X21369899Y-6993633D01*
X21388466Y-6958897D01*
X21413452Y-6928452D01*
X21443897Y-6903466D01*
X21478633Y-6884899D01*
X21516326Y-6873465D01*
X21561661Y-6869000D01*
X22398339Y-6869000D01*
X22443674Y-6873465D01*
X22443674Y-6873465D01*
G37*
G36*
X24203674Y-6873465D02*
G01*
X24241367Y-6884899D01*
X24276103Y-6903466D01*
X24306548Y-6928452D01*
X24331534Y-6958897D01*
X24350101Y-6993633D01*
X24361535Y-7031326D01*
X24366000Y-7076661D01*
X24366000Y-8163339D01*
X24361535Y-8208674D01*
X24350101Y-8246367D01*
X24331534Y-8281103D01*
X24306548Y-8311548D01*
X24276103Y-8336534D01*
X24241367Y-8355101D01*
X24203674Y-8366535D01*
X24158339Y-8371000D01*
X23321661Y-8371000D01*
X23276326Y-8366535D01*
X23238633Y-8355101D01*
X23203897Y-8336534D01*
X23173452Y-8311548D01*
X23148466Y-8281103D01*
X23129899Y-8246367D01*
X23118465Y-8208674D01*
X23114000Y-8163339D01*
X23114000Y-7076661D01*
X23118465Y-7031326D01*
X23129899Y-6993633D01*
X23148466Y-6958897D01*
X23173452Y-6928452D01*
X23203897Y-6903466D01*
X23238633Y-6884899D01*
X23276326Y-6873465D01*
X23321661Y-6869000D01*
X24158339Y-6869000D01*
X24203674Y-6873465D01*
X24203674Y-6873465D01*
G37*
G36*
X26253674Y-6873465D02*
G01*
X26291367Y-6884899D01*
X26326103Y-6903466D01*
X26356548Y-6928452D01*
X26381534Y-6958897D01*
X26400101Y-6993633D01*
X26411535Y-7031326D01*
X26416000Y-7076661D01*
X26416000Y-8163339D01*
X26411535Y-8208674D01*
X26400101Y-8246367D01*
X26381534Y-8281103D01*
X26356548Y-8311548D01*
X26326103Y-8336534D01*
X26291367Y-8355101D01*
X26253674Y-8366535D01*
X26208339Y-8371000D01*
X25371661Y-8371000D01*
X25326326Y-8366535D01*
X25288633Y-8355101D01*
X25253897Y-8336534D01*
X25223452Y-8311548D01*
X25198466Y-8281103D01*
X25179899Y-8246367D01*
X25168465Y-8208674D01*
X25164000Y-8163339D01*
X25164000Y-7076661D01*
X25168465Y-7031326D01*
X25179899Y-6993633D01*
X25198466Y-6958897D01*
X25223452Y-6928452D01*
X25253897Y-6903466D01*
X25288633Y-6884899D01*
X25326326Y-6873465D01*
X25371661Y-6869000D01*
X26208339Y-6869000D01*
X26253674Y-6873465D01*
X26253674Y-6873465D01*
G37*
G36*
X43888674Y-6873465D02*
G01*
X43926367Y-6884899D01*
X43961103Y-6903466D01*
X43991548Y-6928452D01*
X44016534Y-6958897D01*
X44035101Y-6993633D01*
X44046535Y-7031326D01*
X44051000Y-7076661D01*
X44051000Y-8163339D01*
X44046535Y-8208674D01*
X44035101Y-8246367D01*
X44016534Y-8281103D01*
X43991548Y-8311548D01*
X43961103Y-8336534D01*
X43926367Y-8355101D01*
X43888674Y-8366535D01*
X43843339Y-8371000D01*
X43006661Y-8371000D01*
X42961326Y-8366535D01*
X42923633Y-8355101D01*
X42888897Y-8336534D01*
X42858452Y-8311548D01*
X42833466Y-8281103D01*
X42814899Y-8246367D01*
X42803465Y-8208674D01*
X42799000Y-8163339D01*
X42799000Y-7076661D01*
X42803465Y-7031326D01*
X42814899Y-6993633D01*
X42833466Y-6958897D01*
X42858452Y-6928452D01*
X42888897Y-6903466D01*
X42923633Y-6884899D01*
X42961326Y-6873465D01*
X43006661Y-6869000D01*
X43843339Y-6869000D01*
X43888674Y-6873465D01*
X43888674Y-6873465D01*
G37*
G36*
X45938674Y-6873465D02*
G01*
X45976367Y-6884899D01*
X46011103Y-6903466D01*
X46041548Y-6928452D01*
X46066534Y-6958897D01*
X46085101Y-6993633D01*
X46096535Y-7031326D01*
X46101000Y-7076661D01*
X46101000Y-8163339D01*
X46096535Y-8208674D01*
X46085101Y-8246367D01*
X46066534Y-8281103D01*
X46041548Y-8311548D01*
X46011103Y-8336534D01*
X45976367Y-8355101D01*
X45938674Y-8366535D01*
X45893339Y-8371000D01*
X45056661Y-8371000D01*
X45011326Y-8366535D01*
X44973633Y-8355101D01*
X44938897Y-8336534D01*
X44908452Y-8311548D01*
X44883466Y-8281103D01*
X44864899Y-8246367D01*
X44853465Y-8208674D01*
X44849000Y-8163339D01*
X44849000Y-7076661D01*
X44853465Y-7031326D01*
X44864899Y-6993633D01*
X44883466Y-6958897D01*
X44908452Y-6928452D01*
X44938897Y-6903466D01*
X44973633Y-6884899D01*
X45011326Y-6873465D01*
X45056661Y-6869000D01*
X45893339Y-6869000D01*
X45938674Y-6873465D01*
X45938674Y-6873465D01*
G37*
G36*
X92074239Y-1891467D02*
G01*
X92388282Y-1953934D01*
X92979926Y-2199001D01*
X93512392Y-2554784D01*
X93965216Y-3007608D01*
X94320999Y-3540074D01*
X94566066Y-4131718D01*
X94588294Y-4243466D01*
X94691000Y-4759803D01*
X94691000Y-5400197D01*
X94678905Y-5461000D01*
X94566066Y-6028282D01*
X94320999Y-6619926D01*
X94057838Y-7013773D01*
X93972713Y-7141173D01*
X93965216Y-7152392D01*
X93512392Y-7605216D01*
X92979926Y-7960999D01*
X92388282Y-8206066D01*
X92117454Y-8259937D01*
X91760197Y-8331000D01*
X91119803Y-8331000D01*
X90762546Y-8259937D01*
X90491718Y-8206066D01*
X89900074Y-7960999D01*
X89367608Y-7605216D01*
X88914784Y-7152392D01*
X88907288Y-7141173D01*
X88822162Y-7013773D01*
X88559001Y-6619926D01*
X88313934Y-6028282D01*
X88201095Y-5461000D01*
X88189000Y-5400197D01*
X88189000Y-4759803D01*
X88291706Y-4243466D01*
X88313934Y-4131718D01*
X88559001Y-3540074D01*
X88914784Y-3007608D01*
X89367608Y-2554784D01*
X89900074Y-2199001D01*
X90491718Y-1953934D01*
X90805761Y-1891467D01*
X91119803Y-1829000D01*
X91760197Y-1829000D01*
X92074239Y-1891467D01*
X92074239Y-1891467D01*
G37*
G36*
X5714239Y-1891467D02*
G01*
X6028282Y-1953934D01*
X6619926Y-2199001D01*
X7152392Y-2554784D01*
X7605216Y-3007608D01*
X7960999Y-3540074D01*
X8206066Y-4131718D01*
X8228294Y-4243466D01*
X8331000Y-4759803D01*
X8331000Y-5400197D01*
X8318905Y-5461000D01*
X8206066Y-6028282D01*
X7960999Y-6619926D01*
X7697838Y-7013773D01*
X7612713Y-7141173D01*
X7605216Y-7152392D01*
X7152392Y-7605216D01*
X6619926Y-7960999D01*
X6028282Y-8206066D01*
X5757454Y-8259937D01*
X5400197Y-8331000D01*
X4759803Y-8331000D01*
X4402546Y-8259937D01*
X4131718Y-8206066D01*
X3540074Y-7960999D01*
X3007608Y-7605216D01*
X2554784Y-7152392D01*
X2547288Y-7141173D01*
X2462162Y-7013773D01*
X2199001Y-6619926D01*
X1953934Y-6028282D01*
X1841095Y-5461000D01*
X1829000Y-5400197D01*
X1829000Y-4759803D01*
X1931706Y-4243466D01*
X1953934Y-4131718D01*
X2199001Y-3540074D01*
X2554784Y-3007608D01*
X3007608Y-2554784D01*
X3540074Y-2199001D01*
X4131718Y-1953934D01*
X4445761Y-1891467D01*
X4759803Y-1829000D01*
X5400197Y-1829000D01*
X5714239Y-1891467D01*
X5714239Y-1891467D01*
G37*
G36*
X40239928Y-7271764D02*
G01*
X40261009Y-7278160D01*
X40280445Y-7288548D01*
X40297476Y-7302524D01*
X40311452Y-7319555D01*
X40321840Y-7338991D01*
X40328236Y-7360072D01*
X40331000Y-7388140D01*
X40331000Y-7851860D01*
X40328236Y-7879928D01*
X40321840Y-7901009D01*
X40311452Y-7920445D01*
X40297476Y-7937476D01*
X40280445Y-7951452D01*
X40261009Y-7961840D01*
X40239928Y-7968236D01*
X40211860Y-7971000D01*
X38398140Y-7971000D01*
X38370072Y-7968236D01*
X38348991Y-7961840D01*
X38329555Y-7951452D01*
X38312524Y-7937476D01*
X38298548Y-7920445D01*
X38288160Y-7901009D01*
X38281764Y-7879928D01*
X38279000Y-7851860D01*
X38279000Y-7388140D01*
X38281764Y-7360072D01*
X38288160Y-7338991D01*
X38298548Y-7319555D01*
X38312524Y-7302524D01*
X38329555Y-7288548D01*
X38348991Y-7278160D01*
X38370072Y-7271764D01*
X38398140Y-7269000D01*
X40211860Y-7269000D01*
X40239928Y-7271764D01*
X40239928Y-7271764D01*
G37*
G36*
X35289928Y-7271764D02*
G01*
X35311009Y-7278160D01*
X35330445Y-7288548D01*
X35347476Y-7302524D01*
X35361452Y-7319555D01*
X35371840Y-7338991D01*
X35378236Y-7360072D01*
X35381000Y-7388140D01*
X35381000Y-7851860D01*
X35378236Y-7879928D01*
X35371840Y-7901009D01*
X35361452Y-7920445D01*
X35347476Y-7937476D01*
X35330445Y-7951452D01*
X35311009Y-7961840D01*
X35289928Y-7968236D01*
X35261860Y-7971000D01*
X33448140Y-7971000D01*
X33420072Y-7968236D01*
X33398991Y-7961840D01*
X33379555Y-7951452D01*
X33362524Y-7937476D01*
X33348548Y-7920445D01*
X33338160Y-7901009D01*
X33331764Y-7879928D01*
X33329000Y-7851860D01*
X33329000Y-7388140D01*
X33331764Y-7360072D01*
X33338160Y-7338991D01*
X33348548Y-7319555D01*
X33362524Y-7302524D01*
X33379555Y-7288548D01*
X33398991Y-7278160D01*
X33420072Y-7271764D01*
X33448140Y-7269000D01*
X35261860Y-7269000D01*
X35289928Y-7271764D01*
X35289928Y-7271764D01*
G37*
G36*
X35289928Y-6001764D02*
G01*
X35311009Y-6008160D01*
X35330445Y-6018548D01*
X35347476Y-6032524D01*
X35361452Y-6049555D01*
X35371840Y-6068991D01*
X35378236Y-6090072D01*
X35381000Y-6118140D01*
X35381000Y-6581860D01*
X35378236Y-6609928D01*
X35371840Y-6631009D01*
X35361452Y-6650445D01*
X35347476Y-6667476D01*
X35330445Y-6681452D01*
X35311009Y-6691840D01*
X35289928Y-6698236D01*
X35261860Y-6701000D01*
X33448140Y-6701000D01*
X33420072Y-6698236D01*
X33398991Y-6691840D01*
X33379555Y-6681452D01*
X33362524Y-6667476D01*
X33348548Y-6650445D01*
X33338160Y-6631009D01*
X33331764Y-6609928D01*
X33329000Y-6581860D01*
X33329000Y-6118140D01*
X33331764Y-6090072D01*
X33338160Y-6068991D01*
X33348548Y-6049555D01*
X33362524Y-6032524D01*
X33379555Y-6018548D01*
X33398991Y-6008160D01*
X33420072Y-6001764D01*
X33448140Y-5999000D01*
X35261860Y-5999000D01*
X35289928Y-6001764D01*
X35289928Y-6001764D01*
G37*
G36*
X40239928Y-6001764D02*
G01*
X40261009Y-6008160D01*
X40280445Y-6018548D01*
X40297476Y-6032524D01*
X40311452Y-6049555D01*
X40321840Y-6068991D01*
X40328236Y-6090072D01*
X40331000Y-6118140D01*
X40331000Y-6581860D01*
X40328236Y-6609928D01*
X40321840Y-6631009D01*
X40311452Y-6650445D01*
X40297476Y-6667476D01*
X40280445Y-6681452D01*
X40261009Y-6691840D01*
X40239928Y-6698236D01*
X40211860Y-6701000D01*
X38398140Y-6701000D01*
X38370072Y-6698236D01*
X38348991Y-6691840D01*
X38329555Y-6681452D01*
X38312524Y-6667476D01*
X38298548Y-6650445D01*
X38288160Y-6631009D01*
X38281764Y-6609928D01*
X38279000Y-6581860D01*
X38279000Y-6118140D01*
X38281764Y-6090072D01*
X38288160Y-6068991D01*
X38298548Y-6049555D01*
X38312524Y-6032524D01*
X38329555Y-6018548D01*
X38348991Y-6008160D01*
X38370072Y-6001764D01*
X38398140Y-5999000D01*
X40211860Y-5999000D01*
X40239928Y-6001764D01*
X40239928Y-6001764D01*
G37*
G36*
X56271000Y-6121000D02*
G01*
X54169000Y-6121000D01*
X54169000Y-4519000D01*
X56271000Y-4519000D01*
X56271000Y-6121000D01*
X56271000Y-6121000D01*
G37*
G36*
X21867395Y-4165546D02*
G01*
X22040466Y-4237234D01*
X22087187Y-4268452D01*
X22196227Y-4341310D01*
X22328690Y-4473773D01*
X22381081Y-4552182D01*
X22432766Y-4629534D01*
X22504454Y-4802605D01*
X22541000Y-4986333D01*
X22541000Y-5173667D01*
X22504454Y-5357395D01*
X22432766Y-5530466D01*
X22381081Y-5607818D01*
X22328690Y-5686227D01*
X22196227Y-5818690D01*
X22117818Y-5871081D01*
X22040466Y-5922766D01*
X21867395Y-5994454D01*
X21683667Y-6031000D01*
X21496333Y-6031000D01*
X21312605Y-5994454D01*
X21139534Y-5922766D01*
X21062182Y-5871081D01*
X20983773Y-5818690D01*
X20851310Y-5686227D01*
X20798919Y-5607818D01*
X20747234Y-5530466D01*
X20675546Y-5357395D01*
X20639000Y-5173667D01*
X20639000Y-4986333D01*
X20675546Y-4802605D01*
X20747234Y-4629534D01*
X20798919Y-4552182D01*
X20851310Y-4473773D01*
X20983773Y-4341310D01*
X21092813Y-4268452D01*
X21139534Y-4237234D01*
X21312605Y-4165546D01*
X21496333Y-4129000D01*
X21683667Y-4129000D01*
X21867395Y-4165546D01*
X21867395Y-4165546D01*
G37*
G36*
X60412397Y-3459000D02*
G01*
X60516032Y-3469207D01*
X60713111Y-3528991D01*
X60714149Y-3529306D01*
X60810975Y-3581061D01*
X60896729Y-3626897D01*
X61056765Y-3758235D01*
X61188103Y-3918271D01*
X61224037Y-3985500D01*
X61285694Y-4100851D01*
X61285695Y-4100854D01*
X61345793Y-4298968D01*
X61366085Y-4505000D01*
X61345793Y-4711032D01*
X61304201Y-4848140D01*
X61285694Y-4909149D01*
X61244438Y-4986333D01*
X61188103Y-5091729D01*
X61056765Y-5251765D01*
X60896729Y-5383103D01*
X60824257Y-5421840D01*
X60714149Y-5480694D01*
X60714146Y-5480695D01*
X60516032Y-5540793D01*
X60413097Y-5550931D01*
X60361631Y-5556000D01*
X59258369Y-5556000D01*
X59206903Y-5550931D01*
X59103968Y-5540793D01*
X58905854Y-5480695D01*
X58905851Y-5480694D01*
X58795743Y-5421840D01*
X58723271Y-5383103D01*
X58563235Y-5251765D01*
X58431897Y-5091729D01*
X58375562Y-4986333D01*
X58334306Y-4909149D01*
X58315799Y-4848140D01*
X58274207Y-4711032D01*
X58253915Y-4505000D01*
X58274207Y-4298968D01*
X58334305Y-4100854D01*
X58334306Y-4100851D01*
X58395963Y-3985500D01*
X58431897Y-3918271D01*
X58563235Y-3758235D01*
X58723271Y-3626897D01*
X58809025Y-3581061D01*
X58905851Y-3529306D01*
X58906889Y-3528991D01*
X59103968Y-3469207D01*
X59207603Y-3459000D01*
X59258369Y-3454000D01*
X60361631Y-3454000D01*
X60412397Y-3459000D01*
X60412397Y-3459000D01*
G37*
G36*
X67912397Y-3459000D02*
G01*
X68016032Y-3469207D01*
X68213111Y-3528991D01*
X68214149Y-3529306D01*
X68310975Y-3581061D01*
X68396729Y-3626897D01*
X68556765Y-3758235D01*
X68688103Y-3918271D01*
X68724037Y-3985500D01*
X68785694Y-4100851D01*
X68785695Y-4100854D01*
X68845793Y-4298968D01*
X68866085Y-4505000D01*
X68845793Y-4711032D01*
X68804201Y-4848140D01*
X68785694Y-4909149D01*
X68744438Y-4986333D01*
X68688103Y-5091729D01*
X68556765Y-5251765D01*
X68396729Y-5383103D01*
X68324257Y-5421840D01*
X68214149Y-5480694D01*
X68214146Y-5480695D01*
X68016032Y-5540793D01*
X67913097Y-5550931D01*
X67861631Y-5556000D01*
X66758369Y-5556000D01*
X66706903Y-5550931D01*
X66603968Y-5540793D01*
X66405854Y-5480695D01*
X66405851Y-5480694D01*
X66295743Y-5421840D01*
X66223271Y-5383103D01*
X66063235Y-5251765D01*
X65931897Y-5091729D01*
X65875562Y-4986333D01*
X65834306Y-4909149D01*
X65815799Y-4848140D01*
X65774207Y-4711032D01*
X65753915Y-4505000D01*
X65774207Y-4298968D01*
X65834305Y-4100854D01*
X65834306Y-4100851D01*
X65895963Y-3985500D01*
X65931897Y-3918271D01*
X66063235Y-3758235D01*
X66223271Y-3626897D01*
X66309025Y-3581061D01*
X66405851Y-3529306D01*
X66406889Y-3528991D01*
X66603968Y-3469207D01*
X66707603Y-3459000D01*
X66758369Y-3454000D01*
X67861631Y-3454000D01*
X67912397Y-3459000D01*
X67912397Y-3459000D01*
G37*
G36*
X43768674Y-4213465D02*
G01*
X43806367Y-4224899D01*
X43841103Y-4243466D01*
X43871548Y-4268452D01*
X43896534Y-4298897D01*
X43915101Y-4333633D01*
X43926535Y-4371326D01*
X43931000Y-4416661D01*
X43931000Y-5253339D01*
X43926535Y-5298674D01*
X43915101Y-5336367D01*
X43896534Y-5371103D01*
X43871548Y-5401548D01*
X43841103Y-5426534D01*
X43806367Y-5445101D01*
X43768674Y-5456535D01*
X43723339Y-5461000D01*
X42636661Y-5461000D01*
X42591326Y-5456535D01*
X42553633Y-5445101D01*
X42518897Y-5426534D01*
X42488452Y-5401548D01*
X42463466Y-5371103D01*
X42444899Y-5336367D01*
X42433465Y-5298674D01*
X42429000Y-5253339D01*
X42429000Y-4416661D01*
X42433465Y-4371326D01*
X42444899Y-4333633D01*
X42463466Y-4298897D01*
X42488452Y-4268452D01*
X42518897Y-4243466D01*
X42553633Y-4224899D01*
X42591326Y-4213465D01*
X42636661Y-4209000D01*
X43723339Y-4209000D01*
X43768674Y-4213465D01*
X43768674Y-4213465D01*
G37*
G36*
X35289928Y-4731764D02*
G01*
X35311009Y-4738160D01*
X35330445Y-4748548D01*
X35347476Y-4762524D01*
X35361452Y-4779555D01*
X35371840Y-4798991D01*
X35378236Y-4820072D01*
X35381000Y-4848140D01*
X35381000Y-5311860D01*
X35378236Y-5339928D01*
X35371840Y-5361009D01*
X35361452Y-5380445D01*
X35347476Y-5397476D01*
X35330445Y-5411452D01*
X35311009Y-5421840D01*
X35289928Y-5428236D01*
X35261860Y-5431000D01*
X33448140Y-5431000D01*
X33420072Y-5428236D01*
X33398991Y-5421840D01*
X33379555Y-5411452D01*
X33362524Y-5397476D01*
X33348548Y-5380445D01*
X33338160Y-5361009D01*
X33331764Y-5339928D01*
X33329000Y-5311860D01*
X33329000Y-4848140D01*
X33331764Y-4820072D01*
X33338160Y-4798991D01*
X33348548Y-4779555D01*
X33362524Y-4762524D01*
X33379555Y-4748548D01*
X33398991Y-4738160D01*
X33420072Y-4731764D01*
X33448140Y-4729000D01*
X35261860Y-4729000D01*
X35289928Y-4731764D01*
X35289928Y-4731764D01*
G37*
G36*
X40239928Y-4731764D02*
G01*
X40261009Y-4738160D01*
X40280445Y-4748548D01*
X40297476Y-4762524D01*
X40311452Y-4779555D01*
X40321840Y-4798991D01*
X40328236Y-4820072D01*
X40331000Y-4848140D01*
X40331000Y-5311860D01*
X40328236Y-5339928D01*
X40321840Y-5361009D01*
X40311452Y-5380445D01*
X40297476Y-5397476D01*
X40280445Y-5411452D01*
X40261009Y-5421840D01*
X40239928Y-5428236D01*
X40211860Y-5431000D01*
X38398140Y-5431000D01*
X38370072Y-5428236D01*
X38348991Y-5421840D01*
X38329555Y-5411452D01*
X38312524Y-5397476D01*
X38298548Y-5380445D01*
X38288160Y-5361009D01*
X38281764Y-5339928D01*
X38279000Y-5311860D01*
X38279000Y-4848140D01*
X38281764Y-4820072D01*
X38288160Y-4798991D01*
X38298548Y-4779555D01*
X38312524Y-4762524D01*
X38329555Y-4748548D01*
X38348991Y-4738160D01*
X38370072Y-4731764D01*
X38398140Y-4729000D01*
X40211860Y-4729000D01*
X40239928Y-4731764D01*
X40239928Y-4731764D01*
G37*
G36*
X35289928Y-3461764D02*
G01*
X35311009Y-3468160D01*
X35330445Y-3478548D01*
X35347476Y-3492524D01*
X35361452Y-3509555D01*
X35371840Y-3528991D01*
X35378236Y-3550072D01*
X35381000Y-3578140D01*
X35381000Y-4041860D01*
X35378236Y-4069928D01*
X35371840Y-4091009D01*
X35361452Y-4110445D01*
X35347476Y-4127476D01*
X35330445Y-4141452D01*
X35311009Y-4151840D01*
X35289928Y-4158236D01*
X35261860Y-4161000D01*
X33448140Y-4161000D01*
X33420072Y-4158236D01*
X33398991Y-4151840D01*
X33379555Y-4141452D01*
X33362524Y-4127476D01*
X33348548Y-4110445D01*
X33338160Y-4091009D01*
X33331764Y-4069928D01*
X33329000Y-4041860D01*
X33329000Y-3578140D01*
X33331764Y-3550072D01*
X33338160Y-3528991D01*
X33348548Y-3509555D01*
X33362524Y-3492524D01*
X33379555Y-3478548D01*
X33398991Y-3468160D01*
X33420072Y-3461764D01*
X33448140Y-3459000D01*
X35261860Y-3459000D01*
X35289928Y-3461764D01*
X35289928Y-3461764D01*
G37*
G36*
X40239928Y-3461764D02*
G01*
X40261009Y-3468160D01*
X40280445Y-3478548D01*
X40297476Y-3492524D01*
X40311452Y-3509555D01*
X40321840Y-3528991D01*
X40328236Y-3550072D01*
X40331000Y-3578140D01*
X40331000Y-4041860D01*
X40328236Y-4069928D01*
X40321840Y-4091009D01*
X40311452Y-4110445D01*
X40297476Y-4127476D01*
X40280445Y-4141452D01*
X40261009Y-4151840D01*
X40239928Y-4158236D01*
X40211860Y-4161000D01*
X38398140Y-4161000D01*
X38370072Y-4158236D01*
X38348991Y-4151840D01*
X38329555Y-4141452D01*
X38312524Y-4127476D01*
X38298548Y-4110445D01*
X38288160Y-4091009D01*
X38281764Y-4069928D01*
X38279000Y-4041860D01*
X38279000Y-3578140D01*
X38281764Y-3550072D01*
X38288160Y-3528991D01*
X38298548Y-3509555D01*
X38312524Y-3492524D01*
X38329555Y-3478548D01*
X38348991Y-3468160D01*
X38370072Y-3461764D01*
X38398140Y-3459000D01*
X40211860Y-3459000D01*
X40239928Y-3461764D01*
X40239928Y-3461764D01*
G37*
G36*
X43768674Y-2163465D02*
G01*
X43806367Y-2174899D01*
X43841103Y-2193466D01*
X43871548Y-2218452D01*
X43896534Y-2248897D01*
X43915101Y-2283633D01*
X43926535Y-2321326D01*
X43931000Y-2366661D01*
X43931000Y-3203339D01*
X43926535Y-3248674D01*
X43915101Y-3286367D01*
X43896534Y-3321103D01*
X43871548Y-3351548D01*
X43841103Y-3376534D01*
X43806367Y-3395101D01*
X43768674Y-3406535D01*
X43723339Y-3411000D01*
X42636661Y-3411000D01*
X42591326Y-3406535D01*
X42553633Y-3395101D01*
X42518897Y-3376534D01*
X42488452Y-3351548D01*
X42463466Y-3321103D01*
X42444899Y-3286367D01*
X42433465Y-3248674D01*
X42429000Y-3203339D01*
X42429000Y-2366661D01*
X42433465Y-2321326D01*
X42444899Y-2283633D01*
X42463466Y-2248897D01*
X42488452Y-2218452D01*
X42518897Y-2193466D01*
X42553633Y-2174899D01*
X42591326Y-2163465D01*
X42636661Y-2159000D01*
X43723339Y-2159000D01*
X43768674Y-2163465D01*
X43768674Y-2163465D01*
G37*
G36*
X21823642Y-1769781D02*
G01*
X21969414Y-1830162D01*
X21969416Y-1830163D01*
X22100608Y-1917822D01*
X22212178Y-2029392D01*
X22299837Y-2160584D01*
X22299838Y-2160586D01*
X22360219Y-2306358D01*
X22391000Y-2461107D01*
X22391000Y-2618893D01*
X22360219Y-2773642D01*
X22299838Y-2919414D01*
X22299837Y-2919416D01*
X22212178Y-3050608D01*
X22100608Y-3162178D01*
X21969416Y-3249837D01*
X21969415Y-3249838D01*
X21969414Y-3249838D01*
X21823642Y-3310219D01*
X21668893Y-3341000D01*
X21511107Y-3341000D01*
X21356358Y-3310219D01*
X21210586Y-3249838D01*
X21210585Y-3249838D01*
X21210584Y-3249837D01*
X21079392Y-3162178D01*
X20967822Y-3050608D01*
X20880163Y-2919416D01*
X20880162Y-2919414D01*
X20819781Y-2773642D01*
X20789000Y-2618893D01*
X20789000Y-2461107D01*
X20819781Y-2306358D01*
X20880162Y-2160586D01*
X20880163Y-2160584D01*
X20967822Y-2029392D01*
X21079392Y-1917822D01*
X21210584Y-1830163D01*
X21210586Y-1830162D01*
X21356358Y-1769781D01*
X21511107Y-1739000D01*
X21668893Y-1739000D01*
X21823642Y-1769781D01*
X21823642Y-1769781D01*
G37*
M02*
