G04 #@! TF.GenerationSoftware,KiCad,Pcbnew,5.1.4*
G04 #@! TF.CreationDate,2019-11-14T20:38:05+00:00*
G04 #@! TF.ProjectId,BSPD,42535044-2e6b-4696-9361-645f70636258,rev?*
G04 #@! TF.SameCoordinates,Original*
G04 #@! TF.FileFunction,Copper,L2,Bot*
G04 #@! TF.FilePolarity,Positive*
%FSLAX46Y46*%
G04 Gerber Fmt 4.6, Leading zero omitted, Abs format (unit mm)*
G04 Created by KiCad (PCBNEW 5.1.4) date 2019-11-14 20:38:05*
%MOMM*%
%LPD*%
G04 APERTURE LIST*
%ADD10C,0.050000*%
%ADD11O,1.600000X1.600000*%
%ADD12C,1.600000*%
%ADD13C,6.400000*%
%ADD14R,1.700000X1.700000*%
%ADD15O,1.700000X1.700000*%
%ADD16C,1.800000*%
%ADD17R,2.000000X3.000000*%
%ADD18O,2.000000X3.000000*%
%ADD19O,3.000000X2.000000*%
%ADD20R,2.600000X2.600000*%
%ADD21C,2.600000*%
%ADD22R,1.600000X1.600000*%
%ADD23C,0.800000*%
%ADD24C,1.000000*%
%ADD25C,0.609600*%
%ADD26C,0.203200*%
%ADD27C,0.254000*%
G04 APERTURE END LIST*
D10*
X63500000Y-63500000D02*
X160020000Y-63500000D01*
X63500000Y-99060000D02*
X63500000Y-63500000D01*
X160020000Y-99060000D02*
X63500000Y-99060000D01*
X160020000Y-99060000D02*
X160020000Y-63500000D01*
D11*
X149225000Y-90170000D03*
D12*
X149225000Y-80010000D03*
D13*
X68580000Y-93980000D03*
X68580000Y-68580000D03*
X154940000Y-93980000D03*
X154940000Y-68580000D03*
D14*
X138430000Y-83820000D03*
D15*
X140970000Y-83820000D03*
X138430000Y-86360000D03*
X140970000Y-86360000D03*
X138430000Y-88900000D03*
X140970000Y-88900000D03*
X138430000Y-91440000D03*
X140970000Y-91440000D03*
D16*
X92710000Y-93980000D03*
X85090000Y-91440000D03*
X80010000Y-93980000D03*
X92710000Y-86360000D03*
X85090000Y-83820000D03*
X80010000Y-86360000D03*
X92710000Y-78740000D03*
X85090000Y-76200000D03*
X80010000Y-78740000D03*
X92710000Y-71120000D03*
X85090000Y-68580000D03*
X80010000Y-71120000D03*
D17*
X130810000Y-93345000D03*
D18*
X123310000Y-93345000D03*
D19*
X130810000Y-73045000D03*
X123310000Y-68005000D03*
X123310000Y-78085000D03*
X130810000Y-78085000D03*
X123310000Y-73045000D03*
X130810000Y-68005000D03*
D20*
X143510000Y-71120000D03*
D21*
X138430000Y-71120000D03*
D12*
X146050000Y-80010000D03*
D11*
X146050000Y-90170000D03*
D22*
X115570000Y-90170000D03*
D12*
X115570000Y-92670000D03*
D23*
X98425000Y-77470000D03*
X96012000Y-72390000D03*
X107950000Y-80010000D03*
X118618000Y-75184000D03*
X101854000Y-89916000D03*
X115570000Y-83820000D03*
X102616000Y-76454000D03*
D24*
X115570000Y-71120000D03*
D23*
X120650000Y-81280000D03*
X104648000Y-83820000D03*
X96012000Y-83820000D03*
X101092000Y-82550000D03*
X99822000Y-86360000D03*
X99822000Y-69850000D03*
X105664000Y-74930000D03*
X105664000Y-78994000D03*
X104648000Y-69850000D03*
X105664000Y-73660000D03*
X105410000Y-80264000D03*
X101092000Y-67310000D03*
X100584000Y-74930000D03*
X96012000Y-71120000D03*
X82550000Y-73152000D03*
X96012000Y-67310000D03*
X81534000Y-67310000D03*
X96012000Y-82042000D03*
X105664000Y-83820000D03*
X102616000Y-78740000D03*
X105664000Y-83820000D03*
X105664000Y-86360000D03*
X95250000Y-87376000D03*
D25*
X146050000Y-80010000D02*
X149225000Y-80010000D01*
X115570000Y-90170000D02*
X115570000Y-83820000D01*
D26*
X115570000Y-83820000D02*
X108204000Y-76454000D01*
X102616000Y-76454000D02*
X108204000Y-76454000D01*
D25*
X115570000Y-76200000D02*
X120650000Y-81280000D01*
X115570000Y-76200000D02*
X115570000Y-71120000D01*
D26*
X104648000Y-83820000D02*
X103632000Y-83820000D01*
X103632000Y-83820000D02*
X101600000Y-81788000D01*
X101600000Y-81788000D02*
X100584000Y-81788000D01*
X98552000Y-83820000D02*
X96012000Y-83820000D01*
X100584000Y-81788000D02*
X98552000Y-83820000D01*
X99822000Y-83820000D02*
X101092000Y-82550000D01*
X99822000Y-86360000D02*
X99822000Y-83820000D01*
D25*
X146050000Y-90170000D02*
X149225000Y-90170000D01*
D26*
X103378000Y-69850000D02*
X104140000Y-70612000D01*
X104140000Y-70612000D02*
X104140000Y-73406000D01*
X105664000Y-74930000D02*
X104140000Y-73406000D01*
X113030000Y-97282000D02*
X110236000Y-94488000D01*
X105664000Y-78994000D02*
X104648000Y-80010000D01*
X104648000Y-80010000D02*
X104648000Y-80518000D01*
X104648000Y-80518000D02*
X105664000Y-81534000D01*
X105664000Y-81534000D02*
X110236000Y-86106000D01*
X110236000Y-94488000D02*
X110236000Y-86106000D01*
X138430000Y-88900000D02*
X135890000Y-91440000D01*
X135890000Y-91440000D02*
X135890000Y-95758000D01*
X135890000Y-95758000D02*
X134366000Y-97282000D01*
X134366000Y-97282000D02*
X113030000Y-97282000D01*
X99822000Y-69850000D02*
X103378000Y-69850000D01*
X104648000Y-69850000D02*
X104648000Y-72644000D01*
X104648000Y-72644000D02*
X105664000Y-73660000D01*
X113284000Y-96774000D02*
X110744000Y-94234000D01*
X110744000Y-94234000D02*
X110744000Y-85598000D01*
X105410000Y-80264000D02*
X110744000Y-85598000D01*
X135382000Y-95504000D02*
X134112000Y-96774000D01*
X135382000Y-89408000D02*
X135382000Y-95504000D01*
X138430000Y-86360000D02*
X135382000Y-89408000D01*
X134112000Y-96774000D02*
X113284000Y-96774000D01*
X99822000Y-68580000D02*
X101092000Y-67310000D01*
X85090000Y-68580000D02*
X99822000Y-68580000D01*
X99314000Y-76200000D02*
X100584000Y-74930000D01*
X85090000Y-76200000D02*
X99314000Y-76200000D01*
X93980000Y-73152000D02*
X96012000Y-71120000D01*
X82550000Y-73152000D02*
X93980000Y-73152000D01*
X96012000Y-67310000D02*
X81534000Y-67310000D01*
X96012000Y-67056000D02*
X96012000Y-67310000D01*
X99314000Y-78740000D02*
X96012000Y-82042000D01*
X102616000Y-78740000D02*
X102616000Y-80772000D01*
X102616000Y-80772000D02*
X105664000Y-83820000D01*
X99314000Y-78740000D02*
X102616000Y-78740000D01*
X104648000Y-87376000D02*
X105664000Y-86360000D01*
X95250000Y-87376000D02*
X104648000Y-87376000D01*
D27*
G36*
X149733000Y-78942116D02*
G01*
X149569485Y-78874386D01*
X149341318Y-78829000D01*
X149108682Y-78829000D01*
X148880515Y-78874386D01*
X148665587Y-78963412D01*
X148472157Y-79092658D01*
X148307658Y-79257157D01*
X148262861Y-79324200D01*
X147012139Y-79324200D01*
X146967342Y-79257157D01*
X146802843Y-79092658D01*
X146609413Y-78963412D01*
X146394485Y-78874386D01*
X146166318Y-78829000D01*
X145933682Y-78829000D01*
X145705515Y-78874386D01*
X145490587Y-78963412D01*
X145297157Y-79092658D01*
X145132658Y-79257157D01*
X145003412Y-79450587D01*
X144914386Y-79665515D01*
X144869000Y-79893682D01*
X144869000Y-80126318D01*
X144914386Y-80354485D01*
X145003412Y-80569413D01*
X145132658Y-80762843D01*
X145297157Y-80927342D01*
X145490587Y-81056588D01*
X145705515Y-81145614D01*
X145933682Y-81191000D01*
X146166318Y-81191000D01*
X146394485Y-81145614D01*
X146609413Y-81056588D01*
X146802843Y-80927342D01*
X146967342Y-80762843D01*
X147012139Y-80695800D01*
X148262861Y-80695800D01*
X148307658Y-80762843D01*
X148472157Y-80927342D01*
X148665587Y-81056588D01*
X148880515Y-81145614D01*
X149108682Y-81191000D01*
X149341318Y-81191000D01*
X149569485Y-81145614D01*
X149733000Y-81077884D01*
X149733000Y-89102410D01*
X149679136Y-89073619D01*
X149456516Y-89006088D01*
X149283016Y-88989000D01*
X149166984Y-88989000D01*
X148993484Y-89006088D01*
X148770864Y-89073619D01*
X148565697Y-89183283D01*
X148385866Y-89330866D01*
X148260028Y-89484200D01*
X147014972Y-89484200D01*
X146889134Y-89330866D01*
X146709303Y-89183283D01*
X146504136Y-89073619D01*
X146281516Y-89006088D01*
X146108016Y-88989000D01*
X145991984Y-88989000D01*
X145818484Y-89006088D01*
X145595864Y-89073619D01*
X145390697Y-89183283D01*
X145210866Y-89330866D01*
X145063283Y-89510697D01*
X144953619Y-89715864D01*
X144886088Y-89938484D01*
X144863286Y-90170000D01*
X144886088Y-90401516D01*
X144953619Y-90624136D01*
X145063283Y-90829303D01*
X145210866Y-91009134D01*
X145390697Y-91156717D01*
X145595864Y-91266381D01*
X145818484Y-91333912D01*
X145991984Y-91351000D01*
X146108016Y-91351000D01*
X146281516Y-91333912D01*
X146504136Y-91266381D01*
X146709303Y-91156717D01*
X146889134Y-91009134D01*
X147014972Y-90855800D01*
X148260028Y-90855800D01*
X148385866Y-91009134D01*
X148565697Y-91156717D01*
X148770864Y-91266381D01*
X148993484Y-91333912D01*
X149166984Y-91351000D01*
X149283016Y-91351000D01*
X149456516Y-91333912D01*
X149679136Y-91266381D01*
X149733000Y-91237590D01*
X149733000Y-98654000D01*
X76327000Y-98654000D01*
X76327000Y-95044080D01*
X79125525Y-95044080D01*
X79209208Y-95298261D01*
X79481775Y-95429158D01*
X79774642Y-95504365D01*
X80076553Y-95520991D01*
X80375907Y-95478397D01*
X80661199Y-95378222D01*
X80810792Y-95298261D01*
X80894475Y-95044080D01*
X80010000Y-94159605D01*
X79125525Y-95044080D01*
X76327000Y-95044080D01*
X76327000Y-94046553D01*
X78469009Y-94046553D01*
X78511603Y-94345907D01*
X78611778Y-94631199D01*
X78691739Y-94780792D01*
X78945920Y-94864475D01*
X79830395Y-93980000D01*
X80189605Y-93980000D01*
X81074080Y-94864475D01*
X81328261Y-94780792D01*
X81459158Y-94508225D01*
X81534365Y-94215358D01*
X81550991Y-93913447D01*
X81542509Y-93853833D01*
X91429000Y-93853833D01*
X91429000Y-94106167D01*
X91478228Y-94353654D01*
X91574793Y-94586781D01*
X91714982Y-94796590D01*
X91893410Y-94975018D01*
X92103219Y-95115207D01*
X92336346Y-95211772D01*
X92583833Y-95261000D01*
X92836167Y-95261000D01*
X93083654Y-95211772D01*
X93316781Y-95115207D01*
X93526590Y-94975018D01*
X93705018Y-94796590D01*
X93845207Y-94586781D01*
X93941772Y-94353654D01*
X93991000Y-94106167D01*
X93991000Y-93853833D01*
X93941772Y-93606346D01*
X93845207Y-93373219D01*
X93705018Y-93163410D01*
X93526590Y-92984982D01*
X93316781Y-92844793D01*
X93083654Y-92748228D01*
X92836167Y-92699000D01*
X92583833Y-92699000D01*
X92336346Y-92748228D01*
X92103219Y-92844793D01*
X91893410Y-92984982D01*
X91714982Y-93163410D01*
X91574793Y-93373219D01*
X91478228Y-93606346D01*
X91429000Y-93853833D01*
X81542509Y-93853833D01*
X81508397Y-93614093D01*
X81408222Y-93328801D01*
X81328261Y-93179208D01*
X81074080Y-93095525D01*
X80189605Y-93980000D01*
X79830395Y-93980000D01*
X78945920Y-93095525D01*
X78691739Y-93179208D01*
X78560842Y-93451775D01*
X78485635Y-93744642D01*
X78469009Y-94046553D01*
X76327000Y-94046553D01*
X76327000Y-92915920D01*
X79125525Y-92915920D01*
X80010000Y-93800395D01*
X80894475Y-92915920D01*
X80810792Y-92661739D01*
X80538225Y-92530842D01*
X80245358Y-92455635D01*
X79943447Y-92439009D01*
X79644093Y-92481603D01*
X79358801Y-92581778D01*
X79209208Y-92661739D01*
X79125525Y-92915920D01*
X76327000Y-92915920D01*
X76327000Y-91313833D01*
X83809000Y-91313833D01*
X83809000Y-91566167D01*
X83858228Y-91813654D01*
X83954793Y-92046781D01*
X84094982Y-92256590D01*
X84273410Y-92435018D01*
X84483219Y-92575207D01*
X84716346Y-92671772D01*
X84963833Y-92721000D01*
X85216167Y-92721000D01*
X85463654Y-92671772D01*
X85696781Y-92575207D01*
X85906590Y-92435018D01*
X86085018Y-92256590D01*
X86225207Y-92046781D01*
X86321772Y-91813654D01*
X86371000Y-91566167D01*
X86371000Y-91313833D01*
X86321772Y-91066346D01*
X86225207Y-90833219D01*
X86085018Y-90623410D01*
X85906590Y-90444982D01*
X85696781Y-90304793D01*
X85463654Y-90208228D01*
X85216167Y-90159000D01*
X84963833Y-90159000D01*
X84716346Y-90208228D01*
X84483219Y-90304793D01*
X84273410Y-90444982D01*
X84094982Y-90623410D01*
X83954793Y-90833219D01*
X83858228Y-91066346D01*
X83809000Y-91313833D01*
X76327000Y-91313833D01*
X76327000Y-87424080D01*
X79125525Y-87424080D01*
X79209208Y-87678261D01*
X79481775Y-87809158D01*
X79774642Y-87884365D01*
X80076553Y-87900991D01*
X80375907Y-87858397D01*
X80661199Y-87758222D01*
X80810792Y-87678261D01*
X80894475Y-87424080D01*
X80010000Y-86539605D01*
X79125525Y-87424080D01*
X76327000Y-87424080D01*
X76327000Y-86426553D01*
X78469009Y-86426553D01*
X78511603Y-86725907D01*
X78611778Y-87011199D01*
X78691739Y-87160792D01*
X78945920Y-87244475D01*
X79830395Y-86360000D01*
X80189605Y-86360000D01*
X81074080Y-87244475D01*
X81328261Y-87160792D01*
X81459158Y-86888225D01*
X81534365Y-86595358D01*
X81550991Y-86293447D01*
X81542509Y-86233833D01*
X91429000Y-86233833D01*
X91429000Y-86486167D01*
X91478228Y-86733654D01*
X91574793Y-86966781D01*
X91714982Y-87176590D01*
X91893410Y-87355018D01*
X92103219Y-87495207D01*
X92336346Y-87591772D01*
X92583833Y-87641000D01*
X92836167Y-87641000D01*
X93083654Y-87591772D01*
X93316781Y-87495207D01*
X93526590Y-87355018D01*
X93582530Y-87299078D01*
X94469000Y-87299078D01*
X94469000Y-87452922D01*
X94499013Y-87603809D01*
X94557887Y-87745942D01*
X94643358Y-87873859D01*
X94752141Y-87982642D01*
X94880058Y-88068113D01*
X95022191Y-88126987D01*
X95173078Y-88157000D01*
X95326922Y-88157000D01*
X95477809Y-88126987D01*
X95619942Y-88068113D01*
X95747859Y-87982642D01*
X95856642Y-87873859D01*
X95866838Y-87858600D01*
X104624295Y-87858600D01*
X104648000Y-87860935D01*
X104671705Y-87858600D01*
X104671707Y-87858600D01*
X104742606Y-87851617D01*
X104833577Y-87824022D01*
X104917415Y-87779209D01*
X104990901Y-87718901D01*
X105006017Y-87700482D01*
X105569080Y-87137420D01*
X105587078Y-87141000D01*
X105740922Y-87141000D01*
X105891809Y-87110987D01*
X106033942Y-87052113D01*
X106161859Y-86966642D01*
X106270642Y-86857859D01*
X106356113Y-86729942D01*
X106414987Y-86587809D01*
X106445000Y-86436922D01*
X106445000Y-86283078D01*
X106414987Y-86132191D01*
X106356113Y-85990058D01*
X106270642Y-85862141D01*
X106161859Y-85753358D01*
X106033942Y-85667887D01*
X105891809Y-85609013D01*
X105740922Y-85579000D01*
X105587078Y-85579000D01*
X105436191Y-85609013D01*
X105294058Y-85667887D01*
X105166141Y-85753358D01*
X105057358Y-85862141D01*
X104971887Y-85990058D01*
X104913013Y-86132191D01*
X104883000Y-86283078D01*
X104883000Y-86436922D01*
X104886580Y-86454920D01*
X104448101Y-86893400D01*
X100393101Y-86893400D01*
X100428642Y-86857859D01*
X100514113Y-86729942D01*
X100572987Y-86587809D01*
X100603000Y-86436922D01*
X100603000Y-86283078D01*
X100572987Y-86132191D01*
X100514113Y-85990058D01*
X100428642Y-85862141D01*
X100319859Y-85753358D01*
X100304600Y-85743162D01*
X100304600Y-84019899D01*
X100997079Y-83327420D01*
X101015078Y-83331000D01*
X101168922Y-83331000D01*
X101319809Y-83300987D01*
X101461942Y-83242113D01*
X101589859Y-83156642D01*
X101698642Y-83047859D01*
X101784113Y-82919942D01*
X101842987Y-82777809D01*
X101853659Y-82724158D01*
X103273988Y-84144488D01*
X103289099Y-84162901D01*
X103362585Y-84223209D01*
X103446423Y-84268022D01*
X103537393Y-84295617D01*
X103632000Y-84304935D01*
X103655707Y-84302600D01*
X104031162Y-84302600D01*
X104041358Y-84317859D01*
X104150141Y-84426642D01*
X104278058Y-84512113D01*
X104420191Y-84570987D01*
X104571078Y-84601000D01*
X104724922Y-84601000D01*
X104875809Y-84570987D01*
X105017942Y-84512113D01*
X105145859Y-84426642D01*
X105156000Y-84416501D01*
X105166141Y-84426642D01*
X105294058Y-84512113D01*
X105436191Y-84570987D01*
X105587078Y-84601000D01*
X105740922Y-84601000D01*
X105891809Y-84570987D01*
X106033942Y-84512113D01*
X106161859Y-84426642D01*
X106270642Y-84317859D01*
X106356113Y-84189942D01*
X106414987Y-84047809D01*
X106445000Y-83896922D01*
X106445000Y-83743078D01*
X106414987Y-83592191D01*
X106356113Y-83450058D01*
X106270642Y-83322141D01*
X106161859Y-83213358D01*
X106033942Y-83127887D01*
X105891809Y-83069013D01*
X105740922Y-83039000D01*
X105587078Y-83039000D01*
X105569080Y-83042580D01*
X103098600Y-80572101D01*
X103098600Y-80010000D01*
X104163065Y-80010000D01*
X104165400Y-80033706D01*
X104165401Y-80494286D01*
X104163065Y-80518000D01*
X104172384Y-80612606D01*
X104199978Y-80703576D01*
X104199979Y-80703577D01*
X104244792Y-80787415D01*
X104305100Y-80860901D01*
X104323513Y-80876012D01*
X105339513Y-81892013D01*
X105339519Y-81892018D01*
X109753401Y-86305900D01*
X109753400Y-94464295D01*
X109751065Y-94488000D01*
X109753400Y-94511705D01*
X109753400Y-94511706D01*
X109760383Y-94582605D01*
X109787978Y-94673576D01*
X109832791Y-94757415D01*
X109893099Y-94830901D01*
X109911518Y-94846017D01*
X112671988Y-97606488D01*
X112687099Y-97624901D01*
X112760585Y-97685209D01*
X112844423Y-97730022D01*
X112935393Y-97757617D01*
X113030000Y-97766935D01*
X113053707Y-97764600D01*
X134342295Y-97764600D01*
X134366000Y-97766935D01*
X134389705Y-97764600D01*
X134389707Y-97764600D01*
X134460606Y-97757617D01*
X134551577Y-97730022D01*
X134635415Y-97685209D01*
X134708901Y-97624901D01*
X134724017Y-97606482D01*
X136214482Y-96116017D01*
X136232901Y-96100901D01*
X136293209Y-96027415D01*
X136338022Y-95943577D01*
X136365617Y-95852606D01*
X136372600Y-95781707D01*
X136372600Y-95781698D01*
X136374934Y-95758001D01*
X136372600Y-95734304D01*
X136372600Y-91639899D01*
X136572499Y-91440000D01*
X137193044Y-91440000D01*
X137216812Y-91681318D01*
X137287202Y-91913363D01*
X137401509Y-92127216D01*
X137555340Y-92314660D01*
X137742784Y-92468491D01*
X137956637Y-92582798D01*
X138188682Y-92653188D01*
X138369528Y-92671000D01*
X138490472Y-92671000D01*
X138671318Y-92653188D01*
X138903363Y-92582798D01*
X139117216Y-92468491D01*
X139304660Y-92314660D01*
X139458491Y-92127216D01*
X139572798Y-91913363D01*
X139643188Y-91681318D01*
X139666956Y-91440000D01*
X139643188Y-91198682D01*
X139572798Y-90966637D01*
X139458491Y-90752784D01*
X139304660Y-90565340D01*
X139117216Y-90411509D01*
X138903363Y-90297202D01*
X138671318Y-90226812D01*
X138490472Y-90209000D01*
X138369528Y-90209000D01*
X138188682Y-90226812D01*
X137956637Y-90297202D01*
X137742784Y-90411509D01*
X137555340Y-90565340D01*
X137401509Y-90752784D01*
X137287202Y-90966637D01*
X137216812Y-91198682D01*
X137193044Y-91440000D01*
X136572499Y-91440000D01*
X137966660Y-90045839D01*
X138188682Y-90113188D01*
X138369528Y-90131000D01*
X138490472Y-90131000D01*
X138671318Y-90113188D01*
X138903363Y-90042798D01*
X139117216Y-89928491D01*
X139304660Y-89774660D01*
X139458491Y-89587216D01*
X139567091Y-89384040D01*
X139573175Y-89404099D01*
X139698359Y-89666920D01*
X139872412Y-89900269D01*
X140088645Y-90095178D01*
X140338748Y-90244157D01*
X140493305Y-90298983D01*
X140282784Y-90411509D01*
X140095340Y-90565340D01*
X139941509Y-90752784D01*
X139827202Y-90966637D01*
X139756812Y-91198682D01*
X139733044Y-91440000D01*
X139756812Y-91681318D01*
X139827202Y-91913363D01*
X139941509Y-92127216D01*
X140095340Y-92314660D01*
X140282784Y-92468491D01*
X140496637Y-92582798D01*
X140728682Y-92653188D01*
X140909528Y-92671000D01*
X141030472Y-92671000D01*
X141211318Y-92653188D01*
X141443363Y-92582798D01*
X141657216Y-92468491D01*
X141844660Y-92314660D01*
X141998491Y-92127216D01*
X142112798Y-91913363D01*
X142183188Y-91681318D01*
X142206956Y-91440000D01*
X142183188Y-91198682D01*
X142112798Y-90966637D01*
X141998491Y-90752784D01*
X141844660Y-90565340D01*
X141657216Y-90411509D01*
X141446695Y-90298983D01*
X141601252Y-90244157D01*
X141851355Y-90095178D01*
X142067588Y-89900269D01*
X142241641Y-89666920D01*
X142366825Y-89404099D01*
X142411476Y-89256890D01*
X142290155Y-89027000D01*
X141097000Y-89027000D01*
X141097000Y-89047000D01*
X140843000Y-89047000D01*
X140843000Y-89027000D01*
X140823000Y-89027000D01*
X140823000Y-88773000D01*
X140843000Y-88773000D01*
X140843000Y-86487000D01*
X141097000Y-86487000D01*
X141097000Y-88773000D01*
X142290155Y-88773000D01*
X142411476Y-88543110D01*
X142366825Y-88395901D01*
X142241641Y-88133080D01*
X142067588Y-87899731D01*
X141851355Y-87704822D01*
X141725745Y-87630000D01*
X141851355Y-87555178D01*
X142067588Y-87360269D01*
X142241641Y-87126920D01*
X142366825Y-86864099D01*
X142411476Y-86716890D01*
X142290155Y-86487000D01*
X141097000Y-86487000D01*
X140843000Y-86487000D01*
X140823000Y-86487000D01*
X140823000Y-86233000D01*
X140843000Y-86233000D01*
X140843000Y-83947000D01*
X141097000Y-83947000D01*
X141097000Y-86233000D01*
X142290155Y-86233000D01*
X142411476Y-86003110D01*
X142366825Y-85855901D01*
X142241641Y-85593080D01*
X142067588Y-85359731D01*
X141851355Y-85164822D01*
X141725745Y-85090000D01*
X141851355Y-85015178D01*
X142067588Y-84820269D01*
X142241641Y-84586920D01*
X142366825Y-84324099D01*
X142411476Y-84176890D01*
X142290155Y-83947000D01*
X141097000Y-83947000D01*
X140843000Y-83947000D01*
X140823000Y-83947000D01*
X140823000Y-83693000D01*
X140843000Y-83693000D01*
X140843000Y-82499186D01*
X141097000Y-82499186D01*
X141097000Y-83693000D01*
X142290155Y-83693000D01*
X142411476Y-83463110D01*
X142366825Y-83315901D01*
X142241641Y-83053080D01*
X142067588Y-82819731D01*
X141851355Y-82624822D01*
X141601252Y-82475843D01*
X141326891Y-82378519D01*
X141097000Y-82499186D01*
X140843000Y-82499186D01*
X140613109Y-82378519D01*
X140338748Y-82475843D01*
X140088645Y-82624822D01*
X139872412Y-82819731D01*
X139698359Y-83053080D01*
X139662843Y-83127645D01*
X139662843Y-82970000D01*
X139655487Y-82895311D01*
X139633701Y-82823492D01*
X139598322Y-82757304D01*
X139550711Y-82699289D01*
X139492696Y-82651678D01*
X139426508Y-82616299D01*
X139354689Y-82594513D01*
X139280000Y-82587157D01*
X137580000Y-82587157D01*
X137505311Y-82594513D01*
X137433492Y-82616299D01*
X137367304Y-82651678D01*
X137309289Y-82699289D01*
X137261678Y-82757304D01*
X137226299Y-82823492D01*
X137204513Y-82895311D01*
X137197157Y-82970000D01*
X137197157Y-84670000D01*
X137204513Y-84744689D01*
X137226299Y-84816508D01*
X137261678Y-84882696D01*
X137309289Y-84940711D01*
X137367304Y-84988322D01*
X137433492Y-85023701D01*
X137505311Y-85045487D01*
X137580000Y-85052843D01*
X139280000Y-85052843D01*
X139354689Y-85045487D01*
X139426508Y-85023701D01*
X139492696Y-84988322D01*
X139550711Y-84940711D01*
X139598322Y-84882696D01*
X139633701Y-84816508D01*
X139655487Y-84744689D01*
X139662843Y-84670000D01*
X139662843Y-84512355D01*
X139698359Y-84586920D01*
X139872412Y-84820269D01*
X140088645Y-85015178D01*
X140214255Y-85090000D01*
X140088645Y-85164822D01*
X139872412Y-85359731D01*
X139698359Y-85593080D01*
X139573175Y-85855901D01*
X139567091Y-85875960D01*
X139458491Y-85672784D01*
X139304660Y-85485340D01*
X139117216Y-85331509D01*
X138903363Y-85217202D01*
X138671318Y-85146812D01*
X138490472Y-85129000D01*
X138369528Y-85129000D01*
X138188682Y-85146812D01*
X137956637Y-85217202D01*
X137742784Y-85331509D01*
X137555340Y-85485340D01*
X137401509Y-85672784D01*
X137287202Y-85886637D01*
X137216812Y-86118682D01*
X137193044Y-86360000D01*
X137216812Y-86601318D01*
X137284161Y-86823339D01*
X135057518Y-89049983D01*
X135039099Y-89065099D01*
X134978791Y-89138585D01*
X134933978Y-89222424D01*
X134906383Y-89313395D01*
X134900808Y-89370000D01*
X134897065Y-89408000D01*
X134899400Y-89431705D01*
X134899401Y-95304100D01*
X133912101Y-96291400D01*
X113483899Y-96291400D01*
X111226600Y-94034101D01*
X111226600Y-93662702D01*
X114756903Y-93662702D01*
X114828486Y-93906671D01*
X115083996Y-94027571D01*
X115358184Y-94096300D01*
X115640512Y-94110217D01*
X115920130Y-94068787D01*
X116186292Y-93973603D01*
X116311514Y-93906671D01*
X116383097Y-93662702D01*
X115570000Y-92849605D01*
X114756903Y-93662702D01*
X111226600Y-93662702D01*
X111226600Y-92740512D01*
X114129783Y-92740512D01*
X114171213Y-93020130D01*
X114266397Y-93286292D01*
X114333329Y-93411514D01*
X114577298Y-93483097D01*
X115390395Y-92670000D01*
X115749605Y-92670000D01*
X116562702Y-93483097D01*
X116806671Y-93411514D01*
X116927571Y-93156004D01*
X116996300Y-92881816D01*
X117001459Y-92777157D01*
X121929000Y-92777157D01*
X121929000Y-93912842D01*
X121948982Y-94115722D01*
X122027949Y-94376042D01*
X122156185Y-94615954D01*
X122328761Y-94826238D01*
X122539045Y-94998815D01*
X122778957Y-95127051D01*
X123039277Y-95206018D01*
X123310000Y-95232682D01*
X123580722Y-95206018D01*
X123841042Y-95127051D01*
X124080954Y-94998815D01*
X124291238Y-94826239D01*
X124463815Y-94615955D01*
X124592051Y-94376043D01*
X124671018Y-94115723D01*
X124691000Y-93912843D01*
X124691000Y-92777157D01*
X124671018Y-92574277D01*
X124592051Y-92313957D01*
X124463815Y-92074045D01*
X124291239Y-91863761D01*
X124268379Y-91845000D01*
X129427157Y-91845000D01*
X129427157Y-94845000D01*
X129434513Y-94919689D01*
X129456299Y-94991508D01*
X129491678Y-95057696D01*
X129539289Y-95115711D01*
X129597304Y-95163322D01*
X129663492Y-95198701D01*
X129735311Y-95220487D01*
X129810000Y-95227843D01*
X131810000Y-95227843D01*
X131884689Y-95220487D01*
X131956508Y-95198701D01*
X132022696Y-95163322D01*
X132080711Y-95115711D01*
X132128322Y-95057696D01*
X132163701Y-94991508D01*
X132185487Y-94919689D01*
X132192843Y-94845000D01*
X132192843Y-91845000D01*
X132185487Y-91770311D01*
X132163701Y-91698492D01*
X132128322Y-91632304D01*
X132080711Y-91574289D01*
X132022696Y-91526678D01*
X131956508Y-91491299D01*
X131884689Y-91469513D01*
X131810000Y-91462157D01*
X129810000Y-91462157D01*
X129735311Y-91469513D01*
X129663492Y-91491299D01*
X129597304Y-91526678D01*
X129539289Y-91574289D01*
X129491678Y-91632304D01*
X129456299Y-91698492D01*
X129434513Y-91770311D01*
X129427157Y-91845000D01*
X124268379Y-91845000D01*
X124080955Y-91691185D01*
X123841043Y-91562949D01*
X123580723Y-91483982D01*
X123310000Y-91457318D01*
X123039278Y-91483982D01*
X122778958Y-91562949D01*
X122539046Y-91691185D01*
X122328762Y-91863761D01*
X122156185Y-92074045D01*
X122027949Y-92313957D01*
X121948982Y-92574277D01*
X121929000Y-92777157D01*
X117001459Y-92777157D01*
X117010217Y-92599488D01*
X116968787Y-92319870D01*
X116873603Y-92053708D01*
X116806671Y-91928486D01*
X116562702Y-91856903D01*
X115749605Y-92670000D01*
X115390395Y-92670000D01*
X114577298Y-91856903D01*
X114333329Y-91928486D01*
X114212429Y-92183996D01*
X114143700Y-92458184D01*
X114129783Y-92740512D01*
X111226600Y-92740512D01*
X111226600Y-85621704D01*
X111228935Y-85597999D01*
X111223558Y-85543410D01*
X111219617Y-85503394D01*
X111192022Y-85412423D01*
X111147209Y-85328585D01*
X111086901Y-85255099D01*
X111068488Y-85239988D01*
X106187420Y-80358921D01*
X106191000Y-80340922D01*
X106191000Y-80187078D01*
X106160987Y-80036191D01*
X106102113Y-79894058D01*
X106016642Y-79766141D01*
X105965121Y-79714620D01*
X106033942Y-79686113D01*
X106161859Y-79600642D01*
X106270642Y-79491859D01*
X106356113Y-79363942D01*
X106414987Y-79221809D01*
X106445000Y-79070922D01*
X106445000Y-78917078D01*
X106414987Y-78766191D01*
X106356113Y-78624058D01*
X106270642Y-78496141D01*
X106161859Y-78387358D01*
X106033942Y-78301887D01*
X105891809Y-78243013D01*
X105740922Y-78213000D01*
X105587078Y-78213000D01*
X105436191Y-78243013D01*
X105294058Y-78301887D01*
X105166141Y-78387358D01*
X105057358Y-78496141D01*
X104971887Y-78624058D01*
X104913013Y-78766191D01*
X104883000Y-78917078D01*
X104883000Y-79070922D01*
X104886580Y-79088920D01*
X104323518Y-79651983D01*
X104305099Y-79667099D01*
X104244791Y-79740585D01*
X104199978Y-79824424D01*
X104172383Y-79915395D01*
X104165400Y-79986293D01*
X104163065Y-80010000D01*
X103098600Y-80010000D01*
X103098600Y-79356838D01*
X103113859Y-79346642D01*
X103222642Y-79237859D01*
X103308113Y-79109942D01*
X103366987Y-78967809D01*
X103397000Y-78816922D01*
X103397000Y-78663078D01*
X103366987Y-78512191D01*
X103308113Y-78370058D01*
X103222642Y-78242141D01*
X103113859Y-78133358D01*
X102985942Y-78047887D01*
X102843809Y-77989013D01*
X102692922Y-77959000D01*
X102539078Y-77959000D01*
X102388191Y-77989013D01*
X102246058Y-78047887D01*
X102118141Y-78133358D01*
X102009358Y-78242141D01*
X101999162Y-78257400D01*
X99337704Y-78257400D01*
X99313999Y-78255065D01*
X99290294Y-78257400D01*
X99290293Y-78257400D01*
X99219394Y-78264383D01*
X99128423Y-78291978D01*
X99044585Y-78336791D01*
X98971099Y-78397099D01*
X98955983Y-78415518D01*
X96106921Y-81264580D01*
X96088922Y-81261000D01*
X95935078Y-81261000D01*
X95784191Y-81291013D01*
X95642058Y-81349887D01*
X95514141Y-81435358D01*
X95405358Y-81544141D01*
X95319887Y-81672058D01*
X95261013Y-81814191D01*
X95231000Y-81965078D01*
X95231000Y-82118922D01*
X95261013Y-82269809D01*
X95319887Y-82411942D01*
X95405358Y-82539859D01*
X95514141Y-82648642D01*
X95642058Y-82734113D01*
X95784191Y-82792987D01*
X95935078Y-82823000D01*
X96088922Y-82823000D01*
X96239809Y-82792987D01*
X96381942Y-82734113D01*
X96509859Y-82648642D01*
X96618642Y-82539859D01*
X96704113Y-82411942D01*
X96762987Y-82269809D01*
X96793000Y-82118922D01*
X96793000Y-81965078D01*
X96789420Y-81947079D01*
X99513899Y-79222600D01*
X101999162Y-79222600D01*
X102009358Y-79237859D01*
X102118141Y-79346642D01*
X102133400Y-79356838D01*
X102133401Y-80748285D01*
X102131065Y-80772000D01*
X102140384Y-80866606D01*
X102167978Y-80957576D01*
X102212792Y-81041415D01*
X102249364Y-81085978D01*
X102273100Y-81114901D01*
X102291513Y-81130012D01*
X104286069Y-83124569D01*
X104278058Y-83127887D01*
X104150141Y-83213358D01*
X104041358Y-83322141D01*
X104031162Y-83337400D01*
X103831900Y-83337400D01*
X101958017Y-81463518D01*
X101942901Y-81445099D01*
X101869415Y-81384791D01*
X101785577Y-81339978D01*
X101694606Y-81312383D01*
X101623707Y-81305400D01*
X101623705Y-81305400D01*
X101600000Y-81303065D01*
X101576295Y-81305400D01*
X100607707Y-81305400D01*
X100584000Y-81303065D01*
X100489393Y-81312383D01*
X100398423Y-81339978D01*
X100314585Y-81384791D01*
X100241099Y-81445099D01*
X100225988Y-81463512D01*
X98352101Y-83337400D01*
X96628838Y-83337400D01*
X96618642Y-83322141D01*
X96509859Y-83213358D01*
X96381942Y-83127887D01*
X96239809Y-83069013D01*
X96088922Y-83039000D01*
X95935078Y-83039000D01*
X95784191Y-83069013D01*
X95642058Y-83127887D01*
X95514141Y-83213358D01*
X95405358Y-83322141D01*
X95319887Y-83450058D01*
X95261013Y-83592191D01*
X95231000Y-83743078D01*
X95231000Y-83896922D01*
X95261013Y-84047809D01*
X95319887Y-84189942D01*
X95405358Y-84317859D01*
X95514141Y-84426642D01*
X95642058Y-84512113D01*
X95784191Y-84570987D01*
X95935078Y-84601000D01*
X96088922Y-84601000D01*
X96239809Y-84570987D01*
X96381942Y-84512113D01*
X96509859Y-84426642D01*
X96618642Y-84317859D01*
X96628838Y-84302600D01*
X98528295Y-84302600D01*
X98552000Y-84304935D01*
X98575705Y-84302600D01*
X98575707Y-84302600D01*
X98646606Y-84295617D01*
X98737577Y-84268022D01*
X98821415Y-84223209D01*
X98894901Y-84162901D01*
X98910017Y-84144482D01*
X99353907Y-83700592D01*
X99346384Y-83725394D01*
X99337065Y-83820000D01*
X99339401Y-83843715D01*
X99339400Y-85743162D01*
X99324141Y-85753358D01*
X99215358Y-85862141D01*
X99129887Y-85990058D01*
X99071013Y-86132191D01*
X99041000Y-86283078D01*
X99041000Y-86436922D01*
X99071013Y-86587809D01*
X99129887Y-86729942D01*
X99215358Y-86857859D01*
X99250899Y-86893400D01*
X95866838Y-86893400D01*
X95856642Y-86878141D01*
X95747859Y-86769358D01*
X95619942Y-86683887D01*
X95477809Y-86625013D01*
X95326922Y-86595000D01*
X95173078Y-86595000D01*
X95022191Y-86625013D01*
X94880058Y-86683887D01*
X94752141Y-86769358D01*
X94643358Y-86878141D01*
X94557887Y-87006058D01*
X94499013Y-87148191D01*
X94469000Y-87299078D01*
X93582530Y-87299078D01*
X93705018Y-87176590D01*
X93845207Y-86966781D01*
X93941772Y-86733654D01*
X93991000Y-86486167D01*
X93991000Y-86233833D01*
X93941772Y-85986346D01*
X93845207Y-85753219D01*
X93705018Y-85543410D01*
X93526590Y-85364982D01*
X93316781Y-85224793D01*
X93083654Y-85128228D01*
X92836167Y-85079000D01*
X92583833Y-85079000D01*
X92336346Y-85128228D01*
X92103219Y-85224793D01*
X91893410Y-85364982D01*
X91714982Y-85543410D01*
X91574793Y-85753219D01*
X91478228Y-85986346D01*
X91429000Y-86233833D01*
X81542509Y-86233833D01*
X81508397Y-85994093D01*
X81408222Y-85708801D01*
X81328261Y-85559208D01*
X81074080Y-85475525D01*
X80189605Y-86360000D01*
X79830395Y-86360000D01*
X78945920Y-85475525D01*
X78691739Y-85559208D01*
X78560842Y-85831775D01*
X78485635Y-86124642D01*
X78469009Y-86426553D01*
X76327000Y-86426553D01*
X76327000Y-85295920D01*
X79125525Y-85295920D01*
X80010000Y-86180395D01*
X80894475Y-85295920D01*
X80810792Y-85041739D01*
X80538225Y-84910842D01*
X80245358Y-84835635D01*
X79943447Y-84819009D01*
X79644093Y-84861603D01*
X79358801Y-84961778D01*
X79209208Y-85041739D01*
X79125525Y-85295920D01*
X76327000Y-85295920D01*
X76327000Y-83693833D01*
X83809000Y-83693833D01*
X83809000Y-83946167D01*
X83858228Y-84193654D01*
X83954793Y-84426781D01*
X84094982Y-84636590D01*
X84273410Y-84815018D01*
X84483219Y-84955207D01*
X84716346Y-85051772D01*
X84963833Y-85101000D01*
X85216167Y-85101000D01*
X85463654Y-85051772D01*
X85696781Y-84955207D01*
X85906590Y-84815018D01*
X86085018Y-84636590D01*
X86225207Y-84426781D01*
X86321772Y-84193654D01*
X86371000Y-83946167D01*
X86371000Y-83693833D01*
X86321772Y-83446346D01*
X86225207Y-83213219D01*
X86085018Y-83003410D01*
X85906590Y-82824982D01*
X85696781Y-82684793D01*
X85463654Y-82588228D01*
X85216167Y-82539000D01*
X84963833Y-82539000D01*
X84716346Y-82588228D01*
X84483219Y-82684793D01*
X84273410Y-82824982D01*
X84094982Y-83003410D01*
X83954793Y-83213219D01*
X83858228Y-83446346D01*
X83809000Y-83693833D01*
X76327000Y-83693833D01*
X76327000Y-79804080D01*
X79125525Y-79804080D01*
X79209208Y-80058261D01*
X79481775Y-80189158D01*
X79774642Y-80264365D01*
X80076553Y-80280991D01*
X80375907Y-80238397D01*
X80661199Y-80138222D01*
X80810792Y-80058261D01*
X80894475Y-79804080D01*
X80010000Y-78919605D01*
X79125525Y-79804080D01*
X76327000Y-79804080D01*
X76327000Y-78806553D01*
X78469009Y-78806553D01*
X78511603Y-79105907D01*
X78611778Y-79391199D01*
X78691739Y-79540792D01*
X78945920Y-79624475D01*
X79830395Y-78740000D01*
X80189605Y-78740000D01*
X81074080Y-79624475D01*
X81328261Y-79540792D01*
X81459158Y-79268225D01*
X81534365Y-78975358D01*
X81550991Y-78673447D01*
X81542509Y-78613833D01*
X91429000Y-78613833D01*
X91429000Y-78866167D01*
X91478228Y-79113654D01*
X91574793Y-79346781D01*
X91714982Y-79556590D01*
X91893410Y-79735018D01*
X92103219Y-79875207D01*
X92336346Y-79971772D01*
X92583833Y-80021000D01*
X92836167Y-80021000D01*
X93083654Y-79971772D01*
X93316781Y-79875207D01*
X93526590Y-79735018D01*
X93705018Y-79556590D01*
X93845207Y-79346781D01*
X93941772Y-79113654D01*
X93991000Y-78866167D01*
X93991000Y-78613833D01*
X93941772Y-78366346D01*
X93845207Y-78133219D01*
X93705018Y-77923410D01*
X93526590Y-77744982D01*
X93316781Y-77604793D01*
X93083654Y-77508228D01*
X92836167Y-77459000D01*
X92583833Y-77459000D01*
X92336346Y-77508228D01*
X92103219Y-77604793D01*
X91893410Y-77744982D01*
X91714982Y-77923410D01*
X91574793Y-78133219D01*
X91478228Y-78366346D01*
X91429000Y-78613833D01*
X81542509Y-78613833D01*
X81508397Y-78374093D01*
X81408222Y-78088801D01*
X81328261Y-77939208D01*
X81074080Y-77855525D01*
X80189605Y-78740000D01*
X79830395Y-78740000D01*
X78945920Y-77855525D01*
X78691739Y-77939208D01*
X78560842Y-78211775D01*
X78485635Y-78504642D01*
X78469009Y-78806553D01*
X76327000Y-78806553D01*
X76327000Y-77675920D01*
X79125525Y-77675920D01*
X80010000Y-78560395D01*
X80894475Y-77675920D01*
X80810792Y-77421739D01*
X80538225Y-77290842D01*
X80245358Y-77215635D01*
X79943447Y-77199009D01*
X79644093Y-77241603D01*
X79358801Y-77341778D01*
X79209208Y-77421739D01*
X79125525Y-77675920D01*
X76327000Y-77675920D01*
X76327000Y-76073833D01*
X83809000Y-76073833D01*
X83809000Y-76326167D01*
X83858228Y-76573654D01*
X83954793Y-76806781D01*
X84094982Y-77016590D01*
X84273410Y-77195018D01*
X84483219Y-77335207D01*
X84716346Y-77431772D01*
X84963833Y-77481000D01*
X85216167Y-77481000D01*
X85463654Y-77431772D01*
X85696781Y-77335207D01*
X85906590Y-77195018D01*
X86085018Y-77016590D01*
X86225207Y-76806781D01*
X86276645Y-76682600D01*
X99290295Y-76682600D01*
X99314000Y-76684935D01*
X99337705Y-76682600D01*
X99337707Y-76682600D01*
X99408606Y-76675617D01*
X99499577Y-76648022D01*
X99583415Y-76603209D01*
X99656901Y-76542901D01*
X99672017Y-76524482D01*
X99819421Y-76377078D01*
X101835000Y-76377078D01*
X101835000Y-76530922D01*
X101865013Y-76681809D01*
X101923887Y-76823942D01*
X102009358Y-76951859D01*
X102118141Y-77060642D01*
X102246058Y-77146113D01*
X102388191Y-77204987D01*
X102539078Y-77235000D01*
X102692922Y-77235000D01*
X102843809Y-77204987D01*
X102985942Y-77146113D01*
X103113859Y-77060642D01*
X103222642Y-76951859D01*
X103232838Y-76936600D01*
X108004101Y-76936600D01*
X114792580Y-83725080D01*
X114789000Y-83743078D01*
X114789000Y-83896922D01*
X114819013Y-84047809D01*
X114877887Y-84189942D01*
X114884201Y-84199392D01*
X114884200Y-88987157D01*
X114770000Y-88987157D01*
X114695311Y-88994513D01*
X114623492Y-89016299D01*
X114557304Y-89051678D01*
X114499289Y-89099289D01*
X114451678Y-89157304D01*
X114416299Y-89223492D01*
X114394513Y-89295311D01*
X114387157Y-89370000D01*
X114387157Y-90970000D01*
X114394513Y-91044689D01*
X114416299Y-91116508D01*
X114451678Y-91182696D01*
X114499289Y-91240711D01*
X114557304Y-91288322D01*
X114623492Y-91323701D01*
X114695311Y-91345487D01*
X114770000Y-91352843D01*
X114991609Y-91352843D01*
X114953708Y-91366397D01*
X114828486Y-91433329D01*
X114756903Y-91677298D01*
X115570000Y-92490395D01*
X116383097Y-91677298D01*
X116311514Y-91433329D01*
X116141415Y-91352843D01*
X116370000Y-91352843D01*
X116444689Y-91345487D01*
X116516508Y-91323701D01*
X116582696Y-91288322D01*
X116640711Y-91240711D01*
X116688322Y-91182696D01*
X116723701Y-91116508D01*
X116745487Y-91044689D01*
X116752843Y-90970000D01*
X116752843Y-89370000D01*
X116745487Y-89295311D01*
X116723701Y-89223492D01*
X116688322Y-89157304D01*
X116640711Y-89099289D01*
X116582696Y-89051678D01*
X116516508Y-89016299D01*
X116444689Y-88994513D01*
X116370000Y-88987157D01*
X116255800Y-88987157D01*
X116255800Y-84199390D01*
X116262113Y-84189942D01*
X116320987Y-84047809D01*
X116351000Y-83896922D01*
X116351000Y-83743078D01*
X116320987Y-83592191D01*
X116262113Y-83450058D01*
X116176642Y-83322141D01*
X116067859Y-83213358D01*
X115939942Y-83127887D01*
X115797809Y-83069013D01*
X115646922Y-83039000D01*
X115493078Y-83039000D01*
X115475080Y-83042580D01*
X108562017Y-76129518D01*
X108546901Y-76111099D01*
X108473415Y-76050791D01*
X108389577Y-76005978D01*
X108298606Y-75978383D01*
X108227707Y-75971400D01*
X108227705Y-75971400D01*
X108204000Y-75969065D01*
X108180295Y-75971400D01*
X103232838Y-75971400D01*
X103222642Y-75956141D01*
X103113859Y-75847358D01*
X102985942Y-75761887D01*
X102843809Y-75703013D01*
X102692922Y-75673000D01*
X102539078Y-75673000D01*
X102388191Y-75703013D01*
X102246058Y-75761887D01*
X102118141Y-75847358D01*
X102009358Y-75956141D01*
X101923887Y-76084058D01*
X101865013Y-76226191D01*
X101835000Y-76377078D01*
X99819421Y-76377078D01*
X100489079Y-75707420D01*
X100507078Y-75711000D01*
X100660922Y-75711000D01*
X100811809Y-75680987D01*
X100953942Y-75622113D01*
X101081859Y-75536642D01*
X101190642Y-75427859D01*
X101276113Y-75299942D01*
X101334987Y-75157809D01*
X101365000Y-75006922D01*
X101365000Y-74853078D01*
X101334987Y-74702191D01*
X101276113Y-74560058D01*
X101190642Y-74432141D01*
X101081859Y-74323358D01*
X100953942Y-74237887D01*
X100811809Y-74179013D01*
X100660922Y-74149000D01*
X100507078Y-74149000D01*
X100356191Y-74179013D01*
X100214058Y-74237887D01*
X100086141Y-74323358D01*
X99977358Y-74432141D01*
X99891887Y-74560058D01*
X99833013Y-74702191D01*
X99803000Y-74853078D01*
X99803000Y-75006922D01*
X99806580Y-75024921D01*
X99114101Y-75717400D01*
X86276645Y-75717400D01*
X86225207Y-75593219D01*
X86085018Y-75383410D01*
X85906590Y-75204982D01*
X85696781Y-75064793D01*
X85463654Y-74968228D01*
X85216167Y-74919000D01*
X84963833Y-74919000D01*
X84716346Y-74968228D01*
X84483219Y-75064793D01*
X84273410Y-75204982D01*
X84094982Y-75383410D01*
X83954793Y-75593219D01*
X83858228Y-75826346D01*
X83809000Y-76073833D01*
X76327000Y-76073833D01*
X76327000Y-73075078D01*
X81769000Y-73075078D01*
X81769000Y-73228922D01*
X81799013Y-73379809D01*
X81857887Y-73521942D01*
X81943358Y-73649859D01*
X82052141Y-73758642D01*
X82180058Y-73844113D01*
X82322191Y-73902987D01*
X82473078Y-73933000D01*
X82626922Y-73933000D01*
X82777809Y-73902987D01*
X82919942Y-73844113D01*
X83047859Y-73758642D01*
X83156642Y-73649859D01*
X83166838Y-73634600D01*
X93956295Y-73634600D01*
X93980000Y-73636935D01*
X94003705Y-73634600D01*
X94003707Y-73634600D01*
X94074606Y-73627617D01*
X94165577Y-73600022D01*
X94249415Y-73555209D01*
X94322901Y-73494901D01*
X94338017Y-73476482D01*
X95917080Y-71897420D01*
X95935078Y-71901000D01*
X96088922Y-71901000D01*
X96239809Y-71870987D01*
X96381942Y-71812113D01*
X96509859Y-71726642D01*
X96618642Y-71617859D01*
X96704113Y-71489942D01*
X96762987Y-71347809D01*
X96793000Y-71196922D01*
X96793000Y-71043078D01*
X96762987Y-70892191D01*
X96704113Y-70750058D01*
X96618642Y-70622141D01*
X96509859Y-70513358D01*
X96381942Y-70427887D01*
X96239809Y-70369013D01*
X96088922Y-70339000D01*
X95935078Y-70339000D01*
X95784191Y-70369013D01*
X95642058Y-70427887D01*
X95514141Y-70513358D01*
X95405358Y-70622141D01*
X95319887Y-70750058D01*
X95261013Y-70892191D01*
X95231000Y-71043078D01*
X95231000Y-71196922D01*
X95234580Y-71214920D01*
X93780101Y-72669400D01*
X83166838Y-72669400D01*
X83156642Y-72654141D01*
X83047859Y-72545358D01*
X82919942Y-72459887D01*
X82777809Y-72401013D01*
X82626922Y-72371000D01*
X82473078Y-72371000D01*
X82322191Y-72401013D01*
X82180058Y-72459887D01*
X82052141Y-72545358D01*
X81943358Y-72654141D01*
X81857887Y-72782058D01*
X81799013Y-72924191D01*
X81769000Y-73075078D01*
X76327000Y-73075078D01*
X76327000Y-72184080D01*
X79125525Y-72184080D01*
X79209208Y-72438261D01*
X79481775Y-72569158D01*
X79774642Y-72644365D01*
X80076553Y-72660991D01*
X80375907Y-72618397D01*
X80661199Y-72518222D01*
X80810792Y-72438261D01*
X80894475Y-72184080D01*
X80010000Y-71299605D01*
X79125525Y-72184080D01*
X76327000Y-72184080D01*
X76327000Y-71186553D01*
X78469009Y-71186553D01*
X78511603Y-71485907D01*
X78611778Y-71771199D01*
X78691739Y-71920792D01*
X78945920Y-72004475D01*
X79830395Y-71120000D01*
X80189605Y-71120000D01*
X81074080Y-72004475D01*
X81328261Y-71920792D01*
X81459158Y-71648225D01*
X81534365Y-71355358D01*
X81550991Y-71053447D01*
X81542509Y-70993833D01*
X91429000Y-70993833D01*
X91429000Y-71246167D01*
X91478228Y-71493654D01*
X91574793Y-71726781D01*
X91714982Y-71936590D01*
X91893410Y-72115018D01*
X92103219Y-72255207D01*
X92336346Y-72351772D01*
X92583833Y-72401000D01*
X92836167Y-72401000D01*
X93083654Y-72351772D01*
X93316781Y-72255207D01*
X93526590Y-72115018D01*
X93705018Y-71936590D01*
X93845207Y-71726781D01*
X93941772Y-71493654D01*
X93991000Y-71246167D01*
X93991000Y-70993833D01*
X93941772Y-70746346D01*
X93845207Y-70513219D01*
X93705018Y-70303410D01*
X93526590Y-70124982D01*
X93316781Y-69984793D01*
X93083654Y-69888228D01*
X92836167Y-69839000D01*
X92583833Y-69839000D01*
X92336346Y-69888228D01*
X92103219Y-69984793D01*
X91893410Y-70124982D01*
X91714982Y-70303410D01*
X91574793Y-70513219D01*
X91478228Y-70746346D01*
X91429000Y-70993833D01*
X81542509Y-70993833D01*
X81508397Y-70754093D01*
X81408222Y-70468801D01*
X81328261Y-70319208D01*
X81074080Y-70235525D01*
X80189605Y-71120000D01*
X79830395Y-71120000D01*
X78945920Y-70235525D01*
X78691739Y-70319208D01*
X78560842Y-70591775D01*
X78485635Y-70884642D01*
X78469009Y-71186553D01*
X76327000Y-71186553D01*
X76327000Y-70055920D01*
X79125525Y-70055920D01*
X80010000Y-70940395D01*
X80894475Y-70055920D01*
X80810792Y-69801739D01*
X80538225Y-69670842D01*
X80245358Y-69595635D01*
X79943447Y-69579009D01*
X79644093Y-69621603D01*
X79358801Y-69721778D01*
X79209208Y-69801739D01*
X79125525Y-70055920D01*
X76327000Y-70055920D01*
X76327000Y-67233078D01*
X80753000Y-67233078D01*
X80753000Y-67386922D01*
X80783013Y-67537809D01*
X80841887Y-67679942D01*
X80927358Y-67807859D01*
X81036141Y-67916642D01*
X81164058Y-68002113D01*
X81306191Y-68060987D01*
X81457078Y-68091000D01*
X81610922Y-68091000D01*
X81761809Y-68060987D01*
X81903942Y-68002113D01*
X82031859Y-67916642D01*
X82140642Y-67807859D01*
X82150838Y-67792600D01*
X84075478Y-67792600D01*
X83954793Y-67973219D01*
X83858228Y-68206346D01*
X83809000Y-68453833D01*
X83809000Y-68706167D01*
X83858228Y-68953654D01*
X83954793Y-69186781D01*
X84094982Y-69396590D01*
X84273410Y-69575018D01*
X84483219Y-69715207D01*
X84716346Y-69811772D01*
X84963833Y-69861000D01*
X85216167Y-69861000D01*
X85463654Y-69811772D01*
X85557068Y-69773078D01*
X99041000Y-69773078D01*
X99041000Y-69926922D01*
X99071013Y-70077809D01*
X99129887Y-70219942D01*
X99215358Y-70347859D01*
X99324141Y-70456642D01*
X99452058Y-70542113D01*
X99594191Y-70600987D01*
X99745078Y-70631000D01*
X99898922Y-70631000D01*
X100049809Y-70600987D01*
X100191942Y-70542113D01*
X100319859Y-70456642D01*
X100428642Y-70347859D01*
X100438838Y-70332600D01*
X103178101Y-70332600D01*
X103657400Y-70811900D01*
X103657401Y-73382285D01*
X103655065Y-73406000D01*
X103664384Y-73500606D01*
X103691978Y-73591576D01*
X103723132Y-73649859D01*
X103736792Y-73675415D01*
X103797100Y-73748901D01*
X103815513Y-73764012D01*
X104886580Y-74835079D01*
X104883000Y-74853078D01*
X104883000Y-75006922D01*
X104913013Y-75157809D01*
X104971887Y-75299942D01*
X105057358Y-75427859D01*
X105166141Y-75536642D01*
X105294058Y-75622113D01*
X105436191Y-75680987D01*
X105587078Y-75711000D01*
X105740922Y-75711000D01*
X105891809Y-75680987D01*
X106033942Y-75622113D01*
X106161859Y-75536642D01*
X106270642Y-75427859D01*
X106356113Y-75299942D01*
X106414987Y-75157809D01*
X106445000Y-75006922D01*
X106445000Y-74853078D01*
X106414987Y-74702191D01*
X106356113Y-74560058D01*
X106270642Y-74432141D01*
X106161859Y-74323358D01*
X106119418Y-74295000D01*
X106161859Y-74266642D01*
X106270642Y-74157859D01*
X106356113Y-74029942D01*
X106414987Y-73887809D01*
X106445000Y-73736922D01*
X106445000Y-73583078D01*
X106414987Y-73432191D01*
X106356113Y-73290058D01*
X106270642Y-73162141D01*
X106161859Y-73053358D01*
X106033942Y-72967887D01*
X105891809Y-72909013D01*
X105740922Y-72879000D01*
X105587078Y-72879000D01*
X105569080Y-72882580D01*
X105130600Y-72444101D01*
X105130600Y-71033229D01*
X114689000Y-71033229D01*
X114689000Y-71206771D01*
X114722856Y-71376978D01*
X114789268Y-71537310D01*
X114884201Y-71679388D01*
X114884200Y-76166321D01*
X114880883Y-76200000D01*
X114884200Y-76233679D01*
X114884200Y-76233688D01*
X114894123Y-76334439D01*
X114933338Y-76463713D01*
X114992103Y-76573654D01*
X114997020Y-76582853D01*
X115050503Y-76648022D01*
X115082720Y-76687279D01*
X115108887Y-76708754D01*
X119896796Y-81496664D01*
X119899013Y-81507809D01*
X119957887Y-81649942D01*
X120043358Y-81777859D01*
X120152141Y-81886642D01*
X120280058Y-81972113D01*
X120422191Y-82030987D01*
X120573078Y-82061000D01*
X120726922Y-82061000D01*
X120877809Y-82030987D01*
X121019942Y-81972113D01*
X121147859Y-81886642D01*
X121256642Y-81777859D01*
X121342113Y-81649942D01*
X121400987Y-81507809D01*
X121431000Y-81356922D01*
X121431000Y-81203078D01*
X121400987Y-81052191D01*
X121342113Y-80910058D01*
X121256642Y-80782141D01*
X121147859Y-80673358D01*
X121019942Y-80587887D01*
X120877809Y-80529013D01*
X120866664Y-80526796D01*
X118424868Y-78085000D01*
X121422318Y-78085000D01*
X121448982Y-78355723D01*
X121527949Y-78616043D01*
X121656185Y-78855955D01*
X121828761Y-79066239D01*
X122039045Y-79238815D01*
X122278957Y-79367051D01*
X122539277Y-79446018D01*
X122742157Y-79466000D01*
X123877843Y-79466000D01*
X124080723Y-79446018D01*
X124341043Y-79367051D01*
X124580955Y-79238815D01*
X124791239Y-79066239D01*
X124963815Y-78855955D01*
X125092051Y-78616043D01*
X125171018Y-78355723D01*
X125197682Y-78085000D01*
X128922318Y-78085000D01*
X128948982Y-78355723D01*
X129027949Y-78616043D01*
X129156185Y-78855955D01*
X129328761Y-79066239D01*
X129539045Y-79238815D01*
X129778957Y-79367051D01*
X130039277Y-79446018D01*
X130242157Y-79466000D01*
X131377843Y-79466000D01*
X131580723Y-79446018D01*
X131841043Y-79367051D01*
X132080955Y-79238815D01*
X132291239Y-79066239D01*
X132463815Y-78855955D01*
X132592051Y-78616043D01*
X132671018Y-78355723D01*
X132697682Y-78085000D01*
X132671018Y-77814277D01*
X132592051Y-77553957D01*
X132463815Y-77314045D01*
X132291239Y-77103761D01*
X132080955Y-76931185D01*
X131841043Y-76802949D01*
X131580723Y-76723982D01*
X131377843Y-76704000D01*
X130242157Y-76704000D01*
X130039277Y-76723982D01*
X129778957Y-76802949D01*
X129539045Y-76931185D01*
X129328761Y-77103761D01*
X129156185Y-77314045D01*
X129027949Y-77553957D01*
X128948982Y-77814277D01*
X128922318Y-78085000D01*
X125197682Y-78085000D01*
X125171018Y-77814277D01*
X125092051Y-77553957D01*
X124963815Y-77314045D01*
X124791239Y-77103761D01*
X124580955Y-76931185D01*
X124341043Y-76802949D01*
X124080723Y-76723982D01*
X123877843Y-76704000D01*
X122742157Y-76704000D01*
X122539277Y-76723982D01*
X122278957Y-76802949D01*
X122039045Y-76931185D01*
X121828761Y-77103761D01*
X121656185Y-77314045D01*
X121527949Y-77553957D01*
X121448982Y-77814277D01*
X121422318Y-78085000D01*
X118424868Y-78085000D01*
X116255800Y-75915933D01*
X116255800Y-73045000D01*
X121422318Y-73045000D01*
X121448982Y-73315723D01*
X121527949Y-73576043D01*
X121656185Y-73815955D01*
X121828761Y-74026239D01*
X122039045Y-74198815D01*
X122278957Y-74327051D01*
X122539277Y-74406018D01*
X122742157Y-74426000D01*
X123877843Y-74426000D01*
X124080723Y-74406018D01*
X124341043Y-74327051D01*
X124580955Y-74198815D01*
X124791239Y-74026239D01*
X124963815Y-73815955D01*
X125092051Y-73576043D01*
X125171018Y-73315723D01*
X125197682Y-73045000D01*
X128922318Y-73045000D01*
X128948982Y-73315723D01*
X129027949Y-73576043D01*
X129156185Y-73815955D01*
X129328761Y-74026239D01*
X129539045Y-74198815D01*
X129778957Y-74327051D01*
X130039277Y-74406018D01*
X130242157Y-74426000D01*
X131377843Y-74426000D01*
X131580723Y-74406018D01*
X131841043Y-74327051D01*
X132080955Y-74198815D01*
X132291239Y-74026239D01*
X132463815Y-73815955D01*
X132592051Y-73576043D01*
X132671018Y-73315723D01*
X132697682Y-73045000D01*
X132671018Y-72774277D01*
X132592051Y-72513957D01*
X132463815Y-72274045D01*
X132291239Y-72063761D01*
X132080955Y-71891185D01*
X131841043Y-71762949D01*
X131580723Y-71683982D01*
X131377843Y-71664000D01*
X130242157Y-71664000D01*
X130039277Y-71683982D01*
X129778957Y-71762949D01*
X129539045Y-71891185D01*
X129328761Y-72063761D01*
X129156185Y-72274045D01*
X129027949Y-72513957D01*
X128948982Y-72774277D01*
X128922318Y-73045000D01*
X125197682Y-73045000D01*
X125171018Y-72774277D01*
X125092051Y-72513957D01*
X124963815Y-72274045D01*
X124791239Y-72063761D01*
X124580955Y-71891185D01*
X124341043Y-71762949D01*
X124080723Y-71683982D01*
X123877843Y-71664000D01*
X122742157Y-71664000D01*
X122539277Y-71683982D01*
X122278957Y-71762949D01*
X122039045Y-71891185D01*
X121828761Y-72063761D01*
X121656185Y-72274045D01*
X121527949Y-72513957D01*
X121448982Y-72774277D01*
X121422318Y-73045000D01*
X116255800Y-73045000D01*
X116255800Y-71679387D01*
X116350732Y-71537310D01*
X116417144Y-71376978D01*
X116451000Y-71206771D01*
X116451000Y-71033229D01*
X116435328Y-70954436D01*
X136749000Y-70954436D01*
X136749000Y-71285564D01*
X136813600Y-71610330D01*
X136940317Y-71916252D01*
X137124282Y-72191575D01*
X137358425Y-72425718D01*
X137633748Y-72609683D01*
X137939670Y-72736400D01*
X138264436Y-72801000D01*
X138595564Y-72801000D01*
X138920330Y-72736400D01*
X139226252Y-72609683D01*
X139501575Y-72425718D01*
X139735718Y-72191575D01*
X139919683Y-71916252D01*
X140046400Y-71610330D01*
X140111000Y-71285564D01*
X140111000Y-70954436D01*
X140046400Y-70629670D01*
X139919683Y-70323748D01*
X139735718Y-70048425D01*
X139507293Y-69820000D01*
X141827157Y-69820000D01*
X141827157Y-72420000D01*
X141834513Y-72494689D01*
X141856299Y-72566508D01*
X141891678Y-72632696D01*
X141939289Y-72690711D01*
X141997304Y-72738322D01*
X142063492Y-72773701D01*
X142135311Y-72795487D01*
X142210000Y-72802843D01*
X144810000Y-72802843D01*
X144884689Y-72795487D01*
X144956508Y-72773701D01*
X145022696Y-72738322D01*
X145080711Y-72690711D01*
X145128322Y-72632696D01*
X145163701Y-72566508D01*
X145185487Y-72494689D01*
X145192843Y-72420000D01*
X145192843Y-69820000D01*
X145185487Y-69745311D01*
X145163701Y-69673492D01*
X145128322Y-69607304D01*
X145080711Y-69549289D01*
X145022696Y-69501678D01*
X144956508Y-69466299D01*
X144884689Y-69444513D01*
X144810000Y-69437157D01*
X142210000Y-69437157D01*
X142135311Y-69444513D01*
X142063492Y-69466299D01*
X141997304Y-69501678D01*
X141939289Y-69549289D01*
X141891678Y-69607304D01*
X141856299Y-69673492D01*
X141834513Y-69745311D01*
X141827157Y-69820000D01*
X139507293Y-69820000D01*
X139501575Y-69814282D01*
X139226252Y-69630317D01*
X138920330Y-69503600D01*
X138595564Y-69439000D01*
X138264436Y-69439000D01*
X137939670Y-69503600D01*
X137633748Y-69630317D01*
X137358425Y-69814282D01*
X137124282Y-70048425D01*
X136940317Y-70323748D01*
X136813600Y-70629670D01*
X136749000Y-70954436D01*
X116435328Y-70954436D01*
X116417144Y-70863022D01*
X116350732Y-70702690D01*
X116254318Y-70558395D01*
X116131605Y-70435682D01*
X115987310Y-70339268D01*
X115826978Y-70272856D01*
X115656771Y-70239000D01*
X115483229Y-70239000D01*
X115313022Y-70272856D01*
X115152690Y-70339268D01*
X115008395Y-70435682D01*
X114885682Y-70558395D01*
X114789268Y-70702690D01*
X114722856Y-70863022D01*
X114689000Y-71033229D01*
X105130600Y-71033229D01*
X105130600Y-70466838D01*
X105145859Y-70456642D01*
X105254642Y-70347859D01*
X105340113Y-70219942D01*
X105398987Y-70077809D01*
X105429000Y-69926922D01*
X105429000Y-69773078D01*
X105398987Y-69622191D01*
X105340113Y-69480058D01*
X105254642Y-69352141D01*
X105145859Y-69243358D01*
X105017942Y-69157887D01*
X104875809Y-69099013D01*
X104724922Y-69069000D01*
X104571078Y-69069000D01*
X104420191Y-69099013D01*
X104278058Y-69157887D01*
X104150141Y-69243358D01*
X104041358Y-69352141D01*
X103955887Y-69480058D01*
X103897013Y-69622191D01*
X103886341Y-69675842D01*
X103736017Y-69525518D01*
X103720901Y-69507099D01*
X103647415Y-69446791D01*
X103563577Y-69401978D01*
X103472606Y-69374383D01*
X103401707Y-69367400D01*
X103401705Y-69367400D01*
X103378000Y-69365065D01*
X103354295Y-69367400D01*
X100438838Y-69367400D01*
X100428642Y-69352141D01*
X100319859Y-69243358D01*
X100191942Y-69157887D01*
X100049809Y-69099013D01*
X99898922Y-69069000D01*
X99745078Y-69069000D01*
X99594191Y-69099013D01*
X99452058Y-69157887D01*
X99324141Y-69243358D01*
X99215358Y-69352141D01*
X99129887Y-69480058D01*
X99071013Y-69622191D01*
X99041000Y-69773078D01*
X85557068Y-69773078D01*
X85696781Y-69715207D01*
X85906590Y-69575018D01*
X86085018Y-69396590D01*
X86225207Y-69186781D01*
X86276645Y-69062600D01*
X99798295Y-69062600D01*
X99822000Y-69064935D01*
X99845705Y-69062600D01*
X99845707Y-69062600D01*
X99916606Y-69055617D01*
X100007577Y-69028022D01*
X100091415Y-68983209D01*
X100164901Y-68922901D01*
X100180017Y-68904482D01*
X100997079Y-68087420D01*
X101015078Y-68091000D01*
X101168922Y-68091000D01*
X101319809Y-68060987D01*
X101454972Y-68005000D01*
X121422318Y-68005000D01*
X121448982Y-68275723D01*
X121527949Y-68536043D01*
X121656185Y-68775955D01*
X121828761Y-68986239D01*
X122039045Y-69158815D01*
X122278957Y-69287051D01*
X122539277Y-69366018D01*
X122742157Y-69386000D01*
X123877843Y-69386000D01*
X124080723Y-69366018D01*
X124341043Y-69287051D01*
X124580955Y-69158815D01*
X124791239Y-68986239D01*
X124963815Y-68775955D01*
X125092051Y-68536043D01*
X125171018Y-68275723D01*
X125197682Y-68005000D01*
X128922318Y-68005000D01*
X128948982Y-68275723D01*
X129027949Y-68536043D01*
X129156185Y-68775955D01*
X129328761Y-68986239D01*
X129539045Y-69158815D01*
X129778957Y-69287051D01*
X130039277Y-69366018D01*
X130242157Y-69386000D01*
X131377843Y-69386000D01*
X131580723Y-69366018D01*
X131841043Y-69287051D01*
X132080955Y-69158815D01*
X132291239Y-68986239D01*
X132463815Y-68775955D01*
X132592051Y-68536043D01*
X132671018Y-68275723D01*
X132697682Y-68005000D01*
X132671018Y-67734277D01*
X132592051Y-67473957D01*
X132463815Y-67234045D01*
X132291239Y-67023761D01*
X132080955Y-66851185D01*
X131841043Y-66722949D01*
X131580723Y-66643982D01*
X131377843Y-66624000D01*
X130242157Y-66624000D01*
X130039277Y-66643982D01*
X129778957Y-66722949D01*
X129539045Y-66851185D01*
X129328761Y-67023761D01*
X129156185Y-67234045D01*
X129027949Y-67473957D01*
X128948982Y-67734277D01*
X128922318Y-68005000D01*
X125197682Y-68005000D01*
X125171018Y-67734277D01*
X125092051Y-67473957D01*
X124963815Y-67234045D01*
X124791239Y-67023761D01*
X124580955Y-66851185D01*
X124341043Y-66722949D01*
X124080723Y-66643982D01*
X123877843Y-66624000D01*
X122742157Y-66624000D01*
X122539277Y-66643982D01*
X122278957Y-66722949D01*
X122039045Y-66851185D01*
X121828761Y-67023761D01*
X121656185Y-67234045D01*
X121527949Y-67473957D01*
X121448982Y-67734277D01*
X121422318Y-68005000D01*
X101454972Y-68005000D01*
X101461942Y-68002113D01*
X101589859Y-67916642D01*
X101698642Y-67807859D01*
X101784113Y-67679942D01*
X101842987Y-67537809D01*
X101873000Y-67386922D01*
X101873000Y-67233078D01*
X101842987Y-67082191D01*
X101784113Y-66940058D01*
X101698642Y-66812141D01*
X101589859Y-66703358D01*
X101461942Y-66617887D01*
X101319809Y-66559013D01*
X101168922Y-66529000D01*
X101015078Y-66529000D01*
X100864191Y-66559013D01*
X100722058Y-66617887D01*
X100594141Y-66703358D01*
X100485358Y-66812141D01*
X100399887Y-66940058D01*
X100341013Y-67082191D01*
X100311000Y-67233078D01*
X100311000Y-67386922D01*
X100314580Y-67404921D01*
X99622101Y-68097400D01*
X86276645Y-68097400D01*
X86225207Y-67973219D01*
X86104522Y-67792600D01*
X95395162Y-67792600D01*
X95405358Y-67807859D01*
X95514141Y-67916642D01*
X95642058Y-68002113D01*
X95784191Y-68060987D01*
X95935078Y-68091000D01*
X96088922Y-68091000D01*
X96239809Y-68060987D01*
X96381942Y-68002113D01*
X96509859Y-67916642D01*
X96618642Y-67807859D01*
X96704113Y-67679942D01*
X96762987Y-67537809D01*
X96793000Y-67386922D01*
X96793000Y-67233078D01*
X96762987Y-67082191D01*
X96704113Y-66940058D01*
X96618642Y-66812141D01*
X96509859Y-66703358D01*
X96381942Y-66617887D01*
X96239809Y-66559013D01*
X96088922Y-66529000D01*
X95935078Y-66529000D01*
X95784191Y-66559013D01*
X95642058Y-66617887D01*
X95514141Y-66703358D01*
X95405358Y-66812141D01*
X95395162Y-66827400D01*
X82150838Y-66827400D01*
X82140642Y-66812141D01*
X82031859Y-66703358D01*
X81903942Y-66617887D01*
X81761809Y-66559013D01*
X81610922Y-66529000D01*
X81457078Y-66529000D01*
X81306191Y-66559013D01*
X81164058Y-66617887D01*
X81036141Y-66703358D01*
X80927358Y-66812141D01*
X80841887Y-66940058D01*
X80783013Y-67082191D01*
X80753000Y-67233078D01*
X76327000Y-67233078D01*
X76327000Y-63906000D01*
X149733000Y-63906000D01*
X149733000Y-78942116D01*
X149733000Y-78942116D01*
G37*
X149733000Y-78942116D02*
X149569485Y-78874386D01*
X149341318Y-78829000D01*
X149108682Y-78829000D01*
X148880515Y-78874386D01*
X148665587Y-78963412D01*
X148472157Y-79092658D01*
X148307658Y-79257157D01*
X148262861Y-79324200D01*
X147012139Y-79324200D01*
X146967342Y-79257157D01*
X146802843Y-79092658D01*
X146609413Y-78963412D01*
X146394485Y-78874386D01*
X146166318Y-78829000D01*
X145933682Y-78829000D01*
X145705515Y-78874386D01*
X145490587Y-78963412D01*
X145297157Y-79092658D01*
X145132658Y-79257157D01*
X145003412Y-79450587D01*
X144914386Y-79665515D01*
X144869000Y-79893682D01*
X144869000Y-80126318D01*
X144914386Y-80354485D01*
X145003412Y-80569413D01*
X145132658Y-80762843D01*
X145297157Y-80927342D01*
X145490587Y-81056588D01*
X145705515Y-81145614D01*
X145933682Y-81191000D01*
X146166318Y-81191000D01*
X146394485Y-81145614D01*
X146609413Y-81056588D01*
X146802843Y-80927342D01*
X146967342Y-80762843D01*
X147012139Y-80695800D01*
X148262861Y-80695800D01*
X148307658Y-80762843D01*
X148472157Y-80927342D01*
X148665587Y-81056588D01*
X148880515Y-81145614D01*
X149108682Y-81191000D01*
X149341318Y-81191000D01*
X149569485Y-81145614D01*
X149733000Y-81077884D01*
X149733000Y-89102410D01*
X149679136Y-89073619D01*
X149456516Y-89006088D01*
X149283016Y-88989000D01*
X149166984Y-88989000D01*
X148993484Y-89006088D01*
X148770864Y-89073619D01*
X148565697Y-89183283D01*
X148385866Y-89330866D01*
X148260028Y-89484200D01*
X147014972Y-89484200D01*
X146889134Y-89330866D01*
X146709303Y-89183283D01*
X146504136Y-89073619D01*
X146281516Y-89006088D01*
X146108016Y-88989000D01*
X145991984Y-88989000D01*
X145818484Y-89006088D01*
X145595864Y-89073619D01*
X145390697Y-89183283D01*
X145210866Y-89330866D01*
X145063283Y-89510697D01*
X144953619Y-89715864D01*
X144886088Y-89938484D01*
X144863286Y-90170000D01*
X144886088Y-90401516D01*
X144953619Y-90624136D01*
X145063283Y-90829303D01*
X145210866Y-91009134D01*
X145390697Y-91156717D01*
X145595864Y-91266381D01*
X145818484Y-91333912D01*
X145991984Y-91351000D01*
X146108016Y-91351000D01*
X146281516Y-91333912D01*
X146504136Y-91266381D01*
X146709303Y-91156717D01*
X146889134Y-91009134D01*
X147014972Y-90855800D01*
X148260028Y-90855800D01*
X148385866Y-91009134D01*
X148565697Y-91156717D01*
X148770864Y-91266381D01*
X148993484Y-91333912D01*
X149166984Y-91351000D01*
X149283016Y-91351000D01*
X149456516Y-91333912D01*
X149679136Y-91266381D01*
X149733000Y-91237590D01*
X149733000Y-98654000D01*
X76327000Y-98654000D01*
X76327000Y-95044080D01*
X79125525Y-95044080D01*
X79209208Y-95298261D01*
X79481775Y-95429158D01*
X79774642Y-95504365D01*
X80076553Y-95520991D01*
X80375907Y-95478397D01*
X80661199Y-95378222D01*
X80810792Y-95298261D01*
X80894475Y-95044080D01*
X80010000Y-94159605D01*
X79125525Y-95044080D01*
X76327000Y-95044080D01*
X76327000Y-94046553D01*
X78469009Y-94046553D01*
X78511603Y-94345907D01*
X78611778Y-94631199D01*
X78691739Y-94780792D01*
X78945920Y-94864475D01*
X79830395Y-93980000D01*
X80189605Y-93980000D01*
X81074080Y-94864475D01*
X81328261Y-94780792D01*
X81459158Y-94508225D01*
X81534365Y-94215358D01*
X81550991Y-93913447D01*
X81542509Y-93853833D01*
X91429000Y-93853833D01*
X91429000Y-94106167D01*
X91478228Y-94353654D01*
X91574793Y-94586781D01*
X91714982Y-94796590D01*
X91893410Y-94975018D01*
X92103219Y-95115207D01*
X92336346Y-95211772D01*
X92583833Y-95261000D01*
X92836167Y-95261000D01*
X93083654Y-95211772D01*
X93316781Y-95115207D01*
X93526590Y-94975018D01*
X93705018Y-94796590D01*
X93845207Y-94586781D01*
X93941772Y-94353654D01*
X93991000Y-94106167D01*
X93991000Y-93853833D01*
X93941772Y-93606346D01*
X93845207Y-93373219D01*
X93705018Y-93163410D01*
X93526590Y-92984982D01*
X93316781Y-92844793D01*
X93083654Y-92748228D01*
X92836167Y-92699000D01*
X92583833Y-92699000D01*
X92336346Y-92748228D01*
X92103219Y-92844793D01*
X91893410Y-92984982D01*
X91714982Y-93163410D01*
X91574793Y-93373219D01*
X91478228Y-93606346D01*
X91429000Y-93853833D01*
X81542509Y-93853833D01*
X81508397Y-93614093D01*
X81408222Y-93328801D01*
X81328261Y-93179208D01*
X81074080Y-93095525D01*
X80189605Y-93980000D01*
X79830395Y-93980000D01*
X78945920Y-93095525D01*
X78691739Y-93179208D01*
X78560842Y-93451775D01*
X78485635Y-93744642D01*
X78469009Y-94046553D01*
X76327000Y-94046553D01*
X76327000Y-92915920D01*
X79125525Y-92915920D01*
X80010000Y-93800395D01*
X80894475Y-92915920D01*
X80810792Y-92661739D01*
X80538225Y-92530842D01*
X80245358Y-92455635D01*
X79943447Y-92439009D01*
X79644093Y-92481603D01*
X79358801Y-92581778D01*
X79209208Y-92661739D01*
X79125525Y-92915920D01*
X76327000Y-92915920D01*
X76327000Y-91313833D01*
X83809000Y-91313833D01*
X83809000Y-91566167D01*
X83858228Y-91813654D01*
X83954793Y-92046781D01*
X84094982Y-92256590D01*
X84273410Y-92435018D01*
X84483219Y-92575207D01*
X84716346Y-92671772D01*
X84963833Y-92721000D01*
X85216167Y-92721000D01*
X85463654Y-92671772D01*
X85696781Y-92575207D01*
X85906590Y-92435018D01*
X86085018Y-92256590D01*
X86225207Y-92046781D01*
X86321772Y-91813654D01*
X86371000Y-91566167D01*
X86371000Y-91313833D01*
X86321772Y-91066346D01*
X86225207Y-90833219D01*
X86085018Y-90623410D01*
X85906590Y-90444982D01*
X85696781Y-90304793D01*
X85463654Y-90208228D01*
X85216167Y-90159000D01*
X84963833Y-90159000D01*
X84716346Y-90208228D01*
X84483219Y-90304793D01*
X84273410Y-90444982D01*
X84094982Y-90623410D01*
X83954793Y-90833219D01*
X83858228Y-91066346D01*
X83809000Y-91313833D01*
X76327000Y-91313833D01*
X76327000Y-87424080D01*
X79125525Y-87424080D01*
X79209208Y-87678261D01*
X79481775Y-87809158D01*
X79774642Y-87884365D01*
X80076553Y-87900991D01*
X80375907Y-87858397D01*
X80661199Y-87758222D01*
X80810792Y-87678261D01*
X80894475Y-87424080D01*
X80010000Y-86539605D01*
X79125525Y-87424080D01*
X76327000Y-87424080D01*
X76327000Y-86426553D01*
X78469009Y-86426553D01*
X78511603Y-86725907D01*
X78611778Y-87011199D01*
X78691739Y-87160792D01*
X78945920Y-87244475D01*
X79830395Y-86360000D01*
X80189605Y-86360000D01*
X81074080Y-87244475D01*
X81328261Y-87160792D01*
X81459158Y-86888225D01*
X81534365Y-86595358D01*
X81550991Y-86293447D01*
X81542509Y-86233833D01*
X91429000Y-86233833D01*
X91429000Y-86486167D01*
X91478228Y-86733654D01*
X91574793Y-86966781D01*
X91714982Y-87176590D01*
X91893410Y-87355018D01*
X92103219Y-87495207D01*
X92336346Y-87591772D01*
X92583833Y-87641000D01*
X92836167Y-87641000D01*
X93083654Y-87591772D01*
X93316781Y-87495207D01*
X93526590Y-87355018D01*
X93582530Y-87299078D01*
X94469000Y-87299078D01*
X94469000Y-87452922D01*
X94499013Y-87603809D01*
X94557887Y-87745942D01*
X94643358Y-87873859D01*
X94752141Y-87982642D01*
X94880058Y-88068113D01*
X95022191Y-88126987D01*
X95173078Y-88157000D01*
X95326922Y-88157000D01*
X95477809Y-88126987D01*
X95619942Y-88068113D01*
X95747859Y-87982642D01*
X95856642Y-87873859D01*
X95866838Y-87858600D01*
X104624295Y-87858600D01*
X104648000Y-87860935D01*
X104671705Y-87858600D01*
X104671707Y-87858600D01*
X104742606Y-87851617D01*
X104833577Y-87824022D01*
X104917415Y-87779209D01*
X104990901Y-87718901D01*
X105006017Y-87700482D01*
X105569080Y-87137420D01*
X105587078Y-87141000D01*
X105740922Y-87141000D01*
X105891809Y-87110987D01*
X106033942Y-87052113D01*
X106161859Y-86966642D01*
X106270642Y-86857859D01*
X106356113Y-86729942D01*
X106414987Y-86587809D01*
X106445000Y-86436922D01*
X106445000Y-86283078D01*
X106414987Y-86132191D01*
X106356113Y-85990058D01*
X106270642Y-85862141D01*
X106161859Y-85753358D01*
X106033942Y-85667887D01*
X105891809Y-85609013D01*
X105740922Y-85579000D01*
X105587078Y-85579000D01*
X105436191Y-85609013D01*
X105294058Y-85667887D01*
X105166141Y-85753358D01*
X105057358Y-85862141D01*
X104971887Y-85990058D01*
X104913013Y-86132191D01*
X104883000Y-86283078D01*
X104883000Y-86436922D01*
X104886580Y-86454920D01*
X104448101Y-86893400D01*
X100393101Y-86893400D01*
X100428642Y-86857859D01*
X100514113Y-86729942D01*
X100572987Y-86587809D01*
X100603000Y-86436922D01*
X100603000Y-86283078D01*
X100572987Y-86132191D01*
X100514113Y-85990058D01*
X100428642Y-85862141D01*
X100319859Y-85753358D01*
X100304600Y-85743162D01*
X100304600Y-84019899D01*
X100997079Y-83327420D01*
X101015078Y-83331000D01*
X101168922Y-83331000D01*
X101319809Y-83300987D01*
X101461942Y-83242113D01*
X101589859Y-83156642D01*
X101698642Y-83047859D01*
X101784113Y-82919942D01*
X101842987Y-82777809D01*
X101853659Y-82724158D01*
X103273988Y-84144488D01*
X103289099Y-84162901D01*
X103362585Y-84223209D01*
X103446423Y-84268022D01*
X103537393Y-84295617D01*
X103632000Y-84304935D01*
X103655707Y-84302600D01*
X104031162Y-84302600D01*
X104041358Y-84317859D01*
X104150141Y-84426642D01*
X104278058Y-84512113D01*
X104420191Y-84570987D01*
X104571078Y-84601000D01*
X104724922Y-84601000D01*
X104875809Y-84570987D01*
X105017942Y-84512113D01*
X105145859Y-84426642D01*
X105156000Y-84416501D01*
X105166141Y-84426642D01*
X105294058Y-84512113D01*
X105436191Y-84570987D01*
X105587078Y-84601000D01*
X105740922Y-84601000D01*
X105891809Y-84570987D01*
X106033942Y-84512113D01*
X106161859Y-84426642D01*
X106270642Y-84317859D01*
X106356113Y-84189942D01*
X106414987Y-84047809D01*
X106445000Y-83896922D01*
X106445000Y-83743078D01*
X106414987Y-83592191D01*
X106356113Y-83450058D01*
X106270642Y-83322141D01*
X106161859Y-83213358D01*
X106033942Y-83127887D01*
X105891809Y-83069013D01*
X105740922Y-83039000D01*
X105587078Y-83039000D01*
X105569080Y-83042580D01*
X103098600Y-80572101D01*
X103098600Y-80010000D01*
X104163065Y-80010000D01*
X104165400Y-80033706D01*
X104165401Y-80494286D01*
X104163065Y-80518000D01*
X104172384Y-80612606D01*
X104199978Y-80703576D01*
X104199979Y-80703577D01*
X104244792Y-80787415D01*
X104305100Y-80860901D01*
X104323513Y-80876012D01*
X105339513Y-81892013D01*
X105339519Y-81892018D01*
X109753401Y-86305900D01*
X109753400Y-94464295D01*
X109751065Y-94488000D01*
X109753400Y-94511705D01*
X109753400Y-94511706D01*
X109760383Y-94582605D01*
X109787978Y-94673576D01*
X109832791Y-94757415D01*
X109893099Y-94830901D01*
X109911518Y-94846017D01*
X112671988Y-97606488D01*
X112687099Y-97624901D01*
X112760585Y-97685209D01*
X112844423Y-97730022D01*
X112935393Y-97757617D01*
X113030000Y-97766935D01*
X113053707Y-97764600D01*
X134342295Y-97764600D01*
X134366000Y-97766935D01*
X134389705Y-97764600D01*
X134389707Y-97764600D01*
X134460606Y-97757617D01*
X134551577Y-97730022D01*
X134635415Y-97685209D01*
X134708901Y-97624901D01*
X134724017Y-97606482D01*
X136214482Y-96116017D01*
X136232901Y-96100901D01*
X136293209Y-96027415D01*
X136338022Y-95943577D01*
X136365617Y-95852606D01*
X136372600Y-95781707D01*
X136372600Y-95781698D01*
X136374934Y-95758001D01*
X136372600Y-95734304D01*
X136372600Y-91639899D01*
X136572499Y-91440000D01*
X137193044Y-91440000D01*
X137216812Y-91681318D01*
X137287202Y-91913363D01*
X137401509Y-92127216D01*
X137555340Y-92314660D01*
X137742784Y-92468491D01*
X137956637Y-92582798D01*
X138188682Y-92653188D01*
X138369528Y-92671000D01*
X138490472Y-92671000D01*
X138671318Y-92653188D01*
X138903363Y-92582798D01*
X139117216Y-92468491D01*
X139304660Y-92314660D01*
X139458491Y-92127216D01*
X139572798Y-91913363D01*
X139643188Y-91681318D01*
X139666956Y-91440000D01*
X139643188Y-91198682D01*
X139572798Y-90966637D01*
X139458491Y-90752784D01*
X139304660Y-90565340D01*
X139117216Y-90411509D01*
X138903363Y-90297202D01*
X138671318Y-90226812D01*
X138490472Y-90209000D01*
X138369528Y-90209000D01*
X138188682Y-90226812D01*
X137956637Y-90297202D01*
X137742784Y-90411509D01*
X137555340Y-90565340D01*
X137401509Y-90752784D01*
X137287202Y-90966637D01*
X137216812Y-91198682D01*
X137193044Y-91440000D01*
X136572499Y-91440000D01*
X137966660Y-90045839D01*
X138188682Y-90113188D01*
X138369528Y-90131000D01*
X138490472Y-90131000D01*
X138671318Y-90113188D01*
X138903363Y-90042798D01*
X139117216Y-89928491D01*
X139304660Y-89774660D01*
X139458491Y-89587216D01*
X139567091Y-89384040D01*
X139573175Y-89404099D01*
X139698359Y-89666920D01*
X139872412Y-89900269D01*
X140088645Y-90095178D01*
X140338748Y-90244157D01*
X140493305Y-90298983D01*
X140282784Y-90411509D01*
X140095340Y-90565340D01*
X139941509Y-90752784D01*
X139827202Y-90966637D01*
X139756812Y-91198682D01*
X139733044Y-91440000D01*
X139756812Y-91681318D01*
X139827202Y-91913363D01*
X139941509Y-92127216D01*
X140095340Y-92314660D01*
X140282784Y-92468491D01*
X140496637Y-92582798D01*
X140728682Y-92653188D01*
X140909528Y-92671000D01*
X141030472Y-92671000D01*
X141211318Y-92653188D01*
X141443363Y-92582798D01*
X141657216Y-92468491D01*
X141844660Y-92314660D01*
X141998491Y-92127216D01*
X142112798Y-91913363D01*
X142183188Y-91681318D01*
X142206956Y-91440000D01*
X142183188Y-91198682D01*
X142112798Y-90966637D01*
X141998491Y-90752784D01*
X141844660Y-90565340D01*
X141657216Y-90411509D01*
X141446695Y-90298983D01*
X141601252Y-90244157D01*
X141851355Y-90095178D01*
X142067588Y-89900269D01*
X142241641Y-89666920D01*
X142366825Y-89404099D01*
X142411476Y-89256890D01*
X142290155Y-89027000D01*
X141097000Y-89027000D01*
X141097000Y-89047000D01*
X140843000Y-89047000D01*
X140843000Y-89027000D01*
X140823000Y-89027000D01*
X140823000Y-88773000D01*
X140843000Y-88773000D01*
X140843000Y-86487000D01*
X141097000Y-86487000D01*
X141097000Y-88773000D01*
X142290155Y-88773000D01*
X142411476Y-88543110D01*
X142366825Y-88395901D01*
X142241641Y-88133080D01*
X142067588Y-87899731D01*
X141851355Y-87704822D01*
X141725745Y-87630000D01*
X141851355Y-87555178D01*
X142067588Y-87360269D01*
X142241641Y-87126920D01*
X142366825Y-86864099D01*
X142411476Y-86716890D01*
X142290155Y-86487000D01*
X141097000Y-86487000D01*
X140843000Y-86487000D01*
X140823000Y-86487000D01*
X140823000Y-86233000D01*
X140843000Y-86233000D01*
X140843000Y-83947000D01*
X141097000Y-83947000D01*
X141097000Y-86233000D01*
X142290155Y-86233000D01*
X142411476Y-86003110D01*
X142366825Y-85855901D01*
X142241641Y-85593080D01*
X142067588Y-85359731D01*
X141851355Y-85164822D01*
X141725745Y-85090000D01*
X141851355Y-85015178D01*
X142067588Y-84820269D01*
X142241641Y-84586920D01*
X142366825Y-84324099D01*
X142411476Y-84176890D01*
X142290155Y-83947000D01*
X141097000Y-83947000D01*
X140843000Y-83947000D01*
X140823000Y-83947000D01*
X140823000Y-83693000D01*
X140843000Y-83693000D01*
X140843000Y-82499186D01*
X141097000Y-82499186D01*
X141097000Y-83693000D01*
X142290155Y-83693000D01*
X142411476Y-83463110D01*
X142366825Y-83315901D01*
X142241641Y-83053080D01*
X142067588Y-82819731D01*
X141851355Y-82624822D01*
X141601252Y-82475843D01*
X141326891Y-82378519D01*
X141097000Y-82499186D01*
X140843000Y-82499186D01*
X140613109Y-82378519D01*
X140338748Y-82475843D01*
X140088645Y-82624822D01*
X139872412Y-82819731D01*
X139698359Y-83053080D01*
X139662843Y-83127645D01*
X139662843Y-82970000D01*
X139655487Y-82895311D01*
X139633701Y-82823492D01*
X139598322Y-82757304D01*
X139550711Y-82699289D01*
X139492696Y-82651678D01*
X139426508Y-82616299D01*
X139354689Y-82594513D01*
X139280000Y-82587157D01*
X137580000Y-82587157D01*
X137505311Y-82594513D01*
X137433492Y-82616299D01*
X137367304Y-82651678D01*
X137309289Y-82699289D01*
X137261678Y-82757304D01*
X137226299Y-82823492D01*
X137204513Y-82895311D01*
X137197157Y-82970000D01*
X137197157Y-84670000D01*
X137204513Y-84744689D01*
X137226299Y-84816508D01*
X137261678Y-84882696D01*
X137309289Y-84940711D01*
X137367304Y-84988322D01*
X137433492Y-85023701D01*
X137505311Y-85045487D01*
X137580000Y-85052843D01*
X139280000Y-85052843D01*
X139354689Y-85045487D01*
X139426508Y-85023701D01*
X139492696Y-84988322D01*
X139550711Y-84940711D01*
X139598322Y-84882696D01*
X139633701Y-84816508D01*
X139655487Y-84744689D01*
X139662843Y-84670000D01*
X139662843Y-84512355D01*
X139698359Y-84586920D01*
X139872412Y-84820269D01*
X140088645Y-85015178D01*
X140214255Y-85090000D01*
X140088645Y-85164822D01*
X139872412Y-85359731D01*
X139698359Y-85593080D01*
X139573175Y-85855901D01*
X139567091Y-85875960D01*
X139458491Y-85672784D01*
X139304660Y-85485340D01*
X139117216Y-85331509D01*
X138903363Y-85217202D01*
X138671318Y-85146812D01*
X138490472Y-85129000D01*
X138369528Y-85129000D01*
X138188682Y-85146812D01*
X137956637Y-85217202D01*
X137742784Y-85331509D01*
X137555340Y-85485340D01*
X137401509Y-85672784D01*
X137287202Y-85886637D01*
X137216812Y-86118682D01*
X137193044Y-86360000D01*
X137216812Y-86601318D01*
X137284161Y-86823339D01*
X135057518Y-89049983D01*
X135039099Y-89065099D01*
X134978791Y-89138585D01*
X134933978Y-89222424D01*
X134906383Y-89313395D01*
X134900808Y-89370000D01*
X134897065Y-89408000D01*
X134899400Y-89431705D01*
X134899401Y-95304100D01*
X133912101Y-96291400D01*
X113483899Y-96291400D01*
X111226600Y-94034101D01*
X111226600Y-93662702D01*
X114756903Y-93662702D01*
X114828486Y-93906671D01*
X115083996Y-94027571D01*
X115358184Y-94096300D01*
X115640512Y-94110217D01*
X115920130Y-94068787D01*
X116186292Y-93973603D01*
X116311514Y-93906671D01*
X116383097Y-93662702D01*
X115570000Y-92849605D01*
X114756903Y-93662702D01*
X111226600Y-93662702D01*
X111226600Y-92740512D01*
X114129783Y-92740512D01*
X114171213Y-93020130D01*
X114266397Y-93286292D01*
X114333329Y-93411514D01*
X114577298Y-93483097D01*
X115390395Y-92670000D01*
X115749605Y-92670000D01*
X116562702Y-93483097D01*
X116806671Y-93411514D01*
X116927571Y-93156004D01*
X116996300Y-92881816D01*
X117001459Y-92777157D01*
X121929000Y-92777157D01*
X121929000Y-93912842D01*
X121948982Y-94115722D01*
X122027949Y-94376042D01*
X122156185Y-94615954D01*
X122328761Y-94826238D01*
X122539045Y-94998815D01*
X122778957Y-95127051D01*
X123039277Y-95206018D01*
X123310000Y-95232682D01*
X123580722Y-95206018D01*
X123841042Y-95127051D01*
X124080954Y-94998815D01*
X124291238Y-94826239D01*
X124463815Y-94615955D01*
X124592051Y-94376043D01*
X124671018Y-94115723D01*
X124691000Y-93912843D01*
X124691000Y-92777157D01*
X124671018Y-92574277D01*
X124592051Y-92313957D01*
X124463815Y-92074045D01*
X124291239Y-91863761D01*
X124268379Y-91845000D01*
X129427157Y-91845000D01*
X129427157Y-94845000D01*
X129434513Y-94919689D01*
X129456299Y-94991508D01*
X129491678Y-95057696D01*
X129539289Y-95115711D01*
X129597304Y-95163322D01*
X129663492Y-95198701D01*
X129735311Y-95220487D01*
X129810000Y-95227843D01*
X131810000Y-95227843D01*
X131884689Y-95220487D01*
X131956508Y-95198701D01*
X132022696Y-95163322D01*
X132080711Y-95115711D01*
X132128322Y-95057696D01*
X132163701Y-94991508D01*
X132185487Y-94919689D01*
X132192843Y-94845000D01*
X132192843Y-91845000D01*
X132185487Y-91770311D01*
X132163701Y-91698492D01*
X132128322Y-91632304D01*
X132080711Y-91574289D01*
X132022696Y-91526678D01*
X131956508Y-91491299D01*
X131884689Y-91469513D01*
X131810000Y-91462157D01*
X129810000Y-91462157D01*
X129735311Y-91469513D01*
X129663492Y-91491299D01*
X129597304Y-91526678D01*
X129539289Y-91574289D01*
X129491678Y-91632304D01*
X129456299Y-91698492D01*
X129434513Y-91770311D01*
X129427157Y-91845000D01*
X124268379Y-91845000D01*
X124080955Y-91691185D01*
X123841043Y-91562949D01*
X123580723Y-91483982D01*
X123310000Y-91457318D01*
X123039278Y-91483982D01*
X122778958Y-91562949D01*
X122539046Y-91691185D01*
X122328762Y-91863761D01*
X122156185Y-92074045D01*
X122027949Y-92313957D01*
X121948982Y-92574277D01*
X121929000Y-92777157D01*
X117001459Y-92777157D01*
X117010217Y-92599488D01*
X116968787Y-92319870D01*
X116873603Y-92053708D01*
X116806671Y-91928486D01*
X116562702Y-91856903D01*
X115749605Y-92670000D01*
X115390395Y-92670000D01*
X114577298Y-91856903D01*
X114333329Y-91928486D01*
X114212429Y-92183996D01*
X114143700Y-92458184D01*
X114129783Y-92740512D01*
X111226600Y-92740512D01*
X111226600Y-85621704D01*
X111228935Y-85597999D01*
X111223558Y-85543410D01*
X111219617Y-85503394D01*
X111192022Y-85412423D01*
X111147209Y-85328585D01*
X111086901Y-85255099D01*
X111068488Y-85239988D01*
X106187420Y-80358921D01*
X106191000Y-80340922D01*
X106191000Y-80187078D01*
X106160987Y-80036191D01*
X106102113Y-79894058D01*
X106016642Y-79766141D01*
X105965121Y-79714620D01*
X106033942Y-79686113D01*
X106161859Y-79600642D01*
X106270642Y-79491859D01*
X106356113Y-79363942D01*
X106414987Y-79221809D01*
X106445000Y-79070922D01*
X106445000Y-78917078D01*
X106414987Y-78766191D01*
X106356113Y-78624058D01*
X106270642Y-78496141D01*
X106161859Y-78387358D01*
X106033942Y-78301887D01*
X105891809Y-78243013D01*
X105740922Y-78213000D01*
X105587078Y-78213000D01*
X105436191Y-78243013D01*
X105294058Y-78301887D01*
X105166141Y-78387358D01*
X105057358Y-78496141D01*
X104971887Y-78624058D01*
X104913013Y-78766191D01*
X104883000Y-78917078D01*
X104883000Y-79070922D01*
X104886580Y-79088920D01*
X104323518Y-79651983D01*
X104305099Y-79667099D01*
X104244791Y-79740585D01*
X104199978Y-79824424D01*
X104172383Y-79915395D01*
X104165400Y-79986293D01*
X104163065Y-80010000D01*
X103098600Y-80010000D01*
X103098600Y-79356838D01*
X103113859Y-79346642D01*
X103222642Y-79237859D01*
X103308113Y-79109942D01*
X103366987Y-78967809D01*
X103397000Y-78816922D01*
X103397000Y-78663078D01*
X103366987Y-78512191D01*
X103308113Y-78370058D01*
X103222642Y-78242141D01*
X103113859Y-78133358D01*
X102985942Y-78047887D01*
X102843809Y-77989013D01*
X102692922Y-77959000D01*
X102539078Y-77959000D01*
X102388191Y-77989013D01*
X102246058Y-78047887D01*
X102118141Y-78133358D01*
X102009358Y-78242141D01*
X101999162Y-78257400D01*
X99337704Y-78257400D01*
X99313999Y-78255065D01*
X99290294Y-78257400D01*
X99290293Y-78257400D01*
X99219394Y-78264383D01*
X99128423Y-78291978D01*
X99044585Y-78336791D01*
X98971099Y-78397099D01*
X98955983Y-78415518D01*
X96106921Y-81264580D01*
X96088922Y-81261000D01*
X95935078Y-81261000D01*
X95784191Y-81291013D01*
X95642058Y-81349887D01*
X95514141Y-81435358D01*
X95405358Y-81544141D01*
X95319887Y-81672058D01*
X95261013Y-81814191D01*
X95231000Y-81965078D01*
X95231000Y-82118922D01*
X95261013Y-82269809D01*
X95319887Y-82411942D01*
X95405358Y-82539859D01*
X95514141Y-82648642D01*
X95642058Y-82734113D01*
X95784191Y-82792987D01*
X95935078Y-82823000D01*
X96088922Y-82823000D01*
X96239809Y-82792987D01*
X96381942Y-82734113D01*
X96509859Y-82648642D01*
X96618642Y-82539859D01*
X96704113Y-82411942D01*
X96762987Y-82269809D01*
X96793000Y-82118922D01*
X96793000Y-81965078D01*
X96789420Y-81947079D01*
X99513899Y-79222600D01*
X101999162Y-79222600D01*
X102009358Y-79237859D01*
X102118141Y-79346642D01*
X102133400Y-79356838D01*
X102133401Y-80748285D01*
X102131065Y-80772000D01*
X102140384Y-80866606D01*
X102167978Y-80957576D01*
X102212792Y-81041415D01*
X102249364Y-81085978D01*
X102273100Y-81114901D01*
X102291513Y-81130012D01*
X104286069Y-83124569D01*
X104278058Y-83127887D01*
X104150141Y-83213358D01*
X104041358Y-83322141D01*
X104031162Y-83337400D01*
X103831900Y-83337400D01*
X101958017Y-81463518D01*
X101942901Y-81445099D01*
X101869415Y-81384791D01*
X101785577Y-81339978D01*
X101694606Y-81312383D01*
X101623707Y-81305400D01*
X101623705Y-81305400D01*
X101600000Y-81303065D01*
X101576295Y-81305400D01*
X100607707Y-81305400D01*
X100584000Y-81303065D01*
X100489393Y-81312383D01*
X100398423Y-81339978D01*
X100314585Y-81384791D01*
X100241099Y-81445099D01*
X100225988Y-81463512D01*
X98352101Y-83337400D01*
X96628838Y-83337400D01*
X96618642Y-83322141D01*
X96509859Y-83213358D01*
X96381942Y-83127887D01*
X96239809Y-83069013D01*
X96088922Y-83039000D01*
X95935078Y-83039000D01*
X95784191Y-83069013D01*
X95642058Y-83127887D01*
X95514141Y-83213358D01*
X95405358Y-83322141D01*
X95319887Y-83450058D01*
X95261013Y-83592191D01*
X95231000Y-83743078D01*
X95231000Y-83896922D01*
X95261013Y-84047809D01*
X95319887Y-84189942D01*
X95405358Y-84317859D01*
X95514141Y-84426642D01*
X95642058Y-84512113D01*
X95784191Y-84570987D01*
X95935078Y-84601000D01*
X96088922Y-84601000D01*
X96239809Y-84570987D01*
X96381942Y-84512113D01*
X96509859Y-84426642D01*
X96618642Y-84317859D01*
X96628838Y-84302600D01*
X98528295Y-84302600D01*
X98552000Y-84304935D01*
X98575705Y-84302600D01*
X98575707Y-84302600D01*
X98646606Y-84295617D01*
X98737577Y-84268022D01*
X98821415Y-84223209D01*
X98894901Y-84162901D01*
X98910017Y-84144482D01*
X99353907Y-83700592D01*
X99346384Y-83725394D01*
X99337065Y-83820000D01*
X99339401Y-83843715D01*
X99339400Y-85743162D01*
X99324141Y-85753358D01*
X99215358Y-85862141D01*
X99129887Y-85990058D01*
X99071013Y-86132191D01*
X99041000Y-86283078D01*
X99041000Y-86436922D01*
X99071013Y-86587809D01*
X99129887Y-86729942D01*
X99215358Y-86857859D01*
X99250899Y-86893400D01*
X95866838Y-86893400D01*
X95856642Y-86878141D01*
X95747859Y-86769358D01*
X95619942Y-86683887D01*
X95477809Y-86625013D01*
X95326922Y-86595000D01*
X95173078Y-86595000D01*
X95022191Y-86625013D01*
X94880058Y-86683887D01*
X94752141Y-86769358D01*
X94643358Y-86878141D01*
X94557887Y-87006058D01*
X94499013Y-87148191D01*
X94469000Y-87299078D01*
X93582530Y-87299078D01*
X93705018Y-87176590D01*
X93845207Y-86966781D01*
X93941772Y-86733654D01*
X93991000Y-86486167D01*
X93991000Y-86233833D01*
X93941772Y-85986346D01*
X93845207Y-85753219D01*
X93705018Y-85543410D01*
X93526590Y-85364982D01*
X93316781Y-85224793D01*
X93083654Y-85128228D01*
X92836167Y-85079000D01*
X92583833Y-85079000D01*
X92336346Y-85128228D01*
X92103219Y-85224793D01*
X91893410Y-85364982D01*
X91714982Y-85543410D01*
X91574793Y-85753219D01*
X91478228Y-85986346D01*
X91429000Y-86233833D01*
X81542509Y-86233833D01*
X81508397Y-85994093D01*
X81408222Y-85708801D01*
X81328261Y-85559208D01*
X81074080Y-85475525D01*
X80189605Y-86360000D01*
X79830395Y-86360000D01*
X78945920Y-85475525D01*
X78691739Y-85559208D01*
X78560842Y-85831775D01*
X78485635Y-86124642D01*
X78469009Y-86426553D01*
X76327000Y-86426553D01*
X76327000Y-85295920D01*
X79125525Y-85295920D01*
X80010000Y-86180395D01*
X80894475Y-85295920D01*
X80810792Y-85041739D01*
X80538225Y-84910842D01*
X80245358Y-84835635D01*
X79943447Y-84819009D01*
X79644093Y-84861603D01*
X79358801Y-84961778D01*
X79209208Y-85041739D01*
X79125525Y-85295920D01*
X76327000Y-85295920D01*
X76327000Y-83693833D01*
X83809000Y-83693833D01*
X83809000Y-83946167D01*
X83858228Y-84193654D01*
X83954793Y-84426781D01*
X84094982Y-84636590D01*
X84273410Y-84815018D01*
X84483219Y-84955207D01*
X84716346Y-85051772D01*
X84963833Y-85101000D01*
X85216167Y-85101000D01*
X85463654Y-85051772D01*
X85696781Y-84955207D01*
X85906590Y-84815018D01*
X86085018Y-84636590D01*
X86225207Y-84426781D01*
X86321772Y-84193654D01*
X86371000Y-83946167D01*
X86371000Y-83693833D01*
X86321772Y-83446346D01*
X86225207Y-83213219D01*
X86085018Y-83003410D01*
X85906590Y-82824982D01*
X85696781Y-82684793D01*
X85463654Y-82588228D01*
X85216167Y-82539000D01*
X84963833Y-82539000D01*
X84716346Y-82588228D01*
X84483219Y-82684793D01*
X84273410Y-82824982D01*
X84094982Y-83003410D01*
X83954793Y-83213219D01*
X83858228Y-83446346D01*
X83809000Y-83693833D01*
X76327000Y-83693833D01*
X76327000Y-79804080D01*
X79125525Y-79804080D01*
X79209208Y-80058261D01*
X79481775Y-80189158D01*
X79774642Y-80264365D01*
X80076553Y-80280991D01*
X80375907Y-80238397D01*
X80661199Y-80138222D01*
X80810792Y-80058261D01*
X80894475Y-79804080D01*
X80010000Y-78919605D01*
X79125525Y-79804080D01*
X76327000Y-79804080D01*
X76327000Y-78806553D01*
X78469009Y-78806553D01*
X78511603Y-79105907D01*
X78611778Y-79391199D01*
X78691739Y-79540792D01*
X78945920Y-79624475D01*
X79830395Y-78740000D01*
X80189605Y-78740000D01*
X81074080Y-79624475D01*
X81328261Y-79540792D01*
X81459158Y-79268225D01*
X81534365Y-78975358D01*
X81550991Y-78673447D01*
X81542509Y-78613833D01*
X91429000Y-78613833D01*
X91429000Y-78866167D01*
X91478228Y-79113654D01*
X91574793Y-79346781D01*
X91714982Y-79556590D01*
X91893410Y-79735018D01*
X92103219Y-79875207D01*
X92336346Y-79971772D01*
X92583833Y-80021000D01*
X92836167Y-80021000D01*
X93083654Y-79971772D01*
X93316781Y-79875207D01*
X93526590Y-79735018D01*
X93705018Y-79556590D01*
X93845207Y-79346781D01*
X93941772Y-79113654D01*
X93991000Y-78866167D01*
X93991000Y-78613833D01*
X93941772Y-78366346D01*
X93845207Y-78133219D01*
X93705018Y-77923410D01*
X93526590Y-77744982D01*
X93316781Y-77604793D01*
X93083654Y-77508228D01*
X92836167Y-77459000D01*
X92583833Y-77459000D01*
X92336346Y-77508228D01*
X92103219Y-77604793D01*
X91893410Y-77744982D01*
X91714982Y-77923410D01*
X91574793Y-78133219D01*
X91478228Y-78366346D01*
X91429000Y-78613833D01*
X81542509Y-78613833D01*
X81508397Y-78374093D01*
X81408222Y-78088801D01*
X81328261Y-77939208D01*
X81074080Y-77855525D01*
X80189605Y-78740000D01*
X79830395Y-78740000D01*
X78945920Y-77855525D01*
X78691739Y-77939208D01*
X78560842Y-78211775D01*
X78485635Y-78504642D01*
X78469009Y-78806553D01*
X76327000Y-78806553D01*
X76327000Y-77675920D01*
X79125525Y-77675920D01*
X80010000Y-78560395D01*
X80894475Y-77675920D01*
X80810792Y-77421739D01*
X80538225Y-77290842D01*
X80245358Y-77215635D01*
X79943447Y-77199009D01*
X79644093Y-77241603D01*
X79358801Y-77341778D01*
X79209208Y-77421739D01*
X79125525Y-77675920D01*
X76327000Y-77675920D01*
X76327000Y-76073833D01*
X83809000Y-76073833D01*
X83809000Y-76326167D01*
X83858228Y-76573654D01*
X83954793Y-76806781D01*
X84094982Y-77016590D01*
X84273410Y-77195018D01*
X84483219Y-77335207D01*
X84716346Y-77431772D01*
X84963833Y-77481000D01*
X85216167Y-77481000D01*
X85463654Y-77431772D01*
X85696781Y-77335207D01*
X85906590Y-77195018D01*
X86085018Y-77016590D01*
X86225207Y-76806781D01*
X86276645Y-76682600D01*
X99290295Y-76682600D01*
X99314000Y-76684935D01*
X99337705Y-76682600D01*
X99337707Y-76682600D01*
X99408606Y-76675617D01*
X99499577Y-76648022D01*
X99583415Y-76603209D01*
X99656901Y-76542901D01*
X99672017Y-76524482D01*
X99819421Y-76377078D01*
X101835000Y-76377078D01*
X101835000Y-76530922D01*
X101865013Y-76681809D01*
X101923887Y-76823942D01*
X102009358Y-76951859D01*
X102118141Y-77060642D01*
X102246058Y-77146113D01*
X102388191Y-77204987D01*
X102539078Y-77235000D01*
X102692922Y-77235000D01*
X102843809Y-77204987D01*
X102985942Y-77146113D01*
X103113859Y-77060642D01*
X103222642Y-76951859D01*
X103232838Y-76936600D01*
X108004101Y-76936600D01*
X114792580Y-83725080D01*
X114789000Y-83743078D01*
X114789000Y-83896922D01*
X114819013Y-84047809D01*
X114877887Y-84189942D01*
X114884201Y-84199392D01*
X114884200Y-88987157D01*
X114770000Y-88987157D01*
X114695311Y-88994513D01*
X114623492Y-89016299D01*
X114557304Y-89051678D01*
X114499289Y-89099289D01*
X114451678Y-89157304D01*
X114416299Y-89223492D01*
X114394513Y-89295311D01*
X114387157Y-89370000D01*
X114387157Y-90970000D01*
X114394513Y-91044689D01*
X114416299Y-91116508D01*
X114451678Y-91182696D01*
X114499289Y-91240711D01*
X114557304Y-91288322D01*
X114623492Y-91323701D01*
X114695311Y-91345487D01*
X114770000Y-91352843D01*
X114991609Y-91352843D01*
X114953708Y-91366397D01*
X114828486Y-91433329D01*
X114756903Y-91677298D01*
X115570000Y-92490395D01*
X116383097Y-91677298D01*
X116311514Y-91433329D01*
X116141415Y-91352843D01*
X116370000Y-91352843D01*
X116444689Y-91345487D01*
X116516508Y-91323701D01*
X116582696Y-91288322D01*
X116640711Y-91240711D01*
X116688322Y-91182696D01*
X116723701Y-91116508D01*
X116745487Y-91044689D01*
X116752843Y-90970000D01*
X116752843Y-89370000D01*
X116745487Y-89295311D01*
X116723701Y-89223492D01*
X116688322Y-89157304D01*
X116640711Y-89099289D01*
X116582696Y-89051678D01*
X116516508Y-89016299D01*
X116444689Y-88994513D01*
X116370000Y-88987157D01*
X116255800Y-88987157D01*
X116255800Y-84199390D01*
X116262113Y-84189942D01*
X116320987Y-84047809D01*
X116351000Y-83896922D01*
X116351000Y-83743078D01*
X116320987Y-83592191D01*
X116262113Y-83450058D01*
X116176642Y-83322141D01*
X116067859Y-83213358D01*
X115939942Y-83127887D01*
X115797809Y-83069013D01*
X115646922Y-83039000D01*
X115493078Y-83039000D01*
X115475080Y-83042580D01*
X108562017Y-76129518D01*
X108546901Y-76111099D01*
X108473415Y-76050791D01*
X108389577Y-76005978D01*
X108298606Y-75978383D01*
X108227707Y-75971400D01*
X108227705Y-75971400D01*
X108204000Y-75969065D01*
X108180295Y-75971400D01*
X103232838Y-75971400D01*
X103222642Y-75956141D01*
X103113859Y-75847358D01*
X102985942Y-75761887D01*
X102843809Y-75703013D01*
X102692922Y-75673000D01*
X102539078Y-75673000D01*
X102388191Y-75703013D01*
X102246058Y-75761887D01*
X102118141Y-75847358D01*
X102009358Y-75956141D01*
X101923887Y-76084058D01*
X101865013Y-76226191D01*
X101835000Y-76377078D01*
X99819421Y-76377078D01*
X100489079Y-75707420D01*
X100507078Y-75711000D01*
X100660922Y-75711000D01*
X100811809Y-75680987D01*
X100953942Y-75622113D01*
X101081859Y-75536642D01*
X101190642Y-75427859D01*
X101276113Y-75299942D01*
X101334987Y-75157809D01*
X101365000Y-75006922D01*
X101365000Y-74853078D01*
X101334987Y-74702191D01*
X101276113Y-74560058D01*
X101190642Y-74432141D01*
X101081859Y-74323358D01*
X100953942Y-74237887D01*
X100811809Y-74179013D01*
X100660922Y-74149000D01*
X100507078Y-74149000D01*
X100356191Y-74179013D01*
X100214058Y-74237887D01*
X100086141Y-74323358D01*
X99977358Y-74432141D01*
X99891887Y-74560058D01*
X99833013Y-74702191D01*
X99803000Y-74853078D01*
X99803000Y-75006922D01*
X99806580Y-75024921D01*
X99114101Y-75717400D01*
X86276645Y-75717400D01*
X86225207Y-75593219D01*
X86085018Y-75383410D01*
X85906590Y-75204982D01*
X85696781Y-75064793D01*
X85463654Y-74968228D01*
X85216167Y-74919000D01*
X84963833Y-74919000D01*
X84716346Y-74968228D01*
X84483219Y-75064793D01*
X84273410Y-75204982D01*
X84094982Y-75383410D01*
X83954793Y-75593219D01*
X83858228Y-75826346D01*
X83809000Y-76073833D01*
X76327000Y-76073833D01*
X76327000Y-73075078D01*
X81769000Y-73075078D01*
X81769000Y-73228922D01*
X81799013Y-73379809D01*
X81857887Y-73521942D01*
X81943358Y-73649859D01*
X82052141Y-73758642D01*
X82180058Y-73844113D01*
X82322191Y-73902987D01*
X82473078Y-73933000D01*
X82626922Y-73933000D01*
X82777809Y-73902987D01*
X82919942Y-73844113D01*
X83047859Y-73758642D01*
X83156642Y-73649859D01*
X83166838Y-73634600D01*
X93956295Y-73634600D01*
X93980000Y-73636935D01*
X94003705Y-73634600D01*
X94003707Y-73634600D01*
X94074606Y-73627617D01*
X94165577Y-73600022D01*
X94249415Y-73555209D01*
X94322901Y-73494901D01*
X94338017Y-73476482D01*
X95917080Y-71897420D01*
X95935078Y-71901000D01*
X96088922Y-71901000D01*
X96239809Y-71870987D01*
X96381942Y-71812113D01*
X96509859Y-71726642D01*
X96618642Y-71617859D01*
X96704113Y-71489942D01*
X96762987Y-71347809D01*
X96793000Y-71196922D01*
X96793000Y-71043078D01*
X96762987Y-70892191D01*
X96704113Y-70750058D01*
X96618642Y-70622141D01*
X96509859Y-70513358D01*
X96381942Y-70427887D01*
X96239809Y-70369013D01*
X96088922Y-70339000D01*
X95935078Y-70339000D01*
X95784191Y-70369013D01*
X95642058Y-70427887D01*
X95514141Y-70513358D01*
X95405358Y-70622141D01*
X95319887Y-70750058D01*
X95261013Y-70892191D01*
X95231000Y-71043078D01*
X95231000Y-71196922D01*
X95234580Y-71214920D01*
X93780101Y-72669400D01*
X83166838Y-72669400D01*
X83156642Y-72654141D01*
X83047859Y-72545358D01*
X82919942Y-72459887D01*
X82777809Y-72401013D01*
X82626922Y-72371000D01*
X82473078Y-72371000D01*
X82322191Y-72401013D01*
X82180058Y-72459887D01*
X82052141Y-72545358D01*
X81943358Y-72654141D01*
X81857887Y-72782058D01*
X81799013Y-72924191D01*
X81769000Y-73075078D01*
X76327000Y-73075078D01*
X76327000Y-72184080D01*
X79125525Y-72184080D01*
X79209208Y-72438261D01*
X79481775Y-72569158D01*
X79774642Y-72644365D01*
X80076553Y-72660991D01*
X80375907Y-72618397D01*
X80661199Y-72518222D01*
X80810792Y-72438261D01*
X80894475Y-72184080D01*
X80010000Y-71299605D01*
X79125525Y-72184080D01*
X76327000Y-72184080D01*
X76327000Y-71186553D01*
X78469009Y-71186553D01*
X78511603Y-71485907D01*
X78611778Y-71771199D01*
X78691739Y-71920792D01*
X78945920Y-72004475D01*
X79830395Y-71120000D01*
X80189605Y-71120000D01*
X81074080Y-72004475D01*
X81328261Y-71920792D01*
X81459158Y-71648225D01*
X81534365Y-71355358D01*
X81550991Y-71053447D01*
X81542509Y-70993833D01*
X91429000Y-70993833D01*
X91429000Y-71246167D01*
X91478228Y-71493654D01*
X91574793Y-71726781D01*
X91714982Y-71936590D01*
X91893410Y-72115018D01*
X92103219Y-72255207D01*
X92336346Y-72351772D01*
X92583833Y-72401000D01*
X92836167Y-72401000D01*
X93083654Y-72351772D01*
X93316781Y-72255207D01*
X93526590Y-72115018D01*
X93705018Y-71936590D01*
X93845207Y-71726781D01*
X93941772Y-71493654D01*
X93991000Y-71246167D01*
X93991000Y-70993833D01*
X93941772Y-70746346D01*
X93845207Y-70513219D01*
X93705018Y-70303410D01*
X93526590Y-70124982D01*
X93316781Y-69984793D01*
X93083654Y-69888228D01*
X92836167Y-69839000D01*
X92583833Y-69839000D01*
X92336346Y-69888228D01*
X92103219Y-69984793D01*
X91893410Y-70124982D01*
X91714982Y-70303410D01*
X91574793Y-70513219D01*
X91478228Y-70746346D01*
X91429000Y-70993833D01*
X81542509Y-70993833D01*
X81508397Y-70754093D01*
X81408222Y-70468801D01*
X81328261Y-70319208D01*
X81074080Y-70235525D01*
X80189605Y-71120000D01*
X79830395Y-71120000D01*
X78945920Y-70235525D01*
X78691739Y-70319208D01*
X78560842Y-70591775D01*
X78485635Y-70884642D01*
X78469009Y-71186553D01*
X76327000Y-71186553D01*
X76327000Y-70055920D01*
X79125525Y-70055920D01*
X80010000Y-70940395D01*
X80894475Y-70055920D01*
X80810792Y-69801739D01*
X80538225Y-69670842D01*
X80245358Y-69595635D01*
X79943447Y-69579009D01*
X79644093Y-69621603D01*
X79358801Y-69721778D01*
X79209208Y-69801739D01*
X79125525Y-70055920D01*
X76327000Y-70055920D01*
X76327000Y-67233078D01*
X80753000Y-67233078D01*
X80753000Y-67386922D01*
X80783013Y-67537809D01*
X80841887Y-67679942D01*
X80927358Y-67807859D01*
X81036141Y-67916642D01*
X81164058Y-68002113D01*
X81306191Y-68060987D01*
X81457078Y-68091000D01*
X81610922Y-68091000D01*
X81761809Y-68060987D01*
X81903942Y-68002113D01*
X82031859Y-67916642D01*
X82140642Y-67807859D01*
X82150838Y-67792600D01*
X84075478Y-67792600D01*
X83954793Y-67973219D01*
X83858228Y-68206346D01*
X83809000Y-68453833D01*
X83809000Y-68706167D01*
X83858228Y-68953654D01*
X83954793Y-69186781D01*
X84094982Y-69396590D01*
X84273410Y-69575018D01*
X84483219Y-69715207D01*
X84716346Y-69811772D01*
X84963833Y-69861000D01*
X85216167Y-69861000D01*
X85463654Y-69811772D01*
X85557068Y-69773078D01*
X99041000Y-69773078D01*
X99041000Y-69926922D01*
X99071013Y-70077809D01*
X99129887Y-70219942D01*
X99215358Y-70347859D01*
X99324141Y-70456642D01*
X99452058Y-70542113D01*
X99594191Y-70600987D01*
X99745078Y-70631000D01*
X99898922Y-70631000D01*
X100049809Y-70600987D01*
X100191942Y-70542113D01*
X100319859Y-70456642D01*
X100428642Y-70347859D01*
X100438838Y-70332600D01*
X103178101Y-70332600D01*
X103657400Y-70811900D01*
X103657401Y-73382285D01*
X103655065Y-73406000D01*
X103664384Y-73500606D01*
X103691978Y-73591576D01*
X103723132Y-73649859D01*
X103736792Y-73675415D01*
X103797100Y-73748901D01*
X103815513Y-73764012D01*
X104886580Y-74835079D01*
X104883000Y-74853078D01*
X104883000Y-75006922D01*
X104913013Y-75157809D01*
X104971887Y-75299942D01*
X105057358Y-75427859D01*
X105166141Y-75536642D01*
X105294058Y-75622113D01*
X105436191Y-75680987D01*
X105587078Y-75711000D01*
X105740922Y-75711000D01*
X105891809Y-75680987D01*
X106033942Y-75622113D01*
X106161859Y-75536642D01*
X106270642Y-75427859D01*
X106356113Y-75299942D01*
X106414987Y-75157809D01*
X106445000Y-75006922D01*
X106445000Y-74853078D01*
X106414987Y-74702191D01*
X106356113Y-74560058D01*
X106270642Y-74432141D01*
X106161859Y-74323358D01*
X106119418Y-74295000D01*
X106161859Y-74266642D01*
X106270642Y-74157859D01*
X106356113Y-74029942D01*
X106414987Y-73887809D01*
X106445000Y-73736922D01*
X106445000Y-73583078D01*
X106414987Y-73432191D01*
X106356113Y-73290058D01*
X106270642Y-73162141D01*
X106161859Y-73053358D01*
X106033942Y-72967887D01*
X105891809Y-72909013D01*
X105740922Y-72879000D01*
X105587078Y-72879000D01*
X105569080Y-72882580D01*
X105130600Y-72444101D01*
X105130600Y-71033229D01*
X114689000Y-71033229D01*
X114689000Y-71206771D01*
X114722856Y-71376978D01*
X114789268Y-71537310D01*
X114884201Y-71679388D01*
X114884200Y-76166321D01*
X114880883Y-76200000D01*
X114884200Y-76233679D01*
X114884200Y-76233688D01*
X114894123Y-76334439D01*
X114933338Y-76463713D01*
X114992103Y-76573654D01*
X114997020Y-76582853D01*
X115050503Y-76648022D01*
X115082720Y-76687279D01*
X115108887Y-76708754D01*
X119896796Y-81496664D01*
X119899013Y-81507809D01*
X119957887Y-81649942D01*
X120043358Y-81777859D01*
X120152141Y-81886642D01*
X120280058Y-81972113D01*
X120422191Y-82030987D01*
X120573078Y-82061000D01*
X120726922Y-82061000D01*
X120877809Y-82030987D01*
X121019942Y-81972113D01*
X121147859Y-81886642D01*
X121256642Y-81777859D01*
X121342113Y-81649942D01*
X121400987Y-81507809D01*
X121431000Y-81356922D01*
X121431000Y-81203078D01*
X121400987Y-81052191D01*
X121342113Y-80910058D01*
X121256642Y-80782141D01*
X121147859Y-80673358D01*
X121019942Y-80587887D01*
X120877809Y-80529013D01*
X120866664Y-80526796D01*
X118424868Y-78085000D01*
X121422318Y-78085000D01*
X121448982Y-78355723D01*
X121527949Y-78616043D01*
X121656185Y-78855955D01*
X121828761Y-79066239D01*
X122039045Y-79238815D01*
X122278957Y-79367051D01*
X122539277Y-79446018D01*
X122742157Y-79466000D01*
X123877843Y-79466000D01*
X124080723Y-79446018D01*
X124341043Y-79367051D01*
X124580955Y-79238815D01*
X124791239Y-79066239D01*
X124963815Y-78855955D01*
X125092051Y-78616043D01*
X125171018Y-78355723D01*
X125197682Y-78085000D01*
X128922318Y-78085000D01*
X128948982Y-78355723D01*
X129027949Y-78616043D01*
X129156185Y-78855955D01*
X129328761Y-79066239D01*
X129539045Y-79238815D01*
X129778957Y-79367051D01*
X130039277Y-79446018D01*
X130242157Y-79466000D01*
X131377843Y-79466000D01*
X131580723Y-79446018D01*
X131841043Y-79367051D01*
X132080955Y-79238815D01*
X132291239Y-79066239D01*
X132463815Y-78855955D01*
X132592051Y-78616043D01*
X132671018Y-78355723D01*
X132697682Y-78085000D01*
X132671018Y-77814277D01*
X132592051Y-77553957D01*
X132463815Y-77314045D01*
X132291239Y-77103761D01*
X132080955Y-76931185D01*
X131841043Y-76802949D01*
X131580723Y-76723982D01*
X131377843Y-76704000D01*
X130242157Y-76704000D01*
X130039277Y-76723982D01*
X129778957Y-76802949D01*
X129539045Y-76931185D01*
X129328761Y-77103761D01*
X129156185Y-77314045D01*
X129027949Y-77553957D01*
X128948982Y-77814277D01*
X128922318Y-78085000D01*
X125197682Y-78085000D01*
X125171018Y-77814277D01*
X125092051Y-77553957D01*
X124963815Y-77314045D01*
X124791239Y-77103761D01*
X124580955Y-76931185D01*
X124341043Y-76802949D01*
X124080723Y-76723982D01*
X123877843Y-76704000D01*
X122742157Y-76704000D01*
X122539277Y-76723982D01*
X122278957Y-76802949D01*
X122039045Y-76931185D01*
X121828761Y-77103761D01*
X121656185Y-77314045D01*
X121527949Y-77553957D01*
X121448982Y-77814277D01*
X121422318Y-78085000D01*
X118424868Y-78085000D01*
X116255800Y-75915933D01*
X116255800Y-73045000D01*
X121422318Y-73045000D01*
X121448982Y-73315723D01*
X121527949Y-73576043D01*
X121656185Y-73815955D01*
X121828761Y-74026239D01*
X122039045Y-74198815D01*
X122278957Y-74327051D01*
X122539277Y-74406018D01*
X122742157Y-74426000D01*
X123877843Y-74426000D01*
X124080723Y-74406018D01*
X124341043Y-74327051D01*
X124580955Y-74198815D01*
X124791239Y-74026239D01*
X124963815Y-73815955D01*
X125092051Y-73576043D01*
X125171018Y-73315723D01*
X125197682Y-73045000D01*
X128922318Y-73045000D01*
X128948982Y-73315723D01*
X129027949Y-73576043D01*
X129156185Y-73815955D01*
X129328761Y-74026239D01*
X129539045Y-74198815D01*
X129778957Y-74327051D01*
X130039277Y-74406018D01*
X130242157Y-74426000D01*
X131377843Y-74426000D01*
X131580723Y-74406018D01*
X131841043Y-74327051D01*
X132080955Y-74198815D01*
X132291239Y-74026239D01*
X132463815Y-73815955D01*
X132592051Y-73576043D01*
X132671018Y-73315723D01*
X132697682Y-73045000D01*
X132671018Y-72774277D01*
X132592051Y-72513957D01*
X132463815Y-72274045D01*
X132291239Y-72063761D01*
X132080955Y-71891185D01*
X131841043Y-71762949D01*
X131580723Y-71683982D01*
X131377843Y-71664000D01*
X130242157Y-71664000D01*
X130039277Y-71683982D01*
X129778957Y-71762949D01*
X129539045Y-71891185D01*
X129328761Y-72063761D01*
X129156185Y-72274045D01*
X129027949Y-72513957D01*
X128948982Y-72774277D01*
X128922318Y-73045000D01*
X125197682Y-73045000D01*
X125171018Y-72774277D01*
X125092051Y-72513957D01*
X124963815Y-72274045D01*
X124791239Y-72063761D01*
X124580955Y-71891185D01*
X124341043Y-71762949D01*
X124080723Y-71683982D01*
X123877843Y-71664000D01*
X122742157Y-71664000D01*
X122539277Y-71683982D01*
X122278957Y-71762949D01*
X122039045Y-71891185D01*
X121828761Y-72063761D01*
X121656185Y-72274045D01*
X121527949Y-72513957D01*
X121448982Y-72774277D01*
X121422318Y-73045000D01*
X116255800Y-73045000D01*
X116255800Y-71679387D01*
X116350732Y-71537310D01*
X116417144Y-71376978D01*
X116451000Y-71206771D01*
X116451000Y-71033229D01*
X116435328Y-70954436D01*
X136749000Y-70954436D01*
X136749000Y-71285564D01*
X136813600Y-71610330D01*
X136940317Y-71916252D01*
X137124282Y-72191575D01*
X137358425Y-72425718D01*
X137633748Y-72609683D01*
X137939670Y-72736400D01*
X138264436Y-72801000D01*
X138595564Y-72801000D01*
X138920330Y-72736400D01*
X139226252Y-72609683D01*
X139501575Y-72425718D01*
X139735718Y-72191575D01*
X139919683Y-71916252D01*
X140046400Y-71610330D01*
X140111000Y-71285564D01*
X140111000Y-70954436D01*
X140046400Y-70629670D01*
X139919683Y-70323748D01*
X139735718Y-70048425D01*
X139507293Y-69820000D01*
X141827157Y-69820000D01*
X141827157Y-72420000D01*
X141834513Y-72494689D01*
X141856299Y-72566508D01*
X141891678Y-72632696D01*
X141939289Y-72690711D01*
X141997304Y-72738322D01*
X142063492Y-72773701D01*
X142135311Y-72795487D01*
X142210000Y-72802843D01*
X144810000Y-72802843D01*
X144884689Y-72795487D01*
X144956508Y-72773701D01*
X145022696Y-72738322D01*
X145080711Y-72690711D01*
X145128322Y-72632696D01*
X145163701Y-72566508D01*
X145185487Y-72494689D01*
X145192843Y-72420000D01*
X145192843Y-69820000D01*
X145185487Y-69745311D01*
X145163701Y-69673492D01*
X145128322Y-69607304D01*
X145080711Y-69549289D01*
X145022696Y-69501678D01*
X144956508Y-69466299D01*
X144884689Y-69444513D01*
X144810000Y-69437157D01*
X142210000Y-69437157D01*
X142135311Y-69444513D01*
X142063492Y-69466299D01*
X141997304Y-69501678D01*
X141939289Y-69549289D01*
X141891678Y-69607304D01*
X141856299Y-69673492D01*
X141834513Y-69745311D01*
X141827157Y-69820000D01*
X139507293Y-69820000D01*
X139501575Y-69814282D01*
X139226252Y-69630317D01*
X138920330Y-69503600D01*
X138595564Y-69439000D01*
X138264436Y-69439000D01*
X137939670Y-69503600D01*
X137633748Y-69630317D01*
X137358425Y-69814282D01*
X137124282Y-70048425D01*
X136940317Y-70323748D01*
X136813600Y-70629670D01*
X136749000Y-70954436D01*
X116435328Y-70954436D01*
X116417144Y-70863022D01*
X116350732Y-70702690D01*
X116254318Y-70558395D01*
X116131605Y-70435682D01*
X115987310Y-70339268D01*
X115826978Y-70272856D01*
X115656771Y-70239000D01*
X115483229Y-70239000D01*
X115313022Y-70272856D01*
X115152690Y-70339268D01*
X115008395Y-70435682D01*
X114885682Y-70558395D01*
X114789268Y-70702690D01*
X114722856Y-70863022D01*
X114689000Y-71033229D01*
X105130600Y-71033229D01*
X105130600Y-70466838D01*
X105145859Y-70456642D01*
X105254642Y-70347859D01*
X105340113Y-70219942D01*
X105398987Y-70077809D01*
X105429000Y-69926922D01*
X105429000Y-69773078D01*
X105398987Y-69622191D01*
X105340113Y-69480058D01*
X105254642Y-69352141D01*
X105145859Y-69243358D01*
X105017942Y-69157887D01*
X104875809Y-69099013D01*
X104724922Y-69069000D01*
X104571078Y-69069000D01*
X104420191Y-69099013D01*
X104278058Y-69157887D01*
X104150141Y-69243358D01*
X104041358Y-69352141D01*
X103955887Y-69480058D01*
X103897013Y-69622191D01*
X103886341Y-69675842D01*
X103736017Y-69525518D01*
X103720901Y-69507099D01*
X103647415Y-69446791D01*
X103563577Y-69401978D01*
X103472606Y-69374383D01*
X103401707Y-69367400D01*
X103401705Y-69367400D01*
X103378000Y-69365065D01*
X103354295Y-69367400D01*
X100438838Y-69367400D01*
X100428642Y-69352141D01*
X100319859Y-69243358D01*
X100191942Y-69157887D01*
X100049809Y-69099013D01*
X99898922Y-69069000D01*
X99745078Y-69069000D01*
X99594191Y-69099013D01*
X99452058Y-69157887D01*
X99324141Y-69243358D01*
X99215358Y-69352141D01*
X99129887Y-69480058D01*
X99071013Y-69622191D01*
X99041000Y-69773078D01*
X85557068Y-69773078D01*
X85696781Y-69715207D01*
X85906590Y-69575018D01*
X86085018Y-69396590D01*
X86225207Y-69186781D01*
X86276645Y-69062600D01*
X99798295Y-69062600D01*
X99822000Y-69064935D01*
X99845705Y-69062600D01*
X99845707Y-69062600D01*
X99916606Y-69055617D01*
X100007577Y-69028022D01*
X100091415Y-68983209D01*
X100164901Y-68922901D01*
X100180017Y-68904482D01*
X100997079Y-68087420D01*
X101015078Y-68091000D01*
X101168922Y-68091000D01*
X101319809Y-68060987D01*
X101454972Y-68005000D01*
X121422318Y-68005000D01*
X121448982Y-68275723D01*
X121527949Y-68536043D01*
X121656185Y-68775955D01*
X121828761Y-68986239D01*
X122039045Y-69158815D01*
X122278957Y-69287051D01*
X122539277Y-69366018D01*
X122742157Y-69386000D01*
X123877843Y-69386000D01*
X124080723Y-69366018D01*
X124341043Y-69287051D01*
X124580955Y-69158815D01*
X124791239Y-68986239D01*
X124963815Y-68775955D01*
X125092051Y-68536043D01*
X125171018Y-68275723D01*
X125197682Y-68005000D01*
X128922318Y-68005000D01*
X128948982Y-68275723D01*
X129027949Y-68536043D01*
X129156185Y-68775955D01*
X129328761Y-68986239D01*
X129539045Y-69158815D01*
X129778957Y-69287051D01*
X130039277Y-69366018D01*
X130242157Y-69386000D01*
X131377843Y-69386000D01*
X131580723Y-69366018D01*
X131841043Y-69287051D01*
X132080955Y-69158815D01*
X132291239Y-68986239D01*
X132463815Y-68775955D01*
X132592051Y-68536043D01*
X132671018Y-68275723D01*
X132697682Y-68005000D01*
X132671018Y-67734277D01*
X132592051Y-67473957D01*
X132463815Y-67234045D01*
X132291239Y-67023761D01*
X132080955Y-66851185D01*
X131841043Y-66722949D01*
X131580723Y-66643982D01*
X131377843Y-66624000D01*
X130242157Y-66624000D01*
X130039277Y-66643982D01*
X129778957Y-66722949D01*
X129539045Y-66851185D01*
X129328761Y-67023761D01*
X129156185Y-67234045D01*
X129027949Y-67473957D01*
X128948982Y-67734277D01*
X128922318Y-68005000D01*
X125197682Y-68005000D01*
X125171018Y-67734277D01*
X125092051Y-67473957D01*
X124963815Y-67234045D01*
X124791239Y-67023761D01*
X124580955Y-66851185D01*
X124341043Y-66722949D01*
X124080723Y-66643982D01*
X123877843Y-66624000D01*
X122742157Y-66624000D01*
X122539277Y-66643982D01*
X122278957Y-66722949D01*
X122039045Y-66851185D01*
X121828761Y-67023761D01*
X121656185Y-67234045D01*
X121527949Y-67473957D01*
X121448982Y-67734277D01*
X121422318Y-68005000D01*
X101454972Y-68005000D01*
X101461942Y-68002113D01*
X101589859Y-67916642D01*
X101698642Y-67807859D01*
X101784113Y-67679942D01*
X101842987Y-67537809D01*
X101873000Y-67386922D01*
X101873000Y-67233078D01*
X101842987Y-67082191D01*
X101784113Y-66940058D01*
X101698642Y-66812141D01*
X101589859Y-66703358D01*
X101461942Y-66617887D01*
X101319809Y-66559013D01*
X101168922Y-66529000D01*
X101015078Y-66529000D01*
X100864191Y-66559013D01*
X100722058Y-66617887D01*
X100594141Y-66703358D01*
X100485358Y-66812141D01*
X100399887Y-66940058D01*
X100341013Y-67082191D01*
X100311000Y-67233078D01*
X100311000Y-67386922D01*
X100314580Y-67404921D01*
X99622101Y-68097400D01*
X86276645Y-68097400D01*
X86225207Y-67973219D01*
X86104522Y-67792600D01*
X95395162Y-67792600D01*
X95405358Y-67807859D01*
X95514141Y-67916642D01*
X95642058Y-68002113D01*
X95784191Y-68060987D01*
X95935078Y-68091000D01*
X96088922Y-68091000D01*
X96239809Y-68060987D01*
X96381942Y-68002113D01*
X96509859Y-67916642D01*
X96618642Y-67807859D01*
X96704113Y-67679942D01*
X96762987Y-67537809D01*
X96793000Y-67386922D01*
X96793000Y-67233078D01*
X96762987Y-67082191D01*
X96704113Y-66940058D01*
X96618642Y-66812141D01*
X96509859Y-66703358D01*
X96381942Y-66617887D01*
X96239809Y-66559013D01*
X96088922Y-66529000D01*
X95935078Y-66529000D01*
X95784191Y-66559013D01*
X95642058Y-66617887D01*
X95514141Y-66703358D01*
X95405358Y-66812141D01*
X95395162Y-66827400D01*
X82150838Y-66827400D01*
X82140642Y-66812141D01*
X82031859Y-66703358D01*
X81903942Y-66617887D01*
X81761809Y-66559013D01*
X81610922Y-66529000D01*
X81457078Y-66529000D01*
X81306191Y-66559013D01*
X81164058Y-66617887D01*
X81036141Y-66703358D01*
X80927358Y-66812141D01*
X80841887Y-66940058D01*
X80783013Y-67082191D01*
X80753000Y-67233078D01*
X76327000Y-67233078D01*
X76327000Y-63906000D01*
X149733000Y-63906000D01*
X149733000Y-78942116D01*
M02*
