G04 #@! TF.GenerationSoftware,KiCad,Pcbnew,5.1.4*
G04 #@! TF.CreationDate,2019-11-15T14:10:00+00:00*
G04 #@! TF.ProjectId,BSPD,42535044-2e6b-4696-9361-645f70636258,rev?*
G04 #@! TF.SameCoordinates,PX3c8eee0PY3c8eee0*
G04 #@! TF.FileFunction,Legend,Top*
G04 #@! TF.FilePolarity,Positive*
%FSLAX46Y46*%
G04 Gerber Fmt 4.6, Leading zero omitted, Abs format (unit mm)*
G04 Created by KiCad (PCBNEW 5.1.4) date 2019-11-15 14:10:00*
%MOMM*%
%LPD*%
G04 APERTURE LIST*
%ADD10C,0.150000*%
%ADD11C,0.050000*%
%ADD12C,0.120000*%
%ADD13C,0.100000*%
G04 APERTURE END LIST*
D10*
X2921190Y-23868571D02*
X3064047Y-23916190D01*
X3111666Y-23963809D01*
X3159285Y-24059047D01*
X3159285Y-24201904D01*
X3111666Y-24297142D01*
X3064047Y-24344761D01*
X2968809Y-24392380D01*
X2587857Y-24392380D01*
X2587857Y-23392380D01*
X2921190Y-23392380D01*
X3016428Y-23440000D01*
X3064047Y-23487619D01*
X3111666Y-23582857D01*
X3111666Y-23678095D01*
X3064047Y-23773333D01*
X3016428Y-23820952D01*
X2921190Y-23868571D01*
X2587857Y-23868571D01*
X3587857Y-24392380D02*
X3587857Y-23725714D01*
X3587857Y-23916190D02*
X3635476Y-23820952D01*
X3683095Y-23773333D01*
X3778333Y-23725714D01*
X3873571Y-23725714D01*
X4635476Y-24392380D02*
X4635476Y-23868571D01*
X4587857Y-23773333D01*
X4492619Y-23725714D01*
X4302142Y-23725714D01*
X4206904Y-23773333D01*
X4635476Y-24344761D02*
X4540238Y-24392380D01*
X4302142Y-24392380D01*
X4206904Y-24344761D01*
X4159285Y-24249523D01*
X4159285Y-24154285D01*
X4206904Y-24059047D01*
X4302142Y-24011428D01*
X4540238Y-24011428D01*
X4635476Y-23963809D01*
X5111666Y-24392380D02*
X5111666Y-23392380D01*
X5206904Y-24011428D02*
X5492619Y-24392380D01*
X5492619Y-23725714D02*
X5111666Y-24106666D01*
X6302142Y-24344761D02*
X6206904Y-24392380D01*
X6016428Y-24392380D01*
X5921190Y-24344761D01*
X5873571Y-24249523D01*
X5873571Y-23868571D01*
X5921190Y-23773333D01*
X6016428Y-23725714D01*
X6206904Y-23725714D01*
X6302142Y-23773333D01*
X6349761Y-23868571D01*
X6349761Y-23963809D01*
X5873571Y-24059047D01*
X1445000Y-26042380D02*
X1445000Y-25042380D01*
X1825952Y-25042380D01*
X1921190Y-25090000D01*
X1968809Y-25137619D01*
X2016428Y-25232857D01*
X2016428Y-25375714D01*
X1968809Y-25470952D01*
X1921190Y-25518571D01*
X1825952Y-25566190D01*
X1445000Y-25566190D01*
X2445000Y-26042380D02*
X2445000Y-25375714D01*
X2445000Y-25566190D02*
X2492619Y-25470952D01*
X2540238Y-25423333D01*
X2635476Y-25375714D01*
X2730714Y-25375714D01*
X3445000Y-25994761D02*
X3349761Y-26042380D01*
X3159285Y-26042380D01*
X3064047Y-25994761D01*
X3016428Y-25899523D01*
X3016428Y-25518571D01*
X3064047Y-25423333D01*
X3159285Y-25375714D01*
X3349761Y-25375714D01*
X3445000Y-25423333D01*
X3492619Y-25518571D01*
X3492619Y-25613809D01*
X3016428Y-25709047D01*
X3873571Y-25994761D02*
X3968809Y-26042380D01*
X4159285Y-26042380D01*
X4254523Y-25994761D01*
X4302142Y-25899523D01*
X4302142Y-25851904D01*
X4254523Y-25756666D01*
X4159285Y-25709047D01*
X4016428Y-25709047D01*
X3921190Y-25661428D01*
X3873571Y-25566190D01*
X3873571Y-25518571D01*
X3921190Y-25423333D01*
X4016428Y-25375714D01*
X4159285Y-25375714D01*
X4254523Y-25423333D01*
X4683095Y-25994761D02*
X4778333Y-26042380D01*
X4968809Y-26042380D01*
X5064047Y-25994761D01*
X5111666Y-25899523D01*
X5111666Y-25851904D01*
X5064047Y-25756666D01*
X4968809Y-25709047D01*
X4825952Y-25709047D01*
X4730714Y-25661428D01*
X4683095Y-25566190D01*
X4683095Y-25518571D01*
X4730714Y-25423333D01*
X4825952Y-25375714D01*
X4968809Y-25375714D01*
X5064047Y-25423333D01*
X5968809Y-25375714D02*
X5968809Y-26042380D01*
X5540238Y-25375714D02*
X5540238Y-25899523D01*
X5587857Y-25994761D01*
X5683095Y-26042380D01*
X5825952Y-26042380D01*
X5921190Y-25994761D01*
X5968809Y-25947142D01*
X6445000Y-26042380D02*
X6445000Y-25375714D01*
X6445000Y-25566190D02*
X6492619Y-25470952D01*
X6540238Y-25423333D01*
X6635476Y-25375714D01*
X6730714Y-25375714D01*
X7445000Y-25994761D02*
X7349761Y-26042380D01*
X7159285Y-26042380D01*
X7064047Y-25994761D01*
X7016428Y-25899523D01*
X7016428Y-25518571D01*
X7064047Y-25423333D01*
X7159285Y-25375714D01*
X7349761Y-25375714D01*
X7445000Y-25423333D01*
X7492619Y-25518571D01*
X7492619Y-25613809D01*
X7016428Y-25709047D01*
X8731428Y-25027380D02*
X8731428Y-24027380D01*
X8731428Y-24503571D02*
X9302857Y-24503571D01*
X9302857Y-25027380D02*
X9302857Y-24027380D01*
X9779047Y-25027380D02*
X9779047Y-24360714D01*
X9779047Y-24027380D02*
X9731428Y-24075000D01*
X9779047Y-24122619D01*
X9826666Y-24075000D01*
X9779047Y-24027380D01*
X9779047Y-24122619D01*
X10683809Y-24360714D02*
X10683809Y-25170238D01*
X10636190Y-25265476D01*
X10588571Y-25313095D01*
X10493333Y-25360714D01*
X10350476Y-25360714D01*
X10255238Y-25313095D01*
X10683809Y-24979761D02*
X10588571Y-25027380D01*
X10398095Y-25027380D01*
X10302857Y-24979761D01*
X10255238Y-24932142D01*
X10207619Y-24836904D01*
X10207619Y-24551190D01*
X10255238Y-24455952D01*
X10302857Y-24408333D01*
X10398095Y-24360714D01*
X10588571Y-24360714D01*
X10683809Y-24408333D01*
X11160000Y-25027380D02*
X11160000Y-24027380D01*
X11588571Y-25027380D02*
X11588571Y-24503571D01*
X11540952Y-24408333D01*
X11445714Y-24360714D01*
X11302857Y-24360714D01*
X11207619Y-24408333D01*
X11160000Y-24455952D01*
X9493333Y-26677380D02*
X9017142Y-26677380D01*
X9017142Y-25677380D01*
X9969523Y-26677380D02*
X9874285Y-26629761D01*
X9826666Y-26582142D01*
X9779047Y-26486904D01*
X9779047Y-26201190D01*
X9826666Y-26105952D01*
X9874285Y-26058333D01*
X9969523Y-26010714D01*
X10112380Y-26010714D01*
X10207619Y-26058333D01*
X10255238Y-26105952D01*
X10302857Y-26201190D01*
X10302857Y-26486904D01*
X10255238Y-26582142D01*
X10207619Y-26629761D01*
X10112380Y-26677380D01*
X9969523Y-26677380D01*
X10636190Y-26010714D02*
X10826666Y-26677380D01*
X11017142Y-26201190D01*
X11207619Y-26677380D01*
X11398095Y-26010714D01*
X8731428Y-9787380D02*
X8731428Y-8787380D01*
X8731428Y-9263571D02*
X9302857Y-9263571D01*
X9302857Y-9787380D02*
X9302857Y-8787380D01*
X9779047Y-9787380D02*
X9779047Y-9120714D01*
X9779047Y-8787380D02*
X9731428Y-8835000D01*
X9779047Y-8882619D01*
X9826666Y-8835000D01*
X9779047Y-8787380D01*
X9779047Y-8882619D01*
X10683809Y-9120714D02*
X10683809Y-9930238D01*
X10636190Y-10025476D01*
X10588571Y-10073095D01*
X10493333Y-10120714D01*
X10350476Y-10120714D01*
X10255238Y-10073095D01*
X10683809Y-9739761D02*
X10588571Y-9787380D01*
X10398095Y-9787380D01*
X10302857Y-9739761D01*
X10255238Y-9692142D01*
X10207619Y-9596904D01*
X10207619Y-9311190D01*
X10255238Y-9215952D01*
X10302857Y-9168333D01*
X10398095Y-9120714D01*
X10588571Y-9120714D01*
X10683809Y-9168333D01*
X11160000Y-9787380D02*
X11160000Y-8787380D01*
X11588571Y-9787380D02*
X11588571Y-9263571D01*
X11540952Y-9168333D01*
X11445714Y-9120714D01*
X11302857Y-9120714D01*
X11207619Y-9168333D01*
X11160000Y-9215952D01*
X9493333Y-11437380D02*
X9017142Y-11437380D01*
X9017142Y-10437380D01*
X9969523Y-11437380D02*
X9874285Y-11389761D01*
X9826666Y-11342142D01*
X9779047Y-11246904D01*
X9779047Y-10961190D01*
X9826666Y-10865952D01*
X9874285Y-10818333D01*
X9969523Y-10770714D01*
X10112380Y-10770714D01*
X10207619Y-10818333D01*
X10255238Y-10865952D01*
X10302857Y-10961190D01*
X10302857Y-11246904D01*
X10255238Y-11342142D01*
X10207619Y-11389761D01*
X10112380Y-11437380D01*
X9969523Y-11437380D01*
X10636190Y-10770714D02*
X10826666Y-11437380D01*
X11017142Y-10961190D01*
X11207619Y-11437380D01*
X11398095Y-10770714D01*
X2516428Y-10517142D02*
X2468809Y-10564761D01*
X2325952Y-10612380D01*
X2230714Y-10612380D01*
X2087857Y-10564761D01*
X1992619Y-10469523D01*
X1945000Y-10374285D01*
X1897380Y-10183809D01*
X1897380Y-10040952D01*
X1945000Y-9850476D01*
X1992619Y-9755238D01*
X2087857Y-9660000D01*
X2230714Y-9612380D01*
X2325952Y-9612380D01*
X2468809Y-9660000D01*
X2516428Y-9707619D01*
X3373571Y-9945714D02*
X3373571Y-10612380D01*
X2945000Y-9945714D02*
X2945000Y-10469523D01*
X2992619Y-10564761D01*
X3087857Y-10612380D01*
X3230714Y-10612380D01*
X3325952Y-10564761D01*
X3373571Y-10517142D01*
X3849761Y-10612380D02*
X3849761Y-9945714D01*
X3849761Y-10136190D02*
X3897380Y-10040952D01*
X3945000Y-9993333D01*
X4040238Y-9945714D01*
X4135476Y-9945714D01*
X4468809Y-10612380D02*
X4468809Y-9945714D01*
X4468809Y-10136190D02*
X4516428Y-10040952D01*
X4564047Y-9993333D01*
X4659285Y-9945714D01*
X4754523Y-9945714D01*
X5468809Y-10564761D02*
X5373571Y-10612380D01*
X5183095Y-10612380D01*
X5087857Y-10564761D01*
X5040238Y-10469523D01*
X5040238Y-10088571D01*
X5087857Y-9993333D01*
X5183095Y-9945714D01*
X5373571Y-9945714D01*
X5468809Y-9993333D01*
X5516428Y-10088571D01*
X5516428Y-10183809D01*
X5040238Y-10279047D01*
X5945000Y-9945714D02*
X5945000Y-10612380D01*
X5945000Y-10040952D02*
X5992619Y-9993333D01*
X6087857Y-9945714D01*
X6230714Y-9945714D01*
X6325952Y-9993333D01*
X6373571Y-10088571D01*
X6373571Y-10612380D01*
X6706904Y-9945714D02*
X7087857Y-9945714D01*
X6849761Y-9612380D02*
X6849761Y-10469523D01*
X6897380Y-10564761D01*
X6992619Y-10612380D01*
X7087857Y-10612380D01*
X93569404Y-18615000D02*
X93474166Y-18567380D01*
X93331309Y-18567380D01*
X93188452Y-18615000D01*
X93093214Y-18710238D01*
X93045595Y-18805476D01*
X92997976Y-18995952D01*
X92997976Y-19138809D01*
X93045595Y-19329285D01*
X93093214Y-19424523D01*
X93188452Y-19519761D01*
X93331309Y-19567380D01*
X93426547Y-19567380D01*
X93569404Y-19519761D01*
X93617023Y-19472142D01*
X93617023Y-19138809D01*
X93426547Y-19138809D01*
X94045595Y-19567380D02*
X94045595Y-18567380D01*
X94617023Y-19567380D01*
X94617023Y-18567380D01*
X95093214Y-19567380D02*
X95093214Y-18567380D01*
X95331309Y-18567380D01*
X95474166Y-18615000D01*
X95569404Y-18710238D01*
X95617023Y-18805476D01*
X95664642Y-18995952D01*
X95664642Y-19138809D01*
X95617023Y-19329285D01*
X95569404Y-19424523D01*
X95474166Y-19519761D01*
X95331309Y-19567380D01*
X95093214Y-19567380D01*
X93569404Y-20265000D02*
X93474166Y-20217380D01*
X93331309Y-20217380D01*
X93188452Y-20265000D01*
X93093214Y-20360238D01*
X93045595Y-20455476D01*
X92997976Y-20645952D01*
X92997976Y-20788809D01*
X93045595Y-20979285D01*
X93093214Y-21074523D01*
X93188452Y-21169761D01*
X93331309Y-21217380D01*
X93426547Y-21217380D01*
X93569404Y-21169761D01*
X93617023Y-21122142D01*
X93617023Y-20788809D01*
X93426547Y-20788809D01*
X94045595Y-21217380D02*
X94045595Y-20217380D01*
X94617023Y-21217380D01*
X94617023Y-20217380D01*
X95093214Y-21217380D02*
X95093214Y-20217380D01*
X95331309Y-20217380D01*
X95474166Y-20265000D01*
X95569404Y-20360238D01*
X95617023Y-20455476D01*
X95664642Y-20645952D01*
X95664642Y-20788809D01*
X95617023Y-20979285D01*
X95569404Y-21074523D01*
X95474166Y-21169761D01*
X95331309Y-21217380D01*
X95093214Y-21217380D01*
X93569404Y-21915000D02*
X93474166Y-21867380D01*
X93331309Y-21867380D01*
X93188452Y-21915000D01*
X93093214Y-22010238D01*
X93045595Y-22105476D01*
X92997976Y-22295952D01*
X92997976Y-22438809D01*
X93045595Y-22629285D01*
X93093214Y-22724523D01*
X93188452Y-22819761D01*
X93331309Y-22867380D01*
X93426547Y-22867380D01*
X93569404Y-22819761D01*
X93617023Y-22772142D01*
X93617023Y-22438809D01*
X93426547Y-22438809D01*
X94045595Y-22867380D02*
X94045595Y-21867380D01*
X94617023Y-22867380D01*
X94617023Y-21867380D01*
X95093214Y-22867380D02*
X95093214Y-21867380D01*
X95331309Y-21867380D01*
X95474166Y-21915000D01*
X95569404Y-22010238D01*
X95617023Y-22105476D01*
X95664642Y-22295952D01*
X95664642Y-22438809D01*
X95617023Y-22629285D01*
X95569404Y-22724523D01*
X95474166Y-22819761D01*
X95331309Y-22867380D01*
X95093214Y-22867380D01*
X93521785Y-23517380D02*
X93045595Y-23517380D01*
X92997976Y-23993571D01*
X93045595Y-23945952D01*
X93140833Y-23898333D01*
X93378928Y-23898333D01*
X93474166Y-23945952D01*
X93521785Y-23993571D01*
X93569404Y-24088809D01*
X93569404Y-24326904D01*
X93521785Y-24422142D01*
X93474166Y-24469761D01*
X93378928Y-24517380D01*
X93140833Y-24517380D01*
X93045595Y-24469761D01*
X92997976Y-24422142D01*
X93855119Y-23517380D02*
X94188452Y-24517380D01*
X94521785Y-23517380D01*
X89977500Y-19567380D02*
X89406071Y-19567380D01*
X89691785Y-19567380D02*
X89691785Y-18567380D01*
X89596547Y-18710238D01*
X89501309Y-18805476D01*
X89406071Y-18853095D01*
X90358452Y-18662619D02*
X90406071Y-18615000D01*
X90501309Y-18567380D01*
X90739404Y-18567380D01*
X90834642Y-18615000D01*
X90882261Y-18662619D01*
X90929880Y-18757857D01*
X90929880Y-18853095D01*
X90882261Y-18995952D01*
X90310833Y-19567380D01*
X90929880Y-19567380D01*
X91215595Y-18567380D02*
X91548928Y-19567380D01*
X91882261Y-18567380D01*
X88739404Y-21122142D02*
X88691785Y-21169761D01*
X88548928Y-21217380D01*
X88453690Y-21217380D01*
X88310833Y-21169761D01*
X88215595Y-21074523D01*
X88167976Y-20979285D01*
X88120357Y-20788809D01*
X88120357Y-20645952D01*
X88167976Y-20455476D01*
X88215595Y-20360238D01*
X88310833Y-20265000D01*
X88453690Y-20217380D01*
X88548928Y-20217380D01*
X88691785Y-20265000D01*
X88739404Y-20312619D01*
X89167976Y-20217380D02*
X89167976Y-21026904D01*
X89215595Y-21122142D01*
X89263214Y-21169761D01*
X89358452Y-21217380D01*
X89548928Y-21217380D01*
X89644166Y-21169761D01*
X89691785Y-21122142D01*
X89739404Y-21026904D01*
X89739404Y-20217380D01*
X90787023Y-21217380D02*
X90453690Y-20741190D01*
X90215595Y-21217380D02*
X90215595Y-20217380D01*
X90596547Y-20217380D01*
X90691785Y-20265000D01*
X90739404Y-20312619D01*
X90787023Y-20407857D01*
X90787023Y-20550714D01*
X90739404Y-20645952D01*
X90691785Y-20693571D01*
X90596547Y-20741190D01*
X90215595Y-20741190D01*
X91787023Y-21217380D02*
X91453690Y-20741190D01*
X91215595Y-21217380D02*
X91215595Y-20217380D01*
X91596547Y-20217380D01*
X91691785Y-20265000D01*
X91739404Y-20312619D01*
X91787023Y-20407857D01*
X91787023Y-20550714D01*
X91739404Y-20645952D01*
X91691785Y-20693571D01*
X91596547Y-20741190D01*
X91215595Y-20741190D01*
X88358452Y-22867380D02*
X88358452Y-21867380D01*
X88739404Y-21867380D01*
X88834642Y-21915000D01*
X88882261Y-21962619D01*
X88929880Y-22057857D01*
X88929880Y-22200714D01*
X88882261Y-22295952D01*
X88834642Y-22343571D01*
X88739404Y-22391190D01*
X88358452Y-22391190D01*
X89929880Y-22867380D02*
X89596547Y-22391190D01*
X89358452Y-22867380D02*
X89358452Y-21867380D01*
X89739404Y-21867380D01*
X89834642Y-21915000D01*
X89882261Y-21962619D01*
X89929880Y-22057857D01*
X89929880Y-22200714D01*
X89882261Y-22295952D01*
X89834642Y-22343571D01*
X89739404Y-22391190D01*
X89358452Y-22391190D01*
X90358452Y-22343571D02*
X90691785Y-22343571D01*
X90834642Y-22867380D02*
X90358452Y-22867380D01*
X90358452Y-21867380D01*
X90834642Y-21867380D01*
X91215595Y-22819761D02*
X91358452Y-22867380D01*
X91596547Y-22867380D01*
X91691785Y-22819761D01*
X91739404Y-22772142D01*
X91787023Y-22676904D01*
X91787023Y-22581666D01*
X91739404Y-22486428D01*
X91691785Y-22438809D01*
X91596547Y-22391190D01*
X91406071Y-22343571D01*
X91310833Y-22295952D01*
X91263214Y-22248333D01*
X91215595Y-22153095D01*
X91215595Y-22057857D01*
X91263214Y-21962619D01*
X91310833Y-21915000D01*
X91406071Y-21867380D01*
X91644166Y-21867380D01*
X91787023Y-21915000D01*
X90882261Y-23517380D02*
X90406071Y-23517380D01*
X90358452Y-23993571D01*
X90406071Y-23945952D01*
X90501309Y-23898333D01*
X90739404Y-23898333D01*
X90834642Y-23945952D01*
X90882261Y-23993571D01*
X90929880Y-24088809D01*
X90929880Y-24326904D01*
X90882261Y-24422142D01*
X90834642Y-24469761D01*
X90739404Y-24517380D01*
X90501309Y-24517380D01*
X90406071Y-24469761D01*
X90358452Y-24422142D01*
X91215595Y-23517380D02*
X91548928Y-24517380D01*
X91882261Y-23517380D01*
X90035238Y-11803571D02*
X90178095Y-11851190D01*
X90225714Y-11898809D01*
X90273333Y-11994047D01*
X90273333Y-12136904D01*
X90225714Y-12232142D01*
X90178095Y-12279761D01*
X90082857Y-12327380D01*
X89701904Y-12327380D01*
X89701904Y-11327380D01*
X90035238Y-11327380D01*
X90130476Y-11375000D01*
X90178095Y-11422619D01*
X90225714Y-11517857D01*
X90225714Y-11613095D01*
X90178095Y-11708333D01*
X90130476Y-11755952D01*
X90035238Y-11803571D01*
X89701904Y-11803571D01*
X90654285Y-12279761D02*
X90797142Y-12327380D01*
X91035238Y-12327380D01*
X91130476Y-12279761D01*
X91178095Y-12232142D01*
X91225714Y-12136904D01*
X91225714Y-12041666D01*
X91178095Y-11946428D01*
X91130476Y-11898809D01*
X91035238Y-11851190D01*
X90844761Y-11803571D01*
X90749523Y-11755952D01*
X90701904Y-11708333D01*
X90654285Y-11613095D01*
X90654285Y-11517857D01*
X90701904Y-11422619D01*
X90749523Y-11375000D01*
X90844761Y-11327380D01*
X91082857Y-11327380D01*
X91225714Y-11375000D01*
X91654285Y-12327380D02*
X91654285Y-11327380D01*
X92035238Y-11327380D01*
X92130476Y-11375000D01*
X92178095Y-11422619D01*
X92225714Y-11517857D01*
X92225714Y-11660714D01*
X92178095Y-11755952D01*
X92130476Y-11803571D01*
X92035238Y-11851190D01*
X91654285Y-11851190D01*
X92654285Y-12327380D02*
X92654285Y-11327380D01*
X92892380Y-11327380D01*
X93035238Y-11375000D01*
X93130476Y-11470238D01*
X93178095Y-11565476D01*
X93225714Y-11755952D01*
X93225714Y-11898809D01*
X93178095Y-12089285D01*
X93130476Y-12184523D01*
X93035238Y-12279761D01*
X92892380Y-12327380D01*
X92654285Y-12327380D01*
X90130476Y-13977380D02*
X89797142Y-13501190D01*
X89559047Y-13977380D02*
X89559047Y-12977380D01*
X89940000Y-12977380D01*
X90035238Y-13025000D01*
X90082857Y-13072619D01*
X90130476Y-13167857D01*
X90130476Y-13310714D01*
X90082857Y-13405952D01*
X90035238Y-13453571D01*
X89940000Y-13501190D01*
X89559047Y-13501190D01*
X90940000Y-13929761D02*
X90844761Y-13977380D01*
X90654285Y-13977380D01*
X90559047Y-13929761D01*
X90511428Y-13834523D01*
X90511428Y-13453571D01*
X90559047Y-13358333D01*
X90654285Y-13310714D01*
X90844761Y-13310714D01*
X90940000Y-13358333D01*
X90987619Y-13453571D01*
X90987619Y-13548809D01*
X90511428Y-13644047D01*
X91320952Y-13310714D02*
X91559047Y-13977380D01*
X91797142Y-13310714D01*
X92892380Y-13691666D02*
X93368571Y-13691666D01*
X92797142Y-13977380D02*
X93130476Y-12977380D01*
X93463809Y-13977380D01*
D11*
X0Y0D02*
X96520000Y0D01*
X0Y-35560000D02*
X0Y0D01*
X96520000Y-35560000D02*
X0Y-35560000D01*
X96520000Y-35560000D02*
X96520000Y0D01*
D12*
X37790000Y-30605000D02*
X38720000Y-30605000D01*
X40950000Y-30605000D02*
X40020000Y-30605000D01*
X40950000Y-30605000D02*
X40950000Y-27445000D01*
X37790000Y-30605000D02*
X37790000Y-29145000D01*
X36830000Y-15885000D02*
X34880000Y-15885000D01*
X36830000Y-15885000D02*
X38780000Y-15885000D01*
X36830000Y-24755000D02*
X34880000Y-24755000D01*
X36830000Y-24755000D02*
X40280000Y-24755000D01*
X85725000Y-25630000D02*
X85725000Y-24860000D01*
X85725000Y-17550000D02*
X85725000Y-18320000D01*
X87095000Y-24860000D02*
X87095000Y-18320000D01*
X84355000Y-24860000D02*
X87095000Y-24860000D01*
X84355000Y-18320000D02*
X84355000Y-24860000D01*
X87095000Y-18320000D02*
X84355000Y-18320000D01*
X22540000Y-25400000D02*
G75*
G03X22540000Y-25400000I-950000J0D01*
G01*
X22540000Y-17780000D02*
G75*
G03X22540000Y-17780000I-950000J0D01*
G01*
X22540000Y-10160000D02*
G75*
G03X22540000Y-10160000I-950000J0D01*
G01*
X22540000Y-2540000D02*
G75*
G03X22540000Y-2540000I-950000J0D01*
G01*
X73600000Y-29270000D02*
X78800000Y-29270000D01*
X73600000Y-21590000D02*
X73600000Y-29270000D01*
X78800000Y-18990000D02*
X78800000Y-29270000D01*
X73600000Y-21590000D02*
X76200000Y-21590000D01*
X76200000Y-21590000D02*
X76200000Y-18990000D01*
X76200000Y-18990000D02*
X78800000Y-18990000D01*
X73600000Y-20320000D02*
X73600000Y-18990000D01*
X73600000Y-18990000D02*
X74930000Y-18990000D01*
D10*
X71755000Y-15240000D02*
X71755000Y-33020000D01*
X80645000Y-15240000D02*
X80645000Y-33020000D01*
X71755000Y-15240000D02*
X80645000Y-15240000D01*
X71755000Y-33020000D02*
X80645000Y-33020000D01*
D12*
X36830000Y-3185000D02*
X34880000Y-3185000D01*
X36830000Y-3185000D02*
X38780000Y-3185000D01*
X36830000Y-12055000D02*
X34880000Y-12055000D01*
X36830000Y-12055000D02*
X40280000Y-12055000D01*
X33980000Y-30605000D02*
X34910000Y-30605000D01*
X37140000Y-30605000D02*
X36210000Y-30605000D01*
X37140000Y-30605000D02*
X37140000Y-27445000D01*
X33980000Y-30605000D02*
X33980000Y-29145000D01*
X56470000Y-21970000D02*
X56470000Y-18670000D01*
X56470000Y-18670000D02*
X49570000Y-18670000D01*
X56470000Y-21970000D02*
X49570000Y-21970000D01*
X50160000Y-4210000D02*
X50160000Y-5470000D01*
X50160000Y-11030000D02*
X50160000Y-9770000D01*
X53920000Y-4210000D02*
X50160000Y-4210000D01*
X56170000Y-11030000D02*
X50160000Y-11030000D01*
X13090000Y-26690000D02*
X32330000Y-26690000D01*
X13090000Y-31730000D02*
X32330000Y-31730000D01*
X13090000Y-26690000D02*
X13090000Y-31730000D01*
X32330000Y-26690000D02*
X32330000Y-31730000D01*
X11570000Y-27910000D02*
X13089000Y-27910000D01*
X11570000Y-30510000D02*
X13089000Y-30510000D01*
X11570000Y-27910000D02*
X11570000Y-30510000D01*
X13089000Y-27910000D02*
X13089000Y-30510000D01*
X11570000Y-29210000D02*
X12329000Y-29210000D01*
X13090000Y-19070000D02*
X32330000Y-19070000D01*
X13090000Y-24110000D02*
X32330000Y-24110000D01*
X13090000Y-19070000D02*
X13090000Y-24110000D01*
X32330000Y-19070000D02*
X32330000Y-24110000D01*
X11570000Y-20290000D02*
X13089000Y-20290000D01*
X11570000Y-22890000D02*
X13089000Y-22890000D01*
X11570000Y-20290000D02*
X11570000Y-22890000D01*
X13089000Y-20290000D02*
X13089000Y-22890000D01*
X11570000Y-21590000D02*
X12329000Y-21590000D01*
X13090000Y-11450000D02*
X32330000Y-11450000D01*
X13090000Y-16490000D02*
X32330000Y-16490000D01*
X13090000Y-11450000D02*
X13090000Y-16490000D01*
X32330000Y-11450000D02*
X32330000Y-16490000D01*
X11570000Y-12670000D02*
X13089000Y-12670000D01*
X11570000Y-15270000D02*
X13089000Y-15270000D01*
X11570000Y-12670000D02*
X11570000Y-15270000D01*
X13089000Y-12670000D02*
X13089000Y-15270000D01*
X11570000Y-13970000D02*
X12329000Y-13970000D01*
X13090000Y-3830000D02*
X32330000Y-3830000D01*
X13090000Y-8870000D02*
X32330000Y-8870000D01*
X13090000Y-3830000D02*
X13090000Y-8870000D01*
X32330000Y-3830000D02*
X32330000Y-8870000D01*
X11570000Y-5050000D02*
X13089000Y-5050000D01*
X11570000Y-7650000D02*
X13089000Y-7650000D01*
X11570000Y-5050000D02*
X11570000Y-7650000D01*
X13089000Y-5050000D02*
X13089000Y-7650000D01*
X11570000Y-6350000D02*
X12329000Y-6350000D01*
X44711252Y-28650000D02*
X44188748Y-28650000D01*
X44711252Y-27230000D02*
X44188748Y-27230000D01*
X44711252Y-26110000D02*
X44188748Y-26110000D01*
X44711252Y-24690000D02*
X44188748Y-24690000D01*
X44711252Y-8330000D02*
X44188748Y-8330000D01*
X44711252Y-6910000D02*
X44188748Y-6910000D01*
X44711252Y-23570000D02*
X44188748Y-23570000D01*
X44711252Y-22150000D02*
X44188748Y-22150000D01*
X44711252Y-19610000D02*
X44188748Y-19610000D01*
X44711252Y-21030000D02*
X44188748Y-21030000D01*
X44711252Y-13410000D02*
X44188748Y-13410000D01*
X44711252Y-11990000D02*
X44188748Y-11990000D01*
X44711252Y-10870000D02*
X44188748Y-10870000D01*
X44711252Y-9450000D02*
X44188748Y-9450000D01*
X44188748Y-17070000D02*
X44711252Y-17070000D01*
X44188748Y-18490000D02*
X44711252Y-18490000D01*
X44711252Y-15950000D02*
X44188748Y-15950000D01*
X44711252Y-14530000D02*
X44188748Y-14530000D01*
X21216252Y-31190000D02*
X20693748Y-31190000D01*
X21216252Y-29770000D02*
X20693748Y-29770000D01*
X25026252Y-31190000D02*
X24503748Y-31190000D01*
X25026252Y-29770000D02*
X24503748Y-29770000D01*
X21216252Y-23570000D02*
X20693748Y-23570000D01*
X21216252Y-22150000D02*
X20693748Y-22150000D01*
X25026252Y-23570000D02*
X24503748Y-23570000D01*
X25026252Y-22150000D02*
X24503748Y-22150000D01*
X21216252Y-15950000D02*
X20693748Y-15950000D01*
X21216252Y-14530000D02*
X20693748Y-14530000D01*
X25026252Y-15950000D02*
X24503748Y-15950000D01*
X25026252Y-14530000D02*
X24503748Y-14530000D01*
X21216252Y-6910000D02*
X20693748Y-6910000D01*
X21216252Y-8330000D02*
X20693748Y-8330000D01*
X25026252Y-6910000D02*
X24503748Y-6910000D01*
X25026252Y-8330000D02*
X24503748Y-8330000D01*
X70310000Y-32595000D02*
X70310000Y-31095000D01*
X68810000Y-32595000D02*
X70310000Y-32595000D01*
X60960000Y-26035000D02*
X59690000Y-26035000D01*
X59690000Y-26035000D02*
X59690000Y-27305000D01*
X67310000Y-27305000D02*
X67310000Y-26035000D01*
X67310000Y-26035000D02*
X66040000Y-26035000D01*
X66040000Y-26035000D02*
X66040000Y-24765000D01*
X66040000Y-24765000D02*
X60960000Y-24765000D01*
X60960000Y-24765000D02*
X60960000Y-27305000D01*
X60960000Y-27305000D02*
X66040000Y-27305000D01*
X66040000Y-27305000D02*
X66040000Y-26035000D01*
X57010000Y-32395000D02*
X70110000Y-32395000D01*
X57010000Y-2995000D02*
X57010000Y-32395000D01*
X70110000Y-2995000D02*
X57010000Y-2995000D01*
X70110000Y-32395000D02*
X70110000Y-2995000D01*
D13*
X64770000Y-27305000D02*
X63500000Y-24765000D01*
D12*
X79326682Y-6085244D02*
G75*
G02X80010000Y-5940000I683318J-1534756D01*
G01*
X78474574Y-8303042D02*
G75*
G02X78475000Y-6936000I1535426J683042D01*
G01*
X80693042Y-9155426D02*
G75*
G02X79326000Y-9155000I-683042J1535426D01*
G01*
X81545426Y-6936958D02*
G75*
G02X81545000Y-8304000I-1535426J-683042D01*
G01*
X79981195Y-5939747D02*
G75*
G02X80694000Y-6085000I28805J-1680253D01*
G01*
X76610000Y-7620000D02*
G75*
G03X76610000Y-7620000I-1680000J0D01*
G01*
X82610000Y-3520000D02*
X72330000Y-3520000D01*
X82610000Y-5020000D02*
X72330000Y-5020000D01*
X82610000Y-9921000D02*
X72330000Y-9921000D01*
X82610000Y-12881000D02*
X72330000Y-12881000D01*
X82610000Y-2960000D02*
X72330000Y-2960000D01*
X82610000Y-12881000D02*
X82610000Y-2960000D01*
X72330000Y-12881000D02*
X72330000Y-2960000D01*
X73655000Y-8689000D02*
X73702000Y-8643000D01*
X75964000Y-6381000D02*
X75999000Y-6346000D01*
X73860000Y-8895000D02*
X73895000Y-8859000D01*
X76157000Y-6597000D02*
X76204000Y-6551000D01*
X82850000Y-3460000D02*
X82850000Y-2720000D01*
X82850000Y-2720000D02*
X82350000Y-2720000D01*
X83920000Y-18320000D02*
X81180000Y-18320000D01*
X81180000Y-18320000D02*
X81180000Y-24860000D01*
X81180000Y-24860000D02*
X83920000Y-24860000D01*
X83920000Y-24860000D02*
X83920000Y-18320000D01*
X82550000Y-17550000D02*
X82550000Y-18320000D01*
X82550000Y-25630000D02*
X82550000Y-24860000D01*
X44188748Y-29770000D02*
X44711252Y-29770000D01*
X44188748Y-31190000D02*
X44711252Y-31190000D01*
X42470000Y-4071252D02*
X42470000Y-3548748D01*
X43890000Y-4071252D02*
X43890000Y-3548748D01*
X55340000Y-27920000D02*
G75*
G03X55340000Y-27920000I-3270000J0D01*
G01*
X55300000Y-27920000D02*
X48840000Y-27920000D01*
X55300000Y-27960000D02*
X48840000Y-27960000D01*
X55300000Y-28000000D02*
X48840000Y-28000000D01*
X55298000Y-28040000D02*
X48842000Y-28040000D01*
X55297000Y-28080000D02*
X48843000Y-28080000D01*
X55294000Y-28120000D02*
X48846000Y-28120000D01*
X55292000Y-28160000D02*
X53110000Y-28160000D01*
X51030000Y-28160000D02*
X48848000Y-28160000D01*
X55288000Y-28200000D02*
X53110000Y-28200000D01*
X51030000Y-28200000D02*
X48852000Y-28200000D01*
X55285000Y-28240000D02*
X53110000Y-28240000D01*
X51030000Y-28240000D02*
X48855000Y-28240000D01*
X55281000Y-28280000D02*
X53110000Y-28280000D01*
X51030000Y-28280000D02*
X48859000Y-28280000D01*
X55276000Y-28320000D02*
X53110000Y-28320000D01*
X51030000Y-28320000D02*
X48864000Y-28320000D01*
X55271000Y-28360000D02*
X53110000Y-28360000D01*
X51030000Y-28360000D02*
X48869000Y-28360000D01*
X55265000Y-28400000D02*
X53110000Y-28400000D01*
X51030000Y-28400000D02*
X48875000Y-28400000D01*
X55259000Y-28440000D02*
X53110000Y-28440000D01*
X51030000Y-28440000D02*
X48881000Y-28440000D01*
X55252000Y-28480000D02*
X53110000Y-28480000D01*
X51030000Y-28480000D02*
X48888000Y-28480000D01*
X55245000Y-28520000D02*
X53110000Y-28520000D01*
X51030000Y-28520000D02*
X48895000Y-28520000D01*
X55237000Y-28560000D02*
X53110000Y-28560000D01*
X51030000Y-28560000D02*
X48903000Y-28560000D01*
X55229000Y-28600000D02*
X53110000Y-28600000D01*
X51030000Y-28600000D02*
X48911000Y-28600000D01*
X55220000Y-28641000D02*
X53110000Y-28641000D01*
X51030000Y-28641000D02*
X48920000Y-28641000D01*
X55211000Y-28681000D02*
X53110000Y-28681000D01*
X51030000Y-28681000D02*
X48929000Y-28681000D01*
X55201000Y-28721000D02*
X53110000Y-28721000D01*
X51030000Y-28721000D02*
X48939000Y-28721000D01*
X55191000Y-28761000D02*
X53110000Y-28761000D01*
X51030000Y-28761000D02*
X48949000Y-28761000D01*
X55180000Y-28801000D02*
X53110000Y-28801000D01*
X51030000Y-28801000D02*
X48960000Y-28801000D01*
X55168000Y-28841000D02*
X53110000Y-28841000D01*
X51030000Y-28841000D02*
X48972000Y-28841000D01*
X55156000Y-28881000D02*
X53110000Y-28881000D01*
X51030000Y-28881000D02*
X48984000Y-28881000D01*
X55144000Y-28921000D02*
X53110000Y-28921000D01*
X51030000Y-28921000D02*
X48996000Y-28921000D01*
X55131000Y-28961000D02*
X53110000Y-28961000D01*
X51030000Y-28961000D02*
X49009000Y-28961000D01*
X55117000Y-29001000D02*
X53110000Y-29001000D01*
X51030000Y-29001000D02*
X49023000Y-29001000D01*
X55103000Y-29041000D02*
X53110000Y-29041000D01*
X51030000Y-29041000D02*
X49037000Y-29041000D01*
X55088000Y-29081000D02*
X53110000Y-29081000D01*
X51030000Y-29081000D02*
X49052000Y-29081000D01*
X55072000Y-29121000D02*
X53110000Y-29121000D01*
X51030000Y-29121000D02*
X49068000Y-29121000D01*
X55056000Y-29161000D02*
X53110000Y-29161000D01*
X51030000Y-29161000D02*
X49084000Y-29161000D01*
X55040000Y-29201000D02*
X53110000Y-29201000D01*
X51030000Y-29201000D02*
X49100000Y-29201000D01*
X55022000Y-29241000D02*
X53110000Y-29241000D01*
X51030000Y-29241000D02*
X49118000Y-29241000D01*
X55004000Y-29281000D02*
X53110000Y-29281000D01*
X51030000Y-29281000D02*
X49136000Y-29281000D01*
X54986000Y-29321000D02*
X53110000Y-29321000D01*
X51030000Y-29321000D02*
X49154000Y-29321000D01*
X54966000Y-29361000D02*
X53110000Y-29361000D01*
X51030000Y-29361000D02*
X49174000Y-29361000D01*
X54946000Y-29401000D02*
X53110000Y-29401000D01*
X51030000Y-29401000D02*
X49194000Y-29401000D01*
X54926000Y-29441000D02*
X53110000Y-29441000D01*
X51030000Y-29441000D02*
X49214000Y-29441000D01*
X54904000Y-29481000D02*
X53110000Y-29481000D01*
X51030000Y-29481000D02*
X49236000Y-29481000D01*
X54882000Y-29521000D02*
X53110000Y-29521000D01*
X51030000Y-29521000D02*
X49258000Y-29521000D01*
X54860000Y-29561000D02*
X53110000Y-29561000D01*
X51030000Y-29561000D02*
X49280000Y-29561000D01*
X54836000Y-29601000D02*
X53110000Y-29601000D01*
X51030000Y-29601000D02*
X49304000Y-29601000D01*
X54812000Y-29641000D02*
X53110000Y-29641000D01*
X51030000Y-29641000D02*
X49328000Y-29641000D01*
X54786000Y-29681000D02*
X53110000Y-29681000D01*
X51030000Y-29681000D02*
X49354000Y-29681000D01*
X54760000Y-29721000D02*
X53110000Y-29721000D01*
X51030000Y-29721000D02*
X49380000Y-29721000D01*
X54734000Y-29761000D02*
X53110000Y-29761000D01*
X51030000Y-29761000D02*
X49406000Y-29761000D01*
X54706000Y-29801000D02*
X53110000Y-29801000D01*
X51030000Y-29801000D02*
X49434000Y-29801000D01*
X54677000Y-29841000D02*
X53110000Y-29841000D01*
X51030000Y-29841000D02*
X49463000Y-29841000D01*
X54648000Y-29881000D02*
X53110000Y-29881000D01*
X51030000Y-29881000D02*
X49492000Y-29881000D01*
X54618000Y-29921000D02*
X53110000Y-29921000D01*
X51030000Y-29921000D02*
X49522000Y-29921000D01*
X54586000Y-29961000D02*
X53110000Y-29961000D01*
X51030000Y-29961000D02*
X49554000Y-29961000D01*
X54554000Y-30001000D02*
X53110000Y-30001000D01*
X51030000Y-30001000D02*
X49586000Y-30001000D01*
X54520000Y-30041000D02*
X53110000Y-30041000D01*
X51030000Y-30041000D02*
X49620000Y-30041000D01*
X54486000Y-30081000D02*
X53110000Y-30081000D01*
X51030000Y-30081000D02*
X49654000Y-30081000D01*
X54450000Y-30121000D02*
X53110000Y-30121000D01*
X51030000Y-30121000D02*
X49690000Y-30121000D01*
X54413000Y-30161000D02*
X53110000Y-30161000D01*
X51030000Y-30161000D02*
X49727000Y-30161000D01*
X54375000Y-30201000D02*
X53110000Y-30201000D01*
X51030000Y-30201000D02*
X49765000Y-30201000D01*
X54335000Y-30241000D02*
X49805000Y-30241000D01*
X54294000Y-30281000D02*
X49846000Y-30281000D01*
X54252000Y-30321000D02*
X49888000Y-30321000D01*
X54207000Y-30361000D02*
X49933000Y-30361000D01*
X54162000Y-30401000D02*
X49978000Y-30401000D01*
X54114000Y-30441000D02*
X50026000Y-30441000D01*
X54065000Y-30481000D02*
X50075000Y-30481000D01*
X54014000Y-30521000D02*
X50126000Y-30521000D01*
X53960000Y-30561000D02*
X50180000Y-30561000D01*
X53904000Y-30601000D02*
X50236000Y-30601000D01*
X53846000Y-30641000D02*
X50294000Y-30641000D01*
X53784000Y-30681000D02*
X50356000Y-30681000D01*
X53720000Y-30721000D02*
X50420000Y-30721000D01*
X53651000Y-30761000D02*
X50489000Y-30761000D01*
X53579000Y-30801000D02*
X50561000Y-30801000D01*
X53502000Y-30841000D02*
X50638000Y-30841000D01*
X53420000Y-30881000D02*
X50720000Y-30881000D01*
X53332000Y-30921000D02*
X50808000Y-30921000D01*
X53235000Y-30961000D02*
X50905000Y-30961000D01*
X53129000Y-31001000D02*
X51011000Y-31001000D01*
X53010000Y-31041000D02*
X51130000Y-31041000D01*
X52872000Y-31081000D02*
X51268000Y-31081000D01*
X52703000Y-31121000D02*
X51437000Y-31121000D01*
X52472000Y-31161000D02*
X51668000Y-31161000D01*
X53909000Y-24419759D02*
X53909000Y-25049759D01*
X54224000Y-24734759D02*
X53594000Y-24734759D01*
X37540000Y-13708748D02*
X37540000Y-14231252D01*
X36120000Y-13708748D02*
X36120000Y-14231252D01*
X50240000Y-13708748D02*
X50240000Y-14231252D01*
X48820000Y-13708748D02*
X48820000Y-14231252D01*
X52780000Y-13708748D02*
X52780000Y-14231252D01*
X51360000Y-13708748D02*
X51360000Y-14231252D01*
D10*
X39274761Y-33821619D02*
X39179523Y-33774000D01*
X39084285Y-33678761D01*
X38941428Y-33535904D01*
X38846190Y-33488285D01*
X38750952Y-33488285D01*
X38798571Y-33726380D02*
X38703333Y-33678761D01*
X38608095Y-33583523D01*
X38560476Y-33393047D01*
X38560476Y-33059714D01*
X38608095Y-32869238D01*
X38703333Y-32774000D01*
X38798571Y-32726380D01*
X38989047Y-32726380D01*
X39084285Y-32774000D01*
X39179523Y-32869238D01*
X39227142Y-33059714D01*
X39227142Y-33393047D01*
X39179523Y-33583523D01*
X39084285Y-33678761D01*
X38989047Y-33726380D01*
X38798571Y-33726380D01*
X40179523Y-33726380D02*
X39608095Y-33726380D01*
X39893809Y-33726380D02*
X39893809Y-32726380D01*
X39798571Y-32869238D01*
X39703333Y-32964476D01*
X39608095Y-33012095D01*
X36068095Y-25106380D02*
X36068095Y-25915904D01*
X36115714Y-26011142D01*
X36163333Y-26058761D01*
X36258571Y-26106380D01*
X36449047Y-26106380D01*
X36544285Y-26058761D01*
X36591904Y-26011142D01*
X36639523Y-25915904D01*
X36639523Y-25106380D01*
X37020476Y-25106380D02*
X37639523Y-25106380D01*
X37306190Y-25487333D01*
X37449047Y-25487333D01*
X37544285Y-25534952D01*
X37591904Y-25582571D01*
X37639523Y-25677809D01*
X37639523Y-25915904D01*
X37591904Y-26011142D01*
X37544285Y-26058761D01*
X37449047Y-26106380D01*
X37163333Y-26106380D01*
X37068095Y-26058761D01*
X37020476Y-26011142D01*
X75866666Y-33488380D02*
X75866666Y-34202666D01*
X75819047Y-34345523D01*
X75723809Y-34440761D01*
X75580952Y-34488380D01*
X75485714Y-34488380D01*
X76866666Y-34488380D02*
X76295238Y-34488380D01*
X76580952Y-34488380D02*
X76580952Y-33488380D01*
X76485714Y-33631238D01*
X76390476Y-33726476D01*
X76295238Y-33774095D01*
X36068095Y-1738380D02*
X36068095Y-2547904D01*
X36115714Y-2643142D01*
X36163333Y-2690761D01*
X36258571Y-2738380D01*
X36449047Y-2738380D01*
X36544285Y-2690761D01*
X36591904Y-2643142D01*
X36639523Y-2547904D01*
X36639523Y-1738380D01*
X37068095Y-1833619D02*
X37115714Y-1786000D01*
X37210952Y-1738380D01*
X37449047Y-1738380D01*
X37544285Y-1786000D01*
X37591904Y-1833619D01*
X37639523Y-1928857D01*
X37639523Y-2024095D01*
X37591904Y-2166952D01*
X37020476Y-2738380D01*
X37639523Y-2738380D01*
X34821904Y-33726380D02*
X34821904Y-32726380D01*
X35060000Y-32726380D01*
X35202857Y-32774000D01*
X35298095Y-32869238D01*
X35345714Y-32964476D01*
X35393333Y-33154952D01*
X35393333Y-33297809D01*
X35345714Y-33488285D01*
X35298095Y-33583523D01*
X35202857Y-33678761D01*
X35060000Y-33726380D01*
X34821904Y-33726380D01*
X36345714Y-33726380D02*
X35774285Y-33726380D01*
X36060000Y-33726380D02*
X36060000Y-32726380D01*
X35964761Y-32869238D01*
X35869523Y-32964476D01*
X35774285Y-33012095D01*
X51331904Y-18232380D02*
X51331904Y-17232380D01*
X51570000Y-17232380D01*
X51712857Y-17280000D01*
X51808095Y-17375238D01*
X51855714Y-17470476D01*
X51903333Y-17660952D01*
X51903333Y-17803809D01*
X51855714Y-17994285D01*
X51808095Y-18089523D01*
X51712857Y-18184761D01*
X51570000Y-18232380D01*
X51331904Y-18232380D01*
X52284285Y-17327619D02*
X52331904Y-17280000D01*
X52427142Y-17232380D01*
X52665238Y-17232380D01*
X52760476Y-17280000D01*
X52808095Y-17327619D01*
X52855714Y-17422857D01*
X52855714Y-17518095D01*
X52808095Y-17660952D01*
X52236666Y-18232380D01*
X52855714Y-18232380D01*
X51308095Y-2627380D02*
X51308095Y-3436904D01*
X51355714Y-3532142D01*
X51403333Y-3579761D01*
X51498571Y-3627380D01*
X51689047Y-3627380D01*
X51784285Y-3579761D01*
X51831904Y-3532142D01*
X51879523Y-3436904D01*
X51879523Y-2627380D01*
X52879523Y-3627380D02*
X52308095Y-3627380D01*
X52593809Y-3627380D02*
X52593809Y-2627380D01*
X52498571Y-2770238D01*
X52403333Y-2865476D01*
X52308095Y-2913095D01*
X13882761Y-25852380D02*
X13549428Y-25376190D01*
X13311333Y-25852380D02*
X13311333Y-24852380D01*
X13692285Y-24852380D01*
X13787523Y-24900000D01*
X13835142Y-24947619D01*
X13882761Y-25042857D01*
X13882761Y-25185714D01*
X13835142Y-25280952D01*
X13787523Y-25328571D01*
X13692285Y-25376190D01*
X13311333Y-25376190D01*
X14168476Y-24852380D02*
X14501809Y-25852380D01*
X14835142Y-24852380D01*
X15597047Y-25185714D02*
X15597047Y-25852380D01*
X15358952Y-24804761D02*
X15120857Y-25519047D01*
X15739904Y-25519047D01*
X13882761Y-18392380D02*
X13549428Y-17916190D01*
X13311333Y-18392380D02*
X13311333Y-17392380D01*
X13692285Y-17392380D01*
X13787523Y-17440000D01*
X13835142Y-17487619D01*
X13882761Y-17582857D01*
X13882761Y-17725714D01*
X13835142Y-17820952D01*
X13787523Y-17868571D01*
X13692285Y-17916190D01*
X13311333Y-17916190D01*
X14168476Y-17392380D02*
X14501809Y-18392380D01*
X14835142Y-17392380D01*
X15073238Y-17392380D02*
X15692285Y-17392380D01*
X15358952Y-17773333D01*
X15501809Y-17773333D01*
X15597047Y-17820952D01*
X15644666Y-17868571D01*
X15692285Y-17963809D01*
X15692285Y-18201904D01*
X15644666Y-18297142D01*
X15597047Y-18344761D01*
X15501809Y-18392380D01*
X15216095Y-18392380D01*
X15120857Y-18344761D01*
X15073238Y-18297142D01*
X13882761Y-10612380D02*
X13549428Y-10136190D01*
X13311333Y-10612380D02*
X13311333Y-9612380D01*
X13692285Y-9612380D01*
X13787523Y-9660000D01*
X13835142Y-9707619D01*
X13882761Y-9802857D01*
X13882761Y-9945714D01*
X13835142Y-10040952D01*
X13787523Y-10088571D01*
X13692285Y-10136190D01*
X13311333Y-10136190D01*
X14168476Y-9612380D02*
X14501809Y-10612380D01*
X14835142Y-9612380D01*
X15120857Y-9707619D02*
X15168476Y-9660000D01*
X15263714Y-9612380D01*
X15501809Y-9612380D01*
X15597047Y-9660000D01*
X15644666Y-9707619D01*
X15692285Y-9802857D01*
X15692285Y-9898095D01*
X15644666Y-10040952D01*
X15073238Y-10612380D01*
X15692285Y-10612380D01*
X13882761Y-2992380D02*
X13549428Y-2516190D01*
X13311333Y-2992380D02*
X13311333Y-1992380D01*
X13692285Y-1992380D01*
X13787523Y-2040000D01*
X13835142Y-2087619D01*
X13882761Y-2182857D01*
X13882761Y-2325714D01*
X13835142Y-2420952D01*
X13787523Y-2468571D01*
X13692285Y-2516190D01*
X13311333Y-2516190D01*
X14168476Y-1992380D02*
X14501809Y-2992380D01*
X14835142Y-1992380D01*
X15692285Y-2992380D02*
X15120857Y-2992380D01*
X15406571Y-2992380D02*
X15406571Y-1992380D01*
X15311333Y-2135238D01*
X15216095Y-2230476D01*
X15120857Y-2278095D01*
X47109142Y-26614380D02*
X46775809Y-26138190D01*
X46537714Y-26614380D02*
X46537714Y-25614380D01*
X46918666Y-25614380D01*
X47013904Y-25662000D01*
X47061523Y-25709619D01*
X47109142Y-25804857D01*
X47109142Y-25947714D01*
X47061523Y-26042952D01*
X47013904Y-26090571D01*
X46918666Y-26138190D01*
X46537714Y-26138190D01*
X48061523Y-26614380D02*
X47490095Y-26614380D01*
X47775809Y-26614380D02*
X47775809Y-25614380D01*
X47680571Y-25757238D01*
X47585333Y-25852476D01*
X47490095Y-25900095D01*
X48394857Y-25614380D02*
X49061523Y-25614380D01*
X48632952Y-26614380D01*
X47109142Y-25344380D02*
X46775809Y-24868190D01*
X46537714Y-25344380D02*
X46537714Y-24344380D01*
X46918666Y-24344380D01*
X47013904Y-24392000D01*
X47061523Y-24439619D01*
X47109142Y-24534857D01*
X47109142Y-24677714D01*
X47061523Y-24772952D01*
X47013904Y-24820571D01*
X46918666Y-24868190D01*
X46537714Y-24868190D01*
X48061523Y-25344380D02*
X47490095Y-25344380D01*
X47775809Y-25344380D02*
X47775809Y-24344380D01*
X47680571Y-24487238D01*
X47585333Y-24582476D01*
X47490095Y-24630095D01*
X48918666Y-24344380D02*
X48728190Y-24344380D01*
X48632952Y-24392000D01*
X48585333Y-24439619D01*
X48490095Y-24582476D01*
X48442476Y-24772952D01*
X48442476Y-25153904D01*
X48490095Y-25249142D01*
X48537714Y-25296761D01*
X48632952Y-25344380D01*
X48823428Y-25344380D01*
X48918666Y-25296761D01*
X48966285Y-25249142D01*
X49013904Y-25153904D01*
X49013904Y-24915809D01*
X48966285Y-24820571D01*
X48918666Y-24772952D01*
X48823428Y-24725333D01*
X48632952Y-24725333D01*
X48537714Y-24772952D01*
X48490095Y-24820571D01*
X48442476Y-24915809D01*
X45077142Y-6548380D02*
X44743809Y-6072190D01*
X44505714Y-6548380D02*
X44505714Y-5548380D01*
X44886666Y-5548380D01*
X44981904Y-5596000D01*
X45029523Y-5643619D01*
X45077142Y-5738857D01*
X45077142Y-5881714D01*
X45029523Y-5976952D01*
X44981904Y-6024571D01*
X44886666Y-6072190D01*
X44505714Y-6072190D01*
X46029523Y-6548380D02*
X45458095Y-6548380D01*
X45743809Y-6548380D02*
X45743809Y-5548380D01*
X45648571Y-5691238D01*
X45553333Y-5786476D01*
X45458095Y-5834095D01*
X46934285Y-5548380D02*
X46458095Y-5548380D01*
X46410476Y-6024571D01*
X46458095Y-5976952D01*
X46553333Y-5929333D01*
X46791428Y-5929333D01*
X46886666Y-5976952D01*
X46934285Y-6024571D01*
X46981904Y-6119809D01*
X46981904Y-6357904D01*
X46934285Y-6453142D01*
X46886666Y-6500761D01*
X46791428Y-6548380D01*
X46553333Y-6548380D01*
X46458095Y-6500761D01*
X46410476Y-6453142D01*
X47109142Y-24074380D02*
X46775809Y-23598190D01*
X46537714Y-24074380D02*
X46537714Y-23074380D01*
X46918666Y-23074380D01*
X47013904Y-23122000D01*
X47061523Y-23169619D01*
X47109142Y-23264857D01*
X47109142Y-23407714D01*
X47061523Y-23502952D01*
X47013904Y-23550571D01*
X46918666Y-23598190D01*
X46537714Y-23598190D01*
X48061523Y-24074380D02*
X47490095Y-24074380D01*
X47775809Y-24074380D02*
X47775809Y-23074380D01*
X47680571Y-23217238D01*
X47585333Y-23312476D01*
X47490095Y-23360095D01*
X48918666Y-23407714D02*
X48918666Y-24074380D01*
X48680571Y-23026761D02*
X48442476Y-23741047D01*
X49061523Y-23741047D01*
X47109142Y-22804380D02*
X46775809Y-22328190D01*
X46537714Y-22804380D02*
X46537714Y-21804380D01*
X46918666Y-21804380D01*
X47013904Y-21852000D01*
X47061523Y-21899619D01*
X47109142Y-21994857D01*
X47109142Y-22137714D01*
X47061523Y-22232952D01*
X47013904Y-22280571D01*
X46918666Y-22328190D01*
X46537714Y-22328190D01*
X48061523Y-22804380D02*
X47490095Y-22804380D01*
X47775809Y-22804380D02*
X47775809Y-21804380D01*
X47680571Y-21947238D01*
X47585333Y-22042476D01*
X47490095Y-22090095D01*
X48394857Y-21804380D02*
X49013904Y-21804380D01*
X48680571Y-22185333D01*
X48823428Y-22185333D01*
X48918666Y-22232952D01*
X48966285Y-22280571D01*
X49013904Y-22375809D01*
X49013904Y-22613904D01*
X48966285Y-22709142D01*
X48918666Y-22756761D01*
X48823428Y-22804380D01*
X48537714Y-22804380D01*
X48442476Y-22756761D01*
X48394857Y-22709142D01*
X47109142Y-12136380D02*
X46775809Y-11660190D01*
X46537714Y-12136380D02*
X46537714Y-11136380D01*
X46918666Y-11136380D01*
X47013904Y-11184000D01*
X47061523Y-11231619D01*
X47109142Y-11326857D01*
X47109142Y-11469714D01*
X47061523Y-11564952D01*
X47013904Y-11612571D01*
X46918666Y-11660190D01*
X46537714Y-11660190D01*
X48061523Y-12136380D02*
X47490095Y-12136380D01*
X47775809Y-12136380D02*
X47775809Y-11136380D01*
X47680571Y-11279238D01*
X47585333Y-11374476D01*
X47490095Y-11422095D01*
X48442476Y-11231619D02*
X48490095Y-11184000D01*
X48585333Y-11136380D01*
X48823428Y-11136380D01*
X48918666Y-11184000D01*
X48966285Y-11231619D01*
X49013904Y-11326857D01*
X49013904Y-11422095D01*
X48966285Y-11564952D01*
X48394857Y-12136380D01*
X49013904Y-12136380D01*
X47109142Y-10866380D02*
X46775809Y-10390190D01*
X46537714Y-10866380D02*
X46537714Y-9866380D01*
X46918666Y-9866380D01*
X47013904Y-9914000D01*
X47061523Y-9961619D01*
X47109142Y-10056857D01*
X47109142Y-10199714D01*
X47061523Y-10294952D01*
X47013904Y-10342571D01*
X46918666Y-10390190D01*
X46537714Y-10390190D01*
X48061523Y-10866380D02*
X47490095Y-10866380D01*
X47775809Y-10866380D02*
X47775809Y-9866380D01*
X47680571Y-10009238D01*
X47585333Y-10104476D01*
X47490095Y-10152095D01*
X49013904Y-10866380D02*
X48442476Y-10866380D01*
X48728190Y-10866380D02*
X48728190Y-9866380D01*
X48632952Y-10009238D01*
X48537714Y-10104476D01*
X48442476Y-10152095D01*
X47109142Y-18232380D02*
X46775809Y-17756190D01*
X46537714Y-18232380D02*
X46537714Y-17232380D01*
X46918666Y-17232380D01*
X47013904Y-17280000D01*
X47061523Y-17327619D01*
X47109142Y-17422857D01*
X47109142Y-17565714D01*
X47061523Y-17660952D01*
X47013904Y-17708571D01*
X46918666Y-17756190D01*
X46537714Y-17756190D01*
X48061523Y-18232380D02*
X47490095Y-18232380D01*
X47775809Y-18232380D02*
X47775809Y-17232380D01*
X47680571Y-17375238D01*
X47585333Y-17470476D01*
X47490095Y-17518095D01*
X48680571Y-17232380D02*
X48775809Y-17232380D01*
X48871047Y-17280000D01*
X48918666Y-17327619D01*
X48966285Y-17422857D01*
X49013904Y-17613333D01*
X49013904Y-17851428D01*
X48966285Y-18041904D01*
X48918666Y-18137142D01*
X48871047Y-18184761D01*
X48775809Y-18232380D01*
X48680571Y-18232380D01*
X48585333Y-18184761D01*
X48537714Y-18137142D01*
X48490095Y-18041904D01*
X48442476Y-17851428D01*
X48442476Y-17613333D01*
X48490095Y-17422857D01*
X48537714Y-17327619D01*
X48585333Y-17280000D01*
X48680571Y-17232380D01*
X47077333Y-15692380D02*
X46744000Y-15216190D01*
X46505904Y-15692380D02*
X46505904Y-14692380D01*
X46886857Y-14692380D01*
X46982095Y-14740000D01*
X47029714Y-14787619D01*
X47077333Y-14882857D01*
X47077333Y-15025714D01*
X47029714Y-15120952D01*
X46982095Y-15168571D01*
X46886857Y-15216190D01*
X46505904Y-15216190D01*
X47553523Y-15692380D02*
X47744000Y-15692380D01*
X47839238Y-15644761D01*
X47886857Y-15597142D01*
X47982095Y-15454285D01*
X48029714Y-15263809D01*
X48029714Y-14882857D01*
X47982095Y-14787619D01*
X47934476Y-14740000D01*
X47839238Y-14692380D01*
X47648761Y-14692380D01*
X47553523Y-14740000D01*
X47505904Y-14787619D01*
X47458285Y-14882857D01*
X47458285Y-15120952D01*
X47505904Y-15216190D01*
X47553523Y-15263809D01*
X47648761Y-15311428D01*
X47839238Y-15311428D01*
X47934476Y-15263809D01*
X47982095Y-15216190D01*
X48029714Y-15120952D01*
X18121333Y-30932380D02*
X17788000Y-30456190D01*
X17549904Y-30932380D02*
X17549904Y-29932380D01*
X17930857Y-29932380D01*
X18026095Y-29980000D01*
X18073714Y-30027619D01*
X18121333Y-30122857D01*
X18121333Y-30265714D01*
X18073714Y-30360952D01*
X18026095Y-30408571D01*
X17930857Y-30456190D01*
X17549904Y-30456190D01*
X18692761Y-30360952D02*
X18597523Y-30313333D01*
X18549904Y-30265714D01*
X18502285Y-30170476D01*
X18502285Y-30122857D01*
X18549904Y-30027619D01*
X18597523Y-29980000D01*
X18692761Y-29932380D01*
X18883238Y-29932380D01*
X18978476Y-29980000D01*
X19026095Y-30027619D01*
X19073714Y-30122857D01*
X19073714Y-30170476D01*
X19026095Y-30265714D01*
X18978476Y-30313333D01*
X18883238Y-30360952D01*
X18692761Y-30360952D01*
X18597523Y-30408571D01*
X18549904Y-30456190D01*
X18502285Y-30551428D01*
X18502285Y-30741904D01*
X18549904Y-30837142D01*
X18597523Y-30884761D01*
X18692761Y-30932380D01*
X18883238Y-30932380D01*
X18978476Y-30884761D01*
X19026095Y-30837142D01*
X19073714Y-30741904D01*
X19073714Y-30551428D01*
X19026095Y-30456190D01*
X18978476Y-30408571D01*
X18883238Y-30360952D01*
X27265333Y-30932380D02*
X26932000Y-30456190D01*
X26693904Y-30932380D02*
X26693904Y-29932380D01*
X27074857Y-29932380D01*
X27170095Y-29980000D01*
X27217714Y-30027619D01*
X27265333Y-30122857D01*
X27265333Y-30265714D01*
X27217714Y-30360952D01*
X27170095Y-30408571D01*
X27074857Y-30456190D01*
X26693904Y-30456190D01*
X27598666Y-29932380D02*
X28265333Y-29932380D01*
X27836761Y-30932380D01*
X18121333Y-23312380D02*
X17788000Y-22836190D01*
X17549904Y-23312380D02*
X17549904Y-22312380D01*
X17930857Y-22312380D01*
X18026095Y-22360000D01*
X18073714Y-22407619D01*
X18121333Y-22502857D01*
X18121333Y-22645714D01*
X18073714Y-22740952D01*
X18026095Y-22788571D01*
X17930857Y-22836190D01*
X17549904Y-22836190D01*
X18978476Y-22312380D02*
X18788000Y-22312380D01*
X18692761Y-22360000D01*
X18645142Y-22407619D01*
X18549904Y-22550476D01*
X18502285Y-22740952D01*
X18502285Y-23121904D01*
X18549904Y-23217142D01*
X18597523Y-23264761D01*
X18692761Y-23312380D01*
X18883238Y-23312380D01*
X18978476Y-23264761D01*
X19026095Y-23217142D01*
X19073714Y-23121904D01*
X19073714Y-22883809D01*
X19026095Y-22788571D01*
X18978476Y-22740952D01*
X18883238Y-22693333D01*
X18692761Y-22693333D01*
X18597523Y-22740952D01*
X18549904Y-22788571D01*
X18502285Y-22883809D01*
X27265333Y-23312380D02*
X26932000Y-22836190D01*
X26693904Y-23312380D02*
X26693904Y-22312380D01*
X27074857Y-22312380D01*
X27170095Y-22360000D01*
X27217714Y-22407619D01*
X27265333Y-22502857D01*
X27265333Y-22645714D01*
X27217714Y-22740952D01*
X27170095Y-22788571D01*
X27074857Y-22836190D01*
X26693904Y-22836190D01*
X28170095Y-22312380D02*
X27693904Y-22312380D01*
X27646285Y-22788571D01*
X27693904Y-22740952D01*
X27789142Y-22693333D01*
X28027238Y-22693333D01*
X28122476Y-22740952D01*
X28170095Y-22788571D01*
X28217714Y-22883809D01*
X28217714Y-23121904D01*
X28170095Y-23217142D01*
X28122476Y-23264761D01*
X28027238Y-23312380D01*
X27789142Y-23312380D01*
X27693904Y-23264761D01*
X27646285Y-23217142D01*
X18121333Y-15692380D02*
X17788000Y-15216190D01*
X17549904Y-15692380D02*
X17549904Y-14692380D01*
X17930857Y-14692380D01*
X18026095Y-14740000D01*
X18073714Y-14787619D01*
X18121333Y-14882857D01*
X18121333Y-15025714D01*
X18073714Y-15120952D01*
X18026095Y-15168571D01*
X17930857Y-15216190D01*
X17549904Y-15216190D01*
X18978476Y-15025714D02*
X18978476Y-15692380D01*
X18740380Y-14644761D02*
X18502285Y-15359047D01*
X19121333Y-15359047D01*
X27265333Y-15692380D02*
X26932000Y-15216190D01*
X26693904Y-15692380D02*
X26693904Y-14692380D01*
X27074857Y-14692380D01*
X27170095Y-14740000D01*
X27217714Y-14787619D01*
X27265333Y-14882857D01*
X27265333Y-15025714D01*
X27217714Y-15120952D01*
X27170095Y-15168571D01*
X27074857Y-15216190D01*
X26693904Y-15216190D01*
X27598666Y-14692380D02*
X28217714Y-14692380D01*
X27884380Y-15073333D01*
X28027238Y-15073333D01*
X28122476Y-15120952D01*
X28170095Y-15168571D01*
X28217714Y-15263809D01*
X28217714Y-15501904D01*
X28170095Y-15597142D01*
X28122476Y-15644761D01*
X28027238Y-15692380D01*
X27741523Y-15692380D01*
X27646285Y-15644761D01*
X27598666Y-15597142D01*
X18121333Y-8072380D02*
X17788000Y-7596190D01*
X17549904Y-8072380D02*
X17549904Y-7072380D01*
X17930857Y-7072380D01*
X18026095Y-7120000D01*
X18073714Y-7167619D01*
X18121333Y-7262857D01*
X18121333Y-7405714D01*
X18073714Y-7500952D01*
X18026095Y-7548571D01*
X17930857Y-7596190D01*
X17549904Y-7596190D01*
X18502285Y-7167619D02*
X18549904Y-7120000D01*
X18645142Y-7072380D01*
X18883238Y-7072380D01*
X18978476Y-7120000D01*
X19026095Y-7167619D01*
X19073714Y-7262857D01*
X19073714Y-7358095D01*
X19026095Y-7500952D01*
X18454666Y-8072380D01*
X19073714Y-8072380D01*
X27265333Y-8072380D02*
X26932000Y-7596190D01*
X26693904Y-8072380D02*
X26693904Y-7072380D01*
X27074857Y-7072380D01*
X27170095Y-7120000D01*
X27217714Y-7167619D01*
X27265333Y-7262857D01*
X27265333Y-7405714D01*
X27217714Y-7500952D01*
X27170095Y-7548571D01*
X27074857Y-7596190D01*
X26693904Y-7596190D01*
X28217714Y-8072380D02*
X27646285Y-8072380D01*
X27932000Y-8072380D02*
X27932000Y-7072380D01*
X27836761Y-7215238D01*
X27741523Y-7310476D01*
X27646285Y-7358095D01*
X62761904Y-2484380D02*
X62761904Y-1484380D01*
X63333333Y-2484380D02*
X62904761Y-1912952D01*
X63333333Y-1484380D02*
X62761904Y-2055809D01*
X64285714Y-2484380D02*
X63714285Y-2484380D01*
X64000000Y-2484380D02*
X64000000Y-1484380D01*
X63904761Y-1627238D01*
X63809523Y-1722476D01*
X63714285Y-1770095D01*
X77136666Y-1484380D02*
X77136666Y-2198666D01*
X77089047Y-2341523D01*
X76993809Y-2436761D01*
X76850952Y-2484380D01*
X76755714Y-2484380D01*
X77565238Y-1579619D02*
X77612857Y-1532000D01*
X77708095Y-1484380D01*
X77946190Y-1484380D01*
X78041428Y-1532000D01*
X78089047Y-1579619D01*
X78136666Y-1674857D01*
X78136666Y-1770095D01*
X78089047Y-1912952D01*
X77517619Y-2484380D01*
X78136666Y-2484380D01*
X82216666Y-14660571D02*
X81883333Y-14660571D01*
X81883333Y-15184380D02*
X81883333Y-14184380D01*
X82359523Y-14184380D01*
X83264285Y-15184380D02*
X82692857Y-15184380D01*
X82978571Y-15184380D02*
X82978571Y-14184380D01*
X82883333Y-14327238D01*
X82788095Y-14422476D01*
X82692857Y-14470095D01*
X47331333Y-30837142D02*
X47283714Y-30884761D01*
X47140857Y-30932380D01*
X47045619Y-30932380D01*
X46902761Y-30884761D01*
X46807523Y-30789523D01*
X46759904Y-30694285D01*
X46712285Y-30503809D01*
X46712285Y-30360952D01*
X46759904Y-30170476D01*
X46807523Y-30075238D01*
X46902761Y-29980000D01*
X47045619Y-29932380D01*
X47140857Y-29932380D01*
X47283714Y-29980000D01*
X47331333Y-30027619D01*
X47902761Y-30360952D02*
X47807523Y-30313333D01*
X47759904Y-30265714D01*
X47712285Y-30170476D01*
X47712285Y-30122857D01*
X47759904Y-30027619D01*
X47807523Y-29980000D01*
X47902761Y-29932380D01*
X48093238Y-29932380D01*
X48188476Y-29980000D01*
X48236095Y-30027619D01*
X48283714Y-30122857D01*
X48283714Y-30170476D01*
X48236095Y-30265714D01*
X48188476Y-30313333D01*
X48093238Y-30360952D01*
X47902761Y-30360952D01*
X47807523Y-30408571D01*
X47759904Y-30456190D01*
X47712285Y-30551428D01*
X47712285Y-30741904D01*
X47759904Y-30837142D01*
X47807523Y-30884761D01*
X47902761Y-30932380D01*
X48093238Y-30932380D01*
X48188476Y-30884761D01*
X48236095Y-30837142D01*
X48283714Y-30741904D01*
X48283714Y-30551428D01*
X48236095Y-30456190D01*
X48188476Y-30408571D01*
X48093238Y-30360952D01*
X45045333Y-4167142D02*
X44997714Y-4214761D01*
X44854857Y-4262380D01*
X44759619Y-4262380D01*
X44616761Y-4214761D01*
X44521523Y-4119523D01*
X44473904Y-4024285D01*
X44426285Y-3833809D01*
X44426285Y-3690952D01*
X44473904Y-3500476D01*
X44521523Y-3405238D01*
X44616761Y-3310000D01*
X44759619Y-3262380D01*
X44854857Y-3262380D01*
X44997714Y-3310000D01*
X45045333Y-3357619D01*
X45378666Y-3262380D02*
X46045333Y-3262380D01*
X45616761Y-4262380D01*
X51903333Y-23979142D02*
X51855714Y-24026761D01*
X51712857Y-24074380D01*
X51617619Y-24074380D01*
X51474761Y-24026761D01*
X51379523Y-23931523D01*
X51331904Y-23836285D01*
X51284285Y-23645809D01*
X51284285Y-23502952D01*
X51331904Y-23312476D01*
X51379523Y-23217238D01*
X51474761Y-23122000D01*
X51617619Y-23074380D01*
X51712857Y-23074380D01*
X51855714Y-23122000D01*
X51903333Y-23169619D01*
X52760476Y-23074380D02*
X52570000Y-23074380D01*
X52474761Y-23122000D01*
X52427142Y-23169619D01*
X52331904Y-23312476D01*
X52284285Y-23502952D01*
X52284285Y-23883904D01*
X52331904Y-23979142D01*
X52379523Y-24026761D01*
X52474761Y-24074380D01*
X52665238Y-24074380D01*
X52760476Y-24026761D01*
X52808095Y-23979142D01*
X52855714Y-23883904D01*
X52855714Y-23645809D01*
X52808095Y-23550571D01*
X52760476Y-23502952D01*
X52665238Y-23455333D01*
X52474761Y-23455333D01*
X52379523Y-23502952D01*
X52331904Y-23550571D01*
X52284285Y-23645809D01*
X38695333Y-14327142D02*
X38647714Y-14374761D01*
X38504857Y-14422380D01*
X38409619Y-14422380D01*
X38266761Y-14374761D01*
X38171523Y-14279523D01*
X38123904Y-14184285D01*
X38076285Y-13993809D01*
X38076285Y-13850952D01*
X38123904Y-13660476D01*
X38171523Y-13565238D01*
X38266761Y-13470000D01*
X38409619Y-13422380D01*
X38504857Y-13422380D01*
X38647714Y-13470000D01*
X38695333Y-13517619D01*
X39552476Y-13755714D02*
X39552476Y-14422380D01*
X39314380Y-13374761D02*
X39076285Y-14089047D01*
X39695333Y-14089047D01*
X49363333Y-16867142D02*
X49315714Y-16914761D01*
X49172857Y-16962380D01*
X49077619Y-16962380D01*
X48934761Y-16914761D01*
X48839523Y-16819523D01*
X48791904Y-16724285D01*
X48744285Y-16533809D01*
X48744285Y-16390952D01*
X48791904Y-16200476D01*
X48839523Y-16105238D01*
X48934761Y-16010000D01*
X49077619Y-15962380D01*
X49172857Y-15962380D01*
X49315714Y-16010000D01*
X49363333Y-16057619D01*
X49744285Y-16057619D02*
X49791904Y-16010000D01*
X49887142Y-15962380D01*
X50125238Y-15962380D01*
X50220476Y-16010000D01*
X50268095Y-16057619D01*
X50315714Y-16152857D01*
X50315714Y-16248095D01*
X50268095Y-16390952D01*
X49696666Y-16962380D01*
X50315714Y-16962380D01*
X51903333Y-16867142D02*
X51855714Y-16914761D01*
X51712857Y-16962380D01*
X51617619Y-16962380D01*
X51474761Y-16914761D01*
X51379523Y-16819523D01*
X51331904Y-16724285D01*
X51284285Y-16533809D01*
X51284285Y-16390952D01*
X51331904Y-16200476D01*
X51379523Y-16105238D01*
X51474761Y-16010000D01*
X51617619Y-15962380D01*
X51712857Y-15962380D01*
X51855714Y-16010000D01*
X51903333Y-16057619D01*
X52855714Y-16962380D02*
X52284285Y-16962380D01*
X52570000Y-16962380D02*
X52570000Y-15962380D01*
X52474761Y-16105238D01*
X52379523Y-16200476D01*
X52284285Y-16248095D01*
M02*
