G04 #@! TF.GenerationSoftware,KiCad,Pcbnew,5.1.4*
G04 #@! TF.CreationDate,2019-11-14T20:38:05+00:00*
G04 #@! TF.ProjectId,BSPD,42535044-2e6b-4696-9361-645f70636258,rev?*
G04 #@! TF.SameCoordinates,Original*
G04 #@! TF.FileFunction,Soldermask,Bot*
G04 #@! TF.FilePolarity,Negative*
%FSLAX46Y46*%
G04 Gerber Fmt 4.6, Leading zero omitted, Abs format (unit mm)*
G04 Created by KiCad (PCBNEW 5.1.4) date 2019-11-14 20:38:05*
%MOMM*%
%LPD*%
G04 APERTURE LIST*
%ADD10C,0.050000*%
%ADD11C,0.100000*%
G04 APERTURE END LIST*
D10*
X63500000Y-63500000D02*
X160020000Y-63500000D01*
X63500000Y-99060000D02*
X63500000Y-63500000D01*
X160020000Y-99060000D02*
X63500000Y-99060000D01*
X160020000Y-99060000D02*
X160020000Y-63500000D01*
D11*
G36*
X155574239Y-90791467D02*
G01*
X155888282Y-90853934D01*
X156479926Y-91099001D01*
X156850084Y-91346333D01*
X157012391Y-91454783D01*
X157465217Y-91907609D01*
X157470725Y-91915853D01*
X157820999Y-92440074D01*
X158066066Y-93031718D01*
X158102022Y-93212480D01*
X158191000Y-93659803D01*
X158191000Y-94300197D01*
X158134105Y-94586225D01*
X158066066Y-94928282D01*
X157820999Y-95519926D01*
X157465216Y-96052392D01*
X157012392Y-96505216D01*
X156479926Y-96860999D01*
X155888282Y-97106066D01*
X155574239Y-97168533D01*
X155260197Y-97231000D01*
X154619803Y-97231000D01*
X154305761Y-97168533D01*
X153991718Y-97106066D01*
X153400074Y-96860999D01*
X152867608Y-96505216D01*
X152414784Y-96052392D01*
X152059001Y-95519926D01*
X151813934Y-94928282D01*
X151745895Y-94586225D01*
X151689000Y-94300197D01*
X151689000Y-93659803D01*
X151777978Y-93212480D01*
X151813934Y-93031718D01*
X152059001Y-92440074D01*
X152409275Y-91915853D01*
X152414783Y-91907609D01*
X152867609Y-91454783D01*
X153029916Y-91346333D01*
X153400074Y-91099001D01*
X153991718Y-90853934D01*
X154305761Y-90791467D01*
X154619803Y-90729000D01*
X155260197Y-90729000D01*
X155574239Y-90791467D01*
X155574239Y-90791467D01*
G37*
G36*
X69214239Y-90791467D02*
G01*
X69528282Y-90853934D01*
X70119926Y-91099001D01*
X70490084Y-91346333D01*
X70652391Y-91454783D01*
X71105217Y-91907609D01*
X71110725Y-91915853D01*
X71460999Y-92440074D01*
X71706066Y-93031718D01*
X71742022Y-93212480D01*
X71831000Y-93659803D01*
X71831000Y-94300197D01*
X71774105Y-94586225D01*
X71706066Y-94928282D01*
X71460999Y-95519926D01*
X71105216Y-96052392D01*
X70652392Y-96505216D01*
X70119926Y-96860999D01*
X69528282Y-97106066D01*
X69214239Y-97168533D01*
X68900197Y-97231000D01*
X68259803Y-97231000D01*
X67945761Y-97168533D01*
X67631718Y-97106066D01*
X67040074Y-96860999D01*
X66507608Y-96505216D01*
X66054784Y-96052392D01*
X65699001Y-95519926D01*
X65453934Y-94928282D01*
X65385895Y-94586225D01*
X65329000Y-94300197D01*
X65329000Y-93659803D01*
X65417978Y-93212480D01*
X65453934Y-93031718D01*
X65699001Y-92440074D01*
X66049275Y-91915853D01*
X66054783Y-91907609D01*
X66507609Y-91454783D01*
X66669916Y-91346333D01*
X67040074Y-91099001D01*
X67631718Y-90853934D01*
X67945761Y-90791467D01*
X68259803Y-90729000D01*
X68900197Y-90729000D01*
X69214239Y-90791467D01*
X69214239Y-90791467D01*
G37*
G36*
X80287395Y-93065546D02*
G01*
X80460466Y-93137234D01*
X80460467Y-93137235D01*
X80616227Y-93241310D01*
X80748690Y-93373773D01*
X80748691Y-93373775D01*
X80852766Y-93529534D01*
X80924454Y-93702605D01*
X80961000Y-93886333D01*
X80961000Y-94073667D01*
X80924454Y-94257395D01*
X80852766Y-94430466D01*
X80851922Y-94431729D01*
X80748690Y-94586227D01*
X80616227Y-94718690D01*
X80609622Y-94723103D01*
X80460466Y-94822766D01*
X80287395Y-94894454D01*
X80103667Y-94931000D01*
X79916333Y-94931000D01*
X79732605Y-94894454D01*
X79559534Y-94822766D01*
X79410378Y-94723103D01*
X79403773Y-94718690D01*
X79271310Y-94586227D01*
X79168078Y-94431729D01*
X79167234Y-94430466D01*
X79095546Y-94257395D01*
X79059000Y-94073667D01*
X79059000Y-93886333D01*
X79095546Y-93702605D01*
X79167234Y-93529534D01*
X79271309Y-93373775D01*
X79271310Y-93373773D01*
X79403773Y-93241310D01*
X79559533Y-93137235D01*
X79559534Y-93137234D01*
X79732605Y-93065546D01*
X79916333Y-93029000D01*
X80103667Y-93029000D01*
X80287395Y-93065546D01*
X80287395Y-93065546D01*
G37*
G36*
X92987395Y-93065546D02*
G01*
X93160466Y-93137234D01*
X93160467Y-93137235D01*
X93316227Y-93241310D01*
X93448690Y-93373773D01*
X93448691Y-93373775D01*
X93552766Y-93529534D01*
X93624454Y-93702605D01*
X93661000Y-93886333D01*
X93661000Y-94073667D01*
X93624454Y-94257395D01*
X93552766Y-94430466D01*
X93551922Y-94431729D01*
X93448690Y-94586227D01*
X93316227Y-94718690D01*
X93309622Y-94723103D01*
X93160466Y-94822766D01*
X92987395Y-94894454D01*
X92803667Y-94931000D01*
X92616333Y-94931000D01*
X92432605Y-94894454D01*
X92259534Y-94822766D01*
X92110378Y-94723103D01*
X92103773Y-94718690D01*
X91971310Y-94586227D01*
X91868078Y-94431729D01*
X91867234Y-94430466D01*
X91795546Y-94257395D01*
X91759000Y-94073667D01*
X91759000Y-93886333D01*
X91795546Y-93702605D01*
X91867234Y-93529534D01*
X91971309Y-93373775D01*
X91971310Y-93373773D01*
X92103773Y-93241310D01*
X92259533Y-93137235D01*
X92259534Y-93137234D01*
X92432605Y-93065546D01*
X92616333Y-93029000D01*
X92803667Y-93029000D01*
X92987395Y-93065546D01*
X92987395Y-93065546D01*
G37*
G36*
X123516032Y-91809207D02*
G01*
X123656127Y-91851705D01*
X123714149Y-91869306D01*
X123801230Y-91915852D01*
X123896729Y-91966897D01*
X124056765Y-92098235D01*
X124188103Y-92258271D01*
X124225354Y-92327963D01*
X124285694Y-92440851D01*
X124285695Y-92440854D01*
X124345793Y-92638968D01*
X124361000Y-92793370D01*
X124361000Y-93896630D01*
X124345793Y-94051032D01*
X124285695Y-94249145D01*
X124285694Y-94249149D01*
X124258408Y-94300197D01*
X124188103Y-94431729D01*
X124056765Y-94591765D01*
X123896729Y-94723103D01*
X123780030Y-94785479D01*
X123714148Y-94820694D01*
X123714145Y-94820695D01*
X123516031Y-94880793D01*
X123310000Y-94901085D01*
X123103968Y-94880793D01*
X122905854Y-94820695D01*
X122905851Y-94820694D01*
X122809025Y-94768939D01*
X122723271Y-94723103D01*
X122563235Y-94591765D01*
X122431897Y-94431729D01*
X122369521Y-94315030D01*
X122334306Y-94249148D01*
X122281074Y-94073667D01*
X122274207Y-94051031D01*
X122259000Y-93896629D01*
X122259000Y-92793370D01*
X122262896Y-92753815D01*
X122274207Y-92638970D01*
X122334305Y-92440853D01*
X122422185Y-92276443D01*
X122431898Y-92258271D01*
X122563236Y-92098235D01*
X122723272Y-91966897D01*
X122818771Y-91915852D01*
X122905852Y-91869306D01*
X122963874Y-91851705D01*
X123103969Y-91809207D01*
X123310000Y-91788915D01*
X123516032Y-91809207D01*
X123516032Y-91809207D01*
G37*
G36*
X131861000Y-94896000D02*
G01*
X129759000Y-94896000D01*
X129759000Y-91794000D01*
X131861000Y-91794000D01*
X131861000Y-94896000D01*
X131861000Y-94896000D01*
G37*
G36*
X115818228Y-91851703D02*
G01*
X115973100Y-91915853D01*
X116112481Y-92008985D01*
X116231015Y-92127519D01*
X116324147Y-92266900D01*
X116388297Y-92421772D01*
X116421000Y-92586184D01*
X116421000Y-92753816D01*
X116388297Y-92918228D01*
X116324147Y-93073100D01*
X116231015Y-93212481D01*
X116112481Y-93331015D01*
X115973100Y-93424147D01*
X115818228Y-93488297D01*
X115653816Y-93521000D01*
X115486184Y-93521000D01*
X115321772Y-93488297D01*
X115166900Y-93424147D01*
X115027519Y-93331015D01*
X114908985Y-93212481D01*
X114815853Y-93073100D01*
X114751703Y-92918228D01*
X114719000Y-92753816D01*
X114719000Y-92586184D01*
X114751703Y-92421772D01*
X114815853Y-92266900D01*
X114908985Y-92127519D01*
X115027519Y-92008985D01*
X115166900Y-91915853D01*
X115321772Y-91851703D01*
X115486184Y-91819000D01*
X115653816Y-91819000D01*
X115818228Y-91851703D01*
X115818228Y-91851703D01*
G37*
G36*
X85367395Y-90525546D02*
G01*
X85540466Y-90597234D01*
X85612069Y-90645078D01*
X85696227Y-90701310D01*
X85828690Y-90833773D01*
X85860249Y-90881005D01*
X85932766Y-90989534D01*
X86004454Y-91162605D01*
X86041000Y-91346333D01*
X86041000Y-91533667D01*
X86004454Y-91717395D01*
X85932766Y-91890466D01*
X85915803Y-91915853D01*
X85828690Y-92046227D01*
X85696227Y-92178690D01*
X85675141Y-92192779D01*
X85540466Y-92282766D01*
X85367395Y-92354454D01*
X85183667Y-92391000D01*
X84996333Y-92391000D01*
X84812605Y-92354454D01*
X84639534Y-92282766D01*
X84504859Y-92192779D01*
X84483773Y-92178690D01*
X84351310Y-92046227D01*
X84264197Y-91915853D01*
X84247234Y-91890466D01*
X84175546Y-91717395D01*
X84139000Y-91533667D01*
X84139000Y-91346333D01*
X84175546Y-91162605D01*
X84247234Y-90989534D01*
X84319751Y-90881005D01*
X84351310Y-90833773D01*
X84483773Y-90701310D01*
X84567931Y-90645078D01*
X84639534Y-90597234D01*
X84812605Y-90525546D01*
X84996333Y-90489000D01*
X85183667Y-90489000D01*
X85367395Y-90525546D01*
X85367395Y-90525546D01*
G37*
G36*
X141080443Y-90545519D02*
G01*
X141146627Y-90552037D01*
X141316466Y-90603557D01*
X141472991Y-90687222D01*
X141490156Y-90701309D01*
X141610186Y-90799814D01*
X141693448Y-90901271D01*
X141722778Y-90937009D01*
X141806443Y-91093534D01*
X141857963Y-91263373D01*
X141875359Y-91440000D01*
X141857963Y-91616627D01*
X141806443Y-91786466D01*
X141722778Y-91942991D01*
X141703159Y-91966897D01*
X141610186Y-92080186D01*
X141552508Y-92127520D01*
X141472991Y-92192778D01*
X141316466Y-92276443D01*
X141146627Y-92327963D01*
X141080443Y-92334481D01*
X141014260Y-92341000D01*
X140925740Y-92341000D01*
X140859557Y-92334481D01*
X140793373Y-92327963D01*
X140623534Y-92276443D01*
X140467009Y-92192778D01*
X140387492Y-92127520D01*
X140329814Y-92080186D01*
X140236841Y-91966897D01*
X140217222Y-91942991D01*
X140133557Y-91786466D01*
X140082037Y-91616627D01*
X140064641Y-91440000D01*
X140082037Y-91263373D01*
X140133557Y-91093534D01*
X140217222Y-90937009D01*
X140246552Y-90901271D01*
X140329814Y-90799814D01*
X140449844Y-90701309D01*
X140467009Y-90687222D01*
X140623534Y-90603557D01*
X140793373Y-90552037D01*
X140859557Y-90545519D01*
X140925740Y-90539000D01*
X141014260Y-90539000D01*
X141080443Y-90545519D01*
X141080443Y-90545519D01*
G37*
G36*
X138540443Y-90545519D02*
G01*
X138606627Y-90552037D01*
X138776466Y-90603557D01*
X138932991Y-90687222D01*
X138950156Y-90701309D01*
X139070186Y-90799814D01*
X139153448Y-90901271D01*
X139182778Y-90937009D01*
X139266443Y-91093534D01*
X139317963Y-91263373D01*
X139335359Y-91440000D01*
X139317963Y-91616627D01*
X139266443Y-91786466D01*
X139182778Y-91942991D01*
X139163159Y-91966897D01*
X139070186Y-92080186D01*
X139012508Y-92127520D01*
X138932991Y-92192778D01*
X138776466Y-92276443D01*
X138606627Y-92327963D01*
X138540443Y-92334481D01*
X138474260Y-92341000D01*
X138385740Y-92341000D01*
X138319557Y-92334481D01*
X138253373Y-92327963D01*
X138083534Y-92276443D01*
X137927009Y-92192778D01*
X137847492Y-92127520D01*
X137789814Y-92080186D01*
X137696841Y-91966897D01*
X137677222Y-91942991D01*
X137593557Y-91786466D01*
X137542037Y-91616627D01*
X137524641Y-91440000D01*
X137542037Y-91263373D01*
X137593557Y-91093534D01*
X137677222Y-90937009D01*
X137706552Y-90901271D01*
X137789814Y-90799814D01*
X137909844Y-90701309D01*
X137927009Y-90687222D01*
X138083534Y-90603557D01*
X138253373Y-90552037D01*
X138319557Y-90545519D01*
X138385740Y-90539000D01*
X138474260Y-90539000D01*
X138540443Y-90545519D01*
X138540443Y-90545519D01*
G37*
G36*
X146216823Y-89331313D02*
G01*
X146377242Y-89379976D01*
X146509906Y-89450886D01*
X146525078Y-89458996D01*
X146654659Y-89565341D01*
X146761004Y-89694922D01*
X146761005Y-89694924D01*
X146840024Y-89842758D01*
X146888687Y-90003177D01*
X146905117Y-90170000D01*
X146888687Y-90336823D01*
X146840024Y-90497242D01*
X146783197Y-90603557D01*
X146761004Y-90645078D01*
X146654659Y-90774659D01*
X146525078Y-90881004D01*
X146525076Y-90881005D01*
X146377242Y-90960024D01*
X146216823Y-91008687D01*
X146091804Y-91021000D01*
X146008196Y-91021000D01*
X145883177Y-91008687D01*
X145722758Y-90960024D01*
X145574924Y-90881005D01*
X145574922Y-90881004D01*
X145445341Y-90774659D01*
X145338996Y-90645078D01*
X145316803Y-90603557D01*
X145259976Y-90497242D01*
X145211313Y-90336823D01*
X145194883Y-90170000D01*
X145211313Y-90003177D01*
X145259976Y-89842758D01*
X145338995Y-89694924D01*
X145338996Y-89694922D01*
X145445341Y-89565341D01*
X145574922Y-89458996D01*
X145590094Y-89450886D01*
X145722758Y-89379976D01*
X145883177Y-89331313D01*
X146008196Y-89319000D01*
X146091804Y-89319000D01*
X146216823Y-89331313D01*
X146216823Y-89331313D01*
G37*
G36*
X149391823Y-89331313D02*
G01*
X149552242Y-89379976D01*
X149684906Y-89450886D01*
X149700078Y-89458996D01*
X149829659Y-89565341D01*
X149936004Y-89694922D01*
X149936005Y-89694924D01*
X150015024Y-89842758D01*
X150063687Y-90003177D01*
X150080117Y-90170000D01*
X150063687Y-90336823D01*
X150015024Y-90497242D01*
X149958197Y-90603557D01*
X149936004Y-90645078D01*
X149829659Y-90774659D01*
X149700078Y-90881004D01*
X149700076Y-90881005D01*
X149552242Y-90960024D01*
X149391823Y-91008687D01*
X149266804Y-91021000D01*
X149183196Y-91021000D01*
X149058177Y-91008687D01*
X148897758Y-90960024D01*
X148749924Y-90881005D01*
X148749922Y-90881004D01*
X148620341Y-90774659D01*
X148513996Y-90645078D01*
X148491803Y-90603557D01*
X148434976Y-90497242D01*
X148386313Y-90336823D01*
X148369883Y-90170000D01*
X148386313Y-90003177D01*
X148434976Y-89842758D01*
X148513995Y-89694924D01*
X148513996Y-89694922D01*
X148620341Y-89565341D01*
X148749922Y-89458996D01*
X148765094Y-89450886D01*
X148897758Y-89379976D01*
X149058177Y-89331313D01*
X149183196Y-89319000D01*
X149266804Y-89319000D01*
X149391823Y-89331313D01*
X149391823Y-89331313D01*
G37*
G36*
X116421000Y-91021000D02*
G01*
X114719000Y-91021000D01*
X114719000Y-89319000D01*
X116421000Y-89319000D01*
X116421000Y-91021000D01*
X116421000Y-91021000D01*
G37*
G36*
X138540443Y-88005519D02*
G01*
X138606627Y-88012037D01*
X138776466Y-88063557D01*
X138932991Y-88147222D01*
X138968729Y-88176552D01*
X139070186Y-88259814D01*
X139153448Y-88361271D01*
X139182778Y-88397009D01*
X139266443Y-88553534D01*
X139317963Y-88723373D01*
X139335359Y-88900000D01*
X139317963Y-89076627D01*
X139266443Y-89246466D01*
X139182778Y-89402991D01*
X139153448Y-89438729D01*
X139070186Y-89540186D01*
X138968729Y-89623448D01*
X138932991Y-89652778D01*
X138776466Y-89736443D01*
X138606627Y-89787963D01*
X138540443Y-89794481D01*
X138474260Y-89801000D01*
X138385740Y-89801000D01*
X138319557Y-89794481D01*
X138253373Y-89787963D01*
X138083534Y-89736443D01*
X137927009Y-89652778D01*
X137891271Y-89623448D01*
X137789814Y-89540186D01*
X137706552Y-89438729D01*
X137677222Y-89402991D01*
X137593557Y-89246466D01*
X137542037Y-89076627D01*
X137524641Y-88900000D01*
X137542037Y-88723373D01*
X137593557Y-88553534D01*
X137677222Y-88397009D01*
X137706552Y-88361271D01*
X137789814Y-88259814D01*
X137891271Y-88176552D01*
X137927009Y-88147222D01*
X138083534Y-88063557D01*
X138253373Y-88012037D01*
X138319557Y-88005519D01*
X138385740Y-87999000D01*
X138474260Y-87999000D01*
X138540443Y-88005519D01*
X138540443Y-88005519D01*
G37*
G36*
X141080443Y-88005519D02*
G01*
X141146627Y-88012037D01*
X141316466Y-88063557D01*
X141472991Y-88147222D01*
X141508729Y-88176552D01*
X141610186Y-88259814D01*
X141693448Y-88361271D01*
X141722778Y-88397009D01*
X141806443Y-88553534D01*
X141857963Y-88723373D01*
X141875359Y-88900000D01*
X141857963Y-89076627D01*
X141806443Y-89246466D01*
X141722778Y-89402991D01*
X141693448Y-89438729D01*
X141610186Y-89540186D01*
X141508729Y-89623448D01*
X141472991Y-89652778D01*
X141316466Y-89736443D01*
X141146627Y-89787963D01*
X141080443Y-89794481D01*
X141014260Y-89801000D01*
X140925740Y-89801000D01*
X140859557Y-89794481D01*
X140793373Y-89787963D01*
X140623534Y-89736443D01*
X140467009Y-89652778D01*
X140431271Y-89623448D01*
X140329814Y-89540186D01*
X140246552Y-89438729D01*
X140217222Y-89402991D01*
X140133557Y-89246466D01*
X140082037Y-89076627D01*
X140064641Y-88900000D01*
X140082037Y-88723373D01*
X140133557Y-88553534D01*
X140217222Y-88397009D01*
X140246552Y-88361271D01*
X140329814Y-88259814D01*
X140431271Y-88176552D01*
X140467009Y-88147222D01*
X140623534Y-88063557D01*
X140793373Y-88012037D01*
X140859557Y-88005519D01*
X140925740Y-87999000D01*
X141014260Y-87999000D01*
X141080443Y-88005519D01*
X141080443Y-88005519D01*
G37*
G36*
X92987395Y-85445546D02*
G01*
X93160466Y-85517234D01*
X93237818Y-85568919D01*
X93316227Y-85621310D01*
X93448690Y-85753773D01*
X93448691Y-85753775D01*
X93552766Y-85909534D01*
X93624454Y-86082605D01*
X93661000Y-86266333D01*
X93661000Y-86453667D01*
X93624454Y-86637395D01*
X93552766Y-86810466D01*
X93552765Y-86810467D01*
X93448690Y-86966227D01*
X93316227Y-87098690D01*
X93295141Y-87112779D01*
X93160466Y-87202766D01*
X92987395Y-87274454D01*
X92803667Y-87311000D01*
X92616333Y-87311000D01*
X92432605Y-87274454D01*
X92259534Y-87202766D01*
X92124859Y-87112779D01*
X92103773Y-87098690D01*
X91971310Y-86966227D01*
X91867235Y-86810467D01*
X91867234Y-86810466D01*
X91795546Y-86637395D01*
X91759000Y-86453667D01*
X91759000Y-86266333D01*
X91795546Y-86082605D01*
X91867234Y-85909534D01*
X91971309Y-85753775D01*
X91971310Y-85753773D01*
X92103773Y-85621310D01*
X92182182Y-85568919D01*
X92259534Y-85517234D01*
X92432605Y-85445546D01*
X92616333Y-85409000D01*
X92803667Y-85409000D01*
X92987395Y-85445546D01*
X92987395Y-85445546D01*
G37*
G36*
X80287395Y-85445546D02*
G01*
X80460466Y-85517234D01*
X80537818Y-85568919D01*
X80616227Y-85621310D01*
X80748690Y-85753773D01*
X80748691Y-85753775D01*
X80852766Y-85909534D01*
X80924454Y-86082605D01*
X80961000Y-86266333D01*
X80961000Y-86453667D01*
X80924454Y-86637395D01*
X80852766Y-86810466D01*
X80852765Y-86810467D01*
X80748690Y-86966227D01*
X80616227Y-87098690D01*
X80595141Y-87112779D01*
X80460466Y-87202766D01*
X80287395Y-87274454D01*
X80103667Y-87311000D01*
X79916333Y-87311000D01*
X79732605Y-87274454D01*
X79559534Y-87202766D01*
X79424859Y-87112779D01*
X79403773Y-87098690D01*
X79271310Y-86966227D01*
X79167235Y-86810467D01*
X79167234Y-86810466D01*
X79095546Y-86637395D01*
X79059000Y-86453667D01*
X79059000Y-86266333D01*
X79095546Y-86082605D01*
X79167234Y-85909534D01*
X79271309Y-85753775D01*
X79271310Y-85753773D01*
X79403773Y-85621310D01*
X79482182Y-85568919D01*
X79559534Y-85517234D01*
X79732605Y-85445546D01*
X79916333Y-85409000D01*
X80103667Y-85409000D01*
X80287395Y-85445546D01*
X80287395Y-85445546D01*
G37*
G36*
X141080442Y-85465518D02*
G01*
X141146627Y-85472037D01*
X141316466Y-85523557D01*
X141472991Y-85607222D01*
X141490156Y-85621309D01*
X141610186Y-85719814D01*
X141693448Y-85821271D01*
X141722778Y-85857009D01*
X141806443Y-86013534D01*
X141857963Y-86183373D01*
X141875359Y-86360000D01*
X141857963Y-86536627D01*
X141806443Y-86706466D01*
X141722778Y-86862991D01*
X141693448Y-86898729D01*
X141610186Y-87000186D01*
X141508729Y-87083448D01*
X141472991Y-87112778D01*
X141316466Y-87196443D01*
X141146627Y-87247963D01*
X141080442Y-87254482D01*
X141014260Y-87261000D01*
X140925740Y-87261000D01*
X140859558Y-87254482D01*
X140793373Y-87247963D01*
X140623534Y-87196443D01*
X140467009Y-87112778D01*
X140431271Y-87083448D01*
X140329814Y-87000186D01*
X140246552Y-86898729D01*
X140217222Y-86862991D01*
X140133557Y-86706466D01*
X140082037Y-86536627D01*
X140064641Y-86360000D01*
X140082037Y-86183373D01*
X140133557Y-86013534D01*
X140217222Y-85857009D01*
X140246552Y-85821271D01*
X140329814Y-85719814D01*
X140449844Y-85621309D01*
X140467009Y-85607222D01*
X140623534Y-85523557D01*
X140793373Y-85472037D01*
X140859558Y-85465518D01*
X140925740Y-85459000D01*
X141014260Y-85459000D01*
X141080442Y-85465518D01*
X141080442Y-85465518D01*
G37*
G36*
X138540442Y-85465518D02*
G01*
X138606627Y-85472037D01*
X138776466Y-85523557D01*
X138932991Y-85607222D01*
X138950156Y-85621309D01*
X139070186Y-85719814D01*
X139153448Y-85821271D01*
X139182778Y-85857009D01*
X139266443Y-86013534D01*
X139317963Y-86183373D01*
X139335359Y-86360000D01*
X139317963Y-86536627D01*
X139266443Y-86706466D01*
X139182778Y-86862991D01*
X139153448Y-86898729D01*
X139070186Y-87000186D01*
X138968729Y-87083448D01*
X138932991Y-87112778D01*
X138776466Y-87196443D01*
X138606627Y-87247963D01*
X138540442Y-87254482D01*
X138474260Y-87261000D01*
X138385740Y-87261000D01*
X138319558Y-87254482D01*
X138253373Y-87247963D01*
X138083534Y-87196443D01*
X137927009Y-87112778D01*
X137891271Y-87083448D01*
X137789814Y-87000186D01*
X137706552Y-86898729D01*
X137677222Y-86862991D01*
X137593557Y-86706466D01*
X137542037Y-86536627D01*
X137524641Y-86360000D01*
X137542037Y-86183373D01*
X137593557Y-86013534D01*
X137677222Y-85857009D01*
X137706552Y-85821271D01*
X137789814Y-85719814D01*
X137909844Y-85621309D01*
X137927009Y-85607222D01*
X138083534Y-85523557D01*
X138253373Y-85472037D01*
X138319558Y-85465518D01*
X138385740Y-85459000D01*
X138474260Y-85459000D01*
X138540442Y-85465518D01*
X138540442Y-85465518D01*
G37*
G36*
X85367395Y-82905546D02*
G01*
X85540466Y-82977234D01*
X85617818Y-83028919D01*
X85696227Y-83081310D01*
X85828690Y-83213773D01*
X85828691Y-83213775D01*
X85932766Y-83369534D01*
X86004454Y-83542605D01*
X86041000Y-83726333D01*
X86041000Y-83913667D01*
X86004454Y-84097395D01*
X85932766Y-84270466D01*
X85932765Y-84270467D01*
X85828690Y-84426227D01*
X85696227Y-84558690D01*
X85675141Y-84572779D01*
X85540466Y-84662766D01*
X85367395Y-84734454D01*
X85183667Y-84771000D01*
X84996333Y-84771000D01*
X84812605Y-84734454D01*
X84639534Y-84662766D01*
X84504859Y-84572779D01*
X84483773Y-84558690D01*
X84351310Y-84426227D01*
X84247235Y-84270467D01*
X84247234Y-84270466D01*
X84175546Y-84097395D01*
X84139000Y-83913667D01*
X84139000Y-83726333D01*
X84175546Y-83542605D01*
X84247234Y-83369534D01*
X84351309Y-83213775D01*
X84351310Y-83213773D01*
X84483773Y-83081310D01*
X84562182Y-83028919D01*
X84639534Y-82977234D01*
X84812605Y-82905546D01*
X84996333Y-82869000D01*
X85183667Y-82869000D01*
X85367395Y-82905546D01*
X85367395Y-82905546D01*
G37*
G36*
X139331000Y-84721000D02*
G01*
X137529000Y-84721000D01*
X137529000Y-82919000D01*
X139331000Y-82919000D01*
X139331000Y-84721000D01*
X139331000Y-84721000D01*
G37*
G36*
X141080443Y-82925519D02*
G01*
X141146627Y-82932037D01*
X141316466Y-82983557D01*
X141472991Y-83067222D01*
X141490156Y-83081309D01*
X141610186Y-83179814D01*
X141693448Y-83281271D01*
X141722778Y-83317009D01*
X141806443Y-83473534D01*
X141857963Y-83643373D01*
X141875359Y-83820000D01*
X141857963Y-83996627D01*
X141806443Y-84166466D01*
X141722778Y-84322991D01*
X141693448Y-84358729D01*
X141610186Y-84460186D01*
X141508729Y-84543448D01*
X141472991Y-84572778D01*
X141316466Y-84656443D01*
X141146627Y-84707963D01*
X141080443Y-84714481D01*
X141014260Y-84721000D01*
X140925740Y-84721000D01*
X140859557Y-84714481D01*
X140793373Y-84707963D01*
X140623534Y-84656443D01*
X140467009Y-84572778D01*
X140431271Y-84543448D01*
X140329814Y-84460186D01*
X140246552Y-84358729D01*
X140217222Y-84322991D01*
X140133557Y-84166466D01*
X140082037Y-83996627D01*
X140064641Y-83820000D01*
X140082037Y-83643373D01*
X140133557Y-83473534D01*
X140217222Y-83317009D01*
X140246552Y-83281271D01*
X140329814Y-83179814D01*
X140449844Y-83081309D01*
X140467009Y-83067222D01*
X140623534Y-82983557D01*
X140793373Y-82932037D01*
X140859557Y-82925519D01*
X140925740Y-82919000D01*
X141014260Y-82919000D01*
X141080443Y-82925519D01*
X141080443Y-82925519D01*
G37*
G36*
X146298228Y-79191703D02*
G01*
X146453100Y-79255853D01*
X146592481Y-79348985D01*
X146711015Y-79467519D01*
X146804147Y-79606900D01*
X146868297Y-79761772D01*
X146901000Y-79926184D01*
X146901000Y-80093816D01*
X146868297Y-80258228D01*
X146804147Y-80413100D01*
X146711015Y-80552481D01*
X146592481Y-80671015D01*
X146453100Y-80764147D01*
X146298228Y-80828297D01*
X146133816Y-80861000D01*
X145966184Y-80861000D01*
X145801772Y-80828297D01*
X145646900Y-80764147D01*
X145507519Y-80671015D01*
X145388985Y-80552481D01*
X145295853Y-80413100D01*
X145231703Y-80258228D01*
X145199000Y-80093816D01*
X145199000Y-79926184D01*
X145231703Y-79761772D01*
X145295853Y-79606900D01*
X145388985Y-79467519D01*
X145507519Y-79348985D01*
X145646900Y-79255853D01*
X145801772Y-79191703D01*
X145966184Y-79159000D01*
X146133816Y-79159000D01*
X146298228Y-79191703D01*
X146298228Y-79191703D01*
G37*
G36*
X149473228Y-79191703D02*
G01*
X149628100Y-79255853D01*
X149767481Y-79348985D01*
X149886015Y-79467519D01*
X149979147Y-79606900D01*
X150043297Y-79761772D01*
X150076000Y-79926184D01*
X150076000Y-80093816D01*
X150043297Y-80258228D01*
X149979147Y-80413100D01*
X149886015Y-80552481D01*
X149767481Y-80671015D01*
X149628100Y-80764147D01*
X149473228Y-80828297D01*
X149308816Y-80861000D01*
X149141184Y-80861000D01*
X148976772Y-80828297D01*
X148821900Y-80764147D01*
X148682519Y-80671015D01*
X148563985Y-80552481D01*
X148470853Y-80413100D01*
X148406703Y-80258228D01*
X148374000Y-80093816D01*
X148374000Y-79926184D01*
X148406703Y-79761772D01*
X148470853Y-79606900D01*
X148563985Y-79467519D01*
X148682519Y-79348985D01*
X148821900Y-79255853D01*
X148976772Y-79191703D01*
X149141184Y-79159000D01*
X149308816Y-79159000D01*
X149473228Y-79191703D01*
X149473228Y-79191703D01*
G37*
G36*
X92987395Y-77825546D02*
G01*
X93160466Y-77897234D01*
X93160467Y-77897235D01*
X93316227Y-78001310D01*
X93448690Y-78133773D01*
X93448691Y-78133775D01*
X93552766Y-78289534D01*
X93624454Y-78462605D01*
X93661000Y-78646333D01*
X93661000Y-78833667D01*
X93624454Y-79017395D01*
X93552766Y-79190466D01*
X93552765Y-79190467D01*
X93448690Y-79346227D01*
X93316227Y-79478690D01*
X93237818Y-79531081D01*
X93160466Y-79582766D01*
X92987395Y-79654454D01*
X92803667Y-79691000D01*
X92616333Y-79691000D01*
X92432605Y-79654454D01*
X92259534Y-79582766D01*
X92182182Y-79531081D01*
X92103773Y-79478690D01*
X91971310Y-79346227D01*
X91867235Y-79190467D01*
X91867234Y-79190466D01*
X91795546Y-79017395D01*
X91759000Y-78833667D01*
X91759000Y-78646333D01*
X91795546Y-78462605D01*
X91867234Y-78289534D01*
X91971309Y-78133775D01*
X91971310Y-78133773D01*
X92103773Y-78001310D01*
X92259533Y-77897235D01*
X92259534Y-77897234D01*
X92432605Y-77825546D01*
X92616333Y-77789000D01*
X92803667Y-77789000D01*
X92987395Y-77825546D01*
X92987395Y-77825546D01*
G37*
G36*
X80287395Y-77825546D02*
G01*
X80460466Y-77897234D01*
X80460467Y-77897235D01*
X80616227Y-78001310D01*
X80748690Y-78133773D01*
X80748691Y-78133775D01*
X80852766Y-78289534D01*
X80924454Y-78462605D01*
X80961000Y-78646333D01*
X80961000Y-78833667D01*
X80924454Y-79017395D01*
X80852766Y-79190466D01*
X80852765Y-79190467D01*
X80748690Y-79346227D01*
X80616227Y-79478690D01*
X80537818Y-79531081D01*
X80460466Y-79582766D01*
X80287395Y-79654454D01*
X80103667Y-79691000D01*
X79916333Y-79691000D01*
X79732605Y-79654454D01*
X79559534Y-79582766D01*
X79482182Y-79531081D01*
X79403773Y-79478690D01*
X79271310Y-79346227D01*
X79167235Y-79190467D01*
X79167234Y-79190466D01*
X79095546Y-79017395D01*
X79059000Y-78833667D01*
X79059000Y-78646333D01*
X79095546Y-78462605D01*
X79167234Y-78289534D01*
X79271309Y-78133775D01*
X79271310Y-78133773D01*
X79403773Y-78001310D01*
X79559533Y-77897235D01*
X79559534Y-77897234D01*
X79732605Y-77825546D01*
X79916333Y-77789000D01*
X80103667Y-77789000D01*
X80287395Y-77825546D01*
X80287395Y-77825546D01*
G37*
G36*
X123913097Y-77039069D02*
G01*
X124016032Y-77049207D01*
X124214146Y-77109305D01*
X124214149Y-77109306D01*
X124310975Y-77161061D01*
X124396729Y-77206897D01*
X124556765Y-77338235D01*
X124688103Y-77498271D01*
X124733939Y-77584025D01*
X124785694Y-77680851D01*
X124785695Y-77680854D01*
X124845793Y-77878968D01*
X124866085Y-78085000D01*
X124845793Y-78291032D01*
X124793746Y-78462605D01*
X124785694Y-78489149D01*
X124733939Y-78585975D01*
X124688103Y-78671729D01*
X124556765Y-78831765D01*
X124396729Y-78963103D01*
X124310975Y-79008939D01*
X124214149Y-79060694D01*
X124214146Y-79060695D01*
X124016032Y-79120793D01*
X123913097Y-79130931D01*
X123861631Y-79136000D01*
X122758369Y-79136000D01*
X122706903Y-79130931D01*
X122603968Y-79120793D01*
X122405854Y-79060695D01*
X122405851Y-79060694D01*
X122309025Y-79008939D01*
X122223271Y-78963103D01*
X122063235Y-78831765D01*
X121931897Y-78671729D01*
X121886061Y-78585975D01*
X121834306Y-78489149D01*
X121826254Y-78462605D01*
X121774207Y-78291032D01*
X121753915Y-78085000D01*
X121774207Y-77878968D01*
X121834305Y-77680854D01*
X121834306Y-77680851D01*
X121886061Y-77584025D01*
X121931897Y-77498271D01*
X122063235Y-77338235D01*
X122223271Y-77206897D01*
X122309025Y-77161061D01*
X122405851Y-77109306D01*
X122405854Y-77109305D01*
X122603968Y-77049207D01*
X122706903Y-77039069D01*
X122758369Y-77034000D01*
X123861631Y-77034000D01*
X123913097Y-77039069D01*
X123913097Y-77039069D01*
G37*
G36*
X131413097Y-77039069D02*
G01*
X131516032Y-77049207D01*
X131714146Y-77109305D01*
X131714149Y-77109306D01*
X131810975Y-77161061D01*
X131896729Y-77206897D01*
X132056765Y-77338235D01*
X132188103Y-77498271D01*
X132233939Y-77584025D01*
X132285694Y-77680851D01*
X132285695Y-77680854D01*
X132345793Y-77878968D01*
X132366085Y-78085000D01*
X132345793Y-78291032D01*
X132293746Y-78462605D01*
X132285694Y-78489149D01*
X132233939Y-78585975D01*
X132188103Y-78671729D01*
X132056765Y-78831765D01*
X131896729Y-78963103D01*
X131810975Y-79008939D01*
X131714149Y-79060694D01*
X131714146Y-79060695D01*
X131516032Y-79120793D01*
X131413097Y-79130931D01*
X131361631Y-79136000D01*
X130258369Y-79136000D01*
X130206903Y-79130931D01*
X130103968Y-79120793D01*
X129905854Y-79060695D01*
X129905851Y-79060694D01*
X129809025Y-79008939D01*
X129723271Y-78963103D01*
X129563235Y-78831765D01*
X129431897Y-78671729D01*
X129386061Y-78585975D01*
X129334306Y-78489149D01*
X129326254Y-78462605D01*
X129274207Y-78291032D01*
X129253915Y-78085000D01*
X129274207Y-77878968D01*
X129334305Y-77680854D01*
X129334306Y-77680851D01*
X129386061Y-77584025D01*
X129431897Y-77498271D01*
X129563235Y-77338235D01*
X129723271Y-77206897D01*
X129809025Y-77161061D01*
X129905851Y-77109306D01*
X129905854Y-77109305D01*
X130103968Y-77049207D01*
X130206903Y-77039069D01*
X130258369Y-77034000D01*
X131361631Y-77034000D01*
X131413097Y-77039069D01*
X131413097Y-77039069D01*
G37*
G36*
X85367395Y-75285546D02*
G01*
X85540466Y-75357234D01*
X85540467Y-75357235D01*
X85696227Y-75461310D01*
X85828690Y-75593773D01*
X85828691Y-75593775D01*
X85932766Y-75749534D01*
X86004454Y-75922605D01*
X86041000Y-76106333D01*
X86041000Y-76293667D01*
X86004454Y-76477395D01*
X85932766Y-76650466D01*
X85932765Y-76650467D01*
X85828690Y-76806227D01*
X85696227Y-76938690D01*
X85617818Y-76991081D01*
X85540466Y-77042766D01*
X85367395Y-77114454D01*
X85183667Y-77151000D01*
X84996333Y-77151000D01*
X84812605Y-77114454D01*
X84639534Y-77042766D01*
X84562182Y-76991081D01*
X84483773Y-76938690D01*
X84351310Y-76806227D01*
X84247235Y-76650467D01*
X84247234Y-76650466D01*
X84175546Y-76477395D01*
X84139000Y-76293667D01*
X84139000Y-76106333D01*
X84175546Y-75922605D01*
X84247234Y-75749534D01*
X84351309Y-75593775D01*
X84351310Y-75593773D01*
X84483773Y-75461310D01*
X84639533Y-75357235D01*
X84639534Y-75357234D01*
X84812605Y-75285546D01*
X84996333Y-75249000D01*
X85183667Y-75249000D01*
X85367395Y-75285546D01*
X85367395Y-75285546D01*
G37*
G36*
X131413097Y-71999069D02*
G01*
X131516032Y-72009207D01*
X131714146Y-72069305D01*
X131714149Y-72069306D01*
X131810975Y-72121061D01*
X131896729Y-72166897D01*
X132056765Y-72298235D01*
X132188103Y-72458271D01*
X132233939Y-72544025D01*
X132285694Y-72640851D01*
X132285695Y-72640854D01*
X132345793Y-72838968D01*
X132366085Y-73045000D01*
X132345793Y-73251032D01*
X132285695Y-73449146D01*
X132285694Y-73449149D01*
X132233939Y-73545975D01*
X132188103Y-73631729D01*
X132056765Y-73791765D01*
X131896729Y-73923103D01*
X131810975Y-73968939D01*
X131714149Y-74020694D01*
X131714146Y-74020695D01*
X131516032Y-74080793D01*
X131413097Y-74090931D01*
X131361631Y-74096000D01*
X130258369Y-74096000D01*
X130206903Y-74090931D01*
X130103968Y-74080793D01*
X129905854Y-74020695D01*
X129905851Y-74020694D01*
X129809025Y-73968939D01*
X129723271Y-73923103D01*
X129563235Y-73791765D01*
X129431897Y-73631729D01*
X129386061Y-73545975D01*
X129334306Y-73449149D01*
X129334305Y-73449146D01*
X129274207Y-73251032D01*
X129253915Y-73045000D01*
X129274207Y-72838968D01*
X129334305Y-72640854D01*
X129334306Y-72640851D01*
X129386061Y-72544025D01*
X129431897Y-72458271D01*
X129563235Y-72298235D01*
X129723271Y-72166897D01*
X129809025Y-72121061D01*
X129905851Y-72069306D01*
X129905854Y-72069305D01*
X130103968Y-72009207D01*
X130206903Y-71999069D01*
X130258369Y-71994000D01*
X131361631Y-71994000D01*
X131413097Y-71999069D01*
X131413097Y-71999069D01*
G37*
G36*
X123913097Y-71999069D02*
G01*
X124016032Y-72009207D01*
X124214146Y-72069305D01*
X124214149Y-72069306D01*
X124310975Y-72121061D01*
X124396729Y-72166897D01*
X124556765Y-72298235D01*
X124688103Y-72458271D01*
X124733939Y-72544025D01*
X124785694Y-72640851D01*
X124785695Y-72640854D01*
X124845793Y-72838968D01*
X124866085Y-73045000D01*
X124845793Y-73251032D01*
X124785695Y-73449146D01*
X124785694Y-73449149D01*
X124733939Y-73545975D01*
X124688103Y-73631729D01*
X124556765Y-73791765D01*
X124396729Y-73923103D01*
X124310975Y-73968939D01*
X124214149Y-74020694D01*
X124214146Y-74020695D01*
X124016032Y-74080793D01*
X123913097Y-74090931D01*
X123861631Y-74096000D01*
X122758369Y-74096000D01*
X122706903Y-74090931D01*
X122603968Y-74080793D01*
X122405854Y-74020695D01*
X122405851Y-74020694D01*
X122309025Y-73968939D01*
X122223271Y-73923103D01*
X122063235Y-73791765D01*
X121931897Y-73631729D01*
X121886061Y-73545975D01*
X121834306Y-73449149D01*
X121834305Y-73449146D01*
X121774207Y-73251032D01*
X121753915Y-73045000D01*
X121774207Y-72838968D01*
X121834305Y-72640854D01*
X121834306Y-72640851D01*
X121886061Y-72544025D01*
X121931897Y-72458271D01*
X122063235Y-72298235D01*
X122223271Y-72166897D01*
X122309025Y-72121061D01*
X122405851Y-72069306D01*
X122405854Y-72069305D01*
X122603968Y-72009207D01*
X122706903Y-71999069D01*
X122758369Y-71994000D01*
X123861631Y-71994000D01*
X123913097Y-71999069D01*
X123913097Y-71999069D01*
G37*
G36*
X144861000Y-72471000D02*
G01*
X142159000Y-72471000D01*
X142159000Y-69769000D01*
X144861000Y-69769000D01*
X144861000Y-72471000D01*
X144861000Y-72471000D01*
G37*
G36*
X138824072Y-69820918D02*
G01*
X139069939Y-69922759D01*
X139181328Y-69997187D01*
X139291211Y-70070609D01*
X139479391Y-70258789D01*
X139491716Y-70277235D01*
X139561257Y-70381309D01*
X139627242Y-70480063D01*
X139729082Y-70725928D01*
X139781000Y-70986937D01*
X139781000Y-71253063D01*
X139752290Y-71397396D01*
X139729082Y-71514072D01*
X139627241Y-71759939D01*
X139552813Y-71871328D01*
X139491716Y-71962766D01*
X139479390Y-71981212D01*
X139291212Y-72169390D01*
X139069939Y-72317241D01*
X139069938Y-72317242D01*
X139069937Y-72317242D01*
X138824072Y-72419082D01*
X138563063Y-72471000D01*
X138296937Y-72471000D01*
X138035928Y-72419082D01*
X137790063Y-72317242D01*
X137790062Y-72317242D01*
X137790061Y-72317241D01*
X137568788Y-72169390D01*
X137380610Y-71981212D01*
X137368285Y-71962766D01*
X137307187Y-71871328D01*
X137232759Y-71759939D01*
X137130918Y-71514072D01*
X137107710Y-71397396D01*
X137079000Y-71253063D01*
X137079000Y-70986937D01*
X137130918Y-70725928D01*
X137232758Y-70480063D01*
X137298744Y-70381309D01*
X137368284Y-70277235D01*
X137380609Y-70258789D01*
X137568789Y-70070609D01*
X137678672Y-69997187D01*
X137790061Y-69922759D01*
X138035928Y-69820918D01*
X138296937Y-69769000D01*
X138563063Y-69769000D01*
X138824072Y-69820918D01*
X138824072Y-69820918D01*
G37*
G36*
X92987395Y-70205546D02*
G01*
X93160466Y-70277234D01*
X93160467Y-70277235D01*
X93316227Y-70381310D01*
X93448690Y-70513773D01*
X93448691Y-70513775D01*
X93552766Y-70669534D01*
X93624454Y-70842605D01*
X93661000Y-71026333D01*
X93661000Y-71213667D01*
X93624454Y-71397395D01*
X93552766Y-71570466D01*
X93552765Y-71570467D01*
X93448690Y-71726227D01*
X93316227Y-71858690D01*
X93237818Y-71911081D01*
X93160466Y-71962766D01*
X92987395Y-72034454D01*
X92803667Y-72071000D01*
X92616333Y-72071000D01*
X92432605Y-72034454D01*
X92259534Y-71962766D01*
X92182182Y-71911081D01*
X92103773Y-71858690D01*
X91971310Y-71726227D01*
X91867235Y-71570467D01*
X91867234Y-71570466D01*
X91795546Y-71397395D01*
X91759000Y-71213667D01*
X91759000Y-71026333D01*
X91795546Y-70842605D01*
X91867234Y-70669534D01*
X91971309Y-70513775D01*
X91971310Y-70513773D01*
X92103773Y-70381310D01*
X92259533Y-70277235D01*
X92259534Y-70277234D01*
X92432605Y-70205546D01*
X92616333Y-70169000D01*
X92803667Y-70169000D01*
X92987395Y-70205546D01*
X92987395Y-70205546D01*
G37*
G36*
X80287395Y-70205546D02*
G01*
X80460466Y-70277234D01*
X80460467Y-70277235D01*
X80616227Y-70381310D01*
X80748690Y-70513773D01*
X80748691Y-70513775D01*
X80852766Y-70669534D01*
X80924454Y-70842605D01*
X80961000Y-71026333D01*
X80961000Y-71213667D01*
X80924454Y-71397395D01*
X80852766Y-71570466D01*
X80852765Y-71570467D01*
X80748690Y-71726227D01*
X80616227Y-71858690D01*
X80537818Y-71911081D01*
X80460466Y-71962766D01*
X80287395Y-72034454D01*
X80103667Y-72071000D01*
X79916333Y-72071000D01*
X79732605Y-72034454D01*
X79559534Y-71962766D01*
X79482182Y-71911081D01*
X79403773Y-71858690D01*
X79271310Y-71726227D01*
X79167235Y-71570467D01*
X79167234Y-71570466D01*
X79095546Y-71397395D01*
X79059000Y-71213667D01*
X79059000Y-71026333D01*
X79095546Y-70842605D01*
X79167234Y-70669534D01*
X79271309Y-70513775D01*
X79271310Y-70513773D01*
X79403773Y-70381310D01*
X79559533Y-70277235D01*
X79559534Y-70277234D01*
X79732605Y-70205546D01*
X79916333Y-70169000D01*
X80103667Y-70169000D01*
X80287395Y-70205546D01*
X80287395Y-70205546D01*
G37*
G36*
X69214239Y-65391467D02*
G01*
X69528282Y-65453934D01*
X70119926Y-65699001D01*
X70652392Y-66054784D01*
X71105216Y-66507608D01*
X71460999Y-67040074D01*
X71706066Y-67631718D01*
X71831000Y-68259804D01*
X71831000Y-68900196D01*
X71706066Y-69528282D01*
X71460999Y-70119926D01*
X71105216Y-70652392D01*
X70652392Y-71105216D01*
X70119926Y-71460999D01*
X69528282Y-71706066D01*
X69257454Y-71759937D01*
X68900197Y-71831000D01*
X68259803Y-71831000D01*
X67902546Y-71759937D01*
X67631718Y-71706066D01*
X67040074Y-71460999D01*
X66507608Y-71105216D01*
X66054784Y-70652392D01*
X65699001Y-70119926D01*
X65453934Y-69528282D01*
X65329000Y-68900196D01*
X65329000Y-68259804D01*
X65453934Y-67631718D01*
X65699001Y-67040074D01*
X66054784Y-66507608D01*
X66507608Y-66054784D01*
X67040074Y-65699001D01*
X67631718Y-65453934D01*
X67945761Y-65391467D01*
X68259803Y-65329000D01*
X68900197Y-65329000D01*
X69214239Y-65391467D01*
X69214239Y-65391467D01*
G37*
G36*
X155574239Y-65391467D02*
G01*
X155888282Y-65453934D01*
X156479926Y-65699001D01*
X157012392Y-66054784D01*
X157465216Y-66507608D01*
X157820999Y-67040074D01*
X158066066Y-67631718D01*
X158191000Y-68259804D01*
X158191000Y-68900196D01*
X158066066Y-69528282D01*
X157820999Y-70119926D01*
X157465216Y-70652392D01*
X157012392Y-71105216D01*
X156479926Y-71460999D01*
X155888282Y-71706066D01*
X155617454Y-71759937D01*
X155260197Y-71831000D01*
X154619803Y-71831000D01*
X154262546Y-71759937D01*
X153991718Y-71706066D01*
X153400074Y-71460999D01*
X152867608Y-71105216D01*
X152414784Y-70652392D01*
X152059001Y-70119926D01*
X151813934Y-69528282D01*
X151689000Y-68900196D01*
X151689000Y-68259804D01*
X151813934Y-67631718D01*
X152059001Y-67040074D01*
X152414784Y-66507608D01*
X152867608Y-66054784D01*
X153400074Y-65699001D01*
X153991718Y-65453934D01*
X154305761Y-65391467D01*
X154619803Y-65329000D01*
X155260197Y-65329000D01*
X155574239Y-65391467D01*
X155574239Y-65391467D01*
G37*
G36*
X85367395Y-67665546D02*
G01*
X85540466Y-67737234D01*
X85540467Y-67737235D01*
X85696227Y-67841310D01*
X85828690Y-67973773D01*
X85828691Y-67973775D01*
X85932766Y-68129534D01*
X86004454Y-68302605D01*
X86041000Y-68486333D01*
X86041000Y-68673667D01*
X86004454Y-68857395D01*
X85932766Y-69030466D01*
X85881081Y-69107818D01*
X85828690Y-69186227D01*
X85696227Y-69318690D01*
X85617818Y-69371081D01*
X85540466Y-69422766D01*
X85367395Y-69494454D01*
X85183667Y-69531000D01*
X84996333Y-69531000D01*
X84812605Y-69494454D01*
X84639534Y-69422766D01*
X84562182Y-69371081D01*
X84483773Y-69318690D01*
X84351310Y-69186227D01*
X84298919Y-69107818D01*
X84247234Y-69030466D01*
X84175546Y-68857395D01*
X84139000Y-68673667D01*
X84139000Y-68486333D01*
X84175546Y-68302605D01*
X84247234Y-68129534D01*
X84351309Y-67973775D01*
X84351310Y-67973773D01*
X84483773Y-67841310D01*
X84639533Y-67737235D01*
X84639534Y-67737234D01*
X84812605Y-67665546D01*
X84996333Y-67629000D01*
X85183667Y-67629000D01*
X85367395Y-67665546D01*
X85367395Y-67665546D01*
G37*
G36*
X131413097Y-66959069D02*
G01*
X131516032Y-66969207D01*
X131714146Y-67029305D01*
X131714149Y-67029306D01*
X131810975Y-67081061D01*
X131896729Y-67126897D01*
X132056765Y-67258235D01*
X132188103Y-67418271D01*
X132233939Y-67504025D01*
X132285694Y-67600851D01*
X132285695Y-67600854D01*
X132345793Y-67798968D01*
X132366085Y-68005000D01*
X132345793Y-68211032D01*
X132318014Y-68302605D01*
X132285694Y-68409149D01*
X132244438Y-68486333D01*
X132188103Y-68591729D01*
X132056765Y-68751765D01*
X131896729Y-68883103D01*
X131864748Y-68900197D01*
X131714149Y-68980694D01*
X131714146Y-68980695D01*
X131516032Y-69040793D01*
X131413097Y-69050931D01*
X131361631Y-69056000D01*
X130258369Y-69056000D01*
X130206903Y-69050931D01*
X130103968Y-69040793D01*
X129905854Y-68980695D01*
X129905851Y-68980694D01*
X129755252Y-68900197D01*
X129723271Y-68883103D01*
X129563235Y-68751765D01*
X129431897Y-68591729D01*
X129375562Y-68486333D01*
X129334306Y-68409149D01*
X129301986Y-68302605D01*
X129274207Y-68211032D01*
X129253915Y-68005000D01*
X129274207Y-67798968D01*
X129334305Y-67600854D01*
X129334306Y-67600851D01*
X129386061Y-67504025D01*
X129431897Y-67418271D01*
X129563235Y-67258235D01*
X129723271Y-67126897D01*
X129809025Y-67081061D01*
X129905851Y-67029306D01*
X129905854Y-67029305D01*
X130103968Y-66969207D01*
X130206903Y-66959069D01*
X130258369Y-66954000D01*
X131361631Y-66954000D01*
X131413097Y-66959069D01*
X131413097Y-66959069D01*
G37*
G36*
X123913097Y-66959069D02*
G01*
X124016032Y-66969207D01*
X124214146Y-67029305D01*
X124214149Y-67029306D01*
X124310975Y-67081061D01*
X124396729Y-67126897D01*
X124556765Y-67258235D01*
X124688103Y-67418271D01*
X124733939Y-67504025D01*
X124785694Y-67600851D01*
X124785695Y-67600854D01*
X124845793Y-67798968D01*
X124866085Y-68005000D01*
X124845793Y-68211032D01*
X124818014Y-68302605D01*
X124785694Y-68409149D01*
X124744438Y-68486333D01*
X124688103Y-68591729D01*
X124556765Y-68751765D01*
X124396729Y-68883103D01*
X124364748Y-68900197D01*
X124214149Y-68980694D01*
X124214146Y-68980695D01*
X124016032Y-69040793D01*
X123913097Y-69050931D01*
X123861631Y-69056000D01*
X122758369Y-69056000D01*
X122706903Y-69050931D01*
X122603968Y-69040793D01*
X122405854Y-68980695D01*
X122405851Y-68980694D01*
X122255252Y-68900197D01*
X122223271Y-68883103D01*
X122063235Y-68751765D01*
X121931897Y-68591729D01*
X121875562Y-68486333D01*
X121834306Y-68409149D01*
X121801986Y-68302605D01*
X121774207Y-68211032D01*
X121753915Y-68005000D01*
X121774207Y-67798968D01*
X121834305Y-67600854D01*
X121834306Y-67600851D01*
X121886061Y-67504025D01*
X121931897Y-67418271D01*
X122063235Y-67258235D01*
X122223271Y-67126897D01*
X122309025Y-67081061D01*
X122405851Y-67029306D01*
X122405854Y-67029305D01*
X122603968Y-66969207D01*
X122706903Y-66959069D01*
X122758369Y-66954000D01*
X123861631Y-66954000D01*
X123913097Y-66959069D01*
X123913097Y-66959069D01*
G37*
M02*
